<?xml version="1.0" encoding="utf-8"?>
<!-- Generator: Adobe Illustrator 18.0.0, SVG Export Plug-In . SVG Version: 6.00 Build 0)  -->
<!DOCTYPE svg PUBLIC "-//W3C//DTD SVG 1.1//EN" "http://www.w3.org/Graphics/SVG/1.1/DTD/svg11.dtd">
<svg version="1.1" id="Layer_1" xmlns="http://www.w3.org/2000/svg" xmlns:xlink="http://www.w3.org/1999/xlink" x="0px" y="0px"
	 viewBox="0 0 1920 1080" enable-background="new 0 0 1920 1080" xml:space="preserve">
<g>
	<path fill="#F8F7F3" d="M308.8,564.1c9.7-35.9,21.6-72.3,40.1-104.7c10.3,1.1,45.2,3.1,41.4-15.8c-2.3-11.4-6.2,3.8-8.9,5.4
		c-7.6,4.3-19.2,2.9-27.5,2.2c3.1-5,6.5-9.9,10.5-14.2c0.9-1,10.9-8.5,10.9-9.4c0-1.8-10.5,1.1-11.3,1.4c-5.6,1.6-10.1,3.6-14.2,7.8
		c-4.1,4.2-7.3,13.1-13.3,12.1c-6.4-1.1-12.8-2.3-19.1-3.7c2.9-3.9,6-7.6,9.4-11c1-1,8.7-5.8,8.7-6.9c0-3.2-21.4,5.5-23.2,7.1
		c-2.1,1.9-4,4.1-5.8,6.3c-2.3,2.9-5.3,0.7-8.5-0.1c-5.3-1.4-10.5-2.8-15.7-4.5c3.7-3.7,7-7.7,11.5-10.5c2.6-1.7,9.6,2,8.3-4.4
		c-2.6-13-20.6,5-24.1,8.9c-4.6,5.1-7.2,2.7-13.6,0.5c-6.2-2.1-12.3-4.3-18.5-6.3c-15-4.9-30.3-9.5-45.9-12.3
		c-26.4-4.7-54.7-3.5-78.4,10.2c-22.3,13-38,39.3-32.3,65.5c5.9,27.5,35.6,42.3,61.5,31.9c10.7-4.3,20.2-12.8,24.8-23.5
		c1.2-2.7,5.7-13.2,1.4-15c-4.5-1.8-5.6,8.9-6.8,11.3c-10.8,21.5-49.9,35.7-64.4,9.7c-13.8-24.8,9.2-54,29.9-66.1
		c39.7-23,93.5-10.1,134.6,2.9c-6.9,8.8-10.8,20.6-15.5,30.6c-6.6,14.1-13.1,28.3-19.8,42.3c-12.7,26.5-26.4,55.6-47.2,76.8
		c-38.2,39-106.5,54.9-151.3,17.2c-20.8-17.4-28.5-47.2-19.6-72.8c4.1-11.8,13.1-18.6,22.7-25.7c2.7-2,5.5-7.3-0.2-7.5
		c-6.2-0.2-12.3,4.6-16.6,8.5C3.1,526.7-0.4,560.9,8.5,585c9.8,26.4,35.7,41.5,61.9,47.9c28.8,7.1,60.6,5.1,88.5-5
		c26.3-9.5,45.9-26.7,60.3-50.5c15.3-25.1,23.8-54.3,33.9-81.7c5.2-14.3,10.6-28.4,17.8-41.8c1.7-3.1,3.4-6.1,5.3-9.2
		c2.5-4.1,2.3-2.9,6.2-1.3c5.8,2.3,11.6,4.4,17.6,6.2c-16.4,25.4-26.7,54.5-36.7,82.8c-6.3,17.9-12,35.8-15.3,54.5
		c-1.5,8.6-2.5,17.4-1.6,26.1c0.8,6,6.5,15.4,12.6,7.2c3.3-4.5,1.3-12.5,1.7-17.8c0.9-9.8,3-19.6,5.2-29.2
		c3.9-17,8.8-33.7,14.1-50.3c5.6-17.5,12.4-34.5,20.9-50.8c3.4-6.6,7.1-13.1,11.1-19.4c7.6,1.9,15.3,3.4,23,4.6
		c-17.6,30.6-30.8,65.2-40.9,99c-5.2,17.3-12.6,41.5-1.7,58.1c11.5,17.6,36.4,4.7,47.8-6.1c13.8-12.9,23.1-31.3,31.3-48.1
		c0.9-1.9,4.2-6.6,3-8.8c-2.1-3.8-6.6,5.7-6.8,6.2c-4.3,9-9.5,17.6-15.2,25.8c-7.3,10.6-24.3,35.4-40.3,30.3
		C295.6,608.9,306,574.7,308.8,564.1C310.3,558.4,307.3,569.9,308.8,564.1z"/>
	<path fill="#F8F7F3" d="M459.3,560.7c1.2-2.4,0.5-5.7-2.9-3.1c-2.8,2.2-4,7.2-5.5,10.3c-4.5,9.2-9.4,18.3-16.4,25.9
		c-10.6,11.5-36.4,22.9-38.1-1.7c-0.3-4.8-0.2-21.9,5.7-22.5c9.1-0.9,18.7-4.3,26.6-8.7c11-6.1,35.9-30.4,19.9-43
		c-15.7-11.1-36.8,6.3-46.7,17.7c-12.8,15-25.7,39.6-19.7,59.9c5.1,17.6,27.5,20.6,42.1,13.4C442.9,599.8,451,578.4,459.3,560.7
		C460,559.3,456.7,566.2,459.3,560.7z M408.4,553.4c5.5-9.4,12.6-18.3,20.6-25.6c5.3-4.8,18.7-12.9,16.7,1
		c-2.8,18.9-25,36.1-43.8,36.1C403.9,560.9,406.2,557.1,408.4,553.4C411.4,548.3,405.4,558.5,408.4,553.4z"/>
	<path fill="#F8F7F3" d="M570.3,556.4c-2.4-1.6-17.6,28.3-20.1,32c-4.9,7-20.2,25.1-29.3,13.4c-16.7-21.3,11.4-60.2,26.5-74.3
		c5.3,18.1,31.5-14.8,9-12.7c-15,1.4-28.6,27.9-34.6,39.7c2.1-11.2,5.4-32.7-10.9-34.4c-15.7-2.2-25.4,20-31,30.8
		c-2.5,4.9-9.5,14.5-9.1,20.3c0.3,4.1,4.1-1.6,4.7-2.6c1.9-3.7,4-7.2,5.9-10.9c2.1-4,18.7-39.9,26.5-28.2c3.8,5.7,0.8,16.3-0.4,22.5
		c-1.7,8.9-5.6,17.4-9.7,25.5c-6.7,13.1-17.1,34.1-33.2,37c-2.9,0.5-6,0.2-8.2-1.8c-2.2-2.9-6.7,1.6-4.6,4.4
		c5.5,5.5,14.1,4.3,20.5,1.1c14.4-7,24.3-25.1,31.4-38.7c-4.2,21,13.8,40.4,34.3,28.4c9-5.3,15.5-14.3,20.7-23.2
		C560.5,581.2,574,558.9,570.3,556.4C569.2,555.6,571.4,557.1,570.3,556.4z"/>
	<path fill="#F8F7F3" d="M608.8,615.3c13.2,0,19.3-22.4,3.8-22.4C599.2,592.9,593.3,615.3,608.8,615.3z"/>
	<path fill="#F8F7F3" d="M761,556.4c-3.5-1.5-15.7,25.1-18.1,28.7c-6.6,9.8-15.5,20.5-27.8,22.9c5.1-15.2,5.5-38.2-15.8-37.7
		c10.6-6.4,19.4-15.3,24.2-26.9c4.4-10.9,3.2-23.9-10.1-27.2c-29.4-7.2-42.4,30.4-52.7,49.8c-0.6,1.2-3.7,12.9,0.6,7.7
		c3.3-3.8,4.9-9.8,7.3-14.2c5.2-9.8,10.8-24.1,21.9-28.4c9.5-3.7,22.4,0.9,20.9,13c-1.4,11-13.5,21.6-22.1,27.2
		c-3.2,2.1-12.4,3.5-14.1,6.8c-3.6,7.1,12.2,0.3,13.6-0.3c15.8-7.2,13,15.9,11.1,24.7c-0.7,3.1-1.4,6.2-2.3,9.3
		c-1.2,3.9-3.8,3.5-7.4,4.6c-7,2.2-13.9,4.3-20.9,6.4c-14.8,4.5-29.7,9.5-43.5,16.5c-11.2,5.7-22.5,12.8-27.7,24.8
		c-5.2,12.1-0.4,25.7,12.4,30.1c23.1,8,54-12.4,69.8-27.6c8.1-7.8,15.2-16.7,21-26.4c3.2-5.3,6.1-10.9,8.6-16.7
		c1.3-2.9,2.4-5.9,3.5-8.9c2.8-0.5,5.6-1.3,8.2-2.5c10.7-4.6,18.7-14.5,24.9-24.1C748.7,584.9,765,558.1,761,556.4
		C759.7,555.8,762.3,556.9,761,556.4z M680.3,647.6c-11,15-25.1,28.1-41.9,36.5c-12.8,6.4-37.8,11-32.4-11.9
		c8.6-36.4,59.2-41.2,88.5-50.9C690.9,630.7,686.2,639.6,680.3,647.6C674.4,655.5,686.1,639.7,680.3,647.6z"/>
	<path fill="#F8F7F3" d="M877,556.4c-3.6-1.6-15.4,24.3-17.3,27.2c-2.1,3.4-19.3,29.7-24.7,19.5c-4.6-8.6,2.8-24,6.2-31.9
		c4.8-11.1,10.7-25,19.4-33.7c-7.6,1.4-15.7-4.5-21.7,3c-6.4,8.1-10.6,17.8-15.8,26.6c-5.6,9.6-11.5,19.6-19.3,27.6
		c-4.5,4.7-19,15.9-22.5,4.2c-6.6-22,45.1-97.5,67.2-74.4c2,2.1,2.1,6.8,5.4,6.1c4.3-0.8,3.1-5.7,0.9-7.9
		c-7.1-7.7-17.7-9.7-27.7-8.1c-22.1,3.6-38.4,20.5-48.7,39.5c-7.4,13.7-18.1,43.3-1.9,55.2c17.6,12.9,38.6-21,45.6-32.6
		c-2.5,8.7-4.9,20.2,0.3,28.5c5.3,8.5,15.8,8,23.1,2.6C850.9,603.9,883.9,559.3,877,556.4C875.7,555.8,878.2,556.9,877,556.4z"/>
	<path fill="#F8F7F3" d="M988.8,557.2c-4.2-1.6-9.7,14.5-11.1,17.3c-4.3,8.3-9.1,16.5-15.6,23.2c-5.4,5.7-12.3,9.4-20.3,7
		c-3.2-1-5.7-3.1-7.3-6.1c3.7-3.5,7.2-7.3,10.3-11.3c11-14.1,20.1-32.7,18.2-51.1c0.1-8-3.1-17.4-4.9-25.2
		c-1.8-7.8-3.8-15.5-6.5-23.1c-8.1-22.6-31.7-67.8-7.8-87.6c13.7-11.4,36.6,4.7,50.9,7.1c19.8,3.4,36-6.7,47.5-22.3
		c-1-0.9-2.3-1.4-3.8-1.2c-4-0.3-4.3,0.3-6.8,3c-3.2,3.5-7.3,6.2-12,7.2c-10.3,2.3-21.4-1-31-4.6c-16.3-6.1-42.2-10.3-55.4,4.4
		c-15.3,17.1-7.8,43.9-0.3,62.6c8.1,20,15.5,41.1,20,62.2c-21.2-11.2-45,16.3-54.5,31.8c-8.5,13.8-23,49.8-1.2,59.6
		c9.8,4.4,20.8,0.3,29.1-5.2c4.7-3.1,6.8,2.1,12.1,3.8c5.2,1.6,11.3,1.6,16.4-0.4c10.5-4.1,18.1-15.2,23.7-24.5
		C980.3,581.1,993.1,558.8,988.8,557.2C987.4,556.6,990.3,557.7,988.8,557.2z M924.3,577.4c-4,6.9-2.2,15.2,2,21.6
		c-5.1,4.3-17,11.8-22.6,4.1c-9.3-12.8,5.7-40.3,12.3-51.1c4.7-7.9,33.5-43,39.6-19.2c4.4,17.1-7.3,38.8-16.5,52.3
		C942.1,576.1,929.2,568.9,924.3,577.4C922.9,579.7,925.7,575,924.3,577.4z"/>
	<path fill="#F8F7F3" d="M1058.1,595c6.1-7.9,10.3-16.8,14.6-25.8c1.5-3.2,3.9-6.8,4.7-10.3c1-4.5-4.8-0.3-5.6,1.6
		c-7.4,16.5-17.7,39.2-36.5,45.3c-22,7.2-23.8-16-19.4-31.6c1.3-4.5,1.5-4.1,5.9-4.9c5.2-0.9,10.3-2.4,15.2-4.3
		c9.9-3.8,18.5-9.7,25.1-17.9c5-6.2,10.7-15.5,7.8-23.8c-2.9-8.3-13-9.6-20.4-8c-20.2,4.3-35.5,24.1-43.8,41.7
		c-7,14.9-13.7,39.6,3,50.9C1025.5,619.2,1047,609.4,1058.1,595C1062.1,589.8,1054.1,600.2,1058.1,595z M1025.8,553.4
		c5.5-9.4,12.6-18.3,20.6-25.6c5.3-4.8,18.7-12.9,16.7,1c-2.8,18.9-25,36.1-43.8,36.1C1021.3,560.9,1023.6,557.1,1025.8,553.4
		C1028.8,548.3,1022.8,558.5,1025.8,553.4z"/>
	<path fill="#F8F7F3" d="M1189.9,561.3c2.2-4.7-1.3-6.8-3.8-2.2c-3.8,7.8-7.7,15.6-12.3,23c-6.8,10.9-16.4,23.2-29.7,25.9
		c5.1-15.2,5.5-38.2-15.8-37.7c10.6-6.4,19.4-15.3,24.2-26.9c4.4-10.9,3.2-23.9-10.1-27.2c-29.4-7.2-42.4,30.4-52.7,49.8
		c-0.6,1.2-3.7,12.9,0.6,7.7c3.2-3.8,4.9-9.8,7.3-14.2c5.2-9.8,10.8-24.1,21.9-28.4c9.5-3.7,22.4,0.9,20.9,13
		c-1.4,11-13.5,21.6-22.1,27.2c-3.2,2.1-12.4,3.5-14.1,6.8c-3.6,7.1,12.2,0.3,13.6-0.3c15.8-7.2,13,15.9,11.1,24.7
		c-0.7,3.1-1.4,6.2-2.3,9.3c-1.2,3.9-3.8,3.5-7.4,4.6c-7,2.2-13.9,4.3-20.9,6.4c-14.8,4.5-29.7,9.5-43.5,16.5
		c-11.2,5.7-22.5,12.8-27.7,24.8c-5.2,12.1-0.4,25.7,12.4,30.1c23.1,8,54-12.4,69.8-27.6c8.1-7.8,15.2-16.7,21-26.4
		c2.7-4.4,5.1-9,7.3-13.8c1.3-2.9,2.6-5.8,3.7-8.8c1.6-4.2,2.7-3.1,6.7-4.5C1169.6,605.8,1180.7,580.2,1189.9,561.3
		C1191.2,558.6,1186.8,567.7,1189.9,561.3z M1109.1,647.6c-11,15-25.1,28.1-41.9,36.5c-12.8,6.4-37.8,11-32.4-11.9
		c8.6-36.4,59.2-41.2,88.5-50.9C1119.8,630.7,1115.1,639.6,1109.1,647.6C1103.3,655.5,1115,639.7,1109.1,647.6z"/>
	<path fill="#F8F7F3" d="M1301.6,556.2c-3.2-1.5-17.1,27.3-19.2,30.6c-2.4,3.6-25.8,31.4-27,13.6c-0.8-12.2,6.3-25,11.2-35.6
		c6.8-14.6,14.5-28.8,22.3-42.8c-11.5-3.5-29.7,10.2-38.3,16.2c-13.5,9.4-24.6,21.1-34.8,34c4.7-9.7,9.8-19.2,15.3-28.4
		c4.4-7.4,9.9-18.6,17.8-22.9c-8.6,1.6-16.2-4.3-23.1,3.9c-6.7,8-11.2,18.5-15.9,27.8c-10.2,20.1-19.4,40.7-29.5,60.8
		c4-2.5,9.6-1.3,14.1-1.9c6.1-0.8,8.2-9.1,10.7-13.8c5.9-10.8,12.4-21,20.1-30.5c6.8-8.4,14.6-16.7,23.7-22.6
		c2.4-1.6,11.6-6.6,11,0.3c-0.6,6.5-6.3,12.9-9.5,18.4c-7.9,13.7-21.7,53.6,9.4,49c12.5-1.9,21.5-14.9,27.8-24.7
		C1289.6,584.6,1306,558.3,1301.6,556.2C1300.3,555.6,1303,556.9,1301.6,556.2z"/>
	<path fill="#F8F7F3" d="M1390.3,557.6c-2.2-5.2-11.4,15.1-12,16.2c-4.5,8.9-10.3,17.5-17.7,24.2c-6.4,5.8-14.5,10.3-23.4,8.9
		c-9.6-1.4-10.9-13.1-10.4-20.9c0.3-4,1.1-8,2.1-11.9c1.6-5.6,3.4-4.2,8.6-5.4c9.2-2,18.9-5.4,26.5-11c10.2-7.6,32.9-35.2,10.1-42.3
		c-17.8-5.6-36.8,13-46.1,25.9c-10.7,14.9-23.4,41-13.3,59.1c8.8,15.8,32,14.7,45.1,5.5c8-5.6,13.9-13.5,18.7-21.9
		c2.7-4.8,5-9.9,7.3-14.8C1386.7,566.9,1391.4,560.2,1390.3,557.6C1390,557,1390.6,558.2,1390.3,557.6z M1338.7,553.4
		c5.5-9.4,12.6-18.3,20.6-25.6c5.3-4.8,18.7-12.9,16.7,1c-2.8,18.9-25,36.1-43.8,36.1C1334.3,560.9,1336.5,557.1,1338.7,553.4
		C1341.7,548.3,1335.7,558.5,1338.7,553.4z"/>
	<path fill="#F8F7F3" d="M1480.9,556.4c-2-1.2-21.5,34.2-24.4,37.9c-2.7,3.4-12.2,15.3-17.1,8.2c-3.7-5.4,0.8-16.1,2.7-21.3
		c6-16.4,16-31,21.5-47.5c0.8-2.5,2.5-6.8,1-9.4c-4.5,0.5-8.9,0.8-13.4,1.1c-8.1,0.4-16.2,0.6-24.3,0c7.3-5.1,14.7-12.2,15.5-21.5
		c0.5-6.4-6.1-21.2-14.2-12.9c-5.5,5.6-5.7,19.8-7.7,27.2c-3.1,11.4-6.8,22.5-11.4,33.3c-4.1,9.9-8.8,19.6-14.3,28.8
		c-1.3,2.2-14.8,21.1-10.8,21.3c5.3,0.3,13.8-16.9,16.1-20.8c5.8-10.1,10.7-20.8,15.1-31.6c2.1-5.2,4.1-10.6,6.1-15.9
		c1.4-3.8,14.9,0.3,18.2,1.8c8.5,3.9,1.6,13.3-1.5,18.6c-5.6,9.6-11.4,19.2-14.4,30c-5.1,18.8,9.1,36.9,27.3,22.5
		C1456,602.2,1487.8,560.6,1480.9,556.4C1479.7,555.6,1482,557.1,1480.9,556.4z"/>
	<path fill="#F8F7F3" d="M1568.6,560.7c1.2-2.4,0.5-5.7-2.9-3.1c-2.8,2.2-4,7.2-5.5,10.3c-4.5,9.2-9.4,18.3-16.4,25.9
		c-10.6,11.5-36.4,22.9-38.1-1.7c-0.3-4.8-0.2-21.9,5.7-22.5c9.1-0.9,18.7-4.3,26.6-8.7c11-6.1,35.9-30.4,19.9-43
		c-15.7-11.1-36.8,6.3-46.7,17.7c-12.8,15-25.7,39.6-19.7,59.9c5.1,17.6,27.5,20.6,42.1,13.4
		C1552.2,599.8,1560.3,578.4,1568.6,560.7C1569.3,559.3,1566,566.2,1568.6,560.7z M1517.7,553.4c5.5-9.4,12.6-18.3,20.6-25.6
		c5.3-4.8,18.7-12.9,16.7,1c-2.8,18.9-25,36.1-43.8,36.1C1513.2,560.9,1515.5,557.1,1517.7,553.4
		C1520.7,548.3,1514.7,558.5,1517.7,553.4z"/>
	<path fill="#F8F7F3" d="M1682.3,561.3c3-6.5-2.4-5.3-4.8-0.6c-3.8,7.6-7.6,15.3-12.1,22.6c-2.4,3.9-24.2,34.4-29.3,18.3
		c-4.3-13.2,6.8-30.7,12.7-41.9c6.2-11.7,14.5-32.2,26.7-38.9c-7.6,1.4-15.3-4.1-21.8,2.5c-5.5,5.5-8.8,13.1-12.3,19.8
		c-2.6,4.9-6.1,17.9-12.3,19.2c-9.5,2-17.7-9.1-27.5-4.5c6-11.2,13.9-30.5,25.7-36.9c-8.6,1.6-16.2-4.3-23.1,3.9
		c-6.7,8-11.2,18.5-15.9,27.8c-10.2,20.1-19.4,40.7-29.5,60.8c6-3.7,15.7,1.6,19.6-5.7c3.3-7.5,6.7-15,9.9-22.5
		c2.5-5.7,5.9-19.3,12.6-21c9.6-2.4,17.7,9.3,27.6,4.6c-4.6,10-9.1,17.8-6.2,29.1c2.5,10.1,10.4,17.1,21.2,13.8
		C1663.1,605.6,1674.3,578.1,1682.3,561.3C1683.6,558.6,1680.3,565.5,1682.3,561.3z"/>
	<path fill="#F8F7F3" d="M1795.4,556.2c-3.2-1.5-18.3,29.7-20.7,33.1c-3.5,5.1-23.7,27.6-26,9.6c-1.7-13.3,7.3-28,13.3-39.1
		c6.2-11.7,14.5-32.2,26.7-38.9c-7.6,1.4-15.3-4.1-21.8,2.5c-5.5,5.5-8.8,13.1-12.3,19.8c-2.6,4.9-6.1,17.9-12.3,19.2
		c-9.5,2-17.7-9.1-27.5-4.5c6-11.2,13.9-30.5,25.7-36.9c-8.6,1.6-16.2-4.3-23.1,3.9c-6.7,8-11.2,18.5-15.9,27.8
		c-10.2,20.1-19.4,40.7-29.5,60.8c6-3.7,15.7,1.6,19.6-5.7c3.3-7.5,6.7-15,9.9-22.5c2.5-5.7,5.9-19.3,12.6-21
		c9.6-2.4,17.7,9.3,27.6,4.6c-5.1,11.1-9.5,19.6-5.4,32c3.9,11.7,16.2,14.6,26.2,8.1c9.7-6.3,16.7-17.1,22.4-26.9
		C1786.5,579.3,1799.5,558.1,1795.4,556.2C1794.1,555.6,1796.8,556.9,1795.4,556.2z"/>
	<path fill="#F8F7F3" d="M1914.9,556.2c-3.2-1.5-18.3,29.7-20.7,33.1c-3.5,5.1-23.7,27.5-26,9.6c-1.7-13.3,7.3-28,13.3-39.1
		c6.2-11.7,14.5-32.2,26.7-38.9c-8.6,1.6-16-4.7-22.1,4.3c-5.4-19.3-32-5.7-39.5,4.4c-8.9,11.9-17.3,38.2,4.3,42
		c-7.3,12.8-19.5,34.9-36.8,33.9c-10.7,0-11.8-10.6-9.4-18.1c2.9-8.9-6.9-12.4-11.5-5c-4.3,7,0,17.5,4.8,23c5.4,6,14.5,8,22.3,6.9
		c9-1.3,16.4-8.2,22-15c4.8-5.8,12.2-24.9,18.9-25.7c-4.9,10.2-9.1,20.2-4.5,31.5c4.9,12.1,19.5,10.8,28,3.6
		C1889.5,602.9,1922.4,559.8,1914.9,556.2C1913.6,555.6,1916.3,556.9,1914.9,556.2z M1846.3,562c-4.3-9.8,3.4-21,8.6-28.7
		c3.1-4.7,6.3-9.3,12-11c4.6-1.3,11.4-0.8,12.7,4.7c2.3,9.7-6.3,21.3-10.6,29.4c-2.3,4.3-3.4,11.1-8.7,11.5
		C1855.2,568.3,1848.7,567.4,1846.3,562C1845.4,559.9,1847.2,564.1,1846.3,562z"/>
</g>
</svg>
