<?xml version="1.0" encoding="utf-8"?>
<!-- Generator: Adobe Illustrator 18.0.0, SVG Export Plug-In . SVG Version: 6.00 Build 0)  -->
<!DOCTYPE svg PUBLIC "-//W3C//DTD SVG 1.1//EN" "http://www.w3.org/Graphics/SVG/1.1/DTD/svg11.dtd" [
	<!ENTITY ns_extend "http://ns.adobe.com/Extensibility/1.0/">
	<!ENTITY ns_ai "http://ns.adobe.com/AdobeIllustrator/10.0/">
	<!ENTITY ns_graphs "http://ns.adobe.com/Graphs/1.0/">
	<!ENTITY ns_vars "http://ns.adobe.com/Variables/1.0/">
	<!ENTITY ns_imrep "http://ns.adobe.com/ImageReplacement/1.0/">
	<!ENTITY ns_sfw "http://ns.adobe.com/SaveForWeb/1.0/">
	<!ENTITY ns_custom "http://ns.adobe.com/GenericCustomNamespace/1.0/">
	<!ENTITY ns_adobe_xpath "http://ns.adobe.com/XPath/1.0/">
]>
<svg version="1.1" id="Layer_1" xmlns:x="&ns_extend;" xmlns:i="&ns_ai;" xmlns:graph="&ns_graphs;"
	 xmlns="http://www.w3.org/2000/svg" xmlns:xlink="http://www.w3.org/1999/xlink" x="0px" y="0px" viewBox="0 306 612 180"
	 enable-background="new 0 306 612 180" xml:space="preserve">
<metadata>
	<sfw  xmlns="&ns_sfw;">
		<slices></slices>
		<sliceSourceBounds  height="169.6" width="606" x="3.7" y="311.6" bottomLeftOrigin="true"></sliceSourceBounds>
	</sfw>
</metadata>
<g>
	<path fill="#F8F7F3" d="M210.4,394c-1.7,0-2.4,2-3,3.3c-0.9,2-2,4.1-3.1,6.1c-2.4,4.3-5.1,8.4-8,12.4c-4.4,6.1-11.1,14.7-19.3,15.5
		c-16.1,1.6-2.8-36.3-0.8-42.6c5.3-16.7,10.9-33.1,19.6-48.4c0.7-1.2,0.5-1.6,2-1.4c1.1,0.2,2.1,0.4,3.3,0.5
		c2.3,0.3,4.6,0.7,6.9,0.8c4.1,0.3,8.6-0.2,12.2-2.4c2.5-1.6,4.1-4.3,3.4-7.3c-0.3-1.1-1.1-3.2-2.5-1.8c-1.2,1.1-0.4,3.3-1.6,4.6
		c-2,2-5.9,2.1-8.6,2.2c-3.8,0-7.7-0.4-11.4-1.1c2.5-3.9,5.7-9.2,9.8-11.5c2-1,3.3-2.3,0-1.8c-2.8,0.4-5.7,1.1-8.3,2.3
		c-2.6,1.2-4.7,3.4-6.5,5.6c-0.8,1-1.6,2.1-2.4,3.2c-1,1.4-3.2,0.3-4.8-0.1c-6.7-1.6-13.3-3.4-19.9-5.5c1.5-1.5,2.9-3,4.4-4.4
		c1.8-1.6,2.6-2.1,4.8-1.8c4.7,0.8,1.3-7.5-1.9-4.9c-3.4,0-7.1,4.5-9.2,6.8c-0.9,0.9-2.1,3.3-3.4,2.9c-2-0.6-4-1.2-6-1.9
		c-9-3.1-18.1-6.1-27.3-8.5c-17.5-4.5-36.6-6-53.3,2.3c-15.1,7.5-26.5,25-21.3,42.2c5.2,17.2,26.1,23.8,40.8,13.9
		c3.2-2.1,6.1-5,8.1-8.3c1.2-2.1,4.9-9.1,2.8-11.3c-2.4-2.5-3.5,4.4-3.9,5.3c-1.9,4.1-5.1,7.8-8.8,10.4c-7.2,5-16.3,6.1-24.2,1.7
		c-7.4-4.1-9-13.4-6.9-21c4.7-16.9,22-27.8,38.7-30c9.4-1.2,19.3-0.1,28.7,1.2c9.3,1.3,18.5,3.4,27.5,6.1c1.2,0.4,2.3,0.7,3.4,1.1
		c-2.1,2.7-3.5,5.9-4.9,9c-2,4.3-4,8.6-6,12.9c-4,8.6-7.9,17.1-12.1,25.6c-8.3,16.7-17.3,34.2-31.8,46.5
		c-14.2,12-33.2,18.1-51.7,16.9c-17.3-1.1-35.8-10.9-42.3-27.7c-3.2-8.3-3.4-17.8-0.9-26.2c1.1-3.6,3-6.8,5.4-9.7
		c2.9-3.3,6.9-5,9.8-8.1c0.9-1,0.5-2.7-0.8-3.1c-1.5-0.4-3.2,0.2-4.5,0.8c-3.9,1.8-7.3,5-9.9,8.4c-5.1,6.9-6.9,17-7,25.4
		c-0.4,40.9,49.2,50.7,80.9,43.7c13.2-3,26.4-9,35.7-19c9.9-10.7,15.9-23.8,21.2-37.2c5.6-14.3,9.8-29.3,16.4-43.2
		c1.5-3.1,3.1-6.2,4.9-9.2c0.5-0.9,2-4.2,2.9-3.9c1.3,0.5,2.6,1.1,3.9,1.6c6.2,2.5,12.8,4.2,19.3,5.7c-7.5,12.6-12.7,26.3-18.1,40
		c-5.2,13.4-11.3,28.2-11,42.7c0.1,6.3,2.3,14.6,9.3,16.2c7.2,1.7,15-2.4,20.4-6.9c5.9-4.9,9.8-11.5,13.7-18
		c1.9-3.2,3.7-6.4,5.3-9.7C208.8,400.6,212.6,394,210.4,394z"/>
	<path fill="#F8F7F3" d="M275,397.3c-2.4-0.9-4.9,6.8-5.6,8.4c-2.1,4.4-4.5,8.7-7.5,12.6c-3.9,5-13.2,12.1-18.4,4.2
		c-0.8-1.2,2.4-3.4,3.3-4.5c1.4-1.6,2.7-3.2,3.9-4.9c2.5-3.5,4.7-7.3,6.3-11.3c2.9-7.1,5.3-17.7,0-24.4c-5.7-7.1-16-3-22,1.4
		c-7.2,5.3-12.7,12.8-16.4,20.8c-3.3,7.2-6.3,18.1-1.6,25.3c5.1,7.9,15.8,4.5,22,0.1c1.5-1,1.2-0.4,2.4,0.6c1,0.8,2.2,1.5,3.4,1.9
		c2,0.8,4.3,1,6.5,0.8c4.9-0.4,8.7-3.7,11.9-7.2C265.1,419.1,278.7,398.7,275,397.3C274.2,397,275.9,397.6,275,397.3z M237,409.2
		c-1.2,2-1.6,4.4-1.2,6.7c0.2,1.4,0.7,2.8,1.3,4.1c0.9,2,1.4,1.9-0.5,3.3c-3.3,2.4-10.4,5.3-12.3-0.2c-1.6-4.6,0-10.3,1.5-14.8
		c1.8-5.5,4.3-10.8,7.5-15.7c2.8-4.3,6.2-8.7,10.6-11.6c3.8-2.6,9.8-4.1,11.6,1.6c1.5,4.8,0,10.5-1.6,15.1
		c-1.9,5.7-4.7,11.2-8.1,16.1C247.5,408.5,239.9,404.2,237,409.2C236.2,410.6,237.8,407.8,237,409.2z"/>
	<path fill="#F8F7F3" d="M330.1,397.3c-2-0.9-5,7.2-5.8,8.6c-2.3,4.2-4.7,8.3-7.7,12.1c-4.6,5.7-13.2,12.1-20.9,8.6
		c-7.7-3.5-5.6-15.7-3.6-21.9c2.5-7.9,6.9-15.6,12.8-21.5c2.7-2.7,6.5-6.1,10.5-6.5c5-0.6,5.1,4.3,4.1,7.8c-0.6,2-1.6,3.7-2.8,5.3
		c-0.9,1.3-3.3,3.1-0.8,3.8c4,1.2,7.7-4.4,8.8-7.4c1.2-3.3,0.8-7.3-1.6-10c-2.7-2.9-7.3-3.3-11-2.9c-8.8,0.9-15.7,7.2-20.6,14.2
		c-8.2,11.8-19.1,41.2,4.4,42.8c8.9,0.6,16.8-2.6,22.5-9.4C320.3,418.6,333.1,398.6,330.1,397.3C329.4,397,330.9,397.6,330.1,397.3z
		"/>
	<path fill="#F8F7F3" d="M387.7,426.4c4.5-3.6,7.8-8.2,10.7-13.1c1.5-2.5,2.8-5.2,4.1-7.9c0.9-1.9,3.5-5.4,3.1-7.6
		c-0.7-3.2-3.5,2.2-3.7,2.7c-1.3,2.8-2.7,5.5-4.2,8.2c-2.9,5.3-6.3,11.1-11.2,14.8c-4.1,3-8.7,1.8-8.6-3.8
		c0.1-5.4,2.5-10.6,4.6-15.5c2.5-5.7,5.3-11.4,8.1-17c2.5-5.1,5.1-9.4,9.7-12.9c-3.9,0-7.8,0-11.6,0c-3.4,0-7.4-0.4-10.4,1.6
		c-3.7,2.4-5.4,6.6-7.2,10.5c-3.8,8.3-6.9,16.8-11.5,24.8c-3.7,6.3-9.5,15.5-18.2,14c-4.6-0.8-6-5.2-4.5-9c1.2-3.2,0-8.2-4.5-5.6
		c-6.9,4-1.4,15.2,4.2,17.5c18.9,7.8,28.6-19.4,33.9-32.5c1.6-4.1,3.4-8.3,5.7-12.2c2.4-4.1,4.7-6.6,9.7-6.5
		c-1.4,2.1-2.2,4.9-3.3,7.2c-1.4,3-2.8,6.1-4.1,9.1c-2.6,5.7-5.2,11.7-6.8,17.8c-1.3,4.8-1.9,11.3,1.4,15.4
		C376.6,431.2,383.5,429.7,387.7,426.4C390.3,424.4,385.1,428.5,387.7,426.4z"/>
	<path fill="#F8F7F3" d="M481.2,397.4c-2-1-4.9,6.5-5.6,7.7c-2.2,4.2-4.5,8.5-7.4,12.3c-5.7,7.5-13.7,12.3-22.5,15.1
		c3.7-10.2,7-20.6,10.7-30.9c3.1-8.8,6-22.1,14.7-27.3c-2.7,0-5.5,0-8.2,0c-2,0-4.2,0.2-5.7,1.7c-2,2.1-3,5.6-4.3,8.1
		c-6.1,12-12.7,24.5-21.5,34.8c-2,2.4-9.2,10.5-12.5,5.5c-2.7-4.1,0.2-10.9,1.9-14.8c2.9-6.5,6.1-13,9.3-19.4
		c3-5.8,5.7-12.4,11.5-15.8c-3.9,0-12-1.4-15,1.7c-1.5,1.6-2.3,4.1-3.3,6c-1.4,2.7-2.8,5.4-4.1,8.1c-1.4,2.7-2.9,5.3-4.1,8.1
		c-0.7,1.5-3.6,5.3,0,5.3c-2.8,5.6-6.5,11-5.6,17.6c0.8,6.5,7.1,9.3,13.1,8c6.1-1.3,11.1-7,14.7-11.8c4.2-5.4,7.4-11.5,10.8-17.5
		c-2.6,8.8-5.5,17.5-9,26.1c-0.9,2.1-1.8,4.3-2.9,6.3c-0.5,1-1,1.9-1.5,2.9c-0.7,1.2-1.4,1.2-2.7,1.5c-4.9,1.3-9.8,2.6-14.7,3.8
		c-8.9,2.1-17.9,4.5-25.8,9.1c-7.1,4.2-14.2,11.3-13.9,20.3c0.4,9.1,10.1,10.9,17.4,10.5c9-0.5,17.1-4.9,23.9-10.7
		c7.1-6.1,12.6-13.8,17.5-21.6c1.2-1.9,2.4-3.8,3.5-5.7c1.1-1.7,1.9-4.3,3.8-5c4.2-1.5,8.4-3.2,12.3-5.3c6.5-3.5,11.8-8.5,15.7-14.7
		C473.7,414.9,483.6,398.6,481.2,397.4C480.5,397,482,397.8,481.2,397.4z M429.7,444.3c-5.4,9.3-13.5,18-22,24.6
		c-4.2,3.3-9,6.7-14.3,7.8c-4.2,0.9-10,0.8-11.3-4.2c-2.5-9.6,9.3-18.6,16.9-21.7c10.5-4.3,21.6-6.9,32.6-9.6
		C430.9,442.2,430.3,443.3,429.7,444.3C429.2,445.4,430.3,443.3,429.7,444.3z"/>
	<path fill="#F8F7F3" d="M540.3,396.6c-1.9-0.9-4.7,6.3-5.3,7.6c-2.3,4.4-4.9,8.6-7.8,12.6c-2.3,3.1-5.1,6.8-8.6,8.5
		c-3.8,1.8-8.2-0.3-9.5-4.2c-1.3-4,0.9-8.7,2.8-12.2c2.4-4.4,5.4-8.3,8.1-12.4c3.7-5.7,8.2-15.4,0.2-20c-8-4.5-15.5,2.1-20.2,8.2
		c-2.9,3.7-5.3,7.6-7.4,11.7c-1,1.9-1.9,3.7-2.9,5.7c-0.7,1.4-2.3,3.6-2.1,5.2c0.2,1.6,1.9,1.1,2.5,0.1c0.8-1.3,1.4-2.8,2.1-4.1
		c2.3-4.5,4.6-8.8,7.4-13c2.2-3.3,4.8-6.9,8-9.4c2.6-2,7.8-3.2,9,1.1c1,3.5-2,8-3.8,10.9c-2.8,4.4-5.8,8.7-8.4,13.2
		c-4,7-6.6,18.1,2.5,22.4c9.4,4.5,17.1-2,22.5-9.2C530.8,417.1,543.3,398,540.3,396.6C539.5,396.2,541.1,397,540.3,396.6z"/>
	<path fill="#F8F7F3" d="M609.2,397.2c-2-0.9-5.4,8.1-6.2,9.6c-2.1,4-4.4,8-7.2,11.6c-2.3,2.9-5.4,6.6-9.4,7.1
		c-4.1,0.5-4.7-4.6-4.3-7.5c1.1-8,5.2-15.6,8.7-22.8c3.6-7.5,6.7-15.7,13.6-20.8c-2.7,0-5.5,0-8.2,0c-2,0-4.2,0.2-5.7,1.7
		c-2.2,2.3-3.3,6.2-4.7,9c-6,12.1-12,25.3-21.2,35.4c-2.3,2.5-9.6,9-11.6,2.8c-1.6-5.2,1.4-11.5,3.6-16.1c2.9-6.1,5.7-12.3,8.9-18.3
		c2.6-4.9,5.4-12,10.8-14.5c-3.9,0-12-1.4-15,1.7c-1.5,1.6-2.3,4.1-3.3,6c-1.4,2.7-2.8,5.4-4.1,8.1c-1.4,2.7-2.9,5.3-4.1,8.1
		c-0.7,1.5-3.6,5.3,0,5.3c-2.4,4.7-5.3,9.2-5.7,14.7c-0.4,5.1,2.1,10.2,7.6,11c11.5,1.8,19.7-11.8,24.5-20.3c-1.6,5-2.6,11.1-0.2,16
		c2.9,5.7,10.2,5.3,14.9,2.2c5.3-3.6,9-9.2,12.1-14.7C604.2,410.7,611.6,398.4,609.2,397.2C608.4,396.8,610.1,397.6,609.2,397.2z"/>
</g>
</svg>
