<?xml version="1.0" encoding="utf-8"?>
<!-- Generator: Adobe Illustrator 18.0.0, SVG Export Plug-In . SVG Version: 6.00 Build 0)  -->
<!DOCTYPE svg PUBLIC "-//W3C//DTD SVG 1.1//EN" "http://www.w3.org/Graphics/SVG/1.1/DTD/svg11.dtd" [
	<!ENTITY ns_extend "http://ns.adobe.com/Extensibility/1.0/">
	<!ENTITY ns_ai "http://ns.adobe.com/AdobeIllustrator/10.0/">
	<!ENTITY ns_graphs "http://ns.adobe.com/Graphs/1.0/">
	<!ENTITY ns_vars "http://ns.adobe.com/Variables/1.0/">
	<!ENTITY ns_imrep "http://ns.adobe.com/ImageReplacement/1.0/">
	<!ENTITY ns_sfw "http://ns.adobe.com/SaveForWeb/1.0/">
	<!ENTITY ns_custom "http://ns.adobe.com/GenericCustomNamespace/1.0/">
	<!ENTITY ns_adobe_xpath "http://ns.adobe.com/XPath/1.0/">
]>
<svg version="1.1" id="Layer_1" xmlns:x="&ns_extend;" xmlns:i="&ns_ai;" xmlns:graph="&ns_graphs;"
	 xmlns="http://www.w3.org/2000/svg" xmlns:xlink="http://www.w3.org/1999/xlink" x="0px" y="0px" viewBox="0 306 612 180"
	 enable-background="new 0 306 612 180" xml:space="preserve">
<metadata>
	<sfw  xmlns="&ns_sfw;">
		<slices></slices>
		<sliceSourceBounds  height="168.4" width="608.4" x="1.7" y="311.1" bottomLeftOrigin="true"></sliceSourceBounds>
	</sfw>
</metadata>
<g>
	<path fill="#F8F7F3" d="M195.5,407.2c-2.5,3.8-4.1,8.3-6.6,12.2c-2.2,3.5-4.6,6.9-7.1,10.2c-3.7,4.6-11.8,13.8-18.7,11.3
		c-6.5-2.4-4.6-13.6-3.7-18.6c1.4-8,3.9-15.7,6.3-23.5c2.2-7,4.5-14,7.1-20.9c3.1-8.1,6.7-16.7,11.3-24.5c2.9,0.5,5.8,0.9,8.7,1.3
		c5.7,0.7,17.2,0.2,17.2-7.9c0-1.3-1.6-5.1-2.9-2.4c-0.9,1.9,0,3.5-2.3,4.7c-4.3,2.2-10.3,1.3-14.8,0.7c-1.1-0.1-2.1-0.3-3.2-0.5
		c2.1-3.1,4.4-6,7-8.6c0.5-0.5,4.8-4,4.6-4.1c-2-1.1-7.2,1.3-9.2,1.9c-4.1,1.4-7.3,5.4-9.9,9.4c-7.6-1.6-15.2-3.8-22.6-6.2
		c1.6-1.6,3.1-3.4,4.9-4.8c0.6-0.5,1.7-1.6,2.6-1.4c0.6,0.1,1.2,0.5,1.9,0.4c3.6-0.3,0.3-6.7-2.5-4.7c-0.8,0-1.5,0.3-2.1,0.7
		c-3.4,1.9-6.4,5.2-8.9,8.2c-0.9,1.1-8.2-2.2-9.6-2.7c-8.6-3-17.4-5.7-26.2-7.8c-16.4-4-34.6-4.3-49.6,4.3
		c-13.8,8-23.4,25.6-16.7,41.3c6.6,15.6,27.1,19.6,39.9,8.9c3.1-2.6,5.7-5.9,7.1-9.7c0.4-1.1,3-9.5-0.8-7.5
		c-1.2,0.6-0.8,2.2-1.3,3.4c-0.6,1.8-1.5,3.6-2.7,5.2c-2.3,3.2-5.4,6-8.9,7.9c-6.9,3.8-16.2,3.9-22.5-1.3
		c-6.3-5.1-6.2-14.3-3.5-21.2c6.1-15.5,22.6-24.8,38.7-25.9c17.8-1.3,36.7,3,53.5,8.3c-2.2,2.7-3.5,6.2-5,9.3
		c-1.8,3.8-3.5,7.6-5.3,11.4c-3.6,7.8-7.2,15.6-10.9,23.2c-7.6,15.5-15.9,31.9-28.9,43.5c-13.1,11.7-29.9,17.5-47.4,17.5
		c-16.2,0-34-8.1-41.7-22.9c-7.5-14.3-5.1-34.2,9.2-43.1c1.3-0.8,3.7-2,3-4c-0.4-1.3-2.1-1.3-3.2-1c-3.5,0.7-6.6,3.3-9.1,5.8
		c-6,6.1-8.2,14.8-9,23.2c-1.6,16.4,6.6,31.1,21,39c15.4,8.4,34,10,51.2,7c17.4-3,32.7-11,43.3-25.3c10.7-14.5,16.1-32.2,22.1-48.9
		c3.2-8.7,6.3-17.5,10.7-25.7c1.2-2.3,2.5-4.5,3.9-6.7c0.9-1.5,2.3-0.3,3.8,0.3c3.4,1.4,6.8,2.5,10.3,3.5c2.9,0.8,5.9,1.6,8.9,2.2
		c-0.4,0.8-0.8,1.5-1.2,2.2c-7,12.4-12.2,25.7-17.1,39c-3,8.1-5.9,16.2-7.8,24.5c-1.7,7.5-3.1,17.6,1.9,24.3
		c5.3,7,15.5,3.6,21.6-0.5c7.2-4.9,11.8-12.1,16.1-19.4c2.3-3.9,4.4-7.8,6.4-11.9c0.4-0.9,1.8-3,1.2-4
		C197.5,405,195.8,406.7,195.5,407.2z"/>
	<path fill="#F8F7F3" d="M229.3,407.2c0.1-0.1,0.3-0.2,0.3-0.3c0.2-0.2,0.4-0.4,0.6-0.5C230.1,406.5,229.2,407.3,229.3,407.2z"/>
	<path fill="#F8F7F3" d="M245.4,411.4c-0.2,0.4-0.4,0.8-0.5,1.2C244.9,412.4,245.7,410.8,245.4,411.4z"/>
	<path fill="#F8F7F3" d="M244.9,412.5c0,0,0.1-0.3,0.5-1.2c1-2-0.5-3.1-2-1.3c-1.1,1.3-1.7,3.4-2.5,5c-2.2,4.6-4.6,9-7.8,13
		c-4.1,5.1-17.3,15.4-21.8,5.2c-1.6-3.8-1.2-8.3-0.4-12.2c0.3-1.6,0.8-3.2,1.4-4.6c1.6,0,3.3-0.4,4.9-0.8c8.2-2,15.6-5.9,20.7-12.8
		c2.4-3.2,4.9-7.8,3.8-11.9c-1-3.5-4.8-5.3-8.2-5.3c-8.3,0-15.9,6.4-20.8,12.5c-7.9,9.7-19.7,35-1.9,41.2c7.7,2.7,16-0.5,21.6-6
		C238.3,427.6,241.5,419.9,244.9,412.5z M231.4,390.7c1.3-0.9,3.7-2.5,5.4-1.6c1.9,1.1,1.2,4.5,0.7,6.1c-1.2,4.3-4,8.2-7.3,11.2
		c0.1-0.1,0,0-0.6,0.5c-0.2,0.2-0.3,0.3-0.3,0.3c-4.3,3.3-10.3,6.5-15.8,6.5C217.7,405.2,223.5,396.1,231.4,390.7z"/>
	<path fill="#F8F7F3" d="M310.9,408.7c-1.3,0.1-1.9,2.4-2.4,3.4c-1.9,3.7-3.7,7.3-5.9,10.8c-1.8,2.9-12.1,19.1-16.5,12.2
		c-1.6-2.4,0.1-7.4,0.9-9.8c1.3-3.9,3-7.8,4.8-11.5c3.8-8.2,8.1-16.2,12.5-24.1c-3.5-1.1-8.1,1.5-11.2,3c-4.2,2.1-8.1,4.6-11.9,7.3
		c-6.8,5-12.6,11.1-17.8,17.7c2.7-7.3,5.9-15.4,6.2-23.3c0.1-3,0.6-7.5-3.5-7.2c-3.2,0.3-6.3,0.8-9.4,1.4c5.1,1.1,0.8,14.5-0.2,17.3
		c-1.1,2.9-2.4,5.8-3.7,8.6c-1.3,2.8,3-0.5,3.5-1.3c-1.3,6.1-4,12-6.5,17.7c-2.7,6.3-5.7,12.5-8.8,18.6c-3,5.9-6,11.8-9.2,17.6
		c-2.3,4.2-4.5,9.7-7.9,13.1c3.8-0.7,7.3,1.9,11.1,0.1c2.7-1.3,4.3-4.7,5.5-7.3c4-9.9,8-19.8,12-29.7c2.2-5.6,4.5-11.2,7.5-16.4
		c3-5.2,6.6-10.3,10.8-14.6c3.7-3.7,7.7-8,12.3-10.5c3.2-1.8,6.5-1.4,4.6,3c-1.5,3.5-4,6.7-5.8,10.1c-3.2,5.9-7.2,14.7-3.5,21.3
		c1.9,3.4,6.1,4.6,9.8,4c3.8-0.6,6.8-3.1,9.4-5.8c6-6.2,9.9-14.2,13.6-21.9C311.5,411.6,313,408.5,310.9,408.7z"/>
	<path fill="#F8F7F3" d="M344,407.2c0.1-0.1,0.3-0.2,0.3-0.3c0.2-0.2,0.4-0.4,0.6-0.5C344.8,406.5,343.9,407.3,344,407.2z"/>
	<path fill="#F8F7F3" d="M360.2,411.4c-0.2,0.4-0.4,0.8-0.5,1.2C359.7,412.4,360.5,410.8,360.2,411.4z"/>
	<path fill="#F8F7F3" d="M360.2,411.4c1-2-0.5-3.1-2-1.3c-1.1,1.3-1.7,3.4-2.5,5c-2.2,4.6-4.6,9-7.8,13c-4.1,5.1-17.3,15.4-21.8,5.2
		c-1.6-3.8-1.2-8.3-0.4-12.2c0.3-1.6,0.8-3.2,1.4-4.6c1.6,0,3.3-0.4,4.9-0.8c8.2-2,15.6-5.9,20.7-12.8c2.4-3.2,4.9-7.8,3.8-11.9
		c-1-3.5-4.8-5.3-8.2-5.3c-8.3,0-15.9,6.4-20.8,12.5c-7.9,9.7-19.7,35-1.9,41.2c7.7,2.7,16-0.5,21.6-6c5.8-5.8,9-13.5,12.4-20.9
		C359.7,412.6,359.8,412.3,360.2,411.4z M346.2,390.7c1.3-0.9,3.7-2.5,5.4-1.6c1.9,1.1,1.2,4.5,0.7,6.1c-1.2,4.3-4,8.2-7.3,11.2
		c0.1-0.1,0,0-0.6,0.5c-0.2,0.2-0.3,0.3-0.3,0.3c-4.3,3.3-10.3,6.5-15.8,6.5C332.4,405.2,338.3,396.1,346.2,390.7z"/>
	<path fill="#F8F7F3" d="M393.2,380.7c0.3-0.1,0.5-0.2,0.8-0.2C401,378.4,395.3,377.4,393.2,380.7z"/>
	<path fill="#F8F7F3" d="M403.3,386.9c-1.6-0.4-3.6-0.8-5.3-0.5c-1.3,0.3-3,1.5-1.3,2.7c1.4,1.1,3.7,0.3,5.3,0.5
		c1.6,0.3,2.9,0.9,3.9,2.2c2.2,2.8,1.7,7.1,1.1,10.3c-1.7,8.3-6.6,16.3-11.6,23c-3,3.9-8.9,12.1-14.8,10.8c-8.1-1.6-5.1-14-3.7-19.4
		c2.3-8.7,6.2-17.2,10.5-25c1.1-2,2.2-4,3.3-6.1c2.2-0.7,4.3-1.4,6.4-2.2c4-1.4,7.9-2.8,11.7-4.4c15.4-6.4,29.6-15.1,40.3-28
		c6.4-7.7,25.3-37.1,3.8-38.3c-18.1-1-31.9,16-42.4,28.5c-10.9,12.9-19.3,27.8-27.2,42.8c-3.1,0.3-7.6,0.5-10-1.7
		c-1.4-1.3-1.3-6.3-3.9-5.8c-3.8,0.8-0.4,6.7,1.1,8.1c2.8,2.9,7.1,3.5,10.9,3c0.9-1.7,2.4-4.6,0,0v0l0,0
		c-7.2,13.7-13.4,28.3-22.1,41.2c-0.7,1-2.4,2.6-1.6,3.9c0.7,1,1.6-0.1,2.2-0.6c2-2.2,3.5-4.9,5-7.4c3.4-5.9,6.7-11.9,9.8-17.9
		c-3,6.3-7,13.6-7.3,20.7c-0.3,6.8,4,11.6,10.6,12.4c14.4,1.9,26.3-9,32.1-21.1c3.5-7.3,6.4-16.7,2.6-24.5
		C410.5,390.6,407.2,387.9,403.3,386.9z M421.2,339.6c5.1-6.4,10.9-12.6,17.7-17.3c3.8-2.6,15.4-8.8,18.4-1.9
		c2.7,6.3-2.9,15.1-6.1,20.2c-4.3,6.7-9.6,12.7-15.5,17.9c-11.8,10.4-26.5,17.6-41.6,22c-0.3,0.1-0.5,0.2-0.8,0.2
		C402,366.6,410.8,352.6,421.2,339.6z"/>
	<path fill="#F8F7F3" d="M381.2,387.5L381.2,387.5C380.7,388.5,380.4,389,381.2,387.5z"/>
	<path fill="#F8F7F3" d="M488.1,408.8c-1.3,0.2-2,2.4-2.5,3.4c-1.9,3.6-3.7,7.2-5.9,10.7c-1.4,2.4-10,16.7-14.1,12.5
		c-1.7-1.7-0.8-5.6-0.4-7.6c0.7-3.8,2.1-7.4,3.6-10.9c2.7-6.1,5.9-13.8,10.8-18.6c-3.2,0.6-6.5-1.5-9.7-0.2c-2.2,0.9-3.5,3.1-4.6,5
		c-3.5,5.6-6.3,11.6-9.9,17.1c-3.3,5.1-7,10.9-12.5,14c-2.3,1.3-5.4,2-7.1-0.6c-1.3-2.1-0.7-5.2-0.2-7.5c1.7-7.5,6.1-14.6,10.7-20.7
		c4.6-6.1,11.3-14.4,19.1-16.1c3.5-0.7,7.1,0.3,8.6,3.6c0.4,0.9,0.2,1.6,1.3,1.6c0.6,0,1.2-0.3,1.6-0.7c1-1.3,0.3-2.7-0.7-3.7
		c-6-6.6-15.9-5.4-23.3-2c-14.2,6.5-26,25.1-24.7,40.8c0.6,7.3,5.8,13.5,13.5,9.7c7.1-3.6,12.3-11.6,16.3-18.3
		c-1.3,4.8-2.5,10.6-0.2,15.2c2.3,4.6,7.9,5.4,12,2.9c4.9-3,8.4-8.3,11.4-13.1c2.6-4.2,4.9-8.6,7-13c0,0.1,0-0.1,0.4-0.8
		c0.2-0.5,0.2-0.4,0.1-0.2C489.1,410.6,489.7,408.6,488.1,408.8z"/>
	<path fill="#F8F7F3" d="M542.1,410.4c-3.7,7.3-7.7,14.7-13.2,20.8c-2.5,2.8-6,6.1-10.1,4.6c-3.8-1.5-4.8-5.2-4.1-8.9
		c1.8-8.8,9.1-15.3,12.9-23.2c3.2-6.6,1.9-14.3-6.3-15.6c-8.2-1.3-14.6,7.6-18.4,13.5c-2.5,3.8-4.6,7.9-6.6,12
		c-0.7,1.3-1.7,2.9-2,4.4c-0.2,1.3,1,2,2,1.1c1.1-1.1,1.7-3.1,2.4-4.4c0.9-1.9,1.9-3.7,2.9-5.5c2.1-3.8,4.4-7.5,7.1-10.8
		c2.3-2.8,5.2-6.7,9.2-6.7c4.1,0,4.6,4.1,3.3,7.2c-3.3,8.3-10,14.7-13.1,23c0.1-0.3,0.1-0.3-0.1,0.3c-0.6,1.8-0.4,1.2-0.2,0.5
		c-2.7,8.2,0.3,16,9.7,17.2c8.9,1.1,15.4-7.8,19.6-14.4c2.4-3.8,4.4-7.8,6.4-11.8c0.5-1.1,2.3-3.6,1.4-4.8
		C543.7,407.2,542.5,409.6,542.1,410.4z"/>
	<path fill="#F8F7F3" d="M609.8,411.8c0.3-0.8,0.8-4.1-1.2-2.7c-1.3,1-2.1,3.6-2.8,5.1c-2.1,4.2-4.3,8.4-6.9,12.2
		c-2.2,3.4-5.2,7.5-9.2,9c-3.6,1.4-5.9-1.5-5.8-4.9c0.2-8.1,4.9-16.2,8.4-23.3c3.5-7.3,6.5-14.7,12.9-19.8c-2.7,0-5.4,0-8,0
		c-6.1,0-7.3,5.6-9.5,10.2c-5.7,11.5-11.3,23.9-20,33.5c-2.4,2.6-9.8,8.7-11.2,1.9c-1-4.9,1.5-10.2,3.5-14.6
		c2.8-5.8,5.4-11.6,8.4-17.3c2.7-5.2,5.2-10.4,10.2-13.7c-4,0-12.1-1.4-14.7,2.4c-2.8,4.1-4.7,9.2-7,13.7c-1.3,2.5-2.6,5-3.8,7.5
		c-0.7,1.4-2.6,4.1,0.4,4.1c-2.2,4.5-5.1,8.7-5.4,13.9c-0.3,4.8,2,9.6,7.2,10.4c10.9,1.7,18.6-11.2,23.2-19.2
		c-1.6,4.7-2.5,10.5-0.2,15.2c2.4,4.7,8.1,5.2,12.4,3c9.3-4.6,14.4-16.6,18.6-25.6C609.3,412.8,609.3,412.7,609.8,411.8z"/>
	<path fill="#F8F7F3" d="M609.8,411.8c-0.1,0.3-0.3,0.5-0.4,0.8C609.6,412.2,610.3,410.8,609.8,411.8z"/>
</g>
</svg>
