<?xml version="1.0" encoding="utf-8"?>
<!-- Generator: Adobe Illustrator 18.0.0, SVG Export Plug-In . SVG Version: 6.00 Build 0)  -->
<!DOCTYPE svg PUBLIC "-//W3C//DTD SVG 1.1//EN" "http://www.w3.org/Graphics/SVG/1.1/DTD/svg11.dtd">
<svg version="1.1" id="Layer_1" xmlns="http://www.w3.org/2000/svg" xmlns:xlink="http://www.w3.org/1999/xlink" x="0px" y="0px"
	 viewBox="0 0 1374 391" enable-background="new 0 0 1374 391" xml:space="preserve">
<g>
	<path fill="#F8F7F3" d="M472.4,190.9c-3.8,0-5.5,4.5-6.8,7.3c-2.1,4.6-4.4,9.1-6.9,13.6c-5.4,9.6-11.5,18.9-17.9,27.9
		c-9.8,13.7-25,33-43.3,34.9c-36.2,3.7-6.2-81.6-1.8-95.7c11.9-37.5,24.5-74.3,44-108.6c1.5-2.7,1.1-3.7,4.4-3.1
		c2.4,0.4,4.8,0.8,7.3,1.1c5.1,0.7,10.3,1.5,15.4,1.9c9.3,0.6,19.4-0.4,27.4-5.4c5.6-3.5,9.3-9.7,7.7-16.5c-0.6-2.5-2.4-7.1-5.7-4.1
		c-2.8,2.5-0.8,7.4-3.6,10.3c-4.4,4.6-13.3,4.8-19.2,4.9c-8.6,0.1-17.2-0.9-25.6-2.4c5.6-8.7,12.9-20.6,22.1-25.9
		c4.4-2.2,7.3-5.2,0.1-4.1c-6.2,1-12.9,2.5-18.6,5.1c-5.9,2.6-10.5,7.6-14.5,12.5c-1.9,2.3-3.6,4.7-5.3,7.1
		c-2.3,3.2-7.2,0.6-10.8-0.2c-15-3.5-29.9-7.6-44.6-12.4c3.3-3.3,6.4-6.8,9.9-9.9c4.1-3.6,5.8-4.8,10.8-4c10.5,1.7,3-16.8-4.2-11
		c-7.6,0-16,10.2-20.7,15.2c-2,2.1-4.7,7.3-7.6,6.4c-4.5-1.4-9-2.8-13.5-4.3c-20.3-6.9-40.6-13.7-61.3-19
		c-39.4-10.1-82.2-13.5-119.7,5.1c-34,16.9-59.5,56.2-47.8,94.8c11.7,38.6,58.5,53.4,91.6,31.3c7.2-4.8,13.6-11.3,18.1-18.7
		c2.8-4.7,11.1-20.4,6.2-25.4c-5.5-5.6-7.9,9.9-8.8,12c-4.2,9.3-11.4,17.4-19.8,23.3c-16.2,11.3-36.7,13.6-54.3,3.9
		c-16.7-9.2-20.2-30.1-15.5-47.1c10.5-38,49.4-62.5,86.8-67.3c21.2-2.7,43.3-0.2,64.4,2.8c20.9,2.9,41.6,7.7,61.8,13.7
		c2.6,0.8,5.2,1.6,7.7,2.4c-4.7,6-7.8,13.3-11,20.1c-4.5,9.7-9,19.3-13.5,28.9c-9,19.2-17.7,38.5-27.1,57.5
		c-18.6,37.5-38.8,76.8-71.3,104.3c-31.9,26.9-74.5,40.6-116.1,38c-38.8-2.4-80.4-24.5-95-62.3c-7.2-18.6-7.7-39.9-2.1-58.9
		c2.4-8.1,6.7-15.3,12.2-21.7c6.4-7.3,15.5-11.2,22-18.1c2.1-2.2,1.1-6.1-1.9-6.9c-3.4-0.9-7.2,0.5-10.2,1.9
		c-8.8,4-16.5,11.2-22.2,18.9c-11.5,15.5-15.6,38.1-15.8,57c-0.9,91.8,110.5,113.9,181.6,98c29.7-6.7,59.2-20.1,80.2-42.7
		c22.2-24,35.7-53.5,47.5-83.5c12.6-32.1,22-65.8,36.9-97c3.4-7,7-13.9,10.9-20.7c1.1-2,4.4-9.5,6.5-8.7c3,1.1,5.9,2.4,8.8,3.6
		c13.9,5.7,28.7,9.4,43.3,12.7c-16.9,28.4-28.6,59.1-40.6,89.8c-11.7,30-25.4,63.2-24.8,95.9c0.2,14.1,5.1,32.7,20.8,36.4
		c16.2,3.8,33.7-5.4,45.7-15.5c13.2-11.1,22.1-25.8,30.8-40.5c4.2-7.1,8.2-14.4,11.9-21.8C468.7,205.9,477.4,190.9,472.4,190.9z"/>
	<path fill="#F8F7F3" d="M617.5,198.5c-5.3-2-10.9,15.2-12.6,18.8c-4.7,9.8-10.2,19.6-16.9,28.2c-8.8,11.2-29.7,27.2-41.3,9.5
		c-1.7-2.7,5.3-7.7,7.4-10c3.1-3.5,6.1-7.2,8.8-11.1c5.6-7.9,10.6-16.4,14.2-25.4c6.4-16,11.9-39.8,0.1-54.8
		c-12.7-16-36-6.8-49.4,3.1c-16.1,11.8-28.6,28.8-36.9,46.8c-7.5,16.2-14.1,40.6-3.6,56.9c11.4,17.8,35.5,10.1,49.5,0.3
		c3.3-2.3,2.6-0.8,5.4,1.4c2.3,1.8,4.9,3.3,7.7,4.3c4.5,1.7,9.7,2.2,14.5,1.8c11.1-0.8,19.6-8.2,26.7-16.1
		C595.1,247.3,625.6,201.5,617.5,198.5C615.5,197.7,619.4,199.2,617.5,198.5z M532.1,225.2c-2.6,4.5-3.6,9.9-2.7,15
		c0.5,3.1,1.5,6.2,2.9,9.1c2.1,4.4,3.1,4.2-1.2,7.3c-7.5,5.3-23.4,12-27.7-0.5c-3.6-10.4,0.1-23.2,3.4-33.3
		c4.1-12.3,9.7-24.3,16.8-35.2c6.3-9.7,14-19.6,23.7-26.1c8.6-5.8,22.1-9.1,26,3.6c3.3,10.8-0.1,23.6-3.5,33.9
		c-4.3,12.8-10.5,25.1-18.1,36.2C555.7,223.5,538.6,213.9,532.1,225.2C530.3,228.3,533.9,222,532.1,225.2z"/>
	<path fill="#F8F7F3" d="M741.2,198.5c-4.6-2-11.3,16.2-13,19.3c-5.1,9.5-10.5,18.7-17.3,27.1c-10.4,12.7-29.6,27.2-47,19.4
		c-17.3-7.9-12.5-35.3-8-49.2c5.7-17.7,15.6-35.1,28.8-48.3c6.1-6.1,14.5-13.6,23.5-14.6c11.2-1.3,11.4,9.6,9.2,17.6
		c-1.3,4.4-3.6,8.2-6.2,11.8c-2.1,3-7.5,6.9-1.8,8.5c8.9,2.6,17.2-9.8,19.8-16.6c2.8-7.4,1.8-16.5-3.7-22.5
		c-6.1-6.6-16.3-7.5-24.7-6.6c-19.7,2.1-35.3,16.2-46.2,31.8c-18.4,26.5-42.8,92.5,9.9,96.2c19.9,1.4,37.7-5.9,50.6-21.2
		C719.2,246.2,747.8,201.3,741.2,198.5C739.6,197.7,742.9,199.2,741.2,198.5z"/>
	<path fill="#F8F7F3" d="M870.4,263.8c10.1-8,17.6-18.5,24-29.5c3.4-5.7,6.3-11.7,9.2-17.7c2-4.2,7.9-12.2,6.9-17
		c-1.5-7.1-7.8,5-8.3,6.1c-3,6.2-6.1,12.3-9.4,18.4c-6.5,11.9-14.1,25-25.2,33.3c-9.2,6.8-19.6,4-19.3-8.5
		c0.3-12.2,5.6-23.8,10.4-34.7c5.7-12.9,12-25.5,18.2-38.2c5.6-11.4,11.4-21.2,21.7-29c-8.7,0-17.4,0-26.1,0
		c-7.7,0-16.7-0.9-23.4,3.5c-8.2,5.4-12.2,14.9-16.1,23.5c-8.5,18.6-15.6,37.8-25.9,55.6c-8.3,14.2-21.3,34.8-40.8,31.5
		c-10.4-1.8-13.5-11.7-10.2-20.3c2.8-7.2-0.1-18.3-10-12.6c-15.5,9-3.1,34.2,9.5,39.4c42.5,17.6,64.3-43.6,76-72.9
		c3.7-9.3,7.7-18.7,12.8-27.3c5.4-9.1,10.6-14.9,21.7-14.7c-3.2,4.8-5,10.9-7.4,16.2c-3.1,6.8-6.2,13.6-9.3,20.5
		c-5.8,12.9-11.6,26.2-15.3,39.9c-2.9,10.7-4.2,25.3,3.1,34.6C845.4,274.5,861.1,271.2,870.4,263.8
		C876.2,259.2,864.6,268.4,870.4,263.8z"/>
	<path fill="#F8F7F3" d="M1080.4,198.6c-4.4-2.2-11,14.5-12.5,17.3c-4.9,9.5-10.2,19.1-16.7,27.7c-12.7,16.9-30.7,27.6-50.6,33.9
		c8.4-23,15.8-46.3,24-69.3c7-19.7,13.5-49.7,33-61.2c-6.1,0-12.3,0-18.4,0c-4.5,0-9.4,0.4-12.7,3.8c-4.4,4.7-6.7,12.5-9.6,18.1
		c-13.7,27-28.5,54.9-48.2,78.1c-4.5,5.3-20.7,23.6-28,12.3c-6-9.2,0.4-24.5,4.3-33.3c6.5-14.7,13.6-29.2,20.9-43.5
		c6.7-13,12.9-27.8,25.9-35.5c-8.8,0-27-3.1-33.6,3.8c-3.4,3.6-5.1,9.2-7.3,13.5c-3.1,6.1-6.2,12.1-9.3,18.2
		c-3.1,6-6.5,11.9-9.3,18.1c-1.5,3.4-8.1,11.9,0,11.9c-6.3,12.5-14.5,24.8-12.6,39.6c1.8,14.5,15.9,20.8,29.3,17.9
		c13.8-3,24.9-15.8,33.1-26.5c9.4-12.2,16.6-25.9,24.2-39.3c-5.9,19.8-12.4,39.4-20.3,58.5c-2,4.8-4.1,9.6-6.4,14.2
		c-1.1,2.2-2.2,4.3-3.3,6.4c-1.5,2.8-3.1,2.6-6,3.4c-10.9,3-21.9,5.8-32.9,8.5c-19.9,4.8-40.2,10-58,20.5
		c-16,9.5-31.9,25.4-31.1,45.6c0.8,20.4,22.7,24.5,39.1,23.5c20.3-1.2,38.5-11,53.7-24.1c15.9-13.7,28.2-30.9,39.3-48.5
		c2.7-4.3,5.3-8.6,7.9-12.9c2.4-3.9,4.2-9.6,8.6-11.2c9.5-3.4,18.8-7.2,27.7-12c14.6-7.9,26.4-19.1,35.3-33
		C1063.4,237.9,1085.8,201.3,1080.4,198.6C1078.8,197.8,1082.1,199.5,1080.4,198.6z M964.8,304c-12.2,20.9-30.4,40.3-49.4,55.2
		c-9.5,7.5-20.2,15-32.2,17.6c-9.4,2.1-22.4,1.8-25.3-9.5c-5.6-21.6,20.9-41.8,37.9-48.8c23.5-9.7,48.6-15.4,73.1-21.6
		C967.5,299.3,966.1,301.7,964.8,304C963.5,306.3,966.1,301.7,964.8,304z"/>
	<path fill="#F8F7F3" d="M1213,196.8c-4.3-2-10.5,14.2-12,17.1c-5.2,9.8-10.9,19.4-17.6,28.3c-5.2,6.9-11.4,15.2-19.4,19
		c-8.5,4-18.4-0.6-21.3-9.5c-3-9,2.1-19.6,6.3-27.4c5.3-9.8,12.1-18.6,18.2-27.9c8.3-12.8,18.3-34.6,0.5-44.8
		c-18-10.2-34.9,4.8-45.4,18.3c-6.4,8.2-11.9,17.1-16.6,26.3c-2.2,4.2-4.3,8.4-6.4,12.7c-1.6,3.1-5.2,8-4.8,11.7
		c0.4,3.6,4.2,2.4,5.6,0.2c1.8-2.9,3.2-6.3,4.7-9.3c5.1-10,10.4-19.8,16.6-29.1c5-7.5,10.7-15.6,17.9-21.2
		c5.9-4.5,17.6-7.2,20.3,2.4c2.2,7.9-4.6,18-8.6,24.4c-6.3,9.9-13.1,19.5-18.8,29.7c-8.9,15.7-14.8,40.6,5.7,50.3
		c21,10,38.4-4.5,50.6-20.6C1191.7,242.8,1219.8,200,1213,196.8C1211.2,196,1214.9,197.7,1213,196.8z"/>
	<path fill="#F8F7F3" d="M1367.8,198.3c-4.6-2.1-12.2,18.1-13.9,21.5c-4.7,9-9.8,18-16.1,26.1c-5.1,6.6-12.1,14.9-21,16
		c-9.3,1.2-10.5-10.3-9.6-16.8c2.4-17.9,11.7-35.1,19.5-51.2c8.1-16.8,15.1-35.3,30.5-46.8c-6.1,0-12.3,0-18.4,0
		c-4.5,0-9.4,0.4-12.7,3.8c-4.9,5.1-7.4,14-10.5,20.3c-13.4,27.2-26.9,56.7-47.5,79.4c-5.1,5.6-21.6,20.2-26.1,6.2
		c-3.7-11.7,3.1-25.8,8-36.1c6.6-13.7,12.8-27.6,20-41.1c5.8-11,12.2-26.9,24.3-32.5c-8.8,0-27-3.1-33.6,3.8
		c-3.4,3.6-5.1,9.2-7.3,13.5c-3.1,6.1-6.2,12.1-9.3,18.2c-3.1,6-6.5,11.9-9.3,18.1c-1.5,3.4-8.1,11.9,0,11.9
		c-5.3,10.6-12,20.7-12.8,32.9c-0.8,11.4,4.7,22.8,17,24.7c25.9,4.1,44.2-26.5,55-45.6c-3.7,11.2-5.9,25-0.4,36
		c6.5,12.9,23,12,33.5,4.9c11.9-8,20.3-20.7,27.2-32.9C1356.5,228.6,1373.2,200.8,1367.8,198.3
		C1366,197.4,1369.7,199.1,1367.8,198.3z"/>
</g>
</svg>
