<?xml version="1.0" encoding="utf-8"?>
<!-- Generator: Adobe Illustrator 18.0.0, SVG Export Plug-In . SVG Version: 6.00 Build 0)  -->
<!DOCTYPE svg PUBLIC "-//W3C//DTD SVG 1.1//EN" "http://www.w3.org/Graphics/SVG/1.1/DTD/svg11.dtd" [
	<!ENTITY ns_extend "http://ns.adobe.com/Extensibility/1.0/">
	<!ENTITY ns_ai "http://ns.adobe.com/AdobeIllustrator/10.0/">
	<!ENTITY ns_graphs "http://ns.adobe.com/Graphs/1.0/">
	<!ENTITY ns_vars "http://ns.adobe.com/Variables/1.0/">
	<!ENTITY ns_imrep "http://ns.adobe.com/ImageReplacement/1.0/">
	<!ENTITY ns_sfw "http://ns.adobe.com/SaveForWeb/1.0/">
	<!ENTITY ns_custom "http://ns.adobe.com/GenericCustomNamespace/1.0/">
	<!ENTITY ns_adobe_xpath "http://ns.adobe.com/XPath/1.0/">
]>
<svg version="1.1" id="Layer_1" xmlns:x="&ns_extend;" xmlns:i="&ns_ai;" xmlns:graph="&ns_graphs;"
	 xmlns="http://www.w3.org/2000/svg" xmlns:xlink="http://www.w3.org/1999/xlink" x="0px" y="0px" viewBox="0 337 612 118"
	 enable-background="new 0 337 612 118" xml:space="preserve">
<metadata>
	<sfw  xmlns="&ns_sfw;">
		<slices></slices>
		<sliceSourceBounds  height="99.5" width="609.5" x="1.2" y="346.3" bottomLeftOrigin="true"></sliceSourceBounds>
	</sfw>
</metadata>
<g>
	<path fill="#F8F7F3" d="M98.4,403.7c3.1-11.4,6.9-23,12.8-33.4c3.3,0.4,14.4,1,13.2-5c-0.7-3.6-2,1.2-2.8,1.7
		c-2.4,1.4-6.1,0.9-8.8,0.7c1-1.6,2.1-3.2,3.3-4.5c0.3-0.3,3.5-2.7,3.5-3c0-0.6-3.3,0.4-3.6,0.4c-1.8,0.5-3.2,1.1-4.5,2.5
		s-2.3,4.2-4.2,3.9c-2-0.4-4.1-0.7-6.1-1.2c0.9-1.2,1.9-2.4,3-3.5c0.3-0.3,2.8-1.8,2.8-2.2c0-1-6.8,1.8-7.4,2.3
		c-0.7,0.6-1.3,1.3-1.8,2c-0.7,0.9-1.7,0.2-2.7,0c-1.7-0.4-3.3-0.9-5-1.4c1.2-1.2,2.2-2.5,3.7-3.3c0.8-0.5,3.1,0.6,2.6-1.4
		c-0.8-4.1-6.6,1.6-7.7,2.8c-1.5,1.6-2.3,0.9-4.3,0.2c-2-0.7-3.9-1.4-5.9-2c-4.8-1.6-9.7-3-14.6-3.9c-8.4-1.5-17.4-1.1-25,3.3
		c-7.1,4.1-12.1,12.5-10.3,20.9c1.9,8.8,11.3,13.5,19.6,10.2c3.4-1.4,6.4-4.1,7.9-7.5c0.4-0.9,1.8-4.2,0.4-4.8
		c-1.4-0.6-1.8,2.8-2.2,3.6c-3.4,6.9-15.9,11.4-20.5,3.1c-4.4-7.9,2.9-17.2,9.5-21.1c12.7-7.3,29.8-3.2,42.9,0.9
		c-2.2,2.8-3.4,6.6-4.9,9.8c-2.1,4.5-4.2,9-6.3,13.5c-4,8.4-8.4,17.7-15,24.5C47.7,423.9,25.9,429,11.6,417
		c-6.6-5.5-9.1-15-6.2-23.2c1.3-3.8,4.2-5.9,7.2-8.2c0.9-0.6,1.8-2.3-0.1-2.4c-2-0.1-3.9,1.5-5.3,2.7c-6.3,5.9-7.4,16.8-4.6,24.4
		c3.1,8.4,11.4,13.2,19.7,15.3c9.2,2.3,19.3,1.6,28.2-1.6c8.4-3,14.6-8.5,19.2-16.1c4.9-8,7.6-17.3,10.8-26
		c1.7-4.6,3.4-9.1,5.7-13.3c0.5-1,1.1-1.9,1.7-2.9c0.8-1.3,0.7-0.9,2-0.4c1.8,0.7,3.7,1.4,5.6,2c-5.2,8.1-8.5,17.4-11.7,26.4
		c-2,5.7-3.8,11.4-4.9,17.4c-0.5,2.7-0.8,5.5-0.5,8.3c0.3,1.9,2.1,4.9,4,2.3c1.1-1.4,0.4-4,0.5-5.7c0.3-3.1,1-6.2,1.7-9.3
		c1.2-5.4,2.8-10.7,4.5-16c1.8-5.6,4-11,6.7-16.2c1.1-2.1,2.3-4.2,3.5-6.2c2.4,0.6,4.9,1.1,7.3,1.5c-5.6,9.8-9.8,20.8-13,31.6
		c-1.7,5.5-4,13.2-0.5,18.5c3.7,5.6,11.6,1.5,15.2-1.9c4.4-4.1,7.4-10,10-15.3c0.3-0.6,1.3-2.1,1-2.8c-0.7-1.2-2.1,1.8-2.2,2
		c-1.4,2.9-3,5.6-4.8,8.2c-2.3,3.4-7.7,11.3-12.8,9.7C94.2,418,97.5,407.1,98.4,403.7C98.9,401.9,98,405.5,98.4,403.7z"/>
	<path fill="#F8F7F3" d="M146.4,402.6c0.4-0.8,0.2-1.8-0.9-1c-0.9,0.7-1.3,2.3-1.8,3.3c-1.4,2.9-3,5.8-5.2,8.3
		c-3.4,3.7-11.6,7.3-12.1-0.5c-0.1-1.5-0.1-7,1.8-7.2c2.9-0.3,6-1.4,8.5-2.8c3.5-1.9,11.4-9.7,6.3-13.7c-5-3.5-11.7,2-14.9,5.6
		c-4.1,4.8-8.2,12.6-6.3,19.1c1.6,5.6,8.8,6.6,13.4,4.3C141.2,415.1,143.8,408.2,146.4,402.6C146.6,402.2,145.6,404.4,146.4,402.6z
		 M130.2,400.3c1.8-3,4-5.8,6.6-8.2c1.7-1.5,6-4.1,5.3,0.3c-0.9,6-8,11.5-14,11.5C128.7,402.7,129.5,401.5,130.2,400.3
		C131.1,398.6,129.2,401.9,130.2,400.3z"/>
	<path fill="#F8F7F3" d="M181.8,401.2c-0.8-0.5-5.6,9-6.4,10.2c-1.6,2.2-6.4,8-9.3,4.3c-5.3-6.8,3.6-19.2,8.4-23.7
		c1.7,5.8,10-4.7,2.9-4c-4.8,0.4-9.1,8.9-11,12.7c0.7-3.6,1.7-10.4-3.5-11c-5-0.7-8.1,6.4-9.9,9.8c-0.8,1.6-3,4.6-2.9,6.5
		c0.1,1.3,1.3-0.5,1.5-0.8c0.6-1.2,1.3-2.3,1.9-3.5c0.7-1.3,6-12.7,8.4-9c1.2,1.8,0.3,5.2-0.1,7.2c-0.5,2.8-1.8,5.5-3.1,8.1
		c-2.1,4.2-5.5,10.9-10.6,11.8c-0.9,0.2-1.9,0.1-2.6-0.6c-0.7-0.9-2.1,0.5-1.5,1.4c1.8,1.8,4.5,1.4,6.5,0.4c4.6-2.2,7.7-8,10-12.3
		c-1.3,6.7,4.4,12.9,10.9,9.1c2.9-1.7,4.9-4.6,6.6-7.4C178.7,409.1,183,402,181.8,401.2C181.4,401,182.1,401.5,181.8,401.2z"/>
	<path fill="#F8F7F3" d="M194.1,420c4.2,0,6.2-7.1,1.2-7.1C191,412.9,189.1,420,194.1,420z"/>
	<path fill="#F8F7F3" d="M242.6,401.2c-1.1-0.5-5,8-5.8,9.1c-2.1,3.1-4.9,6.5-8.9,7.3c1.6-4.8,1.8-12.2-5-12c3.4-2,6.2-4.9,7.7-8.6
		c1.4-3.5,1-7.6-3.2-8.7c-9.4-2.3-13.5,9.7-16.8,15.9c-0.2,0.4-1.2,4.1,0.2,2.5c1.1-1.2,1.6-3.1,2.3-4.5c1.7-3.1,3.4-7.7,7-9.1
		c3-1.2,7.1,0.3,6.7,4.1c-0.4,3.5-4.3,6.9-7,8.7c-1,0.7-4,1.1-4.5,2.2c-1.1,2.3,3.9,0.1,4.3-0.1c5-2.3,4.1,5.1,3.5,7.9
		c-0.2,1-0.4,2-0.7,3c-0.4,1.2-1.2,1.1-2.4,1.5c-2.2,0.7-4.4,1.4-6.7,2c-4.7,1.4-9.5,3-13.9,5.3c-3.6,1.8-7.2,4.1-8.8,7.9
		c-1.7,3.9-0.1,8.2,4,9.6c7.4,2.5,17.2-4,22.2-8.8c2.6-2.5,4.8-5.3,6.7-8.4c1-1.7,1.9-3.5,2.7-5.3c0.4-0.9,0.8-1.9,1.1-2.8
		c0.9-0.2,1.8-0.4,2.6-0.8c3.4-1.5,6-4.6,7.9-7.7C238.6,410.3,243.8,401.8,242.6,401.2C242.2,401,243,401.4,242.6,401.2z
		 M216.8,430.3c-3.5,4.8-8,9-13.4,11.6c-4.1,2-12,3.5-10.3-3.8c2.7-11.6,18.9-13.1,28.2-16.2C220.2,424.9,218.7,427.7,216.8,430.3
		C215,432.8,218.7,427.8,216.8,430.3z"/>
	<path fill="#F8F7F3" d="M279.5,401.2c-1.1-0.5-4.9,7.7-5.5,8.7c-0.7,1.1-6.2,9.5-7.9,6.2c-1.5-2.7,0.9-7.6,2-10.2
		c1.5-3.5,3.4-8,6.2-10.7c-2.4,0.4-5-1.4-6.9,1c-2,2.6-3.4,5.7-5,8.5c-1.8,3.1-3.7,6.2-6.2,8.8c-1.4,1.5-6.1,5.1-7.2,1.3
		c-2.1-7,14.4-31.1,21.4-23.7c0.6,0.7,0.7,2.2,1.7,1.9c1.4-0.3,1-1.8,0.3-2.5c-2.3-2.5-5.6-3.1-8.8-2.6c-7,1.1-12.2,6.5-15.5,12.6
		c-2.4,4.4-5.8,13.8-0.6,17.6c5.6,4.1,12.3-6.7,14.5-10.4c-0.8,2.8-1.6,6.4,0.1,9.1c1.7,2.7,5,2.6,7.4,0.8
		C271.2,416.4,281.7,402.2,279.5,401.2C279.1,401,279.9,401.4,279.5,401.2z"/>
	<path fill="#F8F7F3" d="M315.2,401.5c-1.3-0.5-3.1,4.6-3.5,5.5c-1.4,2.6-2.9,5.3-5,7.4c-1.7,1.8-3.9,3-6.5,2.2
		c-1-0.3-1.8-1-2.3-1.9c1.2-1.1,2.3-2.3,3.3-3.6c3.5-4.5,6.4-10.4,5.8-16.3c0-2.5-1-5.5-1.6-8c-0.6-2.5-1.2-4.9-2.1-7.4
		c-2.6-7.2-10.1-21.6-2.5-27.9c4.4-3.6,11.7,1.5,16.2,2.3c6.3,1.1,11.5-2.1,15.1-7.1c-0.3-0.3-0.7-0.4-1.2-0.4
		c-1.3-0.1-1.4,0.1-2.2,1c-1,1.1-2.3,2-3.8,2.3c-3.3,0.7-6.8-0.3-9.9-1.5c-5.2-1.9-13.5-3.3-17.7,1.4c-4.9,5.5-2.5,14-0.1,20
		c2.6,6.4,4.9,13.1,6.4,19.8c-6.8-3.6-14.3,5.2-17.4,10.1c-2.7,4.4-7.3,15.9-0.4,19c3.1,1.4,6.6,0.1,9.3-1.7c1.5-1,2.2,0.7,3.9,1.2
		c1.7,0.5,3.6,0.5,5.2-0.1c3.3-1.3,5.8-4.8,7.6-7.8C312.5,409.1,316.6,402,315.2,401.5C314.7,401.3,315.7,401.6,315.2,401.5z
		 M294.6,407.9c-1.3,2.2-0.7,4.8,0.6,6.9c-1.6,1.4-5.4,3.8-7.2,1.3c-3-4.1,1.8-12.8,3.9-16.3c1.5-2.5,10.7-13.7,12.6-6.1
		c1.4,5.5-2.3,12.4-5.3,16.7C300.3,407.5,296.2,405.2,294.6,407.9C294.2,408.7,295.1,407.2,294.6,407.9z"/>
	<path fill="#F8F7F3" d="M337.3,413.5c1.9-2.5,3.3-5.4,4.7-8.2c0.5-1,1.2-2.2,1.5-3.3c0.3-1.4-1.5-0.1-1.8,0.5
		c-2.4,5.3-5.6,12.5-11.6,14.4c-7,2.3-7.6-5.1-6.2-10.1c0.4-1.4,0.5-1.3,1.9-1.6c1.7-0.3,3.3-0.8,4.8-1.4c3.2-1.2,5.9-3.1,8-5.7
		c1.6-2,3.4-4.9,2.5-7.6c-0.9-2.6-4.1-3.1-6.5-2.6c-6.4,1.4-11.3,7.7-14,13.3c-2.2,4.7-4.4,12.6,1,16.2
		C326.9,421.2,333.7,418.1,337.3,413.5C338.5,411.9,336,415.2,337.3,413.5z M327,400.3c1.8-3,4-5.8,6.6-8.2c1.7-1.5,6-4.1,5.3,0.3
		c-0.9,6-8,11.5-14,11.5C325.5,402.7,326.3,401.5,327,400.3C327.9,398.6,326,401.9,327,400.3z"/>
	<path fill="#F8F7F3" d="M379.3,402.8c0.7-1.5-0.4-2.2-1.2-0.7c-1.2,2.5-2.5,5-3.9,7.3c-2.2,3.5-5.2,7.4-9.5,8.3
		c1.6-4.8,1.8-12.2-5-12c3.4-2,6.2-4.9,7.7-8.6c1.4-3.5,1-7.6-3.2-8.7c-9.4-2.3-13.5,9.7-16.8,15.9c-0.2,0.4-1.2,4.1,0.2,2.5
		c1-1.2,1.6-3.1,2.3-4.5c1.7-3.1,3.4-7.7,7-9.1c3-1.2,7.1,0.3,6.7,4.1c-0.4,3.5-4.3,6.9-7,8.7c-1,0.7-4,1.1-4.5,2.2
		c-1.1,2.3,3.9,0.1,4.3-0.1c5-2.3,4.1,5.1,3.5,7.9c-0.2,1-0.4,2-0.7,3c-0.4,1.2-1.2,1.1-2.4,1.5c-2.2,0.7-4.4,1.4-6.7,2
		c-4.7,1.4-9.5,3-13.9,5.3c-3.6,1.8-7.2,4.1-8.8,7.9c-1.7,3.9-0.1,8.2,4,9.6c7.4,2.5,17.2-4,22.2-8.8c2.6-2.5,4.8-5.3,6.7-8.4
		c0.9-1.4,1.6-2.9,2.3-4.4c0.4-0.9,0.8-1.8,1.2-2.8c0.5-1.3,0.9-1,2.1-1.4C372.8,417,376.3,408.8,379.3,402.8
		C379.7,401.9,378.3,404.8,379.3,402.8z M353.5,430.3c-3.5,4.8-8,9-13.4,11.6c-4.1,2-12,3.5-10.3-3.8c2.7-11.6,18.9-13.1,28.2-16.2
		C356.9,424.9,355.4,427.7,353.5,430.3C351.7,432.8,355.4,427.8,353.5,430.3z"/>
	<path fill="#F8F7F3" d="M414.9,401.2c-1-0.5-5.5,8.7-6.1,9.8c-0.8,1.1-8.2,10-8.6,4.3c-0.3-3.9,2-8,3.6-11.3
		c2.2-4.7,4.6-9.2,7.1-13.6c-3.7-1.1-9.5,3.3-12.2,5.2c-4.3,3-7.8,6.7-11.1,10.8c1.5-3.1,3.1-6.1,4.9-9.1c1.4-2.4,3.2-5.9,5.7-7.3
		c-2.7,0.5-5.2-1.4-7.4,1.2c-2.1,2.5-3.6,5.9-5.1,8.9c-3.3,6.4-6.2,13-9.4,19.4c1.3-0.8,3.1-0.4,4.5-0.6c1.9-0.3,2.6-2.9,3.4-4.4
		c1.9-3.4,4-6.7,6.4-9.7c2.2-2.7,4.7-5.3,7.6-7.2c0.8-0.5,3.7-2.1,3.5,0.1c-0.2,2.1-2,4.1-3,5.9c-2.5,4.4-6.9,17.1,3,15.6
		c4-0.6,6.9-4.7,8.9-7.9C411.1,410.2,416.3,401.8,414.9,401.2C414.5,401,415.3,401.4,414.9,401.2z"/>
	<path fill="#F8F7F3" d="M443.2,401.6c-0.7-1.7-3.6,4.8-3.8,5.2c-1.4,2.8-3.3,5.6-5.6,7.7c-2,1.8-4.6,3.3-7.5,2.8
		c-3.1-0.4-3.5-4.2-3.3-6.7c0.1-1.3,0.4-2.6,0.7-3.8c0.5-1.8,1.1-1.3,2.7-1.7c2.9-0.6,6-1.7,8.4-3.5c3.3-2.4,10.5-11.2,3.2-13.5
		c-5.7-1.8-11.7,4.1-14.7,8.3c-3.4,4.7-7.5,13.1-4.2,18.8c2.8,5,10.2,4.7,14.4,1.8c2.5-1.8,4.4-4.3,6-7c0.9-1.5,1.6-3.2,2.3-4.7
		C442,404.6,443.5,402.4,443.2,401.6C443.1,401.4,443.3,401.8,443.2,401.6z M426.7,400.3c1.8-3,4-5.8,6.6-8.2c1.7-1.5,6-4.1,5.3,0.3
		c-0.9,6-8,11.5-14,11.5C425.3,402.7,426,401.5,426.7,400.3C427.7,398.6,425.8,401.9,426.7,400.3z"/>
	<path fill="#F8F7F3" d="M472,401.2c-0.6-0.4-6.9,10.9-7.8,12.1c-0.9,1.1-3.9,4.9-5.5,2.6c-1.2-1.7,0.3-5.1,0.9-6.8
		c1.9-5.2,5.1-9.9,6.9-15.1c0.3-0.8,0.8-2.2,0.3-3c-1.4,0.2-2.8,0.3-4.3,0.4c-2.6,0.1-5.2,0.2-7.7,0c2.3-1.6,4.7-3.9,4.9-6.9
		c0.2-2-1.9-6.8-4.5-4.1c-1.8,1.8-1.8,6.3-2.5,8.7c-1,3.6-2.2,7.2-3.6,10.6c-1.3,3.2-2.8,6.2-4.6,9.2c-0.4,0.7-4.7,6.7-3.4,6.8
		c1.7,0.1,4.4-5.4,5.1-6.6c1.8-3.2,3.4-6.6,4.8-10.1c0.7-1.7,1.3-3.4,1.9-5.1c0.4-1.2,4.7,0.1,5.8,0.6c2.7,1.2,0.5,4.2-0.5,5.9
		c-1.8,3.1-3.6,6.1-4.6,9.6c-1.6,6,2.9,11.8,8.7,7.2C464.1,415.8,474.2,402.6,472,401.2C471.7,401,472.4,401.5,472,401.2z"/>
	<path fill="#F8F7F3" d="M500,402.6c0.4-0.8,0.2-1.8-0.9-1c-0.9,0.7-1.3,2.3-1.8,3.3c-1.4,2.9-3,5.8-5.2,8.3
		c-3.4,3.7-11.6,7.3-12.1-0.5c-0.1-1.5-0.1-7,1.8-7.2c2.9-0.3,6-1.4,8.5-2.8c3.5-1.9,11.4-9.7,6.3-13.7c-5-3.5-11.7,2-14.9,5.6
		c-4.1,4.8-8.2,12.6-6.3,19.1c1.6,5.6,8.8,6.6,13.4,4.3C494.8,415.1,497.3,408.2,500,402.6C500.2,402.2,499.2,404.4,500,402.6z
		 M483.8,400.3c1.8-3,4-5.8,6.6-8.2c1.7-1.5,6-4.1,5.3,0.3c-0.9,6-8,11.5-14,11.5C482.3,402.7,483.1,401.5,483.8,400.3
		C484.7,398.6,482.8,401.9,483.8,400.3z"/>
	<path fill="#F8F7F3" d="M536.2,402.8c1-2.1-0.8-1.7-1.5-0.2c-1.2,2.4-2.4,4.9-3.9,7.2c-0.8,1.2-7.7,11-9.3,5.8
		c-1.4-4.2,2.2-9.8,4-13.4c2-3.7,4.6-10.3,8.5-12.4c-2.4,0.4-4.9-1.3-6.9,0.8c-1.8,1.8-2.8,4.2-3.9,6.3c-0.8,1.6-1.9,5.7-3.9,6.1
		c-3,0.6-5.6-2.9-8.8-1.4c1.9-3.6,4.4-9.7,8.2-11.8c-2.7,0.5-5.2-1.4-7.4,1.2c-2.1,2.6-3.6,5.9-5.1,8.9c-3.3,6.4-6.2,13-9.4,19.4
		c1.9-1.2,5,0.5,6.2-1.8c1.1-2.4,2.1-4.8,3.2-7.2c0.8-1.8,1.9-6.2,4-6.7c3.1-0.8,5.6,3,8.8,1.5c-1.5,3.2-2.9,5.7-2,9.3
		c0.8,3.2,3.3,5.5,6.8,4.4C530.1,416.9,533.7,408.1,536.2,402.8C536.6,401.9,535.6,404.1,536.2,402.8z"/>
	<path fill="#F8F7F3" d="M572.3,401.2c-1-0.5-5.8,9.5-6.6,10.6c-1.1,1.6-7.6,8.8-8.3,3.1c-0.5-4.2,2.3-8.9,4.2-12.5
		c2-3.7,4.6-10.3,8.5-12.4c-2.4,0.4-4.9-1.3-6.9,0.8c-1.8,1.8-2.8,4.2-3.9,6.3c-0.8,1.6-1.9,5.7-3.9,6.1c-3,0.6-5.6-2.9-8.8-1.4
		c1.9-3.6,4.4-9.7,8.2-11.8c-2.7,0.5-5.2-1.4-7.4,1.2c-2.1,2.5-3.6,5.9-5.1,8.9c-3.3,6.4-6.2,13-9.4,19.4c1.9-1.2,5,0.5,6.2-1.8
		c1.1-2.4,2.1-4.8,3.2-7.2c0.8-1.8,1.9-6.2,4-6.7c3.1-0.8,5.6,3,8.8,1.5c-1.6,3.5-3,6.2-1.7,10.2c1.2,3.7,5.2,4.7,8.4,2.6
		c3.1-2,5.3-5.5,7.1-8.6C569.4,408.5,573.6,401.8,572.3,401.2C571.9,401,572.7,401.4,572.3,401.2z"/>
	<path fill="#F8F7F3" d="M610.4,401.2c-1-0.5-5.8,9.5-6.6,10.6c-1.1,1.6-7.6,8.8-8.3,3.1c-0.5-4.2,2.3-8.9,4.2-12.5
		c2-3.7,4.6-10.3,8.5-12.4c-2.7,0.5-5.1-1.5-7,1.4c-1.7-6.2-10.2-1.8-12.6,1.4c-2.8,3.8-5.5,12.2,1.4,13.4
		c-2.3,4.1-6.2,11.1-11.7,10.8c-3.4,0-3.8-3.4-3-5.8c0.9-2.8-2.2-4-3.7-1.6c-1.4,2.2,0,5.6,1.5,7.3c1.7,1.9,4.6,2.5,7.1,2.2
		c2.9-0.4,5.2-2.6,7-4.8c1.5-1.8,3.9-7.9,6-8.2c-1.6,3.3-2.9,6.4-1.4,10c1.6,3.9,6.2,3.4,8.9,1.1C602.3,416,612.8,402.3,610.4,401.2
		C610,401,610.8,401.4,610.4,401.2z M588.5,403c-1.4-3.1,1.1-6.7,2.7-9.1c1-1.5,2-3,3.8-3.5c1.5-0.4,3.6-0.3,4,1.5
		c0.7,3.1-2,6.8-3.4,9.4c-0.7,1.4-1.1,3.5-2.8,3.7C591.3,405,589.3,404.7,588.5,403C588.2,402.3,588.8,403.7,588.5,403z"/>
</g>
</svg>
