<?xml version="1.0" encoding="utf-8"?>
<!-- Generator: Adobe Illustrator 18.0.0, SVG Export Plug-In . SVG Version: 6.00 Build 0)  -->
<!DOCTYPE svg PUBLIC "-//W3C//DTD SVG 1.1//EN" "http://www.w3.org/Graphics/SVG/1.1/DTD/svg11.dtd" [
	<!ENTITY ns_extend "http://ns.adobe.com/Extensibility/1.0/">
	<!ENTITY ns_ai "http://ns.adobe.com/AdobeIllustrator/10.0/">
	<!ENTITY ns_graphs "http://ns.adobe.com/Graphs/1.0/">
	<!ENTITY ns_vars "http://ns.adobe.com/Variables/1.0/">
	<!ENTITY ns_imrep "http://ns.adobe.com/ImageReplacement/1.0/">
	<!ENTITY ns_sfw "http://ns.adobe.com/SaveForWeb/1.0/">
	<!ENTITY ns_custom "http://ns.adobe.com/GenericCustomNamespace/1.0/">
	<!ENTITY ns_adobe_xpath "http://ns.adobe.com/XPath/1.0/">
]>
<svg version="1.1" id="Layer_1" xmlns:x="&ns_extend;" xmlns:i="&ns_ai;" xmlns:graph="&ns_graphs;"
	 xmlns="http://www.w3.org/2000/svg" xmlns:xlink="http://www.w3.org/1999/xlink" x="0px" y="0px" viewBox="0 305 612 182"
	 enable-background="new 0 305 612 182" xml:space="preserve">
<metadata>
	<sfw  xmlns="&ns_sfw;">
		<slices></slices>
		<sliceSourceBounds  height="164.6" width="608.8" x="2.3" y="313.2" bottomLeftOrigin="true"></sliceSourceBounds>
	</sfw>
</metadata>
<g>
	<path fill="#F8F7F3" d="M208.2,370.1c3.1-22.9-23.2-35.8-41.4-40.7c2.9-2.9,6-5.3,9.4-7.5c0.8-0.5,2.4-1.6,2.1-2.8
		c-0.4-1.3-3.2-0.1-3.8,0.1c-4.1,1.5-7.9,3.3-11.5,5.7c-0.9,0.6-1.9,1.3-2.8,2c-1.2,0.9-1.7,0.5-3.3,0.2c-2.7-0.5-5.4-0.9-8.2-1.3
		c-19.2-2.5-39.2-1.1-58.3,1.7c-18.3,2.7-37.6,8.2-53.3,18.3C22.9,355,10.8,371,15.9,388.9c5.2,18,27.1,23.4,42.8,15.9
		c7.5-3.7,13.8-10.4,15.1-18.8c0.3-1.6,0.8-4.2,0-5.7c-0.9-1.8-2.2,0.5-2.4,1.4c-1.6,4.4-4,8.6-7.1,12.2
		c-5.7,6.6-14.3,11.8-23.3,10.4c-8.5-1.2-14.8-8.2-16.3-16.4c-3.2-17.9,13.7-32.4,27.5-40.1c30.1-16.9,68.2-20,101.9-15.4
		c-28.5,26.5-43.9,63.5-62.9,96.6c-9,15.6-20.5,29.3-36.4,38c-7.7,4.3-16.2,6.3-25,5.9c-8.2-0.5-16.2-5.4-15.8-14.6
		c0.4-9,8.6-14.3,17-14.2c2,0,4,0.4,6,0.8c2,0.5,4.1,1.7,6.1,1.8c1.1,0.1,2-0.9,1-1.7c-1.6-1.5-4.5-1.9-6.5-2.4
		c-8-2.1-16.6-2.4-24.3,1.1c-7.8,3.5-13.1,11.8-10.4,20.5c5.5,17.1,32.4,16.1,46,12.6c18.5-4.8,32.4-17.5,44.4-31.8
		c4-4.8,7.8-9.7,11.4-14.7c0.9-1.2,1.8-2.5,2.7-3.8c1.1-1.6,1.1-1.9,2.9-1.8c2.8,0.1,5.6,0.1,8.4,0c12.8-0.5,26.1-2.3,38.4-6.4
		c11.8-4,23-10.3,32.4-18.4C198.3,392,206.6,381.9,208.2,370.1C208.9,364.6,207.4,375.6,208.2,370.1z M196.3,367.4
		c-2.4,17.7-18.6,31.8-33.2,40.2c-7.8,4.5-16.2,7.4-24.9,9.5c-8.7,2.1-17.8,3.7-26.8,3.3c14.5-22.6,26.7-46.6,40.7-69.6
		c3.3-5.4,6.8-10.7,10.4-15.9c1.1-1.5,2.3-0.6,3.9-0.1c1.4,0.4,2.8,0.8,4.2,1.3c3.1,1,6.2,2.2,9.1,3.7
		C190.4,345.2,198,354.8,196.3,367.4C195.7,372.1,197,362.6,196.3,367.4z"/>
	<path fill="#F8F7F3" d="M265.1,433.4c-2.7-1-4.7,6-5.6,7.7c-2.1,4.4-4.4,8.7-7,12.8c-4.2,6.5-10.7,14.8-19.6,12.4
		c-1.5-0.4-2.9-1.2-4-2.4c-0.5-0.6-1-1.2-1.3-1.9c0.8-0.7,1.6-1.5,2.3-2.2c3.3-3.3,6.1-7,8.6-11c5-7.8,8.6-16.7,8.9-26.1
		c0.2-8-3.2-16.7-12.2-17.2c-9-0.5-17,5.2-23.1,11.3c-6.3,6.3-11.5,14.2-14.7,22.6c-2.9,7.8-5.3,18.5-0.6,26.1
		c4.5,7.2,14,6.7,20.8,3.4c1.9-0.9,3.7-2,5.4-3.2c1.3-0.9,1.2-0.3,2.3,0.7c0.8,0.6,1.6,1.2,2.5,1.6c3.3,1.8,7.4,2.3,11,1.6
		c8-1.5,14-9.5,18-16C258.3,451.5,268.3,434.6,265.1,433.4C264.1,433,266.1,433.7,265.1,433.4z M220.5,447.3
		c-1.4,2.5-1.9,5.4-1.3,8.3c0.3,1.3,0.7,2.6,1.2,3.8c0.3,0.6,0.6,1.2,1,1.9c0.8,1.4,0.1,1.4-1.1,2.2c-3.7,2.7-11.6,6.5-14.4,0.7
		c-2.5-5.3-0.3-12.7,1.4-17.9c2-6.2,4.9-12.3,8.4-17.9c3.3-5.3,7.5-10.7,12.7-14.3c4.4-3,11.5-4.9,13.6,1.6c1.9,5.8,0,12.8-2,18.4
		c-2.2,6.5-5.4,12.7-9.3,18.4C232.8,446.4,223.9,441.5,220.5,447.3C219.6,449,221.5,445.7,220.5,447.3z"/>
	<path fill="#F8F7F3" d="M342.5,433.7c-2.7-1-4.7,6-5.6,7.7c-2.1,4.4-4.4,8.7-7,12.8c-4.2,6.5-10.7,14.8-19.6,12.4
		c-1.5-0.4-2.9-1.2-4-2.4c-0.5-0.6-1-1.2-1.3-1.9c0.8-0.7,1.6-1.5,2.3-2.2c3.3-3.3,6.1-7,8.6-11c4.9-7.7,8.6-16.5,8.9-25.8
		c0.3-8.4-2.4-17.3-4.4-25.4c-1.8-7.3-4.4-14.4-6.9-21.5c-4.9-13.7-12.7-30.8-6.2-45.2c3.8-8.4,11.7-9.3,19.9-7.1
		c8.8,2.4,16.7,6.8,26.1,6.8c9,0,17.1-5.2,22.9-11.8c0.4-0.4,3.6-4.1,3.2-4.3c-1.2-0.9-4.2-1-5.6-0.5c-1.2,0.4-2.4,2.8-3.5,3.7
		c-1.6,1.3-3.5,2.4-5.5,3c-8.6,2.5-17.3-1.4-25.4-4c-8.2-2.7-17.3-3.7-25.7-1.3c-18.7,5.1-16.8,27.5-12.1,42.1
		c5.4,16.5,12.6,32.4,16.2,49.5c-6.8-3.6-15-0.3-20.8,3.7c-6.5,4.4-11.8,10.5-16.1,17.1c-4.5,7-7.8,14.8-8.9,23.1
		c-0.8,6.6-0.1,15.3,6.5,18.9c6.9,3.8,15.2,0.6,21.1-3.4c0.6-0.4,1.2-0.8,1.8-1.2c0.6,0.7,1.4,1.3,2.1,1.9c1.5,1.1,3.3,1.9,5,2.4
		c3.4,0.8,7.2,0.8,10.5-0.5c7-2.8,12.2-10,15.9-16.2C336.2,450.9,345.6,434.9,342.5,433.7C341.5,433.4,343.5,434.1,342.5,433.7z
		 M297.9,447.7c-1.4,2.5-1.9,5.4-1.3,8.3c0.3,1.3,0.7,2.6,1.2,3.8c0.3,0.6,0.6,1.2,1,1.9c0.8,1.4,0.1,1.4-1.1,2.2
		c-3.7,2.7-11.6,6.5-14.4,0.7c-2.5-5.3-0.3-12.7,1.4-17.9c2-6.2,4.9-12.3,8.4-17.9c3.3-5.3,7.5-10.7,12.7-14.3
		c4.4-3,11.5-4.9,13.6,1.6c1.9,5.8,0,12.8-2,18.4c-2.2,6.5-5.4,12.7-9.3,18.4C310.2,446.8,301.3,441.8,297.9,447.7
		C297,449.3,298.9,446.1,297.9,447.7z"/>
	<path fill="#F8F7F3" d="M420.1,436c0.6-1.2,0.4-2.7-1.3-2.8c-1.5,0-2.1,2.2-2.7,3.3c-2,4.2-4,8.5-6.3,12.5
		c-3.7,6.5-9.6,16.9-18,17.6c-3.3,0.3-6.8-0.6-8.9-3.3c-0.8-1-1.1-1.1-0.1-2c0.8-0.7,1.5-1.5,2.2-2.3c1.7-1.8,3.3-3.7,4.8-5.7
		c5.5-7.3,9.8-15.7,11.4-24.8c1.3-7.5,1.1-18.3-7-22c-8.2-3.7-17.5,1.5-23.7,6.6c-6.9,5.7-12.3,13.1-16.3,21c-4,8-7,18.2-4.6,27.1
		c2.2,8.1,9.8,11.3,17.7,9.4c4.1-1,7.9-3.2,11.2-5.7c2.6,2.8,6.2,4.4,10,4.7c8.6,0.7,15-5.1,19.9-11.6
		C413.4,451.4,416.8,443.7,420.1,436C420.7,434.6,419.4,437.8,420.1,436z M375,447.3c-1.4,2.5-1.9,5.4-1.3,8.3
		c0.3,1.3,0.7,2.6,1.2,3.8c0.3,0.6,0.6,1.2,1,1.9c0.8,1.4,0.1,1.4-1.1,2.2c-3.7,2.7-11.6,6.5-14.4,0.7c-2.5-5.3-0.3-12.7,1.4-17.9
		c2-6.2,4.9-12.3,8.4-17.9c3.3-5.3,7.5-10.7,12.7-14.3c4.4-3,11.5-4.9,13.6,1.6c1.9,5.8,0,12.8-2,18.4c-2.2,6.5-5.4,12.7-9.3,18.4
		C387.3,446.4,378.4,441.5,375,447.3C374.1,449,375.9,445.7,375,447.3z"/>
	<path fill="#F8F7F3" d="M456.1,399.7c1.2,0.3,2.4,0.4,3.6,0.3c1.4-0.1,2.1-1.7,3.1-2.6c2.3-1.9,4.9-3,7.8-3.1
		c6.9-0.2,13.6,2.5,20.2,4.3c6.3,1.8,12.7,2.7,18.9,0.1c2.9-1.2,5.6-2.9,7.8-5c0.8-0.7,6-6.1,4.7-6.5c-3.1-0.8-4,0.4-6,2.3
		c-2.1,1.9-4.7,3.1-7.6,3.4c-7.3,0.7-14.4-2.5-21.4-4.2c-6.2-1.5-12.9-2.4-19,0c-2.9,1.1-5.3,3-7.6,4.9
		C459.8,394.4,454.1,399.2,456.1,399.7C456.6,399.8,455.6,399.5,456.1,399.7z"/>
	<path fill="#F8F7F3" d="M529.2,433.1c-2.3-1.1-5,6.9-5.8,8.4c-2.4,4.8-5,9.5-8.2,13.9c-2.6,3.7-5.7,7.8-9.5,10.3
		c-2.7,1.8-7.7,2.9-8.5-1.5c-0.7-4.1,0.8-8.3,2.1-12c1.7-4.9,3.9-9.5,6-14.2c4.4-9.8,9.6-19.2,14.8-28.6c-4.1-1.4-9.8,1.7-13.4,3.5
		c-5.3,2.5-10.3,5.7-15,9.1c-8.5,6.2-15.6,13.9-22.1,22.1c3.7-7.7,8.3-14.9,12-22.6c1.4-3,4-7.1,1.6-10.2c-2.6-3.4-7-1.9-10.1-0.3
		c-7.3,3.9-13.2,10-19.3,15.5c-6,5.3-11.4,11.3-16.4,17.6c3.3-6.8,6.8-13.4,10.6-19.8c3-5.1,6.8-12.7,12.2-15.6
		c-3,0.6-5.9-0.8-8.9-0.8c-2.9,0.1-5.2,1.2-7,3.4c-4.5,5.3-7.3,12.1-10.5,18.1c-7.2,14.1-13.5,28.6-20.5,42.7c3-1.9,7-0.7,10.4-1.5
		c3.6-0.8,5.3-7.1,6.9-10c4-7.1,8.3-13.9,13.5-20.2c4.8-5.8,10.2-11.4,16.3-15.9c1.1-0.8,5.7-4,5.8-1c0.2,3.9-2.4,8.2-4,11.7
		c-3.8,8.3-8.5,16.4-9.8,25.6c-0.6,3.3,0,7.6,3.2,9.6c0.6,0.4,1.3,0.6,2,0.7c1.2,0.1,0.9-0.5,1.2-1.5c0.7-2.2,1.6-4.3,2.6-6.3
		c4.2-8.4,9.6-16.3,15.6-23.4c4.9-6,10.7-12.6,17.7-16.1c1.2-0.6,3.3-1.6,4.6-0.8c1.7,1,0.5,4-0.1,5.3c-2.1,4.5-5.2,8.6-7.6,13
		c-4.1,7.3-9.4,20.6-2,27.7c3.6,3.4,9.7,3.6,14,1.7c4.8-2,8.7-6.4,11.9-10.5C517.8,457.7,532.8,434.8,529.2,433.1
		C528.3,432.7,530.2,433.5,529.2,433.1z"/>
	<path fill="#F8F7F3" d="M610.6,433.3c-2.4-1.1-6,8.7-6.9,10.4c-2.3,4.5-4.8,9-7.8,13.1c-2.6,3.6-6,7.9-10.4,9.3
		c-4.6,1.5-6.9-2.5-6.8-6.6c0.5-9.8,6.1-19.6,10.2-28.2c4-8.4,7.8-19.5,16-24.8c-3.2,0-6.3,0-9.5,0c-2.2,0-4.7,0.1-6.5,1.7
		c-2.6,2.4-3.9,7-5.4,10.2c-7.1,14.4-14.2,30-25,42c-2.6,2.9-11.1,10.7-13.7,3.6c-2.3-6.3,1.7-14.1,4.4-19.7c3.3-7,6.5-14.1,10.2-21
		c3.5-6.6,6.6-12.2,12.6-16.9c-2.7,0-5.4,0-8.2,0c-3.3,0-7.3-0.5-9.7,2.4c-1.9,2.3-2.9,5.6-4.3,8.2c-1.6,3.3-3.3,6.5-5,9.7
		c-1.5,2.9-2.9,5.7-4.4,8.6c-0.8,1.7-3.5,5.4,0.4,5.4c-2.9,5.8-6.7,11.5-6.7,18.3c0,6.9,4.3,11.6,11.2,12
		c12.2,0.7,21.4-15.1,26.5-24.1c-2,6-3.3,13.7,0.1,19.5c3.9,6.7,12.9,5.2,18.1,1.2c5.5-4.2,9.5-10.1,13-16.1
		C604.5,449.4,613.4,434.6,610.6,433.3C609.7,432.8,611.6,433.7,610.6,433.3z"/>
</g>
</svg>
