<?xml version="1.0" encoding="utf-8"?>
<!-- Generator: Adobe Illustrator 18.0.0, SVG Export Plug-In . SVG Version: 6.00 Build 0)  -->
<!DOCTYPE svg PUBLIC "-//W3C//DTD SVG 1.1//EN" "http://www.w3.org/Graphics/SVG/1.1/DTD/svg11.dtd">
<svg version="1.1" id="Layer_1" xmlns="http://www.w3.org/2000/svg" xmlns:xlink="http://www.w3.org/1999/xlink" x="0px" y="0px"
	 viewBox="0 0 1374 391" enable-background="new 0 0 1374 391" xml:space="preserve">
<g>
	<path fill="#F8F7F3" d="M467.4,137.3c7-51.5-52-80.4-93-91.3c6.5-6.5,13.5-11.8,21-16.9c1.7-1.2,5.5-3.7,4.8-6.3
		c-0.8-2.9-7.1-0.2-8.6,0.3c-9.2,3.4-17.7,7.3-25.8,12.8c-2.1,1.4-4.2,2.9-6.2,4.4c-2.8,2.1-3.9,1.2-7.3,0.5
		c-6.1-1.1-12.2-2.1-18.3-2.9c-43.2-5.6-87.9-2.5-130.9,3.8c-41.1,6.1-84.5,18.3-119.7,41c-32,20.7-59.1,56.7-47.6,96.9
		c11.6,40.5,60.9,52.6,96,35.6c16.9-8.2,30.9-23.4,33.9-42.3c0.6-3.6,1.8-9.4,0.1-12.8c-2.1-4-4.9,1.1-5.3,3.1
		c-3.6,9.9-9,19.3-15.9,27.3c-12.8,14.8-32.1,26.4-52.3,23.4c-19.1-2.8-33.3-18.3-36.6-36.9c-7.1-40.2,30.8-72.7,61.8-90.1
		c67.5-37.9,153.1-45,228.7-34.5c-64,59.4-98.6,142.5-141.3,216.9c-20.1,35-46,65.7-81.7,85.4c-17.3,9.6-36.3,14.1-56.1,13.2
		c-18.3-1.1-36.3-12.2-35.4-32.7c0.9-20.1,19.4-32.2,38.2-31.9c4.5,0.1,9,0.8,13.4,1.9c4.5,1.1,9.1,3.8,13.7,4.1
		c2.4,0.2,4.4-2,2.3-3.9c-3.6-3.3-10.1-4.3-14.6-5.5c-17.9-4.7-37.3-5.3-54.5,2.4c-17.5,7.9-29.5,26.6-23.3,46
		c12.4,38.5,72.7,36.1,103.2,28.3c41.5-10.7,72.7-39.4,99.6-71.3c9-10.7,17.5-21.7,25.6-33.1c2-2.8,4-5.7,6-8.6
		c2.4-3.5,2.4-4.3,6.6-4.1c6.3,0.3,12.6,0.2,18.9,0c28.8-1.2,58.7-5.2,86.1-14.4c26.4-8.9,51.6-23.2,72.7-41.4
		C445.2,186.5,463.8,163.9,467.4,137.3C469.1,124.9,465.7,149.7,467.4,137.3z M440.8,131.2c-5.3,39.8-41.8,71.4-74.6,90.3
		c-17.5,10-36.4,16.6-55.9,21.4c-19.6,4.8-39.9,8.4-60.2,7.4c32.6-50.8,59.9-104.7,91.4-156.2c7.4-12.2,15.2-24.1,23.4-35.8
		c2.4-3.4,5.2-1.3,8.8-0.2c3.1,0.9,6.3,1.9,9.4,2.9c7,2.3,13.9,5,20.4,8.3C427.5,81.4,444.5,103,440.8,131.2
		C439.4,141.8,442.2,120.6,440.8,131.2z"/>
	<path fill="#F8F7F3" d="M595.2,279.4c-6-2.2-10.6,13.4-12.5,17.3c-4.8,9.9-9.9,19.6-15.8,28.8c-9.5,14.7-24.1,33.3-44,27.8
		c-3.4-0.9-6.5-2.7-8.9-5.3c-1.2-1.3-2.2-2.8-3-4.3c1.7-1.6,3.5-3.3,5.1-5c7.3-7.5,13.7-15.8,19.4-24.7c11.2-17.4,19.4-37.5,20-58.5
		c0.5-17.9-7.1-37.4-27.4-38.6c-20.2-1.2-38.2,11.6-51.8,25.3c-14.1,14.2-25.8,31.9-32.9,50.7c-6.6,17.5-11.9,41.6-1.3,58.6
		c10.1,16.2,31.5,15,46.8,7.6c4.2-2.1,8.3-4.5,12.1-7.2c3-2.1,2.6-0.6,5.1,1.5c1.7,1.4,3.6,2.6,5.6,3.7c7.4,4,16.6,5.1,24.8,3.5
		c18-3.4,31.4-21.3,40.5-35.9C579.9,320.1,602.3,282.1,595.2,279.4C592.9,278.6,597.4,280.2,595.2,279.4z M495.1,310.7
		c-3.2,5.6-4.2,12.2-3,18.6c0.6,2.9,1.5,5.8,2.7,8.6c0.6,1.4,1.4,2.8,2.2,4.2c1.9,3.1,0.2,3.1-2.5,5c-8.2,6-26,14.5-32.3,1.5
		c-5.7-11.8-0.6-28.5,3.2-40.2c4.6-13.9,10.9-27.7,18.8-40.1c7.5-11.9,16.8-24,28.6-32c9.9-6.7,25.9-11.1,30.6,3.7
		c4.2,13.1-0.1,28.8-4.4,41.3c-5,14.5-12.1,28.5-20.8,41.2C522.7,308.7,502.7,297.6,495.1,310.7C493,314.4,497.3,307,495.1,310.7z"
		/>
	<path fill="#F8F7F3" d="M769,280.2c-6-2.2-10.6,13.4-12.5,17.3c-4.8,9.9-9.9,19.6-15.8,28.8c-9.5,14.7-24.1,33.3-44,27.8
		c-3.4-0.9-6.5-2.7-8.9-5.3c-1.2-1.3-2.2-2.8-3-4.3c1.7-1.6,3.5-3.3,5.1-5c7.3-7.5,13.7-15.8,19.4-24.7c11.1-17.3,19.3-37.1,20-57.9
		c0.7-18.8-5.4-38.9-9.9-57c-4.1-16.5-9.9-32.3-15.6-48.2c-11-30.8-28.6-69.2-14-101.5c8.5-18.8,26.3-20.8,44.7-15.9
		c19.7,5.3,37.6,15.2,58.5,15.2c20.3-0.1,38.4-11.7,51.5-26.5c0.8-0.9,8-9.1,7.2-9.6c-2.8-2-9.4-2.2-12.5-1.1
		c-2.7,1-5.5,6.2-7.9,8.2c-3.7,3-7.9,5.4-12.4,6.8c-19.4,5.6-38.9-3.1-57-9c-18.4-6-38.8-8.2-57.7-3c-41.9,11.5-37.8,61.8-27.1,94.5
		c12.1,37.1,28.3,72.7,36.4,111.2c-15.2-8-33.6-0.6-46.6,8.2c-14.7,9.9-26.6,23.5-36.2,38.4c-10.1,15.7-17.6,33.2-19.9,51.8
		c-1.8,14.8-0.2,34.4,14.6,42.5c15.4,8.5,34.1,1.4,47.4-7.6c1.3-0.9,2.7-1.8,4-2.8c1.4,1.6,3.1,3,4.8,4.2c3.4,2.4,7.3,4.3,11.3,5.3
		c7.7,1.9,16.2,1.7,23.6-1.2c15.7-6.2,27.3-22.5,35.8-36.4C754.9,318.8,775.9,282.8,769,280.2C766.7,279.4,771.2,281.1,769,280.2z
		 M668.9,311.5c-3.2,5.6-4.2,12.2-3,18.6c0.6,2.9,1.5,5.8,2.7,8.6c0.6,1.4,1.4,2.8,2.2,4.2c1.9,3.1,0.2,3.1-2.5,5
		c-8.2,6-26,14.5-32.3,1.5c-5.7-11.8-0.6-28.5,3.2-40.2c4.6-13.9,10.9-27.7,18.8-40.1c7.5-11.9,16.8-24,28.6-32
		c9.9-6.7,25.9-11.1,30.6,3.7c4.2,13.1-0.1,28.8-4.4,41.3c-5,14.5-12.1,28.5-20.8,41.2C696.5,309.5,676.5,298.4,668.9,311.5
		C666.8,315.2,671.1,307.9,668.9,311.5z"/>
	<path fill="#F8F7F3" d="M943.2,285.3c1.3-2.8,1-6.1-2.9-6.3c-3.4-0.1-4.8,5-6,7.4c-4.6,9.4-9,19-14.2,28.1
		c-8.4,14.7-21.5,37.9-40.5,39.5c-7.3,0.6-15.3-1.4-20-7.5c-1.8-2.3-2.4-2.5-0.2-4.6c1.7-1.6,3.4-3.3,5-5.1c3.8-4,7.4-8.2,10.7-12.7
		c12.4-16.5,22-35.3,25.7-55.7c3-16.8,2.4-41.1-15.8-49.3c-18.4-8.2-39.2,3.4-53.2,14.9c-15.4,12.7-27.7,29.3-36.6,47.2
		c-9,18-15.8,40.9-10.4,60.9c4.9,18.2,22.1,25.3,39.7,21.1c9.1-2.2,17.7-7.2,25.2-12.8c5.8,6.3,13.9,9.8,22.4,10.5
		c19.4,1.6,33.6-11.4,44.6-26C928.2,319.9,935.8,302.6,943.2,285.3C944.6,282.2,941.5,289.3,943.2,285.3z M841.9,310.7
		c-3.2,5.6-4.2,12.2-3,18.6c0.6,2.9,1.5,5.8,2.7,8.6c0.6,1.4,1.4,2.8,2.2,4.2c1.9,3.1,0.2,3.1-2.5,5c-8.2,6-26,14.5-32.3,1.5
		c-5.7-11.8-0.6-28.5,3.2-40.2c4.6-13.9,10.9-27.7,18.8-40.1c7.5-11.9,16.8-24,28.6-32c9.9-6.7,25.9-11.1,30.6,3.7
		c4.2,13.1-0.1,28.8-4.4,41.3c-5,14.5-12.1,28.5-20.8,41.2C869.5,308.7,849.5,297.6,841.9,310.7C839.8,314.4,844,307,841.9,310.7z"
		/>
	<path fill="#F8F7F3" d="M1024,203.7c2.6,0.7,5.4,0.9,8,0.6c3.1-0.3,4.8-3.9,7-5.8c5.1-4.2,10.9-6.7,17.5-6.9
		c15.5-0.5,30.6,5.6,45.4,9.7c14.2,4,28.5,6,42.5,0.3c6.5-2.7,12.5-6.5,17.6-11.3c1.7-1.6,13.4-13.8,10.6-14.6
		c-6.9-1.9-8.9,1-13.5,5.1c-4.8,4.3-10.5,7-17,7.6c-16.5,1.5-32.4-5.6-48.1-9.4c-13.9-3.4-28.9-5.5-42.6,0
		c-6.4,2.5-11.9,6.7-17.1,11C1032.4,191.8,1019.6,202.6,1024,203.7C1025.1,204,1022.8,203.4,1024,203.7z"/>
	<path fill="#F8F7F3" d="M1188.2,278.8c-5.2-2.4-11.3,15.6-13,18.9c-5.4,10.8-11.3,21.3-18.3,31.2c-5.9,8.3-12.7,17.5-21.3,23.2
		c-6.1,4.1-17.3,6.6-19-3.4c-1.5-9.1,1.7-18.6,4.7-27c3.9-10.9,8.8-21.4,13.5-31.9c9.9-21.9,21.5-43.1,33.2-64.1
		c-9.2-3.1-22,3.9-30.1,7.8c-11.9,5.7-23.1,12.8-33.7,20.5c-19.1,13.9-35,31.1-49.6,49.6c8.4-17.2,18.6-33.5,27-50.7
		c3.2-6.7,9-15.9,3.6-22.9c-5.8-7.6-15.7-4.3-22.7-0.6c-16.3,8.7-29.7,22.5-43.4,34.7c-13.5,12-25.6,25.4-36.8,39.6
		c7.3-15.2,15.3-30,23.9-44.4c6.8-11.4,15.2-28.5,27.3-35.1c-6.8,1.3-13.2-1.9-20-1.7c-6.4,0.2-11.6,2.7-15.7,7.6
		c-10,11.8-16.5,27.1-23.5,40.7c-16.1,31.6-30.2,64.2-46.1,95.9c6.7-4.2,15.8-1.6,23.3-3.3c8-1.8,12-16,15.6-22.4
		c8.9-15.9,18.7-31.2,30.2-45.3c10.7-13.1,22.9-25.7,36.5-35.8c2.4-1.8,12.7-9,13-2.3c0.4,8.8-5.5,18.5-9,26.2
		c-8.5,18.7-19,36.9-22.1,57.5c-1.4,7.5,0.1,17.1,7.1,21.5c1.4,0.9,3,1.4,4.6,1.6c2.7,0.3,2-1.2,2.7-3.4c1.5-4.9,3.5-9.6,5.8-14.1
		c9.4-18.8,21.6-36.5,35-52.6c11.1-13.4,24-28.3,39.8-36.2c2.8-1.4,7.3-3.6,10.4-1.8c3.9,2.3,1.2,9-0.2,12
		c-4.7,10.1-11.6,19.4-17,29.2c-9.1,16.5-21,46.2-4.5,62.2c8,7.7,21.7,8.1,31.5,3.9c10.8-4.6,19.6-14.4,26.7-23.5
		C1162.5,334.1,1196.3,282.6,1188.2,278.8C1186.1,277.8,1190.4,279.8,1188.2,278.8z"/>
	<path fill="#F8F7F3" d="M1370.9,279.2c-5.4-2.5-13.4,19.6-15.4,23.4c-5.2,10.1-10.8,20.1-17.5,29.4c-5.8,8-13.5,17.7-23.3,20.9
		c-10.4,3.4-15.6-5.6-15.2-14.9c1.1-21.9,13.6-43.9,22.9-63.3c9-18.8,17.6-43.8,36-55.7c-7.1,0-14.2,0-21.3,0
		c-5,0-10.6,0.3-14.5,3.9c-5.9,5.4-8.7,15.7-12.1,22.8c-15.9,32.4-31.9,67.4-56.1,94.4c-5.8,6.5-25,24-30.7,8.1
		c-5.1-14.2,3.9-31.7,9.8-44.2c7.5-15.8,14.7-31.7,22.9-47.2c7.9-14.9,14.9-27.3,28.4-37.9c-6.1,0-12.2,0-18.3,0
		c-7.4,0-16.5-1.1-21.7,5.3c-4.2,5.1-6.6,12.5-9.6,18.4c-3.7,7.3-7.5,14.6-11.3,21.8c-3.3,6.4-6.6,12.8-9.8,19.3
		c-1.9,3.9-7.9,12.1,0.9,12.1c-6.5,13.1-15.1,25.9-15.1,41.1c0,15.4,9.6,26,25.1,26.9c27.4,1.6,48-33.8,59.4-54.1
		c-4.5,13.4-7.3,30.8,0.3,43.7c8.8,15,28.9,11.7,40.7,2.6c12.4-9.5,21.4-22.7,29.1-36.1C1357.2,315.5,1377.2,282.1,1370.9,279.2
		C1368.8,278.2,1373,280.2,1370.9,279.2z"/>
</g>
</svg>
