<?xml version="1.0" encoding="utf-8"?>
<!-- Generator: Adobe Illustrator 18.0.0, SVG Export Plug-In . SVG Version: 6.00 Build 0)  -->
<!DOCTYPE svg PUBLIC "-//W3C//DTD SVG 1.1//EN" "http://www.w3.org/Graphics/SVG/1.1/DTD/svg11.dtd" [
	<!ENTITY ns_extend "http://ns.adobe.com/Extensibility/1.0/">
	<!ENTITY ns_ai "http://ns.adobe.com/AdobeIllustrator/10.0/">
	<!ENTITY ns_graphs "http://ns.adobe.com/Graphs/1.0/">
	<!ENTITY ns_vars "http://ns.adobe.com/Variables/1.0/">
	<!ENTITY ns_imrep "http://ns.adobe.com/ImageReplacement/1.0/">
	<!ENTITY ns_sfw "http://ns.adobe.com/SaveForWeb/1.0/">
	<!ENTITY ns_custom "http://ns.adobe.com/GenericCustomNamespace/1.0/">
	<!ENTITY ns_adobe_xpath "http://ns.adobe.com/XPath/1.0/">
]>
<svg version="1.1" id="Layer_1" xmlns:x="&ns_extend;" xmlns:i="&ns_ai;" xmlns:graph="&ns_graphs;"
	 xmlns="http://www.w3.org/2000/svg" xmlns:xlink="http://www.w3.org/1999/xlink" x="0px" y="0px" viewBox="0 319 612 145"
	 enable-background="new 0 319 612 145" xml:space="preserve">
<metadata>
	<sfw  xmlns="&ns_sfw;">
		<slices></slices>
		<sliceSourceBounds  height="130.9" width="606.2" x="3.8" y="337.9" bottomLeftOrigin="true"></sliceSourceBounds>
	</sfw>
</metadata>
<g>
	<path fill="#F8F7F3" d="M169.5,346.2c-7.8-8.4-19.9-12.6-30.7-15.5c0.7-1.5,2.5-2.7,3.8-3.7c1-0.8,3.1-1.6,3.3-3
		c0.4-2.4-7.8,1.8-8.5,2.3c-1.6,1-3.6,3.3-5.4,3c-2.1-0.4-4.2-0.8-6.3-1.2c-4.8-0.8-9.6-1.3-14.4-1.7c-19.1-1.3-39.7-0.5-57.9,5.5
		c-15.8,5.2-32.6,16-37.4,32.9c-2.3,8.2-0.5,16.9,5.9,22.7c6.3,5.8,15.7,8.4,24,6.4c8.4-2,15.8-8.1,18.6-16.3
		c0.4-1.3,2.3-8.4-1.8-6.2c-0.9,0.5-0.6,2.3-0.9,3.3c-0.7,2.2-1.8,4.2-3.2,6.1c-5,6.7-13.5,11-21.9,9.5c-8.4-1.5-15-7.1-14.6-16.2
		c0.8-17.7,19.4-30.4,34.3-36.1c18-6.8,38.7-8.1,57.7-6.9c5,0.3,10.1,0.9,15,1.7c-7.2,8.2-14.7,16.3-20.9,25.3
		c-11.1,16.2-19.4,34.2-28.9,51.3c-4.4,7.9-8.9,15.8-15,22.7c-1.3,1.5-2.6,2.9-4,4.2c-2.1-1-4.1-2-6.2-3.1c-4-2-7.8-4.4-11.7-6.4
		c-7.4-3.7-15.8-6.1-24.2-4.4c-8,1.6-15.8,7.8-14.5,16.8c1.1,7.9,8.9,12.3,16.1,13.7c9.1,1.8,18.6,1.1,27.3-1.9
		c4.1-1.4,8-3.3,11.7-5.6c1.5-0.9,4-3.5,5.5-2.8c2.2,1,4.4,1.8,6.6,2.6c8,2.9,16.2,5,24.6,6.4c9.6,1.6,18.8,2.6,28.5,1
		c9-1.5,17.8-4.5,25.6-9.3c7.1-4.4,13.3-10.7,16-18.7c2.7-8.4,0.9-18-5.3-24.3c-6.7-6.8-15.7-10.9-24.7-13.7
		c11.2-0.4,24-3.6,32.1-11.8C175.9,366.9,177.4,354.8,169.5,346.2C166.5,342.8,172.6,349.5,169.5,346.2z M43.3,446.8
		c-6.7,2.4-15.7,3.8-22.5,1c-6.2-2.6-10.2-10.6-5.6-16.4c4.7-6,13.3-4.5,19.4-2.2c7.7,2.8,15,6.7,22.4,10.3
		C52.8,442.5,48.2,445.1,43.3,446.8C38.3,448.5,48.2,445.1,43.3,446.8z M164.9,356.7c-0.4,8.6-7.4,16.1-14.3,20.5
		c-3.5,2.2-7.5,4.1-11.6,4.8c-4.6,0.8-9.4,0.3-14-0.1c-3.6-0.3-7.7-1-11.2,0.1c-5.2,1.6,1.6,5,3.3,5.6c8.4,3,17.4,5,25.4,9.1
		c7.2,3.7,12.6,10.2,12.8,18.6c0.2,8.8-5.1,17-11.5,22.5c-14.5,12.5-33.1,12.8-51,9.4c-8.7-1.6-17.3-4.2-25.4-7.7
		c9.8-8.9,17.4-19.5,24.4-30.7c7.8-12.5,15.2-25.3,22.7-38.1c7.2-12.3,14.4-24.6,22.8-36.2C147.8,337.2,165.6,342.5,164.9,356.7
		C164.7,359.8,165,353.5,164.9,356.7z"/>
	<path fill="#F8F7F3" d="M246.5,418.6c0.3-0.7,1.1-2.4,0-2.9c-1.5-0.6-2.4,1.9-2.8,2.8c-1.8,3.7-3.7,7.3-5.9,10.9s-4.4,7-7.1,10.1
		c-1.6,1.8-4.7,5.5-7.6,4.4c-1.9-0.7-1.6-3.9-1.4-5.5c0.4-4.2,1.7-8.3,3.3-12.2c1.7-4.2,3.7-8.2,5.9-12.1c1.8-3.2,3.6-6.8,6.2-9.3
		c-3.9,0.7-7.9-2.1-11.5,0.6c-3,2.3-4.8,6.8-6.6,10c-4.4,8.1-9,17-15.7,23.5c-2.3,2.2-6,5.3-9.4,4.6c-4.3-0.8-3.4-6.7-2.7-9.7
		c1.8-7.8,6.4-15.3,11.2-21.6c4.8-6.3,11.7-15,20-16.8c3.3-0.7,6.9,0.1,8.7,3.1c0.8,1.3,1,3.4,3,2c2.1-1.4,0.3-3.8-0.9-5
		c-6.7-6.5-17.1-4.7-24.7-1c-8.3,4.1-14.3,11.3-18.8,19.3c-3,5.4-5.3,11.4-5.9,17.6c-0.5,5.1-0.1,11.9,4.4,15.2
		c10.2,7.5,22.5-12.2,26.6-19c-1.4,4.8-2.4,10.3-0.6,15.1c1.9,4.8,7.5,6.6,12,4.3c4.9-2.5,8.6-7.7,11.6-12.2
		C240.9,429.7,243.8,424.1,246.5,418.6C247.2,417,245.3,421,246.5,418.6z"/>
	<path fill="#F8F7F3" d="M313.1,414.8c-1.6-1.2-4.8,7.2-5.5,8.4c-1.8,3.5-3.7,7.1-5.9,10.3c-3.6,5.3-9.5,11.4-16.5,9.3
		c-6.7-2.1-9-10-9.6-16.3c-0.3-3.5-0.1-7,0.5-10.5c0.3-1.8,0.7-3.5,1.2-5.2c0.7-2.5,1-4.2,3.3-5.8c3.5-2.5,16.6-9.7,19.3-2.6
		c1.3,3.5,6.6-1.2,7.3-3.3c1.1-3.5-0.5-6.3-4-7c-7-1.5-14.7,2.9-20,7c-6.7,5.1-12.3,11.3-17.6,17.8c2.1-4.3,4.5-8.4,7.1-12.4
		c2.2-3.4,4.7-8.1,8.4-10.2c-2.9,0.5-5.6-0.9-8.5-0.6c-2.1,0.3-3.7,1.3-5.1,2.9c-3.7,4.5-6.2,10.2-8.8,15.3
		c-6.1,12-11.6,24.2-17.6,36.2c2.7-1.7,6.3-0.5,9.2-1.3c2.8-0.7,4-6.1,5-8.4c3.1-7.2,6.6-13.5,11.4-19.7c-1.3,6.1-0.9,14.6,2.1,20.1
		c4.1,7.6,11.9,10.1,20.1,8.6c7.1-1.2,12.3-8.1,16-13.8c1.9-2.9,3.5-6,5.1-9.1C310.6,423.2,315.1,416.3,313.1,414.8
		C312.4,414.4,313.7,415.3,313.1,414.8z"/>
	<path fill="#F8F7F3" d="M380.8,418.6c0.3-0.7,1.1-2.4,0-2.9c-1.5-0.6-2.4,1.9-2.8,2.8c-1.8,3.7-3.7,7.3-5.9,10.9
		c-2.1,3.5-4.4,7-7.1,10.1c-1.6,1.8-4.7,5.5-7.7,4.4c-1.9-0.7-1.6-3.9-1.4-5.5c0.4-4.2,1.7-8.3,3.3-12.2c1.7-4.2,3.7-8.2,5.9-12.1
		c1.8-3.2,3.6-6.8,6.2-9.3c-3.9,0.7-7.9-2.1-11.5,0.6c-3,2.3-4.8,6.8-6.6,10c-4.4,8.1-9,17-15.7,23.5c-2.3,2.2-6,5.3-9.4,4.6
		c-4.3-0.8-3.4-6.7-2.7-9.7c1.8-7.8,6.4-15.3,11.2-21.6c4.8-6.3,11.7-15,20-16.8c3.3-0.7,6.9,0.1,8.7,3.1c0.8,1.3,1,3.4,3,2
		c2.1-1.4,0.3-3.8-0.9-5c-6.7-6.5-17.1-4.7-24.7-1c-8.3,4.1-14.3,11.3-18.8,19.3c-3,5.4-5.3,11.4-5.9,17.6
		c-0.5,5.1-0.1,11.9,4.4,15.2c10.2,7.5,22.5-12.2,26.6-19c-1.4,4.8-2.4,10.3-0.6,15.1c1.9,4.8,7.5,6.6,12,4.3
		c4.9-2.5,8.6-7.7,11.6-12.2C375.3,429.7,378.1,424.1,380.8,418.6C381.5,417,379.6,421,380.8,418.6z"/>
	<path fill="#F8F7F3" d="M447.2,415.6c-1.9-0.9-4.6,6.3-5.2,7.6c-2.1,4.1-4.3,8.1-6.9,11.9c-2.2,3.2-5.1,7.2-8.8,8.7
		c-3.6,1.5-6.1-0.5-6.3-4.2c-0.4-8.3,5.1-16.9,8.8-23.9c2.2-4,4.5-8,7-11.9c2-3,4.3-7.1,7.6-8.9c-4.4,0.8-8.9-2.4-12.7,1.4
		c-3.3,3.3-5.3,8-7.5,12c-1.2,2.2-2.4,4.5-3.5,6.7c-1.1,2.3-2.1,4.5-5.1,4c-4.7-0.5-9.4-4.9-14.3-2.6c2.3-4.3,4.7-8.5,7.4-12.6
		c2-3,4.3-7.1,7.6-8.9c-2.9,0.5-5.6-0.9-8.5-0.6c-2.1,0.3-3.7,1.3-5.1,2.9c-3.7,4.5-6.2,10.2-8.8,15.3c-6.1,12-11.6,24.2-17.6,36.2
		c4.2-2.6,9.5,1.2,11.9-4.4c1.9-4.4,3.9-8.7,5.7-13.1c0.9-2.2,2-4.3,3-6.5c1-2.1,1.8-4.4,4.4-4.7c5.5-0.7,10,5.4,15.6,2.8
		c-1.1,2.4-2.3,4.8-3.4,7.2c-1.4,3.6-1,7.4,0.1,11c1.9,6.2,7.8,8.9,13.8,6.1c6-2.8,10.4-9.5,13.7-14.9
		C441.1,430.6,449.6,416.8,447.2,415.6C446.4,415.3,447.9,416,447.2,415.6z"/>
	<path fill="#F8F7F3" d="M501.1,415.9c-2-0.9-5.9,8.8-6.7,10.4c-2.3,4.1-4.8,8.2-8,11.6c-4.6,4.9-13.9,11.2-20.6,6.2
		c-6.7-5-3.9-16.5-1.6-22.9c2.9-7.9,7.7-15.9,14.2-21.4c2.6-2.1,6.9-5.7,10.6-4.1c3.8,1.6,1.9,7.6,0.5,10.1
		c-0.9,1.7-2.1,3.3-3.3,4.8c-1.4,1.8,2.3,1.7,3.4,1.3c3.8-1.4,6.6-6.1,6.9-10c0.6-9.1-9-11.2-16.2-9.3c-8.5,2.2-14.8,9.1-19.2,16.4
		c-4.5,7.5-8.4,16.6-8,25.5c0.4,8.7,7,13.7,15.4,14c8.8,0.3,16.3-3.3,21.9-10.2C492,436.1,503.9,417.1,501.1,415.9
		C500.4,415.5,501.9,416.2,501.1,415.9z"/>
	<path fill="#F8F7F3" d="M526.6,387.9c7.8,0,11.2-13,2.1-13C520.8,374.9,517.6,387.9,526.6,387.9z"/>
	<path fill="#F8F7F3" d="M539.3,415.7c-1.7-1-4.6,6.5-5.3,7.7c-2,3.7-4,7.5-6.3,11c-2.6,4-9.5,13.5-15.2,8.9
		c-5-4.1,2.4-16.5,4.5-21.4c3-7,6-14,9-20.9c1.3-3,2.7-6.4-1.8-6.6c-3.2-0.2-6.5,0.1-9.8,0.1c2.1,2.8,2.2,5.2,1,8.2
		c-1.1,2.7-2.2,5.5-3.2,8.2c-2.1,5.4-4.2,10.7-6.3,16.1c-1.9,4.8-3.2,11.2-0.5,16c2.9,5.2,9.8,6,14.7,3.3c5.6-3,9.6-9.2,12.7-14.5
		C533.7,430.1,541.6,417,539.3,415.7C538.5,415.3,540,416.1,539.3,415.7z"/>
	<path fill="#F8F7F3" d="M609.6,415.6c-1.9-0.9-4.6,6.3-5.2,7.6c-2.1,4.1-4.3,8.1-6.9,11.9c-2.2,3.2-5.1,7.2-8.8,8.7
		c-3.6,1.5-6.1-0.5-6.3-4.2c-0.4-8.3,5.1-16.9,8.8-23.9c2.2-4,4.5-8,7-11.9c2-3,4.3-7.1,7.6-8.9c-5,0.9-9.3-2.8-12.9,2.5
		c-1.3-4.6-6-5.9-10.3-5.3c-5.3,0.8-9.6,3.6-12.8,7.8c-5.2,6.9-10.2,22.2,2.5,24.5c-4.4,7.6-11.8,21-22.2,19.7
		c-2.5-0.3-4.6-2.5-5.4-4.8c-1-2.8,0.9-4.6,1.1-7.2c0.2-2.1-1.1-4.1-3.4-3.9c-2.5,0.3-4.1,2.5-4.5,4.9c-1.6,10.1,8.9,17,17.9,14.8
		c5.4-1.3,9.7-6,12.9-10.3c1.8-2.3,3.2-4.8,4.7-7.3c0.7-1.2,1.5-2.5,2.2-3.8c0.9-1.6,0.9-1.8,2.7-2.1c-2.9,5.9-5.2,11.6-2.7,18.2
		c2.4,6.3,9.8,6.8,14.8,3.5c5.5-3.5,9.4-9.5,12.7-15C604.1,429.7,612,416.8,609.6,415.6C608.8,415.3,610.4,416,609.6,415.6z
		 M569.6,419c-2.6-6,2.4-13,5.6-17.6c1.8-2.6,3.8-5,7.1-5.7c2.7-0.5,6.2,0,6.7,3.2c1.1,5.8-3.9,12.5-6.5,17.3
		c-0.9,1.7-1.8,3.3-2.6,5c-0.8,1.6-1.9,1.3-3.6,1.3C573.8,422.5,570.8,421.6,569.6,419C569.1,417.8,570.2,420.2,569.6,419z"/>
</g>
</svg>
