<?xml version="1.0" encoding="utf-8"?>
<!-- Generator: Adobe Illustrator 18.0.0, SVG Export Plug-In . SVG Version: 6.00 Build 0)  -->
<!DOCTYPE svg PUBLIC "-//W3C//DTD SVG 1.1//EN" "http://www.w3.org/Graphics/SVG/1.1/DTD/svg11.dtd" [
	<!ENTITY ns_extend "http://ns.adobe.com/Extensibility/1.0/">
	<!ENTITY ns_ai "http://ns.adobe.com/AdobeIllustrator/10.0/">
	<!ENTITY ns_graphs "http://ns.adobe.com/Graphs/1.0/">
	<!ENTITY ns_vars "http://ns.adobe.com/Variables/1.0/">
	<!ENTITY ns_imrep "http://ns.adobe.com/ImageReplacement/1.0/">
	<!ENTITY ns_sfw "http://ns.adobe.com/SaveForWeb/1.0/">
	<!ENTITY ns_custom "http://ns.adobe.com/GenericCustomNamespace/1.0/">
	<!ENTITY ns_adobe_xpath "http://ns.adobe.com/XPath/1.0/">
]>
<svg version="1.1" id="Layer_1" xmlns:x="&ns_extend;" xmlns:i="&ns_ai;" xmlns:graph="&ns_graphs;"
	 xmlns="http://www.w3.org/2000/svg" xmlns:xlink="http://www.w3.org/1999/xlink" x="0px" y="0px" viewBox="0 243 612 272"
	 enable-background="new 0 243 612 272" xml:space="preserve">
<metadata>
	<sfw  xmlns="&ns_sfw;">
		<slices></slices>
		<sliceSourceBounds  width="608" height="255.6" x="2.6" y="283.1" bottomLeftOrigin="true"></sliceSourceBounds>
	</sfw>
</metadata>
<g>
	<path fill="#F8F7F3" d="M262.1,336.8c3.9-12,8.1-24,13.1-35.5c2.4-5.5,5.1-10.9,7.9-16.3c0.7-1.4,1.5-2.8,2.2-4.1
		c0.9,0,1.9-0.2,2.7-0.4c2.7-0.7,5.3-1.9,8.1-1.9c8.4-3,22.7-8.4,19.6-20.2c-1.2-4.5-6.1-5.5-10.2-5c-6.2,0.7-10.6,4.4-14.6,8.8
		c-3.4,3.8-6.6,8.1-9.1,12.6c-0.9,1.5-5.2,1.5-6.9,1.9c-3.3,0.6-6.6,1.2-9.8,1.9c-12.6,2.5-25.1,5.4-37.4,9.2
		c-23.3,7.3-47,16.6-65.6,32.7c-8.5,7.3-16.2,16-21.3,25.9c-5.1,9.9-9.1,22.2-7.1,33.5c4.4,24.2,31.6,32.2,52,22.3
		c9.9-4.8,18.2-13.3,22.8-23.4c2.2-4.9,3.7-10.4,3.7-15.8c0-2.5-1.3-14.5-5-14.5c-1.2,0-5.2,2.6-3.6,4.1c1.1,1.1,1.5,3.1,1.8,4.6
		c1.1,5.5,0.4,11.2-1.2,16.5c-3.2,10.1-10.2,18.4-19.8,22.9c-7.7,3.6-17.3,4.9-24.7-0.1c-7-4.8-9.4-13.8-9.2-21.9
		c0.2-17.6,9.2-35,21.5-47.2c28.2-27.7,68.2-37,105.5-45.2c-11,19.3-20.5,39.5-29.3,59.9c-9.5,22-17.4,44.4-29.7,65.1
		c-24.4,40.7-60.8,77.5-107.9,90c-40.2,10.7-108.1-6-98.8-59.8c2-11.4,7.3-21.9,14.5-30.9c3.5-4.4,7.5-8.4,12-11.7
		c1-0.8,11.2-6.6,7.6-7.1c-4.4-0.6-9,2.2-12.6,4.4c-5.3,3.4-9.8,7.8-14,12.4c-8.5,9.4-13,20.1-15.4,32.5c-4,20.3,1.8,41,18.3,54.2
		c17.2,13.7,40.6,17.8,62.1,17.7c47.8-0.3,91.9-21.3,123.2-57.1c13.9-15.9,24.8-33.7,33.3-52.9C249.5,378.7,255.4,357.6,262.1,336.8
		C265,327.8,259.2,345.8,262.1,336.8z M293.2,270.2c2.2-2.8,4.8-5.7,7.7-7.7c2.8-2,6.7,0.3,5.3,3.9c-2.2,5.5-11.7,7.1-16.5,8.1
		C290.9,273,292.1,271.6,293.2,270.2C294.5,268.5,291.9,271.8,293.2,270.2z"/>
	<path fill="#F8F7F3" d="M368.9,416.1c-3.2-1.5-7.6,10.6-8.7,12.6c-3.6,7.1-7.5,14.1-12.2,20.5c-3.5,4.8-8,11-14,13
		c-6.8,2.2-9.8-2.9-9.5-9c0.6-13.4,8.8-26.7,15.1-38.2c3.4-6.3,7-12.4,10.9-18.4c3.2-4.8,6.8-11.2,12-14c-7.6,1.4-14.9-4-21.2,2.9
		c-5,5.4-8.1,12.5-11.5,18.8c-2.1,3.8-4.1,7.6-6,11.5c-1.5,3.1-2.9,6.3-6.9,6.2c-8.2-0.3-16.1-8.3-24.4-4.4
		c3.6-6.7,7.4-13.3,11.5-19.7c3.3-5.1,7.3-12.1,12.8-15.2c-4.6,0.8-8.9-1.4-13.5-1c-3.7,0.4-6.5,2.2-8.8,5.1
		c-5.9,7.3-9.8,16.4-14.1,24.7c-9.9,19.4-18.7,39.3-28.4,58.7c5.7-3.5,14.9,1.4,18.6-5.4c3.2-7.4,6.6-14.7,9.8-22.2
		c1.4-3.4,3.1-6.7,4.6-10.1c1.8-3.8,3.2-8.7,8.1-9.1c8.6-0.6,16.1,8.7,24.9,4.5c-2,4.3-4.6,8.6-6,13.1c-1.8,5.5-1,11.2,0.7,16.6
		c3.3,10.5,13.6,14.4,23.2,9.3c9.5-5.1,16.4-15.5,21.8-24.4C359.5,439.7,372.8,417.9,368.9,416.1
		C367.6,415.5,370.2,416.7,368.9,416.1z"/>
	<path fill="#F8F7F3" d="M526.5,416.3c-3.3-1.5-8.8,13.2-10.1,15.7c-3.4,6.6-7.2,13.1-11.8,18.9c-3.8,4.8-9.2,11-15.9,11
		c-6-0.5-6.1-8.4-5.5-12.7c2-13.2,8.9-26,14.7-37.9c5.8-11.8,10.6-23.3,20.9-31.8c-4.2,0-8.5,0-12.7,0c-2.8,0-5.9,0-8.3,1.7
		c-3.7,2.5-5.3,8.6-7.2,12.5c-9.6,19.7-19.2,41-33.5,57.9c-4.1,4.8-17.2,17.3-20.7,5.1c-2.4-8.3,2.7-18.7,5.8-26.2
		c4.1-9.5,8.7-18.7,13.1-28c4.4-9,8.7-16.6,16.6-23.1c-4.2,0-8.5,0-12.7,0c-2.8,0-5.8,0-8.3,1.7c-3.7,2.5-5.3,8.6-7.2,12.4
		c-9.6,19.7-19.2,40.9-33.5,57.7c-3.3,3.9-15.6,17.3-20.2,7.9c-4-8,1.7-19.6,5.1-26.7c4.6-9.6,9-19.3,13.9-28.7
		c4.8-9.1,9.1-18.5,17.9-24.4c-3.6,0-7.3,0-10.9,0c-4.6,0-10.3-0.7-13.5,3.3c-2.4,2.9-3.7,7-5.4,10.4c-2.2,4.5-4.6,8.9-6.9,13.4
		c-2,3.8-4.1,7.6-5.8,11.5c-1.1,2.4-5.8,8.5,0,8.5c-3.7,7.5-8.5,14.7-9.2,23.2c-0.6,8.2,3.3,16.5,12.1,17.9
		c18.6,2.9,31.7-19,39.4-32.7c-4,11.9-4.5,35.7,14.3,32.9c7.6-1.1,14-7.6,18.9-13.1c5.3-5.9,9.8-12.7,13.5-19.8
		c-2.7,8.2-4.4,18.8,0.2,26.7c5.1,8.6,16.5,7.4,23.7,2.4c8.2-5.7,14.1-14.3,18.9-22.9C518,438.6,530.3,418.1,526.5,416.3
		C525.2,415.7,527.8,416.9,526.5,416.3z"/>
	<path fill="#F8F7F3" d="M475.3,479c-4.2-1.2-5.5,0.6-8.2,3.1c-3.1,2.7-6.7,4.4-10.9,4.7c-9.6,0.7-18.8-3.3-28-5.5
		c-8.5-2.2-17.7-3.6-26.2-0.5c-4.1,1.5-7.6,4-10.9,6.7c-0.9,0.8-8.6,7.5-7.5,8.3c1.1,0.8,3.2,0.8,4.4,0.8c2.4,0,2.7-0.8,4.3-2.4
		c2.9-2.9,6.6-4.9,10.6-5.3c9.5-0.9,19.2,3,28.1,5.6c9,2.6,18,4.1,26.9,0.4c4.1-1.7,7.8-4.2,11.1-7.2
		C470.2,486.6,477,479.4,475.3,479C474.7,478.8,475.9,479.1,475.3,479z"/>
	<path fill="#F8F7F3" d="M610.4,417.4c-2-4.7-7.2,6.8-7.7,7.9c-2.6,5.5-5.3,10.9-8.6,16.1c-5.7,8.8-13.7,18.7-24.1,21.9
		c-4.3,1.3-9.9,2-13.9-0.5c-4.5-2.8-5.8-9.2-5.9-14.1c-0.2-5.6,0.8-11.3,2.4-16.7c0.9-3,1.1-2.9,4.1-3.3c2.9-0.4,5.8-1.1,8.7-1.9
		c10.8-3.1,20.5-8.1,28.2-16.4c6.1-6.5,15-19.3,8.5-28.2c-7.3-9.9-22.6-4.5-30.8,0.7c-9.7,6.2-17.6,15-23.6,24.8
		c-6.9,11.3-12.6,25.1-11.8,38.5c0.7,12.6,9.4,22,22.2,23.1c13,1.1,24.4-4.8,32.7-14.5c4.6-5.4,8.4-11.7,11.5-18.1
		c1.6-3.3,3.1-6.5,4.6-9.8C607.6,425,611.4,419.6,610.4,417.4C610.1,416.8,610.7,418,610.4,417.4z M561.6,413.4
		c5.2-8.8,11.7-17,19.2-24c4-3.6,16.7-12.9,16.3-1.3c-0.3,9.5-7.3,18.8-14.2,24.7c-7.3,5.8-17.8,11.4-27.4,11.4
		C557.4,420.5,559.5,416.9,561.6,413.4C564.4,408.6,558.7,418.2,561.6,413.4z"/>
</g>
</svg>
