<?xml version="1.0" encoding="utf-8"?>
<!-- Generator: Adobe Illustrator 18.0.0, SVG Export Plug-In . SVG Version: 6.00 Build 0)  -->
<!DOCTYPE svg PUBLIC "-//W3C//DTD SVG 1.1//EN" "http://www.w3.org/Graphics/SVG/1.1/DTD/svg11.dtd" [
	<!ENTITY ns_extend "http://ns.adobe.com/Extensibility/1.0/">
	<!ENTITY ns_ai "http://ns.adobe.com/AdobeIllustrator/10.0/">
	<!ENTITY ns_graphs "http://ns.adobe.com/Graphs/1.0/">
	<!ENTITY ns_vars "http://ns.adobe.com/Variables/1.0/">
	<!ENTITY ns_imrep "http://ns.adobe.com/ImageReplacement/1.0/">
	<!ENTITY ns_sfw "http://ns.adobe.com/SaveForWeb/1.0/">
	<!ENTITY ns_custom "http://ns.adobe.com/GenericCustomNamespace/1.0/">
	<!ENTITY ns_adobe_xpath "http://ns.adobe.com/XPath/1.0/">
]>
<svg version="1.1" id="Layer_1" xmlns:x="&ns_extend;" xmlns:i="&ns_ai;" xmlns:graph="&ns_graphs;"
	 xmlns="http://www.w3.org/2000/svg" xmlns:xlink="http://www.w3.org/1999/xlink" x="0px" y="0px" viewBox="0 320 612 152"
	 enable-background="new 0 320 612 152" xml:space="preserve">
<metadata>
	<sfw  xmlns="&ns_sfw;">
		<slices></slices>
		<sliceSourceBounds  height="132.9" width="609.2" x="1.6" y="325.2" bottomLeftOrigin="true"></sliceSourceBounds>
	</sfw>
</metadata>
<g>
	<path fill="#F8F7F3" d="M163.8,433.1c-1.1-0.4-2.3,2.7-2.7,3.3c-1.1,1.7-2.5,3.1-4,4.3c-3.4,2.7-7.6,4.4-11.8,5.3
		c-8.7,1.8-16-0.2-21.6-7.3c-5.6-7.1-8.6-16.3-10.9-25c-1-3.6-1.9-7.5-2-11.3c-0.1-1.7,0.6-1.4,2.1-1.8c2.2-0.7,4.4-1.5,6.5-2.5
		c17.2-7.6,32.9-20.1,46.1-33.4c6.7-6.7,12.9-13.9,18.2-21.7c0.5-0.7,6.6-9.3,3.3-9.2c-1.8,0.1-2.9,2.7-3.8,3.9
		c-1.4,2.1-2.9,4.2-4.5,6.2c-10.8,14.1-24.6,26.4-39.1,36.6c-7,4.9-14.3,9.6-22,13.5c-3.4,1.7-7,3.4-10.7,4.3c-1,0.2-2.6-0.1-3,1
		c-0.6,1.5-0.4,3.4-0.4,5.1c0.7,15.5,7,34.9,20.9,43.4c7.7,4.7,16.5,4.9,24.6,1c3.7-1.8,7.1-4.2,9.9-7.1
		C159.8,441,165.8,433.8,163.8,433.1C163.6,433,164,433.2,163.8,433.1z"/>
	<path fill="#F8F7F3" d="M114.1,368.4c1.4-4.1,3.1-8.2,5-12.1c0.9-1.8,1.8-3.6,2.8-5.4c2.3-0.2,4.6-0.6,6.8-1.3
		c2.7-0.9,6.4-3,6.8-6.1c0.7-4.6-5.1-5.3-8-3.5c-3.1,1.9-5.1,5.1-7.1,8.1c-0.7,1.1-4.7,0.8-6,0.9c-2.7,0.2-5.3,0.4-8,0.5
		c-9.7,0.7-19.4,1.6-28.7,4.6c-14.8,4.8-31.6,20.6-21.9,37.4c4.5,7.7,13.7,10.3,21.8,6.7c7.5-3.3,12.5-13.3,10.2-21.2
		c-0.5-1.7-2.6-4-2.3-0.9c0.3,2.7,0.2,5.6-0.5,8.3c-1.1,4.9-4.1,10.3-9.1,12.1c-12.1,4.4-17.9-7.7-15.2-18
		c6.6-25.2,37.3-24.7,57.8-27.2c-16,30.2-24.4,69.2-57.1,86.3c-15.4,8.1-37.9,10.6-50.7-3.7c-5.6-6.2-7.1-15.5-4.5-23.4
		c1.3-3.9,3.8-7.4,6.7-10.2c1.1-1.1,2.4-2.2,3.8-2.8c2.3-1.1-1.1-1.7-2.1-1.2c-16.1,6.1-15.9,29.3-6.2,40.6
		c11.7,13.6,32.6,15.6,49,11.3C92.8,438.5,103.4,398.9,114.1,368.4C116.4,361.9,111.8,374.9,114.1,368.4z M126.1,345.6
		c1-1.2,2.4-2.8,4-3.3c1.2-0.4,2.3,0.5,1.8,1.8c-1.1,2.9-5.2,3.7-7.9,4C124.7,347.3,125.4,346.4,126.1,345.6
		C126.9,344.6,125.3,346.6,126.1,345.6z"/>
	<path fill="#F8F7F3" d="M187.6,407.6c-1.8-0.7-4.3,6.5-4.9,7.8c-1.9,3.7-4.1,7.3-7.2,10.1c-2.4,2.2-6.3,3.3-9.1,1.2
		c-2.3-1.7-0.6-2.5,0.9-4.1c1.5-1.7,2.8-3.4,4-5.3c3.9-5.9,7.6-14.7,4.7-21.8c-3.8-9.2-15-3.2-19.9,1.5
		c-5.8,5.5-10.3,13.4-11.2,21.4c-0.4,3.5,0,7.7,2.7,10.3c2.6,2.5,7.1,2.3,10.2,1c1.8-0.7,3.4-1.7,4.9-2.8c1.2,1.3,2.8,2.2,4.5,2.6
		c3.9,0.9,7.3-0.3,10.1-3c3.1-2.9,5.5-6.5,7.5-10.2C185.3,415.3,189.3,408.3,187.6,407.6C187,407.4,188.3,407.9,187.6,407.6z
		 M160.6,416.1c-0.7,1.3-1.1,2.8-0.9,4.3c0.1,1,0.4,1.9,0.8,2.9c0.5,1.3,1.5,1.5,0.2,2.5c-2.4,1.8-7.7,4.3-9.1,0.1
		c-2.2-6.5,2.7-15.8,6.1-21.1c2.1-3.3,4.7-6.7,8-8.9c3.2-2.1,7.5-2.5,8.3,2.1c1.3,7.1-3.2,15.6-7,21.3
		C168.1,415.5,162.7,412.6,160.6,416.1C160.1,417.1,161.2,415.1,160.6,416.1z"/>
	<path fill="#F8F7F3" d="M228.7,421.1c2.1-3.2,3.8-6.6,5.3-10.2c0.3-0.8,1.7-2.8,0.4-3.3c-1.4-0.5-2.1,2-2.6,2.9
		c-2.7,5.5-7.3,17.3-14.8,17.3c-1.4,0-2.8-0.3-3.9-1.1c-2.3-1.7-0.6-2.5,0.9-4.1c2.8-3.1,5.2-6.6,6.9-10.3
		c2.6-5.6,5.8-18.2-2.4-21.1c-7.7-2.7-15.6,4.9-19.7,10.4c-4.6,6.2-9.1,15.4-6.7,23.3c1,3.1,3.3,5.2,6.5,5.5c2,0.2,4-0.1,5.9-0.9
		c1-0.4,2-1,3-1.5c1.1-0.7,1.5-1.7,2.6-0.7C217,433.4,224.8,427,228.7,421.1C230.2,418.8,227.2,423.4,228.7,421.1z M207.4,416.1
		c-0.7,1.3-1.1,2.8-0.9,4.3c0.1,1,0.4,1.9,0.8,2.9c0.5,1.3,1.5,1.5,0.2,2.5c-2.4,1.8-7.7,4.3-9.1,0.1c-2.2-6.5,2.7-15.8,6.1-21.1
		c2.1-3.3,4.7-6.7,8-8.9c3.2-2.1,7.5-2.5,8.3,2.1c1.3,7.1-3.2,15.6-7,21.3C214.9,415.5,209.5,412.6,207.4,416.1
		C206.9,417.1,208,415.1,207.4,416.1z"/>
	<path fill="#F8F7F3" d="M276.8,422.9c2.2-3.2,4-6.5,5.8-9.9c0.7-1.3,1.5-2.7,1.9-4.1c0.5-1.8-1.3-1.6-1.9-0.3
		c-3.2,6.3-6.6,14.5-12.7,18.7c-2.7,1.9-5.4,0.9-5.1-2.6c0.3-3.5,1.6-6.8,3-10c3.3-7.4,7-14.5,11-21.5c-2.5-0.8-5.7,1-7.9,2
		c-3.2,1.5-6.2,3.4-9.1,5.5c-5.2,3.8-9.7,8.5-13.7,13.5c2-5.4,4.2-11.4,4.7-17.1c0.1-1.7,0.6-5.9-2-5.7c-2.6,0.2-5.1,0.6-7.6,1.1
		c3.7,0.8,0.7,10.6-0.1,12.7c-0.7,2-1.7,4-2.6,6c-1.3,2.9,1.5,1,2.3-0.4c-2,9.3-7.1,18.5-11.3,26.9c-2.3,4.5-4.6,9-7,13.4
		c-1.7,3.2-3.4,7.3-6,9.9c3.3-0.6,6.8,2,9.6-0.9c1.3-1.3,2.3-3.2,3-4.9c1.2-3.1,2.5-6.1,3.7-9.2c2.8-7,5.4-14.3,8.7-21.1
		c3.3-6.9,7.8-12.7,13.4-17.9c2.2-2.1,4.7-4.7,7.7-5.6c4.6-1.4-0.1,6.1-0.7,7.1c-3.1,5.2-7.9,13-4.7,19.2c1.7,3.2,5.7,4,8.9,2.9
		C271.7,429.4,274.6,425.9,276.8,422.9C278.4,420.6,275.2,425.1,276.8,422.9z"/>
	<path fill="#F8F7F3" d="M337.2,407.5c-1.8-0.7-5,8.3-5.8,9.6c-2.7,4.5-6.2,8-10.5,11.1c2.4-9,3-18.5,1.5-27.7
		c-1.3,1.1-3.4,0.4-5,1.4c-1.4,0.9-1.8,2.4-2.3,3.9c-1.4,4.1-3.7,7.9-6.2,11.4c-2.4,3.4-5.2,6.9-8.8,9c-3.6,2.1-7.3,0.3-7.1-4
		c0.4-8.3,7-17.1,12.6-22.7c2.8-2.8,6.2-5.9,10.2-6.8c1.6-0.4,3.5-0.2,4.7,1c1.1,1,1.7,4.3,3.2,4.5c1.6,0.2,2-1.8,1.5-2.9
		c-0.7-1.6-2.5-2.6-4-3.4c-4.1-2.2-9.1-2.2-13.5-0.7c-8.2,2.9-13.8,10.6-17.4,18.1c-3.2,6.7-5.7,17.2,3,20.9
		c8.5,2.6,15.7-9.1,19.3-15.1c0.9-1.5,1.8-3.1,2.6-4.6c0.6,2.6,0.2,5.7,0,8.3c-0.4,4-1,7.9-2.1,11.8c-0.7,2.2-1.4,2.4-3.5,3.1
		c-2,0.7-4,1.4-6.1,2c-4,1.3-8.1,2.8-12,4.4c-6.4,2.7-15.4,6.6-18.4,13.5c-2.2,5-0.5,11,5,12.6c15,4.3,29.2-11.2,36-22.6
		c2-3.4,3.8-6.9,5.2-10.6c0.6-1.5,2.4-1.9,3.7-2.8c1.6-1.1,3-2.4,4.3-3.8C328.9,424.6,339.5,408.5,337.2,407.5
		C336.6,407.3,337.8,407.8,337.2,407.5z M304.9,447.3c-4.3,5.8-9.1,11.2-15.7,14.5c-4.2,2.1-16.5,5.5-14.2-3.7
		c1.8-7.1,8.4-11.1,14.6-14.1c7-3.4,14.6-5.5,21.9-8.3C309.8,439.8,307.5,443.7,304.9,447.3C303.4,449.4,307.8,443.3,304.9,447.3z"
		/>
	<path fill="#F8F7F3" d="M386.6,409.7c0.3-0.5,0.8-1.7-0.1-2.1c-1.2-0.6-2,2.1-2.4,2.9c-1.5,3.1-3.1,6.2-5,9.2
		c-1.4,2.3-10.4,13.3-11.8,5.4c-1-5.6,3.2-12.5,5.5-17.4c2.7-5.9,5.2-12.1,10.3-16.3c-1.9,0-3.9,0-5.9,0c-4.7,0-5.6,4.2-7.4,7.8
		c-4.2,8.6-8.5,18.1-15.1,25.2c-1.8,1.9-7.1,6.1-8.2,1.2c-0.9-4.2,1.6-8.5,3.3-12.2c2-4.2,3.9-8.4,6.1-12.5c1.8-3.7,3.9-7.3,7.3-9.6
		c-2.9,0-8.9-1.1-10.9,1.6c-2.4,3.2-3.9,7.6-5.7,11.2c-0.6,1.2-5.4,8-2.2,8c-1.9,3.8-4.4,7.6-4,12c0.4,4.1,3.4,6.3,7.4,6.3
		c7,0,12.4-9.3,15.4-14.6c-1.1,3.4-1.8,7.4-0.4,10.8c1.6,4,6.1,4.6,9.6,2.9C379.6,426,383.4,416.6,386.6,409.7
		C387.1,408.6,385.7,411.7,386.6,409.7z"/>
	<path fill="#F8F7F3" d="M434.2,407.5c-1.3-0.6-7.4,12-8.4,13.5c-1.4,2.1-9.8,11.9-11.1,4.7c-1-6,3.5-13,6.2-18
		c1.6-2.9,3.2-5.8,5-8.5c1.4-2.2,3.1-5.1,5.4-6.4c-3.2,0.6-6.4-1.7-9.1,1c-2.4,2.4-3.9,5.8-5.4,8.8c-1.2,2.3-2.7,8.1-6.1,7.5
		c-3.4-0.4-6.8-3.5-10.3-1.9c1.5-2.7,3-5.5,4.7-8.1c1.6-2.5,3.4-5.9,6.1-7.3c-3.5,0.6-6.7-1.8-9.5,1.5c-2.6,3-4.3,6.9-6.1,10.5
		c-4.6,8.8-8.5,17.9-13,26.7c3.2-2,6.8,0.9,8.7-3.4c1.3-3.1,2.7-6.1,4-9.1c1-2.3,2.5-7.7,5.3-8.1c3.9-0.5,7.2,3.9,11.2,2
		c-1.9,4-3.8,7.3-2.7,11.9c1.1,4.8,5.1,7.8,10,5.6c4.2-1.9,7.4-6.5,9.8-10.3C429.6,418.7,436,408.3,434.2,407.5
		C433.7,407.2,434.8,407.7,434.2,407.5z"/>
	<path fill="#F8F7F3" d="M482.5,407.5c-1.8-0.8-12.5,25.3-17.3,19.9c-2.6-2.9,1.1-10.6,2.3-13.5c2-4.7,4.5-10.6,8.2-14.3
		c-3.7,0.7-6.8-1.9-9.5,1.8c-2.6,3.5-4.4,7.5-6.6,11.3c-1.6,2.8-12.3,20.4-16.7,13.4c-1.8-2.8,0.3-7.6,1.5-10.3
		c1.5-3.6,3.5-6.9,5.8-10.1c3.3-4.4,13.5-17.7,20.2-11.8c1.1,0.9,1.5,4,3.2,2.5c1.8-1.4-0.6-3.5-1.8-4.3c-3.3-2.5-7.7-2.7-11.6-1.8
		c-9,2.2-15.6,9.4-19.5,17.5c-2.6,5.4-7.2,19.6,1.2,22.5c7.5,2.6,14.6-9.3,17.7-14.4c-1,3.5-1.8,7.7-0.3,11.2
		c1.9,4.2,6.9,4.2,10.2,1.7c3.7-2.9,6.4-7.2,8.8-11.2C478.8,416.7,484.1,408.2,482.5,407.5C481.9,407.3,483,407.8,482.5,407.5z"/>
	<path fill="#F8F7F3" d="M531.7,407.5c-1.1-0.5-7.9,12.9-9.1,14.6c-1.6,2.2-3.9,5-6.8,5.5c-2.4,0.4-3.4-2-3.4-4
		c0.2-5.9,3.6-11.8,6.1-17c2.6-5.6,5-11.3,9.8-15.2c-1.9,0-3.9,0-5.9,0c-4.7,0-5.6,4.2-7.4,7.8c-4.2,8.6-8.5,18.1-15.1,25.2
		c-1.8,1.9-7.1,6.1-8.2,1.2c-0.9-4.2,1.6-8.5,3.3-12.2c2-4.2,3.9-8.4,6.1-12.5c1.8-3.7,3.9-7.3,7.3-9.6c-2.9,0-8.9-1.1-10.9,1.6
		c-2.4,3.2-3.9,7.6-5.7,11.2c-0.6,1.2-5.4,8-2.2,8c-1.9,3.8-4.4,7.6-4,12c0.4,4.1,3.4,6.3,7.4,6.3c7,0,12.4-9.3,15.4-14.6
		c-1.6,4.9-2.3,14.6,5.2,14.6c-3.8,2.9-7.2,6.4-10.1,10.3c-2.1,2.9-5.9,8.4-3.1,11.9c2.8,3.5,8.7,1.4,11.7-0.5
		c1-0.6,4.2-3.1,3.4-4.6c-0.3-0.6-4.7,3-5.4,3.3c-5.7,2.1-5.1-4.7-3.5-7.9c2.4-4.7,6.2-8.8,10.1-12.3c3.7-3.3,6.9-6.1,9.6-10.3
		C527.1,418.8,533.5,408.3,531.7,407.5C531.1,407.2,532.3,407.7,531.7,407.5z"/>
	<path fill="#F8F7F3" d="M550.8,387.6c5.6,0,8-9.4,1.5-9.4C546.7,378.2,544.4,387.6,550.8,387.6z"/>
	<path fill="#F8F7F3" d="M559.9,407.5c-1-0.6-7.5,12.2-8.4,13.7c-1.9,2.8-6.7,9.5-10.8,6.2c-3.6-2.9,1.8-12,3.3-15.5
		c2.1-5,4.3-10,6.4-14.9c1.2-2.7,1.6-4.7-2.1-4.7c-2.1-0.1-4.2,0.1-6.3,0.1c2.8,3.7-0.1,8-1.6,11.8c-1.5,3.9-3,7.7-4.6,11.6
		c-1.3,3.4-2.2,7.9-0.4,11.3c2.1,3.9,7.3,4.4,10.9,2.3c4-2.3,6.9-6.8,9.1-10.7C556.2,417.5,561.6,408.5,559.9,407.5
		C559.4,407.2,560.5,407.8,559.9,407.5z"/>
	<path fill="#F8F7F3" d="M610.4,407.5c-1.3-0.6-7.4,12-8.4,13.5c-1.4,2.1-9.8,11.9-11.1,4.7c-1-6,3.5-13,6.2-18
		c1.6-2.9,3.2-5.8,5-8.5c1.4-2.2,3.1-5.1,5.4-6.4c-3.6,0.7-6.7-2-9.2,1.8c-2.3-8.1-13.5-2.3-16.5,1.8c-3.8,5-7.2,16,1.8,17.6
		c-2.9,5-9.4,16.8-16.9,13.9c-1.1-0.4-2.1-1.4-2.6-2.5c-1.1-2,0-3.3,0.4-5.3c1-4.4-4.7-3.8-5.5-0.1c-1.7,7.7,7,13,13.7,10.7
		c3.4-1.2,6.2-4.2,8.4-7c1.3-1.7,2.4-3.5,3.4-5.4c1-1.7,1.5-4,3.5-4.2c-2,4.2-3.6,7.9-2.1,12.6c1.4,4.5,6.5,5.5,10.3,3.3
		c4.1-2.4,7.1-6.9,9.5-10.9C606.4,417.8,612.2,408.3,610.4,407.5C609.9,407.2,611,407.7,610.4,407.5z M581.8,409.9
		c-1.8-4.2,1.6-9.1,3.9-12.4c1.2-1.8,2.5-3.5,4.7-4.2c2.2-0.6,5.1-0.2,5.4,2.5c0.5,4.4-3.1,9.2-5,12.8c-1.2,2.2-1.1,3.8-3.9,3.8
		C584.9,412.4,582.6,411.8,581.8,409.9C581.4,409,582.1,410.8,581.8,409.9z"/>
</g>
</svg>
