<?xml version="1.0" encoding="utf-8"?>
<!-- Generator: Adobe Illustrator 18.0.0, SVG Export Plug-In . SVG Version: 6.00 Build 0)  -->
<!DOCTYPE svg PUBLIC "-//W3C//DTD SVG 1.1//EN" "http://www.w3.org/Graphics/SVG/1.1/DTD/svg11.dtd" [
	<!ENTITY ns_extend "http://ns.adobe.com/Extensibility/1.0/">
	<!ENTITY ns_ai "http://ns.adobe.com/AdobeIllustrator/10.0/">
	<!ENTITY ns_graphs "http://ns.adobe.com/Graphs/1.0/">
	<!ENTITY ns_vars "http://ns.adobe.com/Variables/1.0/">
	<!ENTITY ns_imrep "http://ns.adobe.com/ImageReplacement/1.0/">
	<!ENTITY ns_sfw "http://ns.adobe.com/SaveForWeb/1.0/">
	<!ENTITY ns_custom "http://ns.adobe.com/GenericCustomNamespace/1.0/">
	<!ENTITY ns_adobe_xpath "http://ns.adobe.com/XPath/1.0/">
]>
<svg version="1.1" id="Layer_1" xmlns:x="&ns_extend;" xmlns:i="&ns_ai;" xmlns:graph="&ns_graphs;"
	 xmlns="http://www.w3.org/2000/svg" xmlns:xlink="http://www.w3.org/1999/xlink" x="0px" y="0px" viewBox="0 302 612 188"
	 enable-background="new 0 302 612 188" xml:space="preserve">
<metadata>
	<sfw  xmlns="&ns_sfw;">
		<slices></slices>
		<sliceSourceBounds  height="175.4" width="607.9" x="1.2" y="308.5" bottomLeftOrigin="true"></sliceSourceBounds>
	</sfw>
</metadata>
<g>
	<path fill="#F8F7F3" d="M149.9,353.6c1.5-4.3,3.2-8.6,5-12.7c0.9-2,1.8-3.9,2.8-5.8c0.4-0.9,0.9-1.8,1.4-2.8c1-1.8,1.2-1.8,3.2-2.1
		c5.3-0.7,16.9-3.7,15.7-11.2c-0.5-3.7-4.6-4.8-7.7-4.2c-4.3,0.9-7.6,5.1-10.1,8.4c-0.9,1.3-1.6,2.6-2.6,3.9
		c-2.1,0.2-4.2,0.4-6.2,0.5c-5,0.4-10.1,0.7-15.1,1c-17,1.3-36.5,3.2-50.7,13.7c-6.9,5.1-12.7,11.8-15.2,20.1
		c-2.4,8.3-0.9,18.1,4.8,24.8c5.4,6.3,13.8,8.9,21.8,6.9c8.7-2.2,15-8.9,17.5-17.4c1.2-4,1.6-8.5,0.3-12.5c-0.3-1-1.3-3.5-2.8-3
		c-0.6,0.2,0.1,5.7,0.1,6.5c-0.2,8.3-3.7,18.7-11.9,22.3c-8,3.5-16.8,1.3-20.4-7.2c-3.4-8.2-1.1-17.9,3.2-25.4
		c9.3-15.9,26.9-21.4,44.1-23.9c9.4-1.3,18.9-1.8,28.4-3c-8.2,15.6-15,32-22.1,48.1c-7.3,16.5-15.7,32.8-28,46.1
		c-12.3,13.3-27.7,23-45.5,27.2c-16.4,3.9-38.2,0-48.6-14.4c-10.4-14.2-6.1-35.9,8.7-45.4c3.5-2.2,0.7-3.3-2.2-2.1
		c-4.1,1.7-7.6,4.9-10.4,8.4c-5.6,7-7.1,16.8-6,25.5c2.4,18.2,17.2,30,34.1,34.7c17.7,5,38.1,2.5,54.3-6.1
		c16.6-8.8,28.9-24.1,37.2-40.7C136.6,393.5,143,373.3,149.9,353.6C153,345.1,146.9,362.2,149.9,353.6z M165.7,323.5
		c1.3-1.6,2.9-3.3,4.8-4.2c1.7-0.8,3.7,0,2.9,2.1c-1.5,3.8-6.9,4.8-10.4,5.3C163.9,325.7,164.8,324.6,165.7,323.5
		C166.7,322.2,164.6,324.7,165.7,323.5z"/>
	<path fill="#F8F7F3" d="M215.5,439c-1.5-0.5-2.7,3-3.3,3.9c-1.1,1.7-2.4,3.3-3.8,4.7c-3.2,3.1-7.1,5.2-11.3,6.7
		c-7.8,2.8-17.4,4.3-25.1,0.4c-7.2-3.6-12.1-11.1-15.5-18.1c-4.1-8.3-7-17.3-9.1-26.3c-0.9-3.8-1.7-7.6-1.9-11.5
		c-0.1-1.6,0-1.8,1.4-2.2c2.2-0.6,4.4-1.4,6.6-2.2c8.7-3.5,17-8.2,24.8-13.4c16.2-10.6,31.2-23.2,44.5-37.3
		c6.6-7,12.8-14.4,18.3-22.3c2.1-3,6.3-7.5,6.5-11.3c0.1-1.9-1.4-2.4-2.9-1.3c-1.8,1.4-3,3.9-4.4,5.8
		c-10.9,15.7-24.6,29.4-39.2,41.7c-14.5,12.2-30.6,23.4-47.6,31.8c-3.5,1.7-7.1,3.3-10.9,4.5c-2.7,0.9-6,0.1-6.5,3.5
		c-1.2,8.5,1.3,18.1,3.6,26.3c4.8,16.8,14.8,35,32.8,40.1c9.1,2.6,18.4,0.4,26.5-4.1c4.1-2.3,7.9-5.2,11-8.7
		C211,448.5,218.1,439.9,215.5,439C215.2,438.9,215.8,439.1,215.5,439z"/>
	<path fill="#F8F7F3" d="M247,405.4c-2.3-0.9-5,7.3-5.7,8.8c-2.1,4.2-4.5,8.3-7.5,11.9c-2.5,2.9-5.5,5.9-9.6,5.9
		c-1.6,0-3.3-0.3-4.7-1.1c-0.6-0.4-1.2-0.9-1.6-1.4c-1.2-1.4-0.4-1.6,0.7-2.7c6.2-6.3,11.2-14.3,13.3-22.9
		c1.7-7.1,1.9-19.2-7.6-20.7c-8.8-1.4-17,5.5-22.3,11.8c-6,7.1-10.7,16.2-11.4,25.6c-0.7,8.8,4,16.6,13.9,14.8
		c2.2-0.4,4.2-1.3,6.1-2.4c0.9-0.5,1.9-1.1,2.8-1.7c1.4-0.9,1.1-0.3,2.2,0.6c3.3,2.6,8,3.3,11.9,2c5.9-1.8,10.2-7.8,13.3-12.8
		C241.7,419.6,249.5,406.4,247,405.4C246.2,405.1,247.8,405.7,247,405.4z M211.4,416.5c-1.1,1.9-1.5,4.1-1.1,6.2
		c0.2,1,0.4,1.9,0.8,2.9c0.6,1.5,2.1,2.4,0.6,3.5c-3.1,2.3-10.3,5.9-12.2,0.3c-1.5-4.4,0-9.7,1.4-13.9c1.7-5.1,4-10.1,6.9-14.5
		c2.6-4.1,5.9-8.3,10-11.1c4-2.7,9.8-3.6,11.1,2.3c2,9.4-4.1,21-9.2,28.5C221.2,415.8,214.1,411.9,211.4,416.5
		C210.6,417.9,212.1,415.2,211.4,416.5z"/>
	<path fill="#F8F7F3" d="M347.5,405.2c-2-0.9-5,7.4-5.7,8.8c-2,3.8-4.1,7.6-6.8,11c-2.1,2.7-5,6.1-8.7,6.7c-3.8,0.6-4.5-4-4.2-6.7
		c1-8.2,5.5-16.2,9.1-23.5c3.3-6.6,6-13.1,11.8-17.9c-6.7,0-16-1.7-20.7,4c-3.7,4.5-5.8,10.8-8.1,16.1c-2.8,6.3-5.4,12.7-9,18.6
		c-2.1,3.4-7.8,12.3-12.8,8.9c-4.6-3.1-1.1-11.4,0.5-15.2c2.5-6.2,5.6-12.2,8.5-18.3c2.6-5.4,5.2-10.3,9.9-14.1
		c-4.1,0-8.4-0.3-12.5,0.1c-9.3,0.9-11.9,10.7-15.1,18.2c-3.7,8.6-7.4,18-13.9,24.9c-3,3.1-5.9,4.5-10.2,4.8c-4.8,0-6.6-4.7-5.2-8.6
		c1.1-2.7,0.4-7.1-3.6-5.6c-3.6,1.4-4,5.9-3,9c2.7,7.7,11.5,11.4,18.9,7.5c7.3-3.9,11.7-13.6,15-20.7c3.6-7.8,6-16.5,11.1-23.5
		c1.2-1.7,2.5-3,4.6-3.4c-2.6,4.3-4.3,9.4-6.4,14c-2.3,5.2-4.6,10.4-6.3,15.8c-1.5,4.4-2.3,9.6-0.5,14.1c1.8,4.6,6.9,6,11.4,4.8
		c10.1-2.8,15.3-15.9,19.1-24.5c2-4.7,3.8-9.5,5.9-14c1.7-3.6,4.3-9.3,8.6-10.1c-2,3.3-3.3,7.2-4.9,10.7c-2,4.3-3.9,8.6-5.7,13.1
		c-2.5,6.4-6.7,17.1-0.9,23c6.4,6.6,15.4-1.6,19.3-6.8C338.7,424.5,350.3,406.5,347.5,405.2C346.7,404.8,348.2,405.6,347.5,405.2z"
		/>
	<path fill="#F8F7F3" d="M411.8,408c0.3-0.7,1.2-3.1-0.5-2.8c-1.4,0.2-2.1,2.6-2.6,3.6c-1.8,3.5-3.6,7-5.7,10.3
		c-1.7,2.7-9.2,15.9-13.8,12.6c-1.7-1.3-1.1-4.9-0.8-6.6c0.6-3.9,1.9-7.5,3.4-11c2.7-6.3,6-14.3,11-19.2c-3.7,0.7-7.5-2-10.9,0.5
		c-3.1,2.4-5,7.1-6.8,10.5c-4.4,7.9-9,17.2-16.2,22.9c-2.2,1.7-6.5,4.4-9,1.7c-2.7-3-0.7-8.6,0.4-11.8c3-8,7.8-15.3,13.5-21.7
		c4.4-4.9,14-15.2,21.4-10.1c1.4,1,2.2,2.5,2.7,4.2c1.7,0.3,3.3-0.9,2.7-2.7c-1.1-3.6-6.6-5.7-9.9-6.1
		c-18.5-2.7-33.1,16.3-37.5,32.1c-1.9,6.7-2.8,22.7,8.3,21.6c8.9-0.9,15.8-12.4,20-19.3c-1.3,4.5-2.3,9.8-0.5,14.4
		c1.8,4.6,7.1,6.2,11.4,4.1c4.8-2.4,8.3-7.5,11.1-11.8C406.5,418.3,409.2,413.2,411.8,408C412.4,406.5,410.6,410.3,411.8,408z"/>
	<path fill="#F8F7F3" d="M464.9,425.5c3-4.2,5.4-8.7,7.7-13.3c0.9-1.7,2.4-3.9,2.6-5.8c0.1-0.7-0.3-1.4-1.1-1.3
		c-1,0.1-1.4,1.4-1.8,2.2c-2.3,4.6-4.6,9.2-7.4,13.6c-2.4,3.9-5.7,9.2-10.2,11c-5,2-6.4-2.6-5.8-6.7c0.8-5,2.9-9.6,5.1-14
		c2.5-4.9,5.2-9.8,8.1-14.6c2.2-3.6,4.9-8.9,8.8-11c-4.2,0.8-8.4-2.2-12.1,1.3c-3.1,3.1-5,7.6-7,11.4c-1.1,2.1-2.2,4.2-3.3,6.3
		c-0.9,1.7-1.7,3.9-4,3.9c-4.9,0-9.4-4.9-14.4-2.6c2.1-3.9,4.2-7.7,6.6-11.4c2-3.1,4.3-7.2,7.6-9c-2.5,0.4-4.8-0.7-7.3-0.6
		c-2.3,0.1-4.1,1.2-5.6,2.9c-3.6,4.5-6.1,10.1-8.7,15.3c-5.7,11-10.7,22.4-16.2,33.5c4-2.5,9,1.1,11.3-4.3c1.8-4.1,3.7-8.2,5.4-12.3
		c1.3-3.1,3.2-10.2,7-10.7c5.2-0.6,9.5,5.1,14.8,2.6c-1.6,3.5-3.9,7-4.1,11c-0.2,3.9,1.1,8.6,4.1,11.3
		C452.2,440.7,461,431.1,464.9,425.5C467,422.6,462.8,428.5,464.9,425.5z"/>
	<path fill="#F8F7F3" d="M544.6,405.2c-2.4-1-6.6,11-7.6,12.7c-3.6,6-8.3,10.6-13.9,14.6c3.2-11.9,4-24.5,2-36.6
		c-1.3,1.1-3.3,0.7-4.8,1.1c-1.7,0.4-3.1,1.6-3.9,3.2c-1.9,3.9-3.1,8-5.3,11.8c-3.8,6.6-9.9,16.8-17.8,18.9
		c-10.5,2.8-6.1-12.1-4.1-16.5c3.8-8.3,9.6-16.3,16.5-22.3c5.6-4.9,15.8-11,19.6-0.9c1.3,3.8,5.2,0.6,3.4-2.4c-2-3.4-7-5.4-10.7-6.1
		c-19-3.3-34,17.1-38.1,33.4c-1.3,4.8-1.7,11,1.6,15.3c3.2,4.1,8.7,5.5,13.3,3.2c9.8-4.8,16.2-16.1,21-25.4c0.9,3.5,0.3,7.6,0,11.1
		c-0.4,4.9-1.2,9.8-2.5,14.5c-0.3,1.1-0.7,2.3-1.1,3.4c-1,0.4-2,0.8-3,1.2c-2,0.8-4.1,1.5-6.1,2.2c-4.7,1.5-9.3,3.1-13.9,4.8
		c-8.3,3.2-17,6.9-23.6,12.8c-5.2,4.6-9.1,12.4-5,19.1c3.5,5.7,12.2,5.7,17.9,4.7c8.9-1.7,16.7-7.5,23-13.8
		c6.6-6.6,11.9-14.4,16.1-22.7c1-2,1.9-3.9,2.7-6c0.4-0.9,0.8-1.9,1.1-2.9c1-0.5,2-1,3-1.6c3.9-2.3,7.2-5.6,9.9-9.2
		C535.9,424.7,547.1,406.3,544.6,405.2z M502,457.7c-5.8,7.7-12.2,14.9-21,19.2c-4.1,2-8.8,3.9-13.5,3.2c-4.7-0.7-6.1-4.8-4.8-9.1
		c2.8-9.1,11.4-14.2,19.5-18c9.2-4.3,18.9-7.1,28.4-10.6C508.4,447.9,505.4,452.9,502,457.7C499.9,460.5,505.7,452.5,502,457.7z"/>
	<path fill="#F8F7F3" d="M608.7,405.2c-1.8-0.8-3.9,5-4.5,6.2c-1.9,3.6-3.9,7.1-6.1,10.5c-1.3,1.9-9.5,14.1-12.5,9.2
		c-1.2-1.9-0.5-5-0.1-7c0.7-3.9,2.1-7.5,3.7-11.1c2.6-6,5.8-13.5,10.5-18.2c-3.7,0.7-7.5-2-10.9,0.5c-3.1,2.4-5,7.1-6.8,10.5
		c-4.4,7.9-9,17.2-16.2,22.9c-2.2,1.7-6.5,4.4-9,1.7c-2.7-3-0.7-8.6,0.4-11.8c3-8,7.8-15.3,13.5-21.7c4.4-4.9,14-15.2,21.4-10.1
		c1.4,1,2.2,2.5,2.7,4.2c1.7,0.3,3.3-0.9,2.7-2.7c-1.1-3.6-6.6-5.7-9.9-6.1c-18.5-2.7-33.1,16.3-37.5,32.1
		c-1.9,6.7-2.8,22.7,8.3,21.6c8.9-0.9,15.8-12.4,20-19.3c-1.3,4.7-2.5,10.5-0.2,15.1c2.5,5,8.6,5.3,12.8,2.3
		c4.8-3.4,8.3-8.8,11.3-13.8C603.1,418.7,610.8,406.2,608.7,405.2C608,405,609.4,405.6,608.7,405.2z"/>
</g>
</svg>
