<?xml version="1.0" encoding="utf-8"?>
<!-- Generator: Adobe Illustrator 18.0.0, SVG Export Plug-In . SVG Version: 6.00 Build 0)  -->
<!DOCTYPE svg PUBLIC "-//W3C//DTD SVG 1.1//EN" "http://www.w3.org/Graphics/SVG/1.1/DTD/svg11.dtd">
<svg version="1.1" id="Layer_1" xmlns="http://www.w3.org/2000/svg" xmlns:xlink="http://www.w3.org/1999/xlink" x="0px" y="0px"
	 viewBox="0 0 1920 1080" enable-background="new 0 0 1920 1080" xml:space="preserve">
<g>
	<path fill="#F8F7F3" d="M513.8,656.4c-3.6-1.2-7.2,8.4-8.5,10.3c-3.4,5.2-7.7,9.6-12.5,13.5c-10.7,8.5-23.7,13.7-37,16.5
		c-27.4,5.7-50.3-0.6-67.8-22.9c-17.6-22.4-27.1-51.1-34.1-78.3c-3-11.4-6-23.5-6.4-35.3c-0.2-5.3,1.9-4.4,6.5-5.8
		c6.9-2.1,13.7-4.7,20.3-7.7C428.3,522.7,477.4,483.6,519,442c20.9-21,40.4-43.6,57.2-68c1.6-2.3,20.8-29.3,10.5-28.9
		c-5.6,0.2-9.2,8.4-11.8,12.3c-4.5,6.6-9.2,13.1-14.1,19.5c-34,44.1-77.1,82.9-122.7,114.7c-22.1,15.3-44.9,30.1-68.9,42.3
		c-10.7,5.4-21.9,10.6-33.6,13.5c-3,0.7-8-0.2-9.3,3.2c-1.8,4.8-1.4,10.8-1.1,15.9c2.2,48.6,22.1,109.4,65.7,136
		c24.2,14.7,51.8,15.3,77.2,3.2c11.6-5.5,22.3-13.1,31.2-22.4C501.2,681.1,520.3,658.5,513.8,656.4
		C513.1,656.2,514.5,656.6,513.8,656.4z"/>
	<path fill="#F8F7F3" d="M358,453.5c4.5-12.9,9.7-25.7,15.6-38c2.7-5.7,5.7-11.4,8.8-16.9c7.1-0.7,14.3-1.9,21.2-4.2
		c8.4-2.9,20-9.5,21.4-19.2c2.2-14.3-15.9-16.7-25.1-11c-9.8,6-16.1,16.1-22.3,25.3c-2.3,3.4-14.6,2.4-18.7,2.7
		c-8.4,0.6-16.7,1.1-25.1,1.7c-30.3,2.1-60.9,5-89.9,14.4c-46.4,15-99.2,64.6-68.8,117.2c14,24.2,43.1,32.3,68.3,21.1
		c23.4-10.4,39.3-41.7,32-66.6c-1.5-5.2-8.3-12.7-7.1-2.7c1,8.6,0.5,17.5-1.5,26c-3.6,15.5-12.8,32.4-28.6,38.1
		c-37.9,13.7-56.1-24.1-47.7-56.6c20.7-79.2,116.9-77.4,181.2-85.2c-50.1,94.8-76.4,217-179.1,270.9
		c-48.2,25.3-118.9,33.1-159.1-11.5c-17.6-19.5-22.3-48.6-14.2-73.4c4-12.1,11.9-23.3,21.1-32.1c3.4-3.3,7.5-7,11.9-8.9
		c7.1-3.6-3.3-5.2-6.7-3.9c-50.6,19.1-50,91.9-19.5,127.5c36.6,42.6,102.4,48.9,153.6,35.3C291,673.4,324.5,549.2,358,453.5
		C365.2,433.1,350.9,473.9,358,453.5z M395.5,381.9c3.2-3.8,7.5-8.9,12.5-10.4c3.9-1.2,7.2,1.5,5.6,5.5c-3.6,9-16.3,11.5-24.7,12.7
		C391.1,387.1,393.3,384.5,395.5,381.9C398,378.9,393,384.9,395.5,381.9z"/>
	<path fill="#F8F7F3" d="M588.6,576.5c-5.7-2.1-13.4,20.5-15.5,24.5c-6.1,11.5-13,22.8-22.6,31.7c-7.5,6.9-19.7,10.3-28.6,3.7
		c-7.2-5.4-1.8-7.8,2.9-13c4.7-5.2,8.9-10.8,12.7-16.6c12.1-18.6,23.9-46.2,14.8-68.3c-11.9-28.9-47.2-9.9-62.4,4.7
		c-18.2,17.4-32.4,41.9-35.2,67.2c-1.2,11.1-0.1,24.1,8.5,32.2c8.3,7.8,22.2,7.1,32,3c5.5-2.3,10.6-5.3,15.4-8.9
		c3.7,4,8.7,6.9,14,8.1c12.1,2.8,22.9-1,31.8-9.3c9.8-9,17.3-20.3,23.4-32.1C581.3,600.4,593.8,578.5,588.6,576.5
		C586.7,575.8,590.6,577.3,588.6,576.5z M504,603c-2.3,4-3.4,8.9-2.9,13.5c0.3,3.1,1.2,6.1,2.4,9c1.7,4.1,4.8,4.8,0.6,7.9
		c-7.4,5.5-24.1,13.4-28.6,0.3c-7-20.3,8.5-49.7,19-66.3c6.5-10.3,14.6-21,25-27.8c10.1-6.6,23.5-7.7,26.1,6.6
		c4.1,22.4-10,49-22.1,66.9C527.3,601.3,510.3,592,504,603C502.2,606.1,505.8,599.9,504,603z"/>
	<path fill="#F8F7F3" d="M717.6,618.8c6.7-10.1,11.8-20.8,16.6-31.9c1-2.4,5.3-8.8,1.3-10.4c-4.5-1.7-6.6,6.4-8,9.2
		c-8.5,17.3-22.8,54.2-46.5,54.2c-4.3,0-8.8-0.9-12.3-3.5c-7.2-5.4-1.8-7.8,2.9-13c8.7-9.6,16.2-20.6,21.6-32.4
		c8.1-17.6,18.1-57-7.5-66.1c-24.1-8.6-48.9,15.4-61.8,32.7c-14.5,19.4-28.7,48.4-21.1,73.2c3,9.7,10.4,16.3,20.5,17.4
		c6.4,0.7,12.7-0.3,18.6-2.7c3.2-1.3,6.3-3,9.3-4.8c3.5-2.1,4.6-5.2,8-2.3C680.7,657.4,705.2,637.2,717.6,618.8
		C722.3,611.6,712.8,626,717.6,618.8z M650.8,603c-2.3,4-3.4,8.9-2.9,13.5c0.3,3.1,1.2,6.1,2.4,9c1.7,4.1,4.8,4.8,0.6,7.9
		c-7.4,5.5-24.1,13.4-28.6,0.3c-7-20.3,8.5-49.7,19-66.3c6.5-10.3,14.6-21,25-27.8c10.1-6.6,23.5-7.7,26.1,6.6
		c4.1,22.4-10,49-22.1,66.9C674.1,601.3,657.2,592,650.8,603C649,606.1,652.6,599.9,650.8,603z"/>
	<path fill="#F8F7F3" d="M868.3,624.3c7-9.9,12.7-20.4,18.1-31.2c2.1-4.1,4.8-8.4,6.1-12.9c1.5-5.5-4-5-5.9-0.8
		c-9.9,19.8-20.8,45.6-39.7,58.6c-8.6,5.9-17,2.9-16.1-8c0.9-11,5.1-21.4,9.5-31.4c10.2-23.1,22.1-45.4,34.4-67.5
		c-7.9-2.4-18,3-24.8,6.3c-10,4.8-19.5,10.7-28.5,17.2c-16.4,11.8-30.4,26.6-42.9,42.4c6.3-16.9,13.3-35.7,14.6-53.8
		c0.4-5.2,1.8-18.6-6.3-18c-8.1,0.6-16,2-24,3.4c11.7,2.6,2.1,33.4-0.2,39.9c-2.3,6.4-5.2,12.7-8,18.8c-4.2,9.1,4.6,3.1,7.2-1.1
		c-6.4,29.3-22.2,58-35.6,84.5c-7.1,14.1-14.4,28.1-21.9,42c-5.4,10-10.7,22.9-18.8,31c10.3-1.9,21.3,6.4,30.2-2.7
		c4.1-4.2,7.1-9.9,9.3-15.4c3.9-9.6,7.8-19.2,11.6-28.8c8.9-22.1,16.9-44.8,27.3-66.3c10.4-21.6,24.6-39.9,42.1-56.2
		c7-6.5,14.9-14.7,24.3-17.5c14.4-4.4-0.3,19-2.3,22.3c-9.7,16.3-24.9,40.9-14.8,60.3c5.2,9.9,18,12.4,28,9.1
		C852.5,644.8,861.6,633.8,868.3,624.3C873.3,617.3,863.3,631.4,868.3,624.3z"/>
	<path fill="#F8F7F3" d="M1057.9,576.2c-5.8-2.3-15.7,26-18.1,30c-8.5,14.1-19.6,25.2-32.9,34.8c7.5-28.3,9.5-58.1,4.7-87
		c-4.2,3.5-10.8,1.2-15.6,4.3c-4.5,2.9-5.7,7.5-7.3,12.3c-4.3,12.8-11.7,24.9-19.4,35.9c-7.4,10.6-16.2,21.7-27.6,28.3
		c-11.2,6.5-23,0.9-22.2-12.6c1.4-25.9,21.9-53.7,39.6-71.3c8.8-8.7,19.6-18.5,32-21.2c5.1-1.1,10.9-0.5,14.9,3.2
		c3.4,3.1,5.3,13.4,9.9,14c5.1,0.7,6.2-5.5,4.7-9c-2.1-5-7.8-8.3-12.4-10.8c-13-7-28.5-7-42.3-2.2c-25.6,9-43.2,33.2-54.5,56.7
		c-10.1,21.1-17.9,54.1,9.3,65.5c26.8,8,49.4-28.7,60.6-47.5c2.8-4.8,5.6-9.6,8.2-14.5c2,8.1,0.7,17.8,0,26
		c-1.1,12.4-3,24.9-6.6,36.9c-2.1,7-4.4,7.4-11.1,9.8c-6.3,2.3-12.7,4.3-19.1,6.4c-12.7,4.2-25.4,8.7-37.7,13.9
		c-20.1,8.4-48.3,20.7-57.7,42.2c-6.8,15.6-1.6,34.5,15.6,39.5c47.2,13.6,91.7-35,112.8-71c6.3-10.6,11.9-21.6,16.3-33.2
		c1.8-4.6,7.5-5.9,11.6-8.7c5-3.3,9.5-7.4,13.6-11.9C1032,629.7,1065.1,579.1,1057.9,576.2C1056.1,575.5,1059.7,576.9,1057.9,576.2z
		 M956.7,700.8C943.1,719,928,736,907.5,746.2c-13.3,6.7-51.8,17.3-44.7-11.6c5.5-22.3,26.5-34.9,45.7-44.1
		c22.1-10.6,45.8-17.3,68.7-25.9C971.9,677.5,964.8,689.5,956.7,700.8C951.7,707.5,965.6,688.4,956.7,700.8z"/>
	<path fill="#F8F7F3" d="M1212.8,583c0.8-1.7,2.4-5.4-0.2-6.6c-3.9-1.8-6.4,6.7-7.6,9c-4.8,9.8-9.8,19.6-15.7,28.8
		c-4.5,7.1-32.5,41.7-37,16.9c-3.2-17.7,10.1-39.2,17.2-54.5c8.6-18.5,16.3-38,32.4-51.2c-6.1,0-12.3,0-18.4,0
		c-14.8,0-17.6,13.3-23.1,24.6c-13.3,27.1-26.8,56.7-47.5,79.1c-5.7,6.1-22.4,19.1-25.6,3.8c-2.7-13.2,4.9-26.8,10.2-38.2
		c6.2-13.1,12.3-26.4,19.2-39.1c5.5-11.5,12.1-22.9,22.9-30.1c-9.1,0-28-3.3-34.2,5c-7.5,10-12.3,23.9-18,35
		c-2,3.8-16.8,25.2-6.8,25.2c-6,12-13.9,23.7-12.7,37.8c1.1,12.8,10.6,19.9,23.1,19.9c22.1,0,39-29.2,48.3-45.8
		c-3.5,10.6-5.5,23.1-1.3,33.8c4.9,12.4,19.1,14.5,30.1,9.1C1190.9,634.1,1202.9,604.5,1212.8,583
		C1214.4,579.4,1209.9,589.2,1212.8,583z"/>
	<path fill="#F8F7F3" d="M1362.3,576c-4.1-1.9-23.1,37.6-26.4,42.4c-4.4,6.5-30.9,37.3-34.8,14.6c-3.2-18.9,11-40.7,19.6-56.6
		c4.9-9.1,10-18.1,15.7-26.8c4.5-6.8,9.7-16,17-20c-9.9,1.8-20.1-5.3-28.6,3.2c-7.5,7.5-12.1,18.3-17,27.6
		c-3.9,7.2-8.5,25.4-19.1,23.6c-10.6-1.2-21.2-11-32.3-6c4.6-8.6,9.5-17.2,14.7-25.5c4.9-7.7,10.7-18.5,19-23
		c-10.9,2-21.1-5.5-29.9,4.6c-8.2,9.4-13.5,21.8-19.2,32.8c-14.3,27.6-26.8,56.1-40.8,83.9c10-6.3,21.3,2.8,27.2-10.7
		c4.1-9.6,8.6-19,12.6-28.7c3-7.3,7.7-24.3,16.7-25.4c12.3-1.5,22.6,12.2,35.1,6.2c-5.9,12.7-11.8,23-8.4,37.4
		c3.6,15.1,16,24.6,31.4,17.6c13.3-6,23.1-20.4,30.6-32.4C1347.7,611.3,1368,578.7,1362.3,576C1360.5,575.2,1364.1,576.8,1362.3,576
		z"/>
	<path fill="#F8F7F3" d="M1513.6,576.2c-5.8-2.5-39.1,79.4-54.4,62.4c-8.2-9.1,3.3-33.4,7.1-42.2c6.4-14.8,14.2-33.3,25.8-44.9
		c-11.6,2.1-21.3-6-29.9,5.8c-8,10.9-13.7,23.6-20.6,35.3c-5.1,8.7-38.7,64-52.5,42c-5.6-8.9,1-23.8,4.6-32.3
		c4.8-11.3,11.1-21.8,18.3-31.7c10.2-13.9,42.5-55.4,63.4-36.9c3.3,2.9,4.6,12.4,10.1,7.9c5.5-4.5-2-11-5.5-13.6
		c-10.2-7.8-24.3-8.4-36.4-5.5c-28.3,7-48.9,29.5-61.3,55c-8.1,16.8-22.6,61.6,3.9,70.7c23.6,8.1,45.9-29.1,55.4-45.1
		c-3.1,11-5.7,24.2-0.8,35.2c6,13.3,21.7,13.2,32,5.2c11.7-9.1,20.2-22.5,27.5-35.2C1502.1,605,1518.6,578.3,1513.6,576.2
		C1511.9,575.5,1515.2,576.9,1513.6,576.2z"/>
	<path fill="#F8F7F3" d="M1668.1,576c-3.6-1.7-24.8,40.6-28.7,45.8c-5.1,6.9-12.2,15.6-21.2,17.2c-7.6,1.3-10.8-6.3-10.6-12.6
		c0.6-18.4,11.3-36.9,19-53.2c8.3-17.5,15.6-35.3,30.9-47.8c-6.1,0-12.3,0-18.4,0c-14.8,0-17.6,13.3-23.1,24.6
		c-13.3,27.1-26.8,56.7-47.5,79.1c-5.7,6.1-22.4,19.1-25.6,3.8c-2.7-13.2,4.9-26.8,10.2-38.2c6.2-13.1,12.3-26.4,19.2-39.1
		c5.5-11.5,12.1-22.9,22.9-30.1c-9.1,0-28-3.3-34.2,5c-7.5,10-12.3,23.9-18,35c-2,3.8-16.8,25.2-6.8,25.2c-6,12-13.9,23.7-12.7,37.8
		c1.1,12.8,10.6,19.9,23.1,19.9c22.1,0,39-29.2,48.3-45.8c-5.1,15.4-7.3,45.7,16.3,45.8c-11.8,9.2-22.7,20-31.6,32.2
		c-6.5,9-18.4,26.2-9.6,37.4c8.7,11,27.2,4.5,36.6-1.7c3-1.9,13.1-9.7,10.8-14.5c-0.9-1.9-14.8,9.5-17,10.3
		c-17.9,6.5-16.1-14.9-11.1-24.9c7.4-14.8,19.5-27.7,31.7-38.7c11.5-10.3,21.7-19,30-32.4C1653.7,611.6,1673.8,578.7,1668.1,576
		C1666.3,575.2,1669.9,576.8,1668.1,576z"/>
	<path fill="#F8F7F3" d="M1728,513.5c17.6,0,25.1-29.4,4.7-29.4C1715.1,484.2,1707.8,513.5,1728,513.5z"/>
	<path fill="#F8F7F3" d="M1756.7,576.2c-3.2-1.8-23.4,38.3-26.5,43c-5.9,8.8-21.1,29.7-33.8,19.3c-11.2-9.2,5.6-37.5,10.4-48.7
		c6.7-15.6,13.4-31.3,20.1-46.9c3.7-8.6,4.9-14.7-6.6-14.7c-6.5-0.2-13.2,0.2-19.7,0.4c8.7,11.7-0.4,25.2-5,37
		c-4.8,12.1-9.5,24.2-14.3,36.3c-4.2,10.7-7,24.8-1.2,35.5c6.5,12.3,22.9,13.9,34.1,7.3c12.6-7.3,21.7-21.4,28.7-33.7
		C1744.9,607.3,1761.9,579.1,1756.7,576.2C1755,575.2,1758.4,577.1,1756.7,576.2z"/>
	<path fill="#F8F7F3" d="M1915.1,576c-4.1-1.9-23.1,37.6-26.4,42.4c-4.4,6.5-30.9,37.3-34.8,14.6c-3.2-18.9,11-40.7,19.6-56.6
		c4.9-9.1,10-18.1,15.7-26.8c4.5-6.8,9.7-16,17-20c-11.3,2.1-20.9-6.4-29,5.7c-7.1-25.3-42.2-7.2-51.9,5.8
		c-11.8,15.7-22.7,50.2,5.6,55.1c-9.1,15.8-29.6,52.8-53.1,43.6c-3.6-1.4-6.6-4.5-8.3-7.9c-3.3-6.4,0-10.5,1.4-16.7
		c3.1-13.9-14.9-11.9-17.3-0.4c-5.2,24.1,22.1,40.8,43,33.5c10.8-3.8,19.5-13.1,26.2-22c4-5.3,7.4-11,10.8-16.8
		c3.1-5.3,4.8-12.5,11.1-13.2c-6.4,13.1-11.3,24.8-6.6,39.5c4.5,14.2,20.3,17.1,32.2,10.3c12.9-7.4,22.3-21.7,29.8-34.1
		C1902.3,608.3,1920.6,578.6,1915.1,576C1913.4,575.2,1916.9,576.8,1915.1,576z M1825.1,583.5c-5.8-13.3,5-28.5,12.2-38.9
		c3.9-5.7,7.9-11.1,14.9-13.2c6.9-2,16-0.6,16.9,7.7c1.5,13.8-9.8,28.8-15.8,40.2c-3.7,7-3.6,11.8-12.1,12
		C1835,591.5,1827.8,589.7,1825.1,583.5C1823.9,580.8,1826.3,586.3,1825.1,583.5z"/>
</g>
</svg>
