<?xml version="1.0" encoding="utf-8"?>
<!-- Generator: Adobe Illustrator 18.0.0, SVG Export Plug-In . SVG Version: 6.00 Build 0)  -->
<!DOCTYPE svg PUBLIC "-//W3C//DTD SVG 1.1//EN" "http://www.w3.org/Graphics/SVG/1.1/DTD/svg11.dtd">
<svg version="1.1" id="Layer_1" xmlns="http://www.w3.org/2000/svg" xmlns:xlink="http://www.w3.org/1999/xlink" x="0px" y="0px"
	 viewBox="0 0 1920 1080" enable-background="new 0 0 1920 1080" xml:space="preserve">
<g>
	<path fill="#F8F7F3" d="M531.9,383.7c-24.4-26.5-62.3-39.6-96.2-48.6c2.3-4.7,7.9-8.6,12-11.7c3.1-2.4,9.7-5.1,10.5-9.5
		c1.3-7.6-24.4,5.8-26.7,7.3c-5,3.1-11.2,10.5-17,9.3c-6.6-1.4-13.3-2.6-19.9-3.7c-15-2.4-30.1-4.1-45.3-5.2
		c-59.8-4.2-124.5-1.5-181.8,17.4c-49.5,16.4-102.3,50.2-117.2,103.3c-7.2,25.7-1.5,52.9,18.5,71.3c19.9,18.3,49.1,26.4,75.4,20.2
		c26.2-6.2,49.5-25.5,58.4-51.2c1.4-4,7.1-26.5-5.5-19.3c-2.8,1.6-1.9,7.3-2.8,10.3c-2.2,6.8-5.7,13.3-10,19.1
		c-15.7,20.9-42.3,34.5-68.6,29.7c-26.4-4.8-47.1-22.2-45.8-50.8c2.5-55.4,60.9-95.5,107.6-113.1c56.5-21.2,121.3-25.3,181-21.6
		c15.8,1,31.6,2.7,47.2,5.3c-22.6,25.8-46,51-65.5,79.3c-34.9,50.7-60.9,107.2-90.8,160.9c-13.9,24.9-28,49.7-47,71.2
		c-4.1,4.6-8.3,9-12.7,13.3c-6.5-3.1-12.9-6.3-19.3-9.6c-12.4-6.4-24.4-13.7-36.8-20c-23.3-11.7-49.7-19-75.8-13.9
		c-25,4.9-49.5,24.6-45.4,52.7c3.6,24.8,27.9,38.7,50.4,43.1c28.4,5.5,58.2,3.5,85.6-6c12.8-4.4,25.1-10.4,36.7-17.5
		c4.7-2.9,12.4-10.9,17.4-8.7c6.8,3,13.7,5.8,20.7,8.3c25.1,9.1,50.9,15.7,77.2,20.2c30,5.1,59.1,8.2,89.3,3.2
		c28.2-4.7,55.9-14.2,80.3-29.2c22.3-13.7,41.8-33.6,50.1-58.8c8.6-26.3,2.9-56.4-16.6-76.3c-21-21.4-49.2-34.1-77.4-43.1
		c35.1-1.2,75.3-11.3,100.7-37.1C551.9,448.8,556.7,410.6,531.9,383.7C522.3,373.2,541.5,394.1,531.9,383.7z M135.7,699.3
		c-21,7.4-49.3,11.9-70.5,3c-19.3-8.1-31.9-33.1-17.7-51.4c14.6-18.8,41.7-14,61-7c24.3,8.9,47.1,20.9,70.4,32.2
		C165.7,686,151.1,693.9,135.7,699.3C120.2,704.8,151.1,693.9,135.7,699.3z M517.2,416.6c-1.4,27.1-23.2,50.4-45,64.2
		c-11.1,7-23.5,12.8-36.5,15.1c-14.3,2.6-29.5,0.8-43.9-0.4c-11.2-1-24.2-3-35.2,0.3c-16.4,5,4.9,15.6,10.3,17.5
		c26.5,9.5,54.5,15.7,79.6,28.6c22.6,11.6,39.5,32.1,40.1,58.4c0.7,27.6-16,53.2-36.2,70.7c-45.5,39.2-103.8,40.1-159.9,29.6
		c-27.3-5.1-54.3-13.2-79.8-24.1c30.9-27.8,54.5-61.1,76.5-96.2c24.6-39.2,47.7-79.4,71.1-119.4c22.6-38.6,45.1-77.3,71.4-113.6
		C463.7,355.4,519.5,372,517.2,416.6C516.7,426.4,517.7,406.8,517.2,416.6z"/>
	<path fill="#F8F7F3" d="M773.3,610.8c1-2.2,3.5-7.5,0-9c-4.6-2-7.4,5.9-8.9,8.8c-5.8,11.5-11.7,23-18.4,34.1
		c-6.7,11.1-13.9,22-22.4,31.8c-5.1,5.8-14.8,17.3-24,13.7c-5.9-2.3-4.9-12.3-4.5-17.1c1.2-13.3,5.3-26.1,10.4-38.4
		c5.4-13.1,11.7-25.7,18.6-38c5.5-9.9,11.2-21.2,19.3-29.3c-12.2,2.2-24.8-6.6-36,1.8c-9.5,7.2-15.2,21.3-20.7,31.4
		c-13.8,25.3-28.3,53.3-49.3,73.7c-7.2,6.9-18.7,16.6-29.5,14.5c-13.4-2.6-10.8-21-8.6-30.4c5.7-24.5,20-47.9,35-67.8
		c15.1-19.9,36.8-47.2,62.8-52.7c10.2-2.2,21.5,0.3,27.2,9.7c2.5,4.1,3.1,10.6,9.4,6.4c6.7-4.4,1-11.9-2.9-15.7
		c-20.9-20.3-53.7-14.7-77.4-3c-26.1,12.9-45,35.6-59,60.6c-9.4,16.9-16.5,35.9-18.5,55.1c-1.7,16-0.3,37.3,13.9,47.8
		c32.1,23.6,70.5-38.3,83.3-59.6c-4.3,15-7.6,32.4-1.8,47.5c5.9,15.2,23.5,20.7,37.7,13.5c15.5-7.8,27-24.3,36.3-38.4
		C755.9,645.6,764.9,628.3,773.3,610.8C775.6,605.8,769.6,618.5,773.3,610.8z"/>
	<path fill="#F8F7F3" d="M982.2,599.1c-4.9-3.7-15.2,22.5-17.2,26.3c-5.7,11.1-11.6,22.2-18.6,32.4c-11.3,16.5-29.7,35.9-51.8,29.1
		c-21.1-6.6-28.3-31.4-30.1-51c-1-11-0.3-22.1,1.5-33c1-5.5,2.2-10.9,3.7-16.3c2.2-8,3.2-13.3,10.2-18.1c11-7.7,52.1-30.3,60.4-8
		c4.1,11.1,20.8-3.7,22.8-10.4c3.3-10.9-1.7-19.7-12.7-22.1c-22-4.8-46,9.2-62.7,21.9c-20.9,16-38.7,35.4-55.1,55.9
		c6.7-13.4,14.1-26.4,22.2-38.9c6.8-10.6,14.8-25.5,26.2-31.9c-9,1.7-17.6-2.9-26.6-1.8c-6.6,0.8-11.7,4.1-15.9,9.2
		c-11.6,14-19.3,31.9-27.6,48c-19.2,37.5-36.3,76-55.1,113.7c8.4-5.2,19.7-1.7,28.9-4c8.9-2.2,12.5-19.2,15.6-26.5
		c9.7-22.6,20.8-42.2,35.7-61.7c-4.1,19.2-2.9,45.7,6.5,63.1c12.8,23.9,37.4,31.7,63.1,27.1c22.3-3.9,38.7-25.5,50.3-43.3
		c5.9-9.1,11.1-18.7,16-28.4C974.5,625.2,988.5,603.8,982.2,599.1C980.2,597.6,984.2,600.6,982.2,599.1z"/>
	<path fill="#F8F7F3" d="M1194.7,610.8c1-2.2,3.5-7.5,0-9c-4.6-2-7.4,5.9-8.9,8.8c-5.8,11.5-11.7,23-18.4,34.1
		c-6.7,11.1-13.9,22-22.4,31.8c-5.1,5.8-14.8,17.3-24,13.7c-5.9-2.3-4.9-12.3-4.5-17.1c1.2-13.3,5.3-26.1,10.4-38.4
		c5.4-13.1,11.7-25.7,18.6-38c5.5-9.9,11.2-21.2,19.3-29.3c-12.2,2.2-24.8-6.6-36,1.8c-9.5,7.2-15.2,21.3-20.7,31.4
		c-13.8,25.3-28.3,53.3-49.3,73.7c-7.2,6.9-18.7,16.6-29.5,14.5c-13.4-2.6-10.8-21-8.6-30.4c5.7-24.5,20-47.9,35-67.8
		c15.1-19.9,36.8-47.2,62.8-52.7c10.2-2.2,21.5,0.3,27.2,9.7c2.5,4.1,3.1,10.6,9.4,6.4c6.7-4.4,1-11.9-2.9-15.7
		c-20.9-20.3-53.7-14.7-77.4-3c-26.1,12.9-45,35.6-59,60.6c-9.4,16.9-16.5,35.9-18.5,55.1c-1.7,16-0.3,37.3,13.9,47.8
		c32.1,23.6,70.5-38.3,83.3-59.6c-4.3,15-7.6,32.4-1.8,47.5c5.9,15.2,23.5,20.7,37.7,13.5c15.5-7.8,27-24.3,36.3-38.4
		C1177.3,645.6,1186.3,628.3,1194.7,610.8C1197,605.8,1191,618.5,1194.7,610.8z"/>
	<path fill="#F8F7F3" d="M1402.9,601.6c-6.1-2.8-14.4,19.9-16.4,23.8c-6.5,12.8-13.5,25.5-21.8,37.3c-7,10-15.9,22.7-27.6,27.4
		c-11.4,4.6-19.2-1.6-19.7-13.2c-1.2-25.9,15.9-52.9,27.7-74.9c6.9-12.7,14-25.2,21.9-37.3c6.2-9.5,13.5-22.2,23.7-27.8
		c-13.9,2.5-28-7.4-39.9,4.5c-10.4,10.4-16.6,25.1-23.4,37.8c-3.7,7-7.4,14-11,21c-3.6,7.1-6.7,14.1-16,12.5
		c-14.7-1.7-29.6-15.3-44.9-8.3c7.2-13.5,14.8-26.8,23.2-39.6c6.2-9.5,13.5-22.2,23.7-27.8c-9,1.7-17.6-2.9-26.6-1.8
		c-6.6,0.8-11.7,4.1-15.9,9.2c-11.6,14-19.3,31.9-27.6,48c-19.2,37.5-36.3,76-55.1,113.7c13.1-8.2,29.7,3.8,37.3-13.8
		c5.9-13.7,12.3-27.3,18-41.1c2.9-6.9,6.3-13.6,9.5-20.4c3.1-6.5,5.5-13.9,13.7-14.9c17.1-2.1,31.5,16.9,48.8,8.7
		c-3.5,7.6-7.1,15.2-10.7,22.7c-4.4,11.2-3.1,23.1,0.4,34.4c6,19.5,24.6,28,43.2,19.2c18.9-8.9,32.6-29.7,43.1-46.9
		C1383.8,648.6,1410.5,605.2,1402.9,601.6C1400.4,600.4,1405.3,602.8,1402.9,601.6z"/>
	<path fill="#F8F7F3" d="M1572.2,602.3c-6.3-2.7-18.5,27.7-21.1,32.5c-7.1,13-15,25.6-25.1,36.5c-14.3,15.4-43.7,35-64.7,19.5
		c-21.1-15.6-12.3-51.7-4.9-71.8c9.1-24.8,24.1-50,44.7-67c8.1-6.7,21.7-17.8,33.2-13c11.9,5,5.9,23.7,1.6,31.8
		c-2.9,5.4-6.7,10.3-10.5,15.1c-4.3,5.6,7.3,5.2,10.6,4c11.8-4.5,20.8-19.2,21.5-31.4c1.8-28.7-28.3-35.2-50.9-29.3
		c-26.8,7-46.3,28.7-60.2,51.5c-14.2,23.4-26.5,52.2-25.1,80.1c1.4,27.4,21.9,42.9,48.2,43.8c27.7,0.9,51.2-10.3,68.6-31.9
		C1543.6,665.7,1580.8,606.1,1572.2,602.3C1569.8,601.3,1574.5,603.3,1572.2,602.3z"/>
	<path fill="#F8F7F3" d="M1652,514.6c24.5,0,35-40.9,6.5-40.9C1633.9,473.7,1623.8,514.6,1652,514.6z"/>
	<path fill="#F8F7F3" d="M1691.8,601.8c-5.4-3.1-14.4,20.5-16.5,24.3c-6.2,11.7-12.5,23.6-19.9,34.6c-8.2,12.4-29.7,42.5-47.8,27.8
		c-15.6-12.8,7.6-51.7,14.1-67.1c9.4-21.9,18.7-43.8,28.1-65.6c4.1-9.5,8.6-20-5.8-20.8c-10.1-0.6-20.5,0.2-30.6,0.4
		c6.6,8.9,6.8,16.3,3.1,25.8c-3.4,8.6-6.8,17.2-10.1,25.8c-6.6,16.8-13.2,33.6-19.8,50.4c-6,15.2-9.9,35.1-1.5,50.1
		c9,16.2,30.7,18.7,46.1,10.4c17.5-9.4,30.2-28.9,39.9-45.5C1674.5,646.9,1699.2,606,1691.8,601.8
		C1689.5,600.5,1694.2,603.2,1691.8,601.8z"/>
	<path fill="#F8F7F3" d="M1912.5,601.6c-6.1-2.8-14.4,19.9-16.4,23.8c-6.5,12.8-13.5,25.5-21.8,37.3c-7,10-15.9,22.7-27.6,27.4
		c-11.4,4.6-19.2-1.6-19.7-13.2c-1.2-25.9,15.9-52.9,27.7-74.9c6.9-12.7,14-25.2,21.9-37.3c6.2-9.5,13.5-22.2,23.7-27.8
		c-15.8,2.9-29.2-8.8-40.4,7.9c-4.1-14.4-18.8-18.5-32.2-16.6c-16.6,2.4-30.1,11.3-40,24.6c-16.3,21.8-31.9,69.8,7.8,76.8
		c-13.7,24-37,66-69.8,61.7c-7.9-1-14.4-7.7-16.9-15c-3.1-8.8,2.7-14.4,3.6-22.7c0.7-6.6-3.5-13-10.7-12.1c-7.8,1-12.9,7.9-14,15.3
		c-5,31.7,27.9,53.3,56.3,46.4c16.9-4.1,30.5-18.8,40.6-32.2c5.5-7.3,10.1-15.1,14.7-23c2.3-3.9,4.6-7.9,6.8-11.9
		c2.9-5.1,2.9-5.8,8.6-6.5c-9,18.5-16.4,36.4-8.5,57c7.6,19.7,30.6,21.3,46.4,11c17.1-11.1,29.6-29.8,39.8-47.1
		C1895.1,645.7,1920,605.1,1912.5,601.6C1910,600.4,1915,602.8,1912.5,601.6z M1787.1,612.1c-8.2-18.8,7.6-40.7,17.7-55.3
		c5.7-8.3,11.9-15.7,22.3-17.8c8.5-1.7,19.3,0.1,21.1,10c3.4,18.3-12.2,39.2-20.3,54.4c-2.8,5.2-5.5,10.4-8.1,15.7
		c-2.5,4.9-5.9,4-11.3,4.1C1800.2,623.1,1790.7,620.3,1787.1,612.1C1785.4,608.3,1788.8,615.9,1787.1,612.1z"/>
</g>
</svg>
