<?xml version="1.0" encoding="utf-8"?>
<!-- Generator: Adobe Illustrator 18.0.0, SVG Export Plug-In . SVG Version: 6.00 Build 0)  -->
<!DOCTYPE svg PUBLIC "-//W3C//DTD SVG 1.1//EN" "http://www.w3.org/Graphics/SVG/1.1/DTD/svg11.dtd">
<svg version="1.1" id="Layer_1" xmlns="http://www.w3.org/2000/svg" xmlns:xlink="http://www.w3.org/1999/xlink" x="0px" y="0px"
	 viewBox="0 0 1451 409" enable-background="new 0 0 1451 409" xml:space="preserve">
<g>
	<path fill="#F8F7F3" d="M463.5,231.1c-6,9-9.8,19.7-15.7,28.9c-5.3,8.3-10.8,16.4-16.8,24.2c-8.8,10.8-28,32.7-44.3,26.7
		c-15.5-5.7-10.8-32.3-8.8-44.1c3.3-19,9.2-37.3,15-55.6c5.3-16.6,10.6-33.3,16.9-49.6c7.3-19.1,15.9-39.6,26.9-58
		c6.8,1.2,13.7,2.2,20.6,3.1c13.4,1.7,40.8,0.4,40.8-18.8c0-3.1-3.9-12-6.9-5.6c-2.2,4.5-0.1,8.4-5.5,11.2
		c-10.2,5.1-24.4,3.1-35.2,1.6c-2.5-0.3-5-0.7-7.5-1.1c5-7.3,10.5-14.2,16.5-20.4c1.3-1.3,11.4-9.4,10.9-9.7c-4.7-2.6-17,3-21.7,4.5
		c-9.7,3.4-17.3,12.7-23.4,22.3c-18.1-3.8-36.1-8.9-53.5-14.7c3.9-3.9,7.4-8,11.7-11.4c1.5-1.2,4-3.7,6.2-3.4c1.5,0.2,2.9,1.2,4.6,1
		c8.5-0.7,0.7-16-5.9-11.1c-1.8,0-3.5,0.8-5,1.6c-8.1,4.6-15.1,12.4-21,19.5c-2.1,2.6-19.4-5.2-22.7-6.4
		c-20.4-7.2-41.2-13.5-62.2-18.6c-38.9-9.4-82.1-10.3-117.7,10.2c-32.8,18.9-55.5,60.8-39.7,98c15.7,36.9,64.2,46.4,94.5,21.1
		c7.3-6.1,13.4-13.9,16.8-22.9c1-2.7,7.1-22.5-2-17.7c-2.9,1.5-2,5.2-3,8.1c-1.5,4.3-3.6,8.5-6.3,12.3c-5.4,7.7-12.7,14.3-21,18.8
		c-16.4,8.9-38.3,9.3-53.4-3c-14.9-12-14.7-33.9-8.3-50.3C151.8,85,191,63.1,229.2,60.3c42.1-3.1,86.9,7,126.8,19.6
		c-5.1,6.5-8.4,14.6-11.9,22.1c-4.2,9-8.4,18-12.6,27c-8.6,18.4-17,36.9-25.9,55.1c-18,36.7-37.6,75.7-68.5,103.2
		c-31.1,27.7-70.8,41.5-112.4,41.6c-38.4,0.1-80.6-19.1-98.9-54.2c-17.7-33.9-12.2-81,21.9-102.1c3.2-2,8.7-4.8,7.2-9.4
		c-1-3.1-4.9-3-7.5-2.4c-8.3,1.6-15.7,7.8-21.5,13.7c-14.2,14.5-19.5,35.1-21.4,54.9c-3.7,39,15.7,73.7,49.8,92.4
		c36.5,20,80.7,23.7,121.3,16.7c41.2-7.2,77.5-26.1,102.6-59.9c25.4-34.3,38.1-76.3,52.5-116c7.5-20.7,14.9-41.4,25.3-60.9
		c2.9-5.4,5.9-10.7,9.2-16c2.2-3.6,5.5-0.7,9.1,0.8c8,3.3,16.2,6,24.5,8.4c6.9,2,13.9,3.7,21,5.3c-1,1.8-2,3.5-2.9,5.1
		c-16.7,29.4-28.9,60.9-40.5,92.5c-7,19.2-13.9,38.3-18.5,58.2c-4.1,17.7-7.3,41.8,4.5,57.5c12.6,16.7,36.8,8.6,51.3-1.1
		c17.1-11.5,27.9-28.7,38.2-46.1c5.4-9.2,10.4-18.6,15.1-28.2c1-2.2,4.3-7,2.9-9.6C468.2,225.9,464.3,229.9,463.5,231.1z"/>
	<path fill="#F8F7F3" d="M543.6,231c0.3-0.2,0.6-0.4,0.8-0.6c0.5-0.4,1-0.9,1.5-1.3C545.5,229.4,543.3,231.2,543.6,231z"/>
	<path fill="#F8F7F3" d="M581.9,240.9c-0.4,0.9-0.9,1.9-1.3,2.8C580.7,243.5,582.6,239.5,581.9,240.9z"/>
	<path fill="#F8F7F3" d="M580.6,243.7c0,0.1,0.3-0.6,1.3-2.8c2.3-4.7-1.3-7.3-4.8-3.2c-2.7,3.2-4.1,8.1-5.9,11.8
		c-5.2,10.8-10.8,21.4-18.4,30.8c-9.7,12.1-41,36.5-51.6,12.4c-3.9-8.9-2.9-19.6-0.9-28.9c0.8-3.8,1.8-7.5,3.3-11
		c3.9,0,7.9-0.9,11.7-1.8c19.4-4.7,37-14.1,49.1-30.3c5.8-7.7,11.6-18.4,8.9-28.3c-2.3-8.4-11.3-12.5-19.4-12.5
		c-19.6,0-37.6,15.2-49.3,29.6c-18.8,23-46.8,82.9-4.5,97.8c18.2,6.4,38-1.1,51.1-14.2C565,279.5,572.6,261.1,580.6,243.7z
		 M548.7,191.9c3.2-2.2,8.7-5.9,12.8-3.7c4.6,2.5,2.8,10.6,1.7,14.4c-2.8,10.2-9.5,19.4-17.3,26.5c0.2-0.2-0.1,0.1-1.5,1.3
		c-0.5,0.4-0.8,0.6-0.8,0.6c-10.2,7.8-24.4,15.3-37.4,15.3C516.1,226.4,529.9,204.7,548.7,191.9z"/>
	<path fill="#F8F7F3" d="M737,234.7c-3,0.3-4.6,5.8-5.8,8.1c-4.4,8.7-8.8,17.4-14,25.7c-4.2,6.8-28.7,45.2-39.1,28.9
		c-3.7-5.8,0.3-17.5,2.2-23.3c3.1-9.3,7.2-18.4,11.4-27.3c9.1-19.5,19.3-38.4,29.7-57.2c-8.4-2.6-19.3,3.5-26.6,7.1
		c-9.9,4.9-19.3,10.8-28.2,17.3c-16.1,11.8-29.9,26.4-42.3,42c6.5-17.2,13.9-36.6,14.7-55.2c0.3-7.2,1.5-17.8-8.3-17.1
		c-7.5,0.6-14.9,1.9-22.3,3.3c12,2.7,1.9,34.4-0.5,41.1c-2.5,6.9-5.6,13.7-8.8,20.3c-3,6.6,7-1.1,8.3-3.2
		c-3.2,14.5-9.6,28.5-15.5,42c-6.5,14.9-13.5,29.6-20.8,44.1c-7.1,14-14.3,27.9-21.7,41.7c-5.4,10-10.7,23-18.8,31
		c8.9-1.6,17.4,4.5,26.4,0.2c6.5-3.1,10.1-11.1,13-17.2c9.5-23.5,18.9-47,28.4-70.5c5.3-13.2,10.6-26.5,17.8-38.9
		c7.2-12.4,15.6-24.4,25.7-34.6c8.7-8.8,18.2-18.9,29.1-24.9c7.7-4.3,15.3-3.3,10.8,7.1c-3.6,8.3-9.4,15.9-13.8,23.9
		c-7.7,13.9-17,34.9-8.2,50.4c4.6,8.1,14.4,11,23.3,9.6c9.1-1.4,16.2-7.4,22.3-13.8c14.2-14.8,23.4-33.7,32.3-52
		C738.6,241.5,742,234.2,737,234.7z"/>
	<path fill="#F8F7F3" d="M815.6,231c0.3-0.2,0.6-0.4,0.8-0.6c0.5-0.4,1-0.9,1.5-1.3C817.5,229.4,815.4,231.2,815.6,231z"/>
	<path fill="#F8F7F3" d="M854,240.9c-0.4,0.9-0.9,1.9-1.3,2.8C852.8,243.5,854.7,239.5,854,240.9z"/>
	<path fill="#F8F7F3" d="M854,240.9c2.3-4.7-1.3-7.3-4.8-3.2c-2.7,3.2-4.1,8.1-5.9,11.8c-5.2,10.8-10.8,21.4-18.4,30.8
		c-9.7,12.1-41,36.5-51.6,12.4c-3.9-8.9-2.9-19.6-0.9-28.9c0.8-3.8,1.8-7.5,3.3-11c3.9,0,7.9-0.9,11.7-1.8
		c19.4-4.7,37-14.1,49.1-30.3c5.8-7.7,11.6-18.4,8.9-28.3c-2.3-8.4-11.3-12.5-19.4-12.5c-19.6,0-37.6,15.2-49.3,29.6
		c-18.8,23-46.8,82.9-4.5,97.8c18.2,6.4,38-1.1,51.1-14.2c13.7-13.7,21.4-32.1,29.4-49.5C852.7,243.8,853,243.1,854,240.9z
		 M820.7,191.9c3.2-2.2,8.7-5.9,12.8-3.7c4.6,2.5,2.8,10.6,1.7,14.4c-2.8,10.2-9.5,19.4-17.3,26.5c0.2-0.2-0.1,0.1-1.5,1.3
		c-0.5,0.4-0.8,0.6-0.8,0.6c-10.2,7.8-24.4,15.3-37.4,15.3C788.2,226.4,802,204.7,820.7,191.9z"/>
	<path fill="#F8F7F3" d="M932.3,168.3c0.6-0.2,1.2-0.4,1.8-0.5C950.8,162.7,937.2,160.4,932.3,168.3z"/>
	<path fill="#F8F7F3" d="M956.1,183c-3.9-1-8.5-2-12.5-1.2c-3,0.7-7,3.6-3.2,6.4c3.4,2.5,8.8,0.6,12.6,1.2c3.7,0.6,6.9,2.2,9.2,5.2
		c5.1,6.7,4.1,16.8,2.5,24.5c-4.1,19.6-15.6,38.7-27.5,54.5c-7,9.3-21.1,28.7-35.2,25.7c-19.3-3.7-12.2-33.3-8.8-46.1
		c5.4-20.6,14.6-40.7,24.9-59.3c2.6-4.8,5.2-9.6,7.8-14.4c5.1-1.6,10.1-3.3,15.2-5.1c9.4-3.3,18.7-6.7,27.8-10.5
		c36.5-15.1,70.1-35.9,95.6-66.4c15.2-18.2,60-87.9,8.9-90.8c-43-2.4-75.7,37.9-100.6,67.5c-25.8,30.7-45.8,66-64.5,101.4
		c-7.3,0.8-18.1,1.2-23.8-4c-3.4-3.1-3.2-15-9.2-13.7c-9.1,2-0.9,15.8,2.6,19.3c6.6,6.8,16.8,8.2,25.9,7.1c2.1-4,5.7-10.9,0.1-0.1
		c0,0,0,0.1,0,0.1c0,0,0,0,0,0c-17.1,32.6-31.7,67.2-52.5,97.7c-1.6,2.3-5.8,6.2-3.9,9.2c1.6,2.4,3.9-0.2,5.1-1.5
		c4.7-5.2,8.3-11.5,11.8-17.5c8.1-14,15.8-28.2,23.3-42.5c-7.2,14.9-16.7,32.2-17.3,49.1c-0.6,16.1,9.4,27.4,25.1,29.5
		c34.2,4.6,62.4-21.4,76.2-50c8.3-17.3,15.1-39.7,6.1-58C973.3,191.6,965.4,185.4,956.1,183z M998.6,70.8
		c12.2-15.2,25.8-29.9,42-40.9c8.9-6.1,36.6-20.8,43.6-4.6c6.5,15-6.8,35.8-14.5,47.8c-10.2,15.8-22.8,30-36.8,42.5
		c-28,24.7-62.9,41.8-98.7,52.2c-0.6,0.2-1.2,0.4-1.8,0.5C953,134.9,973.9,101.6,998.6,70.8z"/>
	<path fill="#F8F7F3" d="M903.7,184.3C903.7,184.3,903.7,184.3,903.7,184.3C902.5,186.6,901.9,187.9,903.7,184.3z"/>
	<path fill="#F8F7F3" d="M1157.3,234.9c-3.2,0.5-4.7,5.7-6,8.1c-4.4,8.6-8.8,17.1-13.9,25.3c-3.4,5.6-23.6,39.7-33.5,29.7
		c-4-4-1.9-13.2-1-18c1.6-9,4.9-17.5,8.6-25.9c6.4-14.5,14.1-32.7,25.5-44.1c-7.7,1.4-15.3-3.5-22.9-0.4c-5.2,2.1-8.2,7.4-11,11.9
		c-8.3,13.3-15,27.4-23.4,40.6c-7.8,12.2-16.7,25.9-29.6,33.1c-5.5,3-12.9,4.8-16.8-1.4c-3.1-5-1.7-12.4-0.5-17.8
		c4.1-17.8,14.5-34.7,25.3-49.1c10.9-14.4,26.7-34.1,45.4-38.2c8.2-1.7,16.8,0.7,20.5,8.6c1,2.1,0.4,3.9,3.1,3.8
		c1.5-0.1,2.8-0.6,3.8-1.7c2.4-3,0.8-6.5-1.6-8.8c-14.3-15.6-37.7-12.9-55.3-4.8c-33.6,15.4-61.6,59.4-58.6,96.8
		c1.4,17.2,13.8,32.1,31.9,22.9c16.9-8.6,29.2-27.6,38.6-43.4c-3.2,11.3-6,25.1-0.5,36.1c5.4,10.9,18.7,12.9,28.5,6.9
		c11.6-7,20-19.7,27-31c6.2-9.9,11.6-20.3,16.7-30.9c-0.1,0.2,0.1-0.2,0.9-1.8c0.5-1.1,0.5-1,0.2-0.5
		C1159.6,239.1,1161,234.4,1157.3,234.9z"/>
	<path fill="#F8F7F3" d="M1285.3,238.6c-8.8,17.4-18.2,34.9-31.3,49.4c-5.9,6.6-14.3,14.5-23.9,10.8c-8.9-3.5-11.4-12.4-9.7-21.1
		c4.2-20.9,21.5-36.3,30.7-55c7.7-15.6,4.6-33.9-14.9-37.1c-19.4-3.2-34.5,18-43.7,32c-5.9,9.1-10.8,18.7-15.6,28.4
		c-1.6,3.2-4.1,6.9-4.7,10.4c-0.5,3.1,2.4,4.8,4.7,2.5c2.5-2.5,4-7.3,5.6-10.4c2.2-4.4,4.4-8.7,6.8-13c4.9-9,10.4-17.7,16.8-25.7
		c5.4-6.7,12.4-15.8,21.9-15.8c9.8,0,11,9.7,7.9,17c-7.8,19.6-23.7,34.9-31.1,54.6c0.2-0.6,0.2-0.6-0.3,0.6c-1.5,4.2-1,2.9-0.4,1.2
		c-6.3,19.4,0.7,38,23,40.7c21.1,2.6,36.4-18.6,46.4-34.2c5.7-9,10.4-18.5,15.1-28c1.2-2.5,5.5-8.5,3.3-11.3
		C1289,231.1,1286.2,236.8,1285.3,238.6z"/>
	<path fill="#F8F7F3" d="M1445.8,242c0.8-1.8,1.9-9.7-2.8-6.4c-3.2,2.3-4.9,8.6-6.6,12c-5,9.9-10.1,19.8-16.3,29
		c-5.3,8-12.4,17.8-21.7,21.3c-8.6,3.3-13.9-3.5-13.7-11.7c0.4-19.1,11.7-38.5,19.8-55.3c8.3-17.2,15.4-34.9,30.5-46.9
		c-6.3,0-12.7,0-19,0c-14.4,0-17.2,13.3-22.6,24.2c-13.4,27.2-26.9,56.7-47.5,79.4c-5.6,6.2-23.2,20.6-26.5,4.6
		c-2.4-11.7,3.5-24.3,8.4-34.6c6.6-13.7,12.8-27.6,20-41.1c6.5-12.3,12.4-24.7,24.3-32.6c-9.5,0-28.8-3.4-34.9,5.6
		c-6.6,9.8-11.1,21.9-16.6,32.4c-3.1,6-6.1,11.9-9.1,17.9c-1.7,3.3-6.2,9.8,1,9.8c-5.3,10.6-12,20.7-12.8,32.9
		c-0.8,11.4,4.7,22.8,17,24.7c25.9,4.1,44.2-26.5,55-45.6c-3.7,11.2-5.9,25-0.4,36c5.6,11.1,19.3,12.3,29.5,7.2
		c22.1-10.9,34.2-39.4,44-60.8C1444.7,244.4,1444.7,244.2,1445.8,242z"/>
	<path fill="#F8F7F3" d="M1445.8,242c-0.3,0.6-0.6,1.2-0.9,1.9C1445.4,242.9,1446.9,239.7,1445.8,242z"/>
</g>
</svg>
