<?xml version="1.0" encoding="utf-8"?>
<!-- Generator: Adobe Illustrator 18.0.0, SVG Export Plug-In . SVG Version: 6.00 Build 0)  -->
<!DOCTYPE svg PUBLIC "-//W3C//DTD SVG 1.1//EN" "http://www.w3.org/Graphics/SVG/1.1/DTD/svg11.dtd" [
	<!ENTITY ns_extend "http://ns.adobe.com/Extensibility/1.0/">
	<!ENTITY ns_ai "http://ns.adobe.com/AdobeIllustrator/10.0/">
	<!ENTITY ns_graphs "http://ns.adobe.com/Graphs/1.0/">
	<!ENTITY ns_vars "http://ns.adobe.com/Variables/1.0/">
	<!ENTITY ns_imrep "http://ns.adobe.com/ImageReplacement/1.0/">
	<!ENTITY ns_sfw "http://ns.adobe.com/SaveForWeb/1.0/">
	<!ENTITY ns_custom "http://ns.adobe.com/GenericCustomNamespace/1.0/">
	<!ENTITY ns_adobe_xpath "http://ns.adobe.com/XPath/1.0/">
]>
<svg version="1.1" id="Layer_1" xmlns:x="&ns_extend;" xmlns:i="&ns_ai;" xmlns:graph="&ns_graphs;"
	 xmlns="http://www.w3.org/2000/svg" xmlns:xlink="http://www.w3.org/1999/xlink" x="0px" y="0px" viewBox="0 330 612 128"
	 enable-background="new 0 330 612 128" xml:space="preserve">
<metadata>
	<sfw  xmlns="&ns_sfw;">
		<slices></slices>
		<sliceSourceBounds  width="604.4" height="113.5" x="3.8" y="339.9" bottomLeftOrigin="true"></sliceSourceBounds>
	</sfw>
</metadata>
<g>
	<path fill="#F8F7F3" d="M118.7,375.9c1.7-5.4,3.6-10.8,5.9-15.9c1.1-2.6,2.4-5.1,3.7-7.6c1.2-2.3,5.2-2.2,7.6-3.1
		c3.1-1.2,9-4.9,6.1-9.1c-3.3-4.8-10.2,2-12.1,4.6c-1.2,1.5-1.9,3.8-3.8,4.2c-2.6,0.5-5.3,1-7.8,1.5c-6.4,1.3-12.7,2.9-18.8,5
		c-10.9,3.8-21.7,8.7-29.5,17.5c-6.6,7.5-12.4,20.4-4.5,29c7.6,8.4,20.8,4.5,27-3.4c3.3-4.3,5.5-10.3,3.4-15.6
		c-1.4-3.5-3.2-0.4-3-0.3c1.4,1.4,1.1,4.7,0.9,6.5c-0.7,5.1-3.6,9.8-8.1,12.4c-4.5,2.6-11,3.3-14.4-1.6c-3.6-5.3-1.7-12.9,0.6-18.3
		c2.7-6.4,7.7-11.4,13.2-15.3c11.8-8.4,26.5-11.7,40.5-14.8c-8.5,14.9-14,31-21.3,46.4c-8.1,17-20.7,32.6-37.1,42.3
		c-15.3,9-37.5,12.3-52.1,0c-7-5.9-9-14.9-6.4-23.4c1.4-4.4,3.9-8.5,6.9-11.9c0.5-0.6,7.8-6.5,7.8-6.6c-1.5-1.9-7.4,2.7-8.4,3.6
		c-3.3,2.7-6.5,6.2-8.2,10.1c-3.2,7.3-4.3,15.9-1.1,23.3c6.9,15.6,27.5,17.7,42.3,16c17.9-2.1,34-10.8,45.9-24.2
		C107.2,412.4,112.7,394.4,118.7,375.9C120,371.9,117.4,379.9,118.7,375.9z M132.5,346.4c0.6-0.7,5.5-6.4,5.9-2.5
		c0.3,2.9-5.6,4-7.5,4.4C131.5,347.7,132,347,132.5,346.4C133.1,345.7,131.9,347.1,132.5,346.4z"/>
	<path fill="#F8F7F3" d="M165.6,411c-1.3-0.6-7.6,12.4-8.7,13.9c-1.5,2.1-9.9,11.6-10.9,4c-0.7-5.5,3.1-11.7,5.6-16.4
		c2.6-4.9,6.1-13.5,11.2-16.3c-3.2,0.6-6.4-1.7-9.1,1.1c-2.6,2.6-4.1,6.3-5.8,9.5c-1,1.8-2.2,6.4-4.5,6.8c-4,0.9-7.4-3.8-11.5-1.9
		c2.5-4.7,5.8-12.8,10.8-15.5c-3.6,0.7-6.8-1.8-9.7,1.6c-2.8,3.3-4.7,7.7-6.6,11.6c-4.3,8.4-8.1,17.1-12.3,25.5
		c2.5-1.6,6.6,0.7,8.2-2.4c1.4-3.2,2.8-6.3,4.2-9.4c1-2.2,2.3-6.9,4.3-8.4c3.8-2.6,8.3,3.5,12.5,1.5c-2.2,4.7-4,8.2-2.2,13.4
		c1.5,4.5,6.1,6.1,10.2,3.9c4.1-2.2,7.1-6.7,9.5-10.6C161.2,421.8,167.3,411.9,165.6,411C165,410.8,166.1,411.3,165.6,411z"/>
	<path fill="#F8F7F3" d="M234.9,411.2c-1.2-0.6-8,13.1-9.3,14.8c-2.3,3-10.4,9.2-10,1.1c0.3-5.9,3.7-11.9,6.2-17.1
		c2.6-5.5,4.9-11.1,9.8-15.1c-1.9,0-3.8,0-5.7,0c-4.2,0-5,2.6-6.6,6c-4.4,9-8.7,18.8-15.3,26.3c-1.9,2.1-6.3,6.5-8.5,2.5
		c-1.9-3.4,1-9.1,2.3-12.2c3.3-7.7,6.6-17.2,13.1-22.6c-1.9,0-3.8,0-5.7,0c-4.2,0-5,2.6-6.6,6c-4.5,9.3-9.1,19.7-16.3,27.3
		c-1.8,1.9-7,5.9-8,1.1c-0.8-4.1,1.4-8.3,3.1-11.8c3.4-7.3,6.6-17.9,13.6-22.5c-2.7,0-8.1-1-10.3,1c-2.5,2.1-4,7.2-5.5,10
		c-0.7,1.3-6.1,9.8-3.1,9.8c-2.4,4.9-8.4,16.7,1.3,18.3c8.2,1.3,14-8.4,17.5-14.5c-1.8,5.3-2,16,6.5,14.5
		c6.4-1.1,11.5-9.3,14.2-14.5c-1.2,3.6-2,8.5,0.2,12c2.4,3.9,7.8,3,10.9,0.6C224.7,430.3,238.1,412.6,234.9,411.2
		C234.3,410.9,235.4,411.4,234.9,411.2z"/>
	<path fill="#F8F7F3" d="M212.2,438.9c-3-0.9-4.7,2.9-7.6,3.3c-4.1,0.7-8.3-1.1-12.2-2.1c-8.3-2.2-15.4-1.1-20.8,5.9
		c0,0.7,3,0.8,3.3,0.2c1.1-1.5,2.9-2.7,4.8-3c4-0.7,8.3,1,12,2.1c3.8,1.1,7.8,2.2,11.7,0.9c2.2-0.7,4.2-1.9,5.9-3.5
		C209.8,442.4,213,439.1,212.2,438.9C212,438.8,212.5,438.9,212.2,438.9z"/>
	<path fill="#F8F7F3" d="M262.7,411.1c-1.8-1.1-10,23.4-18.5,20.4c-5-1.8,0.8-12,2.2-15.4c2.2-5.1,4.4-10.1,6.5-15.2
		c0.8-1.9,2.3-4.7-0.7-5c-2.4-0.3-5.1,0-7.5,0c2.8,3.8-0.1,8.1-1.7,12c-1.5,3.8-3,7.6-4.5,11.5c-1.3,3.3-2.1,7.4-0.7,10.8
		c1.7,4.1,6.7,5.1,10.5,3.3c4.2-2,7.3-6.7,9.6-10.6C258.8,421.4,264.4,412.1,262.7,411.1C262.2,410.8,263.3,411.4,262.7,411.1z"/>
	<path fill="#F8F7F3" d="M253.6,391.1c5.6,0,8-9.4,1.5-9.4C249.4,381.7,247.1,391.1,253.6,391.1z"/>
	<path fill="#F8F7F3" d="M314.6,411.3c1.6-4.2,3.4-8.3,5.5-12.2c1-1.9,2.1-3.8,3.1-5.6c2.8-0.9,5.5-1.8,8.2-2.8
		c8.4-3.1,16.7-6.9,24-12.2c7.5-5.5,14-12.5,18.5-20.7c3.3-6.1,7.2-18.2-3.4-19.1c-9.8-0.8-18.1,6-24.5,12.5
		c-6.8,7-12.9,14.8-18.1,23.1c-2.6,4.2-5,8.5-7.4,12.9c-1.1,2-1.8,5.1-4.2,5.2c-2.1,0-5.2,0-6.6-1.9c-0.7-1-0.4-2.5-1.1-3.3
		c-1.5-1.8-2.7,0.7-2.6,2c0.5,4.8,6.3,6.4,10.2,5.9c-5.4,10.3-10,21.1-16.5,30.8c-0.4,0.7-1.4,1.6-1.5,2.4c-0.1,0.8,0.6,1.2,1.2,0.7
		c1.3-1.2,2.3-2.9,3.3-4.4c3-4.9,5.7-10,8.4-15.1c-2.8,5.7-8.1,15-4.1,21.2c4,6.1,14.2,3.9,19.4,0.9c9.5-5.5,24-31.2,7.3-36.7
		c-0.6-0.2-7.5-1.5-6.2,1c1.2,2.2,5.9,0,7.7,3c3.7,6.4-3,16.7-6.4,21.9c-2.5,3.8-8.3,12.7-14,10.6
		C308.1,428.7,312.9,415.7,314.6,411.3C315.8,408.1,313.3,414.6,314.6,411.3z M330.7,381c6.1-9.7,12.7-19.6,20.7-27.9
		c3.6-3.7,7.8-7.6,12.7-9.6c4.5-1.8,10.3-1.6,9.7,4.5c-1.1,10-10.4,19.8-17.7,26.1c-8.8,7.5-19.7,12.7-30.8,15.8
		C327,387,328.9,384,330.7,381C332.8,377.6,328.6,384.3,330.7,381z"/>
	<path fill="#F8F7F3" d="M384.4,411.2c-2.2,0-4.2,6.7-5,8.3c-1.8,3.3-4,6.5-6.9,9c-2.7,2.4-6.1,4.3-9.8,3.7c-4-0.6-4.6-5.5-4.4-8.7
		c0.1-1.7,0.4-3.3,0.9-5c0.7-2.3,1.4-1.8,3.6-2.2c4.4-1,8.7-2.6,12.1-5.5c4.3-3.5,12.5-15.6,2-17.2c-14.2-2.1-30.5,23.8-23.8,35.9
		c4,7.2,14.4,5.9,19.9,1.5c3.2-2.5,5.6-6,7.5-9.7C381.1,420.4,385.8,411.2,384.4,411.2z M363.3,409.8c2.3-3.9,5.3-7.6,8.7-10.8
		c2.2-2,7.8-5.4,7,0.4c-1.1,7.9-10.5,15.2-18.4,15.2C361.5,413,362.4,411.4,363.3,409.8C364.6,407.7,362.1,412,363.3,409.8z"/>
	<path fill="#F8F7F3" d="M423.2,411.2c-1.5-0.6-4.6,7.1-5.3,8.2c-2,3.7-4.5,7.2-7.8,9.9c-2.9,2.3-7,4.1-10.8,3
		c-3.9-1.2-4.7-6.3-4.5-9.8c0.5-8,5.4-16.8,11.2-22.1c1.9-1.7,7.5-6.4,9.6-2.6c1.9,3.3-1.7,7.7-3.6,10.1c3.5,3.5,7.7-4.5,7.7-7.2
		c0-4.6-3.8-6.7-8-6.7c-11.9,0-19.8,13.5-22.4,23.6c-1.2,4.6-1.7,10.4,2,14.1c3.5,3.4,9.3,3.6,13.9,2.5c5-1.2,8.7-4.7,11.5-8.8
		C417.8,423.9,425,411.9,423.2,411.2C422.7,411,423.7,411.4,423.2,411.2z"/>
	<path fill="#F8F7F3" d="M441.1,391.1c5.6,0,8-9.4,1.5-9.4C436.9,381.7,434.6,391.1,441.1,391.1z"/>
	<path fill="#F8F7F3" d="M450.2,411.1c-1.8-1.1-10,23.4-18.5,20.4c-5-1.8,0.8-12,2.2-15.4c2.2-5.1,4.4-10.1,6.5-15.2
		c0.8-1.9,2.3-4.7-0.7-5c-2.4-0.3-5.1,0-7.5,0c2.8,3.8-0.1,8.1-1.7,12c-1.5,3.8-3,7.6-4.5,11.5c-1.3,3.3-2.1,7.4-0.7,10.8
		c1.7,4.1,6.7,5.1,10.5,3.3c4.2-2,7.3-6.7,9.6-10.6C446.2,421.4,451.9,412.1,450.2,411.1C449.7,410.8,450.7,411.4,450.2,411.1z"/>
	<path fill="#F8F7F3" d="M504,411c-1.2-0.6-8,13.1-9.3,14.8c-2.3,3-10.4,9.2-10,1.1c0.3-5.9,3.7-11.9,6.2-17.1
		c2.6-5.5,4.9-11.1,9.8-15c-3.3,0-6.7,0-10,0c-8,0-10,6.7-12.8,13.1c-2.9,6.6-5.7,14-10.7,19.4c-4.2,4.4-14.5,5.4-11.6-3.2
		c0.9-2.5-0.9-5.4-3.6-3.3c-2.4,1.8-2.2,4.9-1.1,7.4c2.9,6.5,11.4,7.8,16.5,3c5.6-5.3,8.9-13.4,11.7-20.5c2-5.1,4.5-14.2,11.2-14.1
		c-3.6,5.4-6,12.8-8.3,18.8c-1.8,4.7-5.2,14,0.4,17.6c5.5,3.6,11.4-2.5,14.3-6.6C497.8,425.1,506.1,412,504,411
		C503.5,410.8,504.6,411.3,504,411z"/>
	<path fill="#F8F7F3" d="M557.8,411c-1.2-0.6-8,13.1-9.3,14.8c-2.3,3-10.4,9.2-10,1.1c0.3-5.9,3.7-11.9,6.2-17.1
		c2.6-5.5,4.9-11.1,9.8-15c-3.3,0-6.7,0-10,0c-8,0-10,6.7-12.8,13.1c-2.9,6.6-5.7,14-10.7,19.4c-4.2,4.4-14.5,5.4-11.6-3.2
		c0.9-2.5-0.9-5.4-3.6-3.3c-2.4,1.8-2.2,4.9-1.1,7.4c2.9,6.5,11.4,7.8,16.5,3c5.6-5.3,8.9-13.4,11.7-20.5c2-5.1,4.5-14.2,11.2-14.1
		c-3.6,5.4-6,12.8-8.3,18.8c-1.8,4.7-5.2,14,0.4,17.6c5.5,3.6,11.4-2.5,14.3-6.6C551.6,425.1,559.8,412,557.8,411
		C557.2,410.8,558.4,411.3,557.8,411z"/>
	<path fill="#F8F7F3" d="M607.9,411c-1.3-0.6-7.6,12.4-8.7,13.9c-1.5,2.1-9.9,11.6-10.9,4c-0.7-5.5,3.1-11.7,5.6-16.4
		c2.6-4.9,6.1-13.5,11.2-16.3c-3.6,0.7-6.7-2-9.3,1.8c-2.2-8.1-13.5-2.3-16.6,1.8c-3.7,5-7.3,16,1.8,17.6
		c-3.1,5.4-8.2,14.6-15.4,14.2c-4.4,0-5-4.4-3.9-7.6c1.4-4.4-4-5-5.3-1.2c-2.3,7.2,5.5,12.5,11.8,11.7c3.8-0.5,6.9-3.4,9.2-6.3
		c2-2.4,5.1-10.5,7.9-10.8c-2.1,4.3-3.8,8.5-1.9,13.2c1.9,4.5,7.2,4.7,10.8,2.2c4-2.7,6.8-7.1,9.2-11.1
		C604.1,420.7,609.6,411.8,607.9,411C607.3,410.8,608.5,411.3,607.9,411z M579.1,413.5c-1.8-4.1,1.4-8.8,3.6-12c1.3-2,2.6-3.9,5-4.6
		c1.9-0.6,4.8-0.3,5.3,2c1,4.1-2.6,8.9-4.4,12.3c-1,1.8-1.4,4.7-3.6,4.8C582.8,416.1,580.1,415.7,579.1,413.5
		C578.7,412.5,579.5,414.3,579.1,413.5z"/>
</g>
</svg>
