<?xml version="1.0" encoding="utf-8"?>
<!-- Generator: Adobe Illustrator 18.0.0, SVG Export Plug-In . SVG Version: 6.00 Build 0)  -->
<!DOCTYPE svg PUBLIC "-//W3C//DTD SVG 1.1//EN" "http://www.w3.org/Graphics/SVG/1.1/DTD/svg11.dtd">
<svg version="1.1" id="Layer_1" xmlns="http://www.w3.org/2000/svg" xmlns:xlink="http://www.w3.org/1999/xlink" x="0px" y="0px"
	 viewBox="0 0 1196 388" enable-background="new 0 0 1196 388" xml:space="preserve">
<g>
	<path fill="#F8F7F3" d="M357.7,59.8c-16.5-17.9-42-26.7-64.8-32.8c1.6-3.2,5.3-5.8,8.1-7.9c2.1-1.6,6.5-3.4,7.1-6.4
		c0.9-5.1-16.4,3.9-18,4.9c-3.5,2.2-7.5,7.1-11.6,6.2c-4.8-1-9.7-1.9-14.5-2.6c-11-1.7-22-2.9-33.1-3.5c-41.6-2.5-87-0.4-126.3,14.8
		c-33.8,13-73.5,41.6-73.4,82c0,19.1,12.3,34.6,29.1,42.3c18.8,8.6,40.3,7,57-5.5c7.2-5.4,13.3-12.6,17.1-20.8
		c1.3-2.8,7.6-17.7,0.1-17.7c-4.5,0-3.3,4.7-4.2,7.6c-1.3,4.2-3.4,8.2-5.9,11.8c-5.4,7.6-12.7,13.6-21.2,17.5
		c-15.3,7-37,5.5-48.9-7.7c-12.5-13.8-7.8-34.1,0.4-48.8c18.9-33.8,58.5-51.5,94.7-58.8c40.4-8.1,82.7-9.4,123.4-2.6
		c-16.1,18.4-32.7,36.4-46.3,56.7c-24.5,36.6-43,77.2-64.8,115.4c-5,8.8-10.1,17.4-16.1,25.6c-2.8,3.8-5.7,7.5-8.9,11.1
		c-1.5,1.7-3,3.4-4.6,5.1c-2.6,2.7-3.5,5.4-7.2,3.6c-17.7-8.6-34.5-20.6-53.6-26C54.6,218.5,34.4,218,20,229
		C4,241.3,4.1,263.3,19.6,276c14.3,11.7,36.3,12.9,54,11.3c20.3-1.8,39.6-9.6,56.3-21.1c2.5-1.7,3.1-3.4,6.1-2.1
		c2,0.9,4.1,1.8,6.1,2.6c4.4,1.8,8.9,3.4,13.4,5c9.2,3.1,18.6,5.9,28.1,8c19.5,4.4,40.4,8.5,60.5,7.6c37.6-1.6,86.1-17.8,103.1-54.5
		c8.1-17.4,7.1-39.8-5.6-54.8c-13-15.4-32.2-24.3-50.8-30.9c-1.4-0.5-2.9-1-4.3-1.4c23.6-0.8,50.7-7.7,67.9-25
		C371.2,103.7,374.4,77.9,357.7,59.8C351.2,52.7,364.2,66.9,357.7,59.8z M90.8,272.4c-14,5-32.7,7.9-46.9,2.3
		C30,269.2,21.2,251,32.4,238.6c10.3-11.3,27.6-8,40.2-3.4c16.3,6,31.6,14,47.2,21.6C111,263.4,101.2,268.7,90.8,272.4
		C80.4,276.1,101.2,268.7,90.8,272.4z M347.8,82c-1,19.4-17.4,35.8-33.3,45.1c-8.5,4.9-17.9,8.6-27.7,9.1
		c-10.9,0.6-21.7-1.1-32.6-1.6c-5.4-0.3-18.5-2-18.5,6.4c3.2,6.5,18.7,9,24.9,11c18.2,5.8,39.4,10.6,53.6,24.3
		c32,30.9-0.2,75-31.4,90.3c-36.5,18-78.7,11.2-116.2-0.2c-8.6-2.6-17.1-5.6-25.3-9.1c20.3-18.3,36-40.1,50.6-63.2
		c17-27,32.9-54.7,49-82.3c7.9-13.5,15.7-27.1,24-40.4c4.1-6.6,8.3-13.2,12.7-19.6c1.8-2.7,3.7-5.5,5.6-8.2c2.2-3.2,4-8.3,8.1-7.3
		C313.8,41.5,349.3,52.9,347.8,82C347.5,88.6,348.1,75.4,347.8,82z"/>
	<path fill="#F8F7F3" d="M433.6,148c16.5,0,23.6-27.5,4.4-27.5C421.4,120.4,414.7,148,433.6,148z"/>
	<path fill="#F8F7F3" d="M440.2,250.9c5.5-7.9,9.9-16.2,14.1-24.8c1-2.1,11.2-20.1,5.1-19.7c-2.8,0.2-4.6,6.4-5.6,8.4
		c-2.4,4.7-4.9,9.4-7.5,14.1c-4.9,8.9-9.8,17.8-16.2,25.7c-4.5,5.7-10.9,12.7-18.8,12.8c-9,0.1-11.2-6.8-10.3-14.6
		c0.9-7.9,4.8-15.2,7.9-22.4c7.3-17,14.6-34,21.8-51c2-4.7,8.5-15.3,1.1-17.1c-7.4-1.8-16.5-0.3-24.1-0.2c7.3,9.7,1.8,18.1-2.1,27.9
		c-4.5,11.4-9,22.8-13.4,34.2c-5,12.7-11,28.4-3.1,41.1c5.5,9,17.2,11.2,26.7,7.9C426.1,269.7,434.2,259.6,440.2,250.9
		C444.8,244.3,435.6,257.5,440.2,250.9z"/>
	<path fill="#F8F7F3" d="M617.9,206.8c-5.4-2.2-14.8,24.5-17,28.2c-8,13.3-18.4,23.6-30.9,32.6c7.1-26.5,8.9-54.5,4.4-81.6
		c-2.9,2.4-7.3,1.6-10.7,2.4c-3.9,0.9-6.9,3.5-8.6,7.1c-4.2,8.8-6.9,17.8-11.8,26.4c-8.4,14.7-22.1,37.4-39.7,42.2
		c-23.3,6.3-13.7-26.9-9.1-36.8c8.5-18.6,21.3-36.3,36.7-49.8c12.4-10.9,35.2-24.6,43.6-2.1c3,8.4,11.6,1.4,7.5-5.4
		c-4.4-7.6-15.6-12.1-23.8-13.6c-42.3-7.4-75.7,38.2-85,74.4c-2.8,10.8-3.8,24.6,3.5,34c7.1,9.1,19.3,12.3,29.7,7.2
		c21.8-10.6,36.1-35.9,46.8-56.6c1.9,7.7,0.6,17-0.1,24.8c-1,10.9-2.6,21.9-5.6,32.4c-0.7,2.5-1.5,5.1-2.4,7.6
		c-2.2,0.9-4.4,1.8-6.6,2.6c-4.5,1.7-9.1,3.3-13.7,4.8c-10.4,3.3-20.7,6.8-30.9,10.8c-18.4,7.1-37.8,15.3-52.7,28.6
		c-11.5,10.3-20.2,27.6-11.2,42.5c7.8,12.8,27.2,12.8,40,10.4c19.8-3.7,37.3-16.8,51.3-30.7c14.8-14.7,26.6-32,35.9-50.6
		c2.2-4.4,4.3-8.8,6.1-13.3c0.9-2.1,1.7-4.2,2.5-6.4c2.3-1.1,4.5-2.2,6.7-3.5c8.8-5.2,16-12.4,22-20.5
		C598.4,250.1,623.4,209,617.9,206.8z M523,323.7c-12.9,17.2-27.2,33.2-46.8,42.9c-9.1,4.5-19.7,8.6-30.1,7.2
		c-10.5-1.5-13.7-10.8-10.8-20.3c6.2-20.3,25.5-31.6,43.5-40.1c20.4-9.6,42.2-15.8,63.3-23.7C537.2,301.8,530.5,313.1,523,323.7
		C518.3,329.9,531.2,312,523,323.7z"/>
	<path fill="#F8F7F3" d="M704,267.6c15.3-12.9,24.9-30.7,33.6-48.3c1.6-3.3,4.3-7.2,4.8-10.9c0.4-3.2-3.1-3.8-4.8-1.4
		c-5.4,7.5-8.7,17-13.5,25c-6.7,11.2-22.7,40.7-39.6,34.1c-21.3-8.3-2.2-37.1,5.3-48.4c8.5-12.6,26.9-33.9,14.3-49.5
		c-14.3-17.6-35.7-2.2-46.2,10.6c-6.1,7.4-11.3,15.7-15.8,24.2c-2.3,4.3-4.5,8.7-6.7,13.2c-1.5,3.1-5.2,8-4.8,11.7
		c0.5,4.5,4.9,1,5.9-1.2c1.8-3.5,3.6-7,5.4-10.5c5-9.7,10.3-19.2,16.7-28c4.3-6,9.3-12.7,15.5-16.8c5.4-3.5,15-4.5,17.2,3.4
		c2,7.4-4.3,16.8-8,22.7c-4.9,7.8-10.1,15.5-15,23.4c-7.6,12.3-15.5,29.8-6.3,43.4C671.2,278,692.3,277.4,704,267.6
		C709.6,262.9,698.4,272.3,704,267.6z"/>
	<path fill="#F8F7F3" d="M899.2,207.3c-4.1-2-10.3,13.5-11.6,16.1c-4.6,9-9.6,18-15.7,26.1c-11.8,15.6-28.5,25.5-46.9,31.3
		c8.2-22.4,15.4-45.2,23.5-67.6c6.5-18,12.3-43,29.6-54.1c-5.7,0-11.4,0-17,0c-13,0-15.3,9.7-20.4,19.8
		c-12.8,25.3-26.7,51.6-45.1,73.3c-4.2,4.9-19.5,22.3-26.3,11.4c-5.7-9.3,1.1-24.4,5-33c6.5-13.8,12.9-27.7,20.1-41.3
		c6.1-11.5,11.4-23.2,22.6-30.3c-8.2,0-25.1-3-31.3,3.7c-3.4,3.7-5.2,9.4-7.5,13.9c-2.8,5.6-5.7,11.2-8.6,16.8
		c-2.7,5.2-5.7,10.4-8.1,15.8c-1.4,3.2-7.5,11.1,0,11.1c-6.3,12.6-15.6,26.4-10.8,41.2c3.9,12,18.2,15,29.1,11.5
		c12.3-4,22.1-15.8,29.6-25.9c8.1-10.9,14.4-22.8,21.1-34.6c-5.7,19.2-12.1,38.3-19.8,56.8c-1.8,4.4-3.8,8.7-6,13
		c-1,2-2,3.9-3.1,5.8c-2.4,0.7-4.9,1.3-7.3,2c-10.8,2.9-21.7,5.7-32.6,8.3c-19.6,4.7-39.6,10.6-56.2,22.4
		c-13.6,9.6-29.4,31.1-19.1,48.2c9.5,15.7,35.2,13.2,50,8.7c19.2-5.8,35.3-19.7,48.2-34.6c13.6-15.7,24.4-33.7,34.7-51.7
		c17.9-6.3,36.1-14.1,49.5-28C873.6,258.4,906.1,210.7,899.2,207.3C897.6,206.5,900.7,208,899.2,207.3z M791.5,305.3
		c-11.1,19-27.6,36.5-44.6,50.3c-9,7.2-19.2,14.6-30.5,17.3c-8.2,2-20.4,2.4-23.9-7.2c-7.5-20.4,19.3-40.5,35.1-47
		c21.8-8.9,45.1-14.3,67.8-20C794.1,301,792.8,303.1,791.5,305.3C790.3,307.5,792.7,303.2,791.5,305.3z"/>
	<path fill="#F8F7F3" d="M1040.2,204.9c-3.4-2.5-9.8,14.3-11,16.7c-4,7.8-8.1,15.6-13.1,22.9c-7.6,11.1-20,24.2-34.9,19.6
		c-14.2-4.4-19-21.1-20.2-34.2c-0.7-7.5-0.3-15.1,1.1-22.5c0.7-4.2,1.7-8.3,2.9-12.3c0.7-2.6,1.6-5.2,2.5-7.8c1.9-1.5,3.9-2.9,6-4.3
		c7.4-4.9,33.4-18.3,38.7-4c2.4,6.6,12.9-1.3,14.8-5.4c2.9-6.5,1-13.7-6-16c-15-4.9-32.7,5.5-44.1,14.2
		c-14.1,10.8-26.1,23.8-37.1,37.6c4.5-9,9.5-17.7,15-26.2c4.6-7.1,10-17.2,17.6-21.5c-5.6,1-10.8-1.6-16.3-1.3
		c-5.2,0.3-9.2,2.6-12.5,6.5c-8.1,10-13.5,22.6-19.3,34c-12.6,24.6-23.8,50-36.2,74.7c5.6-3.5,13.3-1.1,19.5-2.7
		c6.2-1.5,8.8-13.8,11-19c6.3-14.8,13.8-27.7,23.6-40.5c-2.8,13.3-2.1,32.2,5.2,44c9.3,15,24.7,19.8,41.7,16.8
		c15.1-2.7,26.1-17.2,33.9-29.2c3.8-5.9,7.2-12,10.3-18.3C1034.7,223.2,1044.6,208.1,1040.2,204.9
		C1038.9,203.9,1041.6,205.9,1040.2,204.9z"/>
	<path fill="#F8F7F3" d="M1185.5,206.9c-4.4-2-11.2,16.6-12.8,19.7c-4.4,8.5-9.2,16.9-15.1,24.5c-4.7,6.1-11.2,13.7-19.3,14.9
		c-8.5,1.3-10-8.9-9.3-15.1c2.2-18.2,12.2-36.2,20.2-52.4c7.3-14.7,13.3-29,26.3-39.6c-5.7,0-11.4,0-17,0c-13,0-15.3,9.6-20.3,19.8
		c-12.5,25.6-25.1,53.4-44,75c-4.3,5.1-20.3,21.1-25.5,8.5c-4.3-10.3,2.1-24.2,6.5-33.3c6.1-12.4,11.7-25.1,18.1-37.4
		c5.7-11,11.9-26.7,23.8-32.6c-8.2,0-25.1-3-31.3,3.7c-3.4,3.7-5.2,9.4-7.5,13.9c-2.8,5.6-5.7,11.2-8.6,16.8
		c-2.7,5.2-5.7,10.4-8.1,15.8c-1.4,3.2-7.5,11.1,0,11.1c-5.4,10.7-12.4,21.2-12,33.7c0.4,10.9,6.9,19,17.9,20.2
		c22.9,2.5,39.6-25.9,49.2-42.8c-3.6,10.7-5.9,24.9,0.5,35.1c6.6,10.5,20.9,9.2,30,3.1c11-7.3,18.8-18.9,25.2-30.1
		C1174.6,235.8,1190.5,209.3,1185.5,206.9C1183.8,206.1,1187.2,207.7,1185.5,206.9z"/>
</g>
</svg>
