<?xml version="1.0" encoding="utf-8"?>
<!-- Generator: Adobe Illustrator 18.0.0, SVG Export Plug-In . SVG Version: 6.00 Build 0)  -->
<!DOCTYPE svg PUBLIC "-//W3C//DTD SVG 1.1//EN" "http://www.w3.org/Graphics/SVG/1.1/DTD/svg11.dtd" [
	<!ENTITY ns_extend "http://ns.adobe.com/Extensibility/1.0/">
	<!ENTITY ns_ai "http://ns.adobe.com/AdobeIllustrator/10.0/">
	<!ENTITY ns_graphs "http://ns.adobe.com/Graphs/1.0/">
	<!ENTITY ns_vars "http://ns.adobe.com/Variables/1.0/">
	<!ENTITY ns_imrep "http://ns.adobe.com/ImageReplacement/1.0/">
	<!ENTITY ns_sfw "http://ns.adobe.com/SaveForWeb/1.0/">
	<!ENTITY ns_custom "http://ns.adobe.com/GenericCustomNamespace/1.0/">
	<!ENTITY ns_adobe_xpath "http://ns.adobe.com/XPath/1.0/">
]>
<svg version="1.1" id="Layer_1" xmlns:x="&ns_extend;" xmlns:i="&ns_ai;" xmlns:graph="&ns_graphs;"
	 xmlns="http://www.w3.org/2000/svg" xmlns:xlink="http://www.w3.org/1999/xlink" x="0px" y="0px" viewBox="0 293 612 206"
	 enable-background="new 0 293 612 206" xml:space="preserve">
<metadata>
	<sfw  xmlns="&ns_sfw;">
		<slices></slices>
		<sliceSourceBounds  height="189.3" width="603" x="4.1" y="300.2" bottomLeftOrigin="true"></sliceSourceBounds>
	</sfw>
</metadata>
<g>
	<path fill="#F8F7F3" d="M183,327.3c-8.4-9.2-21.5-13.7-33.2-16.8c0.8-1.6,2.7-3,4.1-4c1.1-0.8,3.3-1.7,3.6-3.3
		c0.5-2.6-8.4,2-9.2,2.5c-1.8,1.1-3.8,3.6-5.9,3.2c-2.5-0.5-5-1-7.4-1.3c-5.6-0.9-11.3-1.5-16.9-1.8c-21.3-1.3-44.5-0.2-64.6,7.6
		c-17.3,6.7-37.6,21.3-37.6,42c0,9.8,6.3,17.7,14.9,21.6c9.6,4.4,20.6,3.6,29.2-2.8c3.7-2.8,6.8-6.4,8.8-10.6
		c0.7-1.4,3.9-9.1,0.1-9.1c-2.3,0-1.7,2.4-2.1,3.9c-0.7,2.1-1.7,4.2-3,6c-2.8,3.9-6.5,7-10.8,9c-7.8,3.6-18.9,2.8-25-3.9
		c-6.4-7.1-4-17.4,0.2-25c9.7-17.3,29.9-26.4,48.5-30.1c20.7-4.1,42.3-4.8,63.1-1.3c-8.2,9.4-16.7,18.6-23.7,29
		c-12.5,18.7-22,39.5-33.2,59.1c-2.6,4.5-5.2,8.9-8.2,13.1c-1.4,1.9-2.9,3.8-4.6,5.7c-0.8,0.9-1.5,1.7-2.4,2.6
		c-1.3,1.4-1.8,2.8-3.7,1.8c-9.1-4.4-17.7-10.5-27.4-13.3c-8.5-2.5-18.9-2.7-26.3,2.9C2,420.2,2.1,431.5,10,438
		c7.3,6,18.6,6.6,27.6,5.8c10.4-0.9,20.3-4.9,28.8-10.8c1.3-0.9,1.6-1.7,3.1-1.1c1,0.5,2.1,0.9,3.1,1.3c2.3,0.9,4.6,1.7,6.9,2.6
		c4.7,1.6,9.5,3,14.4,4.1c10,2.3,20.7,4.3,31,3.9c19.2-0.8,44.1-9.1,52.8-27.9c4.1-8.9,3.6-20.4-2.9-28c-6.7-7.9-16.5-12.4-26-15.8
		c-0.7-0.3-1.5-0.5-2.2-0.7c12.1-0.4,25.9-3.9,34.7-12.8C189.9,349.8,191.6,336.6,183,327.3C179.7,323.7,186.4,331,183,327.3z
		 M46.5,436.1c-7.2,2.6-16.7,4-24,1.2c-7.1-2.8-11.6-12.1-5.9-18.5c5.3-5.8,14.1-4.1,20.6-1.7c8.3,3.1,16.2,7.2,24.2,11.1
		C56.8,431.5,51.8,434.2,46.5,436.1S51.8,434.2,46.5,436.1z M178,338.7c-0.5,9.9-8.9,18.3-17,23.1c-4.3,2.5-9.2,4.4-14.2,4.7
		c-5.6,0.3-11.1-0.6-16.7-0.8c-2.8-0.2-9.5-1-9.5,3.3c1.6,3.3,9.6,4.6,12.7,5.6c9.3,3,20.2,5.4,27.4,12.4
		c16.4,15.8-0.1,38.4-16.1,46.2c-18.7,9.2-40.3,5.7-59.5-0.1c-4.4-1.3-8.8-2.9-12.9-4.7c10.4-9.4,18.4-20.5,25.9-32.3
		c8.7-13.8,16.8-28,25.1-42.1c4-6.9,8-13.9,12.3-20.7c2.1-3.4,4.2-6.8,6.5-10c0.9-1.4,1.9-2.8,2.9-4.2c1.1-1.6,2-4.2,4.1-3.7
		C160.6,318,178.7,323.8,178,338.7C177.8,342.1,178.1,335.3,178,338.7z"/>
	<path fill="#F8F7F3" d="M221.9,372.5c8.4,0,12.1-14.1,2.3-14.1C215.6,358.3,212.2,372.5,221.9,372.5z"/>
	<path fill="#F8F7F3" d="M225.3,425.1c2.8-4,5.1-8.3,7.2-12.7c0.5-1.1,5.7-10.3,2.6-10.1c-1.4,0.1-2.4,3.3-2.9,4.3
		c-1.2,2.4-2.5,4.8-3.8,7.2c-2.5,4.6-5,9.1-8.3,13.2c-2.3,2.9-5.6,6.5-9.6,6.5c-4.6,0.1-5.7-3.5-5.3-7.5c0.5-4,2.5-7.8,4-11.5
		c3.7-8.7,7.5-17.4,11.2-26.1c1-2.4,4.3-7.8,0.6-8.8c-3.8-0.9-8.4-0.2-12.3-0.1c3.7,5,0.9,9.3-1.1,14.3c-2.3,5.8-4.6,11.7-6.9,17.5
		c-2.6,6.5-5.6,14.5-1.6,21c2.8,4.6,8.8,5.7,13.7,4C218,434.7,222.2,429.6,225.3,425.1C227.6,421.7,222.9,428.5,225.3,425.1z"/>
	<path fill="#F8F7F3" d="M316.2,402.5c-2.8-1.1-7.6,12.5-8.7,14.4c-4.1,6.8-9.4,12.1-15.8,16.7c3.6-13.6,4.6-27.9,2.3-41.8
		c-1.5,1.2-3.7,0.8-5.5,1.2c-2,0.5-3.5,1.8-4.4,3.6c-2.1,4.5-3.5,9.1-6,13.5c-4.3,7.5-11.3,19.1-20.3,21.6
		c-11.9,3.2-7-13.8-4.7-18.8c4.3-9.5,10.9-18.6,18.8-25.5c6.3-5.6,18-12.6,22.3-1.1c1.5,4.3,5.9,0.7,3.8-2.8c-2.3-3.9-8-6.2-12.2-7
		c-21.6-3.8-38.7,19.5-43.5,38.1c-1.4,5.5-1.9,12.6,1.8,17.4c3.6,4.7,9.9,6.3,15.2,3.7c11.2-5.4,18.5-18.4,23.9-29
		c1,3.9,0.3,8.7-0.1,12.7c-0.5,5.6-1.3,11.2-2.9,16.6c-0.4,1.3-0.8,2.6-1.2,3.9c-1.1,0.5-2.3,0.9-3.4,1.3c-2.3,0.9-4.7,1.7-7,2.5
		c-5.3,1.7-10.6,3.5-15.8,5.5c-9.4,3.6-19.3,7.8-27,14.6c-5.9,5.3-10.3,14.1-5.7,21.7c4,6.5,13.9,6.5,20.5,5.3
		c10.1-1.9,19.1-8.6,26.3-15.7c7.6-7.5,13.6-16.4,18.4-25.9c1.1-2.3,2.2-4.5,3.1-6.8c0.5-1.1,0.9-2.1,1.3-3.3
		c1.2-0.6,2.3-1.1,3.4-1.8c4.5-2.7,8.2-6.3,11.3-10.5C306.2,424.7,319,403.7,316.2,402.5z M267.6,462.4c-6.6,8.8-13.9,17-23.9,22
		c-4.7,2.3-10.1,4.4-15.4,3.7c-5.4-0.8-7-5.5-5.5-10.4c3.2-10.4,13-16.2,22.3-20.5c10.4-4.9,21.6-8.1,32.4-12.1
		C274.9,451.2,271.5,456.9,267.6,462.4C265.2,465.5,271.8,456.4,267.6,462.4z"/>
	<path fill="#F8F7F3" d="M360.2,433.7c7.8-6.6,12.7-15.7,17.2-24.7c0.8-1.7,2.2-3.7,2.5-5.6c0.2-1.6-1.6-1.9-2.5-0.7
		c-2.8,3.8-4.5,8.7-6.9,12.8c-3.4,5.7-11.6,20.8-20.3,17.4c-10.9-4.2-1.1-19,2.7-24.8c4.3-6.4,13.8-17.3,7.3-25.3
		c-7.3-9-18.3-1.1-23.6,5.4c-3.1,3.8-5.8,8-8.1,12.4c-1.2,2.2-2.3,4.5-3.4,6.8c-0.8,1.6-2.7,4.1-2.5,6c0.3,2.3,2.5,0.5,3-0.6
		c0.9-1.8,1.8-3.6,2.8-5.4c2.6-5,5.3-9.8,8.5-14.3c2.2-3.1,4.8-6.5,7.9-8.6c2.8-1.8,7.7-2.3,8.8,1.7c1,3.8-2.2,8.6-4.1,11.6
		c-2.5,4-5.2,7.9-7.7,12c-3.9,6.3-7.9,15.2-3.2,22.2C343.5,439,354.3,438.7,360.2,433.7C363.1,431.3,357.4,436.1,360.2,433.7z"/>
	<path fill="#F8F7F3" d="M460.1,402.8c-2.1-1-5.3,6.9-5.9,8.2c-2.4,4.6-4.9,9.2-8,13.4c-6,8-14.6,13-24,16
		c4.2-11.5,7.9-23.1,12-34.6c3.3-9.2,6.3-22,15.1-27.7c-2.9,0-5.8,0-8.7,0c-6.7,0-7.8,5-10.4,10.1c-6.5,12.9-13.7,26.4-23.1,37.5
		c-2.1,2.5-10,11.4-13.5,5.8c-2.9-4.8,0.6-12.5,2.6-16.9c3.3-7.1,6.6-14.2,10.3-21.1c3.1-5.9,5.8-11.9,11.6-15.5
		c-4.2,0-12.8-1.5-16,1.9c-1.7,1.9-2.7,4.8-3.8,7.1c-1.4,2.9-2.9,5.7-4.4,8.6c-1.4,2.7-2.9,5.3-4.1,8.1c-0.7,1.6-3.8,5.7,0,5.7
		c-3.2,6.4-8,13.5-5.5,21.1c2,6.1,9.3,7.7,14.9,5.9c6.3-2,11.3-8.1,15.1-13.3c4.1-5.6,7.4-11.7,10.8-17.7
		c-2.9,9.8-6.2,19.6-10.1,29.1c-0.9,2.3-1.9,4.5-3.1,6.7c-0.5,1-1,2-1.6,3c-1.2,0.4-2.5,0.7-3.7,1c-5.5,1.5-11.1,2.9-16.7,4.2
		c-10,2.4-20.3,5.4-28.8,11.5c-7,4.9-15,15.9-9.8,24.7c4.9,8,18,6.8,25.6,4.5c9.8-3,18.1-10.1,24.7-17.7c7-8,12.5-17.2,17.8-26.5
		c9.2-3.2,18.5-7.2,25.3-14.3C447,429,463.7,404.5,460.1,402.8C459.3,402.4,460.9,403.2,460.1,402.8z M405,453
		c-5.7,9.7-14.1,18.7-22.8,25.7c-4.6,3.7-9.8,7.5-15.6,8.9c-4.2,1-10.4,1.2-12.2-3.7c-3.8-10.4,9.9-20.7,18-24.1
		c11.2-4.6,23.1-7.3,34.7-10.2C406.3,450.8,405.7,451.8,405,453C404.4,454.1,405.6,451.9,405,453z"/>
	<path fill="#F8F7F3" d="M532.3,401.6c-1.7-1.3-5,7.3-5.6,8.5c-2,4-4.1,8-6.7,11.7c-3.9,5.7-10.2,12.4-17.9,10
		c-7.3-2.3-9.7-10.8-10.3-17.5c-0.4-3.8-0.2-7.7,0.6-11.5c0.4-2.1,0.9-4.2,1.5-6.3c0.4-1.3,0.8-2.7,1.3-4c1-0.8,2-1.5,3.1-2.2
		c3.8-2.5,17.1-9.4,19.8-2c1.2,3.4,6.6-0.7,7.6-2.8c1.5-3.3,0.5-7-3.1-8.2c-7.7-2.5-16.7,2.8-22.6,7.3c-7.2,5.5-13.4,12.2-19,19.2
		c2.3-4.6,4.9-9.1,7.7-13.4c2.4-3.6,5.1-8.8,9-11c-2.9,0.5-5.5-0.8-8.3-0.7c-2.7,0.2-4.7,1.3-6.4,3.3c-4.1,5.1-6.9,11.6-9.9,17.4
		c-6.4,12.6-12.2,25.6-18.5,38.2c2.9-1.8,6.8-0.6,10-1.4c3.2-0.8,4.5-7.1,5.6-9.7c3.2-7.6,7.1-14.2,12.1-20.7
		c-1.4,6.8-1.1,16.5,2.7,22.5c4.8,7.7,12.6,10.1,21.3,8.6c7.7-1.4,13.4-8.8,17.3-14.9c1.9-3,3.7-6.1,5.3-9.4
		C529.5,410.9,534.5,403.2,532.3,401.6C531.6,401.1,533,402.1,532.3,401.6z"/>
	<path fill="#F8F7F3" d="M606.6,402.6c-2.3-1-5.7,8.5-6.5,10.1c-2.3,4.3-4.7,8.6-7.7,12.5c-2.4,3.1-5.7,7-9.9,7.6
		c-4.3,0.7-5.1-4.6-4.8-7.7c1.1-9.3,6.2-18.5,10.3-26.8c3.7-7.5,6.8-14.8,13.5-20.3c-2.9,0-5.8,0-8.7,0c-6.7,0-7.8,4.9-10.4,10.1
		c-6.4,13.1-12.8,27.3-22.5,38.4c-2.2,2.6-10.4,10.8-13,4.3c-2.2-5.3,1.1-12.4,3.3-17c3.1-6.3,6-12.8,9.3-19.1
		c2.9-5.6,6.1-13.7,12.2-16.7c-4.2,0-12.8-1.5-16,1.9c-1.7,1.9-2.7,4.8-3.8,7.1c-1.4,2.9-2.9,5.7-4.4,8.6c-1.4,2.7-2.9,5.3-4.1,8.1
		c-0.7,1.6-3.8,5.7,0,5.7c-2.8,5.5-6.3,10.8-6.1,17.2c0.2,5.6,3.5,9.7,9.2,10.3c11.7,1.3,20.3-13.3,25.2-21.9
		c-1.8,5.5-3,12.7,0.3,18c3.4,5.4,10.7,4.7,15.4,1.6c5.6-3.7,9.6-9.7,12.9-15.4C601,417.4,609.2,403.8,606.6,402.6
		C605.8,402.2,607.5,403,606.6,402.6z"/>
</g>
</svg>
