<?xml version="1.0" encoding="utf-8"?>
<!-- Generator: Adobe Illustrator 18.0.0, SVG Export Plug-In . SVG Version: 6.00 Build 0)  -->
<!DOCTYPE svg PUBLIC "-//W3C//DTD SVG 1.1//EN" "http://www.w3.org/Graphics/SVG/1.1/DTD/svg11.dtd" [
	<!ENTITY ns_extend "http://ns.adobe.com/Extensibility/1.0/">
	<!ENTITY ns_ai "http://ns.adobe.com/AdobeIllustrator/10.0/">
	<!ENTITY ns_graphs "http://ns.adobe.com/Graphs/1.0/">
	<!ENTITY ns_vars "http://ns.adobe.com/Variables/1.0/">
	<!ENTITY ns_imrep "http://ns.adobe.com/ImageReplacement/1.0/">
	<!ENTITY ns_sfw "http://ns.adobe.com/SaveForWeb/1.0/">
	<!ENTITY ns_custom "http://ns.adobe.com/GenericCustomNamespace/1.0/">
	<!ENTITY ns_adobe_xpath "http://ns.adobe.com/XPath/1.0/">
]>
<svg version="1.1" id="Layer_1" xmlns:x="&ns_extend;" xmlns:i="&ns_ai;" xmlns:graph="&ns_graphs;"
	 xmlns="http://www.w3.org/2000/svg" xmlns:xlink="http://www.w3.org/1999/xlink" x="0px" y="0px" viewBox="0 320 612 152"
	 enable-background="new 0 320 612 152" xml:space="preserve">
<metadata>
	<sfw  xmlns="&ns_sfw;">
		<slices></slices>
		<sliceSourceBounds  height="141.7" width="605.3" x="2.8" y="325.4" bottomLeftOrigin="true"></sliceSourceBounds>
	</sfw>
</metadata>
<g>
	<path fill="#F8F7F3" d="M183.1,397.5c-1.8,0-2.6,2.8-3.2,4.1c-2.1,4.3-4.6,8.4-7.3,12.4c-4.1,6-10.9,15.9-19.1,16
		c-8,0.2-6.2-12.7-5.3-17.4c1.9-11.2,5.9-22.1,9.5-32.8c3.5-10.6,8-20.8,13.6-30.5c1.4,0.2,2.8,0.4,4.2,0.7
		c5.6,0.8,19.4,2.2,19.4-6.8c0-1.1-1.5-4.7-2.7-2.2c-0.8,1.7,0,3.2-2.1,4.3c-3.8,2.1-9.3,1.3-13.4,0.7c-1-0.1-2-0.3-3-0.4
		c2-3.1,4.3-6.1,6.9-8.7c0.6-0.6,3.6-2.2,3.6-2.8c0-0.9-5,0.5-5.5,0.6c-5.2,1.4-9.1,5.1-12.3,9.6c-7-1.5-13.9-3.5-20.6-5.7
		c1.3-1.3,2.5-2.7,3.9-3.9c0.6-0.5,1.3-1.1,2-1.5c1-0.7,1.3-0.1,2.4,0c3.5,0.3,1.3-6.2-1.8-4.3c-2.7,0-5.6,3.4-7.4,5.2
		c-1,1.1-2.1,2.2-3,3.4c-1.1-0.3-2.2-0.7-3.3-1c-6.7-2.2-13.2-4.5-20-6.5c-13.7-4-28.4-6.9-42.5-3.5c-12.6,3.1-24.1,11.2-28.4,23.8
		c-4.1,12.3,0.4,26.4,12.9,31.4c8.3,3.2,18.1,1.4,24.7-4.5c3.2-2.8,5.6-6.5,6.7-10.6c0.3-1.1,1.3-4-0.3-4.7c-1.3-0.5-1.9,0.5-2,1.5
		c-0.7,7.9-9.9,14.8-17.1,16.2c-7.8,1.5-16.7-2.4-18.9-10.4c-2.2-8.4,2.3-17.4,8-23.4c5.9-6.2,14-10.4,22.3-12.2
		c9.2-1.9,18.8-0.9,27.9,0.4c9.4,1.3,18.6,3.5,27.6,6.3c-2.8,3.5-4.4,8.1-6.3,12.2c-2.2,4.7-4.4,9.3-6.6,14
		c-4.8,10.3-9.7,20.6-15.3,30.5c-5.3,9.3-11.1,18-19.3,24.9c-7.8,6.7-17.1,11.1-27.1,13.4c-17.7,4-38.7,0.6-50.4-14.5
		c-5.6-7.2-7.7-16.3-6.6-25.3c0.5-4.5,1.7-8.7,4.4-12.4c2.6-3.5,6-5.4,9.2-8.2c1.3-1.1,1.8-3.4-0.6-3.5c-1.8,0-3.5,0.8-5,1.7
		c-3.3,1.9-6.2,4.9-8.1,8.2c-4.2,7.1-5.7,17.3-4.6,25.4c2.5,18.9,18.5,29.7,36,33.4c18.2,3.9,39,1.1,55-8.7
		c15.8-9.7,23.6-27.3,29.9-43.9c3.6-9.5,6.7-19.1,10.5-28.5c1.9-4.6,4.1-9.1,6.6-13.4c0.6-1,1.2-2,1.8-3.1c0.8-1.3,0.6-1,1.8-0.5
		c1.7,0.7,3.3,1.3,5,2c4.6,1.7,9.4,3,14.2,4c-2.5,4.3-4.5,8.9-6.4,12.9c-7.1,15.2-13.7,31.8-17.5,48.2c-1.7,7.2-3,19,4.1,23.9
		c7.4,5.1,18.2-2.2,23.3-7.5c6.3-6.6,10.9-15.5,14.8-23.7C182.6,401.3,184.8,397.5,183.1,397.5z"/>
	<path fill="#F8F7F3" d="M241.6,402.8C241.8,402.3,241.7,402.5,241.6,402.8c0.4-0.9,0.7-3.6-1-2.4c-0.9,0.7-1.4,2.2-2,3.2
		c-1.6,3.1-3.2,6.2-5.1,9.3c-1.8,2.9-8,14.4-12.8,12.2c-1.9-0.9-1.3-4.6-1-6.2c0.5-3.6,1.8-7.1,3.2-10.4c2.5-5.9,5.6-13.3,10.2-17.9
		c-3.4,0.6-6.8-1.8-9.9,0.4c-2.2,1.6-3.7,4.7-4.9,7.1c-3.7,6.8-7.5,13.6-12.3,19.7c-2.3,2.9-6.1,7.1-10.2,7.1c-3.7,0-3.8-4.4-3.4-7
		c1.2-8.5,6.9-16.9,12.3-23.4c4.2-5,13.2-15.5,20.8-11.5c1.7,0.9,2.7,2.5,3.1,4.2c1.5,0.2,3.1-0.9,2.5-2.6c-1.1-3.4-6.2-5.3-9.3-5.8
		c-18.1-2.5-32.8,17.5-35.5,33.3c-1.1,6.4,0.1,18.3,9.4,16.4c7.8-1.6,13.8-11.5,17.6-17.8c-1.2,4.2-2.2,9.1-0.5,13.3
		c1.8,4.5,7,5.8,11.1,3.5C232.5,422.9,237.6,411.2,241.6,402.8z"/>
	<path fill="#F8F7F3" d="M301.4,400.3c-1.1,0.8-1.7,2.8-2.2,4c-2.2,4.4-4.5,8.6-7.3,12.6c-2.2,3.1-5.1,7.5-9,8.7
		c-8.7,2.7-1.1-15,0-17.4c3.9-8.7,8.4-17.1,13-25.4c-3.5-1.1-8.1,1.6-11.1,3.1c-3.6,1.8-7.1,4-10.3,6.5
		c-6.2,4.5-11.5,10.2-16.2,16.2c2.5-6.6,5.3-14.1,5.7-21.3c0.1-2,0.6-7.1-2.5-6.8c-3.2,0.2-6.2,0.8-9.4,1.3
		c4.8,1.1,0.5,14.1-0.4,16.6c-0.9,2.4-2,4.9-3.2,7.2c-1.2,2.6,2.7-0.4,3.2-1.3c-2.5,11.5-8.8,22.8-14,33.3
		c-2.8,5.6-5.8,11.2-8.8,16.8c-2,3.7-4,8.6-7.1,11.6c3.4-0.6,6.6,1.7,10.1,0.2c2.6-1.1,4.1-4.4,5.2-6.7c2.9-7.1,5.8-14.3,8.7-21.5
		c3.8-9.4,7.3-18.8,13.2-27.1c4.4-6.2,10.6-13.2,17.3-16.9c1-0.5,3.7-2.1,4.6-0.5c0.8,1.4-0.5,3.7-1.2,4.9
		c-2.2,3.6-4.6,7.3-6.4,11.2c-2.7,5.8-5.3,17.1,3.3,19.5c9.1,2.5,15.9-7.6,19.9-14.3c2.2-3.7,4.1-7.7,6-11.6
		C302.8,402.1,303.2,399.1,301.4,400.3z"/>
	<path fill="#F8F7F3" d="M383.7,402.8C383.9,402.3,383.9,402.5,383.7,402.8c0.4-0.9,0.7-3.7-1.1-2.5c-0.9,0.7-1.4,2.3-1.9,3.3
		c-1.8,3.6-3.5,7.2-5.7,10.6c-1.3,2.1-12.1,17.3-14.9,9.9c-1-2.7,0.2-6.2,1-8.7c1.3-3.9,3-7.6,4.7-11.3c3.3-7.3,7.2-14.4,11.1-21.5
		c-3.4-1.1-8.2,1.7-11.1,3.1c-3.6,1.8-7.1,4-10.3,6.5c-6.2,4.5-11.3,10.2-16.1,16.2c2.9-6,6.6-11.7,9.4-17.8c1-2.2,2.5-5.3,0-7.2
		c-2-1.5-4.4-0.8-6.4,0.2c-5.5,2.8-10,7.5-14.6,11.5c-4.5,4-8.6,8.5-12.4,13.3c2.5-5.2,5.2-10.2,8.2-15.1c2.2-3.6,4.9-9.1,8.8-11.2
		c-4.5,0.8-8.4-2.2-12,2.2c-3.2,4-5.4,9-7.7,13.5c-5.3,10.4-9.9,21.1-15.1,31.5c2.2-1.3,5.1-0.6,7.5-1c2.6-0.5,3.6-4.2,4.7-6.2
		c2.8-5,5.8-10,9.3-14.6c2.7-3.4,5.5-6.5,8.6-9.4c2.2-2,4.7-4.9,7.6-5.7c3.5-1-0.6,7.6-1.1,8.6c-1.8,4.2-4,8.3-5.8,12.5
		c-1.5,3.6-3.3,9.1-1.2,12.8c0.8,1.4,2.1,2.3,3.7,2.3c0.4-1.8,1.1-3.6,2-5.3c4-8.3,9.7-16,16-22.6c2.7-2.8,5.8-5.8,9.3-7.5
		c4.4-2.1,4.2,1.9,2.4,4.9c-4,6.6-9.7,14.6-8.9,22.7c0.4,4.2,2.6,7.4,6.9,8.2c4.3,0.8,8-1.3,11-4.1c6.3-5.9,10.2-14.1,13.9-21.8
		C383.6,403,383.6,402.9,383.7,402.8z"/>
	<path fill="#F8F7F3" d="M378.8,366.4C378,367.5,378.9,366.3,378.8,366.4L378.8,366.4z"/>
	<path fill="#F8F7F3" d="M331.2,375.6c1.2,0,1.3-0.2,2.1-1c1.4-1.5,3.3-2.7,5.3-3.1c4.7-0.8,9.7,1.1,14.1,2.4c4.9,1.4,10,2.9,15,1.3
		c4.7-1.5,8.4-4.8,11.1-8.8c0.1-0.1-3.4-0.9-3.4-0.1c-1.3,1.7-3.3,3.2-5.4,3.8c-4.9,1.3-10.4-0.9-15.1-2.2
		c-4.9-1.4-10.3-2.6-15.3-1.1c-4.2,1.3-8.2,4.7-10.9,8.1C328.6,375.6,330.8,375.6,331.2,375.6z"/>
	<path fill="#F8F7F3" d="M440,402.2c-1.4,2.9-2.9,5.8-4.4,8.6c-2.6,4.6-8,15.6-14.6,14.7c-6.4-0.9-0.5-14.1,0.9-17
		c2.5-5.2,5.2-10.2,8.2-15.1c2.2-3.6,4.9-9.1,8.8-11.2c-3.4,0.6-6.7-1.6-10,0.3c-2.2,1.3-3.6,4-4.8,6.1c-2.6,4.5-4.9,9.1-7.2,13.7
		c-0.4,0.5-0.9,0.9-1.4,1.1c-2.4,0.9-5.4-0.9-7.5-1.8c-2.1-0.9-4.9-1.4-7-0.4c1.4-2.6,2.9-5.2,4.4-7.8c2.2-3.6,4.9-9.1,8.8-11.2
		c-4.5,0.8-8.4-2.2-12,2.2c-3.2,4-5.4,9-7.7,13.5c-5.3,10.5-10.1,21.3-15.4,31.8c2.1-1.3,5.1-0.6,7.5-1c2.7-0.4,3.4-3.9,4.4-6.1
		c2-4.6,4.1-9.3,6.2-13.8c0,0,0-0.1,0.1-0.2c0.6-1.2,0.5-1,0.3-0.6c0.3-0.5,0.5-1.1,0.8-1.6c0.9-0.8,1.8-1.9,2.8-2
		c2.8-0.4,5.2,1.5,7.7,2.3c2.3,0.8,4.4,0.6,6.2-0.2c-0.3,0.7-0.6,1.4-1,2.1c-1.6,3.4-3.4,6.5-2.9,10.4c0.3,2.8,1.1,5.8,3.1,7.9
		c5.3,5.6,12.5,0.3,16.4-4.2c4.9-5.6,8.3-12.4,11.5-19C443.3,400.6,441.6,398.8,440,402.2z M419.4,400.7
		C419.6,400.5,418.8,402.3,419.4,400.7L419.4,400.7z"/>
	<path fill="#F8F7F3" d="M396.9,408.6c-0.1,0.1,0.2-0.4,0.4-0.8c-0.1,0.2-0.2,0.4-0.3,0.6C396.9,408.5,396.9,408.6,396.9,408.6z"/>
	<path fill="#F8F7F3" d="M472,398.7c0.1-0.1,0.2-0.2,0.3-0.2c0.2-0.2,0.4-0.3,0.6-0.5C472.7,398.1,471.9,398.8,472,398.7z"/>
	<path fill="#F8F7F3" d="M486.4,403.6c0,0,0.1-0.2,0.5-1.1c1.1-2.2-0.9-2.7-2.1-1c-1.2,1.7-1.9,3.9-2.8,5.8
		c-2.2,4.4-4.6,8.6-7.9,12.2c-4.3,4.7-16,11.8-19.1,2c-1.3-4.1-0.4-8.9,0.8-12.9c0.7-2.1,2.2-1.5,4.2-1.9c1.9-0.4,3.9-1,5.8-1.7
		c7.5-2.7,15.1-8.5,17.4-16.4c1.3-4.5-0.6-8.6-5.4-9.5c-4.1-0.8-8.4,0.9-11.9,3.1c-7.5,4.7-13,12.2-16.4,20.2
		c-2.9,6.7-5.5,17.2,0.5,23c6.1,5.8,16.1,4.5,22.3-0.4C479.4,419.6,482.9,411.3,486.4,403.6z M474.1,383.5c1.2-0.8,3.5-2.3,5-1.2
		c1.5,1.1,0.9,4,0.4,5.4c-1.1,4-3.7,7.5-6.7,10.3c0.1,0,0,0-0.6,0.5c-0.2,0.1-0.3,0.2-0.3,0.2c-4,3.1-9.4,5.9-14.5,5.9
		C461.4,396.9,466.8,388.4,474.1,383.5z"/>
	<path fill="#F8F7F3" d="M486.9,402.5c-0.2,0.4-0.3,0.7-0.5,1.1C486.5,403.5,487.1,402,486.9,402.5z"/>
	<path fill="#F8F7F3" d="M546.6,400.3c-1.1,0.8-1.7,2.8-2.2,4c-2.2,4.4-4.5,8.6-7.3,12.6c-2.2,3.1-5.1,7.5-9,8.7
		c-8.7,2.7-1.1-15,0-17.4c3.9-8.7,8.4-17.1,13-25.4c-3.5-1.1-8.1,1.6-11.1,3.1c-3.6,1.8-7.1,4-10.3,6.5
		c-6.2,4.5-11.5,10.2-16.2,16.2c2.5-6.6,5.3-14.1,5.7-21.3c0.1-2,0.6-7.1-2.5-6.8c-3.2,0.2-6.2,0.8-9.4,1.3
		c4.8,1.1,0.5,14.1-0.4,16.6c-0.9,2.4-2,4.9-3.2,7.2c-1.2,2.6,2.7-0.4,3.2-1.3c-2.5,11.5-8.8,22.8-14,33.3
		c-2.8,5.6-5.8,11.2-8.8,16.8c-2,3.7-4,8.6-7.1,11.6c3.4-0.6,6.6,1.7,10.1,0.2c2.6-1.1,4.1-4.4,5.2-6.7c2.9-7.1,5.8-14.3,8.7-21.5
		c3.8-9.4,7.3-18.8,13.2-27.1c4.4-6.2,10.6-13.2,17.3-16.9c1-0.5,3.7-2.1,4.6-0.5c0.8,1.4-0.5,3.7-1.2,4.9
		c-2.2,3.6-4.6,7.3-6.4,11.2c-2.7,5.8-5.3,17.1,3.3,19.5c9.1,2.5,15.9-7.6,19.9-14.3c2.2-3.7,4.1-7.7,6-11.6
		C548,402.1,548.4,399.1,546.6,400.3z"/>
	<path fill="#F8F7F3" d="M607.9,403c0.3-0.7,0.7-3.8-1.1-2.5c-1.3,0.9-2.1,3.7-2.8,5.1c-1.8,3.7-3.8,7.3-6,10.7
		c-2,3.1-4.7,6.7-8.1,8.2c-3.2,1.4-5.6-0.7-5.7-4c-0.1-7.2,4.3-14.7,7.3-21.1c3.3-6.9,6.2-14,12.2-18.9c-2.4,0-4.9,0-7.3,0
		c-5.4,0-6.5,4.6-8.5,8.8c-5.3,10.8-10.6,22.5-18.8,31.5c-2.3,2.6-9.3,7.9-10.3,1.3c-0.8-4.9,1.8-9.8,3.8-14.1
		c2.5-5.3,4.9-10.6,7.7-15.8c2.2-4.5,4.7-8.9,8.9-11.8c-3.7,0-11.2-1.3-13.6,2.2c-2.7,4-4.5,8.9-6.7,13.1c-1.1,2.1-2.2,4.3-3.2,6.4
		c-0.6,1.3-2.4,3.8,0.4,3.8c-2.2,4.4-5.2,8.9-5,14c0.1,4.5,2.9,7.9,7.5,8.4c9.5,1.1,16.5-10.8,20.5-17.8c-1.4,4.4-2.3,9.8-0.1,14.1
		c2.2,4.1,7.2,4.6,11.1,2.8c8.8-4,13.6-15.4,17.4-23.8C607.5,403.9,607.5,403.9,607.9,403z"/>
	<path fill="#F8F7F3" d="M607.9,403c-0.1,0.2-0.2,0.4-0.3,0.7C607.7,403.3,608.3,402.1,607.9,403z"/>
</g>
</svg>
