<?xml version="1.0" encoding="utf-8"?>
<!-- Generator: Adobe Illustrator 18.0.0, SVG Export Plug-In . SVG Version: 6.00 Build 0)  -->
<!DOCTYPE svg PUBLIC "-//W3C//DTD SVG 1.1//EN" "http://www.w3.org/Graphics/SVG/1.1/DTD/svg11.dtd" [
	<!ENTITY ns_extend "http://ns.adobe.com/Extensibility/1.0/">
	<!ENTITY ns_ai "http://ns.adobe.com/AdobeIllustrator/10.0/">
	<!ENTITY ns_graphs "http://ns.adobe.com/Graphs/1.0/">
	<!ENTITY ns_vars "http://ns.adobe.com/Variables/1.0/">
	<!ENTITY ns_imrep "http://ns.adobe.com/ImageReplacement/1.0/">
	<!ENTITY ns_sfw "http://ns.adobe.com/SaveForWeb/1.0/">
	<!ENTITY ns_custom "http://ns.adobe.com/GenericCustomNamespace/1.0/">
	<!ENTITY ns_adobe_xpath "http://ns.adobe.com/XPath/1.0/">
]>
<svg version="1.1" id="Layer_1" xmlns:x="&ns_extend;" xmlns:i="&ns_ai;" xmlns:graph="&ns_graphs;"
	 xmlns="http://www.w3.org/2000/svg" xmlns:xlink="http://www.w3.org/1999/xlink" x="0px" y="0px" viewBox="0 324 612 144"
	 enable-background="new 0 324 612 144" xml:space="preserve">
<metadata>
	<sfw  xmlns="&ns_sfw;">
		<slices></slices>
		<sliceSourceBounds  height="133.7" width="607.3" x="3" y="329" bottomLeftOrigin="true"></sliceSourceBounds>
	</sfw>
</metadata>
<g>
	<path fill="#F8F7F3" d="M177.3,400.9c-1.6-0.6-5.9,9.4-6.7,10.7c-2.5,4.4-5.4,8.8-9.4,12c-2.8,2.3-7,2.9-8.5-1.2
		c-1.5-4.3-0.2-10,0.8-14.3c1-4.8,2.5-9.5,3.9-14.1c0.6-2.1,1.4-4.1,2.1-6.3c0.3-1.1,0.1-1.3,1.3-1.4c1.3-0.1,2.6-0.3,3.9-0.6
		c1.9-0.3,3.6-0.8,5.3-1.7c0.3-0.2,3.9-2.4,2.2-2.6c-1.5-0.2-3.8,0.8-5.4,1c-1.9,0.3-3.9,0.3-5.9,0.3c3.4-9.9,7.5-19.5,12.4-28.8
		c2.3-4.3,4.7-8.6,7.5-12.6c1.1-1.6,2.3-3.2,3.5-4.6c0.5-0.6,2.9-1.9,2.9-2.4c0-1.1-8.2,1.7-9.1,2.3c-3.2,2.4-5.5,6.3-7.6,9.7
		c-4.8,7.9-8.6,16.4-12.1,24.8c-1.5,3.5-2.9,7-4.2,10.6c-0.6,1.6-2.3,1-3.8,0.9c-2.4-0.1-4.8-0.3-7.2-0.4
		c-9.9-0.7-19.9-1.5-29.8-1.5c2.8-7.8,5.8-15.5,8.7-23.1c1.6-4.1,3.2-8,4.9-12c0.6-1.2,1.1-3.7,2.5-3.8c2.2-0.1,4.3-0.7,6.3-1.5
		c3.1-1.3,7-3.6,7-7.3c0-4.3-5.5-4.4-8.2-2.7c-3.2,2-5.4,5.4-7.4,8.5c-0.7,1-4.1,0.8-5.4,0.9c-2.5,0.2-5.1,0.3-7.7,0.4
		c-17.1,0.7-38,1.8-50.3,15.2c-5.5,6-8.9,15.2-7.1,23.2c1.7,7.6,7.9,13.9,15.8,14.8C80,394.2,87,390,91,384.1
		c1.9-2.9,3.2-6.3,3.3-9.9c0-1.8-0.3-3.7-0.9-5.4c-0.2-0.6-0.5-1.7-1.2-1.9c-0.8-0.3-1.4,0.3-1.1,1.1c4,11.4-11.3,31.1-22.8,20
		c-5.4-5.1-4.5-13.3-2.2-19.7c2.5-7,7.1-13,13.5-17c13.7-8.4,30.6-7.5,46-9.4c-6.1,12.3-12,24.8-17,37.6c-0.7,1.7-2.6,1-4.4,1
		c-2.6,0-4.8,1.2-6.7,2.9c-1.6,1.5-3.2,4.5,0.5,3.5c2.9-0.8,5.3-2.4,8.5-2.4C99.9,401.3,90,416.3,75,426.3
		c-14.3,9.6-33.3,15.3-50.1,9.4c-8-2.8-14.8-8.2-17.3-16.7c-2.2-7.8-0.2-16.6,4.6-23.1c1.1-1.5,2.3-2.9,3.7-4.1
		c1.3-1.1,2.9-1.7,4.1-2.7c1.6-1.3-0.8-1.3-1.6-1.2c-1.9,0.3-3.7,1.6-5.1,2.8C6,396.4,2.9,404.5,3,413.6
		c0.1,16.5,13.7,27.7,28.9,30.8c17,3.6,34.1-1.3,47.9-11.6c13.7-10.3,23.7-24.9,30.2-40.7c0.9-2,1.6-4.1,2.4-6.2
		c0.6-1.7,2.8-0.9,4.4-0.8c4.2,0.2,8.5,0.3,12.7,0.5c7.9,0.3,15.8,0.8,23.7,0.8c-2.5,7-5.1,14-6.9,21.2c-1.5,6-4.1,17.8,2.9,21.4
		c7.6,4.1,15.2-3.9,19.2-9.5C169.6,417.9,179.4,401.7,177.3,400.9z M132.8,336.9c0.7-0.9,5.7-6.4,6.2-2.4c0.3,3.2-5.7,4-7.6,4.4
		C131.8,338.1,132.3,337.5,132.8,336.9z"/>
	<path fill="#F8F7F3" d="M228.2,401c-1.5-0.6-7.5,11.8-8.4,13.3c-0.9,1.3-8.2,11.7-10.1,7c-1.6-4.2,1.4-10.5,3.1-14.3
		c2.1-4.7,4.6-10.5,8.2-14.2c-3.3,0.6-6.9-2-9.5,1.3c-2.6,3.2-4.3,7.1-6.3,10.7c-2.2,3.8-4.5,7.6-7.3,11c-1.9,2.5-5.9,7-9.5,6
		c-6.7-1.6,1.4-15.9,3.3-18.8c3.9-6.3,10.4-15.5,18.1-17.3c3.4-0.8,6.4,0.7,7.4,4.1c1.3,0.2,2.6-0.7,2.2-2.2
		c-0.6-1.7-2.9-3.2-4.4-3.9c-7.6-3.5-17.5,1.1-22.9,6.7c-5.7,6-10.3,14.2-11.1,22.6c-0.3,3.4,0,7.5,2.3,10.2
		c2.7,3.1,6.9,2.2,9.9,0.1c4.7-3.3,8.2-8.5,11.1-13.3c-1,3.7-1.9,8.2-0.2,11.9c2.1,4.4,7.3,4.2,10.8,1.5c3.6-2.9,6.3-7,8.7-11
		C224,411.2,229.9,401.7,228.2,401C227.6,400.8,228.7,401.3,228.2,401z"/>
	<path fill="#F8F7F3" d="M301.3,401.1c-1.5-0.7-3.9,5.8-4.5,6.9c-1.6,3.2-3.4,6.3-5.6,9c-1.6,2.1-3.8,4.6-6.6,5.1
		c-3,0.5-3.7-2.9-3.5-5.1c0.7-6.6,4.4-13.2,7.3-19c1.3-2.5,2.4-5.1,3.8-7.6c1.5-2.6,3.4-4.2,5.5-6.3c-2,0-3.9,0-5.9,0
		c-4.4,0-5.2,2.6-7,6.2c-4.4,9.1-8.9,18.9-15.4,26.8c-1.9,2.3-7,7.8-9.5,3.3c-1.9-3.3,0.8-8.9,2.1-12c2-4.8,4.4-9.5,6.7-14.2
		c0.9-1.8,1.7-3.6,2.9-5.3c1.3-1.9,2.9-3.2,4.6-4.8c-2,0-3.9,0-5.9,0c-4.8,0-5.6,3.3-7.4,7.2c-4.6,9.3-9.2,19.5-16.2,27.3
		c-1.6,1.8-6.9,6.4-8.4,2c-1.5-4.1,1.1-9,2.8-12.6c2.2-4.7,4.4-9.4,6.8-13.9c1.8-3.7,4-7.8,7.6-10c-3.1,0-9.5-1.1-11.6,1.8
		c-2.4,3.5-4.1,8-6,11.8c-0.6,1.3-5.3,8.1-2.1,8.1c-2.6,5.1-8.5,16.3,0.6,18.9c8.8,2.5,15.4-8.7,19-14.9c-1.8,5.4-2.2,16.4,6.5,15.2
		c6.8-0.9,12.2-9.7,15.1-15.2c-1.3,3.7-2,8.4-0.1,12c2.1,4.1,7.4,3.8,10.8,1.6c3.8-2.5,6.6-6.6,8.9-10.5
		C297.3,411.6,303.1,401.9,301.3,401.1C300.7,400.8,301.9,401.4,301.3,401.1z"/>
	<path fill="#F8F7F3" d="M277.7,430c-2.2-0.6-2.8,0.7-4.4,1.9c-1.3,1-2.8,1.6-4.4,1.7c-4.3,0.3-8.5-1.4-12.6-2.5
		c-8.4-2.2-15.5-0.7-21,6.4c0,0.7,3.2,0.8,3.5,0.3c1.1-1.5,2.8-2.6,4.5-3.1c4.5-1,9.5,1.1,13.7,2.3c4.1,1.2,8.2,2,12.4,0.4
		c1.8-0.7,3.4-1.6,4.8-2.9C274.7,434.2,278.4,430.3,277.7,430C277.4,430,278,430.1,277.7,430z"/>
	<path fill="#F8F7F3" d="M390.2,401c-1.4-0.6-3.4,4.6-3.8,5.6c-1.6,3-3.2,6-5.2,8.8c-1.7,2.5-3.8,5.4-6.6,6.8
		c-2,1.1-4.5,0.6-4.6-1.9c-0.3-5.7,3.2-11.7,5.5-16.8c2.8-5.9,6-11.7,9.2-17.4c-2.7-0.8-6.2,1.1-8.6,2.2c-3.2,1.6-6.2,3.4-9.1,5.5
		c-5.5,4-10.1,8.9-14.3,14.3c2.1-4.4,4.4-8.6,6.9-12.8c1.9-3.2,4.2-7.8,7.6-9.6c-3.6,0.6-7-1.9-9.9,1.5c-2.7,3.1-4.4,7.1-6.3,10.7
		c-4.8,9.3-9.1,19-13.8,28.3c1.8-1.1,4.4-0.6,6.4-0.9c2.4-0.3,3.3-3.8,4.3-5.6c2.5-4.6,5.3-9.1,8.6-13.2c3-3.8,6.4-7.4,10.4-10.2
		c1-0.7,3.6-2.5,4.9-1.4c1.7,1.6-1.9,6-2.6,7.3c-2.6,4.4-5.3,9-5.8,14.3c-0.6,5.7,3.1,10.3,9.1,9.2c5.4-1,9.3-6.8,12-11.1
		C385.1,413.1,392.1,401.9,390.2,401C389.6,400.7,390.8,401.2,390.2,401z"/>
	<path fill="#F8F7F3" d="M410.2,380.1c5.9,0,8.3-9.8,1.6-9.8C405.9,370.3,403.5,380.1,410.2,380.1z"/>
	<path fill="#F8F7F3" d="M412.5,416.7c1.1-1.6,9.3-14.5,7.2-15.7c-1.3-0.8-4.1,6.2-4.7,7.2c-1.7,3.2-3.5,6.4-5.7,9.3
		c-1.6,2-3.4,4.1-5.9,4.8c-2.9,0.9-4.9-1-4.9-3.8c0-3.1,1.5-5.9,2.7-8.7c2.6-6.2,5.3-12.3,7.9-18.5c0.6-1.6,3-5.4,0.7-6.2
		c-2.6-0.8-6.1-0.2-8.8-0.1c2.6,3.5,0.6,6.4-0.7,9.9c-1.6,4.1-3.2,8.2-4.8,12.4c-1.8,4.6-3.9,10.4-0.8,14.9
		C400,429.9,409,421.8,412.5,416.7C414.1,414.4,410.9,419.1,412.5,416.7z"/>
	<path fill="#F8F7F3" d="M475.7,401c-1.9-0.7-5.4,9.1-6.3,10.5c-2.8,4.5-6.4,8.1-10.7,11.2c2.5-9.4,3.2-19.4,1.6-29
		c-1.4,1.2-3.6,0.4-5.2,1.4c-1.5,1-1.9,2.5-2.4,4c-1.3,4-3.5,7.7-5.9,11.1c-2.3,3.4-4.9,6.7-8.2,9.2c-2.5,1.9-7.6,3.7-8.9-0.7
		c-2.9-9.7,21.2-42.7,29.5-31.3c0.7,1,1.1,3.6,2.5,3.8c1.7,0.3,2.1-1.8,1.6-3c-1.6-3.6-7.3-5.2-10.8-5.4c-8.9-0.5-16.2,5.5-21,12.4
		c-4.6,6.4-9.5,15.6-7.2,23.8c1,3.3,4.3,6,7.7,6.1c4.3,0.2,8.1-3.2,10.8-6c4.1-4.4,7.3-9.7,10.1-15c0.8,3,0.2,6.7-0.1,9.8
		c-0.4,4.1-1.1,8.2-2.4,12.2c-0.9,2.8-8.7,4-11.4,4.9c-4.1,1.4-8.2,2.9-12.1,4.6c-6.3,2.7-15.1,6.8-18.1,13.6
		c-2.4,5.4-0.4,11.7,5.5,13.3c15.7,4.1,30.2-11.7,37.3-23.8c2.1-3.6,4-7.3,5.5-11.1c0.6-1.6,3.2-2.3,4.6-3.4
		c1.5-1.1,2.9-2.4,4.1-3.8C467.4,418.5,478,402,475.7,401C475.1,400.8,476.3,401.3,475.7,401z M442,442.6
		c-4.3,5.7-9.1,11.3-15.5,14.6c-4.4,2.3-18.4,6.8-15.9-3.4c1.9-7.6,9.1-11.8,15.6-14.9c7.3-3.5,15.1-5.7,22.6-8.5
		C447,434.8,444.6,438.8,442,442.6C440.3,444.8,444.9,438.5,442,442.6z"/>
	<path fill="#F8F7F3" d="M524.5,401c-1.1-0.7-7.5,12-8.4,13.5c-2.1,3.2-9,11.7-13.2,6.4c-3.6-4.6-1.5-12,0.6-16.6
		c2.6-5.8,6.3-11.5,11-15.9c0.9,3.1,5,2.2,6.7,0.4c2.4-2.6,0.9-6.3-2.7-5.9c-3.2,0.3-5.9,3.8-7.8,6.1c-2.9,3.5-5.3,7.3-7.3,11.2
		c1-5.1,2.3-15.2-5.6-15.1c-7.3,0.1-11.4,10.8-14,16.1c-0.3,0.5-3.8,7.3-2,7c1-0.2,1.6-2.3,2.1-3c1.1-2,2.2-4,3.2-6
		c1.5-2.9,3-6.2,5.3-8.7c1.7-1.9,5-3.4,5.6,0.3c1.1,7.2-2.5,15.1-5.8,21.2c-2.8,5.3-7.7,14.6-14.8,14.6c-1.4,0-1.8-0.8-2.9-1.2
		c-1.1-0.5-2.4,1.3-1.6,2.2c2.4,2.4,6.1,1.9,8.9,0.5c6.3-3.1,10.5-11,13.6-17c-0.9,4.2,0.5,9.6,3.9,12.4c3.2,2.6,8.2,1.9,11.6-0.2
		c4.1-2.6,6.9-6.7,9.2-10.8C520.6,411.1,526.1,402,524.5,401C524,400.7,525,401.4,524.5,401z"/>
	<path fill="#F8F7F3" d="M546.8,416.7c1.1-1.6,9.3-14.5,7.2-15.7c-1.3-0.8-4.1,6.2-4.7,7.2c-1.7,3.2-3.5,6.4-5.7,9.3
		c-1.6,2-3.4,4.1-5.9,4.8c-2.9,0.9-4.9-1-4.9-3.8c0-3.1,1.5-5.9,2.7-8.7c2.6-6.2,5.3-12.3,7.9-18.5c0.6-1.6,3-5.4,0.7-6.2
		c-2.6-0.8-6.1-0.2-8.8-0.1c2.6,3.5,0.6,6.4-0.7,9.9c-1.6,4.1-3.2,8.2-4.8,12.4c-1.8,4.6-3.9,10.4-0.8,14.9
		C534.3,429.9,543.3,421.8,546.8,416.7C548.4,414.4,545.1,419.1,546.8,416.7z"/>
	<path fill="#F8F7F3" d="M544.5,380.1c5.9,0,8.3-9.8,1.6-9.8C540.1,370.3,537.8,380.1,544.5,380.1z"/>
	<path fill="#F8F7F3" d="M610,401c-1.9-0.7-5.4,9.1-6.3,10.5c-2.8,4.5-6.4,8.1-10.7,11.2c2.5-9.4,3.2-19.4,1.6-29
		c-1.4,1.2-3.6,0.4-5.2,1.4c-1.5,1-1.9,2.5-2.4,4c-1.3,4-3.5,7.7-5.9,11.1c-2.3,3.4-4.9,6.7-8.2,9.2c-2.5,1.9-7.6,3.7-8.9-0.7
		c-2.9-9.7,21.2-42.7,29.5-31.3c0.7,1,1.1,3.6,2.5,3.8c1.7,0.3,2.1-1.8,1.6-3c-1.6-3.6-7.3-5.2-10.8-5.4c-8.9-0.5-16.2,5.5-21,12.4
		c-4.6,6.4-9.5,15.6-7.2,23.8c1,3.3,4.3,6,7.7,6.1c4.3,0.2,8.1-3.2,10.8-6c4.1-4.4,7.3-9.7,10.1-15c0.8,3,0.2,6.7-0.1,9.8
		c-0.4,4.1-1.1,8.2-2.4,12.2c-0.9,2.8-8.7,4-11.4,4.9c-4.1,1.4-8.2,2.9-12.1,4.6c-6.3,2.7-15.1,6.8-18.1,13.6
		c-2.4,5.4-0.4,11.7,5.5,13.3c15.7,4.1,30.2-11.7,37.3-23.8c2.1-3.6,4-7.3,5.5-11.1c0.6-1.6,3.2-2.3,4.6-3.4
		c1.5-1.1,2.9-2.4,4.1-3.8C601.6,418.5,612.3,402,610,401C609.4,400.8,610.6,401.3,610,401z M576.2,442.6
		c-4.3,5.7-9.1,11.3-15.5,14.6c-4.4,2.3-18.4,6.8-15.9-3.4c1.9-7.6,9.1-11.8,15.6-14.9c7.3-3.5,15.1-5.7,22.6-8.5
		C581.3,434.8,578.9,438.8,576.2,442.6C574.6,444.8,579.2,438.5,576.2,442.6z"/>
</g>
</svg>
