<?xml version="1.0" encoding="utf-8"?>
<!-- Generator: Adobe Illustrator 18.0.0, SVG Export Plug-In . SVG Version: 6.00 Build 0)  -->
<!DOCTYPE svg PUBLIC "-//W3C//DTD SVG 1.1//EN" "http://www.w3.org/Graphics/SVG/1.1/DTD/svg11.dtd">
<svg version="1.1" id="Layer_1" xmlns="http://www.w3.org/2000/svg" xmlns:xlink="http://www.w3.org/1999/xlink" x="0px" y="0px"
	 viewBox="0 0 40 40" enable-background="new 0 0 40 40" xml:space="preserve">
<g>
	<path d="M24.8,13h-9.6C14,13,13,14,13,15.2v9.6c0,1.2,1,2.2,2.2,2.2h9.6c1.2,0,2.2-1,2.2-2.2v-9.6
		C27,14,26,13,24.8,13z M23.3,14.6l1.8,0h0c0.2,0,0.3,0.1,0.3,0.3v1.8c0,0.2-0.1,0.3-0.3,0.3l-1.8,0c-0.2,0-0.3-0.1-0.3-0.3l0-1.8
		C23,14.8,23.1,14.6,23.3,14.6z M17.9,18.8c0-0.1,0.1-0.2,0.1-0.2c0.4-0.6,1.2-1,2-1c0.8,0,1.6,0.4,2,1c0.1,0.1,0.1,0.2,0.1,0.2
		c0.2,0.4,0.3,0.8,0.3,1.2c0,1.4-1.1,2.5-2.5,2.5c-1.4,0-2.5-1.1-2.5-2.5C17.5,19.6,17.7,19.2,17.9,18.8z M25.6,24.3
		c0,0.7-0.6,1.3-1.3,1.3h-8.6c-0.7,0-1.3-0.6-1.3-1.3v-5.7h2.1c-0.1,0.1-0.1,0.3-0.1,0.4c-0.1,0.3-0.1,0.7-0.1,1
		c0,2.1,1.7,3.8,3.8,3.8c2.1,0,3.8-1.7,3.8-3.8c0-0.4-0.1-0.7-0.1-1c0-0.1-0.1-0.3-0.1-0.4h2.1V24.3z"/>
</g>
</svg>
