<?xml version="1.0" encoding="utf-8"?>
<!-- Generator: Adobe Illustrator 18.0.0, SVG Export Plug-In . SVG Version: 6.00 Build 0)  -->
<!DOCTYPE svg PUBLIC "-//W3C//DTD SVG 1.1//EN" "http://www.w3.org/Graphics/SVG/1.1/DTD/svg11.dtd">
<svg version="1.1" xmlns="http://www.w3.org/2000/svg" xmlns:xlink="http://www.w3.org/1999/xlink" x="0px" y="0px"
	 viewBox="0 0 48.1 69.8" enable-background="new 0 0 48.1 69.8" xml:space="preserve">
<g id="Banner">
</g>
<g id="Number_of_the_wedding">
</g>
<g id="Social">
</g>
<g id="Share_and_comment">
</g>
<g id="See_also">
</g>
<g id="Step_3">
</g>
<g id="Step_2">
</g>
<g id="Step_1">
	<g>
		<path fill="#8D6E63" d="M31.2,10.4c4.6,0.4,6.7,3.1,7.3,7.7c0.1,0.1,0.2,0.2,0.3,0.2c3.4,0.6,5,3,5.6,6.2c0.1,0.6,0.1,1.1,0.2,1.7
			c0.1,0.6,0.3,1.1,0.9,1.5c2.2,1.1,3.1,3.7,2.4,6.5c-0.2,0.8-0.5,1.6-0.3,2.5c0.2,1-0.6,2-1.5,2.4c-1.4,0.7-1.7,1.9-1.9,3.3
			c-0.6,4.8-1.4,9.6-2.1,14.4c-0.2,1.4-0.2,2.9-0.5,4.3c-0.3,1.4-0.7,2.8-1.3,4.1c-0.6,1.4-1.9,2.1-3.2,2.7c-3.1,1.4-6.4,2-9.8,2
			c-3.6,0-7.3,0-10.9-0.9c-1.8-0.4-3.5-1.2-5.3-1.8c-0.1,0-0.2-0.2-0.3-0.2c-2.4-0.6-2.9-2.4-3.2-4.4C7,59,6.4,55.5,5.7,52.1
			C5,48.3,4.3,44.6,3.5,40.8c-0.1-0.4-0.3-0.8-0.6-1c-4.2-2.5-3.5-9.2,0.2-11.9c0.6-0.4,1.2-0.9,1.9-1.4c0-0.2,0.1-0.4,0.1-0.7
			c-0.6-4.1,1.2-7.1,4.2-9.5c2.5-0.5,3.4-2.8,5.2-4.5c-0.4-0.6-0.8-1.2-1.1-1.8c-0.6-1.2-1.3-2.4-1.8-3.7c-0.9-2.6,0.5-5.2,3.2-6
			c2.9-0.8,5.7-0.7,7.7,2.1c1.4-1.1,2.8-2,4.6-2.3c3.2-0.6,5.6,1.4,5.4,4.7c-0.1,1.4-0.5,2.8-0.8,4.2C31.4,9.5,31.3,9.9,31.2,10.4
			L31.2,10.4z M16,57.1c-0.4,0.6-0.7,1.3-1.1,1.9c-0.5,0.7-1,1.2-1.5,1.9c-0.5,0.6-0.5,1.2,0.2,1.7c0.9-1.1,1.8-2.1,2.6-3.2
			C16.8,58.6,16.8,58,16,57.1c0.8-1,0.3-1.9,0.1-2.9c-1.1,1.1-1.9,2.2-2.9,3.3c-0.7,0.8-0.9,1.6-0.4,2.7C13.9,59.1,15,58.1,16,57.1
			L16,57.1z M29.7,15.4c0.4,0.4,0.8,0.8,1.1,1.3c0.1,0.3,0.1,0.8-0.1,1c-0.2,0.2-0.7,0.3-1,0.2c-0.3,0-0.5-0.3-0.8-0.5
			c-1.2-0.9-2.7-1.4-4.2-1.2c-2.1,0.2-4.2,0.6-6.3,0.9c-0.5,0.1-1,0.2-1.5,0.3c-0.1-0.2-0.2-0.3-0.3-0.5c0.5-0.3,0.9-0.6,1.4-0.9
			c-1.1-1-2.1-2-3.2-3.1c-0.8,1.1-1.4,2-2,2.9c-0.3,0.4-0.6,1-1.1,1.1c-3.5,1.4-5.3,4.2-5,7.9c0.1,0.7,0.3,1.3,0.3,2
			c0,0.5-0.1,1.1-0.3,1.5c-1.4,2.2-2.9,4.3-4.4,6.5c-0.6,0.8-0.3,1.5,0.4,2.1c1.4-2.2,2.6-4.4,4.3-6.2c-0.2,0.7-0.6,1.4-0.9,2
			c-0.8,1.4-1.7,2.8-2.5,4.2c-0.5,0.9-0.2,1.4,0.7,1.7c0.6-0.8,1.1-1.7,1.7-2.5c0.6-0.8,1.2-1.6,1.9-2.4c0.1,0.1,0.2,0.1,0.3,0.2
			c-1.1,1.7-2.2,3.5-3.4,5.4c0.7,0.3,1.3,0.5,1.8,0.7c1.5-1.9,2.9-3.7,4.3-5.5l0.3,0.2c-0.6,0.9-1.2,1.8-1.8,2.7
			c-0.6,1-1.2,1.9-1.9,2.9c1.3,0.5,1.4-0.6,1.9-1c0.5-0.5,0.9-1.2,1.4-1.7c0.4-0.5,0.9-1,1.4-1.4c0.1,0.1,0.2,0.2,0.2,0.3
			c-1.1,1.5-2.2,3-3.4,4.6c0.6,0.2,1.1,0.3,1.6,0.5c0.4-0.6,0.8-1.2,1.2-1.7c0.4-0.5,0.8-1.1,1.3-1.6c0.4-0.5,0.8-0.9,1.2-1.3
			c0.1,0.1,0.2,0.2,0.3,0.3c-1,1.4-1.9,2.9-2.9,4.3c0.1,0.1,0.3,0.2,0.4,0.3c1.2-1.4,2.3-2.9,3.5-4.3c0.1,0.1,0.2,0.1,0.3,0.2
			c-0.9,1.3-1.8,2.6-2.8,4.1c0.6,0.1,0.8,0.1,1,0.1c2.5-0.1,4.9,0.5,7.3,1.4c1.1,0.4,2.4,0.6,3.7,0.6c4,0.1,7.5-1.4,11.1-3
			c1.2-0.6,2.6-0.9,3.8-1.4c1.2-0.5,2.4-0.9,3.6-1.5c0.4-0.2,0.9-0.6,1-1c0.5-1.4,0.9-2.8,1.2-4.3c0.2-1.4-0.1-3.1-1.5-3.5
			c-1.8-0.5-1.8-1.7-2.1-3.1c-0.2-1.3-0.5-2.6-1-3.8c-0.5-1.3-1.6-2-3.1-2c-1.9,0.1-1.9,0-1.9-1.9c0-0.3,0-0.6,0-0.9
			c-0.3-3.6-2-5.3-5.6-5.5C30.5,13,30.1,14.2,29.7,15.4L29.7,15.4z M14.9,10.1C16,8.5,17,7.1,18,5.7c0.1,0.6-0.1,1-0.4,1.4
			c-0.6,1-1.2,2-1.9,3c-0.5,0.8-0.2,1.4,0.6,1.9c0.6-0.9,1.2-1.7,1.8-2.4c0.6-0.7,1.1-1.6,2.1-1.9c-0.5,0.9-1.2,1.8-1.7,2.6
			c-0.5,0.9-1.5,1.6-1.3,3.2c0.8-0.9,1.4-1.6,2-2.3c0.6-0.6,1-1.4,2-1.5c-1.1,1.4-2.2,2.7-3.3,4.2c0.5,0.6,1,1.1,1.5,1.6
			c0-0.1,0.1-0.3,0.1-0.4c2.8-0.2,5.5-0.4,8.4-0.6c0.8-2.7,1.6-5.4,2.3-8.2c0.2-0.8,0.3-1.7,0.3-2.6c-0.1-1.4-1-2.2-2.5-2.2
			c-2,0-3.5,1-4.2,3c-0.5,1.3-1.3,1.4-2.2,0.4c-0.5-0.6-0.8-1.3-1.2-1.9c-0.4-0.5-0.9-1.2-1.5-1.3c-1.6-0.4-3.3-0.5-4.7,0.5
			c-0.7,0.5-1.3,1.3-1.5,2c-0.2,0.6-0.6,1.7,0.7,2c0.1,0,0.1,0.2,0.1,0.3C13,8.1,14.4,8.8,14.9,10.1L14.9,10.1z M28.8,45.8h-5.6
			c0.1,3.7,0.2,7.3,0.3,10.9c0,3.6,0,7.2,0,10.9h4.9C28.5,60.4,28.6,53.2,28.8,45.8L28.8,45.8z M16.7,43.5
			c0.8,8.3,0.9,16.1,2.1,23.8c1.1,0.1,2.1,0.2,3.3,0.3c-0.2-7.5,0.8-14.8,0.1-22.2C20.4,44.8,18.7,44.2,16.7,43.5L16.7,43.5z
			 M32.6,67c0.7-7.7,1.3-15.3,2-23c-1.6,0.5-3.1,1-4.7,1.5c0.1,7.3-0.2,14.6,0.2,22c0.6,0,1,0,1.3-0.1C31.7,67.3,32.1,67.1,32.6,67
			L32.6,67z M34.2,66.4c2.5-0.5,2.5-0.5,2.7-2.5c0.1-1.3,0.2-2.6,0.3-3.9c0.5-4.8,1-9.6,1.4-14.4c0.1-1.1,0.1-2.2,0.2-3.5
			c-1.3,0.6-2.4,1.1-3.4,1.6C35,51.2,34.6,58.7,34.2,66.4L34.2,66.4z M12.4,45.3c-0.6,1.5-2.2,2.8-0.9,4.8c0.9-1,1.8-2,2.7-2.9
			c0.1,0.1,0.2,0.2,0.3,0.2c-0.8,1-1.4,2.1-2.3,3c-0.9,1-1,1.9-0.2,3.2c1.3-1.5,2.5-2.9,3.6-4.3c0.2-0.2,0.3-0.6,0.3-0.8
			c-0.1-1.6,0.1-3.3-0.6-5.1c-1.1,0-2.1-0.1-3.2,0c-0.4,0-0.8,0.3-1.1,0.6c-0.7,0.8-0.4,1.6-0.1,2.6C11.5,46.1,12,45.7,12.4,45.3
			L12.4,45.3z M39.9,41.6c-0.7,2.6-1.7,20.5-1.3,21.9c0.2-0.2,0.4-0.4,0.4-0.6c0.9-7.3,1.7-14.5,3.6-21.9
			C41.6,41.3,40.8,41.5,39.9,41.6L39.9,41.6z M17.3,66.9c-0.2-2.3-0.4-4.4-0.6-7c-0.7,0.9-1.1,1.6-1.6,2.1c-1.3,1.3-1.6,2.7-0.7,4.5
			C15.2,66.7,16.1,67.3,17.3,66.9L17.3,66.9z M10.9,59.6c0.6-0.9,0.7-1.9,0.2-3.1c-1.2,1.2-2.2,2.3-1.6,4.1c0.3,0.8,0.4,1.7,0.5,2.5
			c0.2,1.4,1.1,2.1,2.5,2.6c-0.1-1.1-0.3-2-0.4-3c-0.6,0.4-0.9,0.7-1.5,1.1C11.2,62.2,12.9,61,10.9,59.6L10.9,59.6z M12.5,57.3
			c1-1.1,1.8-2.2,2.8-3.1c1.2-1.1,1.2-2.4,0.8-4.1c-1.2,1.4-2.1,2.7-3.1,3.8C12,54.8,11.9,55.8,12.5,57.3L12.5,57.3z M5.4,41.1
			c-0.1,0.1-0.2,0.2-0.3,0.3c0.4,1.5,0.8,2.9,1.2,4.8c0.9-1.3,1.5-2.3,2.3-3.4C7.5,42.1,6.4,41.6,5.4,41.1L5.4,41.1z M9.2,42.6
			c-0.9,1.6-1.6,2.8-2.3,4.1c-0.4,0.7-0.2,1.2,0.3,1.9c0.6-0.8,1-1.5,1.6-2.2C9.7,45.4,9.9,44.3,9.2,42.6L9.2,42.6z M10,49.4
			c-2.4,2.3-2.6,2.9-1.7,4.6C10.9,51,10.5,51.5,10,49.4L10,49.4z M8.9,57.2c2.2-2,2.3-2.2,1.5-4.2C8.4,54.9,8.2,55.3,8.9,57.2
			L8.9,57.2z M9.6,46.1c-0.9,1.8-2.7,2.8-2.1,4.9C8.5,49.6,10.4,48.7,9.6,46.1L9.6,46.1z M5.8,28.8c-2.1,0.8-3.3,2.3-3.3,4.6
			C3.6,31.9,4.7,30.4,5.8,28.8L5.8,28.8z M5.8,28.8"/>
		<path fill="#8D6E63" d="M16,26.2c-2.1,0.1-2.9-1.1-2.3-2.6c0.7-1.8,2.1-2.5,3.6-1.8c1.3,0.6,1.7,2,0.7,3
			C17.3,25.5,16.4,25.9,16,26.2L16,26.2z M16,26.2"/>
		<path fill="#8D6E63" d="M25.3,21.3c1.2,0,2.4,1,2.4,2c0,1-1.2,2.1-2.3,2.1c-1.2-0.1-2.2-1-2.2-2.1C23.2,22.1,24.1,21.2,25.3,21.3
			L25.3,21.3z M25.3,21.3"/>
		<path fill="#8D6E63" d="M22.6,28.8c-0.1,1.2-1.2,2.1-2.3,1.9c-0.9-0.1-1.4-0.8-1.3-1.5c0.1-1,1.5-2.4,2.4-2.3
			C22.1,27,22.7,27.8,22.6,28.8L22.6,28.8z M22.6,28.8"/>
		<path fill="#8D6E63" d="M31.4,25.7c0.9,0,1.7,0.7,1.7,1.6c0,0.9-0.8,1.8-1.7,1.8c-0.9,0-1.5-0.6-1.6-1.5
			C29.8,26.6,30.5,25.8,31.4,25.7L31.4,25.7z M31.4,25.7"/>
		<path fill="#8D6E63" d="M14.6,31c0.8,0,1.5,0.5,1.5,1.3c0,1-0.8,1.9-1.7,1.9c-0.7,0-1.4-0.5-1.4-1.2C13,31.9,13.7,31,14.6,31
			L14.6,31z M14.6,31"/>
		<path fill="#8D6E63" d="M27.3,31.1c0.6,0,1.2,0.3,1.3,1.1c0.1,0.7-0.6,1.4-1.4,1.4c-0.7,0-1.3-0.6-1.3-1.3
			C26,31.6,26.4,31.1,27.3,31.1L27.3,31.1z M27.3,31.1"/>
		<path fill="#8D6E63" d="M33.7,20.5c0,0.7-0.6,1.3-1.3,1.2c-0.7,0-1.2-0.3-1.3-1c-0.1-0.6,0.7-1.4,1.4-1.5
			C33,19.1,33.6,19.8,33.7,20.5L33.7,20.5z M33.7,20.5"/>
		<path fill="#8D6E63" d="M18.2,37.5c-0.8,1.1-1.5,2.2-2.3,3.3c-0.1-0.1-0.2-0.2-0.3-0.2C16,39.2,17,38.2,18.2,37.5L18.2,37.5z
			 M18.2,37.5"/>
		<path fill="#8D6E63" d="M23.4,10.2c-1,1.3-2,2.7-2.9,4c-0.1-0.1-0.2-0.2-0.3-0.2c0.6-1.6,1.7-2.8,2.9-4
			C23.2,10,23.3,10.1,23.4,10.2L23.4,10.2z M23.4,10.2"/>
	</g>
	<g id="Layer_13">
	</g>
</g>
<g id="Layer_12">
</g>
<g id="Overall_info">
</g>
<g id="Footer">
</g>
<g id="Grid">
</g>
</svg>
