<?xml version="1.0" encoding="utf-8"?>
<!-- Generator: Adobe Illustrator 18.0.0, SVG Export Plug-In . SVG Version: 6.00 Build 0)  -->
<!DOCTYPE svg PUBLIC "-//W3C//DTD SVG 1.1//EN" "http://www.w3.org/Graphics/SVG/1.1/DTD/svg11.dtd">
<svg version="1.1" xmlns="http://www.w3.org/2000/svg" xmlns:xlink="http://www.w3.org/1999/xlink" x="0px" y="0px"
	 viewBox="0 0 59.4 70" enable-background="new 0 0 59.4 70" xml:space="preserve">
<g id="Banner">
</g>
<g id="Number_of_the_wedding">
</g>
<g id="Social">
</g>
<g id="Share_and_comment">
</g>
<g id="See_also">
</g>
<g id="Step_3">
</g>
<g id="Step_2">
</g>
<g id="Step_1">
	<g>
		<g>
			<path fill="#8D6E63" d="M47.9,11.6c1.8,2,1.9,4,0.4,5.9c-1.3,1.6-3.6,2-6.1,1.1c-0.3,1.1-0.5,2.1-0.8,3.3
				c0.6,0.2,1.1,0.3,1.6,0.4c2,0.5,2.6,1.4,2.9,3.5c0.4,3.8,0.1,7.5-0.5,11.3c-0.7,4.8-1.4,9.5-2.1,14.3c-0.5,3.5-1.3,7-1.8,10.5
				c-0.7,4.9-4.6,8.1-9.7,8.1c-1.3,0-2.7,0-4,0c-5.1,0-9-3-9.8-8.3c-0.9-5.5-1.8-11.1-2.6-16.6c-0.6-3.7-1.2-7.3-1.6-11
				c-0.3-2.8-0.2-5.6-0.1-8.4c0.1-2,0.9-2.8,2.8-3.3c0.5-0.1,0.9-0.2,1.5-0.4c0-0.4,0-0.8-0.1-1.1c-0.1-0.7-0.3-1.4-0.6-2.3
				c-2.5,1.2-4.6,0.7-6.2-1.2c-1.5-1.8-1.3-3.8,0.4-5.9c-1.2-0.2-2.2-0.5-3.2-0.6c-2.2-0.1-4.5-0.2-6.7-0.3C0.4,10.6,0.1,10.3,0,9
				c0-0.4,0-0.7,0-1.1c0.1-1.3,0.3-1.6,1.6-1.9c2-0.5,4.1-0.5,6.2-0.1c2.8,0.5,5.5,1.3,7.9,2.9c1,0.6,1.8,1.6,2.6,2.5
				c0.6,0.7,0.9,1.7,1.5,2.5c1.7,2.2,3,4.6,3.4,7.4c2.2-0.2,4.4-0.6,6.6-0.6c2.1,0,4.2,0.4,6.5,0.6c0,0,0.2-0.2,0.2-0.4
				c0.5-2.6,1.8-4.9,3.4-7c0.5-0.7,0.9-1.6,1.4-2.3c0.6-0.8,1.2-1.8,2.1-2.3c4.1-2.4,8.4-3.8,13.2-3.3C57,5.9,57.5,6,58,6.1
				c1,0.2,1.4,0.8,1.4,1.8c0.1,2.7,0.1,2.8-2.7,2.7c-0.5,0-1.1,0-1.6,0.1C52.8,11,50.5,10.6,47.9,11.6L47.9,11.6z M19.5,53.7
				C19,55,19,55,19.7,56.6c1.4-1.6,1.4-1.6,0.4-3.3C19.9,53.4,19.6,53.6,19.5,53.7c0.7-1.3,0.8-2.7,0-4.1
				C18,50.7,18.1,52.5,19.5,53.7L19.5,53.7z M16.5,35c-0.6,1.2-0.9,2.4,0.1,3.7c1.7-1.5,1.5-3.3,1-5.1c0.6-1.6,2.3-1.6,3.6-2.3
				c-0.4-1.7-0.7-3.3-1.1-5c-1.8-0.2-3.5-0.4-5.3-0.6c0,3.3,0.6,6.5,1,9.9C16.1,35.3,16.3,35.1,16.5,35L16.5,35z M23.1,56.3
				L23.1,56.3l0,2.7c0.9-0.7,1.5-1.3,2.1-1.8c-0.3,0.7-0.9,1.2-1.3,1.8c-0.2,0.4-0.5,0.9-0.4,1.3c0.4,1.8,1.2,3.2,2.9,4.2
				c1.7,1,3.5,1.1,5.3,1.2c2.8,0.2,4.2-1,4.6-3.8c0.7-4.3,1.3-8.5,2-12.8c0.7-4.1,1.4-8.2,2.1-12.2c0.1-0.7,0.1-1.4,0.2-2.2
				c-7.4,1.2-14.5,1.6-21.8,0c0.6,1.7-0.1,3.5,1,5.4c0.5-0.6,0.8-1.1,1.1-1.6c-0.6,1.6-2.2,2.9-0.7,4.8c0.5-0.6,1-1.3,1.6-1.9
				c0,0.6-0.2,1.2-0.6,1.6c-1,1.1-1.1,2.3-0.4,3.7c0.3-0.1,0.6-0.2,0.9-0.2l0,0c-0.7,1.2-0.9,2.5-0.1,3.8c0.3-0.1,0.5-0.2,1.1-0.4
				c-1.3,1.4-1,2.5-0.3,3.7c0.7-0.8,1.4-1.5,2-2.2c-0.3,1-0.9,1.8-1.5,2.6C22,54.8,22.1,55.3,23.1,56.3L23.1,56.3z M39,31
				c0.8,0.4,1.2,0.7,1.7,0.9c1,0.4,1.3,1.3,1.2,2.2c-0.1,1.2-0.1,2.5-0.3,3.6C40,44.9,39.2,52.2,38,59.4c-0.2,1.4-0.5,2.8-0.8,4.1
				c-0.4,1.6-1.3,2.6-3,3c-1.4,0.3-2.7,0.4-4.2,0.3c-5.1-0.4-7.8-3.3-8.4-7.2c-0.2-1.1-0.4-2.2-0.7-3.3c-1.1,0.6-1.4,1.4-1.2,2.5
				c0.3,1.3,0.4,2.7,0.7,3.9c0.8,2.6,2.4,4.6,5.3,5.2c2.7,0.5,5.3,0.6,8-0.1c1-0.3,2.1-0.6,2.8-1.3c1.4-1.3,2.3-2.9,2.6-4.9
				c0.9-5.7,2-11.3,2.9-16.9c0.9-5.2,1.7-10.3,2.4-15.5c0.2-1.2,0.4-2.5,0.1-3.7c-1.5,0.2-2.8,0.3-4.3,0.5
				C39.9,27.7,39.4,29.3,39,31L39,31z M1.2,9.3c0.5,0.1,0.7,0.1,1,0.1c2,0.1,4,0.1,6,0.3c1.5,0.2,3,0.5,4.4,1
				c1.7,0.6,2.8,1.7,3.1,3.5c0.1,0.6-0.1,1.1-0.7,1.3c-0.4,0.1-1,0.2-1.1,0c-0.3-0.4-0.5-0.9-0.5-1.4c0-0.5,0.3-1,0.4-1.5
				c-0.6-0.7-1.1-0.7-1.7-0.1c-1.1,1.2-1.3,2.4-0.5,3.8c0.6,1.2,2.5,2.1,3.7,1.7c0.3-0.1,0.7-0.3,0.9-0.5c2.3-2.6,1.6-6.7-1.6-8.2
				c-2.1-1-4.4-1.9-6.7-2.4C5.8,6.6,3.5,6.5,1.1,7.1C1.1,7.9,1.2,8.6,1.2,9.3L1.2,9.3z M43.7,15.1c0.1-2.4,1.1-3.9,3.3-4.5
				c1.7-0.5,3.4-0.7,5.2-0.9c2-0.2,4-0.3,6-0.4V7c-0.9-0.1-1.7-0.2-2.5-0.3c-3.8-0.2-7.2,1-10.5,2.5c-3.9,1.8-3.7,5.4-2.1,8.1
				c0.2,0.4,0.8,0.7,1.3,0.8c1.3,0.3,3-0.7,3.6-1.9c0.8-1.7,0.5-2.7-1.4-4.2c-0.3,0.2-0.6,0.4-1,0.6c0.7,2,0.7,2.5,0,2.9
				C44.7,16.2,44.2,15.4,43.7,15.1L43.7,15.1z M40.4,33c-1.8-1-3.5-1.3-5.3-1.3c-1.9,0-3.8,0.1-5.7-0.1c-3.4-0.4-6.6,0.4-9.8,1.2
				c-0.3,0.1-0.5,0.4-0.8,0.7C22.4,35.2,37.2,35,40.4,33L40.4,33z M36,26.1c-4-0.4-7.7-1-11.5,0.1c0.4,1.4,0.7,2.9,1.1,4.4h9.3
				C35.3,29,35.6,27.6,36,26.1L36,26.1z M35.8,24.7c0.1-0.9,0.2-1.5,0.3-2.3c-4.3-0.8-8.4-0.8-12.7,0c0.1,0.8,0.2,1.5,0.2,2.3
				C27.8,24.7,31.7,24.7,35.8,24.7L35.8,24.7z M17.7,17.7c0.9,2.3,1.8,4.5,2.7,6.8c0.6,0,1.1-0.1,1.7-0.1c-0.3-3.6-0.7-7-3.2-9.8
				C18.4,15.8,18,16.8,17.7,17.7L17.7,17.7z M39.1,24.4c0.9-2.1,1.7-4.2,2.6-6.3c0.1-0.2,0.1-0.4,0.1-0.5c-0.4-1-0.8-1.9-1.2-3
				c-2.4,3-2.9,6.3-3.1,9.8C38,24.4,38.6,24.4,39.1,24.4L39.1,24.4z M22.4,31.1c0.6-0.1,1.2-0.3,1.8-0.4c-0.3-1.7-0.6-3.1-0.8-4.6
				h-2.1C21.6,27.8,22,29.4,22.4,31.1L22.4,31.1z M37.9,30.8c0.3-1.6,0.7-3,1-4.5c-0.7-0.1-1.2-0.2-1.8-0.3c-0.3,1.6-0.5,3-0.8,4.5
				C36.9,30.6,37.4,30.7,37.9,30.8L37.9,30.8z M17,42.7c2-1.2,1-2.8,0.9-4.3C15.9,39.6,16.8,41.2,17,42.7L17,42.7z M18.4,42.6
				c-2,1.2-0.7,2.6-0.8,4C19.3,45.4,18.6,44.1,18.4,42.6L18.4,42.6z M18.9,46.4c-1.3,1.3-1.3,1.7-0.5,3.2
				C19.7,48.8,19.5,47.7,18.9,46.4L18.9,46.4z M42.9,24.2c-1.6-1.2-1.7-1.2-2.2,0H42.9z M18.6,23.1c-0.8,0.2-1.4,0.4-2.3,0.7
				C18,24.7,18.4,24.6,18.6,23.1L18.6,23.1z M18.6,23.1"/>
			<path fill="#8D6E63" d="M28.9,8c0.1-0.2,0.4-0.7,0.8-1.1c1.1-1.5,2.3-1.4,3.2,0.3c0.8,1.7,0.7,3.6,0.3,5.4
				c-0.1,0.5-0.3,0.9-0.5,1.4c-0.3,0.7-0.8,1.1-1.6,1c-1.7-0.2-3.4-0.4-5-0.7c-0.5-0.1-1.1-0.3-1.5-0.6c-1.9-1.3-2-3.7,0.3-4.6
				C26,8.6,27.2,8.4,28.9,8L28.9,8z M28.9,8"/>
			<path fill="#8D6E63" d="M39.1,1.2c1.1-1.1,2.3-1.6,3.8-0.9c0.9,0.4,1.3,1.2,0.9,2.1c-0.8,2-2.6,3.1-4.1,4.3
				c-0.4,0.3-1.4,0-2.1-0.2c-0.9-0.3-1.7-0.9-2.6-1.4c-1.5-0.9-2.2-2.2-1.7-3.3c0.5-1.1,2.4-1.9,3.8-1.5C37.8,0.6,38.4,0.9,39.1,1.2
				L39.1,1.2z M39.1,1.2"/>
		</g>
		<path fill="#8D6E63" d="M23.1,56.3c0.4-0.6,0.8-1.2,1.2-1.8c0.1,0.1,0.2,0.2,0.3,0.3C24.1,55.3,23.6,55.8,23.1,56.3L23.1,56.3
			L23.1,56.3z M23.1,56.3"/>
		<path fill="#8D6E63" d="M21.6,46.4c0.2-0.4,0.5-0.8,0.7-1.2c0.1,0.1,0.2,0.2,0.3,0.3C22.3,45.8,21.9,46.1,21.6,46.4L21.6,46.4z
			 M21.6,46.4"/>
	</g>
	<g id="Layer_13">
	</g>
</g>
<g id="Layer_12">
</g>
<g id="Overall_info">
</g>
<g id="Footer">
</g>
<g id="Grid">
</g>
</svg>
