<?xml version="1.0" encoding="utf-8"?>
<!-- Generator: Adobe Illustrator 18.0.0, SVG Export Plug-In . SVG Version: 6.00 Build 0)  -->
<!DOCTYPE svg PUBLIC "-//W3C//DTD SVG 1.1//EN" "http://www.w3.org/Graphics/SVG/1.1/DTD/svg11.dtd">
<svg version="1.1" xmlns="http://www.w3.org/2000/svg" xmlns:xlink="http://www.w3.org/1999/xlink" x="0px" y="0px"
	 viewBox="0 0 55.1 69.8" enable-background="new 0 0 55.1 69.8" xml:space="preserve">
<g id="Banner">
</g>
<g id="Number_of_the_wedding">
</g>
<g id="Social">
</g>
<g id="Share_and_comment">
</g>
<g id="See_also">
</g>
<g id="Step_3">
</g>
<g id="Step_2">
</g>
<g id="Step_1">
	<g>
		<path fill="#8D6E63" d="M26.2,8c2.4-3,5.5-4.9,8.9-6.4c3.1-1.4,6.4-2,9.7-1.3c4.2,0.9,6.9,3.7,8.5,7.5c3.3,7.5,2,14.5-2.7,20.9
			c-2.2,3.1-4.8,5.9-7.4,8.6c-2.6,2.7-4,5.9-4.5,9.6c-0.1,0.4,0,0.8,0.1,1.2c1,2.3,1,2.3,0.6,4.5c0.3,0.4,0.7,0.7,1,1.2
			c0.8,1,1.1,2,0.7,3.2c-0.3,1.3-0.9,2.7-0.1,4.1c0.2,0.3,0,0.8-0.2,1.2c-1,1.8-2.1,3.6-3.1,5.4c-0.6,1-1.4,1.3-2.5,1.4
			c-2.4,0.2-4.9,0.4-7.3,0.6c-3.8,0.4-6.4-1.6-8.7-4.4c-0.4-0.5-0.9-0.9-1.3-1.4c-0.4-0.5-0.7-1.1-1-1.7c-0.3-0.6-0.2-1.4-0.5-2
			c-1.2-2.5-0.7-4.6,1.1-6.4c-0.3-1-0.9-2-0.8-2.9c0.1-0.8,0.8-1.6,1.4-2.4c0.5-3.4-1.8-5.4-4.1-7.3c-1.4-1.2-3-2.1-4.4-3.2
			C4.5,34,1.3,28.6,0.1,22c-0.2-1.4-0.2-2.9,0.1-4.2C1.5,12.6,4,8.3,8.6,5.3C12.5,2.6,21,2.1,25.1,7C25.4,7.3,25.8,7.6,26.2,8
			L26.2,8z M36.4,47.8c0.1-0.7,0.2-1.1,0.2-1.6c0.5-3.7,1.9-7.1,4.5-9.8c0.7-0.7,1.3-1.4,2-2.1c2.7-2.9,5.4-5.7,7.3-9.3
			c2.8-5.4,3.5-11,0.8-16.6c-2.4-5-5.5-6.9-10.1-6.3c-5.5,0.7-10.2,3-13.2,8c-0.9,1.4-1.8,1.5-2.8,0.3c-0.4-0.4-0.6-0.9-1-1.3
			c-1.1-1.4-2.3-2.8-4-3.3c-2.9-0.9-5.7-1-8.5,0.3c-4.9,2.2-7.3,6.3-8.7,11.2c-0.6,1.9-0.6,3.9-0.1,5.8c1,4,2.9,7.5,5.6,10.5
			c1.8,2,4.1,3.5,6.2,5.2c2.9,2.3,5.7,4.7,5.5,9c0,0.1,0.1,0.4,0.2,0.4h5.5c-0.2-3-0.5-5.4-0.4-8c0.1-2.4-1.1-3.6-3.2-4.3
			c-0.3-0.1-0.5-0.2-0.8-0.3c-2.4-1.3-4.9-2.4-6.5-4.7c-2.1-2.9-1.9-6.1,0.5-8.5c2.5-2.3,6-2.6,8.7-0.5c0.9,0.7,1.5,1.5,2.3,2.3
			c0.3,0.3,0.7,0.6,1,0.9c0.4-0.7,0.6-1.2,1-1.7c1.6-2.2,3.6-3.5,6.4-3.3c2.7,0.3,5.1,2.1,5.1,4.4c0,3.7-1.1,6.8-4.5,8.7
			c-0.5,0.3-0.9,0.5-1.4,0.8c-1.3,0.6-2.2,1.7-2.4,3.1c-0.4,2.2-0.7,4.4-0.9,6.6c-0.1,1.5,0.1,2.9,0.2,4.6
			C32.7,48.1,34.5,47.9,36.4,47.8L36.4,47.8z M29.1,48.1c0.2-3,0.2-6.2,0.5-9.2c0.3-3,1.2-5.8,4.5-7.1c2.6-1.1,3.3-3.6,3.8-6.1
			c0.4-2.6-0.7-3.7-3.6-4c-2.4-0.2-4.7,1.9-5.1,4.3c-0.1,0.6,0,1.2-0.2,1.8c-0.3,1.1-1.2,1.3-2,0.5c-0.3-0.3-0.4-0.7-0.6-1
			c-0.9-1.3-1.8-2.6-2.8-3.7c-1.8-2-4.8-2.1-6.8-0.4c-1.6,1.3-2.6,3.7-0.7,6.4c0.8,1.2,2,2.2,3.3,3c1.7,1.1,3.6,1.9,5.4,2.8
			c1.3,0.7,2.1,1.8,2.1,3.2c0.1,2.4,0.1,4.8,0.1,7.3c0,0.8-0.1,1.3-0.1,2.3H29.1z M18,58.7c3.6-0.2,7-0.4,10.4-0.7
			c3.4-0.3,6.9,0.3,10.1-0.3c0.2-0.3,0.3-0.4,0.3-0.6c0.5-2.3-0.3-3.2-2.5-3.1c-1.3,0.1-2.6,0.2-3.8,0.2c-3.7,0-7.3-0.2-11-0.2
			C19.2,54,17.6,56.1,18,58.7L18,58.7z M19.4,62.7c6.1-0.2,12.1-0.4,18-0.7c1.1,0,1.7-0.7,1.6-1.4c-0.2-0.9-0.7-1.3-1.7-1.3
			c-6.2,0.1-12.3,0.2-18.7,0.3C18.9,60.7,19.1,61.5,19.4,62.7L19.4,62.7z M25.8,50c0-0.1,0-0.1,0-0.2c-1.9,0-3.8-0.1-5.7,0
			c-0.8,0-1.5,0.4-1.5,1.4c0,0.7,0.8,1.4,1.7,1.5c0.3,0,0.5-0.1,0.8-0.1c3.4,0,6.8,0,10.2,0c1.6,0,3.3,0,4.9,0c1.2,0,2-1.1,2-2.4
			c0-0.8-0.8-1.3-2-1.2c-0.3,0-0.7,0.1-1,0.1C32,49.5,28.9,49.7,25.8,50L25.8,50z M21.5,64.5c0,0.2-0.1,0.3-0.1,0.5
			c2,1.6,4,3.3,7,2.8c1.8-0.3,3.6-0.4,5.4-0.4c2.3-0.1,3-0.7,3.7-3.3C32.1,64.2,26.8,64.4,21.5,64.5L21.5,64.5z M21.5,64.5"/>
		<path fill="#8D6E63" d="M49.5,16.7c-0.3,3.2-1.6,5.4-4.2,6.4c-2,0.8-3.1,0.1-3.6-1.9c-0.1-0.3-0.2-0.5-0.2-0.8
			c0.3-2.6-1-4.4-2.8-6c-1-0.9-1.2-2.1-1.3-3.3c0-0.5,0.2-1.2,0.6-1.6c2.1-2.6,6.2-2.3,8,0.5c0.8,1.2,1.6,2.4,2.2,3.6
			C48.9,14.5,49.1,15.6,49.5,16.7L49.5,16.7z M48.5,16.5c0-0.1,0-0.4-0.1-0.7c-0.7-2.4-1.8-4.5-3.4-6.4C43.8,8.1,41.7,8,40,8.8
			c-2,1-2.5,2.9-0.9,4.5c2.1,2.2,3.7,4.5,3.6,7.7c0,1.4,0.9,1.8,2.3,1.3C47.2,21.4,48.5,19.3,48.5,16.5L48.5,16.5z M48.5,16.5"/>
	</g>
	<g id="Layer_13">
	</g>
</g>
<g id="Layer_12">
</g>
<g id="Overall_info">
</g>
<g id="Footer">
</g>
<g id="Grid">
</g>
</svg>
