<?xml version="1.0" encoding="utf-8"?>
<!-- Generator: Adobe Illustrator 18.0.0, SVG Export Plug-In . SVG Version: 6.00 Build 0)  -->
<!DOCTYPE svg PUBLIC "-//W3C//DTD SVG 1.1//EN" "http://www.w3.org/Graphics/SVG/1.1/DTD/svg11.dtd">
<svg version="1.1" id="Layer_2" xmlns="http://www.w3.org/2000/svg" xmlns:xlink="http://www.w3.org/1999/xlink" x="0px" y="0px"
	 viewBox="0 0 1000 1000" enable-background="new 0 0 1000 1000" xml:space="preserve">
<path fill="#D81B60" d="M298.4,551.6c-16.7,0.8-30.2,1.6-43.7,3.2c-13.5,1.6-22.2-4-27-15.9c-5.6-14.3-7.9-29.4-12.7-43.7
	c-4-11.9-7.1-25.4-14.3-35.7c-16.7-24.6-26.2-51.6-34.1-79.4c-5.6-20.6-11.9-41.3-19-64.3c-14.3,4-27,7.9-39.7,11.9
	c-27,7.1-46.8,1.6-61.1-21.4c-17.5-29.4-30.2-60.3-31-95.2c-0.8-23,2.4-27.8,23.8-36.5c18.3-7.1,35.7-14.3,54.8-19
	C231.7,121.4,365.1,77,499.2,31.7c18.3-6.3,36.5-13.5,54.8-19.8c25.4-8.7,50.8-7.9,76.2,0.8c15.1,5.6,27,14.3,31.7,31
	c11.1,34.9,22.2,70.6,34.1,105.6c4.8,15.1,4,24.6-11.1,34.1c-11.9,7.9-20.6,21.4-31,32.5c0.8,1.6,1.6,3.2,2.4,4.8
	c11.1-1.6,21.4-1.6,32.5-4c17.5-3.2,21.4-2.4,28.6,13.5c4.8,10.3,7.1,21.4,10.3,31.7c2.4,6.3,4,12.7,7.1,23
	c7.1-10.3,12.7-16.7,17.5-23.8c15.9-23,31-46.8,46.8-70.6c4-5.6,9.5-8.7,15.1-13.5c4.8,4.8,8.7,10.3,13.5,15.1
	c1.6,1.6,2.4,4,4.8,7.9c0.8-5.6,2.4-7.9,2.4-11.1c0.8-34.9,13.5-64.3,39.7-87.3c27-23.8,54.8-47.6,82.5-70.6
	c13.5-11.1,21.4-6.3,24.6,10.3c0.8,3.2,1.6,6.3,0.8,9.5c-4.8,51.6,0,103.2-11.1,154c-8.7,38.9-25.4,73-53.2,100.8
	c-1.6,1.6-3.2,4-4.8,5.6c-0.8,0.8,0,1.6-0.8,3.2h40.5c-15.9,31-30.2,57.9-57.1,73.8c-26.2,15.9-47.6,34.9-66.7,58.7
	c-14.3,18.3-31.7,34.1-48.4,51.6c19.8,62.7,39.7,126.2,59.5,192.1c10.3-3.2,19.8-5.6,29.4-7.9c44.4-12.7,74.6,10.3,75.4,56.3
	c0,7.1,1.6,14.3,4.8,19.8c7.9,19,3.2,37.3-14.3,47.6c-4,2.4-8.7,4.8-12.7,6.3c-98.4,46-198.4,88.9-300.8,126.2
	c-43.7,15.9-88.1,31.7-132.5,46c-15.1,4.8-31.7,6.3-47.6,4.8c-34.1-4-55.6-26.2-69-57.1c-17.5-41.3-29.4-83.3-34.1-127.8
	c-4.8-41.3-16.7-80.2-38.9-115.9c-15.9-25.4-28.6-52.4-41.3-79.4c-2.4-4.8,0-14.3,3.2-19.8c4.8-7.9,12.7-14.3,19-21.4
	C288.1,565.1,292.1,559.5,298.4,551.6L298.4,551.6z M190.5,273c2.4,31-24.6,59.5-2.4,92.9c7.9-18.3,15.9-34.1,23-50.8
	c1.6,0.8,3.2,1.6,4.8,2.4c-6.3,17.5-11.9,34.9-19,51.6s-4,30.2,7.1,46c6.3-14.3,11.1-26.2,15.9-38.1c1.6,0.8,3.2,0.8,4.8,1.6
	c-3.2,11.1-5.6,23-10.3,34.1c-5.6,14.3-2.4,24.6,11.9,32.5c7.1-15.9,13.5-31,21.4-49.2c4.8,31.7-27,55.6-7.1,85.7
	c6.3-14.3,11.9-27,18.3-40.5c0.8,31.7-27,59.5-8.7,93.7c15.9-0.8,31-1.6,46-2.4c8.7,0,19.8-0.8,23,8.7c1.6,5.6-3.2,15.1-7.9,20.6
	c-11.1,13.5-23,26.2-35.7,40.5c7.9,13.5,15.9,27,24.6,42.1c6.3-14.3,11.1-25.4,15.9-35.7c0.8,13.5-2.4,25.4-7.1,37.3
	c-4,11.1-0.8,19.8,8.7,26.2c5.6-14.3,11.1-27.8,16.7-41.3c0,12.7-2.4,24.6-6.3,35.7c-6.3,17.5-1.6,31,12.7,42.9
	c3.2-7.9,6.3-15.1,9.5-22.2c-7.9,30.2,2.4,57.9,8.7,85.7c2.4,9.5,2.4,19,4,28.6c5.6,44.4,16.7,87.3,33.3,127.8
	c8.7,20.6,22.2,34.1,44.4,40.5c15.9,4.8,30.2-2.4,35.7-15.9c4-8.7,5.6-17.5,7.9-27.8c-7.1,0-11.1,0.8-15.1,0.8
	c-20.6,1.6-28.6-1.6-35.7-20.6c-17.5-46-7.1-63.5,29.4-83.3c5.6-3.2,11.9-5.6,17.5-7.9c32.5-11.9,65.1-24.6,97.6-35.7
	c60.3-20.6,120.6-39.7,181-60.3c18.3-6.3,35.7-13.5,55.6-20.6c-19-65.1-37.3-127.8-55.6-192.1c-24.6,10.3-46,7.1-69-0.8
	c-5.6,6.3-12.7,11.1-16.7,18.3c-13.5,21.4-27,43.7-38.1,66.7c-6.3,11.9-11.9,19.8-26.2,20.6c-5.6,0-10.3,6.3-15.1,10.3
	c-6.3,5.6-11.1,11.9-17.5,16.7c-3.2,2.4-8.7,0-16.7-0.8c36.5-48.4,69.8-93.7,103.2-138.9C652.4,473.8,646,450,650,423
	c10.3-35.7,28.6-67.5,52.4-97.6c6.3-7.9,12.7-15.9,19-23c-18.3-19.8-14.3-46-26.2-68.3c-20.6,1.6-42.1,3.2-66.7,4.8
	c8.7-14.3,15.1-24.6,21.4-35.7c15.1-23.8,23.8-49.2,12.7-77.8c-7.1-19.8-15.1-38.9-21.4-58.7c-9.5-30.2-15.9-36.5-47.6-35.7
	c-10.3,0-21.4,1.6-31,4.8C531,46,500.8,57.9,469,68.3c-122.2,39.7-243.7,83.3-371.4,106.3c-0.8,0-1.6,2.4-2.4,3.2
	c15.1,15.1,32.5,27,43.7,44.4s15.1,38.9,23,60.3c4.8-9.5,7.9-15.9,11.9-25.4c3.2,22.2-19,41.3-0.8,63.5
	C179.4,303.2,184.9,288.1,190.5,273L190.5,273z M965.1,46c-35.7,29.4-69,53.2-93.7,86.5c-8.7,11.9-13.5,27-16.7,42.1
	c-6.3,26.2-9.5,52.4-15.1,78.6c-1.6,9.5-5.6,18.3-9.5,27c-1.6,3.2-7.1,6.3-8.7,5.6c-4-1.6-8.7-5.6-8.7-9.5c-0.8-10.3,0-20.6,0.8-31
	c0.8-11.1,0.8-21.4,1.6-32.5c-4.8,0.8-6.3,0.8-7.1,1.6c-31,49.2-66.7,94.4-103.2,139.7c-28.6,34.9-39.7,77-33.3,122.2
	c0.8,4.8,3.2,9.5,5.6,15.1c119-93.7,196-215.9,261.1-347.6c-6.3,34.9-20.6,66.7-36.5,97.6c-15.9,31-32.5,61.1-51.6,90.5
	c-19.8,29.4-41.3,57.1-64.3,84.1c-23,27-48.4,51.6-73.8,77.8c18.3,7.1,33.3,4,45.2-5.6c21.4-16.7,42.1-34.9,61.1-54
	c19-19.8,38.9-38.9,63.5-52.4c21.4-11.1,34.9-29.4,47.6-50c-19-4-35.7,8.7-56.3-0.8c8.7-9.5,14.3-17.5,22.2-23.8
	c34.9-31,55.6-69,62.7-114.3c4-23.8,7.1-47.6,7.9-72.2C965.9,97.6,965.1,74.6,965.1,46L965.1,46z M653.2,903.2
	c13.5,0,23-3.2,27.8-16.7c6.3-16.7,15.1-33.3,22.2-49.2c1.6,0.8,2.4,0.8,4,1.6c-5.6,15.9-11.1,31.7-17.5,50
	c20.6-2.4,32.5-9.5,36.5-28.6c2.4-10.3,8.7-20.6,12.7-30.2c1.6,0.8,2.4,0.8,4,1.6c-3.2,13.5-6.3,26.2-9.5,39.7
	c21.4,0,22.2-15.9,28.6-27c0.8-0.8,2.4-0.8,4.8-2.4c-0.8,6.3-1.6,11.1-2.4,18.3c7.9-3.2,15.1-4,18.3-7.9
	c9.5-11.1,16.7-23.8,27.8-39.7c-0.8,11.9-1.6,19-1.6,27.8c36.5-16.7,71.4-32.5,106.3-49.2c4.8-2.4,10.3-7.1,11.1-11.1
	c2.4-20.6,4.8-42.1-4.8-61.9c-9.5-19.8-17.5-23-38.9-15.1c-127,50-256.3,91.3-387.3,127.8c-8.7,2.4-17.5,6.3-28.6,11.1
	c44.4,35.7,48.4,78.6,29.4,126.2c22.2,0.8,31-8.7,34.9-27c2.4-13.5,6.3-28.6,17.5-38.9c-4,16.7-7.1,34.1-11.1,52.4
	c16.7-2.4,26.2-7.9,28.6-23.8c0.8-7.9,4.8-15.1,7.9-23c3.2-7.1,3.2-15.9,13.5-24.6c-4.8,20.6-8.7,36.5-12.7,54
	c18.3-2.4,30.2-7.9,34.1-26.2c3.2-15.9,10.3-31,15.9-46.8c1.6,0.8,3.2,0.8,4.8,1.6c-4,18.3-8.7,36.5-12.7,54.8
	c17.5,0,24.6-8.7,28.6-23c4-13.5,11.1-26.2,16.7-39.7c1.6,0.8,3.2,1.6,4.8,1.6C661.9,873,657.9,887.3,653.2,903.2L653.2,903.2z
	 M31.7,197.6c-0.8,4.8-1.6,7.9-0.8,11.1c4.8,32.5,16.7,61.9,32.5,90.5c2.4,4,5.6,8.7,9.5,10.3c6.3,3.2,14.3,7.1,19.8,4.8
	c4-1.6,6.3-11.9,7.1-18.3c0.8-7.1-0.8-14.3-1.6-20.6c-28.6,0.8-33.3-2.4-42.9-25.4c-0.8-2.4-2.4-4.8-2.4-6.3
	c-4.8-17.5,1.6-31,17.5-39.7c5.6-3.2,11.9-6.3,19.8-11.1C66.7,182.5,50,189.7,31.7,197.6L31.7,197.6z M143.7,298.4
	c-9.5-34.1-6.3-69.8-38.1-93.7c-7.1,3.2-12.7,6.3-19.8,9.5c19,29.4,27.8,60.3,33.3,93.7C127.8,304.8,134.9,302.4,143.7,298.4
	L143.7,298.4z M468.3,869c-3.2-4-4.8-6.3-7.1-8.7c-2.4-1.6-5.6-2.4-7.9-4c-14.3,19-13.5,34.1,5.6,59.5c0-11.1,2.4-18.3-0.8-23.8
	C454,881,457.1,873.8,468.3,869L468.3,869z M88.1,257.1c-0.8-21.4-0.8-21.4-16.7-31C65.9,244.4,72.2,257.1,88.1,257.1L88.1,257.1z
	 M479.4,883.3c-2.4,0.8-4.8,0.8-7.1,1.6c2.4,8.7,4,18.3,6.3,27C489.7,900.8,485.7,892.1,479.4,883.3L479.4,883.3z"/>
<path fill="#D81B60" d="M494.4,695.2c0-23,12.7-32.5,30.2-37.3c15.1-4.8,24.6,0.8,25.4,15.9c2.4,28.6-4.8,55.6-15.9,81.7
	c-4,10.3-15.1,14.3-23.8,11.1c-25.4-8.7-49.2-18.3-73.8-27.8c-3.2-1.6-6.3-4.8-8.7-7.9c-12.7-14.3-8.7-31,8.7-35.7
	c13.5-4,28.6-2.4,42.9-2.4C481.7,692.1,485.7,693.7,494.4,695.2L494.4,695.2z"/>
<path fill="#D81B60" d="M289.7,417.5c90.5-32.5,181-65.9,271.4-97.6c7.1-2.4,15.9-2.4,23-3.2c0.8,2.4,1.6,3.2,1.6,3.2
	c0,0.8,0,2.4,0,2.4c-4.8,3.2-9.5,6.3-14.3,7.9C478.6,365.1,388.1,400.8,289.7,417.5L289.7,417.5z"/>
<path fill="#D81B60" d="M557.1,225.4c-50.8,15.9-101.6,34.9-154,46.8c-47.6,11.1-91.3,35.7-144.4,40.5
	c28.6-20.6,270.6-95.2,296-92.1C556.3,222.2,556.3,223.8,557.1,225.4L557.1,225.4z"/>
<path fill="#D81B60" d="M284.1,350c5.6-1.6,11.1-4.8,16.7-5.6c92.9-19.8,181-61.9,276.2-73c0.8,1.6,1.6,3.2,1.6,4.8
	c-4,2.4-7.9,5.6-12.7,7.1C494.4,304,422.2,324.6,350,343.7c-21.4,5.6-43.7,7.9-65.1,11.9C284.9,354,284.9,352.4,284.1,350L284.1,350
	z"/>
<path fill="#D81B60" d="M328.6,464.3c86.5-35.7,171.4-75.4,267.5-96.8C581,381.7,351.6,464.3,328.6,464.3L328.6,464.3z"/>
<path fill="#D81B60" d="M579.4,440.5c-4,2.4-7.1,5.6-11.1,7.1c-69.8,22.2-140.5,44.4-211.1,65.1C427,477,500,450.8,577,435.7
	C577.8,436.5,578.6,438.1,579.4,440.5L579.4,440.5z"/>
<path fill="#D81B60" d="M565.9,511.1C500.8,527,438.1,550,372.2,561.9C395.2,541.3,534.1,504,565.9,511.1L565.9,511.1z"/>
<path fill="#D81B60" d="M372.2,621.4c49.2-19,96.8-42.9,152.4-46.8C510.3,588.9,396.8,623.8,372.2,621.4L372.2,621.4z"/>
</svg>
