<?xml version="1.0" encoding="utf-8"?>
<!-- Generator: Adobe Illustrator 18.0.0, SVG Export Plug-In . SVG Version: 6.00 Build 0)  -->
<!DOCTYPE svg PUBLIC "-//W3C//DTD SVG 1.1//EN" "http://www.w3.org/Graphics/SVG/1.1/DTD/svg11.dtd">
<svg version="1.1" xmlns="http://www.w3.org/2000/svg" xmlns:xlink="http://www.w3.org/1999/xlink" x="0px" y="0px"
	 viewBox="0 0 68.4 69.7" enable-background="new 0 0 68.4 69.7" xml:space="preserve">
<g id="Banner">
</g>
<g id="Number_of_the_wedding">
</g>
<g id="Social">
</g>
<g id="Share_and_comment">
</g>
<g id="See_also">
</g>
<g id="Step_3">
</g>
<g id="Step_2">
</g>
<g id="Step_1">
	<g>
		<path fill="#8D6E63" d="M20,38.6c-1.2,0.1-2.1,0.1-3.1,0.2c-0.9,0.1-1.6-0.3-1.9-1.1c-0.4-1-0.6-2.1-0.9-3.1
			c-0.3-0.9-0.5-1.8-1-2.5c-1.2-1.7-1.9-3.6-2.4-5.6c-0.4-1.5-0.9-2.9-1.3-4.5c-1,0.3-1.9,0.6-2.8,0.8c-1.9,0.5-3.3,0.1-4.3-1.5
			C1,19.2,0.1,17,0,14.5c0-1.6,0.2-1.9,1.7-2.6c1.3-0.5,2.5-1,3.9-1.4C15.3,8.2,24.7,5,34.2,1.8c1.3-0.4,2.6-1,3.9-1.4
			c1.8-0.6,3.6-0.6,5.4,0.1c1.1,0.4,1.9,1,2.3,2.2c0.8,2.5,1.6,5,2.4,7.5c0.4,1,0.3,1.8-0.8,2.4c-0.9,0.6-1.5,1.5-2.2,2.3
			c0.1,0.1,0.1,0.2,0.2,0.3c0.8-0.1,1.5-0.1,2.3-0.3c1.2-0.2,1.5-0.1,2,1c0.3,0.7,0.5,1.5,0.7,2.3c0.1,0.5,0.3,0.9,0.5,1.7
			c0.5-0.7,0.9-1.2,1.3-1.7c1.1-1.7,2.2-3.3,3.3-5c0.3-0.4,0.7-0.6,1.1-1c0.3,0.4,0.6,0.7,1,1.1c0.1,0.1,0.2,0.3,0.3,0.6
			c0.1-0.4,0.2-0.6,0.2-0.8c0-2.5,0.9-4.6,2.8-6.2c1.9-1.7,3.9-3.4,5.8-5c0.9-0.8,1.5-0.5,1.8,0.7c0,0.2,0.1,0.5,0.1,0.7
			c-0.3,3.6,0,7.3-0.8,10.9c-0.6,2.7-1.8,5.2-3.8,7.2c-0.1,0.1-0.2,0.3-0.3,0.4c0,0,0,0.3,0,0.3h2.9c-1.1,2-2.1,4.1-4,5.2
			c-1.8,1.1-3.4,2.5-4.7,4.1c-1,1.3-2.3,2.4-3.4,3.6c1.4,4.4,2.8,8.9,4.2,13.6c0.7-0.2,1.4-0.4,2.1-0.6c3.2-0.9,5.3,0.7,5.3,4
			c0,0.5,0.1,1,0.3,1.4c0.6,1.3,0.2,2.6-1,3.4c-0.3,0.2-0.6,0.3-0.9,0.5c-7,3.3-14,6.3-21.3,8.9c-3.1,1.1-6.2,2.3-9.4,3.3
			c-1,0.3-2.2,0.4-3.3,0.3c-2.4-0.3-3.9-1.9-4.9-4.1c-1.2-2.9-2.1-5.9-2.4-9c-0.3-2.9-1.2-5.6-2.8-8.2c-1.1-1.8-2-3.7-2.9-5.6
			c-0.2-0.4,0-1,0.2-1.4c0.4-0.6,0.9-1,1.4-1.5C19.2,39.5,19.5,39.1,20,38.6L20,38.6z M12.3,18.9c0.2,2.2-1.7,4.2-0.2,6.6
			c0.6-1.3,1.1-2.4,1.7-3.6c0.1,0.1,0.2,0.1,0.4,0.2c-0.4,1.2-0.8,2.5-1.3,3.6c-0.5,1.2-0.3,2.1,0.5,3.3c0.4-1,0.8-1.8,1.1-2.7
			c0.1,0,0.2,0.1,0.3,0.1c-0.2,0.8-0.4,1.6-0.7,2.4c-0.4,1-0.2,1.7,0.8,2.3c0.5-1.1,1-2.2,1.5-3.5c0.4,2.3-1.9,3.9-0.5,6
			c0.4-1,0.9-1.9,1.3-2.9c0.1,2.2-1.9,4.2-0.6,6.6c1.1-0.1,2.2-0.1,3.3-0.2c0.6,0,1.4-0.1,1.6,0.6c0.1,0.4-0.2,1.1-0.6,1.5
			c-0.8,1-1.6,1.9-2.5,2.9c0.6,1,1.1,1.9,1.8,3c0.5-1,0.8-1.8,1.1-2.6c0,0.9-0.2,1.8-0.5,2.7c-0.3,0.8-0.1,1.4,0.6,1.9
			c0.4-1,0.8-2,1.2-2.9c0,0.9-0.1,1.7-0.4,2.5c-0.5,1.2-0.1,2.2,0.9,3c0.2-0.6,0.5-1.1,0.7-1.6c-0.6,2.1,0.2,4.1,0.6,6.1
			c0.1,0.7,0.2,1.4,0.3,2c0.4,3.1,1.2,6.1,2.4,9.1c0.6,1.4,1.6,2.4,3.2,2.9c1.1,0.3,2.1-0.2,2.5-1.1c0.3-0.6,0.4-1.2,0.6-2
			c-0.5,0-0.8,0-1.1,0.1c-1.5,0.1-2-0.1-2.5-1.4c-1.3-3.3-0.5-4.5,2.1-5.9c0.4-0.2,0.8-0.4,1.2-0.6c2.3-0.8,4.6-1.7,6.9-2.5
			c4.3-1.4,8.5-2.8,12.8-4.3c1.3-0.4,2.5-1,3.9-1.5c-1.3-4.6-2.6-9-3.9-13.6c-1.7,0.7-3.3,0.5-4.9-0.1c-0.4,0.4-0.9,0.8-1.2,1.3
			c-0.9,1.5-1.9,3.1-2.7,4.7c-0.4,0.8-0.8,1.4-1.9,1.5c-0.4,0-0.7,0.4-1.1,0.7c-0.4,0.4-0.8,0.9-1.2,1.2c-0.2,0.1-0.6,0-1.2,0
			c2.6-3.4,4.9-6.6,7.3-9.8c-0.7-1.7-1.2-3.4-0.9-5.3c0.4-2.8,1.8-5,3.5-7.1c0.5-0.6,0.9-1.1,1.4-1.7c-1.3-1.4-1-3.3-1.9-4.8
			c-1.5,0.1-3,0.2-4.7,0.3c0.6-1,1.1-1.8,1.5-2.5c1.1-1.7,1.7-3.5,0.9-5.5c-0.5-1.4-1.1-2.8-1.5-4.2c-0.7-2.2-1.1-2.6-3.4-2.6
			c-0.7,0-1.5,0.1-2.2,0.3c-2.2,0.7-4.4,1.6-6.6,2.3c-8.7,2.8-17.2,5.9-26.2,7.5c-0.1,0-0.1,0.2-0.1,0.2c1,1,2.3,1.9,3.1,3.1
			c0.8,1.2,1.1,2.8,1.6,4.3c0.3-0.7,0.5-1.1,0.9-1.8c0.2,1.6-1.4,2.9-0.1,4.5C11.6,21,12,19.9,12.3,18.9L12.3,18.9z M67.1,2.8
			c-2.5,2-4.9,3.8-6.6,6.1c-0.6,0.8-0.9,1.9-1.2,3c-0.4,1.8-0.7,3.7-1,5.5c-0.1,0.7-0.4,1.3-0.7,1.9c-0.1,0.2-0.5,0.5-0.6,0.4
			c-0.3-0.1-0.6-0.4-0.6-0.7c-0.1-0.7,0-1.5,0.1-2.2c0-0.8,0.1-1.5,0.1-2.3c-0.3,0.1-0.5,0.1-0.5,0.1c-2.2,3.5-4.7,6.7-7.3,9.9
			c-2,2.5-2.8,5.4-2.3,8.7c0.1,0.3,0.2,0.7,0.4,1C55.1,27.6,60.5,19,65.1,9.7c-0.4,2.5-1.5,4.7-2.6,6.9c-1.1,2.2-2.3,4.3-3.6,6.4
			c-1.4,2.1-2.9,4.1-4.6,6c-1.6,1.9-3.4,3.6-5.2,5.5c1.3,0.5,2.4,0.3,3.2-0.4c1.5-1.2,3-2.5,4.3-3.8c1.4-1.4,2.7-2.7,4.5-3.7
			c1.5-0.8,2.5-2.1,3.4-3.5c-1.3-0.3-2.5,0.6-4,0c0.6-0.7,1-1.2,1.6-1.7c2.5-2.2,3.9-4.9,4.4-8.1c0.3-1.7,0.5-3.4,0.6-5.1
			C67.2,6.5,67.1,4.8,67.1,2.8L67.1,2.8z M45.1,63.5c1,0,1.6-0.2,2-1.2c0.4-1.2,1-2.3,1.6-3.5c0.1,0,0.2,0.1,0.3,0.1
			c-0.4,1.1-0.8,2.3-1.2,3.5c1.4-0.2,2.3-0.7,2.6-2c0.2-0.7,0.6-1.4,0.9-2.2c0.1,0,0.2,0.1,0.3,0.1c-0.2,0.9-0.5,1.9-0.7,2.8
			c1.5,0,1.6-1.1,2-1.9c0-0.1,0.2-0.1,0.3-0.2c-0.1,0.4-0.1,0.8-0.2,1.3c0.5-0.2,1.1-0.3,1.3-0.5c0.7-0.8,1.2-1.7,2-2.8
			c-0.1,0.8-0.1,1.3-0.1,2c2.6-1.2,5-2.3,7.5-3.5c0.3-0.2,0.8-0.5,0.8-0.8c0.2-1.5,0.3-3-0.3-4.4c-0.7-1.4-1.3-1.6-2.7-1
			c-9,3.5-18.1,6.4-27.4,9c-0.6,0.2-1.2,0.5-2,0.8c3.2,2.5,3.4,5.6,2.1,8.9c1.5,0.1,2.2-0.6,2.4-1.9c0.2-1,0.4-2,1.3-2.8
			c-0.3,1.2-0.5,2.4-0.8,3.7c1.2-0.1,1.8-0.6,2-1.7c0.1-0.6,0.3-1.1,0.6-1.6c0.2-0.5,0.2-1.1,1-1.7c-0.3,1.5-0.6,2.6-0.9,3.8
			c1.3-0.2,2.1-0.6,2.4-1.9c0.2-1.1,0.7-2.2,1.1-3.3c0.1,0,0.2,0.1,0.3,0.1c-0.3,1.3-0.6,2.6-0.9,3.9c1.3,0,1.7-0.6,2-1.6
			c0.3-1,0.8-1.9,1.2-2.8c0.1,0,0.2,0.1,0.4,0.1C45.7,61.3,45.4,62.3,45.1,63.5L45.1,63.5z M1.1,13.5c0,0.3-0.1,0.6-0.1,0.8
			c0.3,2.3,1.2,4.4,2.3,6.4C3.5,21,3.8,21.3,4,21.4c0.4,0.2,1,0.5,1.4,0.4c0.3-0.1,0.4-0.8,0.5-1.3C6,20,5.8,19.5,5.8,19
			c-2,0.1-2.4-0.2-3-1.8c-0.1-0.2-0.1-0.3-0.2-0.5c-0.3-1.2,0.1-2.2,1.2-2.8c0.4-0.2,0.8-0.5,1.4-0.8C3.6,12.5,2.4,13,1.1,13.5
			L1.1,13.5z M9.1,20.7c-0.7-2.4-0.5-5-2.7-6.6c-0.5,0.2-0.9,0.5-1.4,0.7c1.3,2.1,2,4.3,2.4,6.6C7.9,21.1,8.4,21,9.1,20.7L9.1,20.7z
			 M32,61c-0.2-0.3-0.3-0.5-0.5-0.6c-0.2-0.1-0.4-0.2-0.6-0.3c-1,1.4-1,2.4,0.4,4.2c0-0.8,0.1-1.3,0-1.7C31,61.9,31.2,61.4,32,61
			L32,61z M5.1,17.8C5,16.3,5,16.3,3.9,15.6C3.5,16.9,4,17.7,5.1,17.8L5.1,17.8z M32.8,62.1c-0.2,0-0.3,0.1-0.5,0.1
			c0.1,0.6,0.3,1.3,0.4,1.9C33.5,63.3,33.2,62.6,32.8,62.1L32.8,62.1z M32.8,62.1"/>
		<path fill="#8D6E63" d="M33.8,48.7c0-1.6,0.9-2.3,2.1-2.7c1.1-0.3,1.7,0.1,1.8,1.1c0.2,2-0.4,3.9-1.1,5.8c-0.3,0.8-1,1-1.7,0.8
			c-1.8-0.6-3.5-1.3-5.2-2c-0.2-0.1-0.5-0.3-0.6-0.5c-0.9-1-0.6-2.2,0.6-2.5c1-0.3,2-0.2,3-0.2C33,48.5,33.2,48.6,33.8,48.7
			L33.8,48.7z M33.8,48.7"/>
		<path fill="#8D6E63" d="M19.4,29.1c6.4-2.3,12.8-4.6,19.2-6.9c0.5-0.2,1.1-0.2,1.6-0.2c0.1,0.2,0.1,0.2,0.1,0.3c0,0.1,0,0.1,0,0.2
			c-0.3,0.2-0.7,0.4-1,0.6C32.7,25.4,26.3,27.9,19.4,29.1L19.4,29.1z M19.4,29.1"/>
		<path fill="#8D6E63" d="M38.3,15.5c-3.6,1.1-7.2,2.5-10.9,3.3c-3.4,0.8-6.5,2.5-10.2,2.8c2-1.5,19.1-6.7,20.9-6.5
			C38.2,15.3,38.2,15.4,38.3,15.5L38.3,15.5z M38.3,15.5"/>
		<path fill="#8D6E63" d="M19,24.3c0.4-0.1,0.8-0.3,1.2-0.4c6.6-1.4,12.8-4.4,19.5-5.2c0,0.1,0.1,0.2,0.1,0.3
			c-0.3,0.2-0.6,0.4-0.9,0.5c-5.1,1.4-10.2,2.9-15.2,4.3c-1.5,0.4-3.1,0.6-4.6,0.9C19,24.6,19,24.5,19,24.3L19,24.3z M19,24.3"/>
		<path fill="#8D6E63" d="M22.1,32.4c6.1-2.5,12.1-5.3,18.9-6.9C39.9,26.6,23.7,32.4,22.1,32.4L22.1,32.4z M22.1,32.4"/>
		<path fill="#8D6E63" d="M39.9,30.7c-0.3,0.2-0.5,0.4-0.8,0.5c-5,1.6-9.9,3.1-14.9,4.6c4.9-2.5,10.1-4.4,15.6-5.5
			C39.8,30.5,39.8,30.6,39.9,30.7L39.9,30.7z M39.9,30.7"/>
		<path fill="#8D6E63" d="M38.9,35.7c-4.6,1.1-9,2.8-13.7,3.6C26.8,37.9,36.6,35.2,38.9,35.7L38.9,35.7z M38.9,35.7"/>
		<path fill="#8D6E63" d="M25.2,43.5c3.5-1.4,6.8-3,10.8-3.3C35,41.2,26.9,43.7,25.2,43.5L25.2,43.5z M25.2,43.5"/>
	</g>
	<g id="Layer_13">
	</g>
</g>
<g id="Layer_12">
</g>
<g id="Overall_info">
</g>
<g id="Footer">
</g>
<g id="Grid">
</g>
</svg>
