<?xml version="1.0" encoding="utf-8"?>
<!-- Generator: Adobe Illustrator 18.0.0, SVG Export Plug-In . SVG Version: 6.00 Build 0)  -->
<!DOCTYPE svg PUBLIC "-//W3C//DTD SVG 1.1//EN" "http://www.w3.org/Graphics/SVG/1.1/DTD/svg11.dtd">
<svg version="1.1" id="Layer_2" xmlns="http://www.w3.org/2000/svg" xmlns:xlink="http://www.w3.org/1999/xlink" x="0px" y="0px"
	 viewBox="0 0 1000 1000" enable-background="new 0 0 1000 1000" xml:space="preserve">
<path fill="#AED581" d="M562.5,937.5h125c25,0,43.8,6.3,43.8,31.3c0,12.5-6.3,18.8-12.5,25s-18.8,6.3-31.3,6.3h-375
	c-25,0-43.8-18.8-43.8-43.8c0-12.5,6.3-12.5,12.5-18.8s18.8,0,31.3,0h125V556.3c0,0,0,0,0-6.3l-275-293.8
	c-25-31.3-6.3-68.8,31.3-68.8H261L171.6,28.8L226.1,0l106.7,187.5h473.4c37.5,0,56.3,37.5,31.3,68.8L693.8,412.5L562.5,550V937.5z"
	/>
</svg>
