<?xml version="1.0" encoding="utf-8"?>
<!-- Generator: Adobe Illustrator 18.0.0, SVG Export Plug-In . SVG Version: 6.00 Build 0)  -->
<!DOCTYPE svg PUBLIC "-//W3C//DTD SVG 1.1//EN" "http://www.w3.org/Graphics/SVG/1.1/DTD/svg11.dtd">
<svg version="1.1" xmlns="http://www.w3.org/2000/svg" xmlns:xlink="http://www.w3.org/1999/xlink" x="0px" y="0px"
	 viewBox="0 0 78.6 69.8" enable-background="new 0 0 78.6 69.8" xml:space="preserve">
<g id="Banner">
</g>
<g id="Number_of_the_wedding">
</g>
<g id="Social">
</g>
<g id="Share_and_comment">
</g>
<g id="See_also">
</g>
<g id="Step_3">
</g>
<g id="Step_2">
</g>
<g id="Step_1">
	<g>
		<path fill="#8D6E63" d="M24.2,1.1c5.9,0,11.8,0.1,17.7,0c6.8-0.2,13.6-0.7,20.4-1c0.7,0,1.4-0.1,2,0c2.7,0.2,5.4,0.5,8.1,0.6
			c2.4,0.2,3.1,0.7,3.3,3.2c0.4,4.7,0.7,9.4,1.1,14.2c0.4,4.6,0.8,9.3,1.1,13.9c0.2,3.2,0.4,6.5,0.5,9.7c0.1,6.4,0.1,12.7,0.1,19.1
			c0,5.6-2.3,7.1-7.5,7.4c-2.4,0.2-4.9,0.1-7.3,0.2c-6.8,0.1-13.7,0.2-20.5,0.4c-5.7,0.2-11.5,0.5-17.2,0.7c-2.8,0.1-5.5,0-8.3,0.1
			c-2.5,0.1-5,0.3-7.5,0.2c-1.8,0-3.6-0.4-5.4-0.7c-1.4-0.2-2.2-1-2.3-2.4C2.2,63.1,1.8,59.5,1.7,56c-0.3-8.8-0.6-17.6-0.8-26.4
			C0.6,22,0.3,14.4,0,6.9c0-0.4,0-0.8,0-1.2c0.1-3.7,1.2-4.8,4.9-4.8c6.4,0,12.9,0,19.3,0C24.2,0.9,24.2,1,24.2,1.1L24.2,1.1z
			 M38.1,63.2c0.1,0.1,0.2,0.2,0.2,0.3c-0.8,1-1.6,1.9-2.5,3c1.9,0.3,3.4,0.2,4.6-1.2c0.7-0.8,1.5-1.5,2.7-1.8
			c-0.8,0.9-1.6,1.9-2.5,2.9c1.9,0.2,3.6,0.3,5-1.2v1.3c0.4,0,0.7,0,1.1,0c8.2-0.3,16.4-0.5,24.5-0.8c0.7,0,1.4-0.1,2-0.3
			c1.9-0.5,2.5-1.2,2.6-3.1c0.2-3.3,0.3-6.6,0.3-9.9c-0.1-5.8-0.1-11.6-0.5-17.4c-0.3-5.7-1-11.3-1.4-17c-0.3-4.5-0.6-9-0.9-13.6
			c0-0.5-0.2-1-0.4-1.6c-2.5-0.1-4.9-0.4-7.2-0.4C59,2.6,52.3,3,45.6,3.1c-9.3,0.1-18.6,0-27.8,0.1c-4.4,0-8.8,0-13.2,0
			C3,3.1,2.7,3.4,2.6,5c-0.1,2-0.1,3.9-0.2,5.9c0,0.4,0.1,0.8,0.3,1.4c1.4-2.1,2.7-4,4-5.9C6.8,6.5,6.9,6.6,7,6.6
			C6.8,7,6.6,7.4,6.4,7.8c-1,1.6-1.9,3.3-3,4.8c-1,1.4-0.9,2.8-0.7,4.6c1.7-2.4,3.2-4.6,4.7-6.8c0.1,0.1,0.2,0.2,0.4,0.2
			C6.3,13,5,15.3,3.5,17.6C3,18.3,2.8,19,2.8,19.8C2.9,22.5,2.9,25.3,3,28c0,0.9,0.2,1.7,0.4,3c0.8-1.1,1.4-1.8,1.9-2.6
			c-1.8,2.7-2.5,5.5-1.6,9.1c1.1-1.6,2-3,3-4.3c0.6-0.9,0.9-1.7,0.8-2.8C7.3,27,8,23.7,9.6,20.7c1.7-3.1,4.2-5.2,7.7-5.7
			c3-0.5,6.1-0.3,9,0.9c1.3,0.5,2.6,1.1,3.7,1.6c1.3-1.4,2.5-2.9,4-4.1c1.9-1.6,4.2-2.3,6.7-2.8c6-1.1,12.2,1.7,14.1,8.8
			c0.8,2.9,0.3,5.8-0.3,8.6c-1,5.2-3.4,9.8-5.8,14.5c-2.1,4.2-4.5,8.2-7.2,12c-1.5,2-1.7,2.3-3.9,1.4c-7.8-3.4-15.4-7.4-22-12.8
			c-3.2-2.6-6.1-5.6-7.3-9.8c0-0.1-0.2-0.2-0.4-0.3c-1.1,1.6-2.1,3.3-3.2,4.8c-0.9,1.2-1,2.4-0.5,4c0.9-1,1.6-1.8,2.3-2.6
			c-0.3,1.1-0.8,2.1-1.5,3c-1.4,1.6-1.1,3.4-0.8,5.5c1.3-1.6,2.5-2.9,3.6-4.2c0.1,0.1,0.2,0.2,0.4,0.3c-1,1.4-2,2.8-3.1,4.2
			c-1.1,1.4-1.3,3.3-0.4,5.3c1.4-2.3,2.9-4.4,4.6-6.4c-1.1,2.2-2.3,4.4-3.9,6.3c-1.1,1.3-1,2.4-0.7,4c1.3-1.4,2.4-2.7,3.5-3.9
			c-0.7,1.5-1.7,2.7-2.8,3.9c-1.1,1.2-1,2.4-0.3,4c1.5-2.1,2.9-3.9,4.3-5.8l0.4,0.3c-1.3,1.9-2.4,3.9-3.8,5.6
			c-1.5,1.9-1.1,3.7-0.6,5.8c1.1,0.2,2.1,0.3,3.1,0.5c0.9,0.2,1.5,0,2.1-0.8c1.1-1.6,2.4-3.1,3.7-4.6c0.3-0.4,0.7-0.6,1-0.9
			c0.1,0.1,0.1,0.1,0.2,0.2c-1.4,2-2.9,4-4.4,6.1c2.6,0.2,4.7,0,6.2-2.2c0.5-0.8,1.4-1.4,2.1-2c0,0,0.1,0.1,0.1,0.1
			c-0.9,1.2-1.9,2.5-3,3.9c0.7,0,1.1,0,1.5,0.1c1.8,0.3,3.2-0.3,4.4-1.9c0.8-1.1,1.9-2.1,2.9-3.1c0.1,0.1,0.2,0.2,0.3,0.3
			c-1.1,1.4-2.3,2.9-3.6,4.5c0.8,0,1.3-0.1,1.8,0c1.9,0.3,3.2-0.5,4.3-1.9c0.7-0.9,1.5-1.6,2.2-2.4c0.1,0.1,0.2,0.2,0.4,0.3
			c-0.9,1.2-1.9,2.3-2.9,3.6c1.7,0.3,2.9,0.2,4-1.1c0.8-0.9,1.7-1.7,2.6-2.6c0.1,0.1,0.1,0.2,0.2,0.2c-0.8,1.1-1.7,2.1-2.6,3.3
			c1.8,0.5,3-0.1,4.1-1.3C36.4,64.7,37.2,64,38.1,63.2L38.1,63.2z M38.8,54c1.3-1.9,2.9-3.8,4-5.9c2.3-4.1,4.4-8.2,6.5-12.4
			c2.1-4.3,3.4-8.8,3.3-13.7c-0.1-3.5-1.6-6.5-4.8-8.2c-5.4-3.1-13.6,0.1-15.5,4.4c-0.3,0.7-0.7,1.4-1.1,2.2
			c-0.8,1.4-1.6,1.5-2.4,0.1c-1.3-2-3.1-3-5.4-3.4c-0.5-0.1-1.1-0.2-1.6-0.3c-5.2-0.5-8.8,1.3-11,6.3c-1.3,3-1,6.2-0.9,9.3
			c0,0.4,0.3,0.7,0.4,1.1c0.4-0.4,0.7-0.6,1.3-1.2c-0.9,1.8-1.3,3.2,0.3,4.4c0.6-0.8,1.1-1.5,1.7-2.3c0.1,0.1,0.2,0.1,0.3,0.2
			c-0.4,1-0.9,2.1-1.4,3.2c0.5,0.5,1,1.1,1.5,1.6c0.6-0.9,1.1-1.6,1.7-2.3c0.1,0.1,0.2,0.1,0.4,0.2c-0.4,0.9-0.9,1.9-1.3,2.9
			c0.6,0.5,1,0.9,1.6,1.3c0.7-1,1.3-1.9,1.8-2.7c0.1,0.1,0.2,0.1,0.4,0.2C18,40,17.5,41,17,42.1c0.7,0.6,1.4,1,2.1,1.6
			c0.6-0.8,1.1-1.4,1.5-2.1c0.1,0,0.1,0.1,0.2,0.1c-0.3,0.8-0.6,1.7-1,2.6c0.7,0.4,1.2,0.7,1.8,1.1c0.4-0.6,0.8-1,1.1-1.4
			c0.1,0,0.1,0.1,0.2,0.1c-0.2,0.6-0.3,1.1-0.5,1.8c0.8,0.4,1.5,0.8,2.1,1.2c0.5-0.6,0.9-1,1.7-1.8c-0.3,1.1-0.5,1.7-0.7,2.4
			c0.8,0.5,1.5,0.9,2.2,1.3c0.4-0.5,0.6-0.9,0.9-1.2c0,0,0.1,0.1,0.2,0.2c-0.1,0.5-0.1,1-0.2,1.5C31.7,51.3,36.7,53.6,38.8,54
			L38.8,54z M38.8,54"/>
		<path fill="#8D6E63" d="M64.4,30.8c-2.4-0.1-2.6-1.8-2.8-3.3c-0.2-1.7-0.2-3.4-0.2-5.1c0-1.1,0-2.1,0-3.4c0.2-0.2,0.7-0.5,1.3-0.9
			c0-0.2,0.1-0.4,0.1-0.6c-0.1-1-0.2-2-0.3-3c-0.2-1.9,0.2-2.4,2.1-2.7c1.5-0.2,2,0.3,2.2,2.1c0.1,0.7,0.1,1.5,0.1,2.2
			c0,0.8,0.2,1.6,1.1,2c1,0.5,1.2,1.5,1.2,2.4c0.1,2.7,0.1,5.4,0.1,8.1c0,0.9-0.5,1.5-1.4,1.7c-0.6,0.1-1.2,0.3-1.7,0.4
			c-4.4,8.5-8.8,16.9-13,25c0.1,1.3,0.6,2.5,0.3,3.5c-0.3,1-1.2,1.9-2.1,2.6c-1.6,1.2-3.9,0.7-5-0.9c-0.9-1.2-0.5-3.1,1-4.3
			c0.7-0.5,1.5-1.1,2.3-1.2c1.3-0.2,1.9-1.1,2.5-2.1c3-5.7,6-11.3,9.1-17C62.1,34.6,63.2,32.9,64.4,30.8L64.4,30.8z M66.9,19.6
			c-0.5,0-1-0.1-1.5-0.1c-1.5,0.1-1.7,0.2-1.8,1.8c-0.1,1.3-0.3,2.7-0.3,4c-0.1,1.3,0,2.5,0,3.8c1.6,0.2,3,0.4,4.3-0.2
			C67.9,25.4,67.7,21.4,66.9,19.6L66.9,19.6z M51.8,58.6c0-0.8-0.7-1.6-1.4-1.6c-1.1,0-2.7,1.6-2.7,2.6c0,0.8,0.7,1.5,1.6,1.5
			C50.3,61.1,51.8,59.6,51.8,58.6L51.8,58.6z M64.5,13.1c-0.4,0.4-0.8,0.6-0.9,0.9c-0.1,1.3,0.1,2.6,0.9,3.8
			C65.1,16.4,65.2,15,64.5,13.1L64.5,13.1z M64.5,13.1"/>
		<path fill="#8D6E63" d="M69.1,56c0.4,0,0.8,0,1.2,0c1.2,0.1,1.6,0.6,1.7,1.8c0,0.5,0,0.9,0,1.4c-0.3,4.1-1.8,4.1-4.5,3.5
			c-0.9-0.2-1.9-0.1-2.8-0.1c-0.6,0-1.2,0.1-1.8,0.1c-1.9,0-2.3-0.4-2.4-2.4c-0.2-3.6,0-3.8,3.7-4.1C65.9,56.2,67.5,56.1,69.1,56
			C69.1,56,69.1,56,69.1,56L69.1,56z M62,61.7c1.6-0.1,3.1-0.3,4.5-0.4v-4c-0.4,0-0.8,0-1.2,0C61.7,57.4,61.4,57.7,62,61.7L62,61.7z
			 M67.7,57.2c0.3,1.6,0.5,3,0.8,4.7c0.6-0.3,1.4-0.3,1.5-0.7c0.4-1.2,1.1-2.5,0.5-3.9c-0.4-0.1-0.7-0.1-1-0.1
			C69,57.2,68.5,57.2,67.7,57.2L67.7,57.2z M67.7,57.2"/>
		<path fill="#8D6E63" d="M11.3,60c-1.6,2.1-3.2,4.2-4.7,6.2C6.5,64.8,8.6,62.1,11.3,60L11.3,60z M11.3,60"/>
		<path fill="#8D6E63" d="M4.7,21.2C5.3,19.1,6.6,17.6,8,16C7.2,18,6.1,19.7,4.7,21.2L4.7,21.2z M4.7,21.2"/>
		<path fill="#8D6E63" d="M7.4,21.8c-1,1.5-1.9,2.9-2.9,4.4c-0.1-0.1-0.2-0.2-0.4-0.2C4.9,24.4,6,23,7.4,21.8L7.4,21.8z M7.4,21.8"
			/>
		<path fill="#8D6E63" d="M34.1,39.4c-3.5,0-6.1-1.7-7.2-4.5c-1.3-3.5,1.4-7.5,5.1-7.8c3.8-0.2,7,2.1,7.9,5.8
			c0.8,3.1-1.2,6.1-4.4,6.5C35.1,39.5,34.6,39.4,34.1,39.4L34.1,39.4z M28.6,33.5c0,1.5,0.4,2.4,1.4,3.2c1.6,1.2,3.5,1.7,5.5,1.2
			c2.6-0.6,3.6-2.9,2.6-5.4c-0.3-0.6-0.6-1.2-1-1.8c-1.4-2-3-2.6-5.4-1.8C29.5,29.7,28.6,31.2,28.6,33.5L28.6,33.5z M28.6,33.5"/>
	</g>
	<g id="Layer_13">
	</g>
</g>
<g id="Layer_12">
</g>
<g id="Overall_info">
</g>
<g id="Footer">
</g>
<g id="Grid">
</g>
</svg>
