<?xml version="1.0" encoding="utf-8"?>
<!-- Generator: Adobe Illustrator 18.0.0, SVG Export Plug-In . SVG Version: 6.00 Build 0)  -->
<!DOCTYPE svg PUBLIC "-//W3C//DTD SVG 1.1//EN" "http://www.w3.org/Graphics/SVG/1.1/DTD/svg11.dtd">
<svg version="1.1" xmlns="http://www.w3.org/2000/svg" xmlns:xlink="http://www.w3.org/1999/xlink" x="0px" y="0px"
	 viewBox="0 0 68.9 69.8" enable-background="new 0 0 68.9 69.8" xml:space="preserve">
<g id="Banner">
</g>
<g id="Number_of_the_wedding">
</g>
<g id="Social">
</g>
<g id="Share_and_comment">
</g>
<g id="See_also">
</g>
<g id="Step_3">
</g>
<g id="Step_2">
</g>
<g id="Step_1">
	<g>
		<path fill="#8D6E63" d="M59.4,22.7c1,2.6,1,5.2,0.5,7.9c-1.2,6.2-3.6,11.9-6.7,17.4c-3.6,6.4-8.2,12.1-13.9,16.8
			c-1.8,1.5-3.8,2.8-5.7,4.2c-1.6,1.1-2.5,1.1-4-0.2c-1.8-1.6-3.7-3.1-5.4-4.8c-4.3-4.3-8.8-8.4-12.7-13c-5.1-5.9-9.4-12.3-11-20.1
			c-0.4-2-0.6-4-0.3-6.1c0.4-3,1.8-5.4,4-7.5c3.2-3.1,7-4.9,11.3-5.8c2.2-0.5,4.5-0.3,6.6,0.5C25,13,28,14,30.4,16.3
			c2.2-2.6,4.7-4.9,8-5.9c3.3-1,6.5-1.7,9.8,0.1c2-1.7,3.9-3.4,5.8-5.2c1.9-1.8,3.6-3.6,5.4-5.4c1.1,0.4,1,1.1,1,1.7
			c0,1.8,0.1,3.7,0.1,5.5c0,0.6,0.1,1,0.6,1.5c0.7,0.6,1,1.6,1.5,2.3c1.6,0.4,3.1,0.7,4.7,1.1c1.9,0.5,2.2,1.2,0.8,2.6
			c-2.2,2.2-4.6,4.3-6.8,6.4C60.6,21.6,60,22.2,59.4,22.7L59.4,22.7z M8.8,43.9L8.8,43.9c0.4,0.6,0.8,1.3,1.3,2.2
			c0.4-1.4,0.8-2.4,1.1-3.4c0.1,1.1-0.2,2-0.3,3c-0.1,0.5-0.1,1.3,0.2,1.7c1.6,2.3,3.6,4.3,5.6,6.4c0.4-0.6,0.6-1.1,0.9-1.5
			c0.1,0,0.1,0.1,0.2,0.1c-0.2,0.7-0.3,1.3-0.4,1.8c0.6,0.7,1.1,1.3,1.7,2c0.3-0.6,0.5-1.1,0.9-1.8c0.3,1.3-0.9,2.9,1.1,3.4
			c0.3-0.6,0.6-1.1,0.9-1.7c0.1,0.8-0.2,1.5-0.2,2.3c0,0.9,0.7,1.2,1.3,1.6c0.5-0.9,0.9-1.7,1.3-2.5c0.1,0,0.2,0.1,0.2,0.1
			c-0.3,1.1-0.6,2.1-0.9,3.2c0.5,0.4,0.9,0.8,1.4,1.2c0.5-1.2,0.9-2.3,1.3-3.4c0.1,0,0.2,0.1,0.4,0.1c-0.2,0.9-0.5,1.9-0.7,2.8
			c-0.3,1.3-0.3,1.4,1.1,2.2c0.7-1.5,1.3-3,2-4.6l0.3,0.1c-0.6,1.7-1.1,3.4-1.7,5.2c0.6,0.5,1.1,1,1.7,1.5c0.9-2.4,1.8-4.5,2.9-6.5
			c0.1,0,0.2,0.1,0.4,0.1c-0.9,2.3-1.7,4.6-2.7,7.1c0.6,0.3,1.1,0.6,1.6,1c0.3-0.5,0.6-0.9,0.8-1.4c0.9-2,1.7-4.1,2.6-6.1
			c0.1,0,0.3,0.1,0.4,0.1c-0.1,2.1-1.5,3.8-2,5.9c0.3-0.1,0.5-0.1,0.6-0.2c1-0.7,2-1.4,3-2.2c6.6-5.4,11.6-12,15.5-19.5
			c2.6-5,4.4-10.1,5.3-15.7c0.2-1.4,0.4-2.8-0.3-4.4c-0.5,0.5-0.9,0.8-1.3,1.1c-1.2,1-1.5,1-2.8,0.1c-1.1-0.8-2.3-1.5-3.6-2.4
			c-2.5,2.3-4.8,4.5-7.2,6.8c0.5,0.5,0.8,0.9,1.1,1.2c0.9,1,1.6,2.1,2,3.5c1.6,4.9,0.6,9.4-1.9,13.7c-0.8,1.5-2,2.7-3.5,3.7
			c-4.5,3.1-9.5,3.9-14.7,2.6c-6-1.5-9.8-5.7-11.9-11.4c-0.9-2.3-1.1-4.8-0.6-7.3c2.1-9.8,12.4-13.3,19.7-12.1
			c2.5,0.4,4.8,1.4,6.8,3c0.2-0.1,0.3-0.1,0.4-0.2c2.1-2.1,4.2-4.1,6.3-6.2c0.3-0.3,0.5-0.9,0.4-1.4c-0.1-1.3-0.3-2.7-0.6-4
			c-0.3-1.3-0.4-2.5,0.8-3.6c-1.3-0.9-2.7-1-4-0.9c-3,0.4-5.8,1.2-8.1,3.2c-1.4,1.2-2.8,2.5-3.6,4.3c-0.6,1.3-1.5,1.2-2.4,0
			c-0.3-0.5-0.7-1-1.1-1.3c-3.1-2.2-6.4-3.7-10.2-3.9c-2.6-0.1-4.9,0.8-7.1,1.8c-2.9,1.3-5.3,3.2-7.2,5.9c-1.9,2.7-1.9,5.8-1.5,8.8
			c0.1,0,0.3,0.1,0.4,0.1c0.7-1.5,1.4-2.9,2-4.4c0.2,0.4,0.1,0.7,0,1C4,27.5,3.5,28.8,3,30c-0.2,0.5-0.4,1-0.3,1.5
			c0.4,2.2,1.2,4.3,2.4,6.6c1-3,1.9-5.7,3.1-8.3C7.6,32.5,6.9,35,6,37.5c-0.5,1.3-0.3,2.3,0.5,3.2c0.3,0.4,0.7,0.8,1,1.2l0,0
			C8,42.6,8.4,43.3,8.8,43.9L8.8,43.9z M40,32.6c0.8,1.2,1.6,2.1,2,3.1c2.2,5.1-0.3,11-5,13.6c-5.2,2.9-11.1,1.1-14.7-1.9
			c-0.8-0.7-1.5-1.6-1.9-2.5c-1.4-2.8-1.8-5.6-1-8.7c1.5-6.2,7.8-9.2,12.7-7.7c1.5,0.5,3,1,4.2,2.1c0.8-0.8,1.6-1.5,2.5-2.4
			c-2.3-1.8-4.6-2.9-7.2-3.3c-4.4-0.5-8.3,0.6-11.7,3.4c-3,2.4-4.7,5.6-4.9,9.4c-0.2,3.7,0.9,7,3.3,9.8c2.6,3,5.5,5.6,9.7,5.8
			c2,0.1,4,0.2,6-0.3c3.9-0.9,7.3-2.8,9.2-6.6c0.8-1.5,1.3-3.2,1.7-4.8c0.7-2.6,0.3-5.3-0.7-7.8c-0.2-0.6-0.7-1.1-1.1-1.5
			c-0.4-0.4-1-0.8-1.6-1.2C41,31.8,40.5,32.2,40,32.6L40,32.6z M35.2,31.6c-1.3-1.1-2.8-1.4-4.4-1.7c-3.6-0.5-6.6,1-8.8,3.6
			c-3.4,4.1-1.6,11.7,2.4,13.9c0.9,0.5,1.9,1,2.9,1.3c5.3,1.9,10.1,0.2,12.9-4.6c1.6-2.7,2-7.7-1.7-10.1c-0.8,0.7-1.6,1.4-2.5,2.2
			c1.3,1.7,1.1,3.5,0.7,5.3c-1,5.1-7.4,6.1-10.4,4c-3.1-2.1-4.2-6.6-2.4-9.9c1.5-2.8,5.7-4.5,8.3-1.6c0.1,0.1,0.3,0.1,0.5,0.2
			C33.5,33.4,34.3,32.5,35.2,31.6L35.2,31.6z M30.2,40.2C40.6,30.5,51,21,61.5,11.1c-0.5-0.5-0.8-0.8-1-1.1
			c-11,9.2-20.8,19.2-31,28.8C29.6,39.2,29.9,39.7,30.2,40.2L30.2,40.2z M31.3,35.5c-1.5-2.2-4.8-2.1-6.2,0.1
			c-1.3,2.1-1.2,5.6,0.3,7.3c1.9,2.3,4.4,2.9,7.2,1.8c2.6-1.1,3.9-4.8,2.4-7.3c-1,1-2.7,1.5-2.7,3.4c0,0.3-0.4,0.6-0.6,0.8
			c-0.9,0.7-1.8,0.7-2.8,0.2c-1-0.5-1.5-1.6-1.3-2.7c0.2-1.1,0.6-2.3,1.9-2.4C30.5,36.7,31,36.3,31.3,35.5L31.3,35.5z M59.3,2.1
			C59.2,2,59,1.9,58.8,1.9c-0.7,0.9-1.8,1.7-1.9,2.6c-0.2,2-0.2,4,0.5,6.4c0.8-1,1.7-1.6,1.8-2.3C59.5,6.4,59.3,4.2,59.3,2.1
			L59.3,2.1z M65.2,15.9c0.6-0.6,1.3-1.5,2.3-2.5c-1.8-0.5-3.5-0.9-4.9-1.2c-1,1-1.8,1.8-2.5,2.5C61.5,15,63.2,15.4,65.2,15.9
			L65.2,15.9z M56.6,17.4c1.5,0.5,2.8,1.1,4.1,1.5c0.4,0.1,1.1,0.1,1.4-0.1c0.7-0.5,1.3-1.2,2.1-2c-1.4-0.4-2.5-0.6-3.6-1
			c-1.4-0.6-2.5-0.3-3.3,0.9C57.1,16.8,56.9,17,56.6,17.4L56.6,17.4z M56.2,5.6c-0.1-0.1-0.3-0.1-0.4-0.2c-0.6,0.5-1.1,1-1.7,1.5
			c-0.2,0.2-0.5,0.6-0.4,0.9c0.1,1.9,0.3,3.8,0.5,5.9c0.9-0.8,2-1.2,2-2.3C56.3,9.4,56.2,7.5,56.2,5.6L56.2,5.6z M51,16.2
			c1.7-0.8,2.5-1.9,2.1-3.6c-0.2-0.9,0-1.9,0-2.8c0-0.6,0-1.1,0-1.9c-1,1-2.4,1.5-2.4,2.9C50.6,12.6,50.8,14.3,51,16.2L51,16.2z
			 M50.6,22.3c1.7,1,3.1,1.8,4.6,2.7c0.8-0.8,1.8-1.7,2.8-2.7c-1.9-0.5-3.4-1-5-1.4c-0.3-0.1-0.7,0.1-0.9,0.3
			C51.6,21.5,51.2,21.8,50.6,22.3L50.6,22.3z M53.2,20.2c1.7,0.4,3.1,0.5,4.3,1c1.5,0.5,2.4-0.3,3.3-1.5c-0.9-0.3-1.7-0.5-2.4-0.8
			c-0.8-0.3-1.6-0.6-2.5-0.9C55.1,18.6,54.3,19.3,53.2,20.2L53.2,20.2z M48.5,18.6c1.6-1.1,1.7-1.1,1.6-2.5c0-1.1-0.1-2.1-0.2-3.2
			c-0.1-0.6,0.2-1.2-0.3-1.8c-0.5,0.6-1,1-1.4,1.5C48,13,47.7,13.5,47.8,14C47.9,15.5,48.2,17,48.5,18.6L48.5,18.6z M48.5,18.6"/>
		<path fill="#8D6E63" d="M7.6,42c-0.1-0.6-0.4-1.3-0.2-1.8c0.7-2.3,1.4-4.5,2.4-6.7C9.6,36.4,8.2,39.1,7.6,42C7.6,42,7.6,42,7.6,42
			L7.6,42z M7.6,42"/>
		<path fill="#8D6E63" d="M7,26c-1,2.8-1.9,5.7-2.9,8.5c-0.1,0-0.2-0.1-0.4-0.1c0.3-3.1,1.9-5.7,2.9-8.5C6.8,25.9,6.9,25.9,7,26
			L7,26z M7,26"/>
		<path fill="#8D6E63" d="M8.8,43.9c0.6-1.7,1.1-3.4,1.7-5.1c0.1,0,0.2,0.1,0.3,0.1C10.3,40.6,10,42.4,8.8,43.9
			C8.7,43.9,8.8,43.9,8.8,43.9L8.8,43.9z M8.8,43.9"/>
	</g>
	<g id="Layer_13">
	</g>
</g>
<g id="Layer_12">
</g>
<g id="Overall_info">
</g>
<g id="Footer">
</g>
<g id="Grid">
</g>
</svg>
