<?xml version="1.0" encoding="utf-8"?>
<!-- Generator: Adobe Illustrator 18.0.0, SVG Export Plug-In . SVG Version: 6.00 Build 0)  -->
<!DOCTYPE svg PUBLIC "-//W3C//DTD SVG 1.1//EN" "http://www.w3.org/Graphics/SVG/1.1/DTD/svg11.dtd">
<svg version="1.1" id="Layer_1" xmlns="http://www.w3.org/2000/svg" xmlns:xlink="http://www.w3.org/1999/xlink" x="0px" y="0px"
	 viewBox="0 1080 3140 1080" enable-background="new 0 1080 3140 1080" xml:space="preserve">
<g>
	<g>
		<path fill="#D81B60" d="M941,1334c-5.4,3.1-9.6,9.7-13.3,14.4c-6.3,8-12.1,16.3-17.7,24.8c-12.1,18.7-23.1,38.1-33.4,57.9
			c-23.4,44.9-43.3,91.4-59.9,139.3c12.8,0,25.4-0.3,38.1-2.1c5.3-0.8,10.3-2.9,15.6-3.6c6.3-0.9,5.7,3.5,1.8,6.7
			c-9.9,8.2-22.4,12.1-34.8,14.4c-6.6,1.3-13.3,2.4-20,3.2c-3.2,0.4-5.6-0.6-6.7,2.7c-1.1,3.3-2.2,6.6-3.3,9.9
			c-9,27.1-17.7,54.3-24.8,81.9c-6.6,25.5-14.8,56.6-8.7,82.9c2.4,10.3,9.7,19.3,21,19.7c13.4,0.5,25.1-11.1,33.7-20
			c20-20.7,34.5-46.5,47.9-71.7c3.2-6,6.3-12,9.4-18c2.2-4.4,4.4-11.8,9.2-14.1c11.5-5.5-3.1,24.4-3.9,25.9
			c-12.3,24.9-24.7,50.5-41.7,72.5c-16,20.8-37.8,44.8-65.3,48.1c-30.2,3.7-46.9-19-49.5-46.4c-2.9-30.9,5.5-62.3,14.1-91.7
			c8.1-27.5,18.3-54.2,27.8-81.2c-56.8,0-113.8-3.7-170.5-6.1c-6.4-0.3-12.8-0.6-19.1-0.9c-5.4-0.3-13-2.9-14.9,2.6
			c-5,14.7-10.7,29.3-17,43.5c-12.2,27.9-26.5,54.9-43.1,80.5c-62.7,96.6-161.5,174.2-280.4,177.4c-55.3,1.5-113.9-12.6-156.7-49.2
			c-41.6-35.7-58.3-88.9-49.9-142.3c4.7-29.4,16.1-53.9,37.9-74.5c9.4-8.9,20.6-18.4,33.1-22.5c4-1.3,9.5-2.1,13.6-0.4
			c5.5,2.3-6.3,7.8-7.7,8.5c-23.7,11.8-40.9,38.6-50.8,62.2c-10.3,24.6-12.8,54.4-6.6,80.4c13.1,54.4,63.1,84.9,115,95.5
			c56.2,11.5,112.2,0,164.4-21.8c49.5-20.7,94.6-53.3,130.5-93.1c38.9-43,66.9-94.9,87.6-148.8c-15.9,0-27.9,7.8-42.6,12
			c-19.9,5.7-8.7-12-0.4-18.9c9.5-7.9,20-12.9,32.4-12.9c4.3,0,8.6,0,12.9,0c6.7,0,6,0.2,8.8-6.7c25.9-63.5,54.2-126.4,84.9-187.7
			c-62,7.6-125.6,6.9-185.6,26.3c-53.1,17.2-94.6,53.9-113.6,106.8c-9.2,25.7-13.1,53.6-1.4,79.2c10.7,23.4,34.3,36.7,59.9,32.8
			c29.3-4.5,47.1-24.2,58.9-50.3c5.5-12.2,9.5-25.5,11.5-38.8c0.8-5.7,1.6-11.8,0.8-17.6c-0.6-3.9-5.7-8.8-3-12.6
			c7-10,14.9,21.4,15.3,24.2c2.1,14.8-0.8,30.3-6.6,44c-10.4,24.8-31.5,46.5-56.5,56.8c-53.3,22-109.9-10.9-123.5-65.4
			c-13.4-53.6,18.2-110.2,60.4-141.5c47.9-35.5,110.5-44.5,168.3-49.9c24.8-2.3,49.6-3.4,74.4-4.8c11.9-0.6,23.8-1.5,35.7-2.5
			c3.4-0.3,12.2,0.4,14.2-2.4c3-4.4,5.7-9,8.7-13.3c11.4-16.3,27.5-35.5,49.2-35.3c24.2,0.3,27.3,24.9,11.6,39.7
			c-15.6,14.7-39.4,23.2-60.7,23.2c-10,21.2-19.5,42.6-27.9,64.5c-16.8,43.6-33.6,87.2-49.5,131.1c48.6,0,96.9,3.8,145.2,7.3
			c11.4,0.8,22.9,1.7,34.3,2.2c5.8,0.3,22.8,3.6,24.9-2.1c6.9-18.6,14.3-37.1,21.9-55.5c18.6-44.6,38.5-89.4,64.2-130.3
			c10.2-16.2,22-36.8,39.6-46c9-4.7,20.5-7,30.4-8.8c1.5-0.3,10.2-2.4,10.2,0.5C949.4,1330.6,942.6,1333.2,941,1334
			C938.2,1335.6,946.6,1331.2,941,1334z M698.6,1321.4c-8.4-4.2-27.9,23.3-31.8,28.8c9.2-1.4,19.4-3.1,27.6-7.8
			c3.9-2.2,8.5-5.2,10.2-9.6C706.2,1328.7,704.1,1321.4,698.6,1321.4C697,1320.6,700.2,1321.4,698.6,1321.4z"/>
		<path fill="#D81B60" d="M1108.4,1673.6c-9.3,19.3-19.1,38.6-30.6,56.7c-11.4,18-25.2,38.4-44,49.5c-16.9,9.9-39.3,5.5-47.5-13.5
			c-7.9-18.3-3.6-40.1,1.6-58.5c-14.3,23.8-31.3,48.5-53.7,65.4c-19.6,14.8-46.4,16.9-58-8.5c-11.1-24.3-5.4-54,3.2-78.1
			c9.6-26.9,24.8-50.9,43.4-72.5c18.2-21.1,44.7-36.5,72-42.1c13.1-2.7,27.3-2.9,40.2,1.1c9.9,3,27.6,12.1,29.5,23.6
			c0.7,4.4-2.2,8.8-6.5,9.7c-6.5,1.3-6-5.3-8.9-9.7c-6.6-10.1-19-13.1-30.4-11.1c-26.3,4.5-48.9,29.7-65.3,48.9
			c-22.2,26-41.3,56-51.9,88.7c-3.7,11.3-8.5,29.4,0.2,39.6c10.8,12.8,30.4-1.2,39.5-9.2c27-23.6,44.9-59,62-89.9
			c7-12.8,13.8-29.7,25.2-39.3c13.4-11.4,29.2-0.2,44.2-3c-8.8,8.8-15,20.8-21.2,31.5c-8.5,14.9-16.3,30.2-23,46
			c-6.1,14.4-11.3,29.1-13.4,44.7c-0.9,6.6-3.4,21.2,4.2,25.2c9.4,5,21.1-6.8,26.6-12.8c10.8-11.8,19.9-25.2,28.2-38.8
			c8.3-13.6,15.6-27.7,22.8-41.9c2-3.8,4.7-12.6,10-12.8C1113,1662.3,1109.7,1670.8,1108.4,1673.6
			C1104,1682.8,1111.2,1667.6,1108.4,1673.6z"/>
		<path fill="#D81B60" d="M1199.6,1706.6c-16.2,28.7-45.5,79-84.3,76.7c-20.2-1.2-34.1-14.1-35.5-34.5c-1.5-23,11.5-42.3,21.4-62
			c-12.5,0-3.9-11.6-1.2-17.1c4.5-9.2,9.1-18.3,13.8-27.4c5.3-10.3,10.7-20.6,16-31c4.3-8.4,7.6-18.8,13.6-26.1
			c7.3-8.9,19.9-7.6,30.2-7.6c8.8,0,17.7,0,26.5,0c-18.1,12.1-29.2,31.1-38.4,50.4c-11.9,22.2-22.4,45.1-33.2,67.8
			c-8.7,18.4-19.8,39.5-16.4,60.6c4.3,26.6,32.3,6.3,42.4-4.4c35.2-37.4,57.9-87.6,80.3-133.2c5.3-10.7,9.4-24.5,17-33.7
			c5.3-6.4,13.6-7.6,21.5-7.6c10.4,0,20.7,0,31.1,0c-17.1,14.1-27.1,30.1-36.7,49.8c-11.1,22.8-22.4,45.4-32.4,68.8
			c-7.4,17.3-17.7,39.4-14,58.8c5.6,29.5,36.6,3.7,46.5-7.7c33.6-38.6,56-88.1,78.3-133.7c4.4-9.1,7.9-20.6,14.4-28.4
			c5.3-6.5,13.6-7.6,21.5-7.6c10.4,0,20.7,0,31.1,0c-9.1,7.5-17.4,15.3-23.7,25.3c-7.5,11.9-12.9,25-19.3,37.4
			c-13.2,25.5-26.3,52.3-35.3,79.7c-4.6,14-12.5,57.1,16.3,47.6c24.7-8.1,41.4-40.5,52.9-61.8c6.6-12.2,12.8-24.6,18.8-37.1
			c1.5-3.1,5.5-8.9,9.4-4.8c3.7,3.9-2,12.4-3.7,16c-12.3,26.1-25,52.9-44,75c-15.3,17.8-42.6,39.1-66.7,23.3
			c-22.3-14.6-16.6-50.6-9.6-71.7c-8.1,15.2-17.7,30-28.9,43c-11.7,13.6-27.3,30.1-45.8,33.3
			C1189.1,1790.4,1190.4,1734.2,1199.6,1706.6C1194.4,1715.8,1195.6,1718.6,1199.6,1706.6z M1313.6,1809.8
			c-10.9,16.3-25.9,29.9-44.6,36.7c-21.6,7.9-43.3,2.6-64.6-3.7c-19.8-5.8-42.2-14.6-63.1-11.1c-8.3,1.4-15.9,6-21.7,11.9
			c-3.6,3.7-4.4,5.6-10,5.6c-1.7,0-10.8,0-10.8-2.8c11-14.2,27.1-28.3,44.2-34.2c21.1-7.3,44.1-2.7,65.1,3
			c20.7,5.6,43.4,15,65.3,10.8c8.4-1.6,15.8-6.3,21.8-12.3c3.7-3.7,4.1-5.4,9.4-5.7C1305.2,1808,1314.8,1808.6,1313.6,1809.8
			C1310.4,1814.6,1314,1809.4,1313.6,1809.8z"/>
		<path fill="#D81B60" d="M1430.6,1733c-2.6,9.4-6.3,25.6,1.8,33.5c9.5,9.1,24.6,3.2,33.4-3.4c22.3-16.5,35.9-47,48.6-70.8
			c2.5-4.6,13.4-33.3,20-29.5c7.2,4.2-6.5,25-8.9,29.9c-12.5,26.1-26.2,52-47.1,72.5c-16.7,16.5-46.6,28.7-66.2,9
			c-17.6-17.7-12.6-47.5-4.4-68.4c9-23,18.1-46,27.1-69c3.2-8.2,6.4-16.4,9.6-24.5c4.3-10.9,2.9-19.6-4.4-29.3
			c7.9-0.1,48.1-5.3,49.2,6.1c1.2,11.9-10.6,30.8-15.1,41.3C1459.7,1664.3,1447,1699.9,1430.6,1733
			C1427.8,1743,1431,1732.2,1430.6,1733z M1515.2,1533.2c-2.4,13.5-15,24.6-28.8,24.6c-13.5,0-22.6-11.5-21-24.6
			c2.4-13.5,15-24.6,28.8-24.6C1507.6,1508.6,1517.6,1519.9,1515.2,1533.2C1514,1540,1516.4,1526.4,1515.2,1533.2z"/>
		<path fill="#D81B60" d="M1892,1673.6c-11.5,24.1-23.5,48.1-39,69.9c-14.5,20.3-35.6,44.9-63.1,42.8c-27.4-2.1-37.1-26.5-33.3-51
			c4.2-26.8,18.2-50.1,32.1-73c3.8-6.3,16.9-22.8,10.3-30.7c-5.6-6.7-19.4,2.9-24.4,6.3c-20.3,13.8-37.5,32.5-52.8,51.5
			c-15.2,18.9-28.1,39.2-39.8,60.4c-3.5,6.3-6.9,12.6-10.1,19c-2.5,4.9-4.7,11.2-10,13.9c-11.2,5.6-25.7-1.4-36.7,5.5
			c22.4-44.8,42.7-90.6,65.5-135.2c10-19.5,19.4-41,33.1-58.3c5.4-6.8,12-11.3,20.7-12.2c10.7-1.1,20.7,4.2,31.3,2.2
			c-17.2,9.3-29.1,33.7-38.7,49.8c-12.2,20.5-23.6,41.5-33.9,63c20.7-26.2,43.3-50.7,70.3-70.3c14.2-10.3,29-19.7,44.7-27.5
			c12.4-6.2,31.4-17,45.8-12.6c-17.2,30.9-34,62.1-49,94.1c-7,14.9-13.9,30-19.1,45.6c-3.3,9.9-10.1,29.5-3.9,39.4
			c16.9,26.8,56.8-35,63.6-45.9c8.7-13.9,16.2-28.6,23.6-43.2c2.1-4.2,4.6-12.7,9.2-14.7C1895.9,1659,1893.4,1670.7,1892,1673.6
			C1887.6,1682.8,1894.8,1667.6,1892,1673.6z"/>
		<path fill="#D81B60" d="M2094.2,1671.8c-10.1,23.5-20.5,47-35.6,67.8c-15.7,21.6-36.6,41.9-65.2,39.5c-12-1-23.6-5.9-31.8-14.9
			c-11.5,8.6-24.8,16.2-39,18.9c-25.6,4.7-48.1-7.4-53.7-33.6c-11.7-54.3,27.1-117.1,67.4-150.3c19.8-16.3,49.4-32.8,75.5-21.1
			c24.7,11.1,26.6,43.4,23,66.4c-4.4,28.3-16.8,53.9-33.1,77.2c-8.4,11.9-18,23-28.7,32.9c5.6,10.7,16.6,15,28.2,15
			c27.4,0,46.5-32.5,58.5-53.1c7.6-13.1,14-26.8,20.7-40.4c1.7-3.5,3.9-11.2,7.8-12.8C2094.5,1660.6,2096.1,1667.6,2094.2,1671.8
			C2091.8,1677.4,2096.2,1667.4,2094.2,1671.8z M2006.6,1593.8c-31-7.7-60.2,34.9-73.5,56.8c-16.8,27.5-34.1,64.1-32.3,97.1
			c0.8,15.2,9.4,26.1,25.7,22.8c7.3-1.5,14.3-5.1,20.4-9.2c4.1-2.7,9.1-4.2,6.3-9c-2.3-3.8-4.1-7.9-5.4-12.1
			c-3.6-11.6-4.1-31.9,8.9-38.2c15.3-7.5,31.8,6.4,26.5,22.6c14-20.6,25.5-43.8,32.4-67.8C2020.2,1640.6,2029.8,1601,2006.6,1593.8
			C2000.2,1592.2,2011.8,1595.4,2006.6,1593.8z"/>
		<path fill="#D81B60" d="M2253.2,1674.2c-22.3,48.3-48.8,106.9-109.2,111.8c-24.9,2-53.3-3-65.9-27.3c-13.2-25.3-4.7-58,4.8-83
			c18.6-48.7,60.3-109.7,120.1-102.4c24.8,3,39.6,25.7,29.6,49.7c-4.4,10.4-12.5,21.6-23.6,25.5c-5,1.8-10.1,1.4-14-2.5
			c4.3-5.4,8.6-11,12.3-16.8c6.5-10.2,17-40-3-43c-21.1-3.2-43.4,21.2-55.3,35.8c-25.4,31.1-50.9,78.5-43.5,120
			c3.1,17.4,12.5,32.4,31.4,33.5c21.5,1.3,39.8-8.8,54.9-23.2c15.7-14.9,27.2-33.5,37.4-52.5c5.8-10.7,10.5-22.7,17.2-32.8
			C2252.7,1657.6,2256.5,1667.2,2253.2,1674.2C2246,1689.8,2256,1668.2,2253.2,1674.2z"/>
		<path fill="#D81B60" d="M2285,1757c34.2-29.1,50.8-77,68.1-117.1c7.8-18.2,15-39.8,30.3-53.2c7.8-6.8,17.2-8.5,27.3-9
			c3.4-0.2,29-2,29.9,0.2c2,5.1-24.2,9.1-26.9,9.2c-10,0.1-18,2.8-24.5,10.6c-14.2,17.2-22.9,39.3-31.1,59.8
			c-9.7,24.4-20.1,48.7-33.4,71.4c-11.1,19-25.5,41.9-46.7,50.7c-19.5,8.1-47.6,4.1-61.1-13c-11.1-14.1-21.2-42.5-0.5-53.9
			c7.7-4.3,18.6-1,19,8.8c0.5,10.5-8.4,18.6-4.9,29.2C2238.3,1773.9,2269.9,1770.7,2285,1757C2293,1750.2,2280.6,1761,2285,1757z
			 M2414,1590.2c9.1-18.2,38.8-12.6,55.8-12.6c-21.2,17.3-30.7,38.7-43,62.6c-13.2,25.5-26.3,52.1-35.3,79.4
			c-4.6,14-12.5,57,16.3,47.5c24.7-8.1,41.4-40.5,52.9-61.8c6.6-12.2,12.8-24.6,18.8-37.1c1.5-3.1,5.5-8.9,9.4-4.8
			c3.7,3.9-2,12.4-3.7,16c-12.3,26.1-25.1,52.9-44,75c-15.3,18-42.4,39.8-66.7,23.9c-22.3-14.6-16.6-50.6-9.6-71.7
			C2377.6,1666.4,2397.4,1628.9,2414,1590.2C2416.4,1585.4,2410.4,1598.6,2414,1590.2z"/>
		<path fill="#D81B60" d="M2727.2,1674.8c-12.2,24.5-24.1,50.1-40.3,72.3c-15.5,21.2-35.7,37.3-59.2,49
			c-11.8,5.9-23.9,10.8-36.3,15.4c-4,1.5-6.5,1.5-8.7,5.3c-1.6,2.9-3.3,5.7-5,8.5c-4.1,6.9-8.2,13.8-12.5,20.6
			c-15.6,25.1-32,49.3-52.4,70.9c-19.1,20.2-42.4,38.5-68.6,48.5c-23.1,8.8-53.7,12.9-77.3,3.6c-26.6-10.5-29.9-38.3-19.7-62.2
			c11.2-26.3,34.3-43.4,59.4-55.5c44.9-21.1,94.8-29.1,142.3-42.2c8.2-2.3,13.5-20.4,16.8-27.9c5.4-12.2,10.2-24.6,14.8-37.1
			c8.6-23.4,16.3-47.1,23.4-71c-10.9,19.3-21.3,39-34.2,57.1c-13.4,18.9-30.8,40.7-52.9,49.6c-20.1,8.1-48.5,3.2-55.5-20.1
			c-7.9-26.3,8.4-50.4,19.6-72.8c-12.5,0-3.9-11.6-1.2-17.1c4.5-9.2,9.1-18.3,13.8-27.4c5.3-10.3,10.7-20.6,16-31
			c4.3-8.4,7.6-18.8,13.6-26.1c7.3-8.9,19.9-7.6,30.2-7.6c8.8,0,17.7,0,26.5,0c-8.4,7.2-16.6,11.7-22.2,21.6
			c-7,11.9-13.8,24-20.2,36.3c-11.9,22.9-22.9,46.5-33.8,69.9c-7.2,15.6-18.2,40.5-9.7,57.6c10.8,21.6,39.4-9.6,47-18.5
			c33.1-38.8,57.9-85.8,80.9-131.1c4.6-9,8.1-20.5,14.6-28.3c5.3-6.4,13.6-7.6,21.5-7.6c10.4,0,20.7,0,31.1,0
			c-31.1,22.2-41.4,64.4-53.7,98.6c-14.1,39.4-26.7,79.3-41.1,118.6c35.5-11.1,67.6-31.1,88.5-62.5c10.8-16.3,19.9-33.4,29-50.7
			c2.8-5.3,5.6-12.8,10-16.9C2729.7,1657.9,2728.9,1671.1,2727.2,1674.8C2716.8,1695.6,2730,1668.8,2727.2,1674.8z M2541.8,1827.2
			c-41.9,10.5-85,20.1-124.8,37.2c-17.6,7.9-33.1,19.3-45.1,34.5c-10.8,13.6-22.7,36.5-11.4,53.1c9.4,13.8,32.4,10.4,45.8,6
			c20-6.5,38.1-20.1,54-33.6C2493,1896.8,2519.8,1863.8,2541.8,1827.2C2532.2,1829.6,2539.4,1831.2,2541.8,1827.2z"/>
		<path fill="#D81B60" d="M2759,1714.4c10.7-29.2,32.7-52.5,46.8-79.9c4.7-9.3,12.2-22.2,6.3-32.6c-7.2-12.6-24.2-6.9-33,0.1
			c-22.6,18.1-38.2,47.3-51.3,72.6c-2.9,5.7-5.9,11.4-8.8,17.1c-1.8,3.6-3.6,9.9-7.5,11.9c-5.8,2.9-7-3.8-5.5-7.8
			c2.3-6.2,5.8-12.2,8.7-18.1c13-26.1,26.8-52.4,47.1-73.7c17.5-18.4,45.1-34.3,68.9-16c21.6,16.7,11.8,44.5,0.5,63.9
			c-14.2,24.4-35,46.1-43.7,73.4c-5.7,18-2.9,43.6,21.2,45c19.5,1.1,35.1-21.4,45.3-35c13.4-18,24.3-37.6,34.7-57.5
			c2.2-4.1,7.3-20.2,14-17.1c6.8,3.2-2.5,16.9-4.5,20.9c-9.7,19.6-19.5,39-32.1,56.9c-11.7,16.6-27.1,35.8-46.8,43.1
			c-18.2,6.7-42.9,2.1-55.8-12.9C2750.4,1753.3,2752.7,1732.1,2759,1714.4C2761.8,1706.8,2754.2,1728,2759,1714.4z"/>
		<path fill="#D81B60" d="M3115.4,1674.2c-16.5,35.9-36.1,83.4-72.8,103.3c-16.3,8.8-39.4,8.6-49.8-9c-10.7-18.3-6.8-43-0.4-62
			c-16.2,28.7-45.5,79-84.3,76.7c-20.2-1.2-34.1-14.1-35.5-34.5c-1.5-23,11.5-42.3,21.4-62c-12.5,0-3.9-11.6-1.2-17.1
			c4.5-9.2,9.1-18.3,13.8-27.4c5.3-10.3,10.7-20.6,16-31c4.3-8.4,7.6-18.8,13.6-26.1c7.3-8.9,19.9-7.6,30.2-7.6c8.8,0,17.7,0,26.5,0
			c-18.1,12.1-29.2,31.1-38.4,50.4c-11.9,22.2-22.4,45.1-33.2,67.8c-8.7,18.4-19.8,39.5-16.4,60.6c4.3,26.6,32.3,6.3,42.4-4.4
			c35.2-37.4,57.9-87.6,80.3-133.2c5.3-10.7,9.4-24.5,17-33.7c5.3-6.4,13.6-7.6,21.5-7.6c10.4,0,20.7,0,31.1,0
			c-25.3,20.8-37.3,50.1-51.1,79.1c-7.7,16-15.1,32.2-21.7,48.7c-5.7,14.1-11.4,29.8-10.8,45.3c0.6,14,11.1,21.8,24.3,16
			c15.5-6.8,27-23.3,36-36.9c9.6-14.6,17.7-30.2,25.5-45.8c2.7-5.4,6.2-18.2,12-20.8C3119.3,1659.6,3116.7,1671.3,3115.4,1674.2
			C3110.6,1684.6,3118.2,1668.2,3115.4,1674.2z"/>
	</g>
</g>
</svg>
