<?xml version="1.0" encoding="utf-8"?>
<!-- Generator: Adobe Illustrator 18.0.0, SVG Export Plug-In . SVG Version: 6.00 Build 0)  -->
<!DOCTYPE svg PUBLIC "-//W3C//DTD SVG 1.1//EN" "http://www.w3.org/Graphics/SVG/1.1/DTD/svg11.dtd" [
	<!ENTITY ns_extend "http://ns.adobe.com/Extensibility/1.0/">
	<!ENTITY ns_ai "http://ns.adobe.com/AdobeIllustrator/10.0/">
	<!ENTITY ns_graphs "http://ns.adobe.com/Graphs/1.0/">
	<!ENTITY ns_vars "http://ns.adobe.com/Variables/1.0/">
	<!ENTITY ns_imrep "http://ns.adobe.com/ImageReplacement/1.0/">
	<!ENTITY ns_sfw "http://ns.adobe.com/SaveForWeb/1.0/">
	<!ENTITY ns_custom "http://ns.adobe.com/GenericCustomNamespace/1.0/">
	<!ENTITY ns_adobe_xpath "http://ns.adobe.com/XPath/1.0/">
]>
<svg version="1.1" id="Layer_1" xmlns:x="&ns_extend;" xmlns:i="&ns_ai;" xmlns:graph="&ns_graphs;"
	 xmlns="http://www.w3.org/2000/svg" xmlns:xlink="http://www.w3.org/1999/xlink" x="0px" y="0px" viewBox="98 287 416 175"
	 enable-background="new 98 287 416 175" xml:space="preserve">
<metadata>
	<sfw  xmlns="&ns_sfw;">
		<slices></slices>
		<sliceSourceBounds  width="289.9" height="118.3" x="160.9" y="358.6" bottomLeftOrigin="true"></sliceSourceBounds>
	</sfw>
</metadata>
<g>
	<path fill="#D81B60" d="M206.4,420.8C203.2,419.3,202.8,423.5,206.4,420.8L206.4,420.8z"/>
	<path fill="#D81B60" d="M288.8,378.9c-10.9-7.9-25.3-8.6-38.2-8.8c1.1-2,2.3-3.9,3.4-5.9c3.6-6.2,7.2-12.5,11-18.6
		c1.8-3,3.7-5.9,5.7-8.8c0.8-1.2,1.7-2.5,2.6-3.7c0.4-0.5,0.5-1.3,1.2-1c0.5,0.2,1.1,0.4,1.6,0.6c5.4,2.1,11,3.5,16.6,4.8
		c6,1.4,12.5,2.9,18.7,2.7c4.1-0.2,11.6-2.1,10.7-7.7c-0.1-1-0.4-2.7-1.8-2.4c-1.1,0.3-1,1.7-1.1,2.5c-0.4,2.5-3.4,3.1-5.4,3.3
		c-6.6,0.7-13.6-0.8-19.9-2.2c-6.1-1.4-12.1-3-18-4.9c1.2-2.4,3.7-3.9,5.7-5.4c2.3-1.9,0-2.2-1.8-1.5c-2.7,1-5.1,2.5-7.4,4.2
		c-1.4,1-1.6,1.3-3.2,0.8c-1.3-0.4-2.5-0.8-3.8-1.2c-12.2-4.1-24.5-8.5-37.3-10c-12.2-1.4-25.1,0.1-35.6,7.1
		c-10.2,6.8-17,19.6-14,32c3,12.7,16.3,19.8,28.7,16c5.7-1.7,10.9-5.7,13.6-11.1c0.9-1.7,3.4-6.9,1.7-8.5c-0.5-0.5-2.3-0.3-2.3,0.5
		c0,0.8-0.1,1.6-0.4,2.3c-3.9,11.6-19,18.5-29.7,11.2c-11.1-7.6-3.6-23.9,3.8-31.1c9.1-8.8,21.9-12.4,34.3-11.7
		c13.8,0.7,27.2,3.3,40.4,7.4c-8.4,9.1-16.5,18.2-22.9,28.9c-5.2,8.8-9.9,17.7-14.7,26.7c-4.5,8.4-8.8,17-14.5,24.7
		c-1.9,2.6-3.9,5-6.2,7.2c-0.7,0.8-0.7,1.1-1.8,0.6c-0.7-0.4-1.5-0.7-2.2-1.1c-1.4-0.7-2.7-1.4-4.1-2.1c-5.4-2.9-10.5-6.2-16.6-7.7
		c-5.6-1.5-11.7-1.6-17,0.9c-5.6,2.6-9.3,8.6-7.3,14.7c3.9,12.3,22.7,11.9,32.5,9.5c6.3-1.5,12.3-4.4,17.5-8.2
		c1.2-0.8,3.1,0.6,4.4,1.1c1.4,0.5,2.7,1.1,4.1,1.5c2.8,1,5.7,1.9,8.6,2.7c12.2,3.3,25.8,5.4,38.3,2.7c11.7-2.5,23.7-8.8,29.6-19.6
		C302.8,400.8,299.4,386.6,288.8,378.9z M184.9,429.1c-6.7,0.4-16-1.7-16-10.2c0-8,9-9.4,15-7.8c7.9,2,15.2,6.3,22.4,9.8
		C200.1,425.5,192.7,428.6,184.9,429.1z M284.6,415.2c-17.1,20.6-47.9,15-69.5,5.8c14.4-13,23.8-30.7,33.5-47.2
		c12,0.6,27.1,0.3,36.6,8.9C295,391.4,292.3,405.9,284.6,415.2z"/>
	<path fill="#D81B60" d="M391,384.9c-0.1,0-0.3-0.1-0.4-0.1c0.1,0,0.5,0.2,0.7,0.2C391.2,384.9,391.1,384.9,391,384.9z"/>
	<path fill="#D81B60" d="M450.3,400c-1.5-0.7-2.7,2.9-3.2,3.9c-2.4,4.5-4.8,9-7.9,13c-2.3,3.1-5.9,8.2-10.3,7.9
		c-5.4-0.3-6.1-6.1-4.8-10.2c2-6.2,6.7-11.1,9.9-16.6c2.6-4.4,4.8-10.7-0.1-14.5c-5.4-4.1-11.7-0.5-15.6,3.6
		c-3.8,4-6.6,8.8-9.1,13.6c-0.7,0.6-1.1,2-1.5,2.7c-1.5,3.1-2.9,6.2-4.7,9.2c-2.7,4.7-7.1,12-13.3,12c-2.6,0-5.1-1-6.4-3.4
		c2.4-2.2,4.6-4.8,6.5-7.5c3.7-5.3,6.5-11.1,7.5-17.5c0.8-5.2,0.4-12.6-5.2-15.1c-5.9-2.7-12.6,1.1-17.1,4.8
		c-5.4,4.5-10.8,11.4-13.6,18.8c-0.9,1.8-1.8,3.5-2.7,5.3c-2.6,4.8-6.4,12.2-12,14c-6.5,2.2-4.7-7.6-3.7-10.8c2-6.2,5-12.2,8-18
		c2.8-5.4,4.9-10.2,9.8-14.2c-2,0-4.7-0.3-7.2-0.1c-1.5-0.2-5.6,0.1-6.2,0.1c-2.3,0.1-4.4,0.5-6.2,2c-3.5,3-5.1,7.9-6.9,12.1
		c-3.9,9.1-7.7,20-15.4,26.6c-3.4,3.1-10.6,3.8-12.4-1.5c-0.8-2.4,1.2-4.2,1.1-6.6c-0.1-2.2-2.6-2.9-4.3-2c-4.7,2.6-2.4,9,0.1,12.2
		c3.1,3.9,9.4,4.8,13.9,2.9c4.8-2,8.1-7.2,10.6-11.5c3-5.1,5.4-10.7,7.6-16.2c1.9-4.6,3.8-9.6,7.1-13.6c1.5-1.8,3.3-2.4,5.6-2.4
		c0.1,0,0.3,0,0.5-0.1c-0.1,0.2-0.2,0.3-0.3,0.5c0,0,0,0-0.1,0.2c-3.8,8.8-8.3,17.3-11.2,26.4c-1.6,4.8-2.9,12.9,2.2,16.3
		c5.5,3.6,11.7-1.3,15.1-5.4c1.9-2.2,3.6-4.7,5.1-7.3c-0.1,2.1,0,4.2,0.4,6.2c1.3,5.9,6.4,8.7,12.2,7.6c3.2-0.6,6.2-2.3,8.8-4.3
		c1.9,2,4.5,3.2,7.2,3.4c6.5,0.5,11.2-4,14.8-9c3.3-4.5,5.6-9.5,7.8-14.6c0,0,0-0.1,0-0.1c3-5.7,6.5-12.3,11.6-16.5
		c2-1.6,5.9-2.9,7.5,0c1.3,2.3-0.4,5.3-1.4,7.4c-3.1,6.1-8,11.3-10.5,17.8c0-0.1,0,0-0.1,0.3c-0.5,1.5-0.4,1.2-0.2,0.6
		c-1.3,3.9-1.6,8.4,1.2,11.7c2.9,3.4,8.5,4.5,12.7,2.9c4.5-1.7,7.9-6,10.6-9.8c2.9-4.1,5.1-8.5,7.3-12.9
		C449.7,403.9,451.8,400.8,450.3,400z M379.7,409.4c-2.9,1.5-2.8,6.1-2,8.7c0.3,1,0.7,1.9,1.2,2.7c0.6,1.1-0.5,1.4-1.4,2
		c-1.4,0.9-3,1.7-4.6,2.1c-3.7,0.7-5.6-1.7-5.8-5.2c-0.4-7.5,3.5-15.8,7.3-22c3-4.9,9.4-14.3,16.3-13c-0.1,0,0,0,0.4,0.1
		c0.3,0.1,0.4,0.1,0.2,0.1c4.9,1.8,2.8,10.6,1.8,14.2c-1.6,5.4-4.2,10.7-7.3,15.4C386.9,410.9,383.2,407.7,379.7,409.4z"/>
</g>
</svg>
