<?xml version="1.0" encoding="utf-8"?>
<!-- Generator: Adobe Illustrator 18.0.0, SVG Export Plug-In . SVG Version: 6.00 Build 0)  -->
<!DOCTYPE svg PUBLIC "-//W3C//DTD SVG 1.1//EN" "http://www.w3.org/Graphics/SVG/1.1/DTD/svg11.dtd" [
	<!ENTITY ns_extend "http://ns.adobe.com/Extensibility/1.0/">
	<!ENTITY ns_ai "http://ns.adobe.com/AdobeIllustrator/10.0/">
	<!ENTITY ns_graphs "http://ns.adobe.com/Graphs/1.0/">
	<!ENTITY ns_vars "http://ns.adobe.com/Variables/1.0/">
	<!ENTITY ns_imrep "http://ns.adobe.com/ImageReplacement/1.0/">
	<!ENTITY ns_sfw "http://ns.adobe.com/SaveForWeb/1.0/">
	<!ENTITY ns_custom "http://ns.adobe.com/GenericCustomNamespace/1.0/">
	<!ENTITY ns_adobe_xpath "http://ns.adobe.com/XPath/1.0/">
]>
<svg version="1.1" id="Layer_1" xmlns:x="&ns_extend;" xmlns:i="&ns_ai;" xmlns:graph="&ns_graphs;"
	 xmlns="http://www.w3.org/2000/svg" xmlns:xlink="http://www.w3.org/1999/xlink" x="0px" y="0px"
	 viewBox="-1578.2 1436.4 607.6 82.5" enable-background="new -1578.2 1436.4 607.6 82.5" xml:space="preserve">
<metadata>
	<sfw  xmlns="&ns_sfw;">
		<slices></slices>
		<sliceSourceBounds  width="533.2" height="72.4" x="-1541" y="-721.9" bottomLeftOrigin="true"></sliceSourceBounds>
	</sfw>
</metadata>
<g>
	<path fill="#D81B60" d="M-1469.9,1495c2.6-1.6,4.5-4,6-6.6c0.8-1.3,1.6-2.7,2.3-4c0.3-0.6,0.7-1.3,1-2c0.3-0.6,0.8-1.3,0.8-1.9
		c0-0.4-0.4-0.4-0.7-0.3c-0.5,0.3-0.7,1-1,1.5c-0.7,1.5-1.5,3-2.4,4.4c-1.6,2.5-3.4,5.1-5.8,6.9c-1.7,1.3-4.7,2.9-6,0.3
		c-1.1-2.2-0.5-5.2,0-7.5c0.6-3,1.6-5.9,2.5-8.8c0.9-2.8,1.8-5.5,2.8-8.2c1.2-3.1,2.6-6,4.1-8.9c0.1-0.3,0.3-0.5,0.5-0.8
		c0.3-0.5,0.3-0.5,1-0.4c0.8,0.1,1.6,0.2,2.4,0.3c1.6,0.2,3.3,0.3,4.9-0.3c1.2-0.4,2.3-1.2,2.5-2.4c0.1-0.5,0.1-1.3-0.3-1.7
		c-0.5-0.6-1,0.4-1,0.8c0,3-6.6,1.7-8.2,1.4c1-1.6,2.2-3.4,3.8-4.5c0.5-0.4,1.6-1,0.2-0.8c-1.2,0.2-2.5,0.5-3.5,1
		c-1,0.5-1.8,1.5-2.5,2.4c-0.3,0.4-0.7,1.3-1.3,1.2c-0.7-0.1-1.4-0.3-2.1-0.5c-2.4-0.6-4.7-1.2-7-2c0.6-0.6,1.1-1.2,1.7-1.7
		c0.6-0.6,1-0.9,1.8-0.7c0.8,0.1,1.2-0.5,0.9-1.2c-0.2-0.6-1.2-1.1-1.6-0.7c-1.2,0-2.4,1.4-3.2,2.2c-0.4,0.4-0.9,0.9-1.3,1.4
		c-0.4,0.4-1,0-1.5-0.1c-2.8-0.9-5.5-1.9-8.3-2.7c-5.9-1.8-12.2-3.2-18.4-2.1c-5.3,0.9-10.5,3.8-13.2,8.6c-2.7,5-2.4,12,2.6,15.4
		c4.9,3.3,12,1.9,15.2-3.2c0.7-1.2,1.2-2.5,1.3-3.8c0-0.5-0.2-1-0.8-0.8c-0.6,0.2-0.4,0.5-0.5,1c-0.6,2.6-2.9,4.9-5.2,6.1
		c-2.6,1.3-5.6,1.3-8.2-0.1c-2.4-1.3-3.3-4.1-3-6.7c0.7-5.8,5.8-10.2,10.9-12.1c4.5-1.7,9.2-1.4,13.9-0.9c4.7,0.5,9.4,1.6,14,3
		c-1.5,2-2.4,4.6-3.5,6.8c-1.3,2.8-2.6,5.6-3.9,8.4c-2.7,5.7-5.6,11.6-9.4,16.7c-3.6,4.7-8.5,8.3-14.1,10.1
		c-5.8,1.8-12.4,2.1-18-0.4c-5.5-2.4-9.7-7.1-10.2-13.2c-0.2-2.8,0.1-6.2,1.7-8.6c0.8-1.2,1.8-2.2,2.9-3c0.5-0.4,2.9-1.5,1.9-2.5
		c-0.8-0.7-2.4,0.3-3.1,0.7c-1.2,0.8-2.4,1.9-3.2,3.2c-1.6,2.4-2.2,5.7-2.4,8.5c-0.4,5.7,2.2,11.1,6.9,14.3c5,3.5,11.5,4.8,17.5,4.6
		c6.1-0.2,12.4-1.7,17.5-5.1c5-3.4,8.2-8.7,10.5-14.1c2.6-6.1,4.4-12.5,7-18.5c0.6-1.5,1.4-3,2.2-4.5c0.4-0.7,0.8-1.4,1.2-2
		c0.1-0.2,0.3-0.7,0.6-0.6c0.3,0.1,0.6,0.2,0.9,0.4c2.7,1.1,5.4,1.9,8.2,2.5c-4.1,6.8-6.9,14.5-9.4,22c-1.3,4.1-2.9,8.9-1.6,13.2
		c0.5,1.7,1.6,3.2,3.4,3.5C-1473.9,1497-1471.7,1496.1-1469.9,1495C-1469.1,1494.5-1470.7,1495.5-1469.9,1495z"/>
	<path fill="#D81B60" d="M-1414.5,1485.9c0.4-0.8,0.8-1.5,1.2-2.3c0.3-0.5,0.9-1.4,0.7-2c-0.2-0.7-0.9,0.2-1.1,0.4
		c-0.4,0.7-0.7,1.4-1.1,2.1c-0.9,1.7-1.8,3.3-2.9,4.9c-0.8,1.2-2,3-3.4,3.5c-2.9,1-1-4.9-0.7-5.9c0.7-1.8,1.5-3.6,2.4-5.3
		c0.8-1.4,1.6-3.1,2.7-4.3c-1.3,0.2-2.5-0.5-3.7-0.2c-1.1,0.3-1.8,1.5-2.3,2.4c-1.6,2.6-2.9,5.4-4.7,7.9c-0.8,1.2-1.7,2.4-2.8,3.4
		c-0.9,0.8-2.2,1.9-3.5,1.7c-2.7-0.4-0.8-5.2-0.2-6.6c1.2-2.7,2.8-5.2,4.7-7.4c1.7-2,4.1-4.7,6.8-5.1c1.1-0.2,2.3,0.1,3,1
		c0.3,0.3,0.4,1.2,0.9,1.2c0.6,0,1-0.5,0.9-1c-0.2-1.1-1.9-2-2.8-2.4c-1.4-0.5-3-0.5-4.5-0.2c-5.3,1.1-9.2,5.5-11.4,10.2
		c0.1-0.5-0.2-1.1-0.7-0.6c-0.4,0.4-0.7,1.2-0.9,1.7c-0.8,1.6-1.6,3.1-2.5,4.6c-0.9,1.4-1.9,2.9-3.2,4c-0.8,0.7-2.7,1.8-3.3,0.3
		c-0.5-1.1,0.1-2.9,0.5-4c0.5-1.6,1.3-3.2,2-4.8c1.6-3.4,3.3-6.6,5.1-9.9c-1.4-0.4-3.2,0.6-4.5,1.2c-1.6,0.8-3.2,1.8-4.7,2.8
		c-3,2.1-5.5,4.7-7.8,7.6c1.1-3,2.4-6.4,2.6-9.7c0-0.9,0.3-3.1-1.1-2.9c-1.4,0.1-2.8,0.3-4.2,0.6c1.1,0.2,0.9,2.2,0.8,3
		c-0.1,1.4-0.5,2.9-1,4.2c-0.4,1.1-0.9,2.2-1.4,3.2c-0.7,1.4,1,0.2,1.3-0.3c-0.5,2.4-1.6,4.7-2.5,6.9c-1.1,2.6-2.4,5.2-3.7,7.8
		c-1.3,2.5-2.5,5-3.9,7.4c-0.6,1.1-1.2,2.1-1.8,3.1c-0.5,0.8-0.9,1.8-1.6,2.4c1.3-0.2,2.6,0.5,3.9,0.3c1.2-0.2,1.9-1.2,2.5-2.2
		c0.4-0.8,0.7-1.6,1.1-2.4c1.2-2.9,2.3-5.7,3.4-8.5c0.9-2.3,1.8-4.6,2.8-6.8c1.2-2.6,2.8-5.1,4.7-7.3c1.6-1.9,3.6-3.9,5.7-5.3
		c0.6-0.4,2.6-1.5,2.5,0.1c-0.1,1.5-1.5,3-2.2,4.3c-1.5,2.6-3.3,6.1-2.1,9.1c0.6,1.5,2,2.2,3.6,2.2c1.8,0,3.2-1,4.4-2.3
		c2.6-2.6,4.2-6,5.8-9.2c-0.8,2-1.4,4.2-1.3,6.4c0.1,1.9,0.8,4.3,2.9,4.8c2,0.5,3.8-1,5.2-2.3c1.7-1.7,3.1-3.6,4.3-5.7
		c-0.8,2.7-1.3,8.5,3.1,8.1c1.8-0.2,3.3-1.8,4.4-3.1C-1416.6,1489.5-1415.5,1487.7-1414.5,1485.9
		C-1413.8,1484.6-1415.2,1487.2-1414.5,1485.9z"/>
	<path fill="#D81B60" d="M-1394.3,1475.3c-0.5-1.1-1.4-2-2.5-2.5c-1-0.5-2.6-1-3.7-0.6c-0.5,0.2-0.9,0.6-0.3,1
		c0.5,0.4,1.2,0.1,1.8,0.2c1.4,0.1,2.3,0.9,2.6,2.2c0.5,2.8-0.8,5.7-2.1,8c-1.4,2.6-3.1,5.2-5.2,7.2c-1.3,1.2-3.4,2.7-5,1.1
		c-1.8-1.8-0.7-5.7-0.1-7.8c0.8-3,2.1-5.8,3.5-8.6c0.7-1.3,1.4-2.6,2.1-3.8c1.6-0.5,3.2-1,4.7-1.6c5.4-2,10.6-4.5,15-8.2
		c2.4-2,4.5-4.3,6.2-6.8c1.7-2.4,3.3-5.2,3.8-8.1c0.4-2.6-0.7-4.9-3.5-5.2c-3.1-0.4-6,0.7-8.5,2.4c-2.6,1.7-4.8,3.9-6.8,6.2
		c-2.1,2.4-4.2,4.8-6,7.4c-1.8,2.5-3.3,5.1-4.8,7.8c-0.8,1.4-1.5,2.7-2.3,4.1c-0.3,0.5-0.6,1.6-1.3,1.7c-0.7,0.1-1.4,0-2.1-0.1
		c-1.1-0.2-2-0.6-2.3-1.7c-0.1-0.3,0-0.8-0.2-1c-0.4-0.5-1.1-0.4-1.3,0.2c-0.5,1.2,0.5,2.5,1.4,3.2c1.1,0.9,2.7,1.1,4.1,0.9
		c-2.9,5.5-5.4,11.3-8.8,16.6c-0.3,0.5-0.9,1-1,1.6c-0.2,0.6,0.4,0.8,0.8,0.4c0.8-0.8,1.4-1.8,1.9-2.7c1.6-2.6,3-5.3,4.4-8
		c-1.4,3-3.8,7-2.8,10.4c1,3.7,5.3,3.7,8.3,2.9c3.8-1,6.6-3.8,8.4-7.1C-1394.2,1483.4-1392.6,1478.8-1394.3,1475.3
		C-1394.7,1474.4-1393.9,1476.1-1394.3,1475.3z M-1399.2,1464.8c3.3-5.3,7-10.8,11.4-15.3c2-2.1,4.4-4.3,7.2-5.3
		c2.3-0.8,5.3-0.8,5.1,2.3c-0.1,2.8-1.9,5.5-3.4,7.7c-1.8,2.5-3.9,4.8-6.2,6.8c-4.7,4-10.5,6.8-16.3,8.6c-0.2,0.1-0.5,0.1-0.7,0.2
		C-1401.2,1468.1-1400.2,1466.4-1399.2,1464.8C-1398,1462.9-1400.3,1466.6-1399.2,1464.8z"/>
	<path fill="#D81B60" d="M-1338.9,1481.3c-0.8-0.4-2,2.9-2.3,3.5c-0.8,1.6-1.7,3.2-2.8,4.7c-0.9,1.2-2,2.6-3.5,2.9s-2-1.2-2-2.4
		c0.2-3.2,2-6.4,3.4-9.3c1.5-3,2.7-6.1,5.4-8.3c-2.2,0-4.4-0.1-6.5,0c-2.1,0.2-3.3,1.5-4.3,3.3c-1,2.1-1.9,4.2-2.8,6.3
		c-0.9,2.1-2,4.3-3.3,6.2c-1.2,1.8-2.6,3.6-4.8,4c-0.9,0.1-1.8,0.1-2.6-0.5c-0.6-0.5-1.1-1.5-0.8-2.3c0.2-0.7,0.8-1.6,0.5-2.4
		c-0.3-0.9-1.4-0.9-2.1-0.4c0.5-0.8,0.9-1.7,1.3-2.6c0.3-0.6,1.2-1.8,0.9-2.5c-0.3-0.9-1.1,0.4-1.2,0.7c-0.5,1-1,1.9-1.5,2.9
		c-0.9,1.8-2,3.6-3.3,5.1c-0.8,1-3,3.1-4.3,1.7c-1-1.1-0.5-3.1-0.1-4.4c0.6-1.9,1.5-3.7,2.3-5.5c1.6-3.4,3-7.2,6-9.7
		c-1.1,0-2.1,0-3.2,0c-0.7,0-1.6,0.1-2.1,0.6c-0.9,0.8-1.3,2.3-1.8,3.4c-2.4,4.9-4.8,10.3-8.6,14.3c-1,1-3.8,3.2-4.4,0.7
		c-0.5-2.1,0.6-4.5,1.5-6.3c1.1-2.4,2.2-4.7,3.4-7.1c1.1-2.1,2.1-4.2,4.2-5.6c-0.9,0-1.7,0-2.6,0c-1,0-2.3-0.2-3.2,0.6
		c-0.7,0.7-1,1.8-1.5,2.6c-0.5,1.1-1.1,2.1-1.7,3.2c-0.5,1-1.1,1.9-1.5,3c-0.3,0.6-1.4,2.1,0,2.1c-1,1.9-2.3,3.8-2.3,6.1
		c0,2.3,1.4,3.9,3.7,4c4.1,0.2,7.1-5,8.8-8c-0.8,2.5-1.4,7.3,2.2,8c3.4,0.6,6-2.9,7.6-5.4c-0.2,1.4,0.6,3,1.5,3.9
		c1,1.2,2.7,1.5,4.2,1.5c3.2,0,5.2-2.9,6.7-5.4c1.8-3,3-6.3,4.4-9.5c0.6-1.3,1.2-2.7,2-3.9c0.9-1.3,1.7-1.8,3.3-1.8
		c-1,1.5-1.6,3.4-2.3,5c-0.8,1.7-1.6,3.5-2.3,5.3c-1,2.6-2.7,7.1-0.2,9.4c2.8,2.7,6.4-0.8,8.1-3
		C-1342.5,1489.2-1337.8,1481.8-1338.9,1481.3C-1339.2,1481.1-1338.6,1481.4-1338.9,1481.3z"/>
	<path fill="#D81B60" d="M-1315.3,1481.3c-0.8-0.3-1.7,2.3-2,2.7c-0.8,1.4-1.6,2.9-2.5,4.2c-0.5,0.8-3.9,5.8-5.2,3.9
		c-0.5-0.8-0.2-2.2-0.1-3.1c0.3-1.5,0.8-3,1.4-4.4c0.7-1.5,1.4-3,2.3-4.5c0.6-1.1,1.3-2.4,2.2-3.3c-1.3,0.2-2.5-0.5-3.7-0.2
		c-1.1,0.3-1.8,1.5-2.3,2.4c-1.6,2.6-2.9,5.4-4.7,7.9c-0.8,1.2-1.7,2.4-2.8,3.4c-0.9,0.8-2.2,1.9-3.5,1.7c-2.7-0.4-0.8-5.2-0.2-6.6
		c1.2-2.7,2.8-5.2,4.7-7.4c1.7-2,4.1-4.7,6.8-5.1c1.1-0.2,2.3,0.1,3,1c0.3,0.3,0.4,1.2,0.9,1.2c0.6,0,1-0.5,0.9-1
		c-0.2-1.1-1.9-2-2.8-2.4c-1.4-0.5-3-0.5-4.5-0.2c-7,1.5-12.4,9.1-13,16c-0.2,2.9,1,7.4,4.9,6.1c1.6-0.6,3-1.9,4.1-3.2
		c1.2-1.4,2.3-3,3.3-4.6c-0.6,2-1.1,4.4-0.1,6.4c1.1,2.1,3.7,2.1,5.4,0.8c2-1.5,3.4-3.7,4.6-5.8
		C-1317.5,1486.8-1314.4,1481.7-1315.3,1481.3C-1315.5,1481.2-1315,1481.5-1315.3,1481.3z"/>
	<path fill="#D81B60" d="M-1274.2,1481c-0.6-0.5-1.8,2.5-2,3c-0.7,1.4-1.5,2.9-2.4,4.2c-1.3,1.9-3.3,4.4-5.9,4.1
		c-2.5-0.3-3.8-2.7-4.3-5c-0.6-2.8-0.2-5.7,0.6-8.4c0.1-0.4,0.2-0.8,0.4-1.1c0.3-0.2,0.6-0.5,0.9-0.7c0.6-0.4,1.1-0.7,1.8-1
		c1.2-0.6,2.6-1.1,3.9-0.9c0.6,0.1,1.1,0.3,1.5,0.7c0.2,0.2,0.3,0.4,0.3,0.7c0.3,0.1,0.7,0.1,1,0.1c1.6-0.3,2.2-2,1.8-3.4
		c-1.2-2.2-5.2-0.8-6.8,0.1c-2.7,1.4-5.1,3.6-7.1,5.8c-0.9,0.9-1.7,1.9-2.5,2.9c0.9-1.7,1.8-3.4,2.9-5.1c0.8-1.3,1.8-3.1,3.2-3.9
		c-1.1,0.2-2.2-0.4-3.3-0.2c-0.9,0.1-1.6,0.6-2.2,1.3c-1.4,1.8-2.4,4.1-3.5,6.1c-2.4,4.7-4.5,9.5-6.9,14.2c1.2-0.7,2.7,0,3.8-0.6
		c1-0.5,1.4-2.5,1.9-3.5c1.2-2.8,2.6-5.2,4.4-7.6c-0.5,2.5-0.4,6,1,8.2c1.8,2.8,4.9,3.9,8.1,3.1c2.7-0.7,4.7-3.3,6.2-5.6
		c0.7-1.1,1.4-2.3,2-3.6C-1275.1,1484.1-1273.4,1481.6-1274.2,1481z"/>
	<path fill="#D81B60" d="M-1257.6,1492.1c2.2-1.9,3.8-4.4,5-7.1c0.4-1,1.1-2,1.3-3c0.1-0.4-0.3-0.8-0.7-0.6c-0.5,0.2-0.8,1.2-1,1.6
		c-1.3,2.7-2.7,5.6-4.8,7.8c-0.9,0.9-2,1.7-3.3,1.7c-1.2,0-2.4-0.5-3-1.6c3.9-3.6,7.9-10,6.4-15.5c-0.8-2.9-3.4-3.9-6.2-3.1
		c-2.8,0.8-5.2,3.1-7,5.4c-1.9,2.4-3.4,5.3-4,8.3c-0.5,2.4-0.6,6,1.9,7.4c2.5,1.5,5.6,0.1,7.7-1.5
		C-1263.3,1494.1-1259.8,1494-1257.6,1492.1C-1256.5,1491.2-1258.7,1493.1-1257.6,1492.1z M-1266.4,1486c-0.5,0.8-0.6,1.8-0.4,2.8
		c0.1,0.4,0.2,0.9,0.4,1.3c0.1,0.2,0.2,0.4,0.3,0.6c0.3,0.5,0,0.5-0.4,0.7c-1.2,0.9-3.9,2.1-4.8,0.2c-0.8-1.8-0.1-4.2,0.5-6
		c0.7-2.1,1.6-4.1,2.8-6c1.1-1.8,2.5-3.6,4.3-4.8c1.5-1,3.8-1.6,4.6,0.6c0.6,1.9,0,4.3-0.7,6.1c-0.7,2.2-1.8,4.2-3.1,6.1
		C-1262.3,1485.7-1265.3,1484.1-1266.4,1486C-1266.7,1486.6-1266.1,1485.5-1266.4,1486z"/>
	<path fill="#D81B60" d="M-1227.3,1481.3c-0.8-0.4-1.7,2.2-1.9,2.7c-0.8,1.6-1.7,3.2-2.7,4.6c-0.9,1.3-2,2.8-3.3,3.6
		c-0.9,0.6-2.4,0.8-2.6-0.6c-0.4-2.9,1.6-6.3,2.7-8.8c1.5-3.2,3.2-6.4,5-9.5c-1.4-0.4-3.2,0.6-4.5,1.2c-1.6,0.8-3.2,1.8-4.7,2.8
		c-3,2.1-5.5,4.7-7.8,7.6c1.1-3,2.4-6.4,2.6-9.7c0-0.9,0.3-3.1-1.1-2.9c-1.4,0.1-2.8,0.3-4.2,0.6c1.1,0.2,0.9,2.2,0.8,3
		c-0.1,1.4-0.5,2.9-1,4.2c-0.4,1.1-0.9,2.2-1.4,3.2c-0.7,1.4,1,0.2,1.3-0.3c-0.5,2.4-1.6,4.7-2.5,6.9c-1.1,2.6-2.4,5.2-3.7,7.8
		c-1.3,2.5-2.5,5-3.9,7.4c-0.6,1.1-1.2,2.1-1.8,3.1c-0.5,0.8-0.9,1.8-1.6,2.4c1.3-0.2,2.6,0.5,3.9,0.3c1.2-0.2,1.9-1.2,2.5-2.2
		c0.4-0.8,0.7-1.6,1.1-2.4c1.2-2.9,2.3-5.7,3.4-8.5c0.9-2.3,1.8-4.6,2.8-6.8c1.2-2.6,2.8-5.1,4.7-7.3c1.6-1.9,3.6-3.9,5.7-5.3
		c0.7-0.5,2.8-1.4,2.5,0.3c-0.3,1.6-1.7,3.2-2.5,4.6c-1.4,2.5-3.4,6.9-1.2,9.5c1.1,1.3,3.1,1.5,4.6,0.9c1.7-0.6,3.1-2.2,4.2-3.6
		C-1231.2,1489.6-1226.1,1481.9-1227.3,1481.3C-1227.6,1481.1-1227,1481.4-1227.3,1481.3z"/>
	<path fill="#D81B60" d="M-1203.4,1481.4c-0.8-0.4-2,2.9-2.3,3.5c-0.8,1.6-1.7,3.2-2.8,4.7c-0.9,1.2-2,2.6-3.5,2.9
		c-1.5,0.3-2-1.2-2-2.4c0.2-3.2,2-6.4,3.4-9.3c1.5-3,2.7-6.1,5.4-8.3c-1.1,0-2.1,0-3.2,0c-0.7,0-1.6,0.1-2.1,0.6
		c-0.9,0.8-1.3,2.3-1.8,3.4c-2.4,4.9-4.8,10.3-8.6,14.3c-1,1-3.8,3.2-4.4,0.7c-0.5-2.1,0.6-4.5,1.5-6.3c1.1-2.4,2.2-4.7,3.4-7.1
		c1.1-2.1,2.1-4.2,4.2-5.6c-0.9,0-1.7,0-2.6,0c-1,0-2.3-0.2-3.2,0.6c-0.7,0.6-1,1.8-1.5,2.6c-0.5,1.1-1.1,2.1-1.7,3.2
		c-0.5,1-1.1,1.9-1.5,3c-0.3,0.6-1.4,2.1,0,2.1c-1,1.9-2.3,3.8-2.3,6.1c0,2.3,1.4,3.9,3.7,4c4.1,0.2,7.1-5,8.8-8
		c-0.7,2-1.1,4.6,0,6.5c1.2,2.1,4,1.8,5.8,0.6c2-1.4,3.4-3.5,4.6-5.6C-1205.4,1486.8-1202.5,1481.8-1203.4,1481.4
		C-1203.7,1481.2-1203.1,1481.5-1203.4,1481.4z"/>
	<path fill="#D81B60" d="M-1176.5,1470.1c0.4,0.1,0.8,0.1,1.2,0.1c0.4,0,0.6-0.5,0.9-0.8c0.7-0.6,1.5-1,2.4-1.1
		c2.4-0.2,4.8,0.8,7.1,1.4c2.1,0.6,4.2,0.9,6.3,0c1-0.4,1.9-1,2.6-1.7c0.3-0.2,2-2.1,1.6-2.2c-1-0.3-1.3,0.1-2,0.8
		c-0.7,0.6-1.5,1-2.3,1.1c-2.4,0.3-4.7-0.7-6.9-1.3c-2.2-0.6-4.6-1-6.7-0.1c-0.9,0.4-1.8,1-2.5,1.6c-0.4,0.4-0.8,0.7-1.2,1.1
		C-1176.3,1469.5-1177,1470-1176.5,1470.1C-1176.3,1470.2-1176.6,1470.1-1176.5,1470.1z"/>
	<path fill="#D81B60" d="M-1164.1,1494c5.2,1.8,8.9-5,10.7-8.7c0.5-0.9,0.9-1.9,1.4-2.8c0.5-1-0.4-1.7-0.9-0.6
		c-1,2.1-2.1,4.3-3.4,6.2c-1.1,1.7-3,4.7-5.3,4.7c-2.3,0-0.8-4.1-0.5-5.1c1.8-5,4.4-9.7,6.9-14.3c-1.4-0.5-3.3,0.6-4.5,1.2
		c-1.6,0.8-3.2,1.8-4.7,2.8c-3,2.1-5.4,4.7-7.7,7.6c1.3-2.7,2.9-5.2,4.2-7.9c0.4-0.9,1.1-2.1,0.4-3.1c-0.9-1.1-2.3-0.6-3.4-0.1
		c-2.4,1.3-4.4,3.3-6.5,5.2c-2,1.8-3.8,3.8-5.5,5.9c1.1-2.3,2.3-4.5,3.6-6.6c1-1.7,2.3-4.2,4.1-5.2c-1.2,0.2-2.4-0.4-3.6-0.2
		c-1,0.2-1.6,0.8-2.2,1.6c-1.7,2.3-2.9,5.1-4.1,7.6c0.1-0.3,0.1-1.1-0.5-0.8c-0.5,0.3-0.8,1.2-1,1.7c-0.8,1.5-1.5,3-2.4,4.4
		c-1.4,2.2-3.4,4.7-6.1,5.4c-1.1,0.3-2.5,0.4-3.6-0.1c-1.1-0.5-1.7-1.8-1.9-2.9c-0.6-2.9,0.5-6,1.7-8.6c1.3-2.6,3-5.1,5.3-6.8
		c0.9-0.7,2.5-1.8,3.7-1.1c1.1,0.6,0.7,2.3,0.4,3.2c-0.2,0.6-0.6,1.2-1,1.7c-0.2,0.3-1.1,1.1-0.7,1.4c1.1,0.8,2.5-0.6,3.1-1.4
		c1.5-2,1.3-5.2-1.3-6.1c-4.1-1.4-8.2,1.6-10.5,4.7c-2.5,3.4-5,8.4-4.3,12.7c0.7,4.4,5.4,5.3,9.1,4.4c4.3-1,6.6-5,8.5-8.7
		c-1.4,3-2.8,6-4.3,9c1-0.6,2.4-0.2,3.5-0.5c1.2-0.3,1.8-2.3,2.3-3.2c1.3-2.3,2.7-4.5,4.3-6.5c1.6-2,3.4-3.9,5.5-5.5
		c0.3-0.3,1.8-1.4,2.1-0.7c0.4,1-0.7,2.9-1.1,3.8c-1.2,2.8-2.9,5.5-3.4,8.5c-0.2,1.2-0.2,2.6,0.8,3.4c0.3,0.3,1.1,0.7,1.2,0.1
		c0.2-0.7,0.5-1.4,0.8-2c1.3-2.8,3.2-5.5,5.1-7.9c1.6-2,3.4-4.1,5.7-5.4c1.2-0.7,2.9-1,2.1,1c-0.7,1.7-2,3.3-2.8,5
		C-1166,1486.9-1168,1492.6-1164.1,1494C-1163.5,1494.2-1164.7,1493.8-1164.1,1494z"/>
	<path fill="#D81B60" d="M-1125.4,1482.6c0.1-0.3,0.4-1.5-0.4-1.2c-0.5,0.2-0.8,1.2-1.1,1.6c-1,1.8-1.9,3.6-3,5.2
		c-2.3,3.4-5.6,5.7-9.5,6.9c1.5-4.1,2.8-8.3,4.3-12.4c1.3-3.6,2.4-8,5.6-10.3c-1.1,0-2.1,0-3.2,0c-0.7,0-1.4,0-1.9,0.4
		c-0.9,0.6-1.3,2.1-1.8,3c-2.4,4.8-5,9.7-8.4,13.8c-0.8,1-3.4,4.1-4.9,2.5c-1.3-1.5,0-4.5,0.6-6c1.1-2.5,2.3-4.9,3.5-7.3
		c0.7-1.3,1.4-2.6,2.1-3.8c0.7-1.2,1.5-1.7,2.5-2.6c-0.9,0-1.7,0-2.6,0c-1,0-2.3-0.2-3.2,0.6c-0.7,0.6-1,1.8-1.5,2.6
		c-0.5,1.1-1.1,2.1-1.7,3.2c-0.5,1-1.1,1.9-1.5,3c-0.3,0.6-1.4,2.1,0,2.1c-1.2,2.3-2.7,4.6-2.1,7.3c0.5,2.5,3.4,3.3,5.6,2.6
		c2.4-0.8,4.2-3.1,5.6-5c1.4-2,2.6-4.2,3.8-6.3c-0.9,2.9-1.8,5.7-2.9,8.5c-0.5,1.4-1.1,2.8-1.8,4.1c-0.3,0.6-0.5,1.4-1.2,1.6
		c-0.9,0.2-1.7,0.5-2.6,0.7c-5.6,1.5-12.5,2.3-16.7,6.8c-1.7,1.8-3.3,5.1-1.9,7.5c1.3,2.3,4.5,2.4,6.9,2.2c6-0.6,10.7-5.4,14-10.1
		c1.5-2.1,2.8-4.3,4-6.5c2.2-0.8,4.5-1.7,6.5-3C-1129.6,1491.5-1127.6,1486.9-1125.4,1482.6
		C-1125.1,1482-1126.5,1484.8-1125.4,1482.6z M-1145.5,1499.8c-2.1,3.6-5.2,6.9-8.4,9.5c-1.7,1.3-3.6,2.7-5.7,3.2
		c-1.5,0.3-3.7,0.4-4.4-1.3c-0.7-1.8,0.4-3.8,1.4-5.1c1.3-1.6,2.9-2.8,4.7-3.6c4.2-1.8,8.7-2.8,13.1-3.9
		C-1145.1,1499-1145.3,1499.4-1145.5,1499.8C-1145.8,1500.2-1145.3,1499.4-1145.5,1499.8z"/>
	<path fill="#D81B60" d="M-1106.9,1475.3c-0.5-1.1-1.4-2-2.5-2.5c-1-0.5-2.6-1-3.7-0.6c-0.5,0.2-0.9,0.6-0.3,1
		c0.5,0.4,1.2,0.1,1.8,0.2c1.4,0.1,2.3,0.9,2.6,2.2c0.5,2.8-0.8,5.7-2.1,8c-1.4,2.6-3.1,5.2-5.2,7.2c-1.3,1.2-3.4,2.7-5,1.1
		c-1.8-1.8-0.7-5.7-0.1-7.8c0.8-3,2.1-5.8,3.5-8.6c0.7-1.3,1.4-2.6,2.1-3.8c1.6-0.5,3.2-1,4.7-1.6c5.4-2,10.6-4.5,15-8.2
		c2.4-2,4.5-4.3,6.2-6.8c1.7-2.4,3.3-5.2,3.8-8.1c0.4-2.6-0.7-4.9-3.5-5.2c-3.1-0.4-6,0.7-8.5,2.4c-2.6,1.7-4.8,3.9-6.8,6.2
		c-2.1,2.4-4.2,4.8-6,7.4c-1.8,2.5-3.3,5.1-4.8,7.8c-0.8,1.4-1.5,2.7-2.3,4.1c-0.3,0.5-0.6,1.6-1.3,1.7c-0.7,0.1-1.4,0-2.1-0.1
		c-1.1-0.2-2-0.6-2.3-1.7c-0.1-0.3,0-0.8-0.2-1c-0.4-0.5-1.1-0.4-1.3,0.2c-0.5,1.2,0.5,2.5,1.4,3.2c1.1,0.9,2.7,1.1,4.1,0.9
		c-2.9,5.5-5.4,11.3-8.8,16.6c-0.3,0.5-0.9,1-1,1.6c-0.2,0.6,0.4,0.8,0.8,0.4c0.8-0.8,1.4-1.8,1.9-2.7c1.6-2.6,3-5.3,4.4-8
		c-1.4,3-3.8,7-2.8,10.4c1,3.7,5.3,3.7,8.3,2.9c3.8-1,6.6-3.8,8.4-7.1C-1106.7,1483.4-1105.1,1478.8-1106.9,1475.3
		C-1107.3,1474.4-1106.5,1476.1-1106.9,1475.3z M-1111.7,1464.8c3.3-5.3,7-10.8,11.4-15.3c2-2.1,4.4-4.3,7.2-5.3
		c2.3-0.8,5.3-0.8,5.1,2.3c-0.1,2.8-1.9,5.5-3.4,7.7c-1.8,2.5-3.9,4.8-6.2,6.8c-4.7,4-10.5,6.8-16.3,8.6c-0.2,0.1-0.5,0.1-0.7,0.2
		C-1113.7,1468.1-1112.7,1466.4-1111.7,1464.8C-1110.6,1462.9-1112.9,1466.6-1111.7,1464.8z"/>
	<path fill="#D81B60" d="M-1080.2,1485.9c0.4-0.8,0.8-1.5,1.2-2.3c0.3-0.5,0.9-1.4,0.7-2c-0.2-0.7-0.9,0.2-1.1,0.4
		c-0.4,0.7-0.7,1.4-1.1,2.1c-0.9,1.7-1.8,3.3-2.9,4.9c-0.8,1.2-2,3-3.4,3.5c-2.9,1-1-4.9-0.7-5.9c0.7-1.8,1.5-3.6,2.4-5.3
		c0.8-1.4,1.6-3.1,2.7-4.3c-1.3,0.2-2.5-0.5-3.7-0.2c-1.1,0.3-1.8,1.5-2.3,2.4c-1.6,2.6-2.9,5.4-4.7,7.9c-0.8,1.2-1.7,2.4-2.8,3.4
		c-0.9,0.8-2.2,1.9-3.5,1.7c-2.7-0.4-0.8-5.2-0.2-6.6c1.2-2.7,2.8-5.2,4.7-7.4c1.7-2,4.1-4.7,6.8-5.1c1.1-0.2,2.3,0.1,3,1
		c0.3,0.3,0.4,1.2,0.9,1.2c0.6,0,1-0.5,0.9-1c-0.2-1.1-1.9-2-2.8-2.4c-1.4-0.5-3-0.5-4.5-0.2c-7,1.5-12.4,9.1-13,16
		c-0.2,2.9,1,7.4,4.9,6.1c1.6-0.6,3-1.9,4.1-3.2c1.2-1.4,2.3-3,3.3-4.6c-0.8,2.7-1.3,8.5,3.1,8.1c1.8-0.2,3.3-1.8,4.4-3.1
		C-1082.2,1489.5-1081.2,1487.7-1080.2,1485.9C-1079.5,1484.6-1080.9,1487.2-1080.2,1485.9z"/>
	<path fill="#D81B60" d="M-1057,1485.9c0.4-0.8,0.8-1.6,1.2-2.4c0.2-0.5,0.9-1.4,0.7-2c-0.3-0.8-1,0.3-1.2,0.6
		c-0.4,0.9-0.9,1.7-1.3,2.6c-0.9,1.8-1.9,3.5-3.1,5.1c-1,1.3-2.6,3.3-4.4,2.8c-4.3-1.2,5.7-18,8.2-19.4c-1.8,0.3-3.5-0.9-5,0.6
		c-1.3,1.3-2.1,3.1-2.9,4.7c-0.5,0.9-1,1.9-1.5,2.8c-0.4,0.7-0.7,1.5-1.7,1.5c-2-0.1-3.9-2-6-1.1c0.9-1.7,1.8-3.3,2.9-4.9
		c0.8-1.2,1.7-2.9,3.1-3.6c-1.1,0.2-2.2-0.4-3.3-0.2c-0.9,0.1-1.6,0.6-2.2,1.3c-1.4,1.8-2.4,4.1-3.5,6.1c-2.4,4.7-4.5,9.5-6.9,14.2
		c1.6-1,3.8,0.5,4.7-1.7c0.8-1.8,1.6-3.5,2.3-5.2c0.4-0.9,0.8-1.7,1.2-2.6c0.4-0.8,0.7-1.8,1.8-1.9c2.1-0.1,3.9,2.1,6.1,1.1
		c-0.8,1.8-1.9,3.5-1.7,5.6c0.3,1.9,1,4,3.1,4.4c2.1,0.5,3.9-1,5.3-2.5C-1059.4,1490.1-1058.1,1488-1057,1485.9
		C-1056.4,1484.6-1057.7,1487.3-1057,1485.9z"/>
	<path fill="#D81B60" d="M-1008,1481.3c-0.8-0.4-1.8,2.5-2.1,3.1c-0.8,1.6-1.6,3.1-2.6,4.5c-0.9,1.3-2,2.8-3.4,3.5
		c-1.6,0.7-2.6-0.1-2.7-1.7c0-3.2,2-6.5,3.5-9.3c0.8-1.6,1.7-3.1,2.7-4.6c0.8-1.2,1.7-2.9,3.1-3.6c-2,0.4-3.7-1.1-5.1,1
		c-0.5-1.9-2.5-2.3-4.2-2.1c-2.2,0.4-3.9,1.6-5.1,3.4c-1.9,2.8-3.6,8.6,1.2,9.4c-1,1.7-2,3.3-3.2,4.7c-1.1,1.3-2.4,2.8-4.2,3
		c-1.7,0.2-3.5-0.6-3.6-2.6c-0.1-0.9,1.6-3.6-0.5-3.7c0.4-0.8,0.8-1.5,1.2-2.3c0.3-0.7,0.8-1.4,1-2.1c0.1-0.7-0.6-0.8-0.9-0.3
		c-0.5,0.7-0.8,1.6-1.2,2.4c-1,1.9-2,3.8-3.2,5.5c-1,1.3-2.5,3.4-4.4,3.2c-3.5-0.4,0.6-8.1,1.3-9.6c1-1.9,2-3.8,3.2-5.7
		c0.9-1.4,2-3.4,3.5-4.3c-1.8,0.3-3.5-0.9-5,0.6c-1.3,1.3-2.1,3.1-2.9,4.7c-0.5,0.9-1,1.9-1.5,2.8c-0.4,0.7-0.7,1.5-1.7,1.5
		c-2-0.1-3.9-2-6-1.1c0.9-1.7,1.8-3.3,2.9-4.9c0.8-1.2,1.7-2.9,3.1-3.6c-1.1,0.2-2.2-0.4-3.3-0.2c-0.9,0.1-1.6,0.6-2.2,1.3
		c-1.4,1.8-2.4,4.1-3.5,6.1c-2.4,4.7-4.5,9.5-6.9,14.2c1.6-1,3.8,0.5,4.7-1.7c0.8-1.8,1.6-3.5,2.3-5.2c0.4-0.9,0.8-1.7,1.2-2.6
		c0.4-0.8,0.7-1.8,1.8-1.9c2.1-0.1,3.9,2.1,6.1,1.1c-0.7,1.4-1.6,2.9-1.7,4.5c-0.1,1.6,0.4,3.5,1.6,4.6c3.1,2.9,6.9-1.3,8.6-3.7
		c0.7,3.6,4.3,5.6,7.7,4.3c1.8-0.7,3.3-2.3,4.5-3.9c0.6-0.9,1.2-1.8,1.8-2.8c0.3-0.5,0.5-0.9,0.8-1.3c0.1-0.2,0.3-0.5,0.4-0.7
		c0.3-0.5,0.4-0.3,0.8-0.4c-1.1,2.3-2,4.5-1.1,7.1c0.9,2.4,3.6,2.8,5.7,1.6c2.3-1.3,3.9-3.8,5.2-6
		C-1010.2,1486.9-1007,1481.7-1008,1481.3C-1008.3,1481.1-1007.7,1481.4-1008,1481.3z M-1023.8,1482.6c-1-2.3,0.9-5.1,2.2-6.9
		c0.7-1,1.4-2,2.7-2.3c1-0.3,2.5-0.1,2.8,1.1c0.5,2.3-1.6,5.1-2.6,7c-0.3,0.5-0.6,1.1-0.9,1.6c-0.4,0.8-0.5,0.8-1.4,0.8
		C-1022.1,1484-1023.3,1483.7-1023.8,1482.6C-1024,1482.1-1023.6,1483.1-1023.8,1482.6z"/>
</g>
</svg>
