<?xml version="1.0" encoding="utf-8"?>
<!-- Generator: Adobe Illustrator 18.0.0, SVG Export Plug-In . SVG Version: 6.00 Build 0)  -->
<!DOCTYPE svg PUBLIC "-//W3C//DTD SVG 1.1//EN" "http://www.w3.org/Graphics/SVG/1.1/DTD/svg11.dtd">
<svg version="1.1" id="Layer_1" xmlns="http://www.w3.org/2000/svg" xmlns:xlink="http://www.w3.org/1999/xlink" x="0px" y="0px"
	 viewBox="0 0 1920 1080" enable-background="new 0 0 1920 1080" xml:space="preserve">
<g>
	<path fill="#D81B60" d="M520.9,677.1C506.9,670.3,504.9,689.1,520.9,677.1L520.9,677.1z"/>
	<path fill="#D81B60" d="M884.5,492.2c-48-35-111.4-37.9-168.6-38.9c5-8.7,10-17.4,15.1-26.1c16-27.5,31.9-55.1,48.6-82.2
		c8.1-13.1,16.4-26,25-38.8c3.7-5.5,7.5-10.9,11.3-16.3c1.7-2.3,2.4-5.7,5.5-4.5c2.4,0.9,4.8,1.9,7.2,2.8
		c23.7,9.4,48.3,15.5,73,21.2c26.3,6.1,55.2,12.8,82.3,11.7c18.3-0.7,51.1-9.3,47.3-34.1c-0.6-4.2-1.9-12.1-7.9-10.5
		c-5,1.4-4.2,7.3-4.7,11.2c-1.6,11.2-14.8,13.7-24,14.7c-28.9,3.2-59.8-3.5-87.8-9.8c-26.8-6-53.3-13.4-79.4-21.8
		c5.2-10.4,16.3-17,25-24c10.3-8.3-0.1-9.6-7.8-6.8c-11.8,4.4-22.7,11-32.8,18.5c-6.2,4.5-6.9,5.8-14.2,3.5
		c-5.6-1.7-11.1-3.5-16.6-5.4c-53.6-18.1-108.1-37.7-164.7-43.9c-54-6-110.8,0.6-156.9,31.4c-44.9,30-75,86.5-61.9,141
		c13.4,55.9,71.7,87.3,126.4,70.7c25.2-7.6,47.9-25.3,60.1-48.8c3.8-7.3,14.9-30.4,7.5-37.7c-2.2-2.1-10-1.5-10,2.3
		c0,3.6-0.6,6.9-1.7,10.3c-17.4,51.1-83.7,81.8-130.8,49.6c-49-33.5-15.8-105.3,16.8-137.1c40.1-39,96.5-54.7,151.4-51.7
		c60.7,3.3,120.1,14.5,178,32.8c-37,40.1-72.8,80.1-100.8,127.4c-22.8,38.6-43.7,78.1-64.8,117.6c-19.7,36.9-38.8,75.1-63.8,108.8
		c-8.3,11.3-17.4,22-27.2,31.9c-3.3,3.4-3.1,5-7.8,2.7c-3.3-1.6-6.5-3.2-9.7-4.8c-6-3-12-6.1-18-9.2c-24-12.7-46.5-27.2-73.1-34.1
		c-24.5-6.4-51.6-7-74.9,3.9c-24.5,11.4-41,37.9-32.4,65c17,54.1,99.9,52.5,143.3,42c27.9-6.7,54.1-19.6,77.3-36.3
		c5.1-3.7,13.8,2.7,19.5,5c6,2.4,12.1,4.7,18.2,6.8c12.5,4.4,25.2,8.5,38,12c53.7,14.5,113.8,24,168.8,12
		c51.5-11.2,104.4-38.9,130.5-86.6C945.9,588.9,931.1,526.2,884.5,492.2z M426,713.5c-29.6,1.8-70.6-7.5-70.5-45
		c0.1-35.1,39.5-41.6,66.3-34.6c34.8,9,66.9,27.7,99,43.3C493.3,697.8,460.6,711.4,426,713.5z M866,652.2
		c-75.2,91-211.4,66.1-306.7,25.5c63.6-57.3,104.8-135.2,147.6-208.2c53.1,2.5,119.4,1.3,161.6,39.2
		C911.7,547.6,899.6,611.5,866,652.2z"/>
	<path fill="#D81B60" d="M1335.1,518.7c-0.6-0.1-1.2-0.3-1.8-0.4c0.6,0.2,2.3,0.7,2.9,0.8C1335.8,519,1335.5,518.8,1335.1,518.7z"/>
	<path fill="#D81B60" d="M1596.4,585.6c-6.6-3.1-11.8,13-14,17.1c-10.4,19.9-21.2,39.5-34.7,57.5c-10.2,13.7-25.8,36.1-45.3,35
		c-24-1.3-26.8-27-21.2-45c8.7-27.4,29.5-49,43.7-73.4c11.3-19.5,21.1-47.3-0.5-63.9c-23.8-18.3-51.4-2.4-68.9,16
		c-16.7,17.6-29,38.6-40.2,60c-3.2,2.5-5,8.9-6.5,12.1c-6.7,13.6-13,27.3-20.7,40.4c-12,20.6-31.1,53.1-58.5,53.1
		c-11.6,0-22.6-4.3-28.2-15c10.7-9.9,20.3-21,28.7-32.9c16.3-23.2,28.7-48.9,33.1-77.2c3.5-23.1,1.6-55.4-23-66.4
		c-26.1-11.7-55.7,4.8-75.5,21.1c-24,19.8-47.5,50.1-60.1,82.8c-3.9,7.8-7.9,15.6-12,23.3c-11.4,21.2-28.2,53.6-52.9,61.8
		c-28.8,9.5-20.9-33.5-16.3-47.5c9-27.3,22.2-53.9,35.3-79.4c12.3-23.9,21.8-45.2,43-62.6c-8.7,0-20.8-1.5-31.8-0.4
		c-6.7-0.8-24.6,0.5-27.3,0.6c-10.1,0.5-19.5,2.2-27.3,9c-15.3,13.4-22.4,35-30.3,53.2c-17.3,40.1-33.9,88-68.1,117.1
		c-15.1,13.7-46.7,16.9-54.5-6.4c-3.5-10.7,5.3-18.7,4.9-29.2c-0.4-9.8-11.3-13-19-8.8c-20.6,11.4-10.6,39.8,0.5,53.9
		c13.5,17.1,41.6,21.1,61.1,13c21.1-8.8,35.6-31.7,46.7-50.7c13.3-22.7,23.7-47.1,33.4-71.4c8.2-20.5,16.9-42.5,31.1-59.8
		c6.4-7.8,14.4-10.5,24.5-10.6c0.4,0,1.3-0.1,2.4-0.3c-0.5,0.7-1,1.5-1.5,2.3c0.1-0.2-0.1,0.1-0.6,1
		c-16.6,38.7-36.4,76.2-49.2,116.4c-7,21.1-12.7,57.1,9.6,71.7c24.3,15.9,51.4-5.9,66.7-23.9c8.5-9.9,15.7-20.8,22.3-32.2
		c-0.6,9.2,0,18.4,1.9,27.3c5.6,26.1,28.1,38.3,53.7,33.6c14.2-2.6,27.5-10.3,39-18.9c8.2,9,19.8,13.9,31.8,14.9
		c28.6,2.4,49.5-17.8,65.2-39.5c14.4-19.8,24.5-42.1,34.2-64.6c0.1-0.2,0.2-0.3,0.2-0.5c13.1-25.3,28.7-54.4,51.3-72.6
		c8.8-7.1,25.8-12.7,33-0.1c5.9,10.3-1.6,23.3-6.3,32.6c-13.8,27-35.3,49.9-46.2,78.4c0.1-0.4,0-0.1-0.6,1.5
		c-2.3,6.5-1.8,5.1-0.9,2.6c-5.6,17.1-7.1,37,5.4,51.6c12.9,15,37.6,19.7,55.8,12.9c19.7-7.3,35-26.5,46.8-43.1
		c12.6-17.9,22.5-37.3,32.1-56.9C1593.8,602.5,1603.2,588.8,1596.4,585.6z M1285.2,626.8c-13,6.4-12.5,26.7-8.9,38.2
		c1.3,4.2,3.1,8.3,5.4,12.1c2.8,4.8-2.2,6.2-6.3,9c-6.2,4.1-13.1,7.7-20.4,9.2c-16.4,3.3-24.9-7.6-25.7-22.8
		c-1.8-33,15.5-69.6,32.3-97.1c13.1-21.5,41.4-62.9,71.7-57.2c-0.4-0.1-0.2-0.1,1.8,0.4c1.5,0.5,1.6,0.5,1.1,0.4
		c21.7,8.1,12.4,46.7,7.9,62.6c-6.9,24-18.4,47.2-32.4,67.8C1317,633.3,1300.5,619.3,1285.2,626.8z"/>
</g>
</svg>
