<?xml version="1.0" encoding="utf-8"?>
<!-- Generator: Adobe Illustrator 18.0.0, SVG Export Plug-In . SVG Version: 6.00 Build 0)  -->
<!DOCTYPE svg PUBLIC "-//W3C//DTD SVG 1.1//EN" "http://www.w3.org/Graphics/SVG/1.1/DTD/svg11.dtd">
<svg version="1.1" id="Layer_1" xmlns="http://www.w3.org/2000/svg" xmlns:xlink="http://www.w3.org/1999/xlink" x="0px" y="0px"
	 viewBox="0 0 535 136" enable-background="new 0 0 535 136" xml:space="preserve">
<g>
	<path fill="#D81B60" d="M156.1,81.4c2.4,2.5,6.8,2.5,9.8,1.4c0.9-0.3,7.3-5.9,5.3-6.1c-1.6-0.1-3.6,3.5-5.5,4.1
		c-2,0.5-4.6,0.5-6.4-0.6c-1.4-0.9-1.8-2-2.5-3.4C156.3,75.8,154.2,79.4,156.1,81.4C156.5,81.9,155.6,80.9,156.1,81.4z"/>
	<path fill="#D81B60" d="M356.2,100.7c-0.6-0.2-7,11.4-9.3,12.4c-1.8,0.8-4.1,0.4-5.1-1.4c1.8-1.7,3.4-3.7,4.6-5.8
		c2.3-3.8,5-11,1.1-14.7c-4.7-4.4-11.7,2.7-14.3,6.3c-2.9,4-4.4,8.8-7.5,12.7c-2.9,3.6-9.4,4.5-7.3-2c1.4-4.3,5.3-7.3,6.5-11.6
		c2.1-7.1-6.7-6.1-9.9-2.6c-2.5,2.8-13.5,26.9-18.2,17.8c3.7-3.4,6.6-8.2,7.4-13.2c1.1-7.4-4.6-10.5-10.6-6.3
		c-3.6,2.5-6.5,6.4-8.1,10.5c-1.6,3.2-4.6,10.8-9,10.8c-6.5-0.6,7.5-21.5,8.4-23.2c-4.6,0-6,0.3-8.2,4.8c-2.6,5.4-5.3,11.3-9.3,15.8
		c-6.2,7.1-5.4-2.8-3.6-6.9c2.2-5,5.5-9.1,8-13.7c-5.6,0-6.4,1.4-9,6.4c-2.7,5.3-5.4,11.9-10.1,15.8c-6.4,5.3-2.3-7.2-1.4-9.2
		c1.2-2.7,2.6-5.4,4-8.1c1-1.8,3.2-3.2,3.9-4.9c-3.9,0-6.1-0.5-8.1,3.5c-2.1,4.3-4.3,8.8-6.8,13c-0.8,1.4-8,11.1-7.5,4.4
		c0.4-4.9,3.5-11.8,7-15.4c-2,0.4-4.1-1.2-5.7,0.8c-1.7,2.1-2.8,4.7-4.2,7c-0.9,1.6-8,13.5-10.8,8.9c-2.7-4.3,4.7-13.3,7.2-16.1
		c1.8-2,4.2-4.4,7-4.9c1.2-0.2,2.3,0,3.3,0.9c0.3,0.5,0.6,1.1,0.9,1.6c1.5-0.2,1.7-0.9,0.8-2.1c-4.2-4.6-11.8-1.5-15.6,2.1
		c-4.4,4.2-5.5,9.9-8.8,14.8c-4.2,6.2-9,6-5.8-2.1c2.1-5.2,4.8-10.1,7.5-15c-6.3-1.9-16.1,9.1-19.4,13.2c1.2-3.3,2.4-6.7,2.9-10.2
		c0.7-5.3-2.2-4.3-6-3.6c4.7,1.1-4.1,15.9-4.9,17.1c-6.4,9.8-13.5,1.8-12-7.2c0.7-4.4,3.2-7.3,7.9-7.6c1.5-0.1,8,3.7,6-2.3
		c-3.9-6.8-16.7,7.5-18.8,10.1c1.5-3.1,3.8-8.5,7-10.2c-2,0.4-4-1.1-5.8,0.6c-2,2-3.2,5.1-4.5,7.5c-2.2,4.3-4.4,11.7-9.2,13.8
		c-5.7,2.5-0.8-9.3-0.1-10.7c2-4.4,5.1-8.1,7.3-12.1c-5.6,0-6.4,1.4-9,6.4c-2.7,5.3-5.4,11.9-10.1,15.8c-6.4,5.3-2.3-7.2-1.4-9.2
		c1.2-2.7,2.6-5.4,4-8.1c1-1.8,3.2-3.2,3.9-4.9c-3.9,0-6.1-0.5-8.1,3.5c-2.1,4.3-4.3,8.8-6.8,13c-0.8,1.4-8,11.1-7.5,4.4
		c0.4-4.9,3.5-11.8,7-15.4c-2,0.4-4.1-1.2-5.7,0.8c-2.1,2.6-3.4,5.9-5.2,8.7c-0.7,1.2-9.5,12.7-10.1,6c-0.5-5.9,5.3-13.1,9.3-16.7
		c1.8-1.7,4.4-3.8,7.1-3.1c1.2,0.4,2,1.2,2.3,2.4c3.4,0.5-0.6-3.3-0.9-3.4c-5.9-3.3-12.9,1.7-16.3,6.3c-3.6,4.9-4.5,10.9-8.9,15.4
		c-5.2,5.4-4.5-3.3-3.3-6.1c1.8-4.2,5-12.3,9.2-14.7c-2,0.4-4-1.1-5.8,0.6c-1.8,1.8-2.9,4.5-4,6.7c-3.2,6.1-4.8,0.1-9.7,2.4
		c1.6-2.9,3.7-8.1,6.8-9.8c-2,0.4-4-1.1-5.8,0.6c-1.5,1.5-2.4,3.7-3.4,5.6c-3.2,6-5.9,12.2-8.9,18.2c1.6-1,4.1,0.5,5.2-1.5
		c0.9-2.1,1.9-4.3,2.8-6.4c0.6-1.6,1.5-5.3,3.8-5.1c2.2,0.1,4.3,2.4,6.6,1.2c-1.5,3.2-3,6.3-0.9,9.6c3.9,5.4,9.4-1.6,11.5-4.9
		c-0.1,3.1,1.1,7.3,5.1,6.5c4.1-0.8,7.1-5.9,9-9.1c-0.7,2.6-1.7,7.6,1.7,9c4.7,1.8,8.3-4.9,10.2-8.2c-1.6,3.6-0.9,8.3,3.8,8.3
		c4.5,0,7.8-5.9,9.7-9.2c-2.1,6.2,2.1,12.8,8.2,6.8c-0.4,0.9-0.9,1.8-1.3,2.7c3.4-2.1,4.5,0.1,6.5-4.5c1.4-3.2,3-6,5.1-8.8
		c-1.1,5.1,0.5,12.7,6.8,13.2c7.7,0.7,10.8-7.2,14.1-12.6c-1.2,5.3-3.9,10.5-6.3,15.3c-2.5,5-5,12.3-9,16.4c3.9-0.7,5.9,1.4,7.9-3.5
		c0.8-1.9,1.6-3.9,2.3-5.8c2.2-5.4,4.1-11.2,7-16.3c2.3-3.9,5.2-7.1,8.6-10c5.1-4.3,4.3-0.3,2,3.7c-1.7,3-4.3,7.9-2,11.3
		c3.8,5.4,10-2.1,12-5.2c-0.2,3.1,1.1,7.4,5.1,6.6c4.1-0.8,7.1-5.9,9-9.1c-0.7,2.6-1.7,7.6,1.7,9c4.7,1.8,8.3-4.9,10.2-8.2
		c-1.6,3.6-0.9,8.3,3.8,8.3c4.5,0,7.8-5.9,9.7-9.2c-1,3-1.5,9.2,3.3,9.2c4.4,0,7.9-5.9,9.7-9.2c-1,3-1.5,9.2,3.3,9.2
		c-3.4,2.6-8.6,7.3-8.8,11.9c-0.1,2.7,2.3,3.5,4.6,3.1c1.8-0.3,5.5-4.4,5.3-4.4c-1.9,0.2-2.8,3.2-5.2,2.2c-2.6-1.1-0.1-5.3,0.7-6.6
		c3.4-5.2,8.9-8.2,12-13.5c-0.3,3.5,0.9,7.3,5,7.4c1.7,0.1,3.3-0.5,4.7-1.4c2.6-1.5,3.2,0.8,6.1,0.8c8.5,0,11.7-15.6,16.7-20.7
		c2-2,6.1-1.9,4.5,1.9c-1.4,3.5-4,6.3-5.7,9.6c-1.6,3.3-1.9,8.2,2.4,9.4c5.3,1.5,8.7-3.2,11.1-7.2c-0.3,2.6,0.2,6.1,3.1,7.1
		c1.6,0.6,3.5,0.4,5-0.3c3-1.3,1.9-1.9,4.9-0.5C350.2,117.7,356.9,100.9,356.2,100.7C355.9,100.5,356.6,100.8,356.2,100.7z
		 M294.3,106c-1.6,2.8,1.7,5.1-0.8,6.6c-1.5,0.9-4.2,1.7-5-0.5c-1.5-4.4,2.1-11,4.5-14.4c1.2-1.7,7.3-8.8,9.3-4.1
		c1.8,4.4-1.8,10.9-4.2,14.4C299,105.7,295.6,103.8,294.3,106C293.9,106.6,294.7,105.4,294.3,106z M339.2,106
		c-1.6,2.8,1.7,5.1-0.8,6.6c-1.5,0.9-4.2,1.7-5-0.5c-1.5-4.4,2.1-11,4.5-14.4c1.2-1.7,7.3-8.8,9.3-4.1c1.8,4.4-1.8,10.9-4.2,14.4
		C343.9,105.7,340.5,103.8,339.2,106C338.9,106.6,339.6,105.4,339.2,106z"/>
	<path fill="#D81B60" d="M394.3,93.6c-0.6-1.3-7-6.2-7.7-3c-0.1,0.5,4.9,1.1,5.3,3.3c0.6,3.2-1,6.7-2.5,9.4
		c-1.7,3-12.7,16.9-12.6,5.6c0-5.7,3.9-18.4,9.7-20.3c9-3.1,17.8-7.2,24.3-14.4c3-3.3,13.2-17.5,3.8-19.2c-8.6-1.5-15.6,7-20.5,12.7
		c-3.2,3.7-6,7.7-8.4,12c-2.2,3.8-3.4,10-8.6,8.7c-1.3-0.3-2.3-3.9-3.4-3.2c-3.5,2.3,4.4,5.3,6,5.1c-1.2,2.2-12.2,19.9-11.3,21.3
		c0.6,0.9,7.5-11.3,8-12.3c-3.6,7.4-5.5,18.5,6.8,15.1C390.6,112.7,397.9,101.1,394.3,93.6C393.8,92.7,394.8,94.6,394.3,93.6z
		 M388.8,81.7c4.1-6.6,8.6-13.3,14.1-18.7c2-1.9,13.8-10.3,12.9-2c-1.4,13.5-19.2,23.1-30.5,26.4C386.4,85.4,387.6,83.5,388.8,81.7
		C390.1,79.5,387.4,83.8,388.8,81.7z"/>
	<path fill="#D81B60" d="M442.9,88c3.5,0,5.1-5.9,0.9-5.9C440.3,82.1,438.8,88,442.9,88z"/>
	<path fill="#D81B60" d="M532.5,100.6c0.7,0.3-12,19.1-12.4,10.9c-0.2-5.5,5.8-17.6,10.6-20.2c-2.3,0.4-4.2-1.2-5.8,1.2
		c-2.8-10.2-21.9,10-9.3,12.2c-1.5,2.7-8.2,13.3-12.1,7.6c-1.5-2.2,3-11.4,2.6-11.6c0,0-6.1,8-6.1,8.9c0.1,2.6-6,5.9-6,1.4
		c-0.1-7.9,6.7-14.5,10-20.8c-2.7,0-5.5-0.1-8.1,0.2c-4.7,0.6-6.5,9.3-8.2,12.7c-1.3,2.7-7.7,14.8-12,8.9
		c-1.2-1.7,1.4-11.6,1.7-11.4c1,0.4-12.1,18.8-12.2,10.4c-0.1-7.9,6.7-14.5,10-20.8c-2.7,0-5.5-0.1-8.1,0.2
		c-4.7,0.6-6.5,9.3-8.2,12.7c-1.3,2.7-7.7,14.8-12,8.9c-1.4-1.9,1.8-11.3,1.6-11.4c0,0-7.7,11.9-9.2,12.6c-5.4,2.7-2.8-5.4-1.8-7.5
		c1.7-3.9,3.3-7.8,5-11.6c1.7-4.1-2.3-3.1-5.2-3c2.2,2.9-1.4,8.5-2.5,11.3c-2,5.1-5.3,11.8-11.6,11.8c-7.8,0-2.9-12.3-0.8-15.7
		c1.6-2.6,3.6-5,6.2-6.5c5.7-3.3,2.7,4.8,1.2,6.6c2.3,2.3,9-8.8-0.1-8.8c-3.2,0-6.1,1.7-8.2,4c-1.7,1.8-2.8,5.8-4.5,7.1
		c-3.8,3-5.9,16.5-14,12.8c-2.3-1.1-2.1-4.9-1.7-6.9c0.7-3.7,3.1-2.7,6.3-4.1c3.1-1.3,12.2-8.3,7.2-12.3c-5.3-3.7-12.1,3.8-14.5,7.8
		c-2.7,4.5-6.1,13.3,0.3,16.5c6.3,3.1,11.9-2.6,14.6-7.7c-1.4,11.6,12.8,9.4,17.5,2.8c-0.2,7.9,8,5.1,11.1,1
		c2.9,7.9,10.8,3.2,13.8-1.7c2.5-4.1,5.2-17.7,11.3-17.6c-2.9,4.4-5.7,11.2-6.7,16.4c-1.5,8.2,6.1,8.4,10.3,2.9
		c2.9,7.9,10.8,3.2,13.8-1.7c2.5-4.1,5.2-17.7,11.3-17.6c-2.9,4.4-5.7,11.2-6.7,16.4c-1.4,7.4,5.3,8.8,9.7,3.7c1.6,3.6,6,5,9.4,2.9
		c2.8-1.7,6.1-9.6,8.4-9.9c-1.4,2.9-3.6,10.8,2.3,10.8C524.5,115.4,534.8,101.6,532.5,100.6C532.2,100.4,532.9,100.7,532.5,100.6z
		 M404.2,99.8c0.4-0.7,8.9-11.7,9.8-7.8c1.4,5.5-7,10.9-11.5,10.9C403,101.8,403.6,100.8,404.2,99.8
		C405,98.5,403.4,101.1,404.2,99.8z M514.4,102.1c-1.5-3.5,5.9-14.4,8.6-9.8C524.8,95.5,517.3,108.7,514.4,102.1
		C514.2,101.5,514.7,102.6,514.4,102.1z"/>
</g>
<g>
	<path fill="#5D4037" d="M43.7,21.5c-3.4,2.1-11.8-0.5-16.2,0.3c-4,0.8-8.4,5.6-8.5,9.5c3.2-0.3,4.1-5.2,8.5-5.2
		c3.8,0,7.6,0.2,11.4,0.3c-6.6,6.6-13.5,12.9-20.2,19.4c-3.8,3.7-7.5,7.4-11.1,11.3c-1.1,1.2-6.3,5.5-2.2,5.1c5.1-0.4,5.4-3,8.8-6.4
		c4.1-5.2,8.3-10.3,12.7-15.1c4-4.4,8.2-8.6,12.3-12.9C39.8,27.5,46.4,19.9,43.7,21.5C43.4,21.7,44,21.3,43.7,21.5z"/>
	<path fill="#5D4037" d="M168.2,35c3.5,0,5.1-5.9,0.9-5.9C165.6,29.1,164.1,35,168.2,35z"/>
	<path fill="#5D4037" d="M177.7,47.8c1.6-4.1,3.5-10.6,7.8-12.1c6.3-2.1,12.5-4.7,17.9-8.7c4.9-3.6,9.2-8.3,12-13.7
		c3-6,2.4-12.7-5.9-11.1c-11.7,2.2-20.7,17.4-26.1,26.8c-1.4,2.5-2.4,6.9-5.6,6.7c-3.4-0.2-2.5-1.6-4-3.3c-1.2-1.4-1.6,1.2-1.3,1.9
		c1.1,2.5,3.8,3.3,6.3,3c-3.5,6.7-6.5,14.5-11.3,20.4c-5,6.2-6.9,0.3-4.8-4.5c1.7-3.9,3.3-7.8,5-11.6c1.9-4.4-1.2-3.8-4.9-3.7
		c2.5,3.3-2.4,10.7-4,13.7c-1.6,3-3.6,7-7,8.1c-4.8,1.6-6.9-4.2-7.1-7.8c-0.3-4.7,0.5-9,5.1-10.8c3.1-1.3,8.5,2.7,9.3-1.4
		c0.9-4.8-6.6-2.3-8.5-1.3c-4.2,2.3-7.5,6.1-10.4,9.7c1.5-3.1,3.8-8.5,7-10.2c-2,0.4-4-1.1-5.8,0.6c-1.5,1.5-2.4,3.7-3.4,5.6
		c-2.6,4.9-4.5,10.9-8.7,14.8c-1.5,1.4-4.1,2.1-5.9,0.6c-1.7-1.4,1.9-3.9,2.9-5.3c2.7-4,6.5-12,2.1-16.2c-9-8.5-18.4,15.1-21.9,19.4
		c-4.8,6-6.6,1.4-4.4-4c2.1-5.2,4.8-10.1,7.5-15C103,36.6,93.3,47.6,90,51.8c1.2-3.3,2.4-6.7,2.9-10.2c0.7-5.3-2.2-4.3-6-3.6
		c4.7,1.1-4.1,15.9-4.9,17.1C75.6,65,68.5,57,70,48c0.7-4.4,3.2-7.3,7.9-7.6c1.5-0.1,8,3.7,6-2.3c-3.9-6.8-16.7,7.5-18.8,10.1
		c1.5-3.1,3.8-8.5,7-10.2c-2,0.4-4-1.1-5.8,0.6c-1.5,1.5-2.4,3.7-3.4,5.6c-3.2,6-5.9,12.2-8.9,18.2c3.4-2.1,4.5,0.1,6.5-4.5
		c1.4-3.2,3-6,5.1-8.8c-1.1,5.1,0.5,12.7,6.8,13.2c7.7,0.7,10.8-7.2,14.1-12.6c-1.2,5.3-3.9,10.5-6.3,15.3c-2.5,5-5,12.3-9,16.4
		c3.9-0.7,5.9,1.4,7.9-3.5c0.9-2.3,1.9-4.7,2.8-7c2.3-5.8,4.4-12,7.9-17.2c2.2-3.3,5.2-6.4,8.4-8.8c5.7-4.1,1.3,3.7,0.2,5.9
		c-1.6,2.8-3.7,8.3-0.5,10.8c4.7,3.7,9.7-3.4,11.7-6.8c-0.5,5,3,8.9,8.2,6.8c1.1-0.5,2.1-1.1,3.1-1.8c0.9,0.9,1.9,1.5,3.1,1.7
		c2.4,0.4,4.4-0.4,6.2-2c-0.5,1-0.9,1.9-1.4,2.9c3.4-2.1,4.5,0.1,6.5-4.5c1.4-3.2,3-6,5.1-8.8c-0.9,4.4,0,10.9,4.8,12.7
		c5.7,2.2,10.1-2,12.9-6.5c-0.7,4.1,1.7,8.4,6.5,6.6c5.4-2.1,8.3-10.4,10.9-15.3c-1.8,3.7-5.8,10.7-1.8,14.3
		c3.8,3.4,10.8,0.6,14-2.3c3.9-3.6,6.9-9.4,6.6-14.8c-0.1-2.1-1-4.2-2.8-5.5c-0.8-0.6-5.3-2.6-5.8-0.6c0,0.1,5.4,1.6,5.4,4.7
		c0,4-2.4,8-4.6,11.2c-1.5,2.3-4.8,7.5-8.2,6.8C173.4,59.5,176.7,50.6,177.7,47.8C178.5,45.7,176.9,49.8,177.7,47.8z M187.9,28.7
		c4.1-6.6,8.6-13.3,14.1-18.7c2-1.9,13.8-10.3,12.9-2c-1.4,13.5-19.2,23.1-30.5,26.4C185.6,32.4,186.7,30.5,187.9,28.7
		C189.2,26.5,186.6,30.8,187.9,28.7z M119.6,53c-1.6,2.8,1.7,5.1-0.8,6.6c-1.5,0.9-4.2,1.7-5-0.5c-1.5-4.4,2.1-11,4.5-14.4
		c1.2-1.7,7.3-8.8,9.3-4.1c1.8,4.4-1.8,10.9-4.2,14.4C124.3,52.7,120.9,50.8,119.6,53C119.3,53.6,120,52.4,119.6,53z"/>
	<path fill="#5D4037" d="M269.9,47.7c-2.6-1-6.3,18-13.5,11.9c-1.5-1.3,2.9-5.2,3.8-6.8c2-3.4,3.6-7.7,2.7-11.6
		c-2-9.5-13-0.8-15.9,3.2c-4.1,5.7-5.5,11.9-11.5,16.2c1.5-5.7,1.9-11.7,0.9-17.5c-1.8,1.5-3.5-0.3-4.5,2.9c-0.6,2.1-1.8,4.2-2.9,6
		c-1.1,1.7-11,13.2-11.1,5.3c-0.1-5,3.9-10.3,7-13.9c1.9-2,4.1-4.2,6.8-5.1c4.1-1.4,3.1,2.9,5.6,3.3c3.3,0.5-1.7-4.1-2.1-4.2
		c-2.8-1.3-6.1-1-8.9,0.2c-5.4,2.4-9.3,8.2-11.1,13.6c-1.5,4.5,0.1,14.2,7.2,10c4.4-2.6,7.3-7.5,9.6-11.9c0.8,3.1-0.1,7-0.7,10
		c-0.5,2.7-0.4,3.7-3.2,4.7c-3.1,1.1-6.3,2-9.3,3.3c-4.6,1.8-19.3,8.5-12.7,15.7c6.1,6.6,17.4-2.8,21.3-7.4c2.8-3.3,5-7,6.7-10.9
		c1.6-3.7,6.7-6.1,8.9-10.1c-0.3,2.7,0.2,6.1,3.1,7.2c1.6,0.6,3.5,0.4,5-0.3c3-1.3,1.9-1.9,4.9-0.5
		C263.8,64.7,270.5,47.9,269.9,47.7C269.5,47.5,270.3,47.8,269.9,47.7z M225.4,72.7c-2.9,3.9-6.1,7.3-10.5,9.4
		c-2.8,1.3-9.7,2.7-8.4-2.6c2.2-9,15.7-11.4,23-14.1C228.5,68,227.1,70.4,225.4,72.7C224.4,74,227.2,70.2,225.4,72.7z M252.8,53
		c-1.6,2.8,1.7,5.1-0.8,6.6c-1.5,0.9-4.2,1.7-5-0.5c-1.5-4.4,2.1-11,4.5-14.4c1.2-1.7,7.3-8.8,9.3-4.1c1.8,4.4-1.8,10.9-4.2,14.4
		C257.5,52.7,254.1,50.8,252.8,53C252.5,53.6,253.2,52.4,252.8,53z"/>
</g>
</svg>
