<?xml version="1.0" encoding="utf-8"?>
<!-- Generator: Adobe Illustrator 18.0.0, SVG Export Plug-In . SVG Version: 6.00 Build 0)  -->
<!DOCTYPE svg PUBLIC "-//W3C//DTD SVG 1.1//EN" "http://www.w3.org/Graphics/SVG/1.1/DTD/svg11.dtd" [
	<!ENTITY ns_extend "http://ns.adobe.com/Extensibility/1.0/">
	<!ENTITY ns_ai "http://ns.adobe.com/AdobeIllustrator/10.0/">
	<!ENTITY ns_graphs "http://ns.adobe.com/Graphs/1.0/">
	<!ENTITY ns_vars "http://ns.adobe.com/Variables/1.0/">
	<!ENTITY ns_imrep "http://ns.adobe.com/ImageReplacement/1.0/">
	<!ENTITY ns_sfw "http://ns.adobe.com/SaveForWeb/1.0/">
	<!ENTITY ns_custom "http://ns.adobe.com/GenericCustomNamespace/1.0/">
	<!ENTITY ns_adobe_xpath "http://ns.adobe.com/XPath/1.0/">
]>
<svg version="1.1" id="Layer_1" xmlns:x="&ns_extend;" xmlns:i="&ns_ai;" xmlns:graph="&ns_graphs;"
	 xmlns="http://www.w3.org/2000/svg" xmlns:xlink="http://www.w3.org/1999/xlink" x="0px" y="0px" viewBox="125 1417.5 380.1 96.1"
	 enable-background="new 125 1417.5 380.1 96.1" xml:space="preserve">
<metadata>
	<sfw  xmlns="&ns_sfw;">
		<slices></slices>
		<sliceSourceBounds  width="281.4" height="71.2" x="174.4" y="-709.2" bottomLeftOrigin="true"></sliceSourceBounds>
	</sfw>
</metadata>
<g>
	<path fill="#D81B60" d="M264.6,1442.5c-4.2-4.6-10.8-6.9-16.7-8.4c0.8-1.5,2.7-2,3.7-3.3c1.1-1.5-2.5-0.1-2.8,0
		c-0.9,0.4-1.7,0.9-2.4,1.4c-0.4,0.3-0.8,0.6-1.2,0.9c-0.5,0.4-0.7,0.2-1.3,0.1c-2.1-0.4-4.3-0.8-6.4-1c-8.9-1.1-17.9-0.8-26.7,0.4
		c-7.9,1.2-15.8,3.8-22,8.9c-5.7,4.7-10.9,13.2-6.9,20.5c4,7.1,14,8.8,20.5,4.3c1.5-1.1,2.8-2.4,3.8-3.9c0.9-1.3,1.9-3.4,1.9-5
		c0-0.7-0.4-1.4-1.2-1.2c-0.7,0.2-0.5,0.6-0.6,1.2c-0.3,1.7-1.4,3.4-2.5,4.7c-2.4,2.7-6.1,4.8-9.8,4.6c-3.6-0.2-7.5-1.8-8.9-5.4
		c-1.5-3.8,0.1-8,2.1-11.2c2.1-3.3,5.1-6,8.4-8.1c6.9-4.5,14.8-6.3,22.8-7.2c8.1-1,16.4-0.8,24.4,0.5c-2.8,3.2-5.7,6.3-8.3,9.6
		c-5.4,6.9-9.6,14.8-13.7,22.5c-4,7.5-7.7,15.6-13.4,22c-0.6,0.7-1.2,1.3-1.9,2c-0.6,0.6-2-0.5-2.7-0.8c-1.8-0.9-3.5-1.8-5.3-2.8
		c-3.4-1.9-7.1-3.5-11.1-3.8c-3.5-0.3-7.4,0.6-9.9,3.1c-2.8,2.8-3,7.2-0.4,10.2c2.6,2.9,6.5,3.8,10.2,4.1c4.3,0.3,8.6-0.3,12.6-1.9
		c1.8-0.7,3.6-1.6,5.3-2.6c0.9-0.5,1.7-1.1,2.5-1.7c0.9,0.4,1.9,0.8,2.8,1.2c3.5,1.4,7.2,2.5,10.9,3.3c4,0.9,8.2,1.6,12.3,1.8
		c4.4,0.1,8.8-0.6,12.9-1.9c7.7-2.5,16.5-7.9,17.3-16.7c0.9-10.1-8.7-15.2-16.9-17.8c6-0.2,12.8-1.9,17.2-6.2
		C268,1454.1,269,1447.2,264.6,1442.5C262.9,1440.6,266.2,1444.3,264.6,1442.5z M195.8,1497.3c-3.6,1.3-8.3,2-12,0.6
		c-3.5-1.3-5.9-5.9-3.3-9.1c2.5-3.1,7.1-2.3,10.4-1.1c4.3,1.5,8.2,3.6,12.3,5.6C201,1494.9,198.5,1496.3,195.8,1497.3
		C193.1,1498.2,198.5,1496.3,195.8,1497.3z M262,1448.2c-0.4,7.7-9.7,14.1-16.9,14c-2.1,0-4.1-0.2-6.2-0.4c-1.5-0.1-3.7-0.5-5.1,0.3
		c-1.8,1,0.3,2.2,1.3,2.6c1.8,0.7,3.7,1.3,5.6,1.9c7,2.2,16.3,5.1,16,14.2c-0.3,8-7.6,13.9-14.6,16.3c-5.7,2-11.5,1.7-17.4,0.8
		c-5.4-0.9-10.8-2.4-15.9-4.5c5.4-4.9,9.5-10.7,13.3-16.8c4.3-6.8,8.3-13.7,12.3-20.7c3.9-6.7,7.8-13.4,12.4-19.7
		C252.7,1437.6,262.4,1440.4,262,1448.2C261.9,1449.9,262.1,1446.5,262,1448.2z"/>
	<path fill="#D81B60" d="M296.5,1486.6c0.5-1,1.1-2.1,1.6-3.1c0.3-0.7,1.3-2,1-2.8c-0.3-1-1.3,0.2-1.5,0.6c-0.5,1-1,1.9-1.5,2.9
		c-1.2,2.3-2.5,4.6-4,6.7c-1.2,1.7-2.7,4.1-4.7,4.8c-4,1.4-1.4-6.7-0.9-8.1c0.9-2.5,2.1-4.9,3.4-7.3c1.1-2,2.2-4.3,3.8-5.9
		c-1.7,0.3-3.4-0.7-5.2-0.2c-1.6,0.4-2.4,2-3.2,3.3c-2.2,3.6-4,7.4-6.4,10.9c-1.1,1.7-2.4,3.3-3.8,4.7c-1.2,1.1-3.1,2.6-4.8,2.3
		c-3.8-0.6-1.1-7.1-0.2-9c1.6-3.7,3.9-7.1,6.5-10.2c2.4-2.8,5.6-6.4,9.4-7.1c1.5-0.3,3.2,0.1,4.2,1.3c0.4,0.5,0.6,1.7,1.2,1.7
		c0.8,0,1.4-0.6,1.3-1.4c-0.2-1.5-2.6-2.8-3.9-3.3c-2-0.7-4.2-0.7-6.2-0.3c-9.7,2-17.1,12.5-17.9,22c-0.3,4,1.4,10.2,6.7,8.4
		c2.3-0.8,4.1-2.7,5.6-4.4c1.7-2,3.2-4.2,4.6-6.4c-1.1,3.8-1.8,11.7,4.3,11.2c2.5-0.2,4.5-2.4,6-4.3
		C293.7,1491.5,295.2,1489.1,296.5,1486.6C297.5,1484.8,295.6,1488.4,296.5,1486.6z"/>
	<path fill="#D81B60" d="M330.8,1479.9c-0.9-0.7-2.4,3.5-2.7,4.1c-1,2-2,3.9-3.2,5.8c-1.8,2.7-4.6,6-8.2,5.6
		c-3.5-0.4-5.3-3.8-5.9-6.9c-0.8-3.9-0.3-7.8,0.8-11.6c0.2-0.5,0.3-1,0.5-1.6c0.4-0.3,0.8-0.6,1.3-0.9c0.8-0.5,1.6-1,2.4-1.4
		c1.6-0.8,3.6-1.5,5.4-1.3c0.8,0.1,1.6,0.3,2.1,1c0.2,0.3,0.4,0.6,0.4,0.9c0.4,0.1,0.9,0.2,1.4,0.1c2.2-0.4,3.1-2.8,2.4-4.7
		c-1.7-3-7.1-1-9.4,0.1c-3.7,1.9-7,5-9.8,8c-1.2,1.3-2.3,2.6-3.4,4c1.2-2.4,2.5-4.7,4-7c1.1-1.8,2.5-4.3,4.4-5.3
		c-1.5,0.3-3-0.5-4.5-0.3c-1.3,0.1-2.2,0.8-3,1.8c-2,2.5-3.3,5.6-4.8,8.4c-3.3,6.4-6.2,13-9.4,19.5c1.6-1,3.7,0,5.3-0.8
		c1.4-0.7,2-3.4,2.6-4.8c1.6-3.8,3.6-7.2,6.1-10.5c-0.7,3.4-0.5,8.3,1.3,11.3c2.4,3.9,6.7,5.3,11.1,4.2c3.8-0.9,6.5-4.6,8.5-7.7
		c1-1.6,1.9-3.2,2.7-4.9C329.6,1484.2,331.9,1480.7,330.8,1479.9z"/>
	<path fill="#D81B60" d="M361,1486.6c0.5-1,1.1-2.1,1.6-3.1c0.3-0.7,1.3-2,1-2.8c-0.3-1-1.3,0.2-1.5,0.6c-0.5,1-1,1.9-1.5,2.9
		c-1.2,2.3-2.5,4.6-4,6.7c-1.2,1.7-2.7,4.1-4.7,4.8c-4,1.4-1.4-6.7-0.9-8.1c0.9-2.5,2.1-4.9,3.4-7.3c1.1-2,2.2-4.3,3.8-5.9
		c-1.7,0.3-3.4-0.7-5.2-0.2c-1.6,0.4-2.4,2-3.2,3.3c-2.2,3.6-4,7.4-6.4,10.9c-1.1,1.7-2.4,3.3-3.8,4.7c-1.2,1.1-3.1,2.6-4.8,2.3
		c-3.8-0.6-1.1-7.1-0.2-9c1.6-3.7,3.9-7.1,6.5-10.2c2.4-2.8,5.6-6.4,9.4-7.1c1.5-0.3,3.2,0.1,4.2,1.3c0.4,0.5,0.6,1.7,1.2,1.7
		c0.8,0,1.4-0.6,1.3-1.4c-0.2-1.5-2.6-2.8-3.9-3.3c-2-0.7-4.2-0.7-6.2-0.3c-9.7,2-17.1,12.5-17.9,22c-0.3,4,1.4,10.2,6.7,8.4
		c2.3-0.8,4.1-2.7,5.6-4.4c1.7-2,3.2-4.2,4.6-6.4c-1.1,3.8-1.8,11.7,4.3,11.2c2.5-0.2,4.5-2.4,6-4.3
		C358.2,1491.5,359.7,1489.1,361,1486.6C362,1484.8,360.1,1488.4,361,1486.6z"/>
	<path fill="#D81B60" d="M395.2,1480.3c-1.1-0.5-2.5,3.5-2.9,4.2c-1.1,2.1-2.3,4.3-3.6,6.2c-1.2,1.7-2.7,3.9-4.7,4.8
		c-2.1,1-3.6-0.2-3.7-2.4c-0.1-4.5,2.8-9,4.8-12.8c1.2-2.1,2.4-4.3,3.7-6.3c1.1-1.7,2.4-4,4.2-5c-2.4,0.4-4.8-1.3-6.9,0.8
		c-1.8,1.8-2.9,4.3-4,6.5c-0.7,1.3-1.4,2.6-2,3.9c-0.5,1-1,2.1-2.3,2.1c-2.7-0.1-5.4-2.8-8.2-1.5c1.2-2.3,2.5-4.6,3.9-6.7
		c1.1-1.7,2.4-4,4.2-5c-1.5,0.3-3-0.5-4.5-0.3c-1.3,0.1-2.2,0.8-3,1.8c-2,2.5-3.3,5.6-4.8,8.4c-3.3,6.4-6.2,13-9.4,19.5
		c2.2-1.4,5.2,0.6,6.4-2.3c1-2.4,2.1-4.8,3.2-7.2c0.5-1.2,1.1-2.4,1.6-3.5c0.6-1.2,1-2.5,2.5-2.6c2.9-0.2,5.4,2.9,8.3,1.5
		c-0.7,1.4-1.5,2.9-2,4.4c-0.6,1.8-0.3,3.8,0.2,5.6c1.1,3.4,4.4,4.8,7.6,3.2c3.3-1.7,5.7-5.4,7.6-8.5
		C392.1,1488,396.5,1480.9,395.2,1480.3C394.8,1480.1,395.6,1480.5,395.2,1480.3z"/>
	<path fill="#D81B60" d="M429.8,1465.2c4.3,0,6.1-7.1,1.1-7.1c-2,0-3.8,1.6-4.2,3.5C426.5,1463.5,427.8,1465.2,429.8,1465.2z"/>
	<path fill="#D81B60" d="M436.7,1480.3c-1-0.5-2.5,3.6-2.9,4.3c-1.1,2.1-2.2,4.2-3.5,6.1c-1,1.4-2.1,3-3.5,4.1
		c-1.3,1-3.5,1.8-4.8,0.5c-1.9-1.8,0-5.6,0.9-7.5c0.6-1.3,1.1-2.6,1.7-3.9c1.6-3.7,3.2-7.5,4.8-11.2c0.5-1.2,1.8-3.4-0.2-3.8
		c-1.8-0.4-3.9-0.1-5.8,0c-0.1,0-0.2,0-0.3,0c0.9,1.2,1.3,2.4,0.8,3.9c-0.4,0.9-0.7,1.8-1.1,2.8c-0.8,1.9-1.5,3.9-2.3,5.8
		c0.2-0.7-0.4-1.2-1-0.6c-0.7,0.7-1,1.8-1.5,2.6c-1,2-2.1,4.1-3.4,5.9c-2,3-4.8,6.3-8.6,7.1c-1.5,0.3-3.4,0.5-4.8-0.3
		c-1.5-0.9-2.1-2.7-2.4-4.3c-0.7-4,0.9-8.3,2.7-11.9c1.8-3.5,4.2-6.9,7.5-9.2c1.3-0.9,3.5-2.3,5-1c1.3,1.1,0.7,3.3,0.1,4.6
		c-0.4,0.9-0.9,1.6-1.4,2.3c-0.5,0.6-1.4,1.3-0.4,1.7c1.6,0.7,3.4-1.3,4.2-2.5c1.9-3,1.3-7.2-2.4-8.2c-6.1-1.7-11.7,3-14.9,7.7
		c-3.2,4.7-6.8,12.2-4.6,18c2.1,5.5,9.9,5.8,14.5,3.5c5.7-2.8,8.5-9.2,11-14.7c-0.7,1.7-1.4,3.5-2,5.2c-1.1,3.5-1.3,9.2,3.2,10.2
		c4.7,1.1,8-2.9,10.4-6.3c1.3-2,2.4-4.1,3.5-6.2C435.6,1484.4,437.8,1481,436.7,1480.3C436.3,1480.1,437.1,1480.6,436.7,1480.3z"/>
	<path fill="#D81B60" d="M453.9,1480.3c-1-0.5-2.5,3.6-2.9,4.3c-1.1,2.1-2.2,4.2-3.5,6.1c-1,1.4-2.1,3-3.5,4.1
		c-1.3,1-3.5,1.8-4.8,0.5c-1.9-1.8,0-5.6,0.9-7.5c0.6-1.3,1.1-2.6,1.7-3.9c1.6-3.7,3.2-7.5,4.8-11.2c0.5-1.2,1.8-3.4-0.2-3.8
		c-1.8-0.4-3.9-0.1-5.8,0c-0.1,0-0.2,0-0.3,0c1.2,1.5,1.2,2.8,0.5,4.5c-0.6,1.5-1.2,3-1.8,4.5c-1.1,2.9-2.3,5.8-3.4,8.7
		c-1,2.6-1.7,5.9-0.4,8.6c1.5,2.9,5.2,3.4,7.9,2c3.1-1.6,5.4-5,7.1-8C450.9,1488.2,455.2,1481.1,453.9,1480.3
		C453.5,1480.1,454.3,1480.6,453.9,1480.3z"/>
	<path fill="#D81B60" d="M442.1,1465.2c4.3,0,6.1-7.1,1.1-7.1c-2,0-3.8,1.6-4.2,3.5C438.9,1463.5,440.2,1465.2,442.1,1465.2z"/>
	<path fill="#D81B60" d="M451.6,1465.2c4.3,0,6.1-7.1,1.1-7.1c-2,0-3.8,1.6-4.2,3.5C448.4,1463.5,449.7,1465.2,451.6,1465.2z"/>
</g>
</svg>
