<?xml version="1.0" encoding="utf-8"?>
<!-- Generator: Adobe Illustrator 18.0.0, SVG Export Plug-In . SVG Version: 6.00 Build 0)  -->
<!DOCTYPE svg PUBLIC "-//W3C//DTD SVG 1.1//EN" "http://www.w3.org/Graphics/SVG/1.1/DTD/svg11.dtd">
<svg version="1.1" id="Layer_1" xmlns="http://www.w3.org/2000/svg" xmlns:xlink="http://www.w3.org/1999/xlink" x="0px" y="0px"
	 viewBox="0 1080 3140 1080" enable-background="new 0 1080 3140 1080" xml:space="preserve">
<g>
	<path fill="#D81B60" d="M1266.4,1406.3c-29.4-31.9-75-47.6-115.8-58.5c5.3-10.7,19-13.9,25.8-23c7.9-10.5-17.5-1-19.7,0
		c-5.9,2.8-11.5,6.2-16.9,9.9c-2.8,1.9-5.5,4-8.2,6.1c-3.6,2.9-4.9,1.7-9.3,0.8c-14.7-3-29.6-5.3-44.5-7.1
		c-61.5-7.4-124-5.6-185.3,3.1c-54.5,8.1-109.3,26.4-152.2,61.9c-39.3,32.5-75.8,91.6-47.5,142.3c27.5,49.4,96.8,61,141.8,29.5
		c10.4-7.3,19.5-16.6,26.4-27.2c6.1-9.3,13.3-23.5,13-34.9c0-4.8-2.9-9.7-8.4-8.1c-5.1,1.5-3.6,4.4-4.3,8.5
		c-2,12-9.4,23.8-17.3,32.8c-16.6,19-42,33.2-67.8,31.9c-25.3-1.3-52.1-12.7-61.8-37.6c-10.2-26,0.6-55.7,14.8-77.9
		c14.6-22.8,35.4-41.4,58-56.1c47.5-31,102.6-43.5,158.3-50c55.9-6.6,113.5-5.7,169.1,3.5c-19.2,21.9-39.2,43.4-57.3,66.3
		c-37.7,47.7-66.4,102.3-94.8,155.9c-27.5,52-53.4,108.2-92.6,152.5c-4.2,4.7-8.5,9.3-13,13.7c-4,4-13.6-3.4-18.5-5.8
		c-12.3-6.2-24.4-12.8-36.4-19.7c-23.7-13.5-49.1-24.4-76.7-26.5c-24.2-1.8-51.1,3.9-68.7,21.5c-19.3,19.3-20.8,49.9-2.5,70.4
		c18.1,20.2,44.8,26.1,70.8,28.1c29.8,2.3,59.7-2.1,87.5-12.9c12.7-4.9,25-11.1,36.6-18.3c6-3.7,11.9-7.7,17.6-12
		c6.4,2.9,12.9,5.6,19.5,8.2c24.6,9.5,49.9,17.2,75.7,22.6c27.7,5.9,56.6,11.3,85,12.3c30.3,1,60.8-4.3,89.6-13.4
		c53.2-17,114.3-54.7,120-116.1c6.5-69.7-60.5-105.3-117.4-123.6c41.6-1.5,88.5-13.3,119.4-42.8
		C1290.1,1486.7,1296.9,1439.4,1266.4,1406.3C1254.8,1393.7,1278,1418.9,1266.4,1406.3z M789.7,1786.1c-24.8,8.8-57.6,13.9-82.9,4.4
		c-24.5-9.2-41.1-40.6-22.7-63.3c17.6-21.7,49.4-16.2,72.3-7.9c29.5,10.7,57.1,25.2,85.2,38.9C825.9,1770,808.3,1779.5,789.7,1786.1
		C771.1,1792.7,808.3,1779.5,789.7,1786.1z M1248.7,1445.9c-2.7,53.7-67,97.4-116.9,96.9c-14.3-0.1-28.5-1.6-42.8-2.6
		c-10.6-0.7-25.7-3.3-35.5,2c-12.7,6.7,2,15.5,8.7,18c12.8,4.9,25.9,9,39,13.1c48.5,15.5,113.1,35.2,110.9,98.1
		c-1.9,55.2-52.8,96.2-100.9,113.2c-39.8,14.1-79.8,12.1-120.9,5.5c-37.7-6-75-16.4-110.2-31.4c37.4-33.7,65.9-74,92.5-116.4
		c29.5-47.1,57.2-95.3,85.3-143.3c27.1-46.4,54.1-92.7,85.7-136.3C1184.4,1372.3,1251.5,1392.3,1248.7,1445.9
		C1248.1,1457.7,1249.3,1434.1,1248.7,1445.9z"/>
	<path fill="#D81B60" d="M1488,1712c3.8-7.2,7.6-14.4,11.3-21.7c2.4-4.8,9-13.8,7.1-19.5c-2.2-6.6-8.9,1.5-10.3,4
		c-3.4,6.8-6.9,13.5-10.4,20.2c-8.3,16-17.2,31.6-27.6,46.4c-8.1,11.6-18.8,28.3-32.9,33.3c-27.5,9.7-9.8-46.4-6.3-56.1
		c6.3-17.4,14.5-34.2,23.3-50.5c7.4-13.7,15.1-29.5,26.2-40.6c-12.1,2.2-23.7-4.9-35.7-1.5c-10.8,3-16.8,14.2-22.2,23.1
		c-15.2,25.1-27.9,51.6-44.6,75.8c-7.9,11.5-16.3,23.1-26.5,32.7c-8.4,7.8-21.2,18.1-33.5,16.1c-26-4.2-7.3-49.5-1.7-62.6
		c11.1-25.7,26.8-49.3,44.9-70.5c16.4-19.2,39-44.4,65.3-48.9c10.5-1.8,22.2,0.5,29,9.1c2.6,3.3,4.2,11.9,8.2,11.9
		c5.3,0,9.6-4.4,8.7-9.9c-1.7-10.6-17.7-19.4-26.7-22.7c-13.6-5-29-5-43.1-2c-67.1,14-118.5,86.6-124,152.8
		c-2.3,28,9.6,70.4,46.5,57.9c15.7-5.3,28.5-18.5,39.1-30.7c11.9-13.6,22.3-28.8,31.6-44.3c-7.4,26-12.7,80.9,30,77.4
		c17.6-1.6,31.4-16.8,41.9-29.6C1468.4,1746.5,1478.8,1729.3,1488,1712C1494.6,1699.6,1481.4,1724.4,1488,1712z"/>
	<path fill="#D81B60" d="M1725.9,1665.5c-6.1-4.6-16.7,24-18.9,28.2c-7,13.6-14.1,27.3-22.5,40c-12.3,18.6-31.8,41.8-56.7,39
		c-24.1-2.7-36.7-26.1-41.2-47.6c-5.6-26.9-2.1-54.3,5.7-80.3c1.1-3.6,2.2-7.2,3.5-10.8c2.8-2.2,5.7-4.3,8.7-6.4
		c5.4-3.7,10.9-7,16.8-9.8c11.4-5.5,24.8-10.1,37.6-8.9c5.4,0.5,10.9,2.4,14.5,6.7c1.6,1.8,2.5,4,2.8,6.4c3.1,0.8,6.4,1.1,9.6,0.5
		c15.1-2.8,21.3-19.4,16.8-32.9c-11.9-20.8-49.5-7.2-65,0.5c-25.9,13-48.6,34.4-67.9,55.7c-8.2,9-16.1,18.3-23.7,27.8
		c8.3-16.6,17.6-32.8,27.7-48.4c7.9-12.3,17.3-29.5,30.5-36.8c-10.6,1.9-20.6-3.4-31.3-2.2c-8.8,0.9-15.4,5.4-20.7,12.2
		c-13.7,17.3-23.1,38.7-33.1,58.3c-22.8,44.6-43.1,90.4-65.5,135.2c11-6.8,25.5,0.1,36.7-5.5c9.7-4.8,13.7-23.6,17.7-33
		c11.4-26.5,24.7-49.6,42.3-72.6c-5.1,23.7-3.7,57.6,9.3,78.6c16.7,27,46.5,36.9,77.1,29.4c26.2-6.4,45.2-31.7,58.9-53.2
		c7-10.9,13.1-22.3,18.9-33.9C1717.3,1695.6,1733.4,1671.1,1725.9,1665.5z"/>
	<path fill="#D81B60" d="M1935,1712c3.8-7.2,7.6-14.4,11.3-21.7c2.4-4.8,9-13.8,7.1-19.5c-2.2-6.6-8.9,1.5-10.3,4
		c-3.4,6.8-6.9,13.5-10.4,20.2c-8.3,16-17.2,31.6-27.6,46.4c-8.1,11.6-18.8,28.3-32.9,33.3c-27.5,9.7-9.8-46.4-6.3-56.1
		c6.3-17.4,14.5-34.2,23.3-50.5c7.4-13.7,15.1-29.5,26.2-40.6c-12.1,2.2-23.7-4.9-35.7-1.5c-10.8,3-16.8,14.2-22.2,23.1
		c-15.2,25.1-27.9,51.6-44.6,75.8c-7.9,11.5-16.3,23.1-26.5,32.7c-8.4,7.8-21.2,18.1-33.5,16.1c-26-4.2-7.3-49.5-1.7-62.6
		c11.1-25.7,26.8-49.3,44.9-70.5c16.4-19.2,39-44.4,65.3-48.9c10.5-1.8,22.2,0.5,29,9.1c2.6,3.3,4.2,11.9,8.2,11.9
		c5.3,0,9.6-4.4,8.7-9.9c-1.7-10.6-17.7-19.4-26.7-22.7c-13.6-5-29-5-43.1-2c-67.1,14-118.5,86.6-124,152.8
		c-2.3,28,9.6,70.4,46.5,57.9c15.7-5.3,28.5-18.5,39.1-30.7c11.9-13.6,22.3-28.8,31.6-44.3c-7.4,26-12.7,80.9,30,77.4
		c17.6-1.6,31.4-16.8,41.9-29.6C1915.4,1746.5,1925.8,1729.3,1935,1712C1941.6,1699.6,1928.4,1724.4,1935,1712z"/>
	<path fill="#D81B60" d="M2172,1668.5c-7.4-3.4-17.5,24.2-19.9,29.1c-7.5,14.9-15.7,29.5-25.2,43.2c-8.4,12.1-18.8,27-32.5,33.5
		c-14.8,7-25.2-1.3-25.4-16.6c-0.4-30.9,19.2-62.3,33.4-88.6c8.1-14.9,16.5-29.6,25.7-43.8c7.6-11.7,16.6-27.6,29.2-34.5
		c-16.7,3.1-33.6-9-48,5.4c-12.4,12.4-19.8,29.9-27.9,45.1c-4.7,8.9-9.4,17.7-14,26.7c-3.6,7.1-6.7,14.7-16,14.3
		c-19-0.7-37.3-19.2-56.8-10.3c8.5-15.9,17.4-31.6,27.2-46.7c7.6-11.7,16.6-27.6,29.2-34.5c-10.6,1.9-20.6-3.4-31.3-2.2
		c-8.8,0.9-15.4,5.4-20.7,12.2c-13.7,17.3-23.1,38.7-33.1,58.3c-22.8,44.6-43.1,90.4-65.5,135.2c15.2-9.5,35.9,4.3,44.7-16
		c7.2-16.7,14.9-33.2,21.9-50c3.5-8.4,7.6-16.4,11.4-24.6c3.9-8.1,7-17.4,17.5-18.1c20.1-1.3,37.4,20.3,57.8,10.5
		c-4.6,10-10.7,20-14,30.4c-4.1,12.8-2.2,26.1,1.7,38.6c7.5,23.8,30.6,33.4,53,22.2c23.1-11.7,39.8-37.4,52.6-59
		C2150.8,1722.1,2181,1672.7,2172,1668.5C2169,1667.1,2175,1669.9,2172,1668.5z"/>
	<path fill="#D81B60" d="M2411.7,1563.8c29.5,0,42.1-49.2,7.8-49.2c-13.8,0-26.4,11.1-28.8,24.6
		C2389.1,1552.3,2398.2,1563.8,2411.7,1563.8z"/>
	<path fill="#D81B60" d="M2459.7,1668.8c-6.6-3.7-17.5,24.9-20,29.5c-7.7,14.4-15.4,29-24.5,42.5c-6.7,10-14.3,21-24.1,28.2
		c-8.9,6.6-24,12.5-33.4,3.4c-13.1-12.6,0.3-39.1,5.9-52.2c3.9-9.1,7.8-18.2,11.7-27.2c11.1-25.9,22.2-51.9,33.3-77.8
		c3.6-8.3,12.3-23.4-1.1-26.1c-12.6-2.5-27.1-0.4-39.9-0.2c-0.7,0-1.4,0-2.1,0c6.4,8.5,9.3,16.7,5.4,26.8c-2.5,6.4-5,12.8-7.5,19.2
		c-5.3,13.4-10.6,26.9-15.8,40.3c1.2-4.9-2.9-8.5-6.8-4.5c-4.6,4.7-7.1,12.5-10.1,18.3c-7.2,14-14.5,28.1-23.3,41.2
		c-14.1,21-33.5,43.6-59.3,49.5c-10.6,2.4-23.4,3.2-33.2-2.4c-10.2-5.9-14.9-18.5-16.9-29.5c-4.9-27.8,6.3-57.8,18.8-82.2
		c12.5-24.3,29.4-47.8,52-63.6c8.7-6.1,24.4-15.7,34.5-7.1c8.8,7.5,4.6,23,0.8,31.9c-2.5,5.9-6.1,11-9.8,16.1
		c-3.2,4.3-9.8,8.8-2.7,11.8c11.4,4.7,23.5-8.8,28.8-17.1c13.2-20.6,8.9-49.6-16.9-56.8c-42.5-11.9-81.4,20.7-103.5,53.4
		c-22.2,32.8-47.3,84.9-32,125c14.7,38.3,68.6,40,100.4,24.3c39.8-19.5,58.7-63.9,76.4-101.9c-4.7,12-10,24-14.1,36.3
		c-7.9,24.2-9.2,63.5,22.4,70.7c32.4,7.4,55.8-19.9,72.1-44c9.3-13.7,16.8-28.2,24-43C2451.8,1696.7,2467.1,1673.1,2459.7,1668.8
		C2456.9,1667.2,2462.5,1670.4,2459.7,1668.8z"/>
	<path fill="#D81B60" d="M2579.1,1668.8c-6.6-3.7-17.5,24.9-20,29.5c-7.7,14.4-15.4,29-24.5,42.5c-6.7,10-14.3,21-24.1,28.2
		c-8.9,6.6-24,12.5-33.4,3.4c-13.1-12.6,0.3-39.1,5.9-52.2c3.9-9.1,7.8-18.2,11.7-27.2c11.1-25.9,22.2-51.9,33.3-77.8
		c3.6-8.3,12.3-23.4-1.1-26.1c-12.6-2.5-27.1-0.4-39.9-0.2c-0.7,0-1.4,0-2.1,0c8,10.6,8.2,19.5,3.7,31c-4.1,10.5-8.2,21-12.3,31.4
		c-7.9,20.1-15.8,40.1-23.6,60.2c-7.1,18-11.7,41.2-2.5,59.3c10.2,20,36.2,23.8,55.1,14.1c21.5-11,37.1-35,49-55.2
		C2558.2,1723,2587.9,1673.8,2579.1,1668.8C2576.3,1667.2,2581.9,1670.4,2579.1,1668.8z"/>
	<path fill="#D81B60" d="M2497.2,1563.8c29.5,0,42.1-49.2,7.8-49.2c-13.8,0-26.4,11.1-28.8,24.6
		C2474.7,1552.3,2483.7,1563.8,2497.2,1563.8z"/>
	<path fill="#D81B60" d="M2563.2,1563.8c29.5,0,42.1-49.2,7.8-49.2c-13.8,0-26.4,11.1-28.8,24.6
		C2540.7,1552.3,2549.7,1563.8,2563.2,1563.8z"/>
</g>
</svg>
