<?xml version="1.0" encoding="utf-8"?>
<!-- Generator: Adobe Illustrator 18.0.0, SVG Export Plug-In . SVG Version: 6.00 Build 0)  -->
<!DOCTYPE svg PUBLIC "-//W3C//DTD SVG 1.1//EN" "http://www.w3.org/Graphics/SVG/1.1/DTD/svg11.dtd" [
	<!ENTITY ns_extend "http://ns.adobe.com/Extensibility/1.0/">
	<!ENTITY ns_ai "http://ns.adobe.com/AdobeIllustrator/10.0/">
	<!ENTITY ns_graphs "http://ns.adobe.com/Graphs/1.0/">
	<!ENTITY ns_vars "http://ns.adobe.com/Variables/1.0/">
	<!ENTITY ns_imrep "http://ns.adobe.com/ImageReplacement/1.0/">
	<!ENTITY ns_sfw "http://ns.adobe.com/SaveForWeb/1.0/">
	<!ENTITY ns_custom "http://ns.adobe.com/GenericCustomNamespace/1.0/">
	<!ENTITY ns_adobe_xpath "http://ns.adobe.com/XPath/1.0/">
]>
<svg version="1.1" id="Layer_1" xmlns:x="&ns_extend;" xmlns:i="&ns_ai;" xmlns:graph="&ns_graphs;"
	 xmlns="http://www.w3.org/2000/svg" xmlns:xlink="http://www.w3.org/1999/xlink" x="0px" y="0px" viewBox="0 140 1573 377"
	 enable-background="new 0 140 1573 377" xml:space="preserve">
<metadata>
	<sfw  xmlns="&ns_sfw;">
		<slices></slices>
		<sliceSourceBounds  height="365.8" width="1566.3" y="289.1" x="2.5" bottomLeftOrigin="true"></sliceSourceBounds>
	</sfw>
</metadata>
<g>
	<path fill="#D81B60" d="M409.9,429.5c-3.6-2.7-11.3,16.8-12.8,19.6c-4.4,8.4-8.8,16.9-14.3,24.7c-8.4,12-22.1,25.7-38.1,20.3
		c-15-5.1-20.2-22.9-21.6-37c-1.4-14.3-0.7-41.8,11.8-50.4c9-6.3,34-20.2,43.1-7.1c2.2,3.1,1.6,4.4,6.5,3.8c4.2-0.5,7.9-3.2,10-6.9
		c4.5-8.1,1.3-17-7.7-19.1c-15.4-3.6-32.9,5.8-44.8,14.7c-16.2,12-29.9,26.8-42.4,42.5c4.8-9.6,10.1-18.9,15.9-28
		c5.1-8,11.2-19.5,19.7-24.2c-11.1,2-21.5-5.7-30.6,4.6c-9.2,10.4-15,24.4-21.3,36.7c-14.1,27.5-26.6,55.7-40.4,83.4
		c5.6-3.5,13.4-1.7,19.7-2.6c8.1-1.2,10.6-14,13.4-20.5c7-16.4,15.2-30.7,26.1-44.9c-3,14-2.1,33.4,4.6,46.3
		c8.7,16.7,25.2,23,43.3,20.7c17.7-2.2,30-16.9,39.3-30.8C393.5,469.2,416.1,434.2,409.9,429.5C408.4,428.4,411.4,430.6,409.9,429.5
		z"/>
	<path fill="#D81B60" d="M697.8,431.4c-4.7-2.2-11,15.7-12.6,18.9c-4.9,9.6-10.1,19-16.5,27.7c-5.1,6.8-11.7,15.1-20.2,17.6
		c-9.1,2.7-13.1-5.8-12.6-13.5c1.2-18.5,11.4-36.7,19.2-53.1c8.6-18.1,16.2-36.7,32-49.6c-13,0-26.5-0.9-39.4,0.3
		c-12,1.1-18.7,9.4-23.7,19.6c-6,12.1-11,24.8-16.5,37.1c-5,11.3-10.6,22.5-17.2,33c-6.4,10.1-15,22.7-27.4,25.4
		c-9.7,2.1-23-0.5-23-13.2c0-5.4,4.7-9.8,3.5-15.5c-1.2-5.2-7.4-6.3-11.5-4c2.8-5.3,5.3-10.8,7.7-16.3c1.4-3.2,4.2-7.5,4.5-11.1
		c0.5-5.8-5.8-1.7-7.1,0.8c-2.6,5.2-5.1,10.4-7.6,15.6c-8.4,17.3-24,49.5-47.7,45.6c-4-0.7-7.7-2.4-10.4-5.5
		c-4.1-4.7,2.5-7.8,5.9-11.6c8.2-9.2,15.3-19.7,20.8-30.7c8.8-18,17.6-49.3,0.5-65.4c-18-16.9-46.1,2.7-59.4,16
		c-17.7,17.7-31.4,41.8-34.3,66.9c-2.6,22.2,8.1,43.6,33.5,38.9c5.7-1.1,11.1-3.5,16.1-6.4c2.7-1.6,5.3-3.3,7.8-5.2
		c1.5,1.7,3.3,3.1,5.1,4.3c8.8,5.8,20.9,6.7,30.5,2.4c11.2-4.9,20-16,26.6-25.9c-1.4,18.8,16.5,30.9,33.3,30.9
		c18.3,0,29.9-16.2,38.7-30.3c10.8-17.5,17.8-36.7,25.9-55.4c6.2-14.5,13.2-34.7,31.7-34.4c-5.2,7.9-8.3,18.1-12.2,26.7
		c-4.4,9.7-8.8,19.3-12.7,29.2c-6.5,16.1-17.6,42.7-3.8,58.2c14.5,16.3,36.3-1.6,46-13.8C675.5,480.2,705,434.7,697.8,431.4
		C696,430.5,699.7,432.2,697.8,431.4z M455.3,459.1c-2.4,4.1-3.5,9.1-3,13.8c0.3,2.9,1.1,5.7,2.1,8.4c1.4,3.7,5,5.8,1.4,8.6
		c-6.7,5.1-20.6,12.9-27.8,4.3c-6.8-8.1-2.6-23.4-0.1-32.4c3.7-13.1,9.4-25.9,16.5-37.5c6.6-10.9,14.9-21.9,25.3-29.3
		c9-6.4,23.6-10.5,27.6,3.3c6.6,22.9-9.7,52.9-22.1,71.1C479.3,457.4,461.8,447.7,455.3,459.1C453.4,462.3,457.1,455.9,455.3,459.1z
		"/>
	<path fill="#D81B60" d="M773.4,483.6c7.3-9.5,12.7-20,17.8-30.9c2.4-5.1,4.8-10.2,7.2-15.3c2.9-5.7-2.2-7-5.4-2.6
		c-5.9,8.3-8.9,19.3-14.2,28.2c-6.3,10.6-14,20.5-23.7,28.2c-7.9,6.2-18.6,10.6-28.8,8.3c-10.9-2.5-13-15.8-12.8-25.1
		c0.1-5.5,1-11,2.4-16.4c0.6-2.2,1.2-4.4,2-6.5c1-2.7,2.3-1.8,4.9-2.1c11.3-1.5,22.8-5.5,32.9-10.8c15.2-8,45.4-35.6,31.8-55.1
		c-14.9-21.3-47.6,1.5-60,13.6c-23.5,23-62.3,102.5-4.7,110C743.1,509.6,761.2,499.3,773.4,483.6C778.8,476.6,768,490.5,773.4,483.6
		z M729.8,427.5c7.2-12.2,16.2-23.5,26.4-33.2c5.4-5.1,24.4-19.7,24.2-3c-0.4,26.8-34.1,51.6-59.2,51.6
		C723.8,437.7,726.8,432.6,729.8,427.5C733.9,420.7,725.8,434.4,729.8,427.5z"/>
	<path fill="#D81B60" d="M934,435.6c0.6-1.5,1.8-7.1-1.8-6.5c-3.4,0.6-5.8,9.2-7.1,11.8c-4.4,8.8-8.9,17.7-14,26.1
		c-7.9,12.9-20.8,30.5-38.1,28.1c-15.8-2.2-23-18.6-25.2-32.5c-1.4-8.7-1.4-17.6-0.2-26.3c1.1-7.8,2.4-23.1,8.9-27.9
		c9.9-7.3,32.6-20.9,44.3-10.3c3.4,3.1,1.7,6,7.7,5.2c4.2-0.5,7.9-3.2,10-6.9c4.5-8.1,1.3-17-7.7-19.1c-15.4-3.6-32.9,5.8-44.8,14.7
		c-16.2,12-29.9,26.8-42.4,42.5c4.8-9.6,10.1-18.9,15.9-28c5.1-8,11.2-19.5,19.7-24.2c-11.1,2-21.5-5.7-30.6,4.6
		c-9.2,10.4-15,24.4-21.3,36.7c-14.1,27.5-26.6,55.7-40.4,83.4c5.6-3.5,13.4-1.7,19.7-2.6c8.1-1.2,10.6-14,13.4-20.5
		c7-16.4,15.2-30.7,26.1-44.9c-6.8,31.7,7.1,70,44.7,67.3C904.4,503.8,922.2,462.4,934,435.6C935.2,432.7,926.6,452.3,934,435.6z"/>
	<path fill="#D81B60" d="M986.5,366.1c10.8,2.7,14.3-8.3,24.6-10.1c12.2-2.1,25.4,2.8,36.9,6.3c12.7,3.8,26.3,7.7,39.4,3.4
		c12.3-4,22.1-12.5,29.2-23.2c0.6-0.6-3.8-1.1-3.9-1.1c-4.1,0-4.1,0-6.7,2.7c-4,4.3-9.1,7.5-14.9,8.5c-12.6,2-25.5-2.9-37.4-6.3
		c-12.1-3.4-25.3-6.4-37.8-3.4c-12.2,2.9-23.4,12.3-30.9,22C985.6,365.4,986,365.8,986.5,366.1C987.5,366.4,985.6,365.9,986.5,366.1
		z"/>
	<path fill="#D81B60" d="M1129.3,431.4c-4.5-2.1-9.4,12.6-10.8,15.5c-4.5,9.1-9.4,17.9-15.1,26.3c-5.2,7.7-11.4,16-19.1,21.5
		c-5.2,3.7-15.5,6.8-17.2-2.3c-3-16.5,9-36.3,15.5-50.7c8.7-19.3,18.9-37.9,29.1-56.3c-8.1-2.7-19.3,3.5-26.4,6.9
		c-9.7,4.7-18.9,10.4-27.6,16.7c-17.2,12.3-31.4,27.6-44.5,44.1c7.6-15.7,17-30.4,24.4-46.2c2.6-5.5,6.6-12.8,1.7-18.3
		c-4.9-5.6-12.5-3.5-18.2-0.6c-13.8,7-25,18.4-36.4,28.6c-12.6,11.2-23.9,23.3-34.4,36.5c6.1-12.7,12.8-25.1,19.9-37.2
		c6.1-10.3,13.6-25.9,24.5-31.9c-11.1,2-21.5-5.7-30.6,4.6c-9.2,10.4-15,24.4-21.2,36.6c-13.9,27.2-26,55.3-39.7,82.7
		c7-4.4,19.5,1.4,24.7-5.7c7.2-9.8,11.9-22,18.4-32.4c11.2-17.8,24.6-33.8,40.3-47.8c3-2.6,13.6-13.8,18.6-11.1
		c5.4,2.9-6.4,24.3-8.1,27.8c-5,10.8-10.9,21.6-14.6,32.9c-3.1,9.5-7.3,23.8,1.4,31.7c1.4,1.3,3.2,2.2,5.1,2.5
		c3.1,0.5,2.4-1.6,3.2-4.1c1.7-5.2,4.1-10.2,6.7-15.1c6.1-11.2,13.1-21.9,20.8-32.1c6.6-8.8,13.8-17.4,21.7-25.1
		c6.8-6.7,15.8-15.7,25.5-17.9c12.4-2.8,0.8,16.3-1.2,19.6c-6,9.9-12.4,20-16.2,31c-6.2,18.1-6.6,45.1,19.2,45.1
		c17.8,0,31.2-17.8,40.1-31.1C1112,471.5,1135.4,434.2,1129.3,431.4C1127.5,430.5,1131.2,432.2,1129.3,431.4z"/>
	<path fill="#D81B60" d="M1259.6,459.7c1.8-3.5,15.3-25.5,10.1-27.9c-4.8-2.2-13.6,20.7-15.4,24.3c-4.5,8.5-30.1,54.4-43.7,37.5
		c-5.5-6.8-2.4-18-0.1-25.5c3.2-10.5,8.1-20.6,12.6-30.6c9.4-20.5,18-43.4,35.8-58c-6.4,0-12.8,0-19.2,0c-14.4,0-17,12.1-22.4,23.2
		c-14.1,28.9-28.4,61.3-51.2,84.6c-6.4,6.6-22.7,17.2-25.1,1.5c-1.9-12.9,4.7-25.7,10.1-36.9c6.6-13.9,13-28,20.3-41.5
		c5.6-11.8,12.4-23.5,23.5-30.9c-9.6,0-29.3-3.5-35.6,5.7c-7.1,10.4-11.9,23.3-17.6,34.5c-2.9,5.6-5.7,11.2-8.5,16.8
		c-1.7,3.4-6.3,10,1,10c-5.5,10.9-12.5,21.4-13.1,34c-0.6,12.8,6.3,23.4,19.6,24.9c25,2.8,43.3-28.3,53.8-46.8
		c-5.7,17-6.8,49.2,19.4,46.9C1235.9,503.4,1250.8,477.1,1259.6,459.7C1263.5,452,1255.7,467.4,1259.6,459.7z"/>
	<path fill="#D81B60" d="M1297.5,432.5c4.1-11,8.9-21.6,14.1-32.1c2.6-5.2,5.4-10.3,8.2-15.4c1.3-2.5,2.7-4.9,4-7.4
		c2.1-4,6.4-4.2,10.6-5.6c22.3-7.5,44.4-16.1,65.2-27.1c41.4-21.8,82.9-59.4,97.2-105.3c3-9.5,5.3-21.7-0.7-30.7
		c-6-9.1-17.6-10.5-27.6-9.9c-24.7,1.3-45.8,16.8-63.2,33.2c-37.2,35.3-64.8,78.5-89.4,123.1c-2.4,4.4-4.8,8.8-7.2,13.2
		c-2.6,4.9-11.5,3.1-16.6,2.2c-9.6-1.6-10.9-6.3-13.2-14.4c-1.1-3.7-6.3-4.6-8.2-1.1c-2.4,4.4-0.1,10.1,2.5,13.8
		c6.8,9.6,18.2,12.3,29.5,10.9c-16.8,32-31.5,65.5-51.1,95.9c-1.8,2.8-3.8,5.6-5.8,8.4c-2.6,3.7,0.5,7.4,3.9,3.8
		c4.4-4.6,7.8-10.3,11-15.7c9.1-15.1,17.3-30.7,25.5-46.2c-8.8,18.2-24.7,45.4-14.6,65.8c10.1,20.3,39.4,15.9,56.5,8.9
		c21.6-8.9,37-29.9,45.9-50.8c8.7-20.6,14.6-50.3-6.2-66c-6.4-4.8-20.1-10.2-27.7-5.3c-4.1,2.6,0.3,6.1,3.5,6.3
		c5.6,0.4,11.1-1,15.9,2.7c18.3,13.9-1.9,49.6-10.1,63.7c-6,10.4-12.8,20.4-20.9,29.3c-5.8,6.5-13.2,14.3-22.2,16.2
		c-23.7,5.1-18.2-31.2-15.3-43.5C1292.6,446.3,1294.9,439.3,1297.5,432.5C1301.4,422.1,1293.5,442.9,1297.5,432.5z M1349.5,334.9
		c19.5-31.2,40.6-62.8,66.1-89.4c12-12.5,26.1-25.6,42.6-31.6c13.6-5,30.7-4.2,29.4,14.1c-1.1,16.4-11.6,32.6-20.8,45.7
		c-10.5,14.9-23.2,28.3-37.2,40.1c-28.1,23.6-62.8,39.9-98,49.9C1337.6,354,1343.5,344.4,1349.5,334.9
		C1356.2,324.1,1342.7,345.7,1349.5,334.9z"/>
	<path fill="#D81B60" d="M1450.7,480.8c-18,0-25.9,30.1-5.1,30.1C1463.4,510.9,1471.5,480.8,1450.7,480.8z"/>
	<path fill="#D81B60" d="M1568.5,291.2c-3.3-24.1-32.7-26-51.3-21.4c-20.3,5-50.1,20.3-52.3,43.8c-2.4,25.8,33.4,27.5,41.6,6.3
		c3.3-8.6,0-19.3-10.1-20.6c-8.9-1.2-22.5,7.4-24.7,16.2c-3-18,27-30.1,40.5-31.4c16.9-1.6,33.8,7.5,29.5,26.8
		c-4.2,18.8-22.2,35.1-34.2,49.3c-14.3,17-28,34.6-39.1,53.8c-5.1,8.8-9.5,18-12.2,27.8c-0.8,3-1.5,8.5,3.6,7.7
		c3.8-0.5,5.9-10.5,7.2-13.5c8.2-18.1,20.5-34,34-48.4c15.1-16.1,31.6-30.6,46-47.4C1558.1,327.2,1571,309.3,1568.5,291.2
		C1567.7,284.8,1569.4,297.5,1568.5,291.2z"/>
</g>
<g>
	<path fill="#5D4037" d="M212.2,229.8c8.7,0,12.4-14.5,2.3-14.5C205.8,215.3,202.2,229.8,212.2,229.8z"/>
	<path fill="#5D4037" d="M396.6,243.6c-1.4-2.9-17.2-15.3-19-7.4c-0.6,2.7,8.6,2.2,10.1,3.4c3.6,2.7,3.4,8.1,2.7,12.1
		c-1.7,9.9-18.5,46.8-32.9,39.7c-8.4-4.2-2.7-21-0.6-27.3c3.7-10.7,9-20.6,14.3-30.6c19.9-6.4,39.9-14.4,56-28.2
		c8-6.8,15-14.9,20.4-23.9c4.2-7,11.3-20.2,5.4-28.1c-5.1-6.8-16.7-4.7-23.3-2.1c-10.3,4.1-19,12.1-26.3,20.2
		c-15.8,17.5-28,36.7-39.2,57.4c-2.1,4-8,3.7-12,1.5c-2.8-1.5-2.2-6.9-4.8-7.5c-5-1.1-1.5,7.3-0.3,8.6c3.3,4,8.5,4.8,13.4,4.3
		c-9.1,17.4-16.6,38.5-30.3,52.9c-10.1,10.6-8.7-5.7-6.7-11.6c3.1-9.4,8.1-21.6,15.2-28.7c-7.8,1.4-11.3-2.8-16.6,5.6
		c-5.7,9.1-10.2,18.8-16.7,27.4c-2.4,3.2-15.7,16.9-18.1,6.2c-1.8-8.2,4.4-18.4,8.7-25.1c4.8-7.6,10.8-15,18-20.3
		c3.2-2.4,6.9-4.6,11.1-4.5c4,0.1,8.1,6.9,9.9,6.1c4.2-1.9-1.5-6.6-3.2-7.7c-3.3-2.2-7.4-2.9-11.3-2.8c-9.9,0.3-20.2,6-26.4,13.7
		c-6.1,7.3-9.2,15.1-13.5,23.4c-3.9,7.4-8.8,17.4-17.4,20.3c-21.5,7.2-17.5-30.3-14-40.3c5-3.9,15.1-10.4,21.6-6.4
		c2.8,1.8,3.1,4.9,7.3,2c2.9-2,4.4-7.6,1.2-10.1c-7.1-5.6-19.7,2.1-25.3,6.4c-7.4,5.7-13.7,12.5-19.5,19.8
		c3.8-7.5,9.4-20.7,17.1-25.1c-3.4,0.6-6.6-1.2-10-0.5c-4.3,0.8-6.6,5.1-8.6,8.6c-5.2,9.1-9.3,18.6-14.3,27.7
		c-3.6,6.5-8.8,18.1-17.1,19.6c-10.4,1.9-5.5-11.9-3.5-16.6c4-9.3,7.9-18.5,11.9-27.8c1-2.4,3.8-7,3.1-9.6
		c-0.8-2.9-12.2-1.4-14.4-1.3c5.7,7.6-4.5,24.1-8.4,31.6c-5.1,9.7-11.5,20-19.9,27.2c-8.2,7-19.6,9.1-19.9-4.8
		c-0.5-25.7,18.4-45,28.3-67c1.6-3.6,4-9.6,0.6-12.9c-3.1-2.9-6.8,1.3-8.8,3.8c-6.9,8.8-11,20.4-16.1,30.4
		c-9.1,18-20.7,44.1-40.9,52.1c-11.5,4.6-15.5-6.3-15.2-15.8c0.4-12,5.4-24.2,10-35.2c9.2-21.8,22.3-43.2,23.5-67.4
		c1.3-25.8-20.9-36.8-44-33.4c-42,6.1-94.7,50.6-84,97.4c5.6,24.5,29.2,33.8,51.1,23.4c16.9-8,37.7-33.2,28.6-53.2
		c-4.4-9.5-16.8-8.8-24.4-3.9c-6.1,3.9,4.1,1.7,5.4,1.5c5-0.8,10.3-0.2,13.4,4.3c5.9,8.4-0.1,21.5-4.6,29.1
		c-6.5,11.1-16.4,19.4-29.3,21.5c-24.5,4-36.4-20.1-33.8-41.2c3-23.9,19.7-44.3,39-57.5c17.3-11.8,46.3-25.2,66.5-12.9
		c9.8,6,6.8,22.8,5.1,32c-2.3,12-7.2,22.9-12,34.1c-4.9,11.5-10.3,22.8-14.6,34.6c-3.9,10.8-8.3,23.3-5.3,34.9
		c7.7,29.7,40.9,2.9,50.9-9.8c-1.9,13.1,1.4,30.9,18.6,26.9c-6.3,5.5-22.5,20.5-16.8,30.3c4.7,8.1,27-0.5,23.8-7.3
		c0.1,0.1-10.5,7-13.9,4.7c-6.4-4.2,2.4-16.2,5.2-19.7c4.7-5.9,10-10.6,15.7-15.4c6.2-5.3,10.5-12.2,14.6-19.1
		c-2.4,16.2,13.4,19.9,23.5,9.5c-1.1,2.3-2.3,4.6-3.4,6.9c3-1.8,7-0.6,10.2-1.4c3.1-0.8,4.3-6.5,5.4-9c3.5-8.1,7.4-15.2,12.8-22.2
		c-2.3,10.8,0.1,26.7,11.7,31.1c14.3,5.5,25.2-5.3,32-16.6c-0.7,8.4,2.9,21.3,14.1,17.1c9.1-3.4,15.6-14,20.4-21.9
		c-1.6,5.6-3.1,13.1,0.2,18.4c3.9,6.4,11.7,4.7,16.5,0.4c10.1-9.2,15.8-22.8,22.1-34.7c-4.1,8.5-11.1,20.6-7.5,30.3
		c3.6,9.9,15.9,9.1,24.1,6.8C387.3,290.4,405.4,261.7,396.6,243.6C395.5,241.3,397.7,245.9,396.6,243.6z M383,214.3
		c9.2-14.7,19.1-29.6,31.1-42.2c4.3-4.6,34-29.6,35.3-11c1,15.2-15.4,32.1-25.8,41.2c-13.9,12.3-31.3,20.7-49.1,25.8
		C377.3,223.4,380.2,218.8,383,214.3C386.3,209.1,379.8,219.4,383,214.3z"/>
	<path fill="#5D4037" d="M493.9,229.3c5,1.3,6.3-3.4,10.7-4.6c7-1.9,15.1,1.8,21.8,3.6c12.1,3.4,22.8,0.4,30-10.3
		c0.4-0.4-3.5-0.4-3.4-0.4c-1.7,0.2-3.9,3.3-5.6,4.2c-5.9,3.1-13.9,0.2-19.8-1.6c-6-1.8-12.5-3.4-18.7-2.2
		C505.6,218.6,492.2,228.8,493.9,229.3C494.4,229.4,493.4,229.1,493.9,229.3z"/>
	<path fill="#5D4037" d="M611.6,260.5c-0.2-0.1-10.2,13.8-12.9,15.2c-3.1,1.7-6.8,1.9-10.1,0.6c-4-1.7-1.5-6.5-3.1-10.2
		c-1.5-3.4-4.6-6.8-8.7-5.6c-7.6,2.3-2.2,11.3,1.5,14.3c8.6,6.9-23.6,31.7-16.7,6.5c2.3-8.2,6.9-15.9,11-23.3
		c3.4-6.2,8-16.8,14.5-20.4c-4.9,0.9-9.8-2.7-14.1,1.6c-3.8,3.8-6.1,9.4-8.6,14.1c-6.1,11.5-10.8,24.1-19.7,33.9
		c-2.2,2.4-8.7,8.7-11.7,3.8c-2.4-3.9,0.9-11.1,2.3-14.8c5.1-13.1,11.9-25.6,18.7-37.9c-7.2-2.4-19.3,6.7-24.8,10.5
		c-8.7,6.1-15.9,13.7-22.5,22c3.3-6.8,7.3-13.3,10.7-20.1c1.3-2.7,3.7-6.3,2.7-9.4c-1.3-3.8-5.6-3.6-8.6-2.3
		c-13.6,6.2-25.9,20.2-35,31.8c2.9-6.1,6.1-12.1,9.6-17.9c2.9-4.9,6.5-12.5,11.8-15.3c-4.9,0.9-9.8-2.7-14.1,1.6
		c-4.6,4.6-7.3,11.4-10.1,17c-5.7,11.1-10.4,24.4-20.1,32.7c-4.1,3.6-10.3,3.8-10.4-3c-0.1-6.1,2.7-12.1,5.1-17.5
		c5-11.3,9.7-25,19.5-33c-3.1,0-6.1,0-9.2,0c-6.6,0-7.9,5.2-10.4,10.4c-6.6,13.4-13.2,28-23.1,39.4c-2.3,2.7-10.9,11.3-13.5,4.2
		c-2.4-6.6,2.3-14.5,5-20.3c5.1-10.9,10-26.7,20.5-33.7c-5.1,0-14.9-1.9-17.6,3.7c-2.7,5.7-5.7,11.3-8.6,16.8
		c-0.9,1.8-7.6,11.6-2.9,11.6c-3.8,7.6-12.8,25.8,2,28.1c12.7,2,21.6-13,26.9-22.3c-2,5.9-3.5,14.9,1.4,19.9
		c6,6.2,14.9,0.8,19.5-4.1c-1.3,2.6-2.5,5.2-3.8,7.8c3.3-2.1,8.8,0.5,11.5-2.3c4.1-4.2,6.4-11.6,9.6-16.6c6.1-9.7,13.8-19,23.2-25.8
		c3.7-2.7,6.2-2.3,4.5,2.8c-2.1,6.4-5.4,12.4-8.2,18.5c-2.3,5-5.5,12-4,17.6c0.5,1.9,1.7,3.9,3.7,4.6c2.9,1.1,3.3-4.2,4.3-6.3
		c5.4-11.2,13.3-22.2,22.4-30.7c3.2-2.9,7.3-7.2,11.8-7.9c6.2-1.1-1.2,10-2,11.4c-4.7,7.9-12.9,21.4-6.5,30.5
		c7.9,11.2,21.5-1.2,26.6-8.4c-0.1,6.6,4.5,11.6,10.9,12.6c8.1,1.2,15.6-5.5,19.8-11.7c1.7-2.6,2.1-7,5.2-6
		c4.1,1.3,8.5,1.4,12.4-0.4C601.8,277.9,616.5,262.9,611.6,260.5C610.6,260,612.5,261,611.6,260.5z"/>
	<path fill="#5D4037" d="M845.8,213.6c7.1,7.5,20.6,6.1,28.6,1.1c4.2-2.7,7.6-6.5,9.6-11.1c1.2-4.7-6.8,3.4-7,3.6
		c-5.6,6.3-17.4,7.8-24.3,2.7c-2-1.4-5.1-9.7-7.6-8C841.6,204.1,843.4,211.1,845.8,213.6C846.9,214.7,844.6,212.4,845.8,213.6z"/>
	<path fill="#5D4037" d="M1036.9,229.3c5,1.3,6.3-3.4,10.7-4.6c7-1.9,15.1,1.8,21.8,3.6c12.1,3.4,22.8,0.4,30-10.3
		c0.4-0.4-3.5-0.4-3.4-0.4c-1.7,0.2-3.9,3.3-5.6,4.2c-5.9,3.1-13.9,0.2-19.8-1.6c-6-1.8-12.5-3.4-18.7-2.2
		C1048.6,218.6,1035.2,228.8,1036.9,229.3C1037.4,229.4,1036.4,229.1,1036.9,229.3z"/>
	<path fill="#5D4037" d="M1181.7,229.8c8.7,0,12.4-14.5,2.3-14.5C1175.4,215.3,1171.8,229.8,1181.7,229.8z"/>
	<path fill="#5D4037" d="M1259.1,260.6c-1.7-0.8-12.7,20.7-14.7,23.2c-4.4,5.7-16.6,12.9-15-0.1c1.1-9,5.8-17.6,9.7-25.6
		c4-8.3,7.5-16.6,14.7-22.5c-3.1,0-6.1,0-9.2,0c-6.6,0-7.9,5.2-10.4,10.4c-6.6,13.4-13.2,28-23.1,39.4c-2.3,2.7-10.9,11.3-13.5,4.2
		c-2.4-6.6,2.3-14.5,5-20.3c5.1-10.9,10-26.7,20.5-33.7c-4.4,0-10.8-1.1-14.9,0.8c-3.7,1.7-5.6,8.7-7.3,12.1
		c-2.4,4.6-5.4,9.2-7.4,13.9c-4.6,9.2-9.2,19.3-16.6,26.6c-2.6,2.6-8.6,5.5-11.5,1.6c-2.5-3.5-0.3-8.9,1.1-12.4
		c5.1-8.4,8-18.9,11.9-27.9c1.3-3.1,3.9-7.2,4.2-10.7c0.4-4.3-11.9-2.6-14.5-2.5c4.6,6.1-0.9,14.2-3.3,20.4
		c-3.8,9.6-7.8,18.9-14.3,27.1c-2.3,2.9-9.2,11.3-13.7,6.6c-3.7-3.8,0.1-12.7,1.7-16.6c2.7-6.6,6.3-13,9.8-19.2
		c3.2-5.6,7.3-14.6,13.2-17.8c-4.9,0.9-9.8-2.7-14.1,1.6c-3.8,3.8-6.1,9.4-8.6,14.1c-1.5,2.9-3.5,10.4-7.3,11.2
		c-6.1,1.3-11.5-5.8-17.8-2.9c3.9-7.2,9-19.8,16.6-23.9c-4.9,0.9-9.8-2.7-14.1,1.6c-3.8,3.8-6.1,9.3-8.6,14
		c-6.1,11.5-11,24.2-19.9,33.9c-2.2,2.4-8.7,8.7-11.7,3.8c-2.4-3.9,0.9-11.1,2.3-14.8c5.1-13.1,11.9-25.6,18.7-37.9
		c-7.2-2.4-19.3,6.7-24.8,10.5c-8.7,6.1-15.9,13.7-22.5,22c3.3-6.8,7.3-13.3,10.7-20.1c1.3-2.7,3.7-6.3,2.7-9.4
		c-1.3-3.8-5.6-3.6-8.6-2.3c-13.6,6.2-25.9,20.2-35,31.8c2.9-6.1,6.1-12.1,9.6-17.9c2.9-4.9,6.5-12.5,11.8-15.3
		c-6.6,1.2-11.4-2.7-16.2,4.2c-4.8,6.8-8.1,14.8-12.1,22.1c-8.9,16.3-17.1,29.6-35.7,35.4c4.3-11.6,8-23.5,12.2-35.1
		c3.6-10,6.6-22.2,15.7-28.7c-3.1,0-6.1,0-9.2,0c-6.7,0-7.9,5.3-10.5,10.4c-6.6,13-13.7,26.3-23,37.6c-2.2,2.7-9.9,12.2-14.1,7.5
		c-4-4.4,0.2-13.6,2.2-17.9c6.1-13,11.4-28.1,22.4-37.6c-9.4,0-15.1-1.4-19.8,8c-5.7,11.4-11,23.4-17.5,34.3
		c-3.2,5.3-7.8,12.8-14.4,14.3c-2.6,0.6-5.7,0.2-8-1.4c-4-2.8-1-4.1,1.5-6.8c9.9-11,16.6-25.6,13.9-40.5
		c-2.4-13.3-6.2-25.8-10.8-38.6c-3.9-11-9.3-23.8-6.3-35.6c4.1-16,18-11.7,30-7.4c15.7,5.6,29.1,1.6,39-11.9
		c0.4-0.4-4.4-0.8-4.5-0.8c-2.2,0.2-4.8,4.4-7,5.5c-5.6,2.9-13,1.5-18.8-0.3c-11.8-3.7-27.6-9.4-38.6-0.3
		c-11.4,9.5-7.2,27.7-2.8,39.5c5.2,14,10.8,28.1,13.9,42.7c-11.5-6-24.8,6.5-31.2,14.7c-8.7,11.3-12.4,26.1-22.6,36.3
		c-3.1,3.1-10.3,7.5-11.8,0.4c-1.2-5.5,1.8-11.9,3.8-16.8c5.1-12,10.2-26.9,20.6-35.4c-3.1,0-6.1,0-9.2,0c-6.6,0-7.9,5.2-10.4,10.4
		c-6.6,13.4-13.2,28-23.1,39.4c-2.3,2.7-10.9,11.3-13.5,4.2c-2.4-6.6,2.3-14.5,5-20.3c5.1-10.9,10-26.7,20.5-33.7
		c-7.3,0-14.9-1.8-18.7,5.8c-5.6,11.4-11.2,23-17.7,33.9c-3.1,5.3-6.8,11.7-11.9,15.4c-5.9,4.3-6.9-1.8-6.2-6.4
		c1.6-11.5,8.6-27.5,16.9-35.8c-4.9,0.9-10.2-2.9-14,1.9c-4.5,5.7-7.5,12.7-11.2,18.9c-3.9,6.6-8.1,13.7-14.1,18.6
		c-6.2,5.1-13.4,4.2-12-5.3c1.8-12.9,11.5-25.9,20.5-34.9c4.4-4.5,10.6-10.2,17.3-10c3,0.1,5.6,1.4,7,4.1c2.6,4.7,5.7,0,2.8-2.9
		c-10.1-11-28.3-4-37.6,4.5c-11.5,10.6-14.7,25.8-23.3,38.3c-2.3,3.3-9.5,13.1-14.5,9.2c-4.9-3.8-0.9-13.2,0.9-17.6
		c5.1-12.7,10.7-28.9,21.5-37.7c-7.2,0-17.7-2.1-23.1,3.4c-4.7,4.3-7.1,11.9-9.5,17.6c-3.2,7.4-6.3,15-10.4,22
		c-2.8,4.9-8,14.2-14.8,13.2c-6.8-1.2-3.2-12.2-1.8-16.1c5-13.3,11.2-30.8,22.4-40c-4.9,0-9.8-0.2-14.7,0.1
		c-10.9,0.6-14,12.6-17.7,21.1c-4.2,9.7-8.4,20.2-15.4,28.3c-3.6,4.1-7.2,6.2-12.7,6.5c-3.6,0-7.4-3.6-7-7.4c0.3-2.8,4.2-8.3-1-9.4
		c-4.7-1-7,5.4-6.3,8.9c2.2,11,14.9,16.2,24.2,9.9c8.9-6,14-18.4,18.1-27.9c3.1-7.1,7.3-25.1,16.3-26.9
		c-6.2,10.3-11.2,23.4-14.8,34.8c-3.2,9.7-1.9,26.2,12.7,22.1c11.3-3.2,17.3-17.5,21.6-27.1c3.4-7.5,8-28,17.7-29.8
		c-3.8,6.3-6.5,13.9-9.4,20.7c-3.2,7.3-7.2,15.6-7.2,23.7c0,7.4,3.7,14.4,12.2,12.8c8-1.5,13.7-9.9,17.7-16.4
		c-0.5,8.3,3.4,20.3,14.1,16.2c9.1-3.4,15.6-14,20.4-21.9c-2.1,7.5-3.9,20.8,6.6,22.6c10.2,1.8,18.4-13.2,22.4-20.3
		c-3.4,8-2.6,18.9,7.9,19.9c11.7,1,20.4-13.9,25.3-22.5c-2.3,6.8-3.9,19.6,5.3,22.2c10.9,3.1,19.5-10.4,24-18.2
		c-2,16.6,11.2,23.8,25,15c4.2-2.6,4.5,1,9,2.2c2.9,0.8,6.2,0.8,9.1-0.1c6.6-2,11.5-8.6,15-14.1c-2.8,11.9,7.7,19.5,18.3,13.5
		c11.2-6.3,17.6-19.7,23.6-30.4c-2.7,9.1-5.7,18.2-9.3,27.1c-1.9,4.6-3.6,12-8.6,13.4c-5.6,1.5-11.1,2.9-16.7,4.3
		c-10.7,2.6-21.6,5.6-30.8,12c-7.3,5.1-16.7,17.7-9.5,26.6c5.6,6.9,17.5,5.8,25,3.6c10.4-3,19.1-10.5,26.1-18.6
		c3.8-4.4,7-9.1,10.1-13.9c2.9-4.5,5.5-12.1,10.5-13.9c9-3.4,17.8-7.6,24.3-14.8c-1.3,2.6-2.6,5.3-3.9,7.9c3.3-2.1,8.8,0.5,11.5-2.3
		c4.1-4.2,6.4-11.6,9.6-16.6c5.9-9.3,13.1-17.7,21.6-24.6c12.4-10,2.2,10.6,0.1,15.3c-2.7,5.8-5.3,11.3-6.3,17.7
		c-0.6,3.6,4.2,14,6.2,7.7c3.9-11.9,12.8-23.1,21.2-32.2c3.3-3.6,7.1-7.3,11.4-9.7c5.6-3.1,7.3,0.4,4.2,5.5
		c-5.1,8.3-12.2,18.4-11.3,28.7c1.4,15.4,17.8,10.5,25,2.5c-1.4,2.8-2.8,5.7-4.2,8.5c5.7-3.6,10.4,1.5,13.8-6.2
		c2.2-5.1,4.4-10.1,6.6-15.2c1.6-3.6,3.4-11.1,8.5-10.6c5.5,0.3,10.5,5.8,16.1,3.1c-3.7,8.1-8.9,21.3,1.6,27.2
		c9.7,5.5,19.4-7.6,23.9-14.5c-0.9,7.9,2.9,15,11.5,15c10,0,17.1-11.7,21.3-19.3c-3.2,8-1.8,18.2,8.3,19.1
		c11.7,1,20.4-13.9,25.3-22.5c-3.4,10.3-0.3,29.5,15,20.7C1242,291.9,1264.4,263.1,1259.1,260.6C1258.2,260.2,1260,261,1259.1,260.6
		z M904,274.2c-1.3,2.2-1.7,4.8-1.3,7.3c0.6,3.7,4.1,5.8,0.5,8.2c-3.2,2.2-9.5,5.2-12.5,1c-6.3-8.6,4.2-27.3,8.8-34.5
		c3-4.7,19.2-24.7,24.3-12.4c4.5,10.8-4.4,26.6-10.2,35.2C915.5,273.5,907.1,268.8,904,274.2C903.1,275.8,904.9,272.7,904,274.2z
		 M959.4,312.4c-5.6,9.7-14,18.6-22.6,25.7c-5.1,4.2-23.5,17.5-29,7c-6-11.4,11-23,19.5-26.3c11-4.3,22.7-7,34.1-9.9
		C960.7,310.1,960,311.3,959.4,312.4C958.7,313.6,960,311.3,959.4,312.4z M1194,267.9C1194.1,267.8,1194.2,267.5,1194,267.9
		C1194,267.8,1194,267.8,1194,267.9z"/>
	<path fill="#5D4037" d="M1218.3,213.6c7.1,7.5,20.6,6.1,28.6,1.1c4.2-2.7,7.6-6.5,9.6-11.1c1.2-4.7-6.8,3.4-7,3.6
		c-5.6,6.3-17.4,7.8-24.3,2.7c-2-1.4-5.1-9.7-7.6-8C1214.2,204.1,1216,211.1,1218.3,213.6C1219.5,214.7,1217.2,212.4,1218.3,213.6z"
		/>
</g>
</svg>
