<?xml version="1.0" encoding="utf-8"?>
<!-- Generator: Adobe Illustrator 18.0.0, SVG Export Plug-In . SVG Version: 6.00 Build 0)  -->
<!DOCTYPE svg PUBLIC "-//W3C//DTD SVG 1.1//EN" "http://www.w3.org/Graphics/SVG/1.1/DTD/svg11.dtd">
<svg version="1.1" id="Layer_1" xmlns="http://www.w3.org/2000/svg" xmlns:xlink="http://www.w3.org/1999/xlink" x="0px" y="0px"
	 viewBox="-285.8 0 2491.7 1080" enable-background="new -285.8 0 2491.7 1080" xml:space="preserve">
<g>
	<path fill="#D81B60" d="M309.6,344.1c-1.5,4.2-2.9,8.3-3.3,9.5C306.6,352.7,307.6,349.9,309.6,344.1c1.7-5,2.7-7.8,3.2-9.1
		C312.2,336.7,310.9,340.4,309.6,344.1c9.7-27.7,21-54.8,34.6-80.7c1.5-2.9,3.1-5.8,4.6-8.6c2.2-4.1,4.2-3.1,8.6-3.6
		c6.3-0.8,12.6-1.9,18.7-3.4c10.8-2.7,21.1-6.7,30-13.6c8.4-6.5,17.1-15.6,15.8-27.1c-1.3-12.5-14.1-18.9-25.5-18.1
		c-26.1,2-41.5,29.5-54.8,48.6c-2.2,3.2-14,2.3-17.8,2.6c-7.3,0.6-14.5,1.1-21.8,1.6c-15.8,1.1-31.6,2.1-47.4,3.3
		c-31.1,2.3-62.2,5.7-92.8,11.9c-51.6,10.3-101.5,29.6-137.6,69.4C-12.3,366.5-25.1,430,10.3,475.2c34.9,44.6,102.5,42.9,138.2,0.3
		c17.3-20.6,28.1-49.4,24.8-76.5c-0.3-2.4-7.3-31.8-14.6-23.8c-2.1,2.3,1,13.5,1.1,16.6c0.4,8.3-0.1,16.7-1.3,25
		c-3.8,25.8-16.3,55-39.6,69c-21.4,12.9-50.1,14.9-70.2-1.2c-28.2-22.6-28-66.3-17.3-97.6c11.8-34.8,37.4-64.6,68.1-84.3
		c68-43.7,155.7-40.2,232.9-49.6c-52.6,99.5-86.6,209.3-146.2,305.1c-30.8,49.5-70.5,92.7-118,126.5c-44.3,31.5-100.1,54.9-155,57
		c-54.8,2-118.8-15.6-153.4-61c-33.3-43.7-31.2-106.6,0.5-150.3c7.5-10.4,16.5-19.9,26.7-27.7c3.5-2.7,9.1-4.8,12.1-8
		c5-5.4-2-7.7-6.2-7c-23.8,2.4-47.4,29.2-59,48.2c-14.5,23.7-18.1,56.3-15.7,83.5c2.4,26.5,11.8,52.5,27.5,74.1
		c32.4,44.8,89.4,69.5,142.8,77c57,8,117.7-1.2,169.9-25.5c107.4-50,161.4-159,201.9-264C277.9,435.9,293.6,389.9,309.6,344.1z
		 M372.3,224.1c1.7-2,1.4-1.6,0.6-0.8c5.3-6.2,11.8-13.6,19.5-16.5c7.3-2.7,13.3,2.3,9.8,9.7c-6.7,14.5-27,18.5-41.1,20.4
		C365,232.7,368.7,228.4,372.3,224.1z M312.8,335c0.1-0.2,0.1-0.4,0.2-0.5C313,334.6,312.9,334.8,312.8,335z M313,334.4
		c0-0.1,0.1-0.1,0.1-0.2C313.1,334.3,313,334.4,313,334.4z M306.2,353.7c0,0.1,0,0.1-0.1,0.2C306.2,353.9,306.2,353.8,306.2,353.7z"
		/>
	<path fill="#D81B60" d="M309.6,344.1C309.6,344.1,309.6,344.1,309.6,344.1C309.6,344.1,309.6,344.1,309.6,344.1
		C309.6,344.1,309.6,344.1,309.6,344.1z"/>
	<path fill="#D81B60" d="M373,223.3c-0.2,0.3-0.4,0.5-0.6,0.8C369.8,227.1,371.9,224.6,373,223.3z"/>
	<path fill="#D81B60" d="M570.6,684C571.8,684.4,569.4,683.6,570.6,684L570.6,684z"/>
	<path fill="#D81B60" d="M570.6,684c-5.1-1.7-8.9,8.4-10.6,11.3c-3.2,5.7-7,11.1-11.3,16c-9.4,10.7-21.2,19.4-33.9,25.9
		c-25,12.8-55.4,19.7-83.5,18c-54.2-3.4-85.3-55.5-104.3-100.3c-11.5-27.2-20.5-55.5-27.2-84.3c-2.8-11.9-5.2-24-6.8-36.1
		c-0.7-5.2-1.5-10.6-1.1-15.8c0.4-5,6.3-4.4,10.4-5.7c55.2-16.6,106.1-49.6,152.6-83c50-35.9,96.9-76.1,139.4-120.7
		c21.4-22.5,41.8-46.1,60.7-70.8c9-11.8,17.6-23.8,25.8-36.1c5.3-8,22.6-27.2,16.5-37.7c-6.6-11.3-21.5,14-23.9,17.6
		c-8.7,12.9-17.9,25.5-27.5,37.8c-19,24.2-39.8,46.8-61.5,68.6c-43.8,44.1-91.2,84.9-142.4,120.2c-45.5,31.5-93.4,63.6-145.2,83.9
		c-10.4,4.1-21.4,8.4-32.5,9.7c-3.3,0.4-5.7-0.5-7.4,2.9c-2.4,5.1-2.4,11.6-2.5,17.1c-0.5,26.6,4.7,53.6,11.1,79.3
		c13.5,54.1,37.5,111,82,146.8c21.9,17.6,48.4,29.8,76.6,32c30.4,2.4,60.1-7.6,85.9-23.2c15.3-9.2,29.3-20.6,41.1-34
		C554,720.2,580.5,687.2,570.6,684z"/>
	<path fill="#D81B60" d="M635.8,621.4c-1.9,2.9-3.6,5.4,0.3-0.4c3.9-5.8,2.1-3.2,0.2-0.2c7.6-11.4,14.3-23.3,19.9-35.8
		c2.5-5.6,5-11.2,7.5-16.8c1.8-4,5.5-9.6,5.4-14.1c-0.1-4.2-6.1-5.7-8.8-2.9c-3.4,3.6-5.3,10-7.5,14.4
		c-6.7,13.8-13.3,27.6-21.1,40.7c-12.6,21-31.7,51.6-59.8,49.9c-10.6-0.6-20.1-5.3-25.1-14.9c10.7-9.9,20.3-21,28.7-32.9
		c16.3-23.2,28.7-48.9,33.1-77.2c3.5-23.1,1.6-55.4-23-66.4c-26.1-11.7-55.7,4.8-75.5,21.1c-21.9,18-39.3,41.6-51.9,66.9
		c-12.4,24.8-21.5,55.6-15.5,83.4c5.9,27.5,30.5,39.3,57,32.9c13-3.1,25.1-10.2,35.7-18.2c9.1,9.9,21.9,14.6,35,15.1
		C599.3,667.3,620.8,643.7,635.8,621.4z M524.2,594.5C524.9,593.3,525.6,592,524.2,594.5C522.7,597.1,523.4,595.9,524.2,594.5
		c-4.6,8.1-6,17.4-4.3,26.4c0.8,4.2,2.1,8.3,3.8,12.2c0.9,2,1.9,4,3.1,6c2.6,4.5,0.2,4.4-3.6,7.1c-11.7,8.4-36.9,20.5-45.8,2.1
		c-8.1-16.8-0.9-40.5,4.5-57c6.5-19.8,15.5-39.2,26.6-56.8c10.7-16.9,23.9-34.1,40.6-45.4c14.1-9.6,36.7-15.7,43.5,5.3
		c6,18.6-0.2,40.9-6.3,58.6c-7.1,20.6-17.2,40.5-29.5,58.5C563.3,591.6,534.8,576.1,524.2,594.5z"/>
	<path fill="#D81B60" d="M882.7,570.2c2.3-4.7,8.5-13.2,6.5-18.7c-2.9-8.1-9.8,2.9-11.1,5.5c-4.1,8.2-8.3,16.5-12.5,24.7
		c-8.5,16.8-18.1,33.4-29.6,48.3c-9.3,12.1-24.4,31.9-42.2,26.9c-40.8-11.5,54.4-172.1,78.7-185.3c-16.7,3.1-33.6-9-48,5.4
		c-12.4,12.4-19.8,29.9-27.9,45.1c-4.7,8.9-9.4,17.7-14,26.7c-3.6,7.1-6.7,14.7-16,14.3c-19-0.7-37.3-19.2-56.8-10.3
		c8.5-15.9,17.4-31.6,27.2-46.7c7.6-11.7,16.6-27.6,29.2-34.5c-10.6,1.9-20.6-3.4-31.3-2.2c-8.8,0.9-15.4,5.4-20.7,12.2
		c-13.7,17.3-23.1,38.7-33.1,58.3c-22.8,44.6-43.1,90.4-65.5,135.2c15.2-9.5,35.9,4.3,44.7-16c7.2-16.7,14.9-33.2,21.9-50
		c3.5-8.4,7.6-16.4,11.4-24.6c3.9-8.1,7-17.4,17.5-18.1c20.1-1.3,37.4,20.3,57.8,10.5c-8,17.2-18.5,33.6-15.9,53.3
		c2.4,17.7,10,38.1,29.7,42.4c19.9,4.4,37.5-10,50.2-23.4c15.5-16.3,27.8-35.9,38-55.8C874.9,585.7,878.8,577.9,882.7,570.2z"/>
	<path fill="#D81B60" d="M870.9,593.4C864.3,606.2,877.5,580.6,870.9,593.4L870.9,593.4z"/>
	<path fill="#D81B60" d="M971.4,442.8C969.8,442.4,973,443.2,971.4,442.8L971.4,442.8z"/>
	<path fill="#D81B60" d="M971.4,442.8c3.7,0.9,7.6,1.3,11.4,0.9c4.1-0.4,6.1-4.7,8.9-7.3c6.4-5.7,14.1-9.6,22.7-10.4
		c22.8-2.2,45.9,7.5,67.5,13.6c20.2,5.7,40.4,8.5,60.3,0.4c9.2-3.8,17.7-9.3,25-16c2.5-2.3,19-19.6,15-20.7
		c-9.7-2.7-12.6,1.4-19.1,7.2c-6.4,5.6-13.9,9.6-22.3,10.6c-22.5,2.9-44.9-6.7-66.3-12.2c-20.8-5.3-43.5-9.2-64.1-1
		c-9,3.6-16.9,9.5-24.3,15.7c-4.1,3.4-8,7-11.6,10.9C972.8,436.4,966.1,441.5,971.4,442.8z"/>
	<path fill="#D81B60" d="M1413.3,592.8C1406.7,605.2,1419.9,580.4,1413.3,592.8L1413.3,592.8z"/>
	<path fill="#D81B60" d="M1413.3,592.8c3.8-7.2,7.6-14.4,11.3-21.7c2.4-4.8,9-13.8,7.1-19.5c-2.2-6.6-8.9,1.5-10.3,4
		c-3.4,6.8-6.9,13.5-10.4,20.2c-8.3,16-17.2,31.6-27.6,46.4c-8.1,11.6-18.8,28.3-32.9,33.3c-27.5,9.7-9.8-46.4-6.3-56.1
		c6.3-17.4,14.5-34.2,23.3-50.5c7.4-13.7,15.1-29.5,26.2-40.6c-12.1,2.2-23.7-4.9-35.7-1.5c-10.8,3-16.8,14.2-22.2,23.1
		c-15.2,25.1-27.9,51.6-44.6,75.8c-7.9,11.5-16.3,23.1-26.5,32.7c-8.4,7.8-21.2,18.1-33.5,16.1c-26-4.2-7.3-49.5-1.7-62.6
		c11.1-25.7,26.8-49.3,44.9-70.5c16.4-19.2,39-44.4,65.3-48.9c10.5-1.8,22.2,0.5,29,9.1c2.6,3.3,4.2,11.9,8.2,11.9
		c5.3,0,9.6-4.4,8.7-9.9c-1.7-10.6-17.7-19.4-26.7-22.7c-13.6-5-29-5-43.1-2c-50.2,10.4-91.7,53.8-111.6,102.7
		c2.2-6.4,2.7-11,0.1-12.2c0.7,0.3,1.5,0.7,0,0c-1.5-0.7-0.8-0.4,0,0c-7.2-3.3-15,19.9-17.3,24.5c-7.5,15-15.6,29.7-25,43.6
		c-8.8,12.9-19.2,27.1-32.3,35.9c-8.7,5.9-24.5,9.4-26.9-4.8c-2.2-12.8,2.4-26.4,6.7-38.3c5.6-15.4,12.4-30.4,19.2-45.3
		c14.1-31.1,30.5-61.1,47.1-90.9c-13.1-4.4-31.2,5.5-42.6,11c-15.7,7.5-30.6,16.8-44.8,26.9c-28.3,20.2-51.9,45.3-73.4,72.5
		c12.4-25.5,27.6-49.4,39.7-75c4.2-8.9,10.6-20.3,3.6-29.5c-8.2-10.8-22.3-6.1-32.2-0.8c-23.2,12.4-42.1,31.9-61.6,49.2
		c-19.2,17.1-36.3,36-52.2,56.2c10.3-21.5,21.7-42.6,33.9-63c9.6-16.1,21.5-40.4,38.7-49.8c-9.7,1.8-18.7-2.7-28.3-2.4
		c-9,0.3-16.5,3.9-22.3,10.7c-14.2,16.7-23.4,38.4-33.3,57.8c-22.9,44.8-42.9,91.1-65.4,136.1c9.5-5.9,22.5-2.3,33-4.6
		c11.2-2.5,16.7-22.1,21.7-31c12.2-21.8,25.5-42.9,41.1-62.4c15.4-19.2,32.8-37.1,52.3-52.2c3.1-2.4,17.1-13.4,19.8-6.5
		c3.8,9.8-7.1,27.3-10.9,35.8c-11.8,26.5-27.2,52.4-32.2,81.3c-2,11.3-2.1,24.6,7.6,32.7c3,2.5,10.3,6.4,11.6,1.4
		c1.8-6.7,4.4-13.2,7.4-19.5c12.7-26.9,30.2-52.1,49-75c15.5-18.9,32.9-38.8,54.1-51.5c9-5.4,26.3-10.7,21.2,6.7
		c-4.6,15.6-16.9,30.1-24.7,44.2c-13.1,23.6-30.6,63.9-9.8,88.3c10.3,12.2,29.6,14,43.9,8.9c16.7-5.9,30.2-20.9,40.8-34.5
		c4.4-5.6,30.6-45.2,40.7-69c-5.5,14.7-9,29.8-10.3,44.6c-2.3,28,9.6,70.4,46.5,57.9c15.7-5.3,28.5-18.5,39.1-30.7
		c11.9-13.6,22.3-28.8,31.6-44.3c-7.4,26-12.7,80.9,30,77.4c17.6-1.6,31.4-16.8,41.9-29.6C1393.7,627.2,1404.1,610.1,1413.3,592.8z"
		/>
	<path fill="#D81B60" d="M1648.2,564.2c-1.9,4.3-2.6,6,3.6-8c0.2-0.4,0.2-0.5,0.2-0.5c1.2-3.2,2.4-9.2-2.2-10.1
		c-4.7-0.9-7.8,9.4-9.1,12.1c-6.8,14-13.9,27.8-21.5,41.3c-11.7,20.9-28.6,47.6-53.6,53.6c-23.4,5.7-42.1-12.6-49.7-33
		c-9.1-24.3-8.1-51.8-2.7-76.8c1.5-7,3.4-14,5.6-20.8c2.6-8.2,6.9-10.9,14-15.5c11.3-7.4,23.9-13.3,37.2-15.9
		c9.8-1.9,24.6-2.4,30.2,7.7c1.9,3.5-0.2,4.5,4.7,5.1c3.1,0.4,6.3,0.1,9.3-1c7-2.4,12.1-8.1,14.2-15.1c9.8-32.1-30.9-28.7-49.3-22.9
		c-27.9,8.7-51.5,29.1-71.9,49.3c-12.8,12.7-24.6,26.5-35.9,40.6c8.3-16.6,17.6-32.8,27.7-48.4c7.9-12.3,17.3-29.5,30.5-36.8
		c-10.6,1.9-20.6-3.4-31.3-2.2c-8.8,0.9-15.4,5.4-20.7,12.2c-13.7,17.3-23.1,38.7-33.1,58.3c-22.8,44.6-43.1,90.4-65.5,135.2
		c11-6.8,25.5,0.1,36.7-5.5c9.7-4.8,13.7-23.6,17.7-33c11.4-26.5,24.7-49.6,42.3-72.6c-4.8,22.6-3.3,52.8,6.7,73.8
		c13.1,27.4,40.1,38.9,69.3,35.9c27.6-2.8,47-23,62.3-44.5C1627.5,607.4,1638.4,585.9,1648.2,564.2z"/>
	<path fill="#D81B60" d="M1737.6,442.8C1736,442.4,1739.2,443.2,1737.6,442.8L1737.6,442.8z"/>
	<path fill="#D81B60" d="M1737.6,442.8c3.7,0.9,7.6,1.3,11.4,0.9c4.1-0.4,6.1-4.7,8.9-7.3c6.4-5.7,14.1-9.6,22.7-10.4
		c22.8-2.2,45.9,7.5,67.5,13.6c20.2,5.7,40.4,8.5,60.3,0.4c9.2-3.8,17.7-9.3,25-16c2.5-2.3,19-19.6,15-20.7
		c-9.7-2.7-12.6,1.4-19.1,7.2c-6.4,5.6-13.9,9.6-22.3,10.6c-22.5,2.9-44.9-6.7-66.3-12.2c-20.8-5.3-43.5-9.2-64.1-1
		c-9,3.6-16.9,9.5-24.3,15.7c-4.1,3.4-8,7-11.6,10.9C1739,436.4,1732.2,441.5,1737.6,442.8z"/>
	<path fill="#D81B60" d="M1970.7,549.3C1971.5,549.6,1972.2,550,1970.7,549.3C1969.2,548.6,1969.9,548.9,1970.7,549.3
		c-7.3-3.3-15,19.9-17.3,24.5c-7.5,15-15.6,29.7-25,43.6c-8.8,12.9-19.2,27.1-32.3,35.9c-8.7,5.9-24.5,9.4-26.9-4.8
		c-2.2-12.8,2.4-26.4,6.7-38.3c5.6-15.4,12.4-30.4,19.2-45.3c14.1-31.1,30.5-61.1,47.1-90.9c-13.1-4.4-31.2,5.5-42.6,11
		c-15.7,7.5-30.6,16.8-44.8,26.9c-28.3,20.2-51.9,45.3-73.4,72.5c12.4-25.5,27.6-49.4,39.7-75c4.2-8.9,10.6-20.3,3.6-29.5
		c-8.2-10.8-22.3-6.1-32.2-0.8c-23.2,12.4-42.1,31.9-61.6,49.2c-19.2,17.1-36.3,36-52.2,56.2c10.3-21.5,21.7-42.6,33.9-63
		c9.6-16.1,21.5-40.4,38.7-49.8c-9.7,1.8-18.7-2.7-28.3-2.4c-9,0.3-16.5,3.9-22.3,10.7c-14.2,16.7-23.4,38.4-33.3,57.8
		c-22.9,44.8-42.9,91.1-65.4,136.1c9.5-5.9,22.5-2.3,33-4.6c11.2-2.5,16.7-22.1,21.7-31c12.2-21.8,25.5-42.9,41.1-62.4
		c15.4-19.2,32.8-37.1,52.3-52.2c3.1-2.4,17.1-13.4,19.8-6.5c3.8,9.8-7.1,27.3-10.9,35.8c-11.8,26.5-27.2,52.4-32.2,81.3
		c-2,11.3-2.1,24.6,7.6,32.7c3,2.5,10.3,6.4,11.6,1.4c1.8-6.7,4.4-13.2,7.4-19.5c12.7-26.9,30.2-52.1,49-75
		c15.5-18.9,32.9-38.8,54.1-51.5c9-5.4,26.3-10.7,21.2,6.7c-4.6,15.6-16.9,30.1-24.7,44.2c-13.1,23.6-30.6,63.9-9.8,88.3
		c10.3,12.2,29.6,14,43.9,8.9c16.7-5.9,30.2-20.9,40.8-34.5C1933.8,628.2,1982.1,554.8,1970.7,549.3z"/>
	<path fill="#D81B60" d="M2199.9,549.9C2200.7,550.2,2201.4,550.6,2199.9,549.9C2198.4,549.2,2199.1,549.5,2199.9,549.9
		c-7.7-3.5-19.1,27.8-21.9,33.2c-8,15.4-16.5,30.6-26.9,44.5c-8.3,11-19.5,24.5-33.7,27.6c-14.3,3.1-19.5-11.3-18.7-23
		c2.1-30.9,19.3-61.4,32.4-88.8c13.9-29,25.8-58.3,51.1-79.1c-10.1,0-20.1,0-30.2,0c-7.1,0-15,0.5-20.5,5.6
		c-8.3,7.7-12.3,22.4-17.2,32.4c-22.9,46.7-46,98.3-82,136.5c-9.1,9.7-35.8,30.7-41.9,6.8c-5.1-20.3,6.2-42.7,14.6-60.4
		c10.8-22.5,21-45.3,32.7-67.3c10.7-20.1,20.4-40.4,40.1-53.5c-8.3,0-16.5,0-24.8,0c-9.8,0-22.4-1.6-30.1,5.6
		c-6.6,6.2-9.9,16.9-13.9,24.9c-5.2,10.3-10.5,20.5-15.8,30.7c-4.8,9.3-10.1,18.6-14.4,28.2c-2.5,5.7-13.5,19.8,0,19.8
		c-9.3,18.6-21.5,36.7-21.5,58.3c0,21.9,13.6,36.9,35.6,38.2c38.8,2.3,68.1-48,84.3-76.7c-6.3,19-10.3,43.7,0.4,62
		c11.7,19.9,38.4,17.2,55.1,5.7c19-13.2,32.6-33.4,44-53.2C2180.5,601.3,2208.8,554.2,2199.9,549.9z"/>
</g>
</svg>
