<?xml version="1.0" encoding="utf-8"?>
<!-- Generator: Adobe Illustrator 18.0.0, SVG Export Plug-In . SVG Version: 6.00 Build 0)  -->
<!DOCTYPE svg PUBLIC "-//W3C//DTD SVG 1.1//EN" "http://www.w3.org/Graphics/SVG/1.1/DTD/svg11.dtd" [
	<!ENTITY ns_extend "http://ns.adobe.com/Extensibility/1.0/">
	<!ENTITY ns_ai "http://ns.adobe.com/AdobeIllustrator/10.0/">
	<!ENTITY ns_graphs "http://ns.adobe.com/Graphs/1.0/">
	<!ENTITY ns_vars "http://ns.adobe.com/Variables/1.0/">
	<!ENTITY ns_imrep "http://ns.adobe.com/ImageReplacement/1.0/">
	<!ENTITY ns_sfw "http://ns.adobe.com/SaveForWeb/1.0/">
	<!ENTITY ns_custom "http://ns.adobe.com/GenericCustomNamespace/1.0/">
	<!ENTITY ns_adobe_xpath "http://ns.adobe.com/XPath/1.0/">
]>
<svg version="1.1" id="Layer_1" xmlns:x="&ns_extend;" xmlns:i="&ns_ai;" xmlns:graph="&ns_graphs;"
	 xmlns="http://www.w3.org/2000/svg" xmlns:xlink="http://www.w3.org/1999/xlink" x="0px" y="0px" viewBox="0 130 1280 423"
	 enable-background="new 0 130 1280 423" xml:space="preserve">
<metadata>
	<sfw  xmlns="&ns_sfw;">
		<slices></slices>
		<sliceSourceBounds  height="411.6" width="1271.8" y="252.7" x="3.8" bottomLeftOrigin="true"></sliceSourceBounds>
	</sfw>
</metadata>
<g>
	<path fill="#D81B60" d="M643.1,433.8c8.6,2.2,12.3-7.3,20.8-8.2c9.7-1.1,19.7,2.6,28.9,5.3c10,3,20.6,5.9,31,2.6
		c9.8-3.2,17.7-10,23.4-18.5c-0.8-0.8-1.8-1.1-3.1-0.9c-3.4,0-3.4,0.2-5.7,2.5c-3.5,3.6-7.8,6-12.8,6.5c-10,1-19.8-2.7-29.2-5.3
		c-21.5-5.9-40.1-3.5-54.5,15C642.4,433.2,642.8,433.5,643.1,433.8C643.9,434,642.4,433.6,643.1,433.8z"/>
	<path fill="#D81B60" d="M1274.8,486.4c-3.7-1.6-13.2,20.6-15,23.7c-5.5,9.5-12.3,18.5-21.3,24.9c-7.1,5.1-17.8,8.6-26.4,5
		c-9.6-4-11-17.6-10-26.6c2.1-19.9,13.9-41.5,28.6-55c4.8-4.4,17.1-14.9,23.6-8.2c7.4,7.6-3.5,21.6-8.2,27.5
		c5.1,5.1,12.4-1.7,15.4-5.8c3.9-5.5,5.9-12.4,3.6-19c-4.5-13.1-22.1-12.5-32.7-8.7c-13.5,4.9-24.3,17-34.8,26.5
		c-10.6,9.5-20.3,19.4-29.1,30.6c5.2-10.7,11.4-20.9,16.9-31.5c2.6-5.1,11.8-23-1.2-22.8c-8.6,0.1-18.3,12.6-23.7,18.2
		c-8.2,8.5-16,17.4-23.4,26.6c6.8-20.6,5.6-47-21-49.6c-24.7-2.5-42.3,12.4-53.4,33.3c-10.3,19.4-18.3,45.1-36.4,58.8
		c-6.8,5.2-18.5,6.2-24-1.5c-2-2.8,6.6-9.5,8.8-12.3c4.3-5.4,8.2-11.2,11.5-17.2c8.1-14.8,19.3-51.1-3.6-59.2
		c-21.5-7.6-43.3,15.5-53.9,31.3c-12,17.9-18.4,41.7-35.5,55.8c-7.4,6.1-17.3,8.4-25.5,2.3c-8.9-6.6-11.6-18.7-12.3-29.2
		c-0.5-7.9,0.5-15.8,2.3-23.4c1.2-4.9,1.8-10.6,6-13.7c3.9-2.8,8.1-5.3,12.5-7.1c6.3-2.6,17-6.1,22.6-0.2c0.9,1,1.5,2.1,1.6,3.5
		c2,0.6,4.2,0.6,6.2-0.1c3.2-1.1,5.7-3.7,6.8-6.9c7.7-21.9-27.5-11.3-35.5-6.6c-16.3,9.6-29.6,24.3-41.3,38.9
		c4.1-8.2,8.7-16.2,13.8-24c3.8-5.9,8.4-14.2,14.8-17.8c-9,1.6-17.3-4.6-24.6,3.8c-5.6,6.4-9.3,14.6-13.2,22.1
		c-10,19-17.9,39.4-31.7,56.1c-2.6,3.1-11.7,14.1-16.6,8.7c-4.3-4.7-0.6-16.2,0.9-21.2c2.8-9.4,7-18.5,11.6-27.2
		c4.1-7.7,8.3-16.8,14.5-23.1c-5.7,1-11-2.1-16.7-0.9c-4.2,0.9-6.7,4-9,7.4c-7,10.3-12.3,21.8-18.8,32.5c-6,10-13,20.9-22.4,27.9
		c-8.7,6.5-19.9,6.4-18.9-7c1.6-21.9,18.4-44.4,33-59.7c7-7.3,16.1-16,26.4-17.8c4.4-0.7,9.3-0.1,12.7,2.9c2.4,2.1,6,12.5,9.4,4.9
		c4.3-9.5-17.5-15.2-23.1-15.4c-12.7-0.5-25.6,4.9-35.7,12.2c-9,6.5-16,15.6-21.8,24.9c-6.4,10.2-9.2,21.7-15.2,32
		c-5.3,9.2-11.5,18.8-19.8,25.6c-8.9,7.4-16.4,3.6-15.1-7.7c1.2-10.7,6.7-21,11-30.7c5.2-11.5,11-22.8,16.9-33.9
		c2.5-4.7,5.1-9.4,7.7-14.1c-6.3-2.1-14.9,2.6-20.4,5.2c-8.3,3.9-16,8.8-23.4,14.1c-13.5,9.7-24.7,21.8-35,34.8
		c5.6-11.5,12.4-22.4,18.1-34c2.3-4.8,6.8-11.5,3.5-16.8c-3-4.7-9-4.2-13.5-2.2c-12.2,5.6-21.9,15.8-31.8,24.5
		c-9.7,8.7-18.5,18.1-26.5,28.4c4.8-9.9,10-19.7,15.6-29.2c4.9-8.4,11.1-21.2,20-26.1c-9.9,1.8-18-4.6-25.7,5.1
		c-6.9,8.8-11.6,19.6-16.6,29.4c-10.8,21.3-20.3,43.2-31,64.5c6.3-3.9,17.2,1.7,20.9-6.5c4.8-9.1,9.8-18,15.3-26.6
		c10.1-15.6,22.8-30.8,38-41.7c7.7-5.5,9.4-1.2,6.5,6.5c-3.8,10.4-9.1,20.4-13.7,30.5c-3.6,7.8-8.1,18.5-6.2,27.3
		c0.8,3.9,3.4,7.9,7.5,8.8c3,0.6,4.5-7.6,5.7-10.3c8.7-18.5,21.7-36.2,36.2-50.5c5.3-5.2,13.6-13.9,21.6-14.6
		c10-0.9-4.4,20-5.7,22.1c-7.4,12.7-21.5,38.8-5.9,51.1c18.6,14.6,38.5-12.2,46.8-25.7c-1,14.3,6.1,34.5,24.3,26.9
		c14.7-6.2,25.4-23.1,33.2-36.2c-2.8,10-5.6,23.9,1.7,32.7c9.5,11.4,23.3,2.1,30.8-6.1c-1.9,3.9-3.8,7.8-5.8,11.6
		c5.5-3.4,13.3,0.5,18.6-3c4.5-3.1,6.4-11.8,8.4-16.6C860.4,514,867,503,875.4,492c-4.1,19.1,0.8,46.8,22.4,52.8
		c24.7,6.9,41.4-12.7,52.4-31.9c-2.2,16.2,3.6,33.5,22.8,32.6c8.4-0.4,16.4-4.7,23-9.7c5.4,5.9,13.6,8.1,21.4,7.3
		c16.8-1.8,28.5-21.1,35.4-34.6c7.3-14.3,12.6-29,22.6-41.8c8.5-11,26.7-26.4,41.6-17.1c14.6,9.1,7.5,34.1,2.3,46.4
		c-6.5,15.5-16.8,31.6-31.4,40.6c-4.7,2.9-14.7,6.8-16.8-1.3c-2.4-9,4.7-18,9.9-24.5c-5.1-5.1-12.4,1.7-15.4,5.8
		c-4,5.4-5.8,12.4-3.6,19c4.8,14.1,24.4,12.4,35.3,7.6c13.2-5.8,22.7-17.1,29.9-29.2c7.4-12.5,16.8-21.3,27.6-31
		c4-3.6,7.3-5.9,4.1,1c-2.9,6-5.8,12.1-8.6,18.1c-4.5,9.7-15.4,31-4.2,39.8c2.5,2,4.8,2.8,5.8-0.5c1-3.5,2.5-6.9,4.2-10.2
		c3.6-7.1,7.9-13.9,12.5-20.4c9-12.7,19.5-23.4,30.5-34.3c-12.9,22.8-24.7,68.1,14.6,69.9c16.1,0.8,30.1-5.4,40.4-17.9
		C1257.4,524.6,1280,488.6,1274.8,486.4C1273.4,485.8,1276.2,487,1274.8,486.4z M990.4,508.1c-1.9,3.3-2.8,7.3-2.4,11
		c0.3,2.5,1,5,2,7.3c1.4,3.3,3.9,3.9,0.5,6.5c-5.5,4.1-17.5,10.4-22.6,2.2c-8.8-14.4,6-41.8,13.3-54.1c4.8-8,33.3-45.1,42.2-23.4
		c7.4,17.9-7.4,44.4-17,58.6C1009.6,506.7,995.7,499.1,990.4,508.1C989,510.7,991.9,505.6,990.4,508.1z"/>
</g>
<g>
	<path fill="#5D4037" d="M290.7,236.9c-5.3-10.6-12.1-20.4-20.1-29.1c-4-4.4-8.3-8.5-12.8-12.3c-2.3-1.9-4.6-3.8-6.9-5.6
		c-3.5-2.7-8.5-3.5-5.5-7.8c5.6-8.2,10.8-17.6,18.7-23.9c0.8-0.6,9.2-5.6,6.1-7.3c-3.1-1.7-9.7,2.6-12.3,4.1
		c-7.2,4.4-15.3,8.9-20.9,15.4c-1.8,2.1-3.6,4.2-5.4,6.2c-1.3,1.6-11.4-4.5-13.7-5.5c-23.4-10-49.1-14.4-74.4-13
		c-40.7,2.3-101.8,17.8-116.5,61.9c-7.3,22,0.6,46.5,21.8,57.4c21.2,11,47.2,5,61.6-14.1c4.2-5.6,6.8-12.3,7.8-19.3
		c0.3-2-0.1-4.2-2.5-4.6c-3.8-0.5-3.3,2.9-4.1,5.5c-4.4,14.8-16.8,26.7-31.9,30.1c-13.4,3-31.2-2.5-38.1-14.9
		c-7.8-14-2.3-31.1,5.8-43.6c36.2-55.9,122.2-62.5,175.5-30.1c-34.2,38.2-53.6,87.3-79.4,131.1c-5.9,10-12.2,19.8-19.5,28.8
		c-3.4,4.2-7.1,8.2-10.9,12c-3.5,3.5-12-3.4-16.1-5.5c-19.2-9.9-39.9-21.5-62.3-18.5c-20.5,2.8-41.4,24.1-24.3,44
		c14.9,17.4,45.9,16.9,66.2,11.7c10.8-2.8,20.9-7.6,30-14c2.4-1.7,4.7-3.4,7-5.3c2.4,1.1,4.8,2.2,7.3,3.2c6.2,2.6,12.6,4.8,19,6.8
		c22.5,6.9,47.7,12.6,71.4,11.6c34.7-1.5,68.8-19.9,84.5-51.7C311.1,309.2,306.1,267.5,290.7,236.9
		C285.3,226.2,296.1,247.6,290.7,236.9z M77,379.6c-12.1,4.1-30.7,7.7-42.5,1c-11-6.3-15.9-22.4-5.6-31.7c10.3-9.2,24.4-5,35.7-0.7
		c13.3,5.1,25.8,11.8,38.7,17.9C95.3,371.9,86.4,376.5,77,379.6C67.7,382.8,86.3,376.5,77,379.6z M285.3,311.7
		c-3.9,34-29.8,61.9-62.8,70.1c-32.4,8-72.4-3-102.1-16.3c25.1-20.1,42.5-50.8,59.5-77.6c19.3-30.4,37.2-61.7,56.6-92
		C271.8,223.6,289.7,267.2,285.3,311.7C284.1,321.9,286.5,299.8,285.3,311.7z"/>
	<path fill="#5D4037" d="M505.9,293.7c-4.5-9.3-13.6-14.2-23.7-15.2c-1.9-0.2-9.8,0.3-7.8,4.1c2.1,3.9,9.7,1.6,13.2,2.6
		c22.3,6.4-0.9,46.9-7.4,57.4c-6.2,10-26.1,41.8-41.4,29.3c-7.5-6.1-4.9-20.4-3.3-28.4c2.6-12.7,7.4-25,12.8-36.8
		c4.7-10.2,10.2-20,15.4-29.9c12.2-3.9,24.4-8.2,36.2-13.2c21.2-8.9,41.3-19.9,58.7-35.2c17.9-15.8,34.8-36.3,42.2-59.3
		c2.8-8.6,4.9-20.3-2.2-27.5c-7.7-7.8-21.5-6.4-31.2-3.9c-22,5.7-39.5,23.7-54.1,40.1c-15.7,17.7-29.8,36.3-41.9,56.7
		c-6.2,10.4-12.1,20.9-17.9,31.5c-1.4,2.5-2.7,5.1-4.1,7.6c-3,0.3-5.9,0.4-8.9,0.1c-4.5-0.4-9.7-1.2-12.2-5.5
		c-1.3-2.1-0.8-6-2.3-7.8c-5.1-6-7.3,4.6-5.9,7.9c4.3,10.2,15.3,13.5,25.5,12.3c-9.7,18.4-18.6,37.2-28.5,55.5
		c-4.8,8.8-20.4,43.5-35,37.6c-14.4-5.9,3.2-37.9,6.9-46.1c7.6-16.7,14.5-35.4,29-47.3c-5,0-10.1,0-15.1,0
		c-12,0-14.1,10.3-18.6,19.5c-11,22.5-22.2,47.1-39.4,65.6c-5.1,5.5-19.4,15.8-21.2,2c-1.4-10.7,4.2-21,8.6-30.3
		c5.1-10.8,10.1-21.6,15.7-32.1c4.5-9.4,9.9-18.8,18.8-24.7c-7,0-20.8-2.4-26.6,2.4c-3.1,2.6-4.6,7.4-6.3,10.9
		c-2.8,5.6-5.7,11.1-8.5,16.6c-1.8,3.5-14.9,23.5-7.1,23.5c-6.3,12.6-21.3,43,3.4,46.9c21.1,3.3,36-21.6,44.8-37.2
		c-3.1,9.2-5,21.1,0,30.1c5.3,9.5,17.8,9,26.1,3.8c20.1-12.7,29.1-39.7,39.7-59.7c-6.8,14-18,33.4-12.9,49.4
		c5.4,17.4,26.4,16.3,40.6,12.3c17.6-4.5,30.8-19.5,39-35C507,329.7,513.7,309.7,505.9,293.7C504,289.8,507.7,297.5,505.9,293.7z
		 M483.3,244.7c15.4-24.6,32-49.5,52-70.6c9.7-10.3,21.1-20.9,34.5-26c10.7-4.1,24.9-3.9,24,10.8c-0.7,12.7-8.7,25.3-15.8,35.5
		c-8.4,12.2-18.6,23.1-29.9,32.7c-22.7,19.2-50.7,32.5-79.1,40.6C473.7,260,478.5,252.3,483.3,244.7
		C488.6,236.1,477.9,253.3,483.3,244.7z"/>
	<path fill="#5D4037" d="M559.2,246.5c-14.5,0-20.4,24.1-3.8,24.1C569.8,270.6,576,246.5,559.2,246.5z"/>
	<path fill="#5D4037" d="M614.2,269.7c8.6,2.2,12.3-7.3,20.8-8.2c9.7-1.1,19.7,2.6,28.9,5.3c10,3,20.6,5.9,31,2.6
		c9.8-3.2,17.7-10,23.4-18.5c-0.8-0.8-1.8-1.1-3.1-0.9c-3.4,0-3.4,0.2-5.7,2.5c-3.5,3.6-7.8,6-12.8,6.5c-10,1-19.8-2.7-29.2-5.3
		c-21.5-5.9-40.1-3.5-54.5,15C613.4,269.1,613.8,269.4,614.2,269.7C615,269.9,613.4,269.5,614.2,269.7z"/>
	<path fill="#5D4037" d="M994.4,321.9c-3.3-1.5-20.4,33.2-23.2,37c-3.8,5.3-8.3,11.4-14.2,14.5c-6.8,3.6-12.7,0.6-13.1-7.1
		c-0.7-15.3,9.3-31.2,16.4-44.1c4-7.5,8.2-14.9,12.9-22c3.7-5.6,7.9-13.1,14-16.4c-9.4,1.7-17.1-5.2-23.8,4.7
		c-2.3-8.4-10.8-10.9-18.6-9.8c-11,1.5-19.6,7.9-25.6,16.9c-8.7,13.1-15.6,39,6.3,42.8c-6.8,12-18.2,32.6-32.8,36
		c-6.2,1.4-12.8,0.4-16.6-5.1c-4.5-6.6-0.8-14.1,2.5-20.3c3.8-7.3,9.8-15.9,11.5-24c0.6-2.7-1.9-3.8-3.7-1.7
		c-2.9,3.4-4.5,8.4-6.6,12.4c-1.9,3.6-3.8,7.1-5.8,10.6c-2.9-1.9-7-0.4-9.2,2c-2,2.1-2.9,4.8-3.1,7.6c-0.4,5.3,1.2,6.4-3,10.4
		c-8.8,8.3-30.1,18.7-38.5,4.1c-8.4-14.7-2.1-33.5,4.6-47.5c6.8-14.2,16.9-28.2,30.8-36.1c5.4-3.1,14.6-3.9,15.1,4.4
		c0.6,8.8-5,16.2-10.2,22.6c6.7,6.7,15.8-5.5,18.2-10.7c3.1-6.9,2.2-15.8-3.8-20.8c-14.1-11.7-36.7,0.1-47.4,10.8
		c-12.6,12.7-17.5,29.3-27.2,43.6c-4.5,6.6-11.7,12.4-20,12.9c-3.4,0.2-7.8-0.6-10.5-2.9c-2.8-2.1-1-11.6-2.8-15.6
		c-2.4-5.4-7.1-10.7-13.5-9.5c-7.9,1.5-9,11.1-5.2,16.9c2.5,3.8,6.1,7,9.9,9.5c1.1,0.7-3.9,9.1-4.5,10.2
		c-3.7,6.3-12.5,20.2-21.8,17.5c-21.5-5.4,25.1-85,37.9-92c-9.9,1.8-18-4.6-25.7,5.1c-5.9,7.5-9.9,16.5-14.3,24.9
		c-9.8,18.5-17.3,38.6-32,53.9c-3.5,3.6-15.6,13.5-18.7,3.9c-2.5-7.9,2.2-18.2,5.1-25.4c8.5-21.2,19.3-41.3,30.4-61.3
		c-6.3-2.1-14.9,2.6-20.4,5.2c-8.3,3.9-16,8.8-23.4,14.1c-13.5,9.7-24.7,21.8-35,34.8c5.6-11.5,12.4-22.4,18.1-34
		c2.4-4.8,6.8-11.5,3.5-16.8c-3-4.7-9-4.2-13.5-2.2c-12.2,5.6-21.9,15.8-31.8,24.5c-9.7,8.7-18.5,18.1-26.5,28.4
		c4.8-9.9,10-19.7,15.6-29.2c4.9-8.4,11.1-21.2,20-26.1c-7.5,1.4-14.7-3.7-21.8,1.2c-5.3,3.6-8.6,10.7-11.5,16.2
		c-8.3,15.2-15.8,30.7-24.3,45.8c-5.1,9.1-19.1,35.3-33.3,26.8c-8.7-5.2-0.6-21.1,2.3-27.7c6.6-15.4,13.2-30.8,19.7-46.1
		c1.5-3.5,7.7-14.2,3-16.3c-6-2.7-16-0.7-22.4-0.6c6.1,8.2,2,14.8-1.2,23c-4,10.1-8,20.3-11.9,30.4c-4,10.1-8.2,20.7-5.4,31.7
		c2,7.7,8.1,12.6,15.9,13.3c10.3,0.9,17.9-5,24.5-12.3c-2.3,4.7-4.5,9.3-6.9,13.9c6.3-3.9,17.2,1.7,20.9-6.5
		c4.8-9.1,9.8-18,15.3-26.6c9.9-15.3,22.1-29.5,36.6-40.6c5.4-4.1,11.6-6.1,8.8,3.1c-3.2,10.4-8.8,20.3-13.3,30.2
		c-3.8,8.4-8.4,18.2-7.7,27.6c0.2,3.5,1.7,7.3,4.5,9.5c5.1,4.1,5.5-0.1,7.1-4.3c7.4-19.1,21.2-37.1,35.2-51.9
		c5.9-6.3,12.7-13,20.7-16.5c11.6-5.2,5.8,8.3,2.9,13.2c-8.7,14.3-22.3,34.4-15.6,51.9c3.3,8.7,13,11.9,21.7,10
		c10.4-2.3,18.7-12,24.6-20.3c-0.2,9.3,5.2,16.9,14,19.9c10.8,3.7,21.6-1.9,29.5-9.2c3.9-3.7,7.3-8.1,9.9-12.8
		c1.3-2.4,2.5-4.9,3.5-7.5c2.5,1,5.2,1.7,7.9,2.2c11.1,1.8,20.5-2.5,27.3-11.2c-3,15.3-0.2,32.7,16.7,37.9
		c16.3,4.9,34.7-0.3,46.5-12.3c6.7,13.7,24.8,18.1,37.7,10.1c6.8-4.2,12.4-10.2,17.2-16.6c4.3-5.8,10.4-22.8,17.2-23.6
		c-5.3,11-10,22.3-4.6,34.4c4.6,10.3,16.8,11.6,25.7,6.5c10.6-6.1,18.3-17.8,24.4-28C983.9,348.4,998.8,323.9,994.4,321.9
		C992.9,321.2,995.9,322.6,994.4,321.9z M920.5,328c-4.8-10.9,4.1-23.4,10-32c3.2-4.7,6.5-9.1,12.2-10.8c5.6-1.6,13.1-0.5,13.9,6.4
		c1.2,11.3-8,23.6-13,33c-3,5.8-2.9,9.7-9.9,9.8C928.6,334.6,922.7,333.1,920.5,328C919.5,325.8,921.5,330.3,920.5,328z"/>
</g>
</svg>
