<?xml version="1.0" encoding="utf-8"?>
<!-- Generator: Adobe Illustrator 18.0.0, SVG Export Plug-In . SVG Version: 6.00 Build 0)  -->
<!DOCTYPE svg PUBLIC "-//W3C//DTD SVG 1.1//EN" "http://www.w3.org/Graphics/SVG/1.1/DTD/svg11.dtd" [
	<!ENTITY ns_extend "http://ns.adobe.com/Extensibility/1.0/">
	<!ENTITY ns_ai "http://ns.adobe.com/AdobeIllustrator/10.0/">
	<!ENTITY ns_graphs "http://ns.adobe.com/Graphs/1.0/">
	<!ENTITY ns_vars "http://ns.adobe.com/Variables/1.0/">
	<!ENTITY ns_imrep "http://ns.adobe.com/ImageReplacement/1.0/">
	<!ENTITY ns_sfw "http://ns.adobe.com/SaveForWeb/1.0/">
	<!ENTITY ns_custom "http://ns.adobe.com/GenericCustomNamespace/1.0/">
	<!ENTITY ns_adobe_xpath "http://ns.adobe.com/XPath/1.0/">
]>
<svg version="1.1" id="Layer_1" xmlns:x="&ns_extend;" xmlns:i="&ns_ai;" xmlns:graph="&ns_graphs;"
	 xmlns="http://www.w3.org/2000/svg" xmlns:xlink="http://www.w3.org/1999/xlink" x="0px" y="0px" viewBox="0 130 1214 379"
	 enable-background="new 0 130 1214 379" xml:space="preserve">
<metadata>
	<sfw  xmlns="&ns_sfw;">
		<slices></slices>
		<sliceSourceBounds  height="371.2" width="1203.8" y="296.2" x="2.3" bottomLeftOrigin="true"></sliceSourceBounds>
	</sfw>
</metadata>
<g>
	<path fill="#5D4037" d="M430.2,262.6c8.2,2.1,12.3-7.5,20.9-7.7c9.4-0.3,18.6,3.2,27.5,5.8c19.2,5.5,36.3,1.9,47.9-15.5
		c-0.5,0.5-5.9-0.7-8.1,1.5c-3.2,3.3-7.3,5.6-11.9,6.1c-9.2,0.9-18.3-2.5-27-4.9c-19.8-5.5-37.2-3.2-50.4,13.9
		C429.5,262,429.9,262.3,430.2,262.6C430.9,262.7,429.5,262.4,430.2,262.6z"/>
	<path fill="#5D4037" d="M665.5,238.3c10.3,10.9,29.7,9.5,41.8,2.9c6.8-3.7,12.3-9.3,15.9-16.1c1.4-2.6,1.4-6.3-2.8-4.2
		c-3.4,1.7-5.6,6.5-8.4,9.1c-10.1,9.6-28.7,9.6-38.8,0.1c-2.3-2.3-5-13.8-9.5-9.5C659.5,224.8,662,234.6,665.5,238.3
		C667.3,240.1,663.8,236.5,665.5,238.3z"/>
	<path fill="#5D4037" d="M760.7,262.6c8.2,2.1,12.3-7.5,20.9-7.7c9.4-0.3,18.6,3.2,27.5,5.8c19.2,5.5,36.3,1.9,47.9-15.5
		c-0.5,0.5-5.9-0.7-8.1,1.5c-3.2,3.3-7.3,5.6-11.9,6.1c-9.2,0.9-18.3-2.5-27-4.9c-19.8-5.5-37.2-3.2-50.4,13.9
		C759.9,262,760.3,262.3,760.7,262.6C761.4,262.7,759.9,262.4,760.7,262.6z"/>
	<path fill="#5D4037" d="M934.5,312.2c-2.2-5.1-11.3,14.9-12,16.2c-4.6,9.2-10.6,17.9-18.3,24.7c-6.3,5.5-14.1,9.6-22.7,8.3
		c-10.7-1.6-11.2-15.6-10.1-23.9c0.6-4.4,1.6-9,3.4-13.2c3.9,0,7.8-1,11.6-2.1c8.6-2.4,17-5.9,24-11.6c10.3-8.4,30.5-37.4,5.2-41.1
		c-18.8-2.8-36.6,15.8-45.8,30c-11,16.8-16.1,36.1-29.7,51.5c-3.5,3.9-14,14.8-19,6.9c-3.6-5.8,1.1-16.4,3.2-22
		c7.9-20.6,18.5-40.1,29.2-59.3c-5.6-1.8-13.1,2.1-17.9,4.3c-8,3.7-15.5,8.4-22.7,13.5c-12.5,9-22.9,20.2-32.4,32.2
		c5.5-11.2,12.1-21.8,17.5-33.1c2-4.2,5.5-9.9,2.1-14.4c-3.7-4.9-10.1-2.8-14.6-0.4c-10.2,5.4-18.5,13.9-27,21.5
		c-9,8-17.1,16.8-24.6,26.3c4.7-9.8,9.9-19.5,15.5-28.8c4.3-7.2,9.7-18.1,17.4-22.3c-8.4,1.5-16.1-4.3-22.9,3.7
		c-6.6,7.7-10.9,17.8-15.4,26.8c-4.8,9.3-9.3,18.9-14.5,28c-4.9,8.5-11.3,19.7-20.7,23.8c-9.2,4-11.8-5.3-10.6-12.5
		c1.5-9.5,5.6-18.3,9.6-27c7.3-16.1,14-34.6,28-46c-4.3,0-8.6,0-13,0c-9.7,0-11.9,4.8-15.8,13c-10.2,21.1-20.5,43.7-35.5,61.9
		c-3.4,4.1-14.8,17.7-21.1,10.8c-6.1-6.8,0.3-21,3.4-27.6c5.3-10.7,10.1-21.7,15.7-32.3c5-9.6,9.6-19.5,18.9-25.7
		c-4.6,0-9.1,0-13.7,0c-8.5,0-11.8,2.3-15.6,10.1c-8.9,18-17.7,36.6-28.2,53.7c-4.6,7.5-10.9,19-19.4,22.6
		c-8.8,3.8-7.7-7.6-6.9-12.8c1.7-10.5,6.3-20.5,11.1-29.9c4-8,8.4-17.5,14.8-23.9c-5.5,1-10.7-2.2-16.2-0.7c-4.5,1.3-7,5.6-9.4,9.3
		c-6.6,10.5-11.9,21.8-18.7,32.2c-5.8,8.9-12.4,18.9-22.1,23.8c-11.5,5.9-14.4-5.3-12.4-14.4c4.5-20.4,19.3-40.5,34.3-54.5
		c7-6.4,16.7-14.3,26.9-11.8c3.8,0.9,6.6,3.6,8.1,7.2c2.1,4.9,7.4,0,5.2-3.9c-11.2-20.5-43.9-7.8-57,2.9
		c-18.6,15.2-23,37.7-35.4,56.9c-4.8,7.4-13.3,21.3-23.5,21.3c-9,0-4.3-15.3-2.9-19.7c7.5-22.4,19.5-43.6,30.9-64.2
		c-5.6-1.8-13.1,2.1-17.9,4.3c-8,3.7-15.5,8.4-22.7,13.5c-12.5,9-22.9,20.2-32.4,32.2c5.5-11.2,12.1-21.8,17.5-33.1
		c2-4.2,5.5-9.9,2.1-14.4c-3.7-4.9-10.1-2.8-14.6-0.4c-10.2,5.4-18.5,13.9-27,21.5c-9,8-17.1,16.8-24.6,26.3
		c4.7-9.8,9.9-19.5,15.5-28.8c4.3-7.2,9.7-18.1,17.4-22.3c-8.4,1.5-16.1-4.3-22.9,3.7c-6.3,7.4-10.4,17-14.8,25.6
		c-8.7,17-16.6,41-33.3,51.9c-9.7,6.4-14.5-2.2-13.1-11.2c1.5-9.5,5.6-18.3,9.6-27c7.3-16.1,14-34.7,28-46.2c-4.3,0-8.6,0-13,0
		c-9.7,0-11.9,4.8-15.8,13c-10.2,21.1-20.5,43.7-35.5,61.9c-3.4,4.1-14.8,17.7-21.1,10.8c-6.1-6.8,0.3-21,3.4-27.6
		c5.3-10.7,10.1-21.7,15.7-32.3c5-9.6,9.6-19.5,18.9-25.7c-5,0-9.9,0-14.9,0c-10.6,0-12.5,6.3-16.8,14.8c-10,19.7-19.6,40-32.2,58.2
		c-6.6,9.5-37.4,46.8-46.7,21.2c-3.1-8.6-0.9-19.4,1-27.9c2.9-13.2,8.7-25.8,14.9-37.7c5.4-10.4,11.5-20.5,17.6-30.5
		c5.1-8.4,15.1-21.6,11.9-32.1c-3.4-11.2-13.6-0.8-17.2,4.3c-6.4,9.1-11.1,19.2-17.7,28.3c-12.7,17.5-25.7,38.8-45.7,48.8
		c-28.5,14.2-28-25.1-22.8-42c7-23.1,18.7-44.3,24.6-67.8c5.4-21.5,7.7-49.6-11.5-65.3c-18.3-14.9-45.1-13.9-66.6-8.2
		c-23.6,6.3-45.8,19.3-64.8,34.5c-35.4,28.4-67.7,79.9-46.5,126c9.5,20.7,30.4,33.1,53.3,29.8c23.3-3.4,43.6-18.7,56.1-38.1
		c9.3-14.6,21.2-45.9,2.7-58.7c-8.7-6-19.4-3.4-28.4,0.5c-1,0.3-7.7,4.2-5.2,5.4c3.3,1.6,10.9-1.8,14.5-2
		c26.2-1.6,21.2,28.9,13.8,44.5c-10.2,21.7-28.7,39.2-53.4,41.2c-22.3,1.8-40-13.2-45.9-34c-6.5-23.2-0.5-48.1,11.1-68.7
		C50.8,176,99.2,141.5,147.1,140c11-0.3,25.7,1.1,33.8,9.7c8.7,9.2,7.4,25.5,5.9,37c-3.7,28.1-17,52-25.9,78.4
		c-6.3,18.5-13.8,56.3,12.3,63.6c24.3,6.9,48.6-17.8,62-34.7c-7.3,12.8-14.3,26.2-18.1,40.6c-3.3,12.5-6.5,29.3,2.1,40.6
		c10.3,13.6,29.4,7.5,41.1-0.7c13.7-9.6,22.1-24.1,30.2-38.3c-5.5,13.9-0.7,32.1,17.6,29.2c15.8-2.5,27.2-22.1,34.3-34.6
		c-3.1,9.2-5.5,23.7,2.7,31.2c9.4,8.7,22.5,0.6,29.6-6.8c-2,4-3.9,8-5.9,12c5.8-3.7,15.9,1.6,19.3-6c4.5-8.6,9.3-17.1,14.6-25.3
		c9.2-14.1,20.7-27.6,34.4-37.7c5.2-3.8,9.6-4,7.2,3.6c-3,9.7-8.1,18.8-12.3,28c-3.6,7.9-8.3,17.7-7,26.7c0.5,3.8,2.8,8,6.7,9.1
		c3.4,0.9,5.1-8.3,6.6-11.3c8.2-16.3,19.5-31.9,32.4-44.7c5.1-5.1,11.4-11.3,18.5-13.4c11.2-3.4-0.7,15.2-2.3,17.9
		c-7.2,12.1-22,37.7-6.8,49.6c17.2,13.5,35.7-11.3,43.4-23.8c-0.8,12.5,4.7,30.8,21,25.4c14.3-4.7,24.9-21.8,32.2-34.1
		c-3.2,11.2-6.1,30.9,9,34.7c16.1,4,29.2-19.6,35.7-30.9c-5.8,14-1.9,33.3,17.1,30.3c15.8-2.5,27.2-22.1,34.3-34.6
		c-3.1,9.2-5.5,23.7,2.7,31.2c9.6,8.9,22.7,0.3,29.8-7.2c-2,4.2-4.1,8.3-6.1,12.5c5.8-3.7,15.9,1.6,19.3-6
		c4.9-9.3,10.1-18.6,15.9-27.3c9.1-13.5,20.7-27.4,34.4-36.6c7.2-4.8,7.3,0.8,5.1,6.7c-3.6,9.7-8.4,18.9-12.7,28.2
		c-3.4,7.5-8.1,18.4-5.3,26.8c1.3,3.7,4.1,6.8,8.3,6.8c1.1-5,3.4-9.8,5.9-14.3c9-16.6,20.6-32.8,34.7-45.4
		c3.8-3.4,11.9-11.6,17.8-10.2c7.1,1.7-6.2,19.7-7.9,22.7c-6.4,11.1-19.9,40.2-0.7,47c19.3,6.9,33.7-14.9,41.9-29.1
		c-2,22.9,17.5,35.5,38.9,28.5c11.1-3.6,19.3-13,25.4-22.5c3.1-4.8,5.5-10,8-15.1C929.4,324.6,935.8,315.3,934.5,312.2
		C934.2,311.6,934.7,312.9,934.5,312.2z M883,308c5.6-9.5,12.8-18.6,21.1-26c4.5-4,17.2-12.3,16.4,0c-1.3,19.5-25.1,37.4-43.8,37.4
		C878.6,315.5,880.8,311.8,883,308C886,302.9,880,313.1,883,308z"/>
</g>
<g>
	<path fill="#D81B60" d="M620.4,398.7c8.2,2.1,12.3-7.5,20.9-7.7c9.4-0.3,18.6,3.2,27.5,5.8c19.2,5.5,36.3,1.9,47.9-15.5
		c-0.5,0.5-5.9-0.7-8.1,1.5c-3.2,3.3-7.3,5.6-11.9,6.1c-9.2,0.9-18.3-2.5-27-4.9c-19.8-5.5-37.2-3.2-50.4,13.9
		C619.7,398.1,620.1,398.4,620.4,398.7C621.2,398.8,619.7,398.5,620.4,398.7z"/>
	<path fill="#D81B60" d="M1205.4,447.4c-3.5-1.5-12.2,19.1-13.9,22c-5,8.6-11.2,16.9-19.4,22.9c-6.9,5-18.5,9-26.5,4
		c-7.7-4.9-8.4-16.9-7.3-24.9c2.4-18,12.9-37.4,26.4-49.7c4.5-4.1,17.9-15.1,22.9-6.2c4.4,7.8-4.1,18.5-8.6,24.1
		c9.7,9.8,19.8-14.7,17.9-22c-3.7-13.7-22-12.6-32.3-8.3c-11.7,4.8-21.2,15.5-30.5,23.8c-9.8,8.8-18.8,18-26.9,28.3
		c4.6-9.5,10.1-18.5,14.9-27.8c2.3-4.4,12.4-23.8-1-22.4c-8.8,0.9-17.8,13-23.5,18.9c-6.9,7.2-13.4,14.8-19.6,22.5
		c3.4-10.1,5.9-22.3,1.4-32.5c-4.6-10.2-15.4-13.7-25.9-13.7c-24.9,0-38.2,18.5-48.4,38.8c-4.5,9-8.7,18.2-13.8,26.8
		c-5.2,8.8-12.9,21.9-24.1,23.5c-4.3,0.6-9.2-0.3-12.5-3.3c-4.6-4.4,1.7-7.3,4.9-11.1c7.6-8.9,14-19.3,17.7-30.4
		c6.4-19,4-50.6-24.2-42.5c-23.2,6.7-36.7,31.1-46.9,50.9c-7,13.6-24,46.7-44,31.8c-17.3-12.9-12-42.5-6.1-59.6
		c7.6-5.9,23.4-16.1,33.3-9.9c3.2,2,1.8,5,6.1,4.9c2.8-0.1,5.5-1.5,7.3-3.6c3.1-3.8,3.9-10.9-0.6-14c-10.2-7-27,1.9-35.4,7.9
		c-12.8,9.1-23.4,20.6-33.2,32.8c3.4-6.8,7.2-13.5,11.3-20c3.9-6.2,8.5-15,15.1-18.7c-7.6,1.4-15.3-4.1-21.8,2.5
		c-6,6-9.6,14.7-13.5,22.1c-9.5,18.1-17,37.8-30.8,53.3c-2.3,2.6-11.4,11.5-14.4,4.9c-2.6-6,0.4-15,2.2-20.8
		c4.7-14.4,12.5-33.3,23.5-44.2c-5.5,1-10.7-2.2-16.2-0.7c-4.5,1.3-7,5.6-9.4,9.3c-6.6,10.5-11.9,21.8-18.7,32.2
		c-5.8,8.9-12.4,18.9-22.1,23.8c-11.5,5.9-14.4-5.3-12.4-14.4c4.5-20.4,19.3-40.5,34.3-54.5c7-6.4,16.7-14.3,26.9-11.8
		c3.8,0.9,6.6,3.6,8.1,7.2c2.1,4.9,7.4,0,5.2-3.9c-11.2-20.5-43.9-7.8-57,2.9c-18.6,15.2-23,37.7-35.4,56.9
		c-4.8,7.4-13.3,21.3-23.5,21.3c-9,0-4.3-15.3-2.9-19.7c7.5-22.4,19.5-43.6,30.9-64.2c-5.6-1.8-13.1,2.1-17.9,4.3
		c-8,3.7-15.5,8.4-22.7,13.5c-12.5,9-22.9,20.2-32.4,32.2c5.5-11.2,12.1-21.8,17.5-33.1c2-4.2,5.5-9.9,2.1-14.4
		c-3.7-4.9-10.1-2.8-14.6-0.4c-10.2,5.4-18.5,13.9-27,21.5c-9,8-17.1,16.8-24.6,26.3c4.7-9.8,9.9-19.5,15.5-28.8
		c4.3-7.2,9.7-18.1,17.4-22.3c-8.4,1.5-16.1-4.3-22.9,3.7c-6.6,7.7-10.8,17.8-15.4,26.7c-10.3,20.2-19.3,41.1-29.5,61.4
		c5.8-3.7,15.9,1.6,19.3-6c4.5-8.6,9.3-17.1,14.6-25.3c9.2-14.1,20.7-27.6,34.4-37.7c5.2-3.8,9.6-4,7.2,3.6c-3,9.7-8.1,18.8-12.3,28
		c-3.6,7.9-8.3,17.7-7,26.7c0.5,3.8,2.8,8,6.7,9.1c3.4,0.9,5.1-8.3,6.6-11.3c8.2-16.3,19.5-31.9,32.4-44.7
		c5.1-5.1,11.4-11.3,18.5-13.4c11.2-3.4-0.7,15.2-2.3,17.9c-7.2,12.1-22,37.7-6.9,49.6c17.2,13.5,35.7-11.3,43.4-23.8
		c-0.8,12.5,4.7,30.8,21,25.4c14.4-4.7,24.9-21.8,32.2-34.1c-2.6,9.2-5.2,22.1,1.6,30.3c8.8,10.5,21.5,2,28.5-5.7
		c-1.8,3.6-3.5,7.2-5.3,10.8c4.6-2.9,10.7-0.9,15.8-2.2c4.7-1.2,6.5-9.7,8.1-13.5c5.4-12.6,11.5-23.7,19.9-34.6
		c-3.6,16.6,0.1,41.2,18.1,48c23.6,9,40.6-10.3,51.1-28.7c-2,15.3,3.8,31.4,21.7,30.1c4-0.3,7.8-1.5,11.4-3.2
		c3.3-1.6,8.1-6.6,10.8-4.3c5.5,4.9,13.6,6.5,20.7,5c14.9-3.3,25.3-21,31.4-33.6c6.5-13.5,11.9-27.1,21.6-38.8
		c7.7-9.4,26.3-23.5,38.5-12.7c12.7,11.3,4.2,34.7-1.8,47.1c-6,12.4-14.8,24.9-26.7,32.3c-5,3.1-15.3,6.1-15.9-2.9
		c-0.5-8.1,4.6-15,9.4-21c-4-4-9.7,0.2-12.6,3.4c-4.6,5.1-7.1,11.8-5.2,18.7c3.7,13.7,22,12.6,32.3,8.3
		c12.5-5.2,21.6-15.9,28.4-27.3c6.6-11.2,14.7-18.9,24.3-27.6c0.6-0.6,7.7-7.1,6.4-3.3c-2,6-5.4,11.7-8.2,17.4
		c-4.6,9.6-15,28.7-6,38.4c6,6.6,6.9-1.9,9-6.4c3.5-7.5,8-14.6,12.9-21.4c8.4-11.7,18-21.7,28.2-31.7c-7.1,12.6-13.6,28.3-11.9,43.1
		c1.7,14.9,14,21.7,28,21.7c14.1,0,26.1-5.9,35.1-16.9C1189.4,482.5,1210.2,449.4,1205.4,447.4
		C1204.1,446.8,1206.7,447.9,1205.4,447.4z M942,467.5c-4,6.9-2.2,15.2,2,21.5c-5,4.2-15.5,11-21.7,5c-5.6-5.5-2.6-17.2-0.8-23.7
		c2.8-10.2,7.3-20.2,12.8-29.2c4.5-7.3,30.2-39.8,38.3-20.3c6.9,16.6-6.7,41-15.8,54.3C959.8,466.3,946.9,459,942,467.5
		C940.7,469.9,943.4,465.2,942,467.5z"/>
</g>
</svg>
