<?xml version="1.0" encoding="utf-8"?>
<!-- Generator: Adobe Illustrator 18.0.0, SVG Export Plug-In . SVG Version: 6.00 Build 0)  -->
<!DOCTYPE svg PUBLIC "-//W3C//DTD SVG 1.1//EN" "http://www.w3.org/Graphics/SVG/1.1/DTD/svg11.dtd">
<svg version="1.1" id="Layer_1" xmlns="http://www.w3.org/2000/svg" xmlns:xlink="http://www.w3.org/1999/xlink" x="0px" y="0px"
	 viewBox="0 0 307 122" enable-background="new 0 0 307 122" xml:space="preserve">
<g>
	<path fill="#D81B60" d="M183.1,72.8c1.4,0.4,1.6,0,2.6-0.9c2.5-2.1,6.2-0.9,9,0c5.5,1.7,10.5,1.5,14-3.7c0.1-0.1-1.7-0.5-1.7-0.1
		c-1.9,2.4-4.7,2.4-7.5,1.7c-3.2-0.8-6.5-2.2-9.9-1.7C188,68.4,182.3,72.6,183.1,72.8C183.3,72.9,182.9,72.8,183.1,72.8z"/>
	<path fill="#D81B60" d="M304.7,85.7c-0.6-0.3-5.7,9.2-6.6,10.3c-3.4,3.9-6.5,2-5.1-2.9c1.9-6.8,6.4-12,9.6-18c-5.6,0-6.5,1.5-9,6.6
		c-2.7,5.3-5.4,11.9-10.1,15.8c-6.4,5.3-2.3-7.2-1.4-9.2c1.2-2.7,2.6-5.4,4-8.1c1-1.9,3.2-3.3,3.9-5.1c-3.9,0-6.1-0.4-8.1,3.6
		c-2.5,5-4.8,10.4-7.9,15.1c-4.2,6.2-9,6-5.8-2.1c2.1-5.2,4.8-10.1,7.5-15c-6.3-1.9-16.1,9.1-19.4,13.2c1.2-3.3,2.4-6.7,2.9-10.2
		c0.7-5.3-2.2-4.3-6-3.6c3.5,0.8-1.1,10.5-2,12.3c-1.3,2.7-9.6,16-13.7,9.5c-1.1-1.8-1-4.1-0.6-6c0.7-3.7,3.1-2.7,6.3-4.1
		c3.3-1.3,10.7-6.8,8-11.4c-3.1-5.2-10.8,1.2-13.1,3.8c-3.9,4.6-5,10.6-8.8,15.3c-4.2,5.3-7.3,2.4-5.2-3.2c1.7-4.6,5.2-13.5,9.8-16
		c-2,0.4-4-1.1-5.8,0.6c-1.8,1.8-2.9,4.5-4,6.7c-3.2,6.1-4.8,0.1-9.7,2.4c1.6-2.9,3.7-8.1,6.8-9.8c-2,0.4-4-1.1-5.8,0.6
		c-1.5,1.5-2.4,3.6-3.3,5.4c-2.4,4.5-4.3,9.4-7.6,13.4c-4.9,5.9-6.5,1.3-4.4-4.1c2.1-5.2,4.7-10.1,7.4-15
		c-6.3-2.1-16.1,9.2-19.3,13.2c0.8-1.6,9.4-16.3,2-13c-5.5,2.5-10.6,8.3-14.3,13c1.9-3.9,4.6-11.3,8.7-13.5c-2,0.4-4-1.1-5.8,0.6
		c-1.5,1.5-2.5,3.8-3.5,5.7c-2.6,5-4.7,10.5-8.7,14.6c-5.6,5.6-3.4-4.5-2.3-7.1c2-4.6,4.4-9.1,6.9-13.6c-6.3-1.9-16.1,9.1-19.4,13.2
		c1.2-3.3,2.4-6.7,2.9-10.2c0.7-5.3-2.2-4.3-6-3.6c5.7,1.3-6.8,20-7.8,21c-4.1,4.3-3.5-2.3-2.8-4.7c1.3-3.8,3.3-8.8,6.2-11.7
		c-2,0.4-4.1-1.2-5.7,0.8c-1.7,2.1-2.8,4.7-4.2,7c-0.9,1.6-8,13.5-10.8,8.9c-2.7-4.3,4.7-13.3,7.2-16.1c1.8-2,4.2-4.4,7-4.9
		c1.2-0.2,2.3,0,3.3,0.9c0.3,0.5,0.6,1.1,0.9,1.6c1.5-0.2,1.7-0.9,0.8-2.1c-4.6-5-13.2-1.1-16.7,3.3c-3.5,4.1-4.8,9.1-7.8,13.6
		c-4.2,6.2-9,6-5.8-2.1c2.1-5.2,4.8-10.1,7.5-15c-6.4-2-16,9.1-19.3,13.2c1.9-3.9,4.6-11.3,8.7-13.5c-2,0.4-4-1.1-5.8,0.6
		c-1.5,1.5-2.4,3.7-3.4,5.6c-3.2,6-5.9,12.2-8.9,18.2c1.6-1,4.1,0.5,5.2-1.5c1.6-3.2,3.4-6.4,5.6-9.3c0.4-0.6,10.6-10.6,10.3-7.3
		c-0.5,5.4-7,8.8-5,15c2.4,7.6,10.8-1.2,12.7-4.3c-0.2,3.1,1,7.7,5,6.9c4.1-0.8,7.1-5.9,9-9.1c-0.9,3.1-1.5,9.7,3.6,9.3
		c5.4-0.5,8.3-8.8,10.7-12.7c-1.2,5.3-3.9,10.5-6.3,15.3c-2.5,5-5,12.3-9,16.4c3.9-0.7,5.9,1.4,7.9-3.5c0.8-1.9,1.6-3.9,2.3-5.8
		c2-4.9,3.7-10,6.1-14.6c2.1-4,4.9-7.4,8.2-10.5c1.2-1.1,8.3-5.8,5.1-0.4c-2.1,3.4-5,7.5-4.6,11.7c0.5,6,6.9,4.5,9.9,1.2
		c-0.5,1-1,2.1-1.5,3.1c1.2-0.8,2.9-0.2,4.2-0.6c1.8-0.5,3.5-5.6,4.4-7.1c2.5-4,5.7-7.7,9.4-10.5c4.2-3,0.5,4.5-0.1,5.7
		c-0.9,1.9-6.2,12.2-0.7,12.2c1.2-5.1,5.4-10.2,8.9-14c1.1-1.2,9.9-7.5,6.4-1.7c-2.1,3.4-5,7.5-4.6,11.7c0.5,6.2,7.2,4.3,10.2,1.1
		c-0.6,1.2-1.1,2.3-1.7,3.4c1.6-1,4.1,0.5,5.2-1.5c0.9-2.1,1.9-4.3,2.8-6.4c0.6-1.6,1.5-5.3,3.8-5.1c2.2,0.1,4.3,2.4,6.6,1.2
		c-1.5,3.2-3,6.3-0.9,9.6c4.1,5.8,10-2.3,12.1-5.7c-0.4,6,5.1,9,10.5,7.1c5.5-2,7.1-7.8,9.8-12.2c-1.2,5.3-3.9,10.5-6.3,15.3
		c-2.5,5-5,12.3-9,16.4c3.9-0.7,5.9,1.4,7.9-3.5c0.9-2.3,1.9-4.7,2.8-7c2.3-5.8,4.4-12,7.9-17.2c2.2-3.3,5.2-6.4,8.4-8.8
		c5.7-4.1,1.3,3.7,0.2,5.9c-1.6,2.8-3.7,8.3-0.5,10.8c4.7,3.7,9.6-3.3,11.6-6.7c-1.3,3.9,0.9,8.4,5.5,7c3.9-1.2,6.5-5.7,8.4-9
		c-1.3,3.7-0.9,11.1,5.2,8.9C297.2,99,307.1,86.8,304.7,85.7C304.3,85.5,305.1,85.8,304.7,85.7z M239.9,84.9
		c0.4-0.7,8.9-11.7,9.8-7.8c1.4,5.5-7,10.9-11.5,10.9C238.8,86.8,239.3,85.8,239.9,84.9C240.7,83.5,239.1,86.2,239.9,84.9z"/>
</g>
<g>
	<path fill="#5D4037" d="M157.3,63c-1.3-0.4-1.5,0.2-2.4,1c-1.9,1.6-4.3,1.4-6.6,0.8c-6.4-1.6-12-3.2-16.6,2.8
		c0,1.5,2.8-0.6,2.9-0.7c2.5-2.1,6.2-0.9,9,0c2.6,0.8,5.5,1.7,8.2,0.8C152.6,67.4,158.3,63.2,157.3,63C157.2,62.9,157.5,63,157.3,63
		z"/>
	<path fill="#5D4037" d="M178.2,32.9c3.5,0,5.1-5.9,0.9-5.9C175.6,27,174.2,32.9,178.2,32.9z"/>
	<path fill="#5D4037" d="M184,45.5c-1.5-0.9-6.8,16.9-12.1,12.5c-2.1-1.7,0.6-6.3,1.4-8.3c1.5-3.6,3.1-7.2,4.6-10.8
		c1.7-4.1-2.3-3.1-5.2-3c3.4,4.6-6.6,20.4-10.4,22c-5.7,2.5-0.8-9.3-0.1-10.8c2-4.4,5.1-8.1,7.3-12.1c-4.6,0-6,0.3-8.2,4.8
		c-2.6,5.4-5.3,11.3-9.3,15.8c-6.2,7.1-5.4-2.8-3.6-6.9c2.2-5,5.5-9.1,8-13.7c-5.6,0-6.4,1.4-9,6.4c-2.7,5.3-5.4,11.9-10.1,15.8
		c-6.4,5.3-2.3-7.2-1.4-9.2c1.2-2.7,2.6-5.4,4-8.1c1-1.8,3.2-3.2,3.9-4.9c-3.9,0-6.1-0.5-8.1,3.5c-2.1,4.3-4.3,8.8-6.8,13
		c-0.8,1.4-8,11.1-7.5,4.4c0.4-4.9,3.5-11.8,7-15.4c-2,0.4-4.1-1.2-5.7,0.8c-2.1,2.6-3.4,5.9-5.2,8.7c-1.2,2-11.4,13.4-10,4.4
		c0.9-6.2,6-12.9,10.9-16.5c2.3-1.7,6.6-3.2,7.8,0.7c1.5-0.2,1.7-0.9,0.8-2.1c-1.5-1.7-3.7-2.3-5.9-2.3
		c-14.4,0.5-14.2,18.2-23.6,25.1c-7.4,5.2-3.8-11.2-3.2-13.4c0.9-3.1,1.9-6.2,2.9-9.3c0.6-0.1,8.7-1.7,7.7-2.9
		c-0.3-0.4-6.2,0.2-7,0.2c2.1-5.8,4.5-11.4,7.4-16.8c1.2-2.2,2.4-4.3,3.7-6.4c0.6-1,4.8-4.9,4.8-5.5c0-0.6-4.5,0.8-4.4,0.8
		c-2.4,0.8-4,3.7-5.2,5.7c-3.2,5.1-5.7,10.7-8,16.3c-0.7,1.7-1.4,3.4-2,5.2c-0.8,2.2-4.7,1-6.9,0.8c-6-0.4-12-0.9-18-0.9
		c2.2-6,4.4-12.1,6.8-18c0.8-2,1.4-5.3,3.6-5.6c2.3-0.3,4.7-1.2,6.4-3c1.1-1.1,1.5-3.6-0.3-4.2c-3.3-1.2-6.1,2.1-7.6,4.6
		c-2,3.2-15,2-19.1,2.6c-11,1.4-28,8.4-23.9,23c1.8,6.2,8.2,9.9,14.4,7.6c3.5-1.3,6.4-4.4,7.5-7.9c0.3-0.8,1.2-8.1-1.2-7.3
		c0,0-0.1,4.9-0.2,5.3c-0.8,3.3-2.6,7.4-6.1,8.6c-6.7,2.5-11-3.6-9.9-9.8c3.2-17.8,22.8-17.4,36.8-19.1c-3.4,6.9-6.6,13.9-9.6,21
		c-1.8,4.2-1,0.7-3.7,2.1c-1,0-5.6,2.4-4.8,3.9c0.6,1,5.7-1.3,6.6-1.3C58.7,51.7,45.2,66.4,27,67.7c-7.5,0.6-17.1-1.7-20.7-9
		c-2-3.9-1.9-8.9-0.1-12.9c0.8-1.7,1.8-3.3,3-4.7c0.9-1,3.3-2,3.9-3.1c0.5-1-3.1,0.4-3.1,0.4c-2,1.2-3.8,3-5.1,5
		c-2.8,4.1-3.1,10.6-1.5,15.2c4.6,12.8,20.6,15.7,32.3,12.6c12.6-3.3,22.4-13.9,28.4-25.1c1.4-2.7,2.7-5.4,3.7-8.3
		c1.2-3.2,3.6-1.9,6.9-1.8c6.1,0.2,12.2,0.6,18.3,0.6c-2.4,6.7-6.8,15.7-4.6,23c3.1,10,13.8-2.6,15.9-6.3c-0.2,3.1,1.1,7.5,5.1,6.7
		c4.1-0.8,7.1-5.9,9-9.1c-0.7,2.6-1.7,7.6,1.7,9c4.7,1.8,8.3-4.9,10.2-8.2c-1.6,3.6-0.9,8.3,3.8,8.3c4.5,0,7.8-5.9,9.7-9.2
		c-1,3-1.5,9.2,3.3,9.2c4.4,0,7.9-5.9,9.7-9.2c-0.8,2.5-1.5,6.9,1.2,8.6c4.1,2.7,8.2-2.7,10-5.6c-0.5,4,2.3,7.6,6.6,5.9
		C176.6,58.9,186.4,46.8,184,45.5C183.7,45.3,184.3,45.6,184,45.5z M80.8,6.8c3.8-4.6,4.7,0.3-0.9,1.2C80.2,7.6,80.5,7.2,80.8,6.8
		C81.2,6.4,80.4,7.2,80.8,6.8z"/>
</g>
</svg>
