<?xml version="1.0" encoding="utf-8"?>
<!-- Generator: Adobe Illustrator 18.0.0, SVG Export Plug-In . SVG Version: 6.00 Build 0)  -->
<!DOCTYPE svg PUBLIC "-//W3C//DTD SVG 1.1//EN" "http://www.w3.org/Graphics/SVG/1.1/DTD/svg11.dtd">
<svg version="1.1" id="Layer_1" xmlns="http://www.w3.org/2000/svg" xmlns:xlink="http://www.w3.org/1999/xlink" x="0px" y="0px"
	 viewBox="0 1080 1920 1080" enable-background="new 0 1080 1920 1080" xml:space="preserve">
<g>
	<path fill="#D81B60" d="M1062.3,1575.8c0.4-6.4-47-3-52.3-3.1c-25.3-0.3-50.7-0.9-75.8-4.1c22-52.9,41.1-111.3,79.8-154.8
		c22.5,9.7,43.7,21.7,66.7,30.6c26.8,10.4,55.7,20.8,84.7,22.2c23.9,1.2,58.3-7.8,64.6-34.8c0.4-1.8,3.8-24-3.8-16.6
		c-3.7,3.5-5.1,8.7-7.7,13c-3.2,5.3-7.8,9.4-13.3,12.1c-24,11.8-56,5.6-80.7-0.6c-28.7-7.1-56.9-16.6-84-28.3
		c-5.9-2.6-11.8-5.3-17.5-8.3c9.6-8.7,22.8-16.8,36-11.4c11.4,12.8,14-7.9,2.8-13.3c-11-5.4-25.1-3.4-35.5,2.5
		c-5.7,3.2-10.2,7.5-14.8,12.1c-2.5,2.5-2,3.5-5.3,1.5c-3.3-2-6.6-4-10-5.9c-49.7-28.5-103.5-51.6-159.3-65.1
		c-53.6-13-112.2-8.6-159.7,21.4c-44.5,28.1-83.3,86-64.1,140.1c19,53.7,92.8,61.7,136,34.6c10.8-6.8,20.7-15.6,27.9-26.2
		c4.9-7.2,15.3-23.7,12.2-33c-2.2-6.5-9.7,4.8-10.5,6.8c-1.8,4.3-1,8.8-3.3,13c-6.2,11.4-17.2,20.4-28.2,26.9
		c-23.1,13.7-53.1,20.4-78.8,10.5c-11-4.2-22.8-10.4-28.7-21c-6.5-11.7-6.3-26.4-3.3-39c12.6-54.5,64.8-92,116.4-105.1
		c84.4-21.4,173.7,16.6,248,53.7c-11.6,13.3-20.6,29.8-29.7,44.9c-12.5,20.8-24.2,42.2-35.1,63.9c-5.1,10.3-10.1,20.7-14.8,31.2
		c-2.6,5.7-5,11.5-7.5,17.2c-6-1-12.1-1.9-18.1-2.6c-23.5-2.9-47.7-4.8-71,1c-19.1,4.8-37,15.4-48.8,31.3c-4.3,5.9-16,20.5-10,27.6
		c4.6,5.5,14.9-10.8,18.1-13.6c32.4-28.1,82.1-21.5,121.4-21.5c-44,100.1-118.8,211.3-234.2,233c-108.1,20.4-244.9-49.9-227.7-174.7
		c3.8-27.8,15.8-51.3,37.7-69.2c9-7.4,19.1-13.6,27.8-21.2c4.9-4.3,0.3-4.2-3.6-3.1c-6.7,1.9-12.9,4.6-18.8,8.2
		c-49.5,29.7-65.1,93-55.2,147.3c9.7,53.6,43.8,97.2,92.3,121.4c50.6,25.3,110.8,28,165.6,17.3c40.6-7.9,79.4-25.7,111.7-51.5
		c34.7-27.8,61.1-65.2,82.1-104c11.3-20.8,20.7-42.4,29.6-64.3c4.1-10.2,8.1-20.4,11.9-30.7c0.8-2.2,1.6-4.4,2.4-6.7
		c2.7,0.3,5.5,0.5,8.3,0.7c5.6,0.4,11.2,0.7,16.7,0.9c22.2,0.9,44.3,0.3,66.5-1.2C1025.7,1587.2,1061.6,1587.3,1062.3,1575.8
		C1062.5,1572.6,1062.1,1579,1062.3,1575.8z"/>
	<path fill="#D81B60" d="M1295.4,1650.8c-7.4-3.2-16.3,21.5-18.8,26.2c-7.2,13.8-14.9,27.4-23.5,40.4c-5,7.6-37.2,55.8-49.6,37
		c-5.1-7.8-2.1-20.9-0.6-29.3c2.6-14.4,8-28.2,13.8-41.6c6.4-14.6,13.6-28.8,21.5-42.6c6.1-10.7,12.4-22.7,21.2-31.5
		c-12.1,2.2-23.7-4.9-35.7-1.5c-10.8,3-16.8,14.2-22.2,23.1c-15.2,25.1-27.9,51.6-44.6,75.8c-7.9,11.5-16.3,23.1-26.5,32.7
		c-8.4,7.8-21.2,18.1-33.5,16.1c-26-4.2-7.3-49.5-1.7-62.6c11.1-25.7,26.8-49.3,44.9-70.5c16.4-19.2,39-44.4,65.3-48.9
		c10.5-1.8,22.2,0.5,29,9.1c2.6,3.3,4.2,11.9,8.2,11.9c5.3,0,9.6-4.4,8.7-9.9c-1.7-10.6-17.7-19.4-26.7-22.7c-13.6-5-29-5-43.1-2
		c-67.1,14-118.5,86.6-124,152.8c-2.3,28,9.6,70.4,46.5,57.9c15.7-5.3,28.5-18.5,39.1-30.7c11.9-13.6,22.3-28.8,31.6-44.3
		c-5.3,18.8-10.1,42.3-0.5,60.7c10.6,20.3,35.3,20.1,51.9,7.7c18.7-14,32.4-35,44.2-54.9C1273.8,1703.3,1303.9,1654.5,1295.4,1650.8
		C1292.6,1649.6,1298.2,1652,1295.4,1650.8z"/>
	<path fill="#D81B60" d="M1474.2,1619.6c-10.8-2.9-23.8-4.1-32.3,4.5c-9,9.1-15.3,21.8-21.9,32.7c-15,24.6-30.1,49.5-49.4,71.1
		c-8.5,9.6-18.6,19.9-30.9,24.4c-11.8,4.3-23.6-3.1-25.6-15.3c-4.2-26.1,12.9-55.2,26.1-76.3c15.4-24.4,33.8-47.6,55.6-66.5
		c15.7-13.6,47.6-34.9,65.4-12.8c4,4.9,11,29.2,20.6,17.5c8.8-10.7-8.7-23.3-16-27.9c-25-15.5-55.9-14.7-82.3-3.2
		c-32.4,14.1-55.2,42.4-72.9,72.1c-17.3,29.1-35.2,68.8-23,103c4.6,12.9,16.9,24.5,30.3,27.6c17.1,4,34.1-4.9,46.8-15.7
		c12.3-10.5,21.1-22.5,30.3-35.7c9.5-13.5,20.9-27.1,28.3-41.9c-21.1,46.2-45.3,91-66.5,137.3c-10.6,23.1-21.8,46.3-30.5,70.1
		c-3.6,9.8-7.8,21.3-3.8,31.6c4.7,12.2,17.8,17.1,24,28.1c3.2-24.1,14.6-48.4,23.4-70.9c11.6-29.7,23.7-59.2,36.2-88.5
		c23.7-55.8,48.2-113.7,81.5-164.6C1483,1621,1478.5,1620.8,1474.2,1619.6C1469.8,1618.4,1478.6,1620.8,1474.2,1619.6z"/>
</g>
</svg>
