<?xml version="1.0" encoding="utf-8"?>
<!-- Generator: Adobe Illustrator 18.0.0, SVG Export Plug-In . SVG Version: 6.00 Build 0)  -->
<!DOCTYPE svg PUBLIC "-//W3C//DTD SVG 1.1//EN" "http://www.w3.org/Graphics/SVG/1.1/DTD/svg11.dtd">
<svg version="1.1" id="Layer_1" xmlns="http://www.w3.org/2000/svg" xmlns:xlink="http://www.w3.org/1999/xlink" x="0px" y="0px"
	 viewBox="-1581 1080 5123 1080" enable-background="new -1581 1080 5123 1080" xml:space="preserve">
<g>
	<path fill="#D81B60" d="M-879.6,1799.6c24.8-15.6,42.5-38.6,57.5-63.3c7.7-12.7,15.4-25.5,22.4-38.6c3.3-6.2,6.4-12.5,9.5-18.9
		c2.7-5.6,7.2-12.2,7.6-18.5c0.3-3.9-3.5-4.1-6.3-2.6c-5,2.8-6.9,9.2-9.1,14c-6.8,14.4-14.7,28.2-23.3,41.6
		c-15.5,24.1-32.1,48.4-54.9,66.2c-15.9,12.5-44.7,27.8-57.2,3c-10.7-21.2-4.5-49.6,0-71.5c5.8-28.6,14.9-56.4,23.7-84.2
		c8.4-26.4,16.9-52.8,26.7-78.6c11.1-29.3,24.4-57.7,39.4-85.1c1.4-2.6,2.9-5.2,4.3-7.8c3-5.2,3.2-4.8,9.1-3.9
		c7.7,1.2,15.5,2.3,23.2,3.3c15.6,2,31.7,2.6,46.8-2.7c11-3.8,22-11,24.1-23.3c0.8-4.9,0.5-12.2-3-16.1c-5-5.7-9.2,3.9-9.2,7.7
		c0,28.2-62.9,16.4-78.2,13.7c9.6-14.9,21-32.1,35.8-42.5c5-3.5,15.6-9.6,1.7-7.6c-11.1,1.7-23.8,4.4-33.7,9.6
		c-9.9,5.2-17.5,13.9-24.2,22.6c-3.3,4.2-6.5,12.6-12,11.4c-6.6-1.4-13.3-2.9-19.9-4.5c-22.5-5.4-44.9-11.7-66.9-19
		c5.5-5.5,10.6-11.4,16.5-16.5c6.1-5.3,9.6-8.3,17.4-6.8c7.2,1.4,11.7-4.9,8.9-11.6c-2.3-5.5-11.6-10.4-15.2-6.5
		c-11.3,0-23,13.6-30.3,20.9c-4.2,4.2-8.2,8.7-12.1,13.2c-3.5,4.1-9.4,0.3-14.2-1.3c-26.6-8.5-52.8-18.2-79.6-26.1
		c-56.6-16.9-116.1-30.1-175.4-20.3c-50.8,8.4-100.6,35.8-126,81.9c-26.1,47.4-23.3,114.2,24.8,146.8c47,31.9,114.5,18.2,144.6-30.2
		c6.9-11.1,11-23.8,12.6-36.7c0-4.3-2.3-9.2-7.5-7.6c-5.8,1.9-3.9,4.5-5,9.2c-5.4,25-27.2,46.7-49.3,57.9
		c-24.8,12.5-53.6,12.7-78.2-0.9c-22.6-12.5-31.2-39.1-28.4-63.7c6.4-55.5,54.9-97.1,104.3-115.8c42.7-16.1,87.9-13.5,132.4-8.4
		c45.3,5.2,89.7,15.3,133.2,29c-14.7,18.7-23,43.6-33,65c-12.5,26.7-25.1,53.5-37.5,80.2c-25.5,54.8-53.2,111-89.8,159.4
		c-33.9,44.8-80.9,79-134.6,96c-55.5,17.6-118.2,20.1-172.1-3.9c-52.2-23.2-92.7-67.8-97.5-126.4c-2.2-27.1,1.2-58.7,16.6-81.8
		c7.5-11.3,16.8-20.8,27.6-28.9c5.2-3.9,27.6-14.3,18.1-23.4c-7.2-7-23.3,2.8-29.5,6.8c-11.8,7.7-22.5,18.5-30.3,30.3
		c-15.2,23.1-21.3,54.1-23,81.4c-3.4,54.3,20.7,105.7,65.5,136.8c48.1,33.4,109.4,45.4,167.1,43.9c58-1.6,118-16.3,166.6-49
		c47.7-32.1,77.9-83.1,100.4-134.7c25.2-57.9,42.4-118.9,67.1-176.9c6.2-14.6,13.1-28.8,20.7-42.7c3.6-6.5,7.3-13,11.2-19.4
		c1.3-2.2,2.5-7,5.5-5.8c3,1.1,5.9,2.3,8.9,3.5c25.4,10.3,51.5,17.7,78.2,23.7c-38.8,65.1-65.6,138.4-89.3,210.2
		c-12.8,38.9-27.7,85.3-15.3,126.1c4.8,15.8,15.6,30.4,32.7,33.5C-917.9,1818.1-896.4,1810.2-879.6,1799.6
		C-872,1794.8-887.2,1804.4-879.6,1799.6z"/>
	<path fill="#D81B60" d="M-351.3,1712c3.8-7.2,7.6-14.4,11.3-21.7c2.4-4.8,9-13.8,7.1-19.5c-2.2-6.6-8.9,1.5-10.3,4
		c-3.4,6.8-6.9,13.5-10.4,20.2c-8.3,16-17.2,31.6-27.6,46.4c-8.1,11.6-18.8,28.3-32.9,33.3c-27.5,9.7-9.8-46.4-6.3-56.1
		c6.3-17.4,14.5-34.2,23.3-50.5c7.4-13.7,15.1-29.5,26.2-40.6c-12.1,2.2-23.7-4.9-35.7-1.5c-10.8,3-16.8,14.2-22.2,23.1
		c-15.2,25.1-27.9,51.6-44.6,75.8c-7.9,11.5-16.3,23.1-26.5,32.7c-8.4,7.8-21.2,18.1-33.5,16.1c-26-4.2-7.3-49.5-1.7-62.6
		c11.1-25.7,26.8-49.3,44.9-70.5c16.4-19.2,39-44.4,65.3-48.9c10.5-1.8,22.2,0.5,29,9.1c2.6,3.3,4.2,11.9,8.2,11.9
		c5.3,0,9.6-4.4,8.7-9.9c-1.7-10.6-17.7-19.4-26.7-22.7c-13.6-5-29-5-43.1-2c-50.5,10.5-88.1,52.1-108.5,97.6
		c1.3-4.5-2.2-10.7-6.9-6.1c-4.1,3.9-6.3,11.2-8.9,16.2c-7.6,14.9-15.3,29.6-24.3,43.7c-8.7,13.7-18.5,27.3-30.6,38.3
		c-7.3,6.6-25.8,17.6-31.7,3.2c-4.5-10.9,1-27.7,4.5-38.1c5.2-15.6,12.2-30.7,19.1-45.6c15-32,31.8-63.2,49-94.1
		c-13.5-4.1-30.9,5.3-42.7,11c-15.7,7.6-30.6,16.8-44.8,26.9c-28.3,20.2-52.5,45.3-74,72.5c10.8-28.7,23.3-61.3,24.5-92.2
		c0.3-8.5,2.5-29.1-10.7-28.1c-13.6,1-26.8,3.3-40.2,5.7c10.3,2.3,8.7,21.3,8.1,28.8c-1.1,13.8-4.5,27.5-9.4,40.5
		c-3.9,10.4-8.5,20.7-13.3,30.7c-6.6,13.8,9.5,2,12.8-3.3c-4.9,22.6-14.8,44.4-23.9,65.6c-10.9,25.2-22.6,50-35,74.5
		c-12,23.8-24.2,47.4-36.9,70.8c-5.5,10.1-11,20.2-16.9,30c-4.5,7.6-8.9,16.7-15.2,23c12.5-2.3,24.4,5,37.2,2.5
		c11.5-2.2,18-11.5,23.4-21.2c4.1-7.3,7-14.9,10.2-22.7c11-27.2,21.9-54.4,32.9-81.5c8.7-21.6,16.9-43.6,26.9-64.7
		c11.8-24.9,26.6-48.4,44.7-69.3c15.6-18.1,34.5-37.1,54.7-50.1c5.6-3.6,25.2-14,23.9,0.9c-1.3,14.6-14.3,29-21.4,41.4
		c-14,24.4-31.1,57.8-19.7,86.5c5.6,14.1,19.3,20.9,33.9,20.9c17.2,0,30.5-9.9,42.1-21.6c24.5-24.7,40.2-56.8,55.2-87.8
		c-7.9,19.3-13.5,40.1-12.7,61.2c0.7,17.8,7.4,41.3,27.3,45.9c19.3,4.5,36.7-9.6,49.4-22.2c16-15.9,29.2-34.8,40.8-54.1
		c-7.4,26-12.7,80.9,30,77.4c17.6-1.6,31.4-16.8,41.9-29.6C-370.9,1746.5-360.5,1729.3-351.3,1712
		C-344.7,1699.6-357.9,1724.4-351.3,1712z"/>
	<path fill="#D81B60" d="M-158.7,1610.9c-5-10.2-13.3-18.9-23.5-24.1c-9.2-4.7-25.2-10-35.3-5.9c-4.7,1.9-8.3,6.1-3,9.9
		c4.6,3.4,11.4,1.4,16.7,1.6c13,0.5,22.2,8.3,24.7,21.2c5.1,26.3-7.9,54.1-20,76.6c-13.4,24.9-29.3,49.3-49.9,68.8
		c-12.2,11.5-32.6,25.5-47.9,10.4c-17.2-16.9-6.5-54.7-1-74.3c8-28.4,20.2-55.8,33.6-82c6.3-12.3,13.2-24.4,19.6-36.6
		c15.2-4.9,30.3-10,45.2-15.6c51.3-19.2,101.2-43,143.3-78.7c22.5-19.1,42.7-40.8,59.6-65c16.2-23.1,31.4-49.5,35.9-77.7
		c4-25.1-6.6-46.5-33.3-49.9c-29.1-3.7-57.3,7.1-81.3,22.7c-24.7,16-45.7,37-65.2,58.8c-20.1,22.5-39.6,45.6-57,70.3
		c-16.8,23.8-31.7,48.7-46.2,74c-7.3,12.9-14.6,25.8-21.7,38.8c-2.8,5.2-5.8,15.6-12,16.1c-6.6,0.5-13.2,0.3-19.8-0.7
		c-10.3-1.6-19.4-5.5-22.2-16.4c-0.8-3.3,0-7.3-2.3-10c-3.7-4.3-10.5-3.4-12.6,2c-4.4,11.4,4.7,24,13.2,30.7
		c10.9,8.6,26.1,10.1,39.5,8.5c-27.6,52.7-51.7,108.1-84.4,158c-3,4.6-8.2,9.7-10,15c-1.9,5.9,3.6,7.8,7.3,4
		c7.3-7.4,12.9-16.7,18.2-25.6c14.9-24.7,28.4-50.4,41.9-75.9c-13.7,28.3-35.9,66.9-26.8,99.4c9.8,35.3,50.7,35.1,79.6,27.6
		c36-9.3,62.6-35.9,80.6-67.6C-157.6,1688.4-142,1645.1-158.7,1610.9C-162.5,1603.1-154.9,1618.7-158.7,1610.9z M-204.9,1511
		c31.9-51,66.5-102.9,108.3-146.4c19.4-20.1,42-41.1,68.6-51c21.6-8.1,50.2-7.8,48.7,21.8c-1.3,26.4-18.2,52.7-32.8,73.8
		c-16.8,24.1-37,45.9-59.4,65c-44.8,38.3-99.7,64.8-155.9,81.8c-2.2,0.7-4.5,1.3-6.7,2C-224.3,1542.2-214.6,1526.6-204.9,1511
		C-193.9,1493.4-215.9,1528.6-204.9,1511z"/>
	<path fill="#D81B60" d="M369.9,1668.5c-7.7-3.6-19.1,27.8-21.9,33.2c-8,15.4-16.5,30.6-26.9,44.5c-8.3,11-19.5,24.5-33.7,27.6
		c-14.2,3.1-19.5-11.3-18.7-22.9c2.1-30.8,19.3-61.2,32.4-88.5c13.9-28.9,25.8-58.1,51.1-78.8c-20.6,0-41.7-1.2-62.2,0.3
		c-20.3,1.5-31.8,14-40.6,31.4c-9.9,19.7-18,40.3-26.9,60.5c-9,20.5-19,40.6-31.3,59.3c-11.1,16.9-25.1,34.5-46.1,37.7
		c-9,1.4-17.4,1.4-24.7-4.9c-5.8-5-10.4-14-8-21.7c2.2-7.1,7.6-14.8,4.6-22.6c-3.2-8.4-13.8-8.4-20.1-3.8
		c4.3-8.1,8.4-16.5,12.4-24.8c2.7-5.6,11.1-17.3,8.8-23.8c-3.1-8.6-10.3,4-11.6,6.5c-4.5,9.3-9.2,18.6-14,27.7
		c-9,17.2-18.8,34.4-31.6,49c-8,9.1-28.2,29.8-40.6,16.3c-10-10.8-4.9-29.6-1.2-42c5.4-18.2,13.9-35.6,21.8-52.8
		c15.1-32.9,28.8-69,57.4-92.5c-10.1,0-20.1,0-30.2,0c-7.1,0-15,0.5-20.5,5.6c-8.3,7.7-12.3,22.4-17.2,32.4
		c-22.9,46.7-46,98.3-82,136.5c-9.1,9.7-35.8,30.7-41.9,6.8c-5.1-20.3,6.2-42.7,14.6-60.4c10.8-22.5,21-45.3,32.7-67.3
		c10.7-20.1,20.4-40.4,40.1-53.5c-8.3,0-16.5,0-24.8,0c-9.8,0-22.4-1.6-30.1,5.6c-6.6,6.2-9.9,16.9-13.9,24.9
		c-5.2,10.3-10.5,20.5-15.8,30.7c-4.8,9.3-10.1,18.6-14.4,28.2c-2.5,5.7-13.5,19.8,0,19.8c-9.3,18.6-21.5,36.7-21.5,58.3
		c0,21.9,13.6,36.9,35.6,38.2c38.8,2.3,68.1-48,84.3-76.7c-8,24-13,70.1,21.1,76.2c32.5,5.9,57.4-27.8,72.4-51.6
		c-1.9,12.9,6,28.3,14.3,37.6c9.9,11,25.5,14.6,39.8,14.6c30.7,0,50-27.8,64.3-51.5c17.3-28.6,28.6-60,41.9-90.5
		c5.6-12.7,11.5-25.5,19.4-37c8.2-12,16.6-17.5,31.5-17.2c-9.2,14-14.8,32.2-21.7,47.4c-7.6,16.6-15.1,33.3-21.6,50.4
		c-9.6,25.1-25.6,67.3-2.2,90c26.3,25.4,61.5-7.6,77.1-28.4C336,1744.2,381.1,1673.7,369.9,1668.5
		C366.9,1667.1,372.9,1669.9,369.9,1668.5z"/>
	<path fill="#D81B60" d="M595.8,1668.8c-7.4-3.2-16.3,21.5-18.8,26.2c-7.2,13.8-14.9,27.4-23.5,40.4c-5,7.6-37.2,55.8-49.6,37
		c-5.1-7.8-2.1-20.9-0.6-29.3c2.6-14.4,8-28.2,13.8-41.6c6.4-14.6,13.6-28.8,21.5-42.6c6.1-10.7,12.4-22.7,21.2-31.5
		c-12.1,2.2-23.7-4.9-35.7-1.5c-10.8,3-16.8,14.2-22.2,23.1c-15.2,25.1-27.9,51.6-44.6,75.8c-7.9,11.5-16.3,23.1-26.5,32.7
		c-8.4,7.8-21.2,18.1-33.5,16.1c-26-4.2-7.3-49.5-1.7-62.6c11.1-25.7,26.8-49.3,44.9-70.5c16.4-19.2,39-44.4,65.3-48.9
		c10.5-1.8,22.2,0.5,29,9.1c2.6,3.3,4.2,11.9,8.2,11.9c5.3,0,9.6-4.4,8.7-9.9c-1.7-10.6-17.7-19.4-26.7-22.7c-13.6-5-29-5-43.1-2
		c-67.1,14-118.5,86.6-124,152.8c-2.3,28,9.6,70.4,46.5,57.9c15.7-5.3,28.5-18.5,39.1-30.7c11.9-13.6,22.3-28.8,31.6-44.3
		c-5.3,18.8-10.1,42.3-0.5,60.7c10.6,20.3,35.3,20.1,51.9,7.7c18.7-14,32.4-35,44.2-54.9C574.2,1721.3,604.3,1672.5,595.8,1668.8
		C593,1667.6,598.6,1670,595.8,1668.8z"/>
	<path fill="#D81B60" d="M987.6,1665.5c-6.1-4.6-16.7,24-18.9,28.2c-7,13.6-14.1,27.3-22.5,40c-12.3,18.6-31.8,41.8-56.7,39
		c-24.1-2.7-36.7-26.1-41.2-47.6c-5.6-26.9-2.1-54.3,5.7-80.3c1.1-3.6,2.2-7.2,3.5-10.8c2.8-2.2,5.7-4.3,8.7-6.4
		c5.4-3.7,10.9-7,16.8-9.8c11.4-5.5,24.8-10.1,37.6-8.9c5.4,0.5,10.9,2.4,14.5,6.7c1.6,1.8,2.5,4,2.8,6.4c3.1,0.8,6.4,1.1,9.6,0.5
		c15.1-2.8,21.3-19.4,16.8-32.9c-11.9-20.8-49.5-7.2-65,0.5c-25.9,13-48.6,34.4-67.9,55.7c-8.2,9-16.1,18.3-23.7,27.8
		c8.3-16.6,17.6-32.8,27.7-48.4c7.9-12.3,17.3-29.5,30.5-36.8c-10.6,1.9-20.6-3.4-31.3-2.2c-8.8,0.9-15.4,5.4-20.7,12.2
		c-13.7,17.3-23.1,38.7-33.1,58.3c-22.8,44.6-43.1,90.4-65.5,135.2c11-6.8,25.5,0.1,36.7-5.5c9.7-4.8,13.7-23.6,17.7-33
		c11.4-26.5,24.7-49.6,42.3-72.6c-5.1,23.7-3.7,57.6,9.3,78.6c16.7,27,46.5,36.9,77.1,29.4c26.2-6.4,45.2-31.7,58.9-53.2
		c7-10.9,13.1-22.3,18.9-33.9C978.9,1695.6,995,1671.1,987.6,1665.5z"/>
	<path fill="#D81B60" d="M1145.7,1771.8c21.2-18.1,36.6-42.4,48-67.6c4.1-9.2,10.1-19,12.6-28.8c1-4.1-2.6-7.9-6.9-6.1
		c-4.5,1.9-7.2,11.6-9.1,15.6c-12.8,26.1-25.4,53.1-45.9,74.2c-8.7,8.9-19,16.5-31.9,16.5c-11.6,0-22.6-4.3-28.2-15
		c37.1-34.6,74.9-95.3,60.8-148.3c-7.2-27.2-32.9-36.8-58.7-29.3c-26.9,7.8-49.8,29.5-66.7,51.1c-18.2,23.3-32.6,50.4-38.5,79.5
		c-4.7,23.3-5.6,57.1,18.2,70.9c24,13.9,53.7,0.5,73.5-14.3C1091.8,1791.1,1125.2,1789.3,1145.7,1771.8
		C1156.3,1762.7,1135.1,1780.9,1145.7,1771.8z M1061.7,1713.8c-4.6,8-6,17.4-4.2,26.4c0.8,4.2,2.1,8.3,3.8,12.2c0.9,2,1.9,4,3.1,6
		c2.6,4.5,0.2,4.4-3.6,7.1c-11.7,8.4-36.9,20.5-45.8,2.1c-8.1-16.8-0.9-40.5,4.5-57c6.5-19.8,15.5-39.2,26.6-56.8
		c10.7-16.9,23.9-34.1,40.6-45.4c14.1-9.6,36.7-15.7,43.5,5.3c6,18.6-0.2,40.9-6.3,58.6c-7.1,20.6-17.2,40.5-29.5,58.5
		C1100.8,1710.8,1072.3,1695.3,1061.7,1713.8C1058.7,1719,1064.7,1708.6,1061.7,1713.8z"/>
	<path fill="#D81B60" d="M1434.9,1668.5c-7.2-3.4-16.1,21.4-18.5,26.1c-7.8,15.2-16.2,30.1-25.9,44.2c-8.6,12.4-18.8,26.6-31.8,34.7
		c-8.6,5.3-23.2,7.6-25.2-5.7c-4.1-27.6,14.8-59.8,26.1-83.6c14.6-30.9,30.9-61,47.5-90.9c-13.5-4.1-30.9,5.3-42.7,11
		c-15.7,7.6-30.6,16.8-44.8,26.9c-28.3,20.2-52.5,45.3-74,72.5c10.8-28.6,23.3-61.3,24.5-92.2c0.3-8.5,2.5-29.1-10.7-28.1
		c-13.6,1-26.8,3.3-40.2,5.7c10.3,2.3,8.7,21.3,8.1,28.8c-1.1,13.8-4.5,27.5-9.4,40.5c-3.9,10.4-8.5,20.7-13.3,30.7
		c-6.6,13.8,9.5,2,12.8-3.3c-4.9,22.6-14.8,44.4-23.9,65.6c-10.9,25.2-22.6,50-35,74.5c-12,23.8-24.2,47.4-36.9,70.8
		c-5.5,10.1-11,20.2-16.9,30c-4.5,7.6-8.9,16.7-15.2,23c12.5-2.3,24.4,5,37.2,2.5c11.5-2.2,18-11.5,23.4-21.2
		c4.1-7.3,7-14.9,10.2-22.7c11-27.2,21.9-54.4,32.9-81.5c8.7-21.6,16.9-43.6,26.9-64.7c11.8-24.9,26.6-48.4,44.7-69.3
		c15.7-18.1,34.5-37.1,54.7-50.1c7-4.5,26.9-13.8,23.5,3.2c-3.1,15.6-16.3,30.5-24,44.2c-13.5,24.1-32.6,65.5-11.2,90.8
		c10.3,12.1,29.3,14,43.6,8.9c16.6-5.8,29.9-20.9,40.4-34.5C1397.9,1747.4,1446.3,1673.9,1434.9,1668.5
		C1431.9,1667.1,1437.9,1669.9,1434.9,1668.5z"/>
	<path fill="#D81B60" d="M1662.9,1669.1c-7.7-3.6-19.1,27.8-21.9,33.2c-8,15.4-16.5,30.6-26.9,44.5c-8.3,11-19.5,24.5-33.7,27.6
		c-14.3,3.1-19.5-11.3-18.7-23c2.1-30.9,19.3-61.4,32.4-88.8c13.9-29,25.8-58.3,51.1-79.1c-10.1,0-20.1,0-30.2,0
		c-7.1,0-15,0.5-20.5,5.6c-8.3,7.7-12.3,22.4-17.2,32.4c-22.9,46.7-46,98.3-82,136.5c-9.1,9.7-35.8,30.7-41.9,6.8
		c-5.1-20.3,6.2-42.7,14.6-60.4c10.8-22.5,21-45.3,32.7-67.3c10.7-20.1,20.4-40.4,40.1-53.5c-8.3,0-16.5,0-24.8,0
		c-9.8,0-22.4-1.6-30.1,5.6c-6.6,6.2-9.9,16.9-13.9,24.9c-5.2,10.3-10.5,20.5-15.8,30.7c-4.8,9.3-10.1,18.6-14.4,28.2
		c-2.5,5.7-13.5,19.8,0,19.8c-9.3,18.6-21.5,36.7-21.5,58.3c0,21.9,13.6,36.9,35.6,38.2c38.8,2.3,68.1-48,84.3-76.7
		c-6.3,19-10.3,43.7,0.4,62c11.7,19.9,38.4,17.2,55.1,5.7c19-13.2,32.6-33.4,44-53.2C1643.4,1720.6,1671.8,1673.3,1662.9,1669.1
		C1659.9,1667.7,1665.9,1670.5,1662.9,1669.1z"/>
	<path fill="#D81B60" d="M1919.9,1562c3.7,0.9,7.6,1.3,11.4,0.9c4.1-0.4,6.1-4.7,8.9-7.3c6.4-5.7,14.1-9.6,22.7-10.4
		c22.8-2.2,45.9,7.5,67.5,13.6c20.2,5.7,40.4,8.5,60.3,0.4c9.2-3.8,17.7-9.3,25-16c2.5-2.3,19-19.6,15-20.7
		c-9.7-2.7-12.6,1.4-19.1,7.2c-6.4,5.6-13.9,9.6-22.3,10.6c-22.5,2.9-44.9-6.7-66.3-12.2c-20.8-5.3-43.5-9.2-64.1-1
		c-9,3.6-16.9,9.5-24.3,15.7c-4.1,3.4-8,7-11.6,10.9C1921.3,1555.6,1914.6,1560.7,1919.9,1562
		C1921.5,1562.4,1918.3,1561.6,1919.9,1562z"/>
	<path fill="#D81B60" d="M2037.5,1789.4c49.3,17.6,84.5-47.8,102.5-83c4.5-8.9,9-17.8,13.3-26.8c4.5-9.8-3.4-16.3-8.4-5.4
		c-9.6,20.3-19.7,40.6-32.1,59.3c-10.5,15.8-28.4,44.5-50.1,44.5c-21.5,0-8-38.9-4.5-48.6c17.1-47.4,41.9-92.3,66.3-136.2
		c-13.1-4.4-31.2,5.5-42.6,11c-15.7,7.5-30.6,16.8-44.8,26.9c-28.3,20.2-51.9,45.3-73.4,72.5c12.4-25.5,27.6-49.4,39.7-75
		c4.2-8.9,10.6-20.3,3.6-29.5c-8.2-10.8-22.3-6.1-32.2-0.8c-23.2,12.4-42.1,31.9-61.6,49.2c-19.2,17.1-36.3,36-52.2,56.1
		c10.3-21.5,21.7-42.6,33.9-63c9.6-16.1,21.5-40.4,38.7-49.8c-11.5,2.1-22.5-4.1-34.1-1.8c-9.4,1.8-15.5,8.1-20.8,15.6
		c-15.8,22.2-27.4,48.3-39.3,72.7c1.1-3.1,1-10.8-4.5-7.8c-5.1,2.8-7.6,11.4-10,16.3c-7.2,14.1-14.5,28.4-23.1,41.7
		c-13.8,21.2-32.8,44.4-58.2,51.6c-10.6,3-23.7,4.2-34-0.5c-10.7-4.9-15.9-16.7-18.4-27.6c-6.2-27.5,4.7-57.6,16.6-82
		c12-24.5,28.7-48.3,50.7-64.7c8.9-6.7,23.8-17,35.4-10.5c10.4,5.9,7,21.5,3.8,30.5c-2.1,6-5.4,11.2-9.1,16.3
		c-2.3,3.2-10.4,10.6-6.6,13.1c10.6,7.3,23.7-5.6,29.3-13.5c13.9-19.5,12.7-49.7-12.8-58.5c-38.7-13.2-78.3,14.9-100.1,44.5
		c-24.2,32.2-47.7,79.9-40.9,121.4c6.9,41.7,51.7,50.5,87.1,41.9c41-9.9,63.3-47.7,80.8-82.7c-13.3,28.9-27,57.7-41.2,86.2
		c9.5-5.9,22.5-2.3,33-4.6c11.2-2.4,16.7-22.1,21.7-31c12.2-21.8,25.5-42.9,41.1-62.4c15.4-19.2,32.8-37.1,52.3-52.2
		c3.1-2.4,17.1-13.4,19.8-6.5c3.8,9.8-7.1,27.3-10.9,35.8c-11.8,26.5-27.2,52.4-32.2,81.3c-2,11.3-2.1,24.6,7.6,32.7
		c3,2.5,10.3,6.4,11.6,1.4c1.8-6.7,4.4-13.2,7.4-19.5c12.7-26.9,30.2-52.1,49-75c15.5-18.9,32.9-38.8,54.1-51.5
		c11.2-6.7,27.4-9.2,20.3,9.2c-6.4,16.6-18.7,31.6-27,47.5C2019.8,1721.7,2000.9,1776.3,2037.5,1789.4
		C2043.1,1791.4,2031.9,1787.4,2037.5,1789.4z"/>
	<path fill="#D81B60" d="M2407.1,1680.8c1.3-2.7,4.2-14.6-3.4-11.2c-4.9,2.2-8,11-10.4,15.5c-9.1,16.9-17.8,33.9-28.3,50
		c-21.5,32.9-53.4,54-90.5,65.6c14.4-39.3,27-79.2,41.1-118.6c12.3-34.2,22.5-76.4,53.7-98.6c-10.1,0-20.1,0-30.2,0
		c-6.3,0-13.1,0.3-18.5,4c-8.7,5.9-12.4,19.9-16.9,28.9c-22.9,45.5-47.7,92.5-80.5,131.8c-7.6,9.1-32.8,39.5-46.8,24.1
		c-12.8-14.1-0.3-43.3,6-57.6c10.4-23.6,21.8-47,33.6-69.9c6.3-12.3,13-24.4,19.9-36.3c6.7-11.4,14.4-16.6,24.1-24.9
		c-8.3,0-16.5,0-24.8,0c-9.8,0-22.4-1.6-30.1,5.6c-6.6,6.2-9.9,16.9-13.9,24.9c-5.2,10.3-10.5,20.5-15.8,30.7
		c-4.8,9.3-10.1,18.6-14.4,28.2c-2.5,5.7-13.5,19.8,0,19.8c-11.1,22.1-25.3,43.6-20.4,69.6c5.2,24.1,32.1,31.6,53.3,24.5
		c22.5-7.5,40.3-29.3,53.8-47.8c13.8-18.9,24.8-39.7,36.3-60c-8.2,27.3-17,54.5-27.3,81.1c-5.1,13.4-10.6,26.6-16.8,39.5
		c-2.7,5.5-4.9,13.7-11,15.4c-8.2,2.3-16.5,4.5-24.8,6.7c-53.4,14-119.4,22.4-159.7,64.5c-16.6,17.4-31.4,48.7-18.1,71.8
		c12.7,22.1,43.3,23.2,65.6,21c57.5-5.8,102.5-51.6,133.7-96.7c13.9-20,26.5-41,38.6-62.2c21.3-7.5,42.6-16,61.7-28.3
		C2366.4,1765.8,2386.4,1722.3,2407.1,1680.8C2409.9,1674.8,2396.7,1701.6,2407.1,1680.8z M2214.8,1844.9
		c-19.8,34.2-49.5,65.6-80.3,90.2c-16.1,12.8-34.3,25.9-54.6,30.7c-14.2,3.3-35.3,4-41.8-12.2c-6.7-16.7,3.5-35.8,13.7-48.7
		c12-15.1,27.5-26.6,45.1-34.5c39.8-17.1,82.9-26.7,124.8-37.2C2219.4,1837.1,2217.1,1841,2214.8,1844.9
		C2212.6,1848.7,2217,1841.1,2214.8,1844.9z"/>
	<path fill="#D81B60" d="M2583.8,1610.9c-5-10.2-13.3-18.9-23.5-24.1c-9.2-4.7-25.2-10-35.3-5.9c-4.7,1.9-8.3,6.1-3,9.9
		c4.6,3.4,11.4,1.4,16.7,1.6c13,0.5,22.2,8.3,24.7,21.2c5.1,26.3-7.9,54.1-20,76.6c-13.4,24.9-29.3,49.3-49.9,68.8
		c-12.2,11.5-32.6,25.5-47.9,10.4c-17.2-16.9-6.5-54.7-1-74.3c8-28.4,20.2-55.8,33.6-82c6.3-12.3,13.2-24.4,19.6-36.6
		c15.2-4.9,30.3-10,45.2-15.6c51.3-19.2,101.2-43,143.3-78.7c22.5-19.1,42.7-40.8,59.6-65c16.2-23.1,31.4-49.5,35.9-77.7
		c4-25.1-6.6-46.5-33.3-49.9c-29.1-3.7-57.3,7.1-81.3,22.7c-24.7,16-45.7,37-65.2,58.8c-20.1,22.5-39.6,45.6-57,70.3
		c-16.8,23.8-31.7,48.7-46.2,74c-7.3,12.9-14.6,25.8-21.7,38.8c-2.8,5.2-5.8,15.6-12,16.1c-6.6,0.5-13.2,0.3-19.8-0.7
		c-10.3-1.6-19.4-5.5-22.2-16.4c-0.8-3.3,0-7.3-2.3-10c-3.7-4.3-10.5-3.4-12.6,2c-4.4,11.4,4.7,24,13.2,30.7
		c10.9,8.6,26.1,10.1,39.5,8.5c-27.6,52.7-51.7,108.1-84.4,158c-3,4.6-8.2,9.7-10,15c-1.9,5.9,3.6,7.8,7.3,4
		c7.3-7.4,12.9-16.7,18.2-25.6c14.9-24.7,28.4-50.4,41.9-75.9c-13.7,28.3-35.9,66.9-26.8,99.4c9.8,35.3,50.7,35.1,79.6,27.6
		c36-9.3,62.6-35.9,80.6-67.6C2585,1688.4,2600.5,1645.1,2583.8,1610.9C2580,1603.1,2587.6,1618.7,2583.8,1610.9z M2537.6,1511
		c31.9-51,66.5-102.9,108.3-146.4c19.4-20.1,42-41.1,68.6-51c21.6-8.1,50.2-7.8,48.7,21.8c-1.3,26.4-18.2,52.7-32.8,73.8
		c-16.8,24.1-37,45.9-59.4,65c-44.8,38.3-99.7,64.8-155.9,81.8c-2.2,0.7-4.5,1.3-6.7,2C2518.2,1542.2,2527.9,1526.6,2537.6,1511
		C2548.6,1493.4,2526.6,1528.6,2537.6,1511z"/>
	<path fill="#D81B60" d="M2838.2,1712c3.8-7.2,7.6-14.4,11.3-21.7c2.4-4.8,9-13.8,7.1-19.5c-2.2-6.6-8.9,1.5-10.3,4
		c-3.4,6.8-6.9,13.5-10.4,20.2c-8.3,16-17.2,31.6-27.6,46.4c-8.1,11.6-18.8,28.3-32.9,33.3c-27.5,9.7-9.8-46.4-6.3-56.1
		c6.3-17.4,14.5-34.2,23.3-50.5c7.4-13.7,15.1-29.5,26.2-40.6c-12.1,2.2-23.7-4.9-35.7-1.5c-10.8,3-16.8,14.2-22.2,23.1
		c-15.2,25.1-27.9,51.6-44.6,75.8c-7.9,11.5-16.3,23.1-26.5,32.7c-8.4,7.8-21.2,18.1-33.5,16.1c-26-4.2-7.3-49.5-1.7-62.6
		c11.1-25.7,26.8-49.3,44.9-70.5c16.4-19.2,39-44.4,65.3-48.9c10.5-1.8,22.2,0.5,29,9.1c2.6,3.3,4.2,11.9,8.2,11.9
		c5.3,0,9.6-4.4,8.7-9.9c-1.7-10.6-17.7-19.4-26.7-22.7c-13.6-5-29-5-43.1-2c-67.1,14-118.5,86.6-124,152.8
		c-2.3,28,9.6,70.4,46.5,57.9c15.7-5.3,28.5-18.5,39.1-30.7c11.9-13.6,22.3-28.8,31.6-44.3c-7.4,26-12.7,80.9,30,77.4
		c17.6-1.6,31.4-16.8,41.9-29.6C2818.6,1746.5,2829,1729.3,2838.2,1712C2844.8,1699.6,2831.6,1724.4,2838.2,1712z"/>
	<path fill="#D81B60" d="M3059,1712.6c4-7.7,7.9-15.4,11.7-23.2c2.3-4.7,8.5-13.2,6.5-18.7c-2.9-8.1-9.8,2.9-11.1,5.5
		c-4.1,8.2-8.3,16.5-12.5,24.7c-8.5,16.8-18.1,33.4-29.6,48.3c-9.3,12.1-24.4,31.9-42.2,26.9c-40.8-11.5,54.4-172.1,78.7-185.3
		c-16.7,3.1-33.6-9-48,5.4c-12.4,12.4-19.8,29.9-27.9,45.1c-4.7,8.9-9.4,17.7-14,26.7c-3.6,7.1-6.7,14.7-16,14.3
		c-19-0.7-37.3-19.2-56.8-10.3c8.5-15.9,17.4-31.6,27.2-46.7c7.6-11.7,16.6-27.6,29.2-34.5c-10.6,1.9-20.6-3.4-31.3-2.2
		c-8.8,0.9-15.4,5.4-20.7,12.2c-13.7,17.3-23.1,38.7-33.1,58.3c-22.8,44.6-43.1,90.4-65.5,135.2c15.2-9.5,35.9,4.3,44.7-16
		c7.2-16.7,14.9-33.2,21.9-50c3.5-8.4,7.6-16.4,11.4-24.6c3.9-8.1,7-17.4,17.5-18.1c20.1-1.3,37.4,20.3,57.8,10.5
		c-7.9,17.2-18.5,33.6-15.9,53.3c2.4,17.7,10,38.1,29.7,42.4c19.8,4.4,37.5-10,50.2-23.4C3036.5,1752.1,3048.8,1732.5,3059,1712.6
		C3065.6,1699.8,3052.4,1725.4,3059,1712.6z"/>
	<path fill="#D81B60" d="M3527,1668.5c-7.4-3.4-17.5,24.2-19.9,29.1c-7.5,14.9-15.7,29.5-25.2,43.2c-8.4,12.1-18.8,27-32.5,33.5
		c-14.8,7-25.2-1.3-25.4-16.6c-0.4-30.9,19.2-62.3,33.4-88.6c8.1-14.9,16.5-29.6,25.7-43.8c7.6-11.7,16.6-27.6,29.2-34.5
		c-18.8,3.4-35.2-10.4-48.7,9.5c-5-17.9-23.5-22.4-40-19.7c-20.7,3.4-37,15.2-48.9,32.2c-18.6,26.5-34.5,81.6,11.5,89.6
		c-9.1,15.8-19.2,31.3-31,45.2c-10.5,12.4-23.2,26.9-40.3,29c-16.2,1.9-33.5-6.2-34.5-24.5c-0.5-9,15.3-33.9-4.5-35.4
		c3.9-7.2,7.6-14.6,11.2-21.9c3.2-6.3,7.9-13.4,9.3-20.4c1.3-6.5-5.4-8-8.8-2.9c-4.6,7.1-7.9,15.4-11.7,22.9
		c-9.1,18-18.8,35.9-30.9,52.1c-9.4,12.7-23.6,32.4-41.7,30.2c-33.1-4.1,5.4-77.2,12.7-91.3c9.5-18.3,19.4-36.4,30.3-53.9
		c8.4-13.5,18.7-32.7,33.1-40.6c-16.7,3.1-33.6-9-48,5.4c-12.4,12.4-19.8,29.9-27.9,45.1c-4.7,8.9-9.4,17.7-14,26.7
		c-3.6,7.1-6.7,14.7-16,14.3c-19-0.7-37.3-19.2-56.8-10.3c8.5-15.9,17.4-31.6,27.2-46.7c7.6-11.7,16.6-27.6,29.2-34.5
		c-10.6,1.9-20.6-3.4-31.3-2.2c-8.8,0.9-15.4,5.4-20.7,12.2c-13.7,17.3-23.1,38.7-33.1,58.3c-22.8,44.6-43.1,90.4-65.5,135.2
		c15.2-9.5,35.9,4.3,44.7-16c7.2-16.7,14.9-33.2,21.9-50c3.5-8.4,7.6-16.4,11.4-24.6c3.9-8.1,7-17.4,17.5-18.1
		c20.1-1.3,37.4,20.3,57.8,10.5c-6.3,13.8-15.5,27.8-16.3,43.2c-0.8,15.1,3.8,33.5,15,44.2c29.2,27.8,65.6-12.5,81.7-35.3
		c6.3,34,41.4,53.5,73.9,40.7c17.5-6.9,31.7-22.3,42.7-37c6.2-8.4,11.6-17.3,16.8-26.3c2.5-4.3,5-8.5,7.4-12.8
		c1.2-2.2,2.4-4.3,3.7-6.5c2.5-4.4,3.4-3.3,8.1-3.8c-10.7,22.1-19.3,42.9-10.5,67.7c8.2,23.1,34.6,26.9,53.9,15.6
		c21.6-12.6,37.3-36.4,49.7-57.4C3505.8,1722.1,3536.1,1672.7,3527,1668.5C3524,1667.1,3530,1669.9,3527,1668.5z M3376.1,1681.1
		c-9.8-22.4,8.7-48.2,20.7-65.7c6.7-9.7,13.7-18.8,25.7-21.9c10-2.5,24-1.1,26.8,10.6c5.2,22-14.8,48.7-24.5,67
		c-2.8,5.2-5.5,10.5-8.2,15.7c-3.8,7.6-5,7.3-13.7,7.5C3392.8,1694.5,3380.6,1691.5,3376.1,1681.1
		C3374.1,1676.5,3378.1,1685.7,3376.1,1681.1z"/>
</g>
</svg>
