<?xml version="1.0" encoding="utf-8"?>
<!-- Generator: Adobe Illustrator 18.0.0, SVG Export Plug-In . SVG Version: 6.00 Build 0)  -->
<!DOCTYPE svg PUBLIC "-//W3C//DTD SVG 1.1//EN" "http://www.w3.org/Graphics/SVG/1.1/DTD/svg11.dtd" [
	<!ENTITY ns_extend "http://ns.adobe.com/Extensibility/1.0/">
	<!ENTITY ns_ai "http://ns.adobe.com/AdobeIllustrator/10.0/">
	<!ENTITY ns_graphs "http://ns.adobe.com/Graphs/1.0/">
	<!ENTITY ns_vars "http://ns.adobe.com/Variables/1.0/">
	<!ENTITY ns_imrep "http://ns.adobe.com/ImageReplacement/1.0/">
	<!ENTITY ns_sfw "http://ns.adobe.com/SaveForWeb/1.0/">
	<!ENTITY ns_custom "http://ns.adobe.com/GenericCustomNamespace/1.0/">
	<!ENTITY ns_adobe_xpath "http://ns.adobe.com/XPath/1.0/">
]>
<svg version="1.1" id="Layer_1" xmlns:x="&ns_extend;" xmlns:i="&ns_ai;" xmlns:graph="&ns_graphs;"
	 xmlns="http://www.w3.org/2000/svg" xmlns:xlink="http://www.w3.org/1999/xlink" x="0px" y="0px"
	 viewBox="136.6 1379.3 337.6 200.1" enable-background="new 136.6 1379.3 337.6 200.1" xml:space="preserve">
<metadata>
	<sfw  xmlns="&ns_sfw;">
		<slices></slices>
		<sliceSourceBounds  width="327.3" height="194" x="141.7" y="-784.3" bottomLeftOrigin="true"></sliceSourceBounds>
	</sfw>
</metadata>
<g>
	<path fill="#D81B60" d="M337.6,1462.4c0.1-2-14.5-0.9-16.2-1c-7.8-0.1-15.7-0.3-23.4-1.3c6.8-16.4,12.7-34.4,24.7-47.8
		c7,3,13.5,6.7,20.6,9.5c8.3,3.2,17.2,6.4,26.2,6.9c7.4,0.4,18-2.4,20-10.8c0.1-0.6,1.2-7.4-1.2-5.1c-1.1,1.1-1.6,2.7-2.4,4
		c-1,1.6-2.4,2.9-4.1,3.7c-7.4,3.6-17.3,1.7-24.9-0.2c-8.9-2.2-17.6-5.1-26-8.7c-1.8-0.8-3.6-1.6-5.4-2.6c3-2.7,7-5.2,11.1-3.5
		c3.5,4,4.3-2.4,0.9-4.1c-3.4-1.7-7.8-1.1-11,0.8c-1.8,1-3.2,2.3-4.6,3.7c-0.8,0.8-0.6,1.1-1.6,0.5c-1-0.6-2-1.2-3.1-1.8
		c-15.4-8.8-32-15.9-49.2-20.1c-16.6-4-34.7-2.7-49.4,6.6c-13.8,8.7-25.7,26.6-19.8,43.3c5.9,16.6,28.7,19.1,42,10.7
		c3.3-2.1,6.4-4.8,8.6-8.1c1.5-2.2,4.7-7.3,3.8-10.2c-0.7-2-3,1.5-3.2,2.1c-0.6,1.3-0.3,2.7-1,4c-1.9,3.5-5.3,6.3-8.7,8.3
		c-7.1,4.2-16.4,6.3-24.4,3.2c-3.4-1.3-7-3.2-8.9-6.5c-2-3.6-1.9-8.2-1-12.1c3.9-16.8,20-28.4,36-32.5c26.1-6.6,53.7,5.1,76.7,16.6
		c-3.6,4.1-6.4,9.2-9.2,13.9c-3.9,6.4-7.5,13-10.8,19.7c-1.6,3.2-3.1,6.4-4.6,9.6c-0.8,1.8-1.5,3.6-2.3,5.3
		c-1.9-0.3-3.7-0.6-5.6-0.8c-7.3-0.9-14.7-1.5-21.9,0.3c-5.9,1.5-11.4,4.8-15.1,9.7c-1.3,1.8-4.9,6.3-3.1,8.5
		c1.4,1.7,4.6-3.3,5.6-4.2c10-8.7,25.4-6.6,37.5-6.6c-13.6,30.9-36.7,65.3-72.4,72c-33.4,6.3-75.7-15.4-70.4-54
		c1.2-8.6,4.9-15.9,11.7-21.4c2.8-2.3,5.9-4.2,8.6-6.6c1.5-1.3,0.1-1.3-1.1-1c-2.1,0.6-4,1.4-5.8,2.5c-15.3,9.2-20.1,28.7-17.1,45.5
		c3,16.6,13.5,30,28.5,37.5c15.6,7.8,34.2,8.7,51.2,5.3c12.5-2.4,24.5-7.9,34.5-15.9c10.7-8.6,18.9-20.2,25.4-32.1
		c3.5-6.4,6.4-13.1,9.1-19.9c1.3-3.2,2.5-6.3,3.7-9.5c0.2-0.7,0.5-1.4,0.7-2.1c0.8,0.1,1.7,0.2,2.6,0.2c1.7,0.1,3.5,0.2,5.2,0.3
		c6.9,0.3,13.7,0.1,20.6-0.4C326.3,1466,337.4,1466,337.6,1462.4C337.7,1461.5,337.5,1463.4,337.6,1462.4z"/>
	<path fill="#D81B60" d="M409.6,1485.6c-2.3-1-5,6.6-5.8,8.1c-2.2,4.3-4.6,8.5-7.3,12.5c-1.5,2.3-11.5,17.2-15.3,11.4
		c-1.6-2.4-0.6-6.5-0.2-9.1c0.8-4.5,2.5-8.7,4.3-12.9c2-4.5,4.2-8.9,6.6-13.2c1.9-3.3,3.8-7,6.6-9.7c-3.7,0.7-7.3-1.5-11-0.5
		c-3.3,0.9-5.2,4.4-6.9,7.1c-4.7,7.8-8.6,15.9-13.8,23.4c-2.4,3.6-5,7.1-8.2,10.1c-2.6,2.4-6.6,5.6-10.4,5c-8-1.3-2.3-15.3-0.5-19.3
		c3.4-7.9,8.3-15.2,13.9-21.8c5.1-5.9,12.1-13.7,20.2-15.1c3.2-0.6,6.9,0.2,9,2.8c0.8,1,1.3,3.7,2.5,3.7c1.6,0,3-1.4,2.7-3.1
		c-0.5-3.3-5.5-6-8.3-7c-4.2-1.5-9-1.5-13.3-0.6c-20.7,4.3-36.6,26.8-38.3,47.2c-0.7,8.7,3,21.8,14.4,17.9c4.9-1.6,8.8-5.7,12.1-9.5
		c3.7-4.2,6.9-8.9,9.8-13.7c-1.6,5.8-3.1,13.1-0.2,18.8c3.3,6.3,10.9,6.2,16,2.4c5.8-4.3,10-10.8,13.7-17
		C403,1501.8,412.3,1486.8,409.6,1485.6C408.8,1485.2,410.5,1486,409.6,1485.6z"/>
	<path fill="#D81B60" d="M464.9,1476c-3.3-0.9-7.4-1.3-10,1.4c-2.8,2.8-4.7,6.7-6.8,10.1c-4.6,7.6-9.3,15.3-15.3,22
		c-2.6,3-5.7,6.2-9.6,7.5c-3.6,1.3-7.3-1-7.9-4.7c-1.3-8.1,4-17.1,8.1-23.6c4.8-7.5,10.4-14.7,17.2-20.6c4.9-4.2,14.7-10.8,20.2-4
		c1.2,1.5,3.4,9,6.4,5.4c2.7-3.3-2.7-7.2-4.9-8.6c-7.7-4.8-17.3-4.5-25.4-1c-10,4.4-17.1,13.1-22.5,22.3c-5.3,9-10.9,21.3-7.1,31.8
		c1.4,4,5.2,7.6,9.4,8.5c5.3,1.2,10.5-1.5,14.5-4.9c3.8-3.2,6.5-7,9.4-11c2.9-4.2,6.5-8.4,8.7-13c-6.5,14.3-14,28.1-20.6,42.4
		c-3.3,7.1-6.7,14.3-9.4,21.7c-1.1,3-2.4,6.6-1.2,9.8c1.5,3.8,5.5,5.3,7.4,8.7c1-7.4,4.5-15,7.2-21.9c3.6-9.2,7.3-18.3,11.2-27.4
		c7.3-17.2,14.9-35.1,25.2-50.9C467.6,1476.4,466.2,1476.3,464.9,1476C463.5,1475.6,466.3,1476.3,464.9,1476z"/>
</g>
</svg>
