<?xml version="1.0" encoding="utf-8"?>
<!-- Generator: Adobe Illustrator 18.0.0, SVG Export Plug-In . SVG Version: 6.00 Build 0)  -->
<!DOCTYPE svg PUBLIC "-//W3C//DTD SVG 1.1//EN" "http://www.w3.org/Graphics/SVG/1.1/DTD/svg11.dtd">
<svg version="1.1" id="Layer_1" xmlns="http://www.w3.org/2000/svg" xmlns:xlink="http://www.w3.org/1999/xlink" x="0px" y="0px"
	 viewBox="0 0 292 126" enable-background="new 0 0 292 126" xml:space="preserve">
<g>
	<path fill="#D81B60" d="M150.5,78.2c0,0-0.1,0-0.1,0c0.1,0,0.2,0.1,0.2,0.1C150.6,78.2,150.6,78.2,150.5,78.2z"/>
	<path fill="#D81B60" d="M180.1,87.8c-0.1,0.2-0.1,0.3-0.2,0.5C180,88,180.3,87.4,180.1,87.8z"/>
	<path fill="#D81B60" d="M214.7,106.2C213.6,106.5,214.5,106.7,214.7,106.2L214.7,106.2z"/>
	<path fill="#D81B60" d="M283.6,87.8c0,0.1-0.1,0.1-0.1,0.2C283.6,87.8,283.7,87.5,283.6,87.8z"/>
	<path fill="#D81B60" d="M283.6,87.8c0-0.4,0-0.9,0-1.3c-0.3-0.2-6.7,10.5-7.9,11.6c-3.7,3.2-4.6-1.3-3.8-4.2
		c1.6-5.7,4.9-13.8,9.6-17.6c-5.5,0-6.4,1.1-9,6.2c-2.6,5.3-5.4,11.9-10.1,15.8c-6.4,5.3-2.3-7.2-1.4-9.2c1.9-4.2,3.9-10.1,7.9-12.7
		c-3.8,0-6.1-0.6-8.1,3.3c-1.2,2.5-2.6,4.8-3.8,7.4c-2.2,2.9-6.4,14.2-11.1,12.3c-5.3-2,0.6-9.7,2.4-12.2c2.6-3.7,4-13.2-3.8-10.1
		c-1.7,0.7-9,9.5-10.1,13c-1.7,2.7-3.6,6.1-4.1,6.7c-2.5,2.8-5.7,4.6-9.2,5.7c2.7-7.4,4.5-21.2,11.4-26.1c-4.6,0-6,0.2-8.2,4.6
		c-2.6,5-5.3,10.1-8.8,14.5c-3.7,4.7-8.5,4.9-6-2c2.1-5.8,5.2-13.1,9.9-17.1c-3.8,0-6.1-0.6-8.1,3.3c-1.2,2.5-2.7,4.9-3.8,7.5
		c-0.2,0.4-0.3,0.6-0.3,0.9c-1.9,2.9-5.9,9.3-6.8,10.1c-3.7,3.2-4.6-1.2-3.8-4.2c1.6-5.7,5-13.8,9.6-17.5c-1.5,0-3.9-0.4-5.4,0.3
		c-1.4-0.1-3.3-0.2-4.1,0.2c-1.7,0.9-2.6,2.8-3.4,4.5c-2.6,5.5-4.5,12.4-9.3,16.5c-5.4,4.9-5.8-1.1-6.7-4.1c1-1.8,1.8-3.6,2.6-5.4
		c-0.1,0.3,0.2,0.4,0.2-0.5c0-0.4,0-0.9,0-1.3c0-0.2-2.3,3-3.9,5.7c-0.1,0-0.1,0-0.2,0c-1.8,0.7-2.2,2-1.8,3.4c0,0,0,0,0,0.1
		c-1.9,2.3-4.4,4.2-7.6,4.2c-5.3,0-4.5-7-3.3-10.4c1.1-3.4,3.1-6.8,5.7-9.4c5.4-5.4,8.7-1.3,4.3,4.3c2.6,2.7,5.2-4,4.7-5.8
		c-0.8-2.9-4.1-3.3-6.6-2.8c-5.6,1.1-9.6,6.6-11.6,12c-2.1,3-6.4,10.3-8.1,11.1c-1.8,0.8-4.1,0.4-5.1-1.4c1.4-1.3,2.6-2.7,3.7-4.3
		c2.7-3.9,5.6-10.2,3.1-14.8c-2.6-4.9-8.9-1.6-11.9,1c-1.3,1.2-3,3.9-4.5,7c0,0,0.1,0,0.1,0c0,0,0,0,0,0c-1,0.7-0.8,1.5-1.2,2.3
		c-3.3,5.1-12.7,16.1-11,7.2c1-6.4,5.5-13.1,8.6-18.6c-6.4-2-16,9.1-19.3,13.2c1.9-3.9,4.6-11.3,8.7-13.5c-2.6,0.5-4.5-1.1-6.5,1.5
		c-1.5,2-2.6,4.4-3.7,6.7c-2.7,5.3-5.2,10.8-7.9,16.2c3.3-2,4.1,0.5,6.4-3.8c1.7-3.2,3.7-6.2,6-9c2.2-2.6,12-10.3,7-1.8
		c-1.9,3.1-6.9,12-1.1,14.1c5.1,1.8,8.9-3.6,11.5-8.4c-1.3,5.2-0.5,9.6,6,8.4c3.5-0.7,3.2-2.5,6.5-1c2.3,1.1,5,0.5,6.9-1.1
		c1.9-1.6,3.4-3.7,4.6-5.8c-0.5,6.4,4.6,9.7,10.9,7.8c2.2-0.6,4-2,5.5-3.7c1.6,2.3,5.1,4.3,7.7,3.5c6.1-1.9,8.7-11.4,10.8-16.5
		c0.9-2,2.2-5.9,4.6-6.6c0.6-0.2,1.1-0.2,1.7-0.3c-0.1,0.1-0.2,0.2-0.2,0.3c0-0.1,0-0.1-0.1,0.1c-2.4,5.5-8.6,14.5-6.2,20.8
		c2.7,7,8.8,0.4,12.4-5.4c-1.3,4.3,0.2,9.6,5.9,7.4c5.2-1.9,8.1-8.5,10.6-12.9c-1.5,4.8-3,9.7-5.2,14.3c-2,4-10.4,4.1-14.6,5.5
		c-4.6,1.6-9.7,4-11.3,9c-1.2,3.8,0.9,6.7,4.7,7.2c9.9,1.1,16.8-7.4,21.5-14.9c2.3-3.7,3.2-4.2,7.1-6c1.7-0.8,3.4-1.8,4.8-3
		c2.9-2.4,4.7-5.8,6.4-9.2c2.1-3.1,6.2-13.7,10.6-12.2c3.8,1.3-4.5,11.9-5.4,14.2c0.1-0.2,0.1-0.2,0,0.1c-0.3,1-0.2,0.5,0,0.1
		c-1.7,4.9,1.8,10.2,7.4,7.9c1-0.4,4.5-4.3,7.1-7.9c-1.4,4-0.5,9.7,5.1,8c3.9-1.2,6.5-5.7,8.4-9c-1.3,3.7-0.9,11.1,5.2,8.9
		c4.9-1.8,7.5-8.2,9.5-12.6C283.4,88.3,283.3,88.4,283.6,87.8z M143.2,94c0,3,2.3,3.7-1.4,5.1c-1.4,0.5-3.1,0.5-3.7-1.1
		c-1.8-5.3,5.4-21.3,12.3-19.9c-0.1,0-0.2-0.1,0.1,0c0.2,0.1,0.2,0.1,0.1,0c5.1,1.8-1.4,13.5-2.9,15.7
		C148.8,90.7,143.4,89.6,143.2,94z M192.9,120.9c-4.9-9.3,17.1-13.6,21.9-14.8C212.8,109.5,197.2,129.2,192.9,120.9z"/>
</g>
<g>
	<path fill="#5D4037" d="M120.9,5C120.9,5,120.9,5,120.9,5C120.9,5,121.4,4.7,120.9,5z"/>
	<path fill="#5D4037" d="M163,62.9c-1.9,1.6-4.3,1.4-6.6,0.8c-6.4-1.6-12-3.2-16.6,2.8c0,1.5,2.8-0.6,2.9-0.7c2.5-2.1,6.2-0.9,9,0
		c5.5,1.7,10.5,1.5,14-3.7C165.8,62,163.3,62.7,163,62.9z"/>
	<path fill="#5D4037" d="M151.9,49.7C151.3,50.8,151.5,51.2,151.9,49.7L151.9,49.7z"/>
	<path fill="#5D4037" d="M165.6,62.1C165.2,62.7,165.7,62,165.6,62.1L165.6,62.1z"/>
	<path fill="#5D4037" d="M189.8,28.9C189.8,29.1,189.7,29.3,189.8,28.9C189.9,28.5,189.8,28.7,189.8,28.9c0.7-4-5.4-3.5-6,0
		C183.3,33,189.2,32.4,189.8,28.9z"/>
	<path fill="#5D4037" d="M192.1,44.5c-0.2-0.1-6.6,10.5-7.7,11.6c-3.2,3.2-5.7,0.5-4.8-3c-0.1,0.3-0.2,0.7,0-0.2
		c2-4,3.5-8.3,5.3-12.4c0.5-1.1,2.1-3.8,1.7-5c-0.3-1.2-5-0.6-5.9-0.5c1.8,2.5,0,6.7-1.9,10.6c-1.8,2.6-6.1,9.7-7.1,10.6
		c-3.7,3.2-4.6-1.3-3.8-4.2c1.6-5.7,4.9-13.8,9.6-17.6c-5.5,0-6.4,1.1-9,6.2c-2.4,4.9-4.9,10-8.5,14.2c-6.2,7.1-5.4-2.8-3.6-6.9
		c2-4.6,4-10.2,8-13.5c-5.5,0-6.4,1.1-9,6.2c-2.6,5.3-5.4,11.9-10.1,15.8c-6.4,5.3-2.3-7.2-1.4-9.2c1.9-4.2,3.9-10.1,7.9-12.7
		c-3.8,0-6.1-0.6-8.1,3.3c-1.2,2.5-2.7,4.9-3.8,7.5c-0.4,0.9-0.5,1.4-0.5,1.7c-2.8,4.4-9.3,13.4-9.9,9.5c-0.8-4.9,3.5-13.3,6.9-16.7
		c-2,0.4-4.1-1.2-5.7,0.8c-1.7,2.1-2.8,4.7-4.2,7c-1.8,3-5.1,9.7-9.3,9.7c-5.2,0,1.4-11.4,2.6-13c1.9-2.8,9.2-12.4,13.5-8
		c2.9,3,2.3-0.5,0-1.8c-2.7-1.5-6.2-1-8.9,0.2c-4.7,2-8.2,6.2-10.3,10.9c-0.4,0.9-0.9,2.4-1.3,4c-4.2,6.2-11.7,15-12.3,6.5
		c-0.4-5.8,1.9-11.8,3.7-17.2c1.1-3.2,1.3-2.8,4.5-3.5c0.2,0,4.8-1.5,4.1-2.3c-0.4-0.5-6.2,0.6-7,0.6c2-5.9,4.5-11.6,7.4-17.1
		c1.7-3.2,4.2-9.3,7.5-11.3c0,0,0,0,0.1,0c0.3-0.2,0.7-0.5,1-0.7c0-0.8-5.4,1.3-5.9,1.7c-2,1.7-3.5,4.4-4.9,6.7
		c-2.7,4.6-4.8,9.5-6.9,14.5c-0.9,2.1-1.7,4.2-2.5,6.3c-2.8,0-5.6-0.2-8.4-0.5c-5.3-0.4-10.7-0.8-16-0.8c2.4-6.7,4.8-13.6,7.7-20.1
		c1.7-3.8,2-2.9,5.5-4.2c1.6-0.6,3.6-1.7,4.3-3.3c1.1-2.8-1.6-3.8-3.9-3.2c-2.6,0.9-4,3.7-5.5,5.8c-6.8,0.7-13.7,0.6-20.4,1.7
		c-11,1.8-27.5,10.7-21,24.6c2.8,5.9,10,8.1,15.5,4.7c3.2-2,5.6-5.4,6.1-9.2c0.1-0.7,0.1-5.7-1.7-5.1c0,0-0.1,4.9-0.2,5.3
		c-0.8,3.3-2.6,7.4-6.1,8.6c-6.7,2.5-11-3.6-9.9-9.8C51,10.2,70.6,10.6,84.5,8.9c-3.4,6.9-6.6,13.9-9.6,21c-1.8,4.4-0.9,0.8-3.7,2.3
		c-0.9,0.1-5.7,2.1-4.8,3.7c0.6,1,5.8-1.3,6.6-1.3c-6.4,16.6-20.9,32-39.9,32.2c-7.8,0.1-16.8-3-19.5-11c-1.4-4.2-0.6-9,1.6-12.8
		c1.4-2.5,4.9-3.9,6.1-6c0.5-1-4.2,1.2-4.4,1.3c-1.9,1.5-3.7,3.5-4.7,5.7c-2.2,4.7-1.9,10.9,0.3,15.5c5.8,12.1,22.3,13.8,33.7,10
		C58.5,65.4,67.8,54.4,73.4,43c1.3-2.7,2.5-5.5,3.4-8.3c2.9,0.2,5.7,0.3,8.6,0.4c5.3,0.2,10.6,0.6,15.8,0.6
		c-1.7,4.9-10.7,25.1-0.4,26.3c3.4,0.4,8.4-5.2,11.7-10.1c-0.4,3.3,0.1,6.6,3.4,7.2c4.7,0.9,8.7-5.9,10.7-9.2
		c-0.9,3.1-1.5,9.7,3.6,9.3c3.5-0.3,6.2-4.1,8.2-7.8c-1.1,3.9-0.1,9.1,5.2,7.4c3.9-1.2,6.5-5.7,8.4-9c-1.1,3.4-1.1,11,4.8,9
		c3.7-1.3,6.5-5.7,8.2-9c-1.3,3.7-0.9,11.1,5.2,8.9c1-0.4,3.7-3.3,6.1-6.4c-0.5,4,1.6,8.4,6.5,6.5C184.7,57.9,194.5,45.8,192.1,44.5
		z M91.8,3.5c3,0-3,3.3-3.8,3.5C88.4,6.3,90.8,3,91.8,3.5z"/>
	<path fill="#5D4037" d="M179.7,52.9c0,0.1,0,0.1,0,0.2C179.7,52.9,179.7,52.9,179.7,52.9z"/>
</g>
</svg>
