<?xml version="1.0" encoding="utf-8"?>
<!-- Generator: Adobe Illustrator 18.0.0, SVG Export Plug-In . SVG Version: 6.00 Build 0)  -->
<!DOCTYPE svg PUBLIC "-//W3C//DTD SVG 1.1//EN" "http://www.w3.org/Graphics/SVG/1.1/DTD/svg11.dtd">
<svg version="1.1" id="Layer_1" xmlns="http://www.w3.org/2000/svg" xmlns:xlink="http://www.w3.org/1999/xlink" x="0px" y="0px"
	 viewBox="0 1092 732 116" enable-background="new 0 1092 732 116" xml:space="preserve">
<g>
	<path fill="#D81B60" d="M231.2,1162.1c6.7-7.5,11.5-16.8,13-26.8c0.7-4.3,5.7-6.2,8.8-9.4c0.7-0.8,8.6-9.6,6.5-10.2
		c-0.6-0.2-12.6,12.2-14.5,13.5c0.8-19.7-13.1-33.5-32.7-34.2c-18.2-0.6-40.2,10.8-38.1,31.7c0.3,3.5,1.7,6.6,3.9,9.3
		c3.9,4.5,3.1,3.6,1.7,9.8c-1.8,8.1-1.3,17.5,3.5,24.5C195.4,1188.3,220.6,1174.2,231.2,1162.1
		C233.8,1159.3,228.7,1165,231.2,1162.1z M179.6,1127.6c-4-27,36.4-41.7,52.8-21.4c3.3,4.1,5.3,9.2,6.1,14.4
		c0.4,2.9,0.5,5.8,0.4,8.7c-0.2,5.1-5.4,5.9-9.8,7.5c-12,4.4-28.4,7.9-40.5,1.9c3.1-7.1,7.8-13.7,13-19.3c2.5-2.7,5.3-5.3,8.5-7.2
		c1.4-0.8,2.9-1.5,4.4-2c1.4-0.5,7.1,0.6,7.9-0.4c1.4-1.8-7.7-3-8.3-2.9c-4.7,0.4-9,2.6-12.7,5.5c-7.6,5.9-13.8,14.2-17.9,22.9
		C181.4,1133.3,180,1130.6,179.6,1127.6C179,1123.2,180,1130.8,179.6,1127.6z M218.4,1169.1c-7.7,6.2-19.5,10.3-28.2,3.6
		c-8.9-6.9-6.4-21.5-3-30.5c15.9,6.5,36.5,1.5,51-6.2C236.8,1148.4,228,1161.3,218.4,1169.1C215.8,1171.3,221.1,1166.9,218.4,1169.1
		z"/>
	<path fill="#D81B60" d="M391.6,1134.7c4.9,0,7-8.2,1.3-8.2C388,1126.5,386,1134.7,391.6,1134.7z"/>
	<path fill="#D81B60" d="M513.8,1134.7c4.9,0,7-8.2,1.3-8.2C510.2,1126.5,508.2,1134.7,513.8,1134.7z"/>
	<path fill="#D81B60" d="M558.6,1152.2c1,0.5-16.6,26.6-17.2,15.1c-0.3-7.7,8.1-24.5,14.7-28.1c-3.1,0.6-5.9-1.7-8.1,1.6
		c-3.9-14.1-30.4,13.9-12.9,17c-2.2,3.8-11.4,18.4-16.8,10.5c-2.2-3.3,4.6-15.5,3.6-16.1c-0.8-0.5-10.4,16.4-12.8,17.5
		c-7.5,3.8-3.8-7.5-2.6-10.5c2.3-5.4,4.6-10.8,6.9-16.2c2.4-5.6-3.2-4.3-7.3-4.2c4.7,6.3-8.5,25.8-12.5,29.3
		c-8.2,7.1-4.4-8.4-3-11.5c2.8-6.4,5.5-14.1,11-18.7c-7.7,0-8.8,1.3-12.5,8.6c-3.7,7.4-7.6,16.5-14,21.9c-8.1,6.7-4.3-7.7-2.8-10.8
		c3-6.4,5.8-15.6,11.9-19.7c-5.3,0-8.5-0.8-11.2,4.6c-3,6-6,12.2-9.4,17.9c-1.1,1.9-11.1,15.4-10.4,6.1c0.5-6.8,4.8-16.4,9.7-21.3
		c-2.2,0.4-4.2-1-6.3-0.1c-3,1.2-4.6,6-6,8.6c-2.9,5.1-6.1,11.5-11.1,14.8c-7.6,4.8-5.2-6.3-3.6-9.8c2.9-6.4,7.5-12.7,13.2-17
		c2.1-1.6,4.7-3.1,7.5-2.4c1.7,0.5,2.8,1.6,3.3,3.4c2-0.2,2.4-1.2,1.1-2.9c-5.3-5.8-14.6-2.7-19.8,1.4c-9.6,7.4-10.8,27.2-23.9,29.8
		c1.8-5.6,2-14-5.8-13.8c4.8-2.9,9.4-7.9,9.8-13.8c0.3-10.3-13.3-5.4-17-0.6c-3.6,4.7-5.9,10.8-8.8,16c-0.8,1.5-11.7,18-13.4,9.4
		c-1.1-5.8,4.9-15,7-20c1-2.4,2.5-4.9,3.1-7.5c0.6-3-6.5-1.9-8.1-1.8c4.6,6.2-8.1,25.2-11.9,29.2c-7.3,7.5-6.2-4.6-4.6-8.5
		c2.5-5.8,6.9-17.1,12.8-20.4c-2.8,0.5-5.6-1.5-8,0.9c-2.5,2.5-4,6.2-5.6,9.3c-4.5,8.5-6.7,0.2-13.5,3.4c2.2-4.1,5.1-11.2,9.4-13.6
		c-6.2,1.1-7.8-0.7-11.3,5.9c-3.8,6.9-6.8,14.5-11.7,20.8c-3.9,5-7.8,5.3-6.4-1.9c1.3-6.1,4.8-14.2,9.3-18.7c-6.3,1.1-7.4-0.8-11,6
		c-2.9,5.4-6,11.7-10.7,15.9c-3.3,3-8.3,3.4-7.4-2.5c1-6.8,5.9-13.6,10.4-18.5c2.7-3,9.9-10.2,14.3-5.6c0.4,0.7,0.8,1.5,1.2,2.2
		c2-0.2,2.4-1.2,1.1-2.9c-2.9-3.2-7.4-3.7-11.5-2.7c-13.5,3.3-15.5,15.7-22.2,25.6c-2.1,3.1-7.1,10.3-11.4,6
		c-3.8-3.8,1.4-10.7,3.6-14c2.4-3.5,6.3-8.1,4.7-12.6c-2.4-6.7-10.4-3-13.7,0.6c-2,2.1-17.9,32.9-21.8,26.6c-3.8-6,9.2-24.9,12-29.8
		c-8.8-2.7-22.4,12.7-26.9,18.4c1.7-4.5,3.4-9.4,4-14.2c0.9-7.3-3-5.9-8.4-4.9c6.3,1.4-3.9,16-2.7,17.7c1.1,0.2,1.9-0.4,2.4-1.6
		c-1.6,7.4-5.5,14.6-8.8,21.3c-3.4,7-6.9,17.2-12.5,22.7c3.7-0.7,6.7,2.1,9.4-2c1.3-2,2.1-4.2,2.9-6.3c2.5-6.1,4.9-12.2,7.4-18.2
		c3-7.5,7.2-14.3,13.1-19.9c1.7-1.6,5.8-6.5,8.7-5.8c2.4,0.6-4.3,10.8-5,12.3c-5.9,13.5,6.7,17.6,14.5,6.7
		c3.3-4.7,11.2-27.3,19.1-24.7c5.4,1.8-6.5,16.8-7.6,19.8c-1.5,4.4-0.9,9.8,4.2,11.2c6.9,1.9,11.5-3.8,14.8-9
		c-0.3,4.3,1.4,10.5,7,9.4c5.6-1.1,9.9-8.2,12.5-12.7c-2.6,9.1,3.2,18.1,11.5,8.6c-0.8,1.6-1.6,3.2-2.4,4.8c2.2-1.4,5.7,0.6,7.2-2.1
		c1.3-3,2.6-5.9,3.9-8.9c0.9-2.2,2.1-7.4,5.3-7.1c3.1,0.2,5.9,3.3,9.2,1.7c-2,4.4-4.1,8.7-1.3,13.4c5.2,7.3,12.7-1.7,15.7-6.2
		c-0.4,3.2,0.5,7.2,4,8.2c6.5,2,11.2-4.9,14-9.7c3.5-6,6.8-19.6,15.2-20c12.5-0.5-1.7,15.7-7.3,17.2c-2.8,1,1.4,1.7,3.1,1
		c5.2-2.2,6.2,1.3,5.6,6.1c-0.8,6.5-2,7-8.2,8.9c-6.7,2-13.5,4.1-19.8,7.3c-4.3,2.2-8.6,5.1-10.2,9.9c-1.8,5.7,2.5,10.5,8.2,10.6
		c10.4,0.3,21.2-8.4,27.2-16.1c3.1-4.1,5.6-8.8,7.3-13.6c5.9-1.1,9.8-5.9,12.8-10.8c-0.3,4.3,1.3,10.7,7,9.6
		c5.6-1.1,9.9-8.2,12.5-12.7c-1,3.7-2.3,10.6,2.4,12.5c6.5,2.5,11.6-6.8,14.1-11.3c-2.2,5-1.3,11.5,5.3,11.5
		c6.2,0,10.9-8.2,13.5-12.8c-1.4,4.2-2.1,12.8,4.6,12.8c-4.7,3.6-12,10.1-12.3,16.5c-0.2,3.7,3.2,4.9,6.3,4.3
		c2.6-0.4,7.7-6.1,7.4-6.1c-1.9,0.2-5.8,6-8.1,2.3c-1.7-2.7,0.4-6.2,1.9-8.5c4.4-6.7,11.5-10.6,15.8-17.4
		c-1.4,10.5,9.2,10.3,14.5,3.9c2.2,5,8.4,6.9,13.1,4c3.8-2.4,8.5-13.3,11.7-13.7c-2,4.1-5,15,3.2,15
		C547.4,1172.8,561.8,1153.7,558.6,1152.2C558.1,1152,559.1,1152.4,558.6,1152.2z M404.3,1185.7c-2.5,3.4-24.1,24.4-27.3,12.5
		c-4-14.9,24-19.3,32.5-22.1C408.2,1179.5,406.5,1182.7,404.3,1185.7C402.2,1188.6,406.5,1182.8,404.3,1185.7z M533.4,1154.3
		c-1.6-3.6,1.3-7.7,3.2-10.5c1.9-2.8,10.3-7.5,9-0.3C545,1146.9,537.6,1163.8,533.4,1154.3C533.1,1153.5,533.8,1155.1,533.4,1154.3z
		"/>
</g>
</svg>
