<?xml version="1.0" encoding="utf-8"?>
<!-- Generator: Adobe Illustrator 18.0.0, SVG Export Plug-In . SVG Version: 6.00 Build 0)  -->
<!DOCTYPE svg PUBLIC "-//W3C//DTD SVG 1.1//EN" "http://www.w3.org/Graphics/SVG/1.1/DTD/svg11.dtd">
<svg version="1.1" id="Layer_1" xmlns="http://www.w3.org/2000/svg" xmlns:xlink="http://www.w3.org/1999/xlink" x="0px" y="0px"
	 viewBox="0 1080 1262 334" enable-background="new 0 1080 1262 334" xml:space="preserve">
<g>
	<path fill="#D81B60" d="M392,1264.4c-1.6-1.2-17.7,29.5-20.2,33c-6.2,8.9-16.3,19-28.1,15.2c-10.9-3.5-15-16.1-16.1-26.3
		c-1.5-12.7-0.6-33,10.8-40.3c6.2-3.9,25.4-13.6,30.4-3.1c2.5,5.3,10.4,0.1,12.2-4c3.2-7.2-0.9-12.8-8.2-13.8
		c-25.3-3.3-49.1,25.6-63,43c5.8-11.7,14.5-32.2,26.6-38.9c-8.6,1.6-16.3-4.3-23.2,3.9c-6.8,8.1-11.2,18.5-15.9,27.8
		c-10.3,20.1-19.4,40.8-29.5,61c4-2.5,9.6-1.3,14.2-1.9c6.5-0.8,8.3-10.2,10.5-15.3c5.2-12.2,11.3-22.9,19.4-33.5
		c-5.6,26.3,8.1,54.9,38.2,49.5c11.8-2.1,20.6-13.2,26.8-22.6C379.7,1294,396.7,1267.9,392,1264.4z"/>
	<path fill="#D81B60" d="M606.5,1265.8c-2.8-1.3-19.2,31.4-22.3,35.4c-5.5,7.2-24.9,22.1-23.9,2.6c0.7-14.2,8.8-28.4,14.8-40.9
		c6.3-13.2,11.8-26.5,23.3-36c-9.5,0-19.3-0.6-28.8,0.2c-19,1.6-24.6,29.2-31,43.5c-6.2,13.9-16.2,39.2-33.3,42.4
		c-7.1,1.3-17.6-1.2-16.5-10.8c0.4-3.8,5.9-20.4-6-13.7c2.3-4.2,10.2-16,9.1-21.1c-1-4.7-5,0.9-5.6,2.1c-2.3,4.6-4.5,9.3-6.8,13.9
		c-6,11.6-23.2,42.3-40.3,28c-4.5-3.8-1.9-4.7,1.4-8.1c3.5-3.7,6.7-7.7,9.6-11.9c5.3-7.8,9.6-16,12.2-25
		c4.3-14.8,4.8-40.8-16.6-40.8c-18.4-0.7-34.6,17-43.8,31c-9.5,14.3-19.4,36.8-11.6,53.9c3.7,7.9,11.4,11.1,19.8,10.6
		c4.2-0.3,8.2-1.7,12-3.6c2-1,4-2.1,5.9-3.4c4.5-3,3.2-1,7.2,1.5c17,10.5,33.1-4.2,42.1-17.8c-0.9,12.4,10.2,21.9,21.6,22.9
		c15,1.4,24.1-10,31.4-21.5c8.5-13.5,13.9-28.6,20.3-43.1c4.6-10.6,9.7-24.9,23.2-24.7c-8.5,13-14.4,30.5-19.9,45
		c-4.3,11.3-11.3,30-1.1,40.4c11.4,11.7,27.3-2.2,34.5-11.5C590.4,1301.3,611.7,1268.3,606.5,1265.8
		C605.1,1265.2,607.8,1266.4,606.5,1265.8z M425.8,1286.5c-4,6.9-2.2,15.3,2.1,21.6c-5.1,4.3-17,11.8-22.6,4.1
		c-9.3-12.9,5.7-40.4,12.3-51.3c4.7-7.9,33.6-43.1,39.8-19.3c4.4,17.2-7.3,38.9-16.6,52.5C443.7,1285.2,430.7,1277.9,425.8,1286.5
		C424.4,1288.8,427.2,1284.1,425.8,1286.5z"/>
	<path fill="#D81B60" d="M662.7,1304.7c6.1-8,10.4-16.9,14.6-25.9c1.5-3.2,3.9-6.8,4.7-10.3c1-4.6-4.8-0.3-5.6,1.6
		c-7.4,16.5-17.8,39.3-36.6,45.5c-22.1,7.2-23.9-16.1-19.4-31.7c1.3-4.6,1.6-4.1,5.9-4.9c5.2-0.9,10.4-2.4,15.3-4.3
		c9.9-3.8,18.5-9.7,25.2-18c5-6.2,10.7-15.5,7.8-23.8c-2.9-8.3-13.1-9.7-20.5-8.1c-20.2,4.3-35.7,24.2-44,41.9
		c-7.1,15-13.7,39.8,3,51C630,1329,651.5,1319.1,662.7,1304.7C666.7,1299.5,658.7,1309.9,662.7,1304.7z M630.3,1262.9
		c5.6-9.4,12.6-18.3,20.7-25.7c5.3-4.8,18.8-12.9,16.8,1c-2.8,19-25.1,36.2-43.9,36.2C625.8,1270.5,628.1,1266.7,630.3,1262.9
		C633.3,1257.8,627.3,1268,630.3,1262.9z"/>
	<path fill="#D81B60" d="M782.3,1268.9c0.2-0.6,1.2-6.6-1.9-4.6c-2.4,1.5-3.7,6.5-4.9,8.9c-3.1,6.3-6.3,12.5-9.9,18.5
		c-6,10-16.1,23.8-29.5,21.4c-11.1-2-16.3-13.6-18-23.6c-1.8-10.8-2.3-34.7,7.5-41.7c7.1-5,24.2-14.9,32.2-6.5
		c2.3,2.4,0,3.7,4.5,3.6c2.8-0.1,5.6-1.5,7.3-3.7c4.4-5.4,3.1-13.5-3.8-15.6c-25.3-7.6-52.4,25.5-65.8,42.4
		c5.8-11.7,14.5-32.2,26.6-38.9c-8.6,1.6-16.3-4.3-23.2,3.9c-6.8,8.1-11.2,18.5-15.9,27.8c-10.3,20.1-19.4,40.8-29.5,61
		c4-2.5,9.6-1.3,14.2-1.9c6.5-0.8,8.3-10.2,10.5-15.3c5.2-12.2,11.3-22.9,19.4-33.5c-5.3,24.6,6.4,53.2,35.1,50
		C760.9,1318.7,773.9,1288.1,782.3,1268.9C783.2,1266.7,776.9,1281.3,782.3,1268.9z"/>
	<path fill="#D81B60" d="M821.5,1217.2c8,2,10.7-6.2,18.3-7.5c9.6-1.6,19.8,2.4,28.8,5.1c19.9,5.9,37.5,3.3,49.8-15.1
		c0.2-0.2-6.6-1.8-6.6-0.3c-3.1,3.9-7.4,7-12.4,7.8c-9.9,1.6-19.8-2.5-29.2-5c-19.8-5.3-36.8-2.7-49.9,14.2
		C820.7,1216.7,821.1,1216.9,821.5,1217.2C822.2,1217.4,820.7,1217,821.5,1217.2z"/>
	<path fill="#D81B60" d="M927.8,1265.8c-3.1-1.5-17.1,27.8-19.3,31.1c-2.6,3.8-25.5,31-27.1,13.3c-1.1-12.1,6.4-25.1,11.3-35.7
		c6.6-14.7,14.3-28.9,22.2-43c-11.2-3.7-30,10.4-38.5,16.3c-13.5,9.4-24.7,21.2-34.9,34.1c5.4-11,11.9-21.4,17.2-32.4
		c1.9-3.9,5.1-8.8,3.6-13.3c-1.9-5.8-8.7-5.7-13.3-3.6c-11.1,5.1-20.1,14.4-29.1,22.4c-9.2,8.2-17.6,17.2-25.2,26.9
		c4.7-9.7,9.8-19.2,15.3-28.5c4.4-7.4,9.9-18.7,17.8-23c-8.6,1.6-16.3-4.3-23.2,3.9c-6.3,7.5-10.5,17.2-14.9,25.8
		c-10.5,20.6-19.7,41.8-30.1,62.5c5.9-3.7,16,1.6,19.4-6c5.1-9.8,10.5-19.4,16.7-28.5c5.6-8.3,12-16.3,19.2-23.2
		c4.7-4.5,12.2-13.8,19.3-14.7c5.7-0.7-4.1,19.6-4.9,21.4c-4.7,10.1-10.3,20.1-12.5,31.1c-1,4.8-1.7,9.7,0.9,14.1
		c1.9,3.3,6.4,6.8,7.9,2c3.2-10.3,9.4-19.8,15.5-28.6c5.6-8.2,11.8-16,18.7-23.2c5.5-5.8,13.7-14.7,22.1-16.1
		c10.1-1.7-4.3,19.7-5.7,22.1c-4.7,8.2-8.9,16.6-10.4,26.1c-3.5,22.3,18.5,29.4,33.8,15.6C904,1310.7,934.8,1269.1,927.8,1265.8
		C926.4,1265.2,929.2,1266.4,927.8,1265.8z"/>
	<path fill="#D81B60" d="M1024.8,1286.9c1.3-2.5,11.5-19,7.5-20.8c-3.7-1.7-10.1,15.5-11.5,18.1c-3.3,6.2-21.7,39.7-32.2,28.4
		c-9.2-10,5-33.6,9.4-43.2c6.9-15,13.2-31.5,26.2-42.2c-4.6,0-9.1,0-13.7,0c-10,0-11.9,6.2-15.8,14.3
		c-10.8,22.3-21.7,47.1-38.9,65.3c-3.6,3.8-14.5,13.4-18.5,4.8c-4.4-9.4,2.7-22.2,6.6-30.5c8.2-17.4,15.9-42.8,32.6-53.9
		c-7,0-21.4-2.6-26.2,3.8c-5.5,7.4-9,17.5-13.2,25.7c-1.5,2.9-13.1,20.3-5.7,20.3c-5.9,11.8-19.2,36.1,0.6,43
		c20.2,7.1,36.3-19.8,44.3-34c-4.3,13-4.7,37.7,15.5,34.8C1007.7,1318.5,1018.4,1299.6,1024.8,1286.9
		C1027.8,1281.1,1021.9,1292.6,1024.8,1286.9z"/>
	<path fill="#D81B60" d="M1099.3,1298.2c13-17.3,29.6-57.8,1.7-70.3c-4-1.8-10.6-3.9-15-2.1c-8,3.3,3.8,5.2,6.2,5.3
		c14.3,0.6,12.5,17.6,9.6,27.3c-3.7,12.8-11.2,25.2-19,35.8c-5.5,7.4-15.2,21-25.8,20.6c-25.4-0.8-2.1-54,2.7-64.2
		c2.5-5.4,5.1-10.7,8-15.9c1.5-2.7,2.9-5.4,4.4-8.1c2.1-4,4.5-3.8,8.6-5.2c13.8-4.6,27.3-9.9,40.4-16.1c24.9-12,47.2-29,63.6-51.3
		c9.5-12.9,35-55.6,4.6-60.9c-28.7-5-53.3,20.2-70.4,39.5c-22.2,25.1-39.4,52.8-55.3,82.2c-2.2,4-1.9,6.1-6.8,6.2
		c-3.9,0.1-8.6,0-12.3-1.8c-5.4-2.5-3.1-7.3-6-10.7c-5.6-6.5-6.3,6.5-4.2,9.9c4.9,7.8,13.8,10,22.5,8.9
		c-12.9,24.6-24,50.6-39.6,73.7c-1.1,1.6-3.4,3.8-3.6,5.8c-0.2,1.9,1.5,3,3,1.7c3.2-3,5.6-6.9,7.9-10.6c7.2-11.7,13.6-24,20.1-36.2
		c-7.1,14.8-24.4,46.6-2.5,57.3C1062.2,1329,1087.3,1314.2,1099.3,1298.2C1103.1,1293.1,1095.5,1303.3,1099.3,1298.2z
		 M1091.8,1193.9c15-24,31.4-48.5,51.3-68.7c8.8-8.9,19.4-18.3,31.6-22.1c10.6-3.2,21.3-1,19.9,12c-2.6,25-26.4,49.3-44.8,64.4
		c-20.6,16.8-45.8,28.6-71.3,35.8C1082.9,1208.2,1087.3,1201,1091.8,1193.9C1096.8,1185.9,1086.8,1202,1091.8,1193.9z"/>
	<path fill="#D81B60" d="M1249.6,1266.3c-3.4-1.7-18.7,29.2-21.1,32.7c-9.7,13.6-23.7,22.2-39.4,27.1c6.8-18.7,12.8-37.7,19.6-56.4
		c5.4-15,10-33,23.7-42.7c-4.6,0-9.1,0-13.7,0c-8.7,0-10.9,4.1-14.5,11.4c-10.7,22-22.7,44.7-38.4,63.6c-3.7,4.5-12.7,16-20,12.3
		c-8-4-1.9-19.8,0.4-25.5c8.8-21.1,18.8-46.8,36.3-61.8c-7,0-21.4-2.6-26.2,3.8c-5.5,7.4-9,17.5-13.2,25.7
		c-1.5,2.9-13.1,20.3-5.7,20.3c-4.6,9.1-10.6,18.1-9.7,28.9c0.9,10.9,10.4,16.5,20.8,15c22-3.2,35.4-33.1,45-50.1
		c-5.4,17.9-11.1,35.9-19,52.8c-2.1,4.5-2.9,8.4-7.9,9.7c-4.5,1.2-9.1,2.5-13.7,3.6c-10.4,2.7-21,4.9-31.3,8.1
		c-16.5,5.2-35.7,13.2-43.9,29.5c-10.1,19.2,1.7,33.4,21.9,33.4c40.2,0,65.3-39.1,83.2-69.9c3.5-5.9,15.1-7.9,21.4-11.1
		c8.4-4.2,16.2-9.6,22.5-16.7C1230.2,1306,1254.8,1269,1249.6,1266.3C1248.3,1265.7,1250.8,1267,1249.6,1266.3z M1161.8,1346.3
		c-9,15.6-22.6,29.9-36.6,41.2c-8.1,6.5-35.2,25.3-43.4,9.6c-8.4-16,14.1-33.7,26.3-39.1c18.1-7.8,37.8-12.2,56.9-17
		C1163.9,1342.7,1162.9,1344.5,1161.8,1346.3C1160.8,1348,1162.8,1344.5,1161.8,1346.3z"/>
</g>
<g>
	<path fill="#5D4037" d="M119.3,1142.6c3.3,0.8,3.8-1.4,6.5-2.8c4.2-2.3,10.3-0.1,14.5,1.2c10.1,3.1,19.1,2.7,25.5-6.8
		c0.3-0.3-2.6-0.3-2.6-0.3c-1.3,0.1-2.9,2.5-4.1,3.2c-4.4,2.3-10.4,0.1-14.8-1.2c-4.7-1.4-10-2.7-14.9-1.4
		C127.3,1135,118,1142.3,119.3,1142.6C119.6,1142.7,118.9,1142.6,119.3,1142.6z"/>
	<path fill="#5D4037" d="M313.2,1142.6c3.3,0.8,3.8-1.4,6.5-2.8c4.2-2.3,10.3-0.1,14.5,1.2c10.1,3.1,19.1,2.7,25.5-6.8
		c0.3-0.3-2.6-0.3-2.6-0.3c-1.3,0.1-2.9,2.5-4.1,3.2c-4.4,2.3-10.4,0.1-14.8-1.2c-4.7-1.4-10-2.7-14.9-1.4
		C321.2,1135,311.9,1142.3,313.2,1142.6C313.5,1142.7,312.8,1142.6,313.2,1142.6z"/>
	<path fill="#5D4037" d="M396.4,1166.2c-2.4,0-4.3,6.7-5.1,8.3c-2.1,4.3-5,8.4-8.5,11.6c-7.3,6.6-17.1,5.7-16.3-5.8
		c0.3-5,0.6-7.3,5.2-8.3c3.8-0.8,7.7-2.2,11-4.2c5.2-3.1,16.4-14.4,8.9-20.3c-8.6-6.1-19.9,4.8-24.6,11.3
		c-6.1,8.4-8.5,18.7-15.5,26.6c-9.5,10.7-10.2-0.8-7.1-8.5c3.8-9.5,8.6-18.5,13.6-27.4c-5.4-1.8-14.4,5-18.5,7.8
		c-6.5,4.5-11.9,10.2-16.8,16.4c3-6.2,6.8-12.1,9.6-18.4c2-4.4-2.1-7.1-6-5.3c-10.1,4.6-19.3,15.1-26.1,23.6
		c3.4-7.1,8.5-20.7,15.9-24.7c-3.7,0.7-7.3-2-10.5,1.2c-2.7,2.7-4.3,6.4-6,9.7c-3,5.6-5.4,13.4-10.9,17c-2.5,1.6-5.5,2.1-8.3,0.9
		c-3.2-1.3-1.1-4.7-2.3-7.6c-1.3-3.1-7.3-7.6-9.1-1.4c-1.1,3.8,2.3,7.1,5.2,9c0.7,0.4-3.1,6.2-3.1,6.3c-1.8,2.7-10.3,10.7-11.3,2.8
		c-0.9-7,4.6-14.7,7.7-20.6c2.8-5.1,6.5-14.2,11.9-17.1c-4.7,0.9-8.3-2.1-11.8,2.7c-2.9,4-5.1,8.7-7.3,13.1
		c-4,7.7-7.4,19.8-15.6,24.2c-10.5,5.6-2.7-14.8-1.2-17.8c3.3-6.5,7.9-18.6,14.7-22.3c-3.7,0.7-7.3-2-10.5,1.2
		c-3.3,3.3-5.2,8.2-7.4,12.2c-1.2,2.3-2.3,7.2-5.9,6.6c-3.9-0.5-7.8-4.1-11.8-2.2c2.9-5.3,6.7-14.7,12.4-17.8
		c-3.7,0.7-7.3-2-10.5,1.2c-3.3,3.3-5.2,8.1-7.3,12.2c-4,7.8-7.6,15.9-13.2,22.7c-7,8.4-9.3,2-7-5.6c2.1-7.3,6.2-17,11.7-22.5
		c-5,0.9-8.2-2.1-11.7,3.2c-3.7,5.6-6.4,11.7-10.2,17.3c-2.8,4.2-6.2,9.4-11.2,11.2c-5.5,2-5.7-4.5-4.8-8.1
		c2.4-9.4,8.8-18.3,15.6-24.9c3-3,7.1-6.5,11.5-6.7c3.2-0.1,7.6,6.3,8.8,3.6c1.5-3.3-5.5-6.2-7.6-6.6c-5.8-1.1-11.7,0.8-16.7,3.8
		c-11,6.7-13.3,18.4-19.6,28.5c-2.4,3.8-5.4,8.7-9.6,10.9c-6.1,3.1-5.3-4.6-4.3-7.8c3.4-11.2,9.6-21.8,15.3-32
		c-5.4-1.8-14.4,5-18.5,7.8c-6.5,4.5-11.9,10.2-16.8,16.4c3-6.2,6.8-12.1,9.6-18.4c2-4.4-2.1-7.1-6-5.3
		c-10.1,4.6-19.3,15.1-26.1,23.6c3.4-7.1,8.5-20.7,15.9-24.7c-3.7,0.7-7.3-2-10.5,1.2c-2.7,2.7-4.4,6.6-6.2,10
		c-3.9,7.4-7,15.4-12.1,22.1c-10.3,13.6-27.7,20-44.5,19.2c-16.7-0.8-29.2-9.1-31.2-26.5c-1.6-13.8,2.3-34.3,10.8-45.6
		c15.9,33,84.4,31,84.3-11.9c-0.1-19.7-20.4-27.2-37-27.3c-19.2-0.1-36.2,9.5-47.8,24.5c-0.6-2.9-2.2-27.5-1.9-27.5
		c-4,0-3.4,15-3.3,17.5c0.2,3.8,0.6,7.5,1.3,11.3c0.9,4.8-2,6.6-4.4,10.7c-8.5,14.4-13.5,33.1-9.6,49.7c9,38.4,61.4,35.9,82.7,10.1
		c-1.1,2.3-2.2,4.6-3.4,6.9c2.3-1.4,5.2-0.4,7.6-1.1c3.1-1,6.1-9.8,7.8-12.5c4.7-7.5,10.7-15,18-20c7.2-5-1.9,13.3-3,15.6
		c-1.7,3.8-4,8.6-3.4,12.9c0.2,1.7,1,3,2.3,4c2.9,1.8,2.7-1.9,3.5-3.8c3.7-8.1,9.3-15.7,15.5-22c2.6-2.7,6-6.1,9.7-7.3
		c5.3-1.6-0.2,7.1-0.6,7.8c-3.5,5.9-11.4,18.8-3.8,24.7c8.3,6.6,17.2-5.5,20.9-11.5c-0.5,6.6,3,15.9,11.4,11.8
		c6.3-3,10.8-10.1,14.3-15.9c-3.6,12.6,4.7,23.2,15.1,11.2c-1,2.1-2.1,4.3-3.1,6.4c2.9-1.8,7.5,0.8,9.5-2.8
		c1.7-3.9,3.5-7.8,5.1-11.7c1.2-2.8,2.8-9.7,7-9.3c4.1,0.2,7.8,4.3,12,2.3c-2.8,6-6.1,13.6-0.3,19.2c6.1,5.8,13.7-2.1,17.2-6.8
		c0.2,10.2,11.9,10.3,18.1,5.4c3.3-2.6,5.8-6.3,7.3-10.2c4.3,1.6,9.1,1.7,12.9-1.2c-2.3,5-4.7,10-7.2,14.9c2.3-1.4,5.2-0.4,7.6-1.1
		c3.1-1,6.1-9.8,7.8-12.5c4.7-7.5,10.7-15,18-20c7.2-5-1.9,13.3-3,15.6c-1.7,3.8-4,8.6-3.4,12.9c0.2,1.7,1,3,2.3,4
		c2.9,1.8,2.7-1.9,3.5-3.8c3.7-8.1,9.3-15.7,15.5-22c2.6-2.7,6-6.1,9.7-7.3c5.3-1.6-0.2,7.1-0.6,7.8c-3.5,5.9-11.4,18.8-3.8,24.7
		c8.9,7,18.3-6.8,21.9-13.1c-1,11.5,9.5,17.6,19.9,13.4c5.5-2.3,9.5-7.4,12.3-12.4C392,1178.1,398.1,1166.2,396.4,1166.2z
		 M372.3,1164.6c1.3-2.3,18.8-22.8,18.1-12.5c-0.6,9.3-12,18.1-21.2,18.1C370.1,1168.2,371.2,1166.4,372.3,1164.6
		C373.7,1162.1,370.8,1167,372.3,1164.6z M42.2,1111.8c12.5-12.1,30.3-20.2,47.7-14.8c17.5,5.5,21.8,25.5,10.3,39.2
		c-10.9,12.9-30.3,15.4-45.8,10.6c-6.9-2.1-13.3-6-17.7-11.8c-2.3-3-4.1-6.3-5.4-9.8C34.4,1120.3,38.1,1115.8,42.2,1111.8
		C46.3,1107.8,38.1,1115.7,42.2,1111.8z"/>
	<path fill="#5D4037" d="M560.5,1142.6c3.3,0.8,3.8-1.4,6.5-2.8c4.2-2.3,10.3-0.1,14.5,1.2c10.1,3.1,19.1,2.7,25.5-6.8
		c0.3-0.3-2.6-0.3-2.6-0.3c-1.3,0.1-2.9,2.5-4.1,3.2c-4.4,2.3-10.4,0.1-14.8-1.2c-4.7-1.4-10-2.7-14.9-1.4
		C568.5,1135,559.1,1142.3,560.5,1142.6C560.8,1142.7,560.1,1142.6,560.5,1142.6z"/>
	<path fill="#5D4037" d="M809.6,1167.5c-1.3-0.5-12.5,21.1-17.5,22.6c-2.2,0.6-4.9,0.3-6.7-1.2c-3.1-2.6,1.4-4.5,3.1-6.7
		c4.4-5.4,7.8-11.8,8.8-18.8c1.7-12-7-18.8-17.9-12.1c-5,3.1-9,7.5-12.1,12.4c-1.8,2.9-1.1,4.9-4.8,3.4c-2.7-1.1-5.8-2.2-8.6-0.8
		c2.8-5.2,6.6-14.3,12.1-17.3c-4.7,0.9-8.3-2.1-11.8,2.7c-3.2,4.4-5.5,9.6-8,14.4c-2,0.7-4.1,7.7-5,9.4c-2.4,4.5-5.5,10-10,12.7
		c-3.3,2-8.3,1.6-10.2-2.1c4-3.8,7.4-8.3,9.9-13.1c3.4-6.5,7.7-20.8-1.1-25.4c-8.2-4.2-17.7,4.2-22.4,10
		c-6.8,8.3-9.2,19.1-16.2,27.3c-1.5,1.8-8.2,8.1-9.9,2.9c-1.4-4.5,1.1-10.3,3.1-14.2c3.4-7.1,8.5-20.7,15.9-24.7
		c-3.7,0.7-7.3-2-10.5,1.2c-3.3,3.3-5.2,8.2-7.4,12.2c-1.2,2.3-2.3,7.2-5.9,6.6c-3.9-0.5-7.8-4.1-11.8-2.2
		c2.9-5.3,6.7-14.7,12.4-17.8c-4.7,0.9-8.3-2.1-11.8,2.7c-3,4.1-5.2,8.9-7.4,13.4c-3.8,7.6-7.2,16.4-13.8,22.1
		c-9.8,8.5-6.9-8.2-5.1-12.5c3.8-9.2,7.8-20.8,15.7-27.3c-6.3,0-10.5-0.9-13.5,5.5c-5.2,10.8-10.4,22.5-18.3,31.6
		c-1.5,1.8-6.6,7.4-9.4,4.3c-3.5-3.8,1-11.9,2.7-15.4c3.9-8.4,7.5-20.5,15.7-25.9c-6,0-11.2-1.2-14.2,4.9
		c-4.3,8.7-8.5,17.9-13.7,26.2c-2.4,3.8-5.4,8.7-9.6,10.9c-6.1,3.1-5.3-4.6-4.3-7.8c3.4-11.2,9.6-21.8,15.3-32
		c-5.4-1.8-14.4,5-18.5,7.8c-6.5,4.5-11.9,10.2-16.8,16.4c3-6.2,6.8-12.1,9.6-18.4c2-4.4-2.1-7.1-6-5.3
		c-10.1,4.6-19.3,15.1-26.1,23.6c3.4-7.1,8.5-20.7,15.9-24.7c-6.3,1.2-9.3-1.7-13.3,4.9c-4,6.6-7.4,13.8-10.6,20.8
		c-2.8,6.1-17.5,25.2-24.6,12.9c-5.6-9.7,2.1-23.6,8.5-31.1c2.3-2.7,8.4-9.3,12.6-6.9c4.7,2.6-1,10.3-3,12.8c3.9,3.9,17.7-16-0.3-16
		c-12.8,0-19.7,12.8-24.7,22.6c-2.5,4.8-5,9.6-8.2,14c-1.5,2.1-9.4,10.9-9.8,3.6c-0.4-9.1,6.4-23.2,12.8-29.6
		c-5,0.9-8.2-2.1-11.7,3.2c-3.7,5.6-6.4,11.7-10.2,17.3c-2.7,4.1-7.4,11.6-13.2,11.6c-5.1,0-3.2-7.6-2.2-10.4
		c3.6-10.2,10.7-20.5,19.6-26.8c3.4-2.4,9.5-4.8,12.5-0.3c3,4.6,4.3-0.7,0.4-3.4c-8.9-6.4-22.5,0.4-28.5,7.8
		c-7.9,9.4-10.1,21.6-18.5,30.6c-4.6,5-7.6,1.5-6.4-4c1.5-6.5,4.7-12.5,7.7-18.3c1.5-3,6.5-10.4,4.5-13.7c-6,0.7-12.1,1-18.1,0.5
		c4.8-3.3,10.7-10.3,5.8-16.1c-5.9-6.9-7.9,8.7-8.6,11.3c-2,7.6-4.6,15-7.9,22.1c-1.2,2.5-11.5,17.5-10.5,19.1
		c1.5,2.3,14.4-22.1,15.3-24.4c0.5-1.1,2.2-8.1,3.4-8.8c3.3,0.1,12.6,0.5,10.1,6.2c-3.6,8.2-12.4,17.3-9.3,27
		c4.4,13.8,18.2-2,21.5-7.5c-0.5,6.6,2.9,16.1,11.4,11.9c6.3-3,10.8-10.1,14.3-15.9c-1.6,5.7-2.7,17.7,6.6,16.9
		c7.2-0.7,12.4-10.4,15.5-16c-2.4,16.1,15.4,20.8,26.6,11.7c-0.8,1.6-1.5,3.1-2.3,4.7c2.3-1.4,5.2-0.4,7.6-1.1
		c3.1-1,6.1-9.8,7.8-12.5c4.7-7.5,10.7-15,18-20c7.2-5-1.9,13.3-3,15.6c-1.7,3.8-4,8.6-3.4,12.9c0.2,1.7,1,3,2.3,4
		c2.9,1.8,2.7-1.9,3.5-3.8c3.7-8.1,9.3-15.7,15.5-22c2.6-2.7,6-6.1,9.7-7.3c5.3-1.6-0.2,7.1-0.6,7.8c-3.5,5.9-11.4,18.8-3.8,24.7
		c9,7,18.4-7,22-13.3c-2,5.1-2,12.9,5,14c9.5,1.5,16.1-9.7,20-16.6c-4,12,4.5,23,15.4,12c-1,1.9-1.9,3.9-2.9,5.8
		c2.9-1.8,7.5,0.8,9.5-2.8c1.7-3.9,3.5-7.8,5.1-11.7c1.2-2.8,2.8-9.7,7-9.3c4.1,0.2,7.8,4.3,12,2.3c-2.8,6-6.6,15.9,1.2,20.3
		c8,4.5,15.7-7.3,19-12.8c-0.7,9.2,5.6,15.9,15,12c2-0.9,3.9-1.9,5.6-3.3c1.5,1.6,3.5,2.7,5.6,3.1c4.9,0.9,8.8-1.1,12.3-4.5
		c-1.1,2.2-2.2,4.5-3.3,6.7c5.2-3.3,7.6,1.5,10.8-5.8c2.1-4.7,4.2-9.4,6.3-14.1c3.2-6.7,7.7-3,13.1-1.4c-2,5.7-3.6,14.3,1.4,19.1
		c3.9,3.8,10.2,2,14.3-0.4c4.5-2.6,7.7,2.7,13.6,1.2C796.7,1191,814,1169.1,809.6,1167.5C808.9,1167.2,810.3,1167.7,809.6,1167.5z
		 M716,1175.9c-1.9,3.3-1,7.3,1,10.4c-2.4,2-7.5,5.3-10.5,2.4c-5.6-5.5,2.7-20.5,5.8-25.5c2.2-3.6,14.6-19.2,18.5-9.8
		c3.3,8-3.2,19.8-7.6,26.2C724.5,1175.3,718.4,1171.7,716,1175.9C715.3,1177,716.6,1174.7,716,1175.9z M779.2,1176.2
		c-1.9,3.2-1.1,7.2,1,10.2c-2.3,1.9-7.4,5.4-10.2,2.4c-5.3-5.5,2.5-19.9,5.6-25c2.2-3.6,14.4-19,18.2-9.6c3.1,7.6-3.2,19.6-7.5,25.7
		C787.5,1175.7,781.6,1172.2,779.2,1176.2C778.5,1177.3,779.8,1175.1,779.2,1176.2z"/>
</g>
</svg>
