<?xml version="1.0" encoding="utf-8"?>
<!-- Generator: Adobe Illustrator 18.0.0, SVG Export Plug-In . SVG Version: 6.00 Build 0)  -->
<!DOCTYPE svg PUBLIC "-//W3C//DTD SVG 1.1//EN" "http://www.w3.org/Graphics/SVG/1.1/DTD/svg11.dtd">
<svg version="1.1" id="Layer_1" xmlns="http://www.w3.org/2000/svg" xmlns:xlink="http://www.w3.org/1999/xlink" x="0px" y="0px"
	 viewBox="0 0 536 155" enable-background="new 0 0 536 155" xml:space="preserve">
<g>
	<path fill="#D81B60" d="M143.3,83.4c0.3-3.2,0.2-1.8,0-0.2c1.1-12-0.8-24.2-6.2-34.9c-4.7-9.3-11.9-17.3-20.4-23.3
		c-2.9-2.1-1.5-2.1,0.2-4.7c1.1-1.6,2.2-3.1,3.3-4.7c1.8-2.6,4-4.2,6.4-6.2c3.5-3-4-0.6-5.2,0.1c-3.2,1.9-6.6,3.9-9.3,6.5
		c-0.9,0.9-2.3,3.7-3.5,4c-4.4-2.3-8.9-4.3-13.7-5.7c-19.1-5.9-41.3-4.4-59.5,3.9c-15.3,7-33.4,24.4-21.1,42.2
		c10.9,15.7,38.1,10.9,40.8-8.8c0.3-1.9-2.5-3.2-2.8-1.3c-0.1,1.8-1,3.6-1.7,5.2c-1.8,3.7-4.8,6.8-8.4,8.7c-7,3.8-17.9,3.2-22.8-3.9
		C8.3,43.6,32.7,25.1,45.8,19.9c19.2-7.6,41.3-6.3,59.1,4.5c-20.1,22.5-28,52.8-47,75.9c-1.6,1.9-4.7,7-7.1,5.8
		c-2.4-1.2-4.7-2.5-7.1-3.7c-5.8-2.9-11.5-6-17.9-7.4c-6.1-1.3-13.2-1.2-18.5,2.4c-5.8,3.8-7.9,11.8-3.5,17.5
		c8,10.2,26.7,8.5,37.3,4.2c3.6-1.5,7-3.5,10.1-5.8c3.1-2.3,5.6,0.1,9,1.4c5.9,2.2,12.1,3.8,18.3,5c14.7,3,29.7,3.6,43.3-3.9
		c11.9-6.7,20.1-18.5,21.5-32.2C143.1,85.1,143,86.5,143.3,83.4z M10.4,107.8c-0.3-19.5,30.7-1.7,38,1.7
		C40.6,114.9,10.7,126.5,10.4,107.8z M134.5,83.7c-0.2,1.6-0.2,1.5-0.1,0.9c-2.3,16.3-15.4,29.6-31.5,32.7c-15,2.9-32.8-2-46.5-8.1
		c12-9.6,20.3-24.3,28.4-37c9.1-14.3,17.5-29,26.6-43.3c16.4,12.9,24.8,32.9,23.2,53.6C134.7,81.7,134.7,81.6,134.5,83.7z"/>
	<path fill="#D81B60" d="M134.5,83.7c0-0.4,0.1-0.9,0.1-1.3c-0.1,0.6-0.2,1.7-0.2,2.3C134.5,84.3,134.5,84,134.5,83.7z"/>
	<path fill="#D81B60" d="M48.3,109.4C45,107.8,44.4,112.2,48.3,109.4L48.3,109.4z"/>
	<path fill="#D81B60" d="M182.7,68.1c-0.7-0.1-7.3,0.1-4.2,2.4c1.1,0.8,3.1,0.3,4.3,0.4c3.6,0.3,5.3,3.2,5.5,6.6
		c0.4,8.2-4.8,16.7-9.2,23.3c-3,4.5-10.3,15.4-17.1,12.1c-7.2-3.6-1.6-18.7,0.4-23.9c1.9-5,4-9.8,6.5-14.5c1-1.8,2-3.6,2.9-5.4
		c1.4-2.7,3.2-2.6,6-3.6c8.7-3,17.3-6.4,25.3-10.9c15.2-8.5,33.1-24.6,35.7-42.8c1.6-11.1-9.4-12.8-17.9-10.2
		c-9,2.7-16.6,9.8-22.8,16.7c-13,14.4-23,30.4-32.1,47.4c-3.2,0.3-8.6,0.6-10.2-3c-0.6-1.2-0.6-5.3-3.2-3.6
		c-2.9,1.9,0.9,6.7,2.5,7.9c2.5,2,6.1,2.4,9.2,2c0.8-1.5,2.2-4.2,0,0c0,0,0,0,0,0c0,0,0,0,0,0c-6.6,12.7-12.3,26.2-20.5,38
		c-1.2,1.7-1.7,5.3,0.8,2.5c1.5-1.7,2.7-3.6,3.8-5.5c3.4-5.7,6.5-11.6,9.7-17.5c-0.7,1.4-1.3,2.8-2,4.2c-3.1,6.9-8.8,19.1-0.2,24.5
		c6.8,4.2,17.5,1.1,23.3-3.4C189.9,103.6,205.6,71.4,182.7,68.1z M201.3,24.7c4.8-5.9,10.1-11.6,16.5-15.8
		c3.5-2.3,12.3-6.9,15.7-2.2c4,5.5-2.8,15.7-5.7,20.1c-3.9,5.9-8.7,11.2-14.1,15.9c-10.7,9.3-24,15.8-37.6,19.7
		c-0.2,0.1-0.5,0.1-0.7,0.2C183.4,49.7,191.6,36.7,201.3,24.7z"/>
	<path fill="#D81B60" d="M164.3,69C164.3,69,164.3,69,164.3,69C163.9,70,163.6,70,164.3,69z"/>
	<path fill="#D81B60" d="M175.3,62.8c0.2-0.1,0.5-0.1,0.7-0.2C182.5,60.6,177.2,59.7,175.3,62.8z"/>
	<path fill="#D81B60" d="M254.7,88.7c-1.1,0.8-1.7,2.8-2.3,3.9c-1.7,3.2-3.3,6.4-5.3,9.4c-1.2,1.9-9.5,15.1-12.7,10.6
		c-2.9-4.1,1.5-13.1,3.2-16.9c2.4-5.5,5.4-12.5,9.7-16.8c-4.9,0.9-8.4-2.4-12,2.8c-3,4.3-5.2,9.1-7.9,13.6
		c-2,3.3-14.8,24.3-20.1,15.8c-6.9-11,23.1-50.2,33.9-38.9c0.9,1,2.5,5.6,4.1,2c1-2.3-2.6-4.7-4.2-5.5c-4.5-2.5-10.2-2.1-14.9-0.5
		c-10.3,3.4-17.8,12.2-22.1,21.8c-2.8,6.2-8.3,26.3,4,26.7c8.8,0.3,15.8-11.4,19.6-17.9c-1.9,6.7-1.5,22.9,10,17
		c8.8-4.4,13.9-16.6,18-25c0.2-0.5,0.2-0.4,0-0.1C255.9,90.4,256.6,87.3,254.7,88.7z"/>
	<path fill="#D81B60" d="M358,87c0.1-0.1,0.2-0.2,0.3-0.2c0.1-0.1,0.3-0.3,0.4-0.4C358.5,86.6,358,87,358,87z"/>
	<path fill="#D81B60" d="M372.8,90.8c-0.2,0.4-0.3,0.7-0.5,1.1C372.4,91.7,373.1,90.2,372.8,90.8z"/>
	<path fill="#D81B60" d="M357.8,113.6c7.3-5.2,10.9-13.9,14.5-21.8c0,0,0.1-0.2,0.5-1.1c1.5-3-1.7-1.9-2.5-0.1
		c-0.7,1.6-1.5,3.3-2.3,4.9c-2.4,4.8-5.1,9.5-8.9,13.2c-6.9,6.8-18.7,8.6-18.4-4c0.1-2.7,0.6-5.4,1.4-7.9c0.7-2.2,2-1.5,4.2-1.9
		c5.4-1.2,10.8-3.3,15.1-6.9c4.7-4,13.9-15.9,4.4-20c-9.6-4.1-20.4,6.9-25.1,13.9c-1.5,2.2-3,4.8-4.4,7.6c-0.2-1-1.4-1-2.3,0.8
		c-1.4,2.9-2.9,5.7-4.5,8.5c-2.6,4.7-5.8,9.2-10,12.5c-9.2,7.1-19.1,2.5-18-9.3c0.8-9.5,6.4-19.7,13.3-26.2c2.2-2.1,9.4-8.2,12-3.5
		c2.2,4-2.1,9.5-4.4,12.3c4.5,4.5,9.6-6.1,9.4-9.4c-0.3-6.2-6.4-8-11.7-7.4c-13,1.5-21.4,15.6-24.8,26.9
		c-3.8,12.5,0.7,23.6,15.1,22.5c12.4-0.9,18.7-11.5,23.5-21.7c-1.5,4.9-1.8,10,0,14.4C337.8,119.1,350.8,118.7,357.8,113.6z
		 M359.2,72.4c4.1-3.1,8.1-2.6,6.4,3.6c-1.1,4-3.7,7.6-6.8,10.3c0.3-0.2,0.3-0.2-0.4,0.4c-0.2,0.2-0.3,0.2-0.3,0.2
		c-3.9,3-9.4,5.9-14.5,5.9C347.3,85.4,352.4,77.5,359.2,72.4z"/>
	<path fill="#D81B60" d="M424.4,89.8c-1.1,2.1-2.1,4.2-3.2,6.3c-3,5.7-6.8,12.8-12.2,16.5c-6.7,4.6-6.6-3.4-5.4-7.6
		c3.3-11.9,10.3-23.3,16.3-33.9c-6.4-2-16.7,6.1-21.3,9.6c-6.1,4.5-11.4,10.1-16.1,16.1c2.5-6.7,5.7-14.7,5.7-22
		c0-3.2,0.3-6.2-3.6-5.8c-2.8,0.2-5.5,0.7-8.2,1.2c4.2,0.9,1.2,11.6,0.4,14.1c-0.5,1.6-5,9.4-4.2,10.6c0.8,1.2,3.2-2.1,3.4-2.3
		c-2.4,11-8.3,21.9-13.3,31.9c-2.9,5.7-5.8,11.5-8.9,17.1c-2.1,3.9-4.2,9.1-7.4,12.3c3.3-0.6,6.4,1.6,9.8,0.3
		c2.7-1.1,4.2-4.3,5.4-6.8c4.3-10.7,8.7-21.5,13-32.2c4.7-11.6,11.9-21.4,21.4-29.6c1.6-1.4,11.7-8.3,8.9-1.1
		c-2.2,5.8-6.8,10.5-8.6,16.6c-1.6,4.9-2.7,13.3,3.6,15.6c6.8,2.4,12.2-2.3,16.2-7.3c4.4-5.5,7.5-11.9,10.6-18.2
		C427.4,88.7,425.5,87.3,424.4,89.8z"/>
	<path fill="#D81B60" d="M479.2,91c-0.1,0.2-0.2,0.3-0.2,0.5C479.2,91.1,479.6,90.3,479.2,91z"/>
	<path fill="#D81B60" d="M530.4,92.4c-1.6,3.2-3.2,6.4-5.1,9.4c-1.9,3.1-9.7,15.9-14.6,10.8c-3.5-3.6,0.9-12.6,2.6-16.1
		c0.4-0.8,0.5-1,0.4-0.8c3.6-7.8,8.9-21.2,16.5-25.4c-2.8,0.5-5.8-1.4-8.6-0.3c-1.1,0.5-2,1.3-2.7,2.4c-0.7-2.2-2.3-3.9-5.2-4.4
		c-10-2-17.6,7.9-19.6,16.5c0.1-0.4,0.1-0.6,0,0.2c-0.1,0.5-0.1,0.4,0,0.1c-1,4.6,0.4,9.1,5,11c0.5,0.2,1.2,0.4,1.9,0.5
		c-0.3,0.4-0.6,0.9-1.1,1.6c-1.7,2.9-3.6,5.6-5.7,8.2c-3.1,3.8-6.7,7.7-12.1,7.4c-8.7,0-2.8-13.5-6.9-13.9c1.4-2.8,2.7-5.6,3.8-8.1
		c-0.2,0.4-0.3,0.6,0.2-0.5c0.2-0.4,0.9-3.9-1.1-2.5c-1.3,0.9-2.1,3.7-2.8,5.1c-2,4-4.1,7.9-6.6,11.5c-2.3,3.3-13,13.5-13.1,3.3
		c-0.1-7.5,4.6-15.3,7.8-21.8c3.2-6.5,5.9-13.7,11.6-17.7c-2.4,0-4.8,0-7.3,0c-5.7,0-6.7,5.1-8.9,9.5c-5.3,10.7-10.6,22.8-19.2,31.4
		c-2.7,2.7-8.8,6.2-9.4-0.2c-0.4-5.1,2.2-9.9,4.3-14.3c4-8.7,7.9-21,16.2-26.6c-5.8,0-11.8-1.4-14.7,4.6c-2.3,4.6-4.6,9.1-7,13.7
		c-0.7,1.3-4.8,7.1-1.3,7.1c-3,6-10.1,20.4,1.6,22.2c10,1.6,17.1-10.2,21.2-17.6c-2.2,6.5-1.7,18.2,6.4,18c-2.2,1.6-4.1,3.3-4.5,3.7
		c-4.6,4.3-9.6,9.6-11.8,15.7c-6.3,17.2,21.5,7,18.8,1.2c-0.2-0.4-7.1,4.3-8.5,4.3c-4.6,0-4.4-4.9-3.2-8.1c2.7-7.2,9-13.7,14.9-18.5
		c3.3-1.7,6-4.6,8.3-7.9c0.5,2.2,1.5,4.4,2.5,5.8c2.4,3.3,6.4,4.4,10.3,4.4c10.3,0,16.6-12.5,20.9-20.5c0.5,0,1,0,1.4-0.1
		c-2.6,5.3-5,11.4-1.6,16.8c5,7,12.6,2.6,17.1-2.4c3.3-3.7,6-8,8.3-12.4c1.2-2.4,4.4-6.5,4.3-9.3C534.1,85.9,530.6,92.1,530.4,92.4z
		 M501.3,93.9c-3.7-1.6-3.9-6.1-2.6-9.4c1.7-4.9,8.7-17.8,15.7-12.9c3,2.1,0.5,7.6-0.6,10.1c-0.1,0.2-0.3,0.6-0.5,1.1
		c-1.9,3.4-3.8,6.9-5.5,10.4c-0.2,0.4-0.4,0.8-0.6,1.3C505,94.2,501.9,94.1,501.3,93.9z"/>
</g>
</svg>
