<?xml version="1.0" encoding="utf-8"?>
<!-- Generator: Adobe Illustrator 18.0.0, SVG Export Plug-In . SVG Version: 6.00 Build 0)  -->
<!DOCTYPE svg PUBLIC "-//W3C//DTD SVG 1.1//EN" "http://www.w3.org/Graphics/SVG/1.1/DTD/svg11.dtd">
<svg version="1.1" id="Layer_1" xmlns="http://www.w3.org/2000/svg" xmlns:xlink="http://www.w3.org/1999/xlink" x="0px" y="0px"
	 viewBox="0 0 292 120" enable-background="new 0 0 292 120" xml:space="preserve">
<g>
	<g>
		<path fill="#5D4037" d="M114.7,8c-3.3,1.9-5.9,8.1-7.5,11.3c-2.9,5.5-5.3,11.2-7.4,17.1c0.9,0,6.6-1.1,7-0.6
			c0.7,0.8-3.9,2.3-4.1,2.3c-3.3,0.7-3.5,0.2-4.5,3.5c-1.8,5.4-4,11.5-3.7,17.2c0.8,12.1,15.8-11.1,15-11.4
			c1.9,0.8-9.1,18.3-15,17.6c-10.3-1.2-1.3-21.5,0.4-26.3c-5.3,0-10.6-0.3-15.8-0.6c-2.9-0.1-5.7-0.2-8.6-0.4
			c-0.9,2.8-2.1,5.6-3.4,8.3c-5.6,11.4-14.9,22.3-27.2,26.5c-11.4,3.8-27.9,2-33.7-10C4,57.9,3.8,51.7,5.9,47c1-2.2,2.8-4.2,4.7-5.7
			c0.2-0.1,4.9-2.3,4.4-1.3c-1.2,2.2-4.6,3.6-6.1,6c-2.2,3.8-3,8.6-1.6,12.8c2.7,8,11.7,11.1,19.5,11c19-0.2,33.5-15.6,39.9-32.2
			c-0.8,0-6,2.3-6.6,1.3c-0.9-1.6,3.9-3.6,4.8-3.7c2.9-1.5,1.9,2.2,3.7-2.3c3-7.1,6.1-14.2,9.6-21c-14,1.7-33.6,1.3-36.8,19.1
			c-1.1,6.2,3.3,12.3,9.9,9.8c3.5-1.2,5.3-5.3,6.1-8.6c0.1-0.4,0.3-5.3,0.2-5.3c1.8-0.6,1.8,4.4,1.7,5.1c-0.4,3.8-2.8,7.2-6.1,9.2
			c-5.6,3.4-12.8,1.2-15.5-4.7c-6.6-14,10-22.9,21-24.6c6.8-1.1,13.6-1,20.4-1.7c1.5-2,2.9-4.9,5.5-5.8c2.2-0.6,5,0.5,3.9,3.2
			c-0.7,1.7-2.7,2.7-4.3,3.3c-3.5,1.3-3.9,0.4-5.5,4.2c-2.9,6.5-5.3,13.4-7.7,20.1c5.4,0,10.7,0.4,16,0.8c2.8,0.2,5.6,0.5,8.4,0.5
			c0.8-2.1,1.6-4.2,2.5-6.3c2-4.9,4.2-9.8,6.9-14.5c1.3-2.3,2.8-4.9,4.9-6.7c0.4-0.4,5.9-2.5,5.9-1.7C115.4,7.5,115,7.8,114.7,8
			C114.4,8.2,115.4,7.7,114.7,8z M85.6,6.5c-1-0.5-3.4,2.8-3.8,3.5C82.6,9.8,88.6,6.5,85.6,6.5C85.4,6.4,85.8,6.5,85.6,6.5z"/>
		<path fill="#5D4037" d="M134.8,48.8c-1.9,4.1-5.5,12.9-10.9,13.4c-5.1,0.4-4.5-6.2-3.6-9.3c-2,3.3-6,10-10.7,9.2
			c-5.8-1-3-10.5-1.5-13.8c2.1-4.6,5.6-8.9,10.3-10.9c2.7-1.2,6.2-1.7,8.9-0.2c2.3,1.3,2.9,4.9,0,1.8c-4.2-4.4-11.5,5.2-13.5,8
			c-1.1,1.6-7.8,13-2.6,13c4.2,0,7.5-6.7,9.3-9.7c1.4-2.3,2.5-4.9,4.2-7c1.6-2,3.7-0.4,5.7-0.8c-3.4,3.4-7.8,11.8-6.9,16.7
			c0.8,5.1,11.5-11.7,11.3-11.7C134.8,47.9,134.8,48.3,134.8,48.8C134.3,49.9,135.1,48,134.8,48.8z"/>
		<path fill="#5D4037" d="M145.7,52.7c-1.9,3.3-4.5,7.8-8.4,9c-6.3,2-6.6-5.6-4.4-9.4c1.5-2.7-0.1-1.7,1-4.4c1.1-2.5,2.6-5,3.8-7.5
			c1.9-3.8,4.3-3.3,8.1-3.3c-4,2.7-6,8.6-7.9,12.7c-0.9,2-5,14.5,1.4,9.2c4.7-3.9,7.5-10.5,10.1-15.8c2.5-5.1,3.4-6.2,9-6.2
			c-4,3.3-5.9,8.9-8,13.5c-1.8,4.1-2.6,14,3.6,6.9c3.6-4.1,6-9.3,8.5-14.2c2.5-5.1,3.4-6.2,9-6.2c-4.6,3.8-7.9,11.9-9.6,17.6
			c-0.8,3,0.1,7.4,3.8,4.2c1.2-1.1,7.6-11.7,7.9-11.6c2.4,1.1-7.5,13.4-9.5,14.1c-6.1,2.2-6.5-5.1-5.2-8.9c-1.7,3.3-4.5,7.7-8.2,9
			C144.7,63.7,144.6,56.1,145.7,52.7C145.1,53.8,145.3,54.2,145.7,52.7z M159.4,65.1c-3.5,5.2-8.4,5.4-14,3.7c-2.8-0.9-6.4-2.1-9,0
			c0,0-2.9,2.1-2.9,0.7c4.6-6,10.2-4.4,16.6-2.8c2.2,0.6,4.7,0.8,6.6-0.8C157.1,65.7,159.6,65,159.4,65.1
			C159,65.7,159.5,65,159.4,65.1z"/>
		<path fill="#5D4037" d="M173.5,55.9c-1,3.6,1.5,6.4,4.8,3.2c1.1-1.1,7.5-11.7,7.7-11.6c2.4,1.4-7.4,13.4-9.4,14.2
			c-5.4,2.1-7.4-3.3-6.3-7.5c1.1-4.1,7.2-12.4,4.4-16.2c0.9,0,5.5-0.6,5.9,0.5c0.4,1.3-1.3,3.9-1.7,5
			C177,47.6,175.4,51.9,173.5,55.9C173.1,57.1,173.5,55.8,173.5,55.9z M183.6,31.9c-0.6,3.4-6.5,4.1-6,0
			C178.3,28.4,184.3,27.9,183.6,31.9C183.5,32.7,183.8,31.1,183.6,31.9z"/>
	</g>
</g>
<g>
	<path fill="#D81B60" d="M146.4,72.8c10.5,2.9-4.2,32-17.9,23.9c-1.6,4.1-3.3,8.2-4.9,12.3c-0.6,1.6-1.3,3.1-1.9,4.7
		c-2,4.9-4,2.8-7.9,3.5c3.5-3.5,5.6-9.7,7.8-14c2.8-5.5,6.2-11.5,7.5-17.6c-0.4,0.9-1,1.3-1.7,1.2c-0.8-1.3,6.5-11.8,2-12.8
		c1.2-0.2,4.5-1.3,5.7-0.5c2.3,1.5-0.9,9.8-1.5,11.5C135.8,81.3,140.9,71.3,146.4,72.8C148.2,73.3,145.2,72.5,146.4,72.8z M144.5,84
		c1.1-1.9,4.2-11.7-1.5-8.9c-3.9,1.9-6.7,7.7-8.7,11.3c-1.5,2.7-8.5,13.3-0.4,9.3C138.5,93.5,142.1,88.5,144.5,84
		C145.7,81.8,143.5,85.8,144.5,84z"/>
	<path fill="#D81B60" d="M177.9,84.5c-1.8,4.1-3.7,8.3-7.2,11.3c-1.9,1.6-4.6,2.2-6.9,1.1c-3.3-1.5-3,0.3-6.5,1
		c-13,2.4-3.3-17.6,1-21.5c2.9-2.6,9.2-6,11.9-1c2.5,4.6-0.5,10.9-3.1,14.8c-1.1,1.6-2.3,3-3.7,4.3c0.9,1.8,3.3,2.2,5.1,1.4
		c2.3-1,8.6-12.6,9.3-12.4C177.8,83.9,177.8,84.2,177.9,84.5C177.6,85.2,178.1,84,177.9,84.5z M167.4,75.2
		c-6.9-1.7-14.3,14.5-12.5,19.8c0.5,1.6,2.3,1.7,3.7,1.1c3.7-1.4,1.4-2.1,1.4-5.1c0.3-4.4,5.6-3.3,4.5-0.1
		C166.1,88.7,172.7,76.8,167.4,75.2C166.6,75,168,75.4,167.4,75.2z"/>
	<path fill="#D81B60" d="M202.1,84.7c-1.8,4.1-3.7,8.3-7.2,11.3c-1.9,1.6-4.6,2.2-6.9,1.1c-3.3-1.5-3,0.3-6.5,1
		c-13,2.4-3.3-17.6,1-21.5c2.9-2.6,9.2-5.9,11.9-1c2.5,4.7-0.5,10.9-3.1,14.8c-1.1,1.6-2.3,3-3.7,4.3c0.9,1.8,3.3,2.2,5.1,1.4
		c2.3-1,8.6-12.6,9.3-12.4C202,84,202,84.3,202.1,84.7C201.8,85.4,202.3,84.2,202.1,84.7z M191.6,75.3c-6.9-1.7-14.3,14.5-12.5,19.8
		c0.5,1.6,2.3,1.7,3.7,1.1c3.7-1.4,1.4-2.1,1.4-5.1c0.3-4.4,5.6-3.3,4.5-0.1C190.3,88.8,196.9,77,191.6,75.3
		C190.8,75.1,192.2,75.5,191.6,75.3z M185.5,43.7c2.2-6.9,10.7-6.3,16.3-4.2c2.8,1.1,6.6,2.3,9.5,0.8c0.9-0.5,1.9-2.1,2.8-2.2
		c0,0,2,0.1,1.8,0.3c-3.3,4.5-8.4,7.3-14,5.5c-4.5-1.5-11.6-5.1-13.8,1.4c-1.7,5.1,0.5,10.6,2.2,15.4c1,2.7,2,5.4,2.8,8.2
		c0.5,1.9,0.8,8.4,1.7,9.4c-3.5-3.9-4-10.5-5.6-15.3C187.2,56.9,183.3,50.1,185.5,43.7C186.3,41.5,185,45.2,185.5,43.7z"/>
	<path fill="#D81B60" d="M226.1,84.5c-1.8,4.1-3.7,8.3-7.2,11.3c-1.9,1.6-4.6,2.2-6.9,1.1c-3.3-1.5-3,0.3-6.5,1
		c-13,2.4-3.3-17.6,1-21.5c2.9-2.6,9.2-6,11.9-1c2.5,4.6-0.5,10.9-3.1,14.8c-1.1,1.6-2.3,3-3.7,4.3c0.9,1.8,3.3,2.2,5.1,1.4
		c2.3-1,8.6-12.6,9.3-12.4C226,83.9,226.1,84.2,226.1,84.5C225.9,85.2,226.4,84,226.1,84.5z M215.6,75.2
		c-6.9-1.7-14.3,14.5-12.5,19.8c0.5,1.6,2.3,1.7,3.7,1.1c3.7-1.4,1.4-2.1,1.4-5.1c0.3-4.4,5.6-3.3,4.5-0.1
		C214.3,88.7,220.9,76.8,215.6,75.2C214.9,75,216.3,75.4,215.6,75.2z"/>
	<path fill="#D81B60" d="M262.5,84.8c-2.1,4.4-4.9,11.2-9.9,13.2c-5.9,2.3-7.2-3.9-5.9-8c0.4-1.3,6.2-11.1,3.4-10.3
		c-4.3,1.3-8,6.8-10.4,10.3c-1.7,2.4-3.6,5.2-4.2,8.2c-2,0-2.6-2.4-2.3-4c0.7-4.7,5.5-9.6,5.3-14.3c-0.1-1.7-8.8,7-9.5,7.8
		c-1.7,2.2-3.1,4.5-4.4,6.9c-2.3,4.2-3.1,1.8-6.3,3.8c2.7-5.3,5-10.8,7.7-16.1c1.1-2.2,2.2-4.6,3.7-6.7c1.9-2.6,3.9-1,6.5-1.5
		c-4.1,2.2-6.8,9.6-8.7,13.5c3.6-4.5,8-9.3,13-12.3c9.2-5.6,0.4,10-0.7,12.3c3.2-4.1,13-15.3,19.3-13.2c-3.2,5.8-7.1,12.1-8.6,18.6
		c-1.8,11.2,13.2-9,12.1-9.5C262.5,83.9,262.5,84.3,262.5,84.8C262,85.9,262.8,84,262.5,84.8z M260,66c-3.5,5.2-8.4,5.4-14,3.7
		c-2.8-0.9-6.4-2.1-9,0c0,0-2.9,2.1-2.9,0.7c4.6-6,10.2-4.4,16.6-2.8c2.2,0.6,4.7,0.8,6.6-0.8C257.8,66.5,260.1,65.9,260,66
		C259.6,66.6,260,66,260,66z"/>
	<path fill="#D81B60" d="M288.2,84.8c-2,4.3-4.6,11-9.6,12.8c-6.1,2.2-6.5-5.1-5.2-8.9c-1.9,3.3-4.5,7.8-8.4,9
		c-6.3,2-6.6-5.6-4.4-9.4c1.5-2.7-0.1-1.7,1-4.4c1.1-2.5,2.6-5,3.8-7.5c1.9-3.8,4.3-3.3,8.1-3.3c-4,2.7-6,8.6-7.9,12.7
		c-0.9,2-5,14.5,1.4,9.2c4.7-3.9,7.4-10.5,10.1-15.8c2.5-5.1,3.4-6.2,9-6.2c-4.6,3.8-7.9,11.9-9.6,17.6c-0.8,3,0.1,7.4,3.8,4.2
		c1.2-1.1,7.6-11.7,7.9-11.6C288.2,83.9,288.2,84.4,288.2,84.8C287.6,86.1,288.5,84.1,288.2,84.8z"/>
</g>
</svg>
