<?xml version="1.0" encoding="utf-8"?>
<!-- Generator: Adobe Illustrator 18.0.0, SVG Export Plug-In . SVG Version: 6.00 Build 0)  -->
<!DOCTYPE svg PUBLIC "-//W3C//DTD SVG 1.1//EN" "http://www.w3.org/Graphics/SVG/1.1/DTD/svg11.dtd">
<svg version="1.1" id="Layer_1" xmlns="http://www.w3.org/2000/svg" xmlns:xlink="http://www.w3.org/1999/xlink" x="0px" y="0px"
	 viewBox="0 0 429 226" enable-background="new 0 0 429 226" xml:space="preserve">
<g>
	<path fill="#F8F7F3" d="M154.4,27.2c-9.3-12.7-26.7-13.1-40.6-9.3C98.1,22.2,84,32.5,72.2,43.4C47.4,66,28,95.5,14.6,126.1
		c-11.2,25.8-24.4,66.4-0.7,89.6c25,24.6,63.5,0.5,83.1-18.8c22.6-22.3,39.1-51,50.7-80.4c6-15.2,10.9-31,13.1-47.2
		C162.7,55.4,163,38.9,154.4,27.2C151.7,23.6,157,30.7,154.4,27.2z M143.9,76.1c-8.7,32.8-23,64.9-41.3,93.4
		c-8.8,13.6-18.8,26.8-31.3,37.2c-10.1,8.4-25.9,16.5-38.9,9.2c-11.6-6.5-10.8-24.5-8.8-35.7c2.8-15.9,8.3-31.4,14.4-46.3
		C50.6,103,67.2,71.6,90,46.7c10.9-11.9,30.1-30.4,48-22.1c7.9,3.7,9.9,14.4,10.2,22.2C148.7,56.7,146.4,66.7,143.9,76.1
		C140.9,87.3,146.8,65,143.9,76.1z"/>
	<path fill="#F8F7F3" d="M351.7,21.5c-29.4-17.8-64.7,11.1-82.5,32.6c-2.2,2.6-0.2,6,3.3,4.9c5.4-5.7,10.8-11.7,17-16.7
		c9.7-7.9,29.7-21.5,42.1-11.5c5.2,4.2,4.1,13,2.6,18.7c-2.1,8.1-7.1,14.7-12.7,20.8c-11,11.9-24.7,21.3-39,28.7
		c-7,3.7-14.2,6.9-21.4,10.1c-4.6,2-9.1,2.3-8.5,7.8c0.4,3.4,15.1-2,17.1-2.5c7.8-1.6,16.4-1.8,23.7,1.8
		c14.7,7.3,12.8,25.1,7.8,38.2c-5.6,14.9-16.2,28.2-27.9,38.7c-11.8,10.6-26.4,20-42,23.3c-7.3,1.6-14.7,1.5-22,0.2
		c-3.8-0.7-7.5-1.6-11.1-2.9c-2.5-1-3.5-1.7-5.6,0.1c-4.6,4,4.2,6.7,7.6,8c7.4,2.8,15.9,3.7,23.7,3.7c16.1,0,31.9-5.9,46-13.3
		c26-13.6,56.6-38.9,58.9-70.4c2-26.9-25.3-36.3-47.8-36.3c21.3-7.4,43.5-17,60.5-32.2c7.9-7.1,15.1-15.6,17.4-26.2
		C361,38.2,360.4,26.8,351.7,21.5C346.3,18.2,357.2,24.8,351.7,21.5z"/>
</g>
<g>
	<path fill="#D81B60" d="M105,68.4c-1-0.5-12.3,24.2-16.6,17.3c-2.1-3.3,2.3-10.8,3.7-13.8c2.5-5.5,5.4-10.8,8.3-16.1
		c-4.7-1.4-12.3,4.6-15.7,7.2c-4.2,3.2-7.9,7.1-11.2,11.2c1.7-4.5,3.4-9.4,4-14.2c0.1-1.2,0.6-4.7-0.6-5.6c-1.5-1.1-6.2,0.4-7.8,0.7
		c2.7,0.6,1.1,7.2,0.7,8.8c-0.3,1.1-3.9,8.1-3.4,8.9c0.6,0.8,2.3-1.5,2.4-1.6c-1.7,7.8-5.9,15.5-9.4,22.5
		c-3.3,6.6-6.6,16.2-11.9,21.5c2.7-0.5,5.6,1.6,8-0.4c1.4-1.2,2.4-3.1,3.1-4.8c1.4-3.4,2.7-6.7,4.1-10.1c3.4-8.4,6.3-17.2,11.6-24.5
		c2.2-3,10.2-13.5,14.7-12.5c2.5,0.6-1.7,6.3-2.2,7.1c-1.9,3.3-3.8,6.7-4.4,10.5c-1.1,7.1,5.8,11.1,11.5,6.4
		C95.6,85.6,107.8,69.7,105,68.4C104.5,68.2,105.5,68.7,105,68.4z"/>
	<path fill="#D81B60" d="M120.1,87.3c6.2-3.8,9-10.9,12-17.2c0.5-1.1,0.1-2-1-1.1c-1.1,0.8-1.6,3-2.2,4.1c-1.5,3.1-3.2,6.1-5.5,8.7
		c-3.3,3.7-12.4,9.2-14.1,1.2c-0.6-2.8-0.1-5.9,0.8-8.6c0.6-1.9,7.7-2.7,9.8-3.7c4.2-2,14.6-11.4,8.4-16.3
		c-6.3-4.4-14.7,3.2-18.2,7.9c-3.9,5.2-7.5,12.5-6.4,19.2C104.7,89.1,114.2,90.9,120.1,87.3C122.1,86.1,118.1,88.5,120.1,87.3z
		 M113.4,67.4c1.9-3.2,4.3-6.3,7-8.9c1.5-1.5,7.1-5.7,6.7-0.7c-0.5,7.2-9.2,13.7-16.1,13.7C111.8,70.1,112.6,68.8,113.4,67.4
		C114.5,65.5,112.3,69.2,113.4,67.4z"/>
	<path fill="#D81B60" d="M156.8,87.4c3.1-2.3,5.5-5.5,7.4-8.8c1.3-2.1,2.4-4.4,3.5-6.6c-0.1,0.2,2.3-4.9,0.2-3.4
		c-2.4,1.7-3.9,7.3-5.6,9.9c-2.5,3.8-5.8,8-10.5,8.9c1.9-5.6,2-14-5.8-13.8c4.2-2.6,7.8-6.3,9.3-11.1c1.5-4.8-1.1-9.1-6.3-9
		c-5.2,0.1-9.4,3.8-11.8,8.1c-1.4,2.6-2.7,5.2-4,7.8c-0.1,0.2-3.3,7-1.3,5.6c2.6-1.9,4.2-8.1,5.9-10.9c2.1-3.6,8.5-8.7,11.9-3.4
		c2.9,4.4-2.9,10-6.2,12.4c-1.3,1-5.7,2-6.3,3.3c-1.2,2.4,3.4,0.5,3.9,0.4c4.7-1.9,6.1,0.6,5.7,5.3c-0.2,2.6-0.8,5.2-1.7,7.6
		c-3.4,1.1-6.7,2.1-10.1,3.1c-8.5,2.6-27.3,7.3-26.9,19c0.5,14.2,20.5,5,26.3,0.8c4.8-3.4,8.9-8,12-13c1.6-2.6,3-5.3,4.1-8.1
		C151.6,88.9,154.5,89.2,156.8,87.4C158.4,86.2,155.2,88.7,156.8,87.4z M138.9,101.9c-3.8,5.1-8.5,9.7-14.1,12.8
		c-4.8,2.6-15.7,5.4-12.9-4.2c3.7-12.9,21.6-14.6,32.3-18.2C142.8,95.7,141.1,99,138.9,101.9C136.8,104.8,141.1,99,138.9,101.9z"/>
	<path fill="#D81B60" d="M253.2,70.3c1.6-3.4-1.6-0.5-2.3,0.9c-1.3,2.7-2.7,5.4-4.4,8c-1.7,2.6-11,11.9-10.2,2.8
		c0.9-10.2,8.2-20.2,13.9-28c-3.8,0-7.6-0.2-11.3,0.3c-5.5,0.7-7.4,8.7-9.2,12.9c-2.4,5.5-6.1,16.5-12.6,18.3
		c-2.8,0.8-6.1,0.5-6.8-2.8c-0.4-1.7,1.1-3,0.9-4.7c-0.3-2.1-2.8-1.8-3.9-0.6c0.6-1.1,5-8,3.6-8.8c-1.3-0.7-4.2,6.2-4.6,7
		c-4.1,7.3-9.4,12.3-17.5,14.8c4.4-12,6.9-26.9,15.8-36.5c-4.4,0-7.8-0.7-10,3.8c-3.9,8.1-8.3,16.4-13.9,23.4
		c-1.2,1.5-5.7,7.2-8.2,4.5c-2.3-2.5,0.1-7.7,1.3-10.1c1.9-4.2,3.9-8.4,6-12.4c0.9-1.8,1.9-3.5,3-5.3c0.9-1.6,3-2.3,3.7-3.9
		c-2.5,0-7.4-0.9-9.3,1.3c-2.3,2.6-3.7,7-5.3,10.2c-0.5,1-4.8,7.1-1.9,7.1c-2.7,5.3-7,18,4.3,16c7.9-1.4,12.7-12.1,16.2-18.3
		c-1.7,5.7-3.6,11.4-5.9,16.9c-1.1,2.5-1.7,5.3-4.5,6.1c-3.6,1-7.3,1.9-10.9,2.8c-6,1.4-12.2,3.5-17.1,7.4
		c-3.7,2.9-7.7,9.7-4.1,14.1c3.7,4.6,12.1,3.1,16.8,1.1c6.1-2.7,10.9-7.6,14.8-12.9c1.8-2.4,3.4-5,5-7.6c0.9-1.4,1.7-2.9,2.6-4.3
		c1.7-0.6,3.3-1.2,4.9-1.9c6.1-2.6,10.9-6.5,14.2-12.3c-1.3,4.5,3.4,8.6,7.4,9c5.6,0.7,9-3.3,11.7-7.6c3.2-5.1,5.2-10.7,7.6-16.2
		c1.7-3.8,3.5-8.9,8.4-8.8c-2.6,3.9-4.3,9.2-6.1,13.5c-2,4.7-4.8,10.7-2.7,15.8c2.4,6,9.3,2.6,12.3-0.7
		C248.5,80.5,250.9,75.3,253.2,70.3C253.7,69.3,252.4,72,253.2,70.3z M178.8,97.8c-3.2,5.5-7.9,10.5-12.8,14.6
		c-3,2.5-13.3,9.9-16.4,4c-3.1-5.8,5.1-12.3,9.6-14.3c6.6-2.8,13.8-4.5,20.8-6.2C179.6,96.5,179.2,97.2,178.8,97.8
		C178.4,98.5,179.2,97.2,178.8,97.8z"/>
	<path fill="#D81B60" d="M280.3,76c1.5-1.7,2.5-3.7,3.5-5.8c0.5-0.7,0.5-1.3-0.1-1.9c-1.2-0.6-2,2.5-2.1,2.8
		c-1.8,3.6-7.2,9.4-11.7,5.7c-2.1-1.6,0.3-6.8-3.8-8.4c-4.1-1.4-5.3,3.8-3,6.3c0.8,1,1.8,1.9,3,2.6c-0.9,2.4-2.3,4.7-4,6.7
		c-3.2,3.9-8.1,3.2-7-2.6c0.9-4.6,3.5-8.9,5.7-13c2.2-4,4.9-10.8,9-13.1c-2.8,0.5-5.6-1.5-8,0.9c-2.2,2.2-3.5,5.3-4.9,8
		c-2.7,5-8.7,13.3-7.5,19.4c1.6,8.1,11.3,5.5,15.4,1.2c1.2-1.3,2.3-2.8,3.1-4.4c1.2-2.5,0.9-1.4,3.4-1C274.9,80,278,78.7,280.3,76
		C281.5,74.7,279.1,77.4,280.3,76z"/>
	<path fill="#D81B60" d="M336.9,68.4c-0.9-0.4-12.3,24.2-16.7,17.3c-2.2-3.4,2.3-10.7,3.6-13.8c2.5-5.5,5.3-10.8,8.3-16.1
		c-4.6-1.5-12.4,4.7-15.7,7.2c-4.2,3.2-7.8,7.1-11.1,11.2c2-4.2,4.6-8.2,6.6-12.4c2.1-4.5-0.2-7.7-5-5c-7.2,4-13.6,11-18.7,17.4
		c2.6-5.5,6.5-15.7,12.1-18.8c-2.8,0.5-5.6-1.5-8,0.9c-2.4,2.4-3.8,5.9-5.4,8.9c-4.1,7.9-7.6,16-11.5,23.9c2.2-1.4,5.8,0.6,7.1-2.2
		c1.9-3.6,3.9-7.2,6.2-10.5c2-2.9,10-14.6,14.3-13.7c1.5,0.3-6.2,16.9-6.6,18.8c-0.5,2.4-0.8,7.1,2.9,7.1c0.8-3.5,2.9-6.8,4.9-9.8
		c3.5-5.4,8.1-11.9,13.9-15.1c5-2.8,2.8,2.5,1.4,4.7c-2,3.3-4,6.7-5,10.5c-1.8,7.4,4.5,13.4,11.2,7.9
		C327.5,85.6,339.7,69.7,336.9,68.4C336.4,68.2,337.4,68.7,336.9,68.4z"/>
	<path fill="#D81B60" d="M298,50.7c2.9,0.7,3.5-1.9,6.1-2.6c3.2-0.9,6.9,0.4,9.9,1.3c7.7,2.3,14.6,2.1,19.4-5.1c0.2-0.2-2-0.2-2-0.3
		c-1,0.1-2.2,1.9-3.1,2.4c-3.3,1.8-7.9,0.1-11.3-0.9c-3.8-1.1-8.2-2.2-12.1-0.8C303.7,45.1,297,50.4,298,50.7
		C298.3,50.7,297.8,50.6,298,50.7z"/>
	<path fill="#D81B60" d="M371.7,75.7c0.9-1.7,3.1-4.6,3.1-6.6c0-2.5-3.1,3-3.1,3.1c-2.3,4.5-5,10.3-9.3,13.3c-5.5,4-3-6.5-2.3-8.5
		c1.8-5,4.5-11.5,8.3-15.4c-2.8,0.5-5.8-1.6-7.9,1.1c-2.5,3.1-4.1,6.9-6.1,10.4c-1,1.8-13.1,19.4-15,10.8c-1.8-8,16.5-35.5,24.7-27
		c0.8,0.9,0.7,2.9,2.3,2.2c1.3-0.6,0.7-2.1,0-2.8c-2.9-3.2-7.4-3.7-11.5-2.7c-7.7,1.9-13.3,7.8-16.8,14.7c-2.6,5-6.2,15.5-0.5,19.8
		c6.4,4.7,14.2-7.7,16.7-12c-1.2,4.3-2.1,13.5,5,12.9C365.1,88.3,369.3,80.1,371.7,75.7C372.8,73.6,370.6,77.7,371.7,75.7z"/>
	<path fill="#D81B60" d="M388.7,50.7c2.9,0.7,3.5-1.9,6.1-2.6c3.2-0.9,6.9,0.4,9.9,1.3c7.7,2.3,14.6,2.1,19.4-5.1
		c0.2-0.2-2-0.2-2-0.3c-1,0.1-2.2,1.9-3.1,2.4c-3.3,1.8-7.9,0.1-11.3-0.9c-3.8-1.1-8.2-2.2-12.1-0.8
		C394.4,45.1,387.7,50.4,388.7,50.7C389,50.7,388.5,50.6,388.7,50.7z"/>
	<path fill="#D81B60" d="M427.6,68.4c-0.9-0.4-12.3,24.2-16.7,17.3c-2.2-3.4,2.3-10.7,3.6-13.8c2.5-5.5,5.3-10.8,8.3-16.1
		c-4.6-1.5-12.4,4.7-15.7,7.2c-4.2,3.2-7.8,7.1-11.1,11.2c2-4.2,4.6-8.2,6.6-12.4c2.1-4.5-0.2-7.7-5-5c-7.2,4-13.6,11-18.7,17.4
		c2.6-5.5,6.5-15.7,12.1-18.8c-2.8,0.5-5.6-1.5-8,0.9c-2.4,2.4-3.8,5.9-5.4,8.9c-4.1,7.9-7.6,16-11.5,23.9c2.2-1.4,5.8,0.6,7.1-2.2
		c1.9-3.6,3.9-7.2,6.2-10.5c2-2.9,10-14.6,14.3-13.7c1.5,0.3-6.2,16.9-6.6,18.8c-0.5,2.4-0.8,7.1,2.9,7.1c0.8-3.5,2.9-6.8,4.9-9.8
		c3.5-5.4,8.1-11.9,13.9-15.1c5-2.8,2.8,2.5,1.4,4.7c-2,3.3-4,6.7-5,10.5c-1.8,7.4,4.5,13.4,11.2,7.9
		C418.2,85.6,430.4,69.7,427.6,68.4C427.1,68.2,428.1,68.7,427.6,68.4z"/>
</g>
<g>
	<path fill="#5D4037" d="M49.1,15.5c0.6-1.6,1.2-3.1,1.9-4.6c1.3-2.9,1.8-2.3,4.6-3.4c2.7-1.1,3.6-5.3-0.2-4.2
		c-1.3,0.4-2.5,1.9-3.2,3.1c-1,1.5-4.1,1-5.8,1.2c-4.5,0.3-9.2,0.7-13.5,2.3c-6.3,2.3-13.6,11-6.9,17.1c8.3,7.5,14.5-8,11.3-8.9
		c1.5,0.4-2.1,7.9-3.1,8.7c-4.2,3-8.1-0.9-7.8-5.3c0.8-12,15.9-12.1,24.6-13.2c-6.6,12.5-10,28.2-23.1,35.8
		c-6.6,3.8-16.6,5.2-22.2-1.1c-2.3-2.6-2.9-6.3-2-9.6c0.4-1.4,4.8-5.5,4.8-6.2c-0.1-1.5-5.3,3.4-5.7,4.3c-1.4,3-1.2,6.9,0.1,9.9
		c3.2,7,12.3,9.1,19.2,8.2C39.1,47.1,44.2,29.6,49.1,15.5C50.1,12.8,48.2,18.3,49.1,15.5z M54.1,5.9c0.1-0.1,2.1-2.4,2.5-1.1
		c0.5,1.5-2.6,2-3.4,2.2C53.5,6.6,53.8,6.3,54.1,5.9C54.5,5.5,53.8,6.3,54.1,5.9z"/>
	<path fill="#5D4037" d="M109.6,32.1c-1.3,2.6-4.3,10.2-8.5,7.8c-4.2-2.4-2.8-10.6,1.1-12.2c2.2-0.9,3.5,1,5,0.5
		c1.9-0.7,1.5-3.1-0.4-3.4c-4.4-0.6-8.6,4.5-11,7.5c1-2,2.5-5.6,4.7-6.8c-1.1,0.2-2-0.4-3-0.1c-1.6,0.6-2.5,3.2-3.3,4.5
		c-1.5,2.8-2.6,6-4.6,8.5c-0.8,1-1.8,2-3.2,2c-4,0-0.8-2.6,0.2-4.1c1.8-2.6,4.3-8,1.4-10.8c-6-5.6-12.2,9.9-14.6,12.9
		c-2.5,3.1-4.7,2-3.3-1.8c1.4-3.8,3.4-7.4,5.4-10.9c-4.2-1.3-10.7,6.1-12.9,8.8c1-2.7,2.4-6,1.9-8.9c-0.2-1.4-3.1-0.4-4-0.3
		c1.8,0.4,0.1,5.2-0.3,6c-0.2,0.5-1.4,4.3,0.1,1.7c-1,4.6-3.6,9.1-5.7,13.2c-3.3-3-4.8-7.6-5.9-11.8c-0.1-0.2-1-5.6-0.7-5.5
		c2.6-0.7,5.1-1.9,7.4-3.3C58.1,24.3,83.8,3.6,80,1.1c0,0-12.2,13.2-13.7,14.5c-5.4,4.6-11.6,9.3-18.2,11.9c-2.6,1-3.6,0.4-3.4,3.6
		c0.2,3.1,1,6.2,2.1,9c1.3,3.4,3.4,6.7,6.5,8.7c-0.9,1.8-1.9,4.2-3.3,5.7c1.8-0.3,3.2,1,4.5-1c1.3-1.9,0.6-3.4,3-3.1
		c2.8,0.4,5.5-0.5,7.8-1.9c0.5-0.3,6-5.3,4.6-5.7c-0.1,0-4.1,4.1-4.9,4.5c-2.4,1.1-5.5,1.7-8.1,0.8c2.5-6.1,4.5-11.9,9.5-16.5
		c0.8-0.8,5.5-3.8,3.4-0.3c-1.3,2-2.6,4.1-3,6.6c-0.3,2,0.6,4.1,2.9,4.1c2.7,0,4.7-3,5.9-5.1c-0.3,3.4,2,5.9,5.5,4.5
		c2.5-1,1.7-0.5,4.1-0.1c1.6,0.3,3-0.3,4.1-1.4c-1.7,3.4,1.8,2.2,2.5,0.9c1.2-2.8,2.4-5.4,4.3-7.9c-1,4.6,1.4,9.6,6.7,8.7
		c1.9-0.3,9.3-8.5,7.4-9.9C110,31.8,109.8,32,109.6,32.1C108.9,33.5,109.8,31.7,109.6,32.1z M82.3,35.6c-1,1.7,1.4,6.2-2.9,5
		c-3-0.9,0.5-7.9,1.3-9.2c0.7-1.2,5.5-7.7,7-4c1.2,2.9-1.2,7.3-2.8,9.6C85.3,35.5,83.2,33.9,82.3,35.6z"/>
	<path fill="#5D4037" d="M128.3,23.4c2,0.5,3.3-1.7,6-1.1c4.2,1.1,8.1,2.3,11-2c-0.9,0.9-4.5,1.5-6.1,1.1c-2.1-0.5-4.3-1.5-6.6-1.1
		C131.6,20.5,127.8,23.3,128.3,23.4C128.4,23.5,128.2,23.4,128.3,23.4z"/>
	<path fill="#5D4037" d="M181.6,23.4c2,0.5,3.3-1.7,6-1.1c4.2,1.1,8.1,2.3,11-2c-0.9,0.9-4.5,1.5-6.1,1.1c-2.1-0.5-4.3-1.5-6.6-1.1
		C184.9,20.5,181.2,23.3,181.6,23.4C181.8,23.5,181.5,23.4,181.6,23.4z"/>
	<path fill="#5D4037" d="M204.7,23.6c2.3,0,3.4-3.9,0.6-3.9C203,19.6,202,23.6,204.7,23.6z"/>
	<path fill="#5D4037" d="M214.7,19.2c1.6,1.7,4.5,1.7,6.5,0.9c0.6-0.2,4.9-4,3.5-4c-1-0.1-1.8,1.7-2.5,2.2c-1.8,1.2-4.7,1-6.2-0.5
		c-0.3-0.3-0.7-1.9-1.2-1.9C213.3,15.9,214.2,18.7,214.7,19.2C215,19.5,214.4,18.8,214.7,19.2z"/>
	<path fill="#5D4037" d="M225.8,32c1.2,0.6-9.8,13.9-7.9,5.6c0.3-1.9,4.2-12.5,6.5-12.5c-8.2-0.8-6.8,12.7-13.7,15.4
		c-3.7,1.5,0-6.7,0.5-7.8c0.7-1.4,2.9-7.6,4.8-7.6c-5,0-6.1,2.9-8.1,7.5c-1.2,2.5-2.5,5.3-4.5,7.2c-2.1,2.1-3.8,0.3-3.2-2.1
		c1.2-2.5,2.2-5.2,3.3-7.8c1.5-3.4,1.7-4.5-2.5-4.2c2.1,2.8-3.4,11.1-5.1,13.1c-2.5,3.1-4.6,2-3.3-1.8c1.4-3.8,3.4-7.4,5.3-10.9
		c-4.2-1.4-10.7,6.1-12.9,8.8c0.7-1.4,6.6-11.9,0.5-8.2c-3.3,2-6.3,5.2-8.7,8.2c1.3-2.6,3.1-7.5,5.8-9c-1.3,0.2-2.7-0.7-3.8,0.4
		c-1.6,1.6-2.6,4.2-3.5,6.2c-2.2,2.8-2.7,7-6.6,8.3c-3.9,1.3-4.2-2.9-3.4-5.6c0.4-1.4,3.5-1.4,4.8-2.1c1.9-0.9,3.7-2.7,4.5-4.7
		c2-5.1-4.7-3.5-6.7-1.9c-3.3,2.6-4.2,6.1-6.2,9.5c-0.9,1.5-6.5,7.9-5.5,2.4c0.6-4.2,3.7-8.8,5.8-12.4c-4.2-1.3-10.7,6.1-12.9,8.8
		c1-2.7,2.4-6,1.9-8.9c-0.2-1.4-3.1-0.4-4-0.3c3.9,0.9-4.8,14.1-6.3,14.9c-3.4,1.7-0.9-4.7-0.6-5.5c1.4-3.1,2.9-6.1,4.6-9
		c-4.2-1.4-10.7,6.1-12.9,8.8c0.7-1.4,6.6-11.9,0.5-8.2c-3.3,2-6.3,5.2-8.7,8.2c1.3-2.6,3.1-7.5,5.8-9c-1.1,0.2-2-0.4-3-0.1
		c-1.6,0.6-2.5,3.2-3.2,4.5c-2,3.8-3.7,7.8-5.7,11.7c0.8-0.5,1.9-0.1,2.8-0.4c1.3-0.4,2.7-4.4,3.5-5.6c0.9-1.4,4.8-7.2,7-6.7
		c0.9,0.2-2.3,6.4-2.5,7c-0.6,1.3-1.3,3.3-0.6,4.7c1.2,2.2,1.8-0.8,2.3-1.7c1.8-3.2,4.1-6.5,7-8.7c5-3.9,0,4.3-0.5,5.8
		c-0.9,2.7,0,6.9,3.9,5.4c3.4-1.3,4.7-5.5,6.5-8.3c-0.9,4.1-3.1,8.1-5,11.8c-1.5,2.9-2.9,7-5.2,9.4c2.7-0.5,3.7,0.9,5.2-2.3
		c0.6-0.9,0.9-2.2,1.3-3.2c1.4-3.5,2.6-7.2,4.4-10.5c1.4-2.7,3.3-4.9,5.5-7c0.6-0.6,2.4-2.4,3.5-2.2c1.3,0.3-1.5,4.3-1.8,4.7
		c-1,1.8-2.2,4.7-0.8,6.7c2.8,3.9,7.1-2,8.4-4.1c-0.4,5.6,6.1,6.5,9.5,3.2c-0.3,0.7-0.7,1.4-1,2.1c0.8-0.5,1.9-0.1,2.8-0.4
		c1.3-0.4,2.7-4.4,3.5-5.6c1.5-2.3,3.8-5.4,6.4-6.6c1.8-0.9-1.1,5-1.3,5.5c-0.6,1.2-3.1,6.8,0.1,6.8c0.8-3.4,3.6-6.8,5.9-9.3
		c2.3-2.5,6.3-4.7,3.3,0.4c-1.2,2.1-3.3,5.6-1.6,8c2.6,3.7,6.7-1.4,8-3.4c-0.4,2.3,0.6,4.4,3.1,4.4c2.8,0,4.8-3.3,5.9-5.5
		c-1,2.4-0.6,5.5,2.5,5.5c3,0,5.2-4,6.5-6.1c-0.8,2.5-0.5,7.4,3.5,5.9C220.8,40.9,227.4,32.7,225.8,32C225.5,31.8,226,32.1,225.8,32
		z M167.1,31.5c0.3-0.5,5.9-7.8,6.6-5.2c0.9,3.7-4.7,7.2-7.7,7.2C166.3,32.8,166.7,32.1,167.1,31.5
		C167.6,30.6,166.6,32.3,167.1,31.5z M208.1,33.9C208.1,33.9,208.1,33.9,208.1,33.9C208.1,33.9,208.1,33.9,208.1,33.9z"/>
</g>
</svg>
