<?xml version="1.0" encoding="utf-8"?>
<!-- Generator: Adobe Illustrator 18.0.0, SVG Export Plug-In . SVG Version: 6.00 Build 0)  -->
<!DOCTYPE svg PUBLIC "-//W3C//DTD SVG 1.1//EN" "http://www.w3.org/Graphics/SVG/1.1/DTD/svg11.dtd">
<svg version="1.1" id="Layer_1" xmlns="http://www.w3.org/2000/svg" xmlns:xlink="http://www.w3.org/1999/xlink" x="0px" y="0px"
	 viewBox="0 0 534 226" enable-background="new 0 0 534 226" xml:space="preserve">
<g>
	<g>
		<path fill="#F8F7F3" d="M299.9,27.1c-9.3-12.7-26.7-13.1-40.6-9.3c-15.7,4.3-29.8,14.6-41.6,25.5C193,66,173.5,95.4,160.1,126.1
			c-11.2,25.8-24.4,66.4-0.7,89.6c25,24.6,63.5,0.5,83.1-18.8c22.6-22.3,39.1-51,50.7-80.4c6-15.2,10.9-31,13.1-47.2
			C308.2,55.4,308.5,38.9,299.9,27.1C297.3,23.5,302.5,30.7,299.9,27.1z M289.4,76.1c-8.7,32.8-23,64.9-41.3,93.4
			c-8.8,13.6-18.8,26.8-31.3,37.2c-10.1,8.4-25.9,16.5-38.9,9.2c-11.6-6.5-10.8-24.5-8.8-35.7c2.8-15.9,8.3-31.4,14.4-46.3
			c12.8-31,29.4-62.4,52.1-87.3c10.9-11.9,30.1-30.4,48-22.1c7.9,3.7,9.9,14.4,10.2,22.2C294.2,56.6,291.9,66.6,289.4,76.1
			C286.4,87.2,292.4,64.9,289.4,76.1z"/>
		<path fill="#F8F7F3" d="M502,24.6c-26.6-21.1-62.7,3.3-79.5,25.1c-4.8,6.3-9,13.1-12.5,20.2c-1,2-8.3,14.7-3.6,14.7
			c2,0,2.8,0.3,4.2-1.1c1.8-1.8,2.7-6,3.8-8.4c3.6-7.4,7.9-14.6,13-21.1c9.4-12,22.5-24.2,38.4-25.7c6.2-0.6,13.9,0.1,17.9,5.4
			c4.2,5.5,3,13.8,1.5,20c-4,15.8-14.6,30.4-24.4,43.2c-10.6,13.8-22.5,26.5-34.7,39c-11.8,12.2-24.1,23.9-36.7,35.3
			c-2.8,2.5-11.4,12.8-14.9,11.9c-6.9-1.7-9.7,2.9-14,7.4c-2.5,2.6-27.6,30.9-27.1,31.1c1.7,1.1,3.6,3.4,5.3,2
			c2.8-2.2,5.7-4.4,8.5-6.7c3.3-2.6,6.7-5.2,10-7.9c1.2-0.9,3.9-4,5.4-4.3c13.8,6.1,27.5,12.3,41.7,17.5c6,2.2,12,4.3,18.5,3
			c7.9-1.7,15.1-6.7,21.4-11.6c3.4-2.6,32.8-29,29.6-31.8c-2.3-2-2.6-2.1-5,0.2c-3.5,3.2-6.6,6.9-10.1,10.1
			c-7,6.4-15.5,13-25.3,13.7c-8.2,0.5-16.9-4.2-24.1-7.5c-8.9-4-17.6-8.3-26.3-12.7c29.2-24.6,59.4-48,86.3-75.2
			c13.1-13.3,26.2-27.5,35.6-43.7C512.4,53.8,515.4,35.2,502,24.6C495.8,19.6,508.3,29.6,502,24.6z"/>
	</g>
	<g>
		<path fill="#D81B60" d="M16.3,81.6c2-2.9,6.4-8.8,6.4-12.5c0-2.7-3.3,3.5-3.4,3.7c-1.5,2.8-2.9,5.6-4.7,8.1
			C13.2,83,8,89.4,5.1,85.4C3.3,83,5.5,79,6.5,76.6C8.8,71.3,11,66,13.3,60.7c0.5-1.1,2.5-4.5,1.1-5.3c-1.9-1.1-5.7-0.3-7.7-0.3
			c3.4,4.6-3.1,14.7-4.9,19.3c-1.4,3.6-2.9,8.5-0.3,12C6.2,92.5,13.4,85.7,16.3,81.6C17.7,79.6,14.9,83.5,16.3,81.6z"/>
		<path fill="#D81B60" d="M14.4,50.9c4.9,0,7-8.2,1.3-8.2C10.7,42.7,8.7,50.9,14.4,50.9z"/>
		<path fill="#D81B60" d="M64.2,68.4c-1.7-0.7-4.4,7.3-5.1,8.4c-2.4,3.9-5.5,7-9.2,9.7c2.1-7.9,2.6-16.2,1.3-24.3
			c-2.5,2.1-5-0.1-6.2,4c-1.2,4-3.6,7.8-6,11.2c-2.1,2.9-4.6,6.1-7.9,7.6c-3.4,1.6-6-0.9-5.6-4.4c0.7-7,6-14.3,10.9-19.2
			c2.6-2.6,5.9-5.7,9.7-6.2c4.4-0.6,3.7,4.5,6.4,4.9c1.8,0.3,1.6-2.1,1-3c-0.9-1.3-2.5-2.2-3.9-2.9c-3.9-1.8-8.5-1.4-12.4,0.3
			C29.9,57.8,24.6,65.7,22,73c-2,5.6-2.1,16.7,6.8,15.5c7.6-1,13.1-11.5,16.2-17.6c1.3,5.3-0.3,12.5-1.8,17.6
			c-1.2,4.2-12.5,5.9-16.5,7.4c-6,2.4-12.4,5.2-16.8,10.1c-3.3,3.7-3.9,10.8,1.3,13.2c12.5,5.8,26.1-8.6,31.9-17.8
			c1.7-2.7,3.2-5.5,4.5-8.4c1-2.3,0.9-2.9,3.1-4.1c1.6-0.9,3-2.1,4.3-3.4C56.5,84,66.4,69.3,64.2,68.4
			C63.7,68.2,64.7,68.6,64.2,68.4z M36,103.2c-3.6,4.8-7.6,9.4-13,12.3c-3.2,1.7-13.5,5.8-13.5-1.4c0.1-13.2,23-17.6,32.1-21
			C40.2,96.7,38.2,100.1,36,103.2C34.6,105.1,38.4,99.7,36,103.2z"/>
		<path fill="#D81B60" d="M130.4,68.4c-1.2-0.6-6,9.7-6.9,11c-1,1.6-8.3,11.1-10,5.6c-1.7-5.2,2.9-12.1,5.3-16.5
			c2.2-4,4.9-10.8,9.2-13.1c-3.2,0.6-5.8-1.8-8.1,1.6c-2-7.1-11.8-2-14.5,1.6c-3.3,4.4-6.3,14,1.6,15.4c-2.4,4.2-6.5,11.7-11.9,12.4
			c-2.6,0.3-5.1-0.8-5.7-3.6c-0.3-1.5,2.6-6.3-0.9-6.4c0.6-1.3,3.9-6.1,3.3-7.5c-0.8-2-4.2,5.6-4.4,6C84.6,80.2,79.8,87,73.2,87
			c-6.6,0-5.1-9.8-3.4-13.7c6.6,0,13.8-4.3,17.4-9.7c4.6-6.9-0.5-12.6-7.9-9.6c-6.7,2.8-11.6,9.3-14.3,15.8
			c-2.4,5.6-4.1,14.2,2.3,17.8c6.7,3.8,14.2-0.5,18.1-6c1.1,5.7,6.9,8.9,12.3,6.8c2.7-1.1,4.9-3.4,6.7-5.6c1.6-2.1,4-8.5,6.4-8.8
			c-1.8,3.7-3.2,7.2-1.8,11.3c1.4,3.9,5.9,4.5,9.1,2.5C120.3,86.5,133.4,69.8,130.4,68.4C129.9,68.1,130.9,68.6,130.4,68.4z
			 M72.8,67.3c1.9-3.2,4.3-6.3,7-8.9c1.5-1.5,7.1-5.7,6.7-0.7c-0.5,7.2-9.2,13.7-16.1,13.7C71.2,70.1,72,68.7,72.8,67.3
			C73.9,65.4,71.7,69.2,72.8,67.3z M105.3,70.5c-2.2-5.1,8.3-19.9,11.9-13.6c1.8,3.1-1.7,8-3.1,10.6c-0.2,0.4-2.2,5-2.6,5
			C109.3,72.8,106.3,72.8,105.3,70.5C104.9,69.7,105.6,71.2,105.3,70.5z"/>
		<path fill="#D81B60" d="M173.3,50.6c2.9,0.7,3.5-1.9,6.1-2.6c3.2-0.9,6.9,0.4,9.9,1.3c7.7,2.3,14.6,2.1,19.4-5.1
			c0.2-0.2-2-0.2-2-0.3c-1,0.1-2.2,1.9-3.1,2.4c-3.3,1.8-7.9,0.1-11.3-0.9c-3.8-1.1-8.2-2.2-12.1-0.8
			C178.9,45.1,172.2,50.4,173.3,50.6C173.5,50.7,173,50.5,173.3,50.6z"/>
		<path fill="#D81B60" d="M212.1,68.4c-0.9-0.4-12.3,24.2-16.7,17.3c-2.2-3.4,2.3-10.7,3.6-13.8c2.5-5.5,5.3-10.8,8.3-16.1
			c-4.6-1.5-12.4,4.7-15.7,7.2c-4.2,3.2-7.8,7.1-11.1,11.2c2-4.2,4.6-8.2,6.6-12.4c2.1-4.5-0.2-7.7-5-5c-7.2,4-13.6,11-18.7,17.4
			c2.6-5.5,6.5-15.7,12.1-18.8c-2.8,0.5-5.6-1.5-8,0.9c-2.4,2.4-3.8,5.9-5.4,8.9c-4.1,7.9-7.6,16-11.5,23.9c2.2-1.4,5.8,0.6,7.1-2.2
			c1.9-3.6,3.9-7.2,6.2-10.5c2-2.9,10-14.6,14.3-13.7c1.5,0.3-6.2,16.9-6.6,18.8c-0.5,2.4-0.8,7.1,2.9,7.1c0.8-3.5,2.9-6.8,4.9-9.8
			c3.5-5.4,8.1-11.9,13.9-15.1c5-2.8,2.8,2.5,1.4,4.7c-2,3.3-4,6.7-5,10.5c-1.8,7.4,4.5,13.4,11.2,7.9
			C202.7,85.5,214.9,69.7,212.1,68.4C211.6,68.1,212.6,68.6,212.1,68.4z"/>
		<path fill="#D81B60" d="M249.7,68.4c-2.6-1.1-9,21.2-14.9,17.6c-5-3.1,6.2-21.8,8.9-24.5c-2.8,0.5-5.8-1.6-7.9,1.1
			c-2.5,3.1-4.1,6.9-6.1,10.4c-1,1.8-13.1,19.4-15,10.8c-1.8-8,16.5-35.5,24.7-27c0.8,0.9,0.7,2.9,2.3,2.2c1.3-0.6,0.7-2.1,0-2.8
			c-2.9-3.2-7.4-3.7-11.5-2.7c-7.7,1.9-13.3,7.8-16.8,14.7c-2.6,5-6.2,15.5-0.5,19.8c6.4,4.7,14.2-7.7,16.7-12
			c-0.9,3.2-1.8,7.4,0.1,10.5c2.3,3.6,6.7,2.7,9.4,0.2C240.5,85.2,252,69.4,249.7,68.4C249.2,68.2,250.1,68.6,249.7,68.4z"/>
		<path fill="#D81B60" d="M316.6,70.2c0.8-1.7-0.6-2.7-1.4-0.9c-1.2,2.5-2.5,5-3.9,7.4c-1.4,2.4-6.8,12-10.7,9.7
			c-5.5-3.3,9.2-26.8,11.3-30.6c-4.7-1.4-12.3,4.6-15.7,7.2c-4.2,3.2-7.9,7.1-11.2,11.2c1.7-4.5,3.4-9.4,4-14.2
			c0.1-1.2,0.6-4.7-0.6-5.6c-1.5-1.1-6.2,0.4-7.8,0.7c2.7,0.6,1.1,7.2,0.7,8.8c-0.3,1.1-3.9,8.1-3.4,8.9c0.6,0.8,2.3-1.5,2.4-1.6
			c-1.7,7.8-5.9,15.5-9.4,22.5c-3.3,6.6-6.6,16.2-11.9,21.5c2.7-0.5,5.6,1.6,8-0.4c1.3-1.1,2.3-3,2.9-4.5c1.3-3.1,2.5-6.2,3.8-9.4
			c3.3-8.2,6.2-16.8,11.1-24.2c3.2-4.7,8.9-12,14.6-13.7c3.8-1.2,0.4,4.6-0.2,5.4c-2,3.3-4,6.7-5,10.5c-1.6,6.4,3,13,9.9,8.8
			C310.2,84.1,313.6,76.3,316.6,70.2C317,69.2,315.8,71.7,316.6,70.2z"/>
		<path fill="#D81B60" d="M328.1,50.9c4.9,0,7-8.2,1.3-8.2C324.4,42.7,322.4,50.9,328.1,50.9z"/>
		<path fill="#D81B60" d="M336.1,68.4c-1.2-0.7-9.1,19.1-15.2,18c-5.7-0.5-0.6-9.9,0.7-12.9c2-4.7,4-9.3,6-14
			c2.5-5.8-2.9-4.5-7.2-4.4c2.5,3.3-0.1,7-1.4,10.3c-1.5,3.8-3.3,7.6-4.5,11.5c-2,6.5,2,15.3,9.9,10.5
			C326.5,86.1,339.1,70.1,336.1,68.4C335.6,68.1,336.5,68.7,336.1,68.4z"/>
		<path fill="#D81B60" d="M372.7,92.7c-2.6-0.8-3.7,2.2-6,2.8c-3.3,0.9-7-0.4-10.1-1.3c-7.6-2.3-14.3-1.8-19.5,4.9
			c0,2.4,5.5-1.9,5.3-1.9c3.2-1.8,7.8-0.1,11.1,0.9c3.7,1.1,7.6,2.4,11.4,1.1C366.1,98.8,373.8,93,372.7,92.7
			C372.5,92.6,372.9,92.8,372.7,92.7z"/>
		<path fill="#D81B60" d="M392.5,68.5c-0.9-0.4-7.3,11.9-8.6,13.5c-3.6,4.4-9.6,5.8-7.9-1.9c0.8-4.9,3.8-10.1,6-14.5
			c1.2-2.3,4.2-11,7.6-11c-5.6,0-8.1-0.6-10.8,4.9c-3.8,7.8-7.6,16.4-13.4,23c-1.7,1.9-7.1,6.3-7.8,1c-0.5-3.6,1.4-7.5,2.8-10.6
			c1.4-3.3,6.4-18.3,11-18.3c-5.6,0-8.1-0.7-10.8,4.9c-4,8.2-8,17.6-14.6,24.2c-1.9,1.9-6.3,4.4-6.7-0.1c-0.4-4.2,2.1-8,3.7-11.7
			c1.4-3.2,6.3-17.3,11-17.3c-2.3,0-7.5-0.9-9.3,0.8c-2.4,2.3-3.8,7-5.3,10c-0.5,1-4.8,7-1.9,7c-2.1,4.2-6.7,12-0.7,15.3
			c7.5,4.2,14.2-6.8,17.1-12c-1.6,4.7-1.7,14.4,6,12.6c5.5-1.2,9.7-8.1,12.1-12.6c-2.2,6.7,1.1,17.6,9.7,10.9
			C383.6,85.3,395.3,69.8,392.5,68.5C392,68.2,393,68.7,392.5,68.5z"/>
		<path fill="#D81B60" d="M413,82.6c2.2-2.9,3.8-6.2,5.3-9.5c0.4-0.8,2.1-3.3,1.7-4.2c-0.5-1.3-1.9,0.8-2,1
			c-2.6,5.8-5.9,12.9-11.9,16c-7.3,3.8-10.3-2.6-9-8.9c0.8-4.1,1.6-3.4,5.3-4.5c4.2-1.2,7.9-3,10.9-6.2c4.3-4.4,6.8-14.5-2.7-13.2
			c-7.6,1.1-13.5,8.6-16.6,15c-2.5,5.1-5.2,14,0.1,18.4C400.1,91.7,408.7,88.1,413,82.6C414.4,80.7,411.5,84.5,413,82.6z
			 M401.1,67.3c1.9-3.2,4.3-6.3,7-8.9c1.5-1.5,7.1-5.7,6.7-0.7c-0.5,7.2-9.2,13.7-16.1,13.7C399.5,70.1,400.3,68.7,401.1,67.3
			C402.2,65.4,400,69.2,401.1,67.3z"/>
		<path fill="#D81B60" d="M453.7,75.7c0.9-1.7,3.1-4.7,3.1-6.7c-0.1-2.6-3.9,4.5-4,4.8c-1.9,3.7-6,12.6-11,12.6
			c-7.5,0,7.7-28.5,12.2-31c-2.8,0.5-5.6-1.5-8,0.9c-2.2,2.2-3.5,5.3-4.9,8c-0.9,1.7-1.9,5.9-4.1,6.3c-3.5,0.7-6.5-3.3-10.1-1.6
			c2.2-4.2,5.1-11.2,9.4-13.6c-2.8,0.5-5.6-1.5-8,0.9c-2.7,2.7-4.3,6.8-6,10.1c-3.9,7.5-7.3,15.3-11.1,22.9c2.2-1.4,5.7,0.6,7.2-2.1
			c1.4-3.3,2.9-6.7,4.4-10c0.8-1.8,1.7-5.4,3.9-5.9c3.5-0.9,6.5,3.4,10.1,1.6c-2.1,4.5-5.4,13.9,2,15.9
			C445.6,90.7,451.2,80.5,453.7,75.7C454.8,73.6,452.6,77.8,453.7,75.7z"/>
		<path fill="#D81B60" d="M531.7,68.4c-1.2-0.6-6,9.7-6.9,11c-1,1.6-8.3,11.1-10,5.6c-1.7-5.2,2.9-12.1,5.3-16.5
			c2.2-4,4.9-10.8,9.2-13.1c-3.2,0.6-5.8-1.8-8.1,1.6c-2-7.1-11.8-2-14.5,1.6c-3.3,4.4-6.3,14,1.6,15.4c-2.4,4.2-6.5,11.7-11.9,12.4
			c-2.6,0.3-5.1-0.8-5.7-3.6c-0.3-1.6,2.6-6.2-0.8-6.4c1.1-2,2.1-4.1,3.1-6.2c0.1-0.3,0.6-2.8-0.8-1.8c-0.9,0.6-1.5,2.7-2,3.6
			c-2.1,4.1-6.4,14.4-11.9,14.4c-7.5,0,7.7-28.5,12.2-31c-2.8,0.5-5.6-1.5-8,0.9c-2.2,2.2-3.5,5.3-4.9,8c-0.9,1.7-1.9,5.9-4.1,6.3
			c-3.5,0.7-6.5-3.3-10.1-1.6c2.2-4.2,5.1-11.2,9.4-13.6c-2.8,0.5-5.6-1.5-8,0.9c-2.7,2.7-4.3,6.8-6,10.1
			c-3.9,7.5-7.3,15.3-11.1,22.9c2.2-1.4,5.7,0.6,7.2-2.1c1.4-3.3,2.9-6.7,4.4-10c0.8-1.8,1.7-5.4,3.9-5.9c3.5-0.9,6.5,3.4,10.1,1.6
			c-2.1,4.6-4.7,10.4-0.2,14.6c4.9,4.6,11-2.1,13.6-5.9c1,5.7,6.9,8.9,12.3,6.8c2.7-1.1,4.9-3.4,6.7-5.6c1.6-2.1,4-8.5,6.4-8.8
			c-1.8,3.7-3.2,7.2-1.8,11.3c1.4,3.9,5.9,4.5,9.1,2.5C521.6,86.5,534.7,69.8,531.7,68.4C531.2,68.1,532.2,68.6,531.7,68.4z
			 M506.5,70.5c-2.2-5.1,8.3-19.9,11.9-13.6c1.8,3.1-1.7,8-3.1,10.6c-0.2,0.4-2.2,5-2.6,5C510.6,72.8,507.6,72.8,506.5,70.5
			C506.2,69.7,506.9,71.2,506.5,70.5z"/>
	</g>
	<g>
		<path fill="#5D4037" d="M95.9,15.5c0.6-1.6,1.2-3.1,1.9-4.6c1.3-2.9,1.8-2.3,4.6-3.4c2.7-1.1,3.6-5.3-0.2-4.2
			c-1.3,0.4-2.5,1.9-3.2,3.1c-1,1.5-4.1,1-5.8,1.2c-4.5,0.3-9.2,0.7-13.5,2.3c-6.3,2.3-13.6,11-6.9,17.1c8.3,7.5,14.5-8,11.3-8.9
			c1.5,0.4-2.1,7.9-3.1,8.7c-4.2,3-8.1-0.9-7.8-5.3c0.8-12,15.9-12.1,24.6-13.2c-6.6,12.5-10,28.2-23.1,35.8
			C68,47.8,58,49.2,52.4,43c-2.3-2.6-2.9-6.3-2-9.6c0.4-1.4,4.8-5.5,4.8-6.2c-0.1-1.5-5.3,3.4-5.7,4.3c-1.4,3-1.2,6.9,0.1,9.9
			c3.2,7,12.3,9.1,19.2,8.2C85.9,47,91,29.5,95.9,15.5C96.9,12.7,94.9,18.2,95.9,15.5z M100.9,5.9c0.1-0.1,2.1-2.4,2.5-1.1
			c0.5,1.5-2.6,2-3.4,2.2C100.3,6.6,100.6,6.2,100.9,5.9C101.2,5.5,100.6,6.3,100.9,5.9z"/>
		<path fill="#5D4037" d="M156.4,32c-1.3,2.6-4.3,10.2-8.5,7.8c-4.2-2.4-2.8-10.6,1.1-12.2c2.2-0.9,3.5,1,5,0.5
			c1.9-0.7,1.5-3.1-0.4-3.4c-4.4-0.6-8.6,4.5-11,7.5c1-2,2.5-5.6,4.7-6.8c-1.1,0.2-2-0.4-3-0.1c-1.6,0.6-2.5,3.2-3.3,4.5
			c-1.5,2.8-2.6,6-4.6,8.5c-0.8,1-1.8,2-3.2,2c-4,0-0.8-2.6,0.2-4.1c1.8-2.6,4.3-8,1.4-10.8c-6-5.6-12.2,9.9-14.6,12.9
			c-2.5,3.1-4.7,2-3.3-1.8c1.4-3.8,3.4-7.4,5.4-10.9c-4.2-1.3-10.7,6.1-12.9,8.8c1-2.7,2.4-6,1.9-8.9c-0.2-1.4-3.1-0.4-4-0.3
			c1.8,0.4,0.1,5.2-0.3,6c-0.2,0.5-1.4,4.3,0.1,1.7c-1,4.6-3.6,9.1-5.7,13.2c-3.3-3-4.8-7.6-5.9-11.8c-0.1-0.2-1-5.6-0.7-5.5
			c2.6-0.7,5.1-1.9,7.4-3.3c2.8-1.6,28.5-22.4,24.7-24.9c0,0-12.2,13.2-13.7,14.5c-5.4,4.6-11.6,9.3-18.2,11.9
			c-2.6,1-3.6,0.4-3.4,3.6c0.2,3.1,1,6.2,2.1,9c1.3,3.4,3.4,6.7,6.5,8.7c-0.9,1.8-1.9,4.2-3.3,5.7c1.8-0.3,3.2,1,4.5-1
			c1.3-1.9,0.6-3.4,3-3.1c2.8,0.4,5.5-0.5,7.8-1.9c0.5-0.3,6-5.3,4.6-5.7c-0.1,0-4.1,4.1-4.9,4.5c-2.4,1.1-5.5,1.7-8.1,0.8
			c2.5-6.1,4.5-11.9,9.5-16.5c0.8-0.8,5.5-3.8,3.4-0.3c-1.3,2-2.6,4.1-3,6.6c-0.3,2,0.6,4.1,2.9,4.1c2.7,0,4.7-3,5.9-5.1
			c-0.3,3.4,2,5.9,5.5,4.5c2.5-1,1.7-0.5,4.1-0.1c1.6,0.3,3-0.3,4.1-1.4c-1.7,3.4,1.8,2.2,2.5,0.9c1.2-2.8,2.4-5.4,4.3-7.9
			c-1,4.6,1.4,9.6,6.7,8.7c1.9-0.3,9.3-8.5,7.4-9.9C156.8,31.8,156.6,31.9,156.4,32C155.7,33.4,156.6,31.6,156.4,32z M129,35.5
			c-1,1.7,1.4,6.2-2.9,5c-3-0.9,0.5-7.9,1.3-9.2c0.7-1.2,5.5-7.7,7-4c1.2,2.9-1.2,7.3-2.8,9.6C132.1,35.4,130,33.9,129,35.5z"/>
		<path fill="#5D4037" d="M261.6,19.1c1.6,1.7,4.5,1.7,6.5,0.9c0.6-0.2,4.9-4,3.5-4c-1-0.1-1.8,1.7-2.5,2.2c-1.8,1.2-4.7,1-6.2-0.5
			c-0.3-0.3-0.7-1.9-1.2-1.9C260.2,15.8,261.2,18.6,261.6,19.1C261.9,19.4,261.3,18.8,261.6,19.1z"/>
		<path fill="#5D4037" d="M272.7,31.9c1.2,0.6-9.8,13.9-7.9,5.6c0.8-5,5-8.5,6.5-12.9c-7.9-1.2-7.1,13.1-13.7,15.7
			c-4.9,1.9,5.2-15.4,5.3-15.7c-4.4,0-4.8,1.5-6.8,5.3c-1.3,2.6-2.5,5.4-4.2,7.7c-0.6,0.9-3.2,4.2-4.3,2c-0.9-1.6,0.6-4.2,1.2-5.6
			c1.4-3.2,4.2-6.4,5.3-9.5c-7.9-1.2-7.1,13.1-13.7,15.7c-4.9,1.9,5.2-15.4,5.3-15.7c-4.8,0-7.2,4-8.5,8.7c-1.2,2.3-2.7,5.5-5.1,6.9
			c-3.7,2.2-3-3.5-2-5.2c1.3-2.2,4.4-5.1,3.4-7.9c-1.5-4.3-6.2-0.3-7.6,1.6c-3.8,5.4-5.2,11.6-12.1,13.8c1.3-3.6,2.5-7.4,3.8-11
			c0.9-2.6,2.7-4.5,3.7-6.9c-6.7-1-8.5,11.3-13.1,15.1c-4.6,3.8-0.9-6.2-0.4-7.3c1.1-2.3,4.3-5.7,4.7-7.9c-3.7,0-4.3,0.6-6,3.9
			c-1.5,2.9-2.8,6-4.6,8.7c-2.1,3.1-6.2,4.9-4.2-0.5c1.4-3.8,3.4-7.4,5.4-10.9c-4.2-1.3-10.7,6.1-12.9,8.8c1-2.7,2.4-6,1.9-8.9
			c-0.2-1.4-3.1-0.4-4-0.3c4.5,1-5.7,14.2-6.9,15.1c1-3.8,1.3-7.8,0.6-11.7c-0.7,0.6-1.6,0.1-2.4,0.8c-1.3,1.1-2,4.2-2.9,5.7
			c-0.7,1-7,8-7.1,3c-0.1-3.8,3.2-8,5.8-10.4c1.2-1.1,3.4-3,5.3-2.3c0.7,0.3,1.6,2.9,2.4,2c2.3-2.8-6.6-3-7.9-2.5
			c-3.2,1.4-5.5,4.7-6.9,7.8c-1.2,2.8-2,6.9,1.4,8.3c4.2,1.3,7.7-5.4,9.2-8.3c0.5,2-0.1,4.7-0.5,6.7c-0.7,3.6-3.5,3.5-6.7,4.7
			c-2.7,1-17.1,8.5-8.9,11.9c6.3,2.6,12.8-4.6,15.6-9.4c0.9-1.5,1.7-3.1,2.3-4.8c1.2-0.6,2.3-1.4,3.2-2.4c1.8-1.9,2.7-4.4,4-6.6
			c-0.9,4.1-3.1,8.1-5,11.8c-1.5,2.9-2.9,7-5.2,9.4c2.7-0.5,3.7,0.9,5.2-2.3c0.6-0.9,0.9-2.2,1.3-3.2c1.4-3.5,2.6-7.2,4.4-10.5
			c1.4-2.7,3.3-4.9,5.5-7c0.6-0.6,2.4-2.4,3.5-2.2c1.3,0.3-1.5,4.3-1.8,4.7c-1,1.8-2.2,4.7-0.8,6.7c2.7,3.8,7-1.8,8.3-3.9
			c-1,2.9,1,5.7,4.2,4.5c3.4-1.3,5.4-5.6,7.1-8.6c-1.1,3.7-2.1,10.3-6.1,11.3c-4.6,1.2-11.8,2-14.2,6.9c-2.8,5.3,3.3,6.7,7.2,5.3
			c5.5-1.9,8.8-7.5,11.5-12.2c4.9-1.7,7.9-4.3,10.3-8.9c1.7-1.8,3.6-9.8,7.3-8.5c2.6,0.9-3.8,9.5-4,11c-0.3,2.5,1.6,4.1,4,4.1
			c2.7-0.1,4.6-3,5.8-5c-0.8,2.4,0,4.9,2.8,4.9c3,0,5.2-4,6.5-6.1c-0.6,1.6-1,4.6,0.8,5.7c3,2,5.9-2.4,7.1-4.5
			c-0.8,2.3,0,4.9,2.8,4.9c3,0,5.2-4,6.5-6.1c-0.8,2.5-0.5,7.4,3.5,5.9C267.7,40.8,274.3,32.6,272.7,31.9
			C272.5,31.8,272.9,32,272.7,31.9z M174.7,48.6c-1.9,2.6-4.1,4.9-7,6.3c-1.8,0.8-6.5,1.8-5.6-1.8c1.5-6,10.5-7.6,15.3-9.4
			C176.7,45.5,175.7,47.1,174.7,48.6C174,49.5,175.8,47,174.7,48.6z M209.1,46c-1.1,1.9-14.1,14.9-14.3,7.9
			c-0.2-6.2,10.5-7.8,14.8-8.8C209.5,45.4,209.3,45.7,209.1,46C209,46.3,209.3,45.7,209.1,46z"/>
	</g>
</g>
</svg>
