<?xml version="1.0" encoding="utf-8"?>
<!-- Generator: Adobe Illustrator 18.0.0, SVG Export Plug-In . SVG Version: 6.00 Build 0)  -->
<!DOCTYPE svg PUBLIC "-//W3C//DTD SVG 1.1//EN" "http://www.w3.org/Graphics/SVG/1.1/DTD/svg11.dtd">
<svg version="1.1" id="Layer_1" xmlns="http://www.w3.org/2000/svg" xmlns:xlink="http://www.w3.org/1999/xlink" x="0px" y="0px"
	 viewBox="0 0 310 100" enable-background="new 0 0 310 100" xml:space="preserve">
<g>
	<path fill="#D81B60" d="M35.5,76.1c1.3-3.3,2.7-6.6,4.4-9.8c0.8-1.5,1.6-3,2.4-4.5c1.2-2.3,4.1-2.5,6.5-3.3
		c7.9-2.8,15.6-6.2,22.4-11.2c6.3-4.6,11.9-10.5,15.7-17.4c3.2-5.6,7-16.9-3.1-17.4C67.3,11.8,53.5,33,46.1,45.2
		C44,48.7,42,52.3,40,55.9c-1.1,2.1-1.1,3.5-3.6,3.6c-2,0-4.3-0.1-5.5-1.9c1.8,2.7-2.3-4.3-0.9-2.6c-1.7-1.9-2.2,1.7-1.8,2.7
		c1.5,3.5,5.2,4.6,8.7,4.2c-2.6,4.9-5,10-7.6,14.9c-0.9,1.7-9,13.3-8.1,14.7c0.8,1.2,10.4-15.6,11.2-17.1c-2.4,4.9-6.5,12-4.1,17.5
		c2.9,6.7,13.1,4.6,18,1.6c8-5,20.5-27.5,5.6-31.9c-0.5-0.1-7.3-0.5-4.7,1.3c2,1.5,4.7-0.7,6.3,2.2c3.2,5.5-2.4,14.2-5.3,18.6
		c-2.2,3.4-7.7,12.2-12.9,9.6C30,90.7,34,79.8,35.5,76.1C36.5,73.2,34.4,78.9,35.5,76.1z M49.6,49.5c5.1-8.2,10.7-16.5,17.3-23.6
		c2.4-2.6,19.6-17.3,20.3-6.6c0.6,8.9-9.2,18.7-15.3,24c-7.8,6.6-17.4,11.2-27.1,14C46.4,54.7,48,52.1,49.6,49.5
		C51.4,46.6,47.8,52.5,49.6,49.5z"/>
	<path fill="#D81B60" d="M92.4,76.3c-0.8-2-4.2,5.6-4.4,6c-1.5,2.9-3.4,5.8-5.7,8.1c-4,4-12.6,6.9-13.2-1.4
		c-0.2-2.7,0.3-5.7,1.3-8.2c3.2,0,6.6-1.3,9.5-2.7c4.3-2.1,15.9-13.2,7.2-17c-6.3-2.7-13.6,4-17,8.5C66,75,61.8,83.4,64,90.4
		c2.1,6.6,11,7.5,16.2,4.3c3.1-1.9,5.3-4.6,7.2-7.6C88.4,85.4,93.2,78.1,92.4,76.3C92.3,76,92.5,76.5,92.4,76.3z M73.5,74.7
		c1.9-3.2,4.3-6.3,7-8.9c1.5-1.5,7.1-5.7,6.7-0.7c-0.5,7.2-9.2,13.7-16.1,13.7C71.9,77.5,72.7,76.1,73.5,74.7
		C74.6,72.9,72.4,76.6,73.5,74.7z"/>
	<path fill="#D81B60" d="M132.3,58.3c4.9,0,7-8.2,1.3-8.2C128.6,50.1,126.6,58.3,132.3,58.3z"/>
	<path fill="#D81B60" d="M264.3,75.8c-1.2-0.6-6,9.7-6.9,11c-1,1.6-8.3,11.1-10,5.6c-1.7-5.2,2.9-12.1,5.3-16.5
		c2.2-4,4.9-10.8,9.2-13.1c-3.2,0.6-5.8-1.8-8.1,1.6c-2-7.1-11.8-2-14.5,1.6c-3.3,4.4-6.3,14,1.6,15.4c-2.4,4.2-6.5,11.7-11.9,12.4
		c-2.6,0.3-5.1-0.8-5.7-3.6c-0.3-1.5,2.6-6.7-1.1-6.4c1.1-2,2.1-4.1,3-6.2c0.1-0.3,0.6-2.8-0.8-1.8c-1.2,0.8-1.9,3.4-2.5,4.6
		c-1.4,2.7-8,16.1-12.5,12.6c-4.2-3.3,2-13.7,3.7-17.1c1.3-2.7,5.1-13.9,9.1-13.9c-3.6,0-7.7-0.5-11.3,0c-5.6,0.8-7.4,8.2-9.2,12.6
		C199.3,80,195.6,91,189,92.9c-2.8,0.8-6.1,0.5-6.8-2.9c-0.4-1.7,1.1-3,0.9-4.7c-0.3-2-2.7-1.8-3.8-0.7c1.3-2.3,2.4-4.7,3.5-7.1
		c0.1-0.3,0.6-2.8-0.8-1.8c-1.2,0.8-1.9,3.4-2.5,4.6c-1.4,2.7-8,16.1-12.5,12.6c-4.2-3.3,2-13.7,3.7-17.1c1.3-2.7,5.1-13.9,9.1-13.9
		c-3.6,0-7.7-0.5-11.3,0c-5.6,0.8-7.4,8.2-9.2,12.6c-2.4,5.5-6.1,16.5-12.6,18.3c-2.8,0.8-6.1,0.5-6.8-2.9c-0.2-0.8,1.9-10-2.9-5.4
		c1-1.9,1.9-3.9,2.9-5.8c0.7-1.5,0.4-4.8-0.8-2c-2.4,4.8-4.8,10-8.4,14c-2.1,2.4-8.1,5.2-8.1-0.3c0-2.5,1.2-4.7,2.1-7
		c2.2-5.2,4.4-10.3,6.6-15.5c0.5-1.1,2.5-4.5,1.1-5.3c-1.9-1.1-5.7-0.3-7.7-0.3c2.9,3.9-1.5,10.5-3,14.5c0.6-2.2-1.4-0.4-1.7,0
		c-0.8,1.5-1.6,3-2.4,4.6c-1.9,3.4-3.9,6.9-6.8,9.5c-6.3,5.7-15,4.1-14.1-5.7c0.6-6.6,4.4-13.7,9.1-18.3c1.6-1.6,7.1-6.5,9.1-2.9
		c1.6,2.9-1.5,6.8-3.2,8.9c3.3,3.3,12.3-10.5,1.6-12.1c-9.8-1.4-16.7,8.3-19.9,16.2c-3.4,8.3-3.3,19.3,8.2,19.3
		c11,0,15.7-9.7,19.8-18.4c-1.7,4.4-4.7,10-2.4,14.7c4.4,9.2,14.1-1.4,16.9-5.9c-1.3,4.5,3.4,8.6,7.4,9.1c5.6,0.7,9-3.3,11.7-7.6
		c3.2-5.1,5.2-10.7,7.6-16.2c1.7-3.8,3.5-8.9,8.4-8.8c-2.3,3.5-3.7,8-5.4,11.8c-1.8,4.1-4.1,8.9-4.1,13.5c0,4.4,2.4,8.4,7.4,7.2
		c4.2-1,7.3-5.4,9.4-8.9c-1.3,4.5,3.4,8.6,7.4,9.1c5.6,0.7,9-3.3,11.7-7.6c3.2-5.1,5.2-10.7,7.6-16.2c1.7-3.8,3.5-8.9,8.4-8.8
		c-2,3-3.2,6.9-4.6,10.1c-1.9,4.2-4.1,8.8-4.7,13.5c-0.5,3.9,0.6,9.1,5.5,9.1c4.4,0,7.6-3.9,9.9-7.2c0.7,5.4,5.6,8.6,10.9,7.6
		c3.4-0.6,6.1-3.4,8.2-6c1.6-2.1,4-8.5,6.4-8.8c-1.8,3.7-3.2,7.2-1.8,11.3c1.4,3.9,5.9,4.5,9.1,2.5
		C254.2,93.9,267.3,77.2,264.3,75.8C263.8,75.5,264.8,76,264.3,75.8z M239.2,77.9c-2.2-5.1,8.3-19.9,11.9-13.6
		c1.8,3.1-1.7,8-3.1,10.6c-0.2,0.4-2.2,5-2.6,5C243.2,80.2,240.2,80.2,239.2,77.9C238.8,77.1,239.5,78.6,239.2,77.9z"/>
	<path fill="#D81B60" d="M276.7,89.2c-4.9,0-7.1,8.2-1.4,8.2C280.1,97.4,282.3,89.2,276.7,89.2z"/>
	<path fill="#D81B60" d="M308.7,37.6c-1.8-13.5-30.8-3.9-28.1,7.9c1.2,5.5,8.6,4.8,11,0.4c3.7-7-7.7-7.9-9.2-1.7
		c-1.5-8.9,22.1-13.3,19-1.1c-1.3,5-6,9.4-9.2,13.2c-4.1,4.8-7.9,9.8-11,15.4c-1.3,2.4-2.5,4.9-3.1,7.6c-0.6,3,2.2-0.1,2.6-1
		c2.2-5.2,5.4-9.8,9.2-13.9C296,57.7,310.1,48.3,308.7,37.6C308.5,35.9,308.9,39.4,308.7,37.6z"/>
</g>
<path fill="#5D4037" d="M196.6,31.3c0,0-3,4.1-4.1,4.4c-3.2,1-2.2-1.1-3-2.9c-1.3-3-4.7-0.6-2.8,1.5c1.6,2,1.4,2.2-0.5,4.5
	c-2.5,3.1-3.9,0.1-3-2.5c1.1-3.1,3.7-9.5,6.7-11.2c-1.3,0.2-2.7-0.7-3.8,0.4c-1.6,1.6-2.6,4.3-3.6,6.2c-1.7,3.4-3.3,8.6-8,8.6
	c-4.9,0-2.2-7.5-1-9.7c1.1-2,3.3-5.4,5.9-5.4c2.7,0,0,4.1-0.5,4.8c1.5,1.5,6.3-5.9-0.1-5.9c-4.3,0-7,4.1-8.7,7.5
	c-1.2,2.5-4.1,10.1-8.1,8c-1.9-1,1.7-3.9,2.5-5.2c1.2-2.1,2.1-4.8,1.5-7.3c-1.1-5.4-7.4-1.6-9.5,0.8c-2.7,3.1-3.7,7.2-6.4,10.3
	c-4.1,4.6-3.5-2-2.3-4.7c0.8-1.7,2.9-8.5,5.3-8.5c-1.6,0-5-0.7-6.3,0c-2.8,1.4-3.9,6.8-5.2,9.4c-0.9,1.7-4.8,8-7.3,4.6
	c-0.8-1.1,0.9-7.7,1.2-7.6c-1-0.4-4.3,8.7-6.9,8.5c-2.6,0,3-10.8,4-11.9c-2.1,0.4-3.1-0.8-4.5,1.5c-1.9,3-3.2,6.6-5.9,9
	c-2.8,2.5-4.2,0.2-3.2-2.6c1-2.8,2.6-5.3,4.6-7.5c1.4-1.5,3.6-3.8,5.9-3.2c0.7,0.2,1.8,2.6,2.4,1.2c0.6-1.2-2.1-2.3-2.8-2.4
	c-7.5-1.5-10.1,6.5-12.9,11.5c-1,1.7-2.5,4.5-4.8,4.5c-4.6,0,0.9-4.9,1.8-6.9c2.3-5.5-0.2-11.5-2.1-16.8c-1.3-3.7-4.5-14.1,2.9-12.9
	c5.8,0.9,9.8,3.7,14.1-2.2c-0.1,0.1-1.3-0.6-1.5-0.1c-1,1.3-2.4,1.9-4,1.8c-3.9-0.2-6.9-2.6-11-1.6c-9.3,2.3-0.3,18.1,0.8,23.4
	c-5.1-2.7-9.8,5.6-11.5,9.1c-1,2.1-2.9,6-5.6,6c-4.6,0,0.9-4.9,1.8-6.9c2.7-6.4-1.5-11.7-7.4-6.4c-4.3,3.9-5.1,9.9-10,13.4
	c1-3.8,1.3-7.8,0.6-11.7c-1.7,1.4-2.3,0.6-3.5,3.2c-1.2,2.6-3.7,7.3-6.8,8c-3.6,0.8-1.5-4.8-0.8-6c1.5-3,3.8-6.1,6.8-7.8
	c3.5-2,2.8,1.4,4.8,1.7c1.4,0.2,0.3-1.7,0-2c-1.3-1-2.8-1.5-4.4-1.4c-7,0.2-9,7.8-12.1,12.6c-1.1,1.7-3.1,4.2-5.5,3
	c-1.4-0.7,3.1-6.2,3.7-8.1c2.3-7.8-4.8-8.6-9.2-3.6c-2.4,2.7-5,12.2-9.2,12.2c-3.2,0,4.4-13.6,5-14.8c-4.2-1.3-10.7,6.1-12.9,8.8
	c1.3-2.6,3.1-7.5,5.8-9c-2,0.4-3.2-0.8-4.6,1.4c-1.7,2.6-2.9,5.5-4.3,8.2c-2.8,5.4-8.3,8.8-14.3,9.5c-6.6,0.8-13.5-1.2-14.9-8.5
	c-1-5.3,0.5-13.3,3.8-17.7c5.8,12,30.3,11.4,30.8-4c0.2-7.1-6.8-10.1-12.9-10.3C18.8,3.4,12.3,6.9,8,12.6c-0.2-1.1-0.8-10-0.7-10
	C6,2.5,6.1,6.7,6.1,7.5c0,2.9,1.3,5.8-0.3,8.2c-3.8,5.7-6.1,13.7-4,20.5c4,13.1,22.3,11.6,29.8,2.8c-0.4,0.8-0.8,1.6-1.2,2.4
	c1.1-0.7,2.7,0.3,3.5-1c1.1-2.1,2.2-4.3,3.7-6.2c1.2-1.6,2.6-3.1,4.2-4.4c1.2-0.9,3.7-1.7,2.1,0.8c-1.4,2.3-4.5,6.7-2.5,9.5
	c2.8,3.9,7.2-2,8.4-4.2c-0.5,4.2,2.8,6.3,6.5,4.2c1.7-1,2.2,0.5,4.1,0.5c2.4,0,4.2-2.3,5.3-4.2c-0.1,2.9,2.3,5.7,5.3,4
	c2.9-1.7,4.9-5,6.4-7.9c0.5,2-0.1,4.7-0.5,6.7c-0.6,3.2-2.2,3.1-5.1,4.1c-3.7,1.3-15.7,5.2-12,11.2c3.5,5.7,12.5-2,14.8-4.9
	c1.9-2.4,3.5-5.2,4.6-8.1c2.5-1.2,4.2-3.2,5.5-5.6c-0.4,4.2,2.9,6.2,6.5,4.1c1.7-1,2.2,0.5,4.1,0.5c2.6,0,4.4-2.6,5.6-4.5
	c-0.4,4.2,2.9,6.2,6.5,4.1c1.7-1,2.2,0.5,4.1,0.5c2.3,0,4-2.1,5.1-3.9c-0.2,8.5,7.5,1.2,9.4-2c-1.6,5.7,2.7,8,6.3,3.1
	c1.8,5.4,7.2,2.2,9.2-1.1c1.7-2.8,3.5-11.8,7.5-11.7c-1.9,2.9-3.8,7.5-4.5,10.9c-0.4,1.9,0,4.8,2.6,4.8c2.7,0,4.6-3,5.8-5.1
	c-0.5,4.2,2.8,6.3,6.5,4.2c1.7-1,2.2,0.5,4.1,0.5c2.7,0,4.6-2.9,5.8-4.9c-0.7,6.8,7.6,6.7,11,2.6c0.5,5.6,7.1,2,8.7-0.8
	c1.2-2.2,2-0.1,4.4-1.1C194.1,36,198,31.9,196.6,31.3C196.4,31.1,196.9,31.4,196.6,31.3z M13.1,11.5C17.6,7.2,23.8,4.3,30,5.9
	c6.3,1.7,8.6,8.6,4.7,13.9c-3.9,5.3-11.7,6.3-17.7,4.3c-2.6-0.9-4.9-2.5-6.4-4.8C8.3,15.9,10.4,14.1,13.1,11.5z M56.4,34.9
	c-1,1.7,1.4,6.2-2.9,5c-3-0.9,0.5-7.9,1.3-9.2c0.7-1.2,5.5-7.7,7-4c1.2,2.9-1.2,7.3-2.8,9.6C59.5,34.8,57.3,33.3,56.4,34.9z M73,48
	c-1.9,2.6-4.1,4.9-7,6.3c-1.8,0.8-6.5,1.8-5.6-1.8c1.5-6,10.5-7.6,15.3-9.4C75.1,44.9,74.1,46.5,73,48C72.4,48.9,74.2,46.4,73,48z
	 M91.3,34.9c-1,1.7,1.4,6.2-2.9,5c-3-0.9,0.5-7.9,1.3-9.2c0.7-1.2,5.5-7.7,7-4c1.2,2.9-1.2,7.3-2.8,9.6
	C94.4,34.8,92.2,33.3,91.3,34.9z M107.4,35c-1,1.7,1.4,6.2-2.9,5c-3-0.9,0.5-7.9,1.3-9.2c0.7-1.2,5.5-7.7,7-4
	c1.2,2.9-1.2,7.3-2.8,9.6C110.5,34.9,108.4,33.4,107.4,35C107.2,35.4,107.7,34.6,107.4,35z M159.4,34.9c-1,1.7,1.4,6.2-2.9,5
	c-3-0.9,0.5-7.9,1.3-9.2c0.7-1.2,5.5-7.7,7-4c1.2,2.9-1.2,7.3-2.8,9.6C162.5,34.8,160.3,33.3,159.4,34.9z"/>
</svg>
