<?xml version="1.0" encoding="utf-8"?>
<!-- Generator: Adobe Illustrator 18.0.0, SVG Export Plug-In . SVG Version: 6.00 Build 0)  -->
<!DOCTYPE svg PUBLIC "-//W3C//DTD SVG 1.1//EN" "http://www.w3.org/Graphics/SVG/1.1/DTD/svg11.dtd">
<svg version="1.1" id="Layer_1" xmlns="http://www.w3.org/2000/svg" xmlns:xlink="http://www.w3.org/1999/xlink" x="0px" y="0px"
	 viewBox="0 0 402 226" enable-background="new 0 0 402 226" xml:space="preserve">
<g>
	<g>
		<path fill="#F8F7F3" d="M176.8,55.6c0,32.9-14.5,67.2-30.4,95.4c-15.6,27.7-37.6,56.9-67.7,69.9c-13.7,5.9-31.2,8-44.3-0.4
			C20.8,211.7,16,195,16,179.7c0-32.2,17.3-65.2,34.4-91.5C66.9,62.7,88,37.6,115.5,23.5c12.7-6.5,30.2-10.9,43.7-4.3
			C172.9,25.8,176.8,41.5,176.8,55.6z M163.3,49.1c0-14.5-6-27.5-22.3-25.7c-15.2,1.7-27.7,14.3-37.3,25.1
			c-22.5,25.2-39,56.6-51.6,87.8c-6,14.7-11.4,30.2-13.9,45.9c-1.8,11.2-1.9,29,10.3,34.6c13.7,6.3,28.8-2.2,39.1-11
			c12.4-10.7,22.3-24,31.1-37.7c12-18.9,21.9-39.2,29.9-60.1C155.5,89.6,163.3,69.1,163.3,49.1z"/>
		<path fill="#F8F7F3" d="M351.8,25.7c-26.5,48.6-53,97.2-79.6,145.8c-6.5,11.9-13,23.7-19.4,35.6c-2.6,4.8-4.9,13.2-10.8,14.4
			c-2,0.4-17.6,2.5-18.1-0.2c-0.5-3.1,2.5-6.5,4.1-9.2c2.5-4.4,5.1-8.9,7.6-13.3c9-15.8,17.9-31.7,26.7-47.5
			c18-32.3,35.9-64.6,53.9-96.7c1.1-2,2.2-3.9,3.3-5.9c-15.8,14.5-32.7,27.9-50.8,39.3c-1.9,1.2-7.4,6.3-8.9,3.3
			c-1.2-2.5-0.8-3.5,1.5-5.3c8.8-6.6,17.5-13.2,26.1-20c7.7-6.1,15.3-12.3,22.5-19c7.5-6.9,14.2-14.6,21.8-21.5
			c5.1-4.7,10.6-4.8,17-5.4c1-0.1,5-0.9,5,0.5C353.5,22.7,352.6,24,351.8,25.7z"/>
	</g>
</g>
<g>
	<path fill="#D81B60" d="M133.2,68.8c-1.3-0.6-5.5,8.7-6.3,10c-2.5,3.8-5.8,8-10.5,8.9c1.9-5.6,2-14-5.8-13.8
		c4.6-2.8,8.6-7.1,9.6-12.5c1.1-6-4.6-8.7-9.7-7.1c-5.8,1.9-8.5,7-11.1,12.1c-1.2,2.3-3.8,5.7-3.9,8.3c-0.1,2.5,3.5-4,3.6-4.3
		c1.9-3.7,4.1-9.3,8.3-10.9c2.4-0.9,5.4-0.8,6.9,1.6c1.9,2.9,0,5.9-1.9,8.2c-1.1,1.4-10.7,8.2-10.7,8.2c1.3,3.2,8.8-5.8,9.6,2
		c0.3,2.6-0.3,5.3-0.9,7.8c-0.9,3.7-3.3,3.5-6.7,4.6C97,94,90.2,96,83.9,99.1c-4.8,2.4-10.2,5.9-11.1,11.7c-1,6.7,5.6,10,11.4,8.9
		c12.4-2.2,23-11.9,28.7-22.8c1.3-2.5,1.8-6.3,4.5-7.1c3-0.9,5.5-3,7.5-5.3C126.2,83.1,135.1,69.6,133.2,68.8
		C132.7,68.6,133.7,69,133.2,68.8z M103.6,102.3c-3.8,5.1-8.5,9.7-14.1,12.8c-4.8,2.6-15.7,5.4-12.9-4.2
		c3.7-12.9,21.6-14.6,32.3-18.2C107.5,96,105.8,99.3,103.6,102.3C101.5,105.1,105.7,99.4,103.6,102.3z"/>
	<path fill="#D81B60" d="M168,76c0.9-1.7,3.1-4.6,3.1-6.6c0-2.5-3.1,3-3.1,3.1c-2.3,4.5-5,10.3-9.3,13.3c-5.5,4-3-6.5-2.3-8.5
		c1.8-5,4.5-11.5,8.3-15.4c-2.8,0.5-5.8-1.6-7.9,1.1c-2.5,3.1-4.1,6.9-6.1,10.4c-1,1.8-13.1,19.4-15,10.8c-1.8-8,16.5-35.5,24.7-27
		c0.8,0.9,0.7,2.9,2.3,2.2c1.3-0.6,0.7-2.1,0-2.8c-2.9-3.2-7.4-3.7-11.5-2.7c-7.7,1.9-13.3,7.8-16.8,14.7c-2.6,5-6.2,15.5-0.5,19.8
		c6.4,4.7,14.2-7.7,16.7-12c-1.2,4.3-2.1,13.5,5,12.9C161.4,88.7,165.6,80.4,168,76C169.1,73.9,166.9,78.1,168,76z"/>
	<path fill="#D81B60" d="M195.1,80.6c5.2-7,11.5-26.9-3.8-26.6c-2.5,0-2.3,2.4,0.1,2.1c3.2-0.3,5.2,1.5,5.4,4.8
		c0.3,6.1-3.7,12.5-7,17.3c-2.2,3.1-7.1,10.4-11.9,8.1c-4.8-2.4-1.5-11.9-0.3-15.5c2.1-6.1,5.1-11.7,8.1-17.3
		c6.4-2.1,12.8-4.4,18.8-7.5c11.2-5.6,21.5-14.7,26.7-26.3c2.1-4.8,3.9-12.7-3.2-14c-7-1.2-13.7,2.9-18.8,7.3
		c-10.8,9.4-18.6,21.7-25.5,34.1c-1.9,3.3-2,5.7-6.3,5.2c-1.4-0.2-3.2-0.5-4-1.8c0.2,0.4-0.7-2.8-0.6-2.6c-1.9-2.2-2.2,2.3-1.4,3.6
		c1.8,2.8,5,3.6,8.2,3.3c-2.6,4.9-5,10-7.6,14.9c-0.9,1.7-9,13.3-8.1,14.7c0.8,1.2,10.4-15.6,11.2-17.1c-2.6,5.4-8.8,16.6-1.2,20.8
		C181.2,92.1,190.7,86.4,195.1,80.6C196.5,78.7,193.7,82.5,195.1,80.6z M192.4,42.5c5.1-8.2,10.7-16.5,17.3-23.6
		c2.4-2.6,19.6-17.3,20.3-6.6c0.6,8.9-9.2,18.7-15.3,24c-7.8,6.6-17.4,11.2-27.1,14C189.1,47.7,190.7,45.1,192.4,42.5
		C194.2,39.6,190.5,45.4,192.4,42.5z"/>
	<path fill="#D81B60" d="M249.3,68.8c-1.7-0.7-4.4,7.3-5.1,8.4c-2.4,3.9-5.5,7-9.2,9.7c2.1-7.9,2.6-16.2,1.3-24.3
		c-2.5,2.1-5-0.1-6.2,4c-1.2,4-3.6,7.8-6,11.2c-2.1,2.9-4.6,6.1-7.9,7.6c-3.4,1.6-6-0.9-5.6-4.4c0.7-7,6-14.3,10.9-19.2
		c2.6-2.6,5.9-5.7,9.7-6.2c4.4-0.6,3.7,4.5,6.4,4.9c1.8,0.3,1.6-2.1,1-3c-0.9-1.3-2.5-2.2-3.9-2.9c-3.9-1.8-8.5-1.4-12.4,0.3
		c-7.3,3.2-12.6,11.1-15.2,18.4c-2,5.6-2.1,16.7,6.8,15.5c7.6-1,13.1-11.5,16.2-17.6c1.3,5.3-0.3,12.5-1.8,17.6
		c-1.2,4.2-12.5,5.9-16.5,7.4c-6,2.4-12.4,5.2-16.8,10.1c-3.3,3.7-3.9,10.8,1.3,13.2c12.5,5.8,26.1-8.6,31.9-17.8
		c1.7-2.7,3.2-5.5,4.5-8.4c1-2.3,0.9-2.9,3.1-4.1c1.6-0.9,3-2.1,4.3-3.4C241.6,84.4,251.5,69.7,249.3,68.8
		C248.8,68.6,249.8,69,249.3,68.8z M221.1,103.6c-3.6,4.8-7.6,9.4-13,12.3c-3.2,1.7-13.5,5.8-13.5-1.4c0.1-13.2,23-17.6,32.1-21
		C225.3,97.1,223.3,100.4,221.1,103.6C219.7,105.5,223.6,100.1,221.1,103.6z"/>
	<path fill="#D81B60" d="M284.1,76c0.9-1.7,3.1-4.6,3.1-6.6c0-2.5-3.1,3-3.1,3.1c-2.3,4.5-5,10.3-9.3,13.3c-5.5,4-3-6.5-2.3-8.5
		c1.8-5,4.5-11.5,8.3-15.4c-2.8,0.5-5.8-1.6-7.9,1.1c-2.5,3.1-4.1,6.9-6.1,10.4c-1,1.8-13.1,19.4-15,10.8c-1.8-8,16.5-35.5,24.7-27
		c0.8,0.9,0.7,2.9,2.3,2.2c1.3-0.6,0.7-2.1,0-2.8c-2.9-3.2-7.4-3.7-11.5-2.7c-7.7,1.9-13.3,7.8-16.8,14.7c-2.6,5-6.2,15.5-0.5,19.8
		c6.4,4.7,14.2-7.7,16.7-12c-1.2,4.3-2.1,13.5,5,12.9C277.6,88.7,281.8,80.4,284.1,76C285.2,73.9,283,78.1,284.1,76z"/>
	<path fill="#D81B60" d="M320.9,76.1c0.9-1.7,3.1-4.7,3.1-6.7c-0.1-2.6-3.9,4.5-4,4.8c-1.9,3.7-6,12.6-11,12.6
		c-7.5,0,7.7-28.5,12.2-31c-2.8,0.5-5.6-1.5-8,0.9c-2.2,2.2-3.5,5.3-4.9,8c-0.9,1.7-1.9,5.9-4.1,6.3c-3.5,0.7-6.5-3.3-10.1-1.6
		c2.2-4.2,5.1-11.2,9.4-13.6c-2.8,0.5-5.6-1.5-8,0.9c-2.7,2.7-4.3,6.8-6,10.1c-3.9,7.5-7.3,15.3-11.1,22.9c2.2-1.4,5.7,0.6,7.2-2.1
		c1.4-3.3,2.9-6.7,4.4-10c0.8-1.8,1.7-5.4,3.9-5.9c3.5-0.9,6.5,3.4,10.1,1.6c-2.1,4.5-5.4,13.9,2,15.9
		C312.8,91.1,318.5,80.8,320.9,76.1C322,74,319.8,78.2,320.9,76.1z"/>
	<path fill="#D81B60" d="M398.9,68.8c-1.2-0.6-6,9.7-6.9,11c-1,1.6-8.3,11.1-10,5.6c-1.7-5.2,2.9-12.1,5.3-16.5
		c2.2-4,4.9-10.8,9.2-13.1c-3.2,0.6-5.8-1.8-8.1,1.6c-2-7.1-11.8-2-14.5,1.6c-3.3,4.4-6.3,14,1.6,15.4c-2.4,4.2-6.5,11.7-11.9,12.4
		c-2.6,0.3-5.1-0.8-5.7-3.6c-0.3-1.6,2.6-6.2-0.8-6.4c1.1-2,2.1-4.1,3.1-6.2c0.1-0.3,0.6-2.8-0.8-1.8c-0.9,0.6-1.5,2.7-2,3.6
		c-2.1,4.1-6.4,14.4-11.9,14.4c-7.5,0,7.7-28.5,12.2-31c-2.8,0.5-5.6-1.5-8,0.9c-2.2,2.2-3.5,5.3-4.9,8c-0.9,1.7-1.9,5.9-4.1,6.3
		c-3.5,0.7-6.5-3.3-10.1-1.6c2.2-4.2,5.1-11.2,9.4-13.6c-2.8,0.5-5.6-1.5-8,0.9c-2.7,2.7-4.3,6.8-6,10.1
		c-3.9,7.5-7.3,15.3-11.1,22.9c2.2-1.4,5.7,0.6,7.2-2.1c1.4-3.3,2.9-6.7,4.4-10c0.8-1.8,1.7-5.4,3.9-5.9c3.5-0.9,6.5,3.4,10.1,1.6
		c-2.1,4.6-4.7,10.4-0.2,14.6c4.9,4.6,11-2.1,13.6-5.9c1,5.7,6.9,8.9,12.3,6.8c2.7-1.1,4.9-3.4,6.7-5.6c1.6-2.1,4-8.5,6.4-8.8
		c-1.8,3.7-3.2,7.2-1.8,11.3c1.4,3.9,5.9,4.5,9.1,2.5C388.8,86.9,401.9,70.1,398.9,68.8C398.4,68.5,399.4,69,398.9,68.8z
		 M373.8,70.9c-2.2-5.1,8.3-19.9,11.9-13.6c1.8,3.1-1.7,8-3.1,10.6c-0.2,0.4-2.2,5-2.6,5C377.9,73.2,374.8,73.2,373.8,70.9
		C373.5,70.1,374.1,71.6,373.8,70.9z"/>
</g>
<g>
	<path fill="#5D4037" d="M48.9,15.9c0.6-1.6,1.2-3.1,1.9-4.6c1.3-2.9,1.8-2.3,4.6-3.4c2.7-1.1,3.6-5.3-0.2-4.2
		c-1.3,0.4-2.5,1.9-3.2,3.1c-1,1.5-4.1,1-5.8,1.2c-4.5,0.3-9.2,0.7-13.5,2.3c-6.3,2.3-13.6,11-6.9,17.1c8.3,7.5,14.5-8,11.3-8.9
		c1.5,0.4-2.1,7.9-3.1,8.7c-4.2,3-8.1-0.9-7.8-5.3C26.9,9.7,42,9.6,50.7,8.6c-6.6,12.5-10,28.2-23.1,35.8C21,48.2,11,49.6,5.4,43.4
		c-2.3-2.6-2.9-6.3-2-9.6c0.4-1.4,4.8-5.5,4.8-6.2C8,26.1,2.9,31,2.5,31.9c-1.4,3-1.2,6.9,0.1,9.9c3.2,7,12.3,9.1,19.2,8.2
		C38.9,47.4,43.9,29.9,48.9,15.9C49.8,13.1,47.9,18.6,48.9,15.9z M53.9,6.3c0.1-0.1,2.1-2.4,2.5-1.1c0.5,1.5-2.6,2-3.4,2.2
		C53.3,7,53.6,6.6,53.9,6.3C54.2,5.9,53.6,6.7,53.9,6.3z"/>
	<path fill="#5D4037" d="M109.4,32.4c-1.3,2.6-4.3,10.2-8.5,7.8c-4.2-2.4-2.8-10.6,1.1-12.2c2.2-0.9,3.5,1,5,0.5
		c1.9-0.7,1.5-3.1-0.4-3.4c-4.4-0.6-8.6,4.5-11,7.5c1-2,2.5-5.6,4.7-6.8c-1.1,0.2-2-0.4-3-0.1c-1.6,0.6-2.5,3.2-3.3,4.5
		c-1.5,2.8-2.6,6-4.6,8.5c-0.8,1-1.8,2-3.2,2c-4,0-0.8-2.6,0.2-4.1c1.8-2.6,4.3-8,1.4-10.8c-6-5.6-12.2,9.9-14.6,12.9
		c-2.5,3.1-4.7,2-3.3-1.8c1.4-3.8,3.4-7.4,5.4-10.9C71,25,64.4,32.3,62.3,35.1c1-2.7,2.4-6,1.9-8.9c-0.2-1.4-3.1-0.4-4-0.3
		c1.8,0.4,0.1,5.2-0.3,6c-0.2,0.5-1.4,4.3,0.1,1.7c-1,4.6-3.6,9.1-5.7,13.2c-3.3-3-4.8-7.6-5.9-11.8c-0.1-0.2-1-5.6-0.7-5.5
		c2.6-0.7,5.1-1.9,7.4-3.3c2.8-1.6,28.5-22.4,24.7-24.9c0,0-12.2,13.2-13.7,14.5c-5.4,4.6-11.6,9.3-18.2,11.9
		c-2.6,1-3.6,0.4-3.4,3.6c0.2,3.1,1,6.2,2.1,9c1.3,3.4,3.4,6.7,6.5,8.7c-0.9,1.8-1.9,4.2-3.3,5.7c1.8-0.3,3.2,1,4.5-1
		c1.3-1.9,0.6-3.4,3-3.1c2.8,0.4,5.5-0.5,7.8-1.9c0.5-0.3,6-5.3,4.6-5.7c-0.1,0-4.1,4.1-4.9,4.5c-2.4,1.1-5.5,1.7-8.1,0.8
		c2.5-6.1,4.5-11.9,9.5-16.5c0.8-0.8,5.5-3.8,3.4-0.3c-1.3,2-2.6,4.1-3,6.6c-0.3,2,0.6,4.1,2.9,4.1c2.7,0,4.7-3.1,5.9-5.1
		c-0.3,3.4,2,6,5.5,4.5c2.5-1,1.7-0.5,4.1-0.1c1.6,0.3,3-0.3,4.1-1.4c-1.7,3.4,1.8,2.2,2.5,0.9c1.2-2.8,2.4-5.4,4.3-7.9
		c-1,4.6,1.4,9.6,6.7,8.7c1.9-0.3,9.3-8.5,7.4-9.9C109.7,32.2,109.5,32.3,109.4,32.4C108.7,33.8,109.5,32,109.4,32.4z M82,35.9
		c-1,1.7,1.4,6.2-2.9,5c-3-0.9,0.5-7.9,1.3-9.2c0.7-1.2,5.5-7.7,7-4c1.2,2.9-1.2,7.3-2.8,9.6C85.1,35.8,83,34.3,82,35.9z"/>
	<path fill="#5D4037" d="M183.8,44c-1.9-0.5-3.4,1.9-6,1.2c-4.3-1.1-8-2.2-11.1,1.8c0-0.1,5.2-1.2,6.1-0.9c2.3,0.6,4.8,1.8,7.2,1
		C180.4,47,184.5,44.2,183.8,44C183.7,43.9,183.9,44,183.8,44z"/>
	<path fill="#5D4037" d="M227.5,32.3c1.2,0.6-9.8,13.9-7.9,5.6c0.8-5,5-8.5,6.5-12.9c-7.9-1.2-7.1,13.1-13.7,15.7
		c-4.9,1.9,5.2-15.4,5.3-15.7c-4.4,0-4.8,1.5-6.8,5.3c-1.3,2.6-2.5,5.4-4.2,7.7c-0.6,0.9-3.2,4.2-4.3,2c-0.9-1.6,0.6-4.2,1.2-5.6
		c1.4-3.2,4.2-6.4,5.3-9.5c-7.9-1.2-7.1,13.1-13.7,15.7c-4.9,1.9,5.2-15.4,5.3-15.7c-4.4,0-4.8,1.5-6.8,5.3
		c-1.3,2.6-2.5,5.4-4.2,7.7c-0.6,0.9-3.2,4.2-4.3,2c-0.9-1.6,0.6-4.2,1.2-5.6c1.4-3.2,4.2-6.4,5.3-9.5c-3.7-0.5-4.5,1.5-6,4.6
		c-1.3,2.7-4.5,11.2-8.3,11.2c-4.4-0.4,5.2-14.5,5.6-15.8c-7.9-1.2-7.1,13.1-13.7,15.7c-4.9,1.9,5.2-15.4,5.3-15.7
		c-3.7,0-4.3,0.6-6,3.9c-1.5,2.9-2.8,6-4.6,8.7c-2.1,3.1-6.2,4.9-4.2-0.5c1.4-3.8,3.4-7.4,5.4-10.9c-4.2-1.3-10.7,6.1-12.9,8.8
		c1-2.7,2.4-6,1.9-8.9c-0.2-1.4-3.1-0.4-4-0.3c3.7,0.8-6.2,21.2-10.4,14.5c-0.7-1.2-0.7-2.7-0.4-4c0.5-2.3,1.3-1.7,3.4-2.4
		c2.1-0.7,9.4-5.6,5.7-8.5c-6.2-4.4-11.2,8.8-13.4,12.1c-2.1,3.1-6.1,4.9-4.2-0.5c1.4-3.8,3.4-7.4,5.4-10.9
		c-4.2-1.3-10.7,6.1-12.9,8.8c1.3-2.6,3.1-7.5,5.8-9c-1.1,0.2-2-0.4-3-0.1c-1.6,0.6-2.5,3.2-3.3,4.5c-2,3.9-3.8,7.9-5.7,11.8
		c1.1-0.7,2.7,0.3,3.5-1c1.1-2.1,2.2-4.3,3.7-6.2c1.2-1.6,2.6-3.1,4.2-4.4c1.2-0.9,3.7-1.7,2.1,0.8c-1.4,2.3-4.5,6.7-2.5,9.5
		c2.8,4,7.2-2.1,8.5-4.3c-0.4,3.8,2.7,6.1,6.4,5.2c4.1-1,5.2-5.2,7.1-8.3c-0.9,4.1-3.1,8.1-5,11.8c-1.5,2.9-2.9,7-5.2,9.4
		c2.7-0.5,3.7,0.9,5.2-2.3c0.6-0.9,0.9-2.2,1.3-3.2c1.4-3.5,2.6-7.2,4.4-10.5c1.4-2.7,3.3-4.9,5.5-7c0.6-0.6,2.4-2.4,3.5-2.2
		c1.3,0.3-1.5,4.3-1.8,4.7c-1,1.8-2.2,4.7-0.8,6.7c2.7,3.8,7-1.8,8.3-3.9c-0.8,2.3,0.1,4.8,2.8,4.8c3,0,5.2-4,6.5-6.1
		c-0.8,2.3-0.7,7.3,3.2,6c2.5-0.8,4.3-3.8,5.5-6c-0.6,1.6-1,4.6,0.8,5.7c3,2,5.9-2.4,7.1-4.5c-0.8,2.3,0,4.9,2.8,4.9
		c3,0,5.2-4,6.5-6.1c-0.6,1.6-1,4.6,0.8,5.7c3,2,5.9-2.4,7.1-4.5c-0.8,2.3,0,4.9,2.8,4.9c3,0,5.2-4,6.5-6.1
		c-0.8,2.5-0.5,7.4,3.5,5.9C222.6,41.2,229.1,33,227.5,32.3C227.3,32.2,227.8,32.4,227.5,32.3z M141.4,31.8c0.3-0.5,5.9-7.8,6.6-5.2
		c0.9,3.7-4.7,7.2-7.7,7.2C140.6,33.1,141,32.4,141.4,31.8C141.9,30.9,140.9,32.7,141.4,31.8z"/>
	<path fill="#5D4037" d="M216.5,19.5c1.6,1.7,4.5,1.7,6.5,0.9c0.6-0.2,4.9-4,3.5-4c-1-0.1-1.8,1.7-2.5,2.2c-1.8,1.2-4.7,1-6.2-0.5
		c-0.3-0.3-0.7-1.9-1.2-1.9C215.1,16.2,216,19,216.5,19.5C216.8,19.8,216.2,19.2,216.5,19.5z"/>
</g>
</svg>
