<?xml version="1.0" encoding="utf-8"?>
<!-- Generator: Adobe Illustrator 18.0.0, SVG Export Plug-In . SVG Version: 6.00 Build 0)  -->
<!DOCTYPE svg PUBLIC "-//W3C//DTD SVG 1.1//EN" "http://www.w3.org/Graphics/SVG/1.1/DTD/svg11.dtd">
<svg version="1.1" id="Layer_1" xmlns="http://www.w3.org/2000/svg" xmlns:xlink="http://www.w3.org/1999/xlink" x="0px" y="0px"
	 viewBox="0 0 310 100" enable-background="new 0 0 310 100" xml:space="preserve">
<g>
	<path fill="#D81B60" d="M107.5,58.8c2.9,0.7,3.5-1.9,6.1-2.6c3.2-0.9,6.9,0.4,9.9,1.3c7.7,2.3,14.6,2.1,19.4-5.1
		c0.2-0.2-2-0.2-2-0.3c-1,0.1-2.2,1.9-3.1,2.4c-3.3,1.8-7.9,0.1-11.3-0.9c-3.8-1.1-8.2-2.2-12.1-0.8
		C113.2,53.3,106.5,58.6,107.5,58.8C107.7,58.9,107.2,58.7,107.5,58.8z"/>
	<path fill="#D81B60" d="M146.3,76.6c-0.9-0.4-12.3,24.2-16.7,17.3c-2.2-3.4,2.3-10.7,3.6-13.8c2.5-5.5,5.3-10.8,8.3-16.1
		c-4.6-1.5-12.4,4.7-15.7,7.2c-4.2,3.2-7.8,7.1-11.1,11.2c2-4.2,4.6-8.2,6.6-12.4c2.1-4.5-0.2-7.7-5-5c-7.2,4-13.6,11-18.7,17.4
		c2.6-5.5,6.5-15.8,12.1-18.8c-2.8,0.5-5.6-1.5-8,0.9c-2.4,2.4-3.8,5.9-5.4,8.9c-4.1,7.9-7.6,16-11.5,23.9c2.2-1.4,5.8,0.6,7.1-2.2
		c1.9-3.6,3.9-7.2,6.2-10.5c2-2.9,10-14.6,14.3-13.7c1.5,0.3-6.2,16.9-6.6,18.8c-0.5,2.4-0.8,7.1,2.9,7.1c0.8-3.5,2.9-6.8,4.9-9.8
		c3.5-5.4,8.1-11.9,13.9-15.1c5-2.8,2.8,2.5,1.4,4.7c-2,3.3-4,6.7-5,10.5c-1.8,7.4,4.5,13.4,11.2,7.9
		C136.9,93.7,149.1,77.9,146.3,76.6C145.8,76.3,146.8,76.8,146.3,76.6z"/>
	<path fill="#D81B60" d="M181.1,83.8c0.9-1.7,3.1-4.6,3.1-6.6c0-2.5-3.1,3-3.1,3.1c-2.3,4.5-5,10.3-9.3,13.3c-5.5,4-3-6.5-2.3-8.5
		c1.8-5,4.5-11.5,8.3-15.4c-2.8,0.5-5.8-1.6-7.9,1.1c-2.5,3.1-4.1,6.9-6.1,10.4c-1,1.8-13.1,19.4-15,10.8c-1.8-8,16.5-35.5,24.7-27
		c0.8,0.9,0.7,2.9,2.3,2.2c1.3-0.6,0.7-2.1,0-2.8c-2.9-3.2-7.4-3.7-11.5-2.7c-7.7,1.9-13.3,7.8-16.8,14.7c-2.6,5-6.2,15.5-0.5,19.8
		c6.4,4.7,14.2-7.7,16.7-11.9c-1.2,4.3-2.1,13.5,5,12.9C174.5,96.5,178.8,88.3,181.1,83.8C182.2,81.7,180,85.9,181.1,83.8z"/>
	<path fill="#D81B60" d="M220.8,76.1c-0.8-0.6-5.6,9.3-6.4,10.5c-2.3,3.6-6.1,8.5-11.1,7.1c-8.8-2.5-8.1-20.8-1.6-24.7
		c1.9-1.2,10.3-4.8,10.8-0.2c3.2,0.9,6.6-3.9,3.7-6.2c-7.9-6.3-21.4,9.8-25.4,14.8c2.1-4.3,5.3-11.8,9.7-14.2
		c-2.8,0.5-5.6-1.5-8,0.9c-2.7,2.7-4.3,6.8-6,10.1c-3.9,7.5-7.3,15.3-11.1,22.9c1.7-1.1,3.9-0.3,5.8-0.8c1.9-0.5,2.7-4.3,3.4-5.9
		c1.9-4.3,4.1-8.1,6.9-11.8c-2.1,9.6,3,20,14,18.1c4.3-0.8,7.5-4.8,9.8-8.3C216.3,86.9,222.5,77.4,220.8,76.1z"/>
	<path fill="#D81B60" d="M247.8,76.7c-2,0-3.9,6.3-4.7,7.7c-1.6,2.9-3.6,5.6-6.2,7.8c-5.2,4.4-12.2,3.9-12-4c0-2.1,0.2-6.5,2.5-6.8
		c3.4-0.5,6.9-1.7,9.8-3.4c4.2-2.5,14.3-14.5,4.3-16.5c-12.6-2.5-26.8,20.5-21.2,31.1c3.3,6.2,12.2,5.5,17.1,1.9
		c2.9-2.1,5-5.1,6.7-8.2C244.7,85.3,249,76.7,247.8,76.7z M229.4,75.5c1.9-3.2,4.3-6.2,7-8.9c1.5-1.5,7.1-5.7,6.7-0.7
		c-0.5,7.2-9.2,13.7-16.1,13.7C227.8,78.3,228.6,76.9,229.4,75.5C230.5,73.6,228.3,77.4,229.4,75.5z"/>
	<path fill="#D81B60" d="M292.2,38.4c-1.8-13.5-30.8-3.9-28.1,7.9c1.2,5.5,8.6,4.8,11,0.4c3.7-7-7.7-7.9-9.2-1.7
		c-1.5-8.9,22.1-13.3,19-1.1c-1.3,5-6,9.4-9.2,13.2c-4.1,4.8-7.9,9.8-11,15.3c-1.3,2.4-2.5,4.9-3.1,7.6c-0.6,3,2.2-0.1,2.6-1
		c2.2-5.2,5.4-9.8,9.2-13.9C279.5,58.5,293.7,49.1,292.2,38.4C292,36.7,292.5,40.1,292.2,38.4z"/>
	<path fill="#D81B60" d="M260.2,90c-4.9,0-7.1,8.2-1.4,8.2C263.6,98.2,265.8,90,260.2,90z"/>
</g>
<g>
	<path fill="#5D4037" d="M111.7,23.6c2,0.5,3.3-1.8,6-1.1c4.2,1.1,8.1,2.3,11-2c-0.9,0.9-4.5,1.5-6.1,1.1c-2.1-0.5-4.3-1.5-6.6-1.1
		C115,20.6,111.2,23.4,111.7,23.6C111.8,23.6,111.6,23.5,111.7,23.6z"/>
	<path fill="#5D4037" d="M142.1,32.2c-1.1,0-3.7,6-4.6,6.9c-2.6,2.6-6.6,2.7-6.3-1.7c0.3-4.2,3.6-2.8,6.6-5c2-1.5,6-7.6,0.8-7.6
		c-7.2,0-8.9,9.7-12.5,14c-2.5,3.1-4.6,2-3.3-1.8c1.4-3.8,3.4-7.4,5.3-10.9c-4.2-1.4-10.7,6.1-12.9,8.8c0.7-1.4,6.6-11.9,0.5-8.2
		c-3.3,2-6.3,5.2-8.7,8.2c1.3-2.6,3.1-7.5,5.8-9c-1.3,0.2-2.7-0.7-3.8,0.4c-1.6,1.6-2.9,4.5-3.7,6.5c-1.3,2.8-4.7,10-8.9,8
		c-1.2-0.6-1.3-2.4-1.3-3.5c0.2-3,0.9-2.6,3.5-3.5c2.1-0.7,10.5-7.2,4.8-8.9c-8.3-2.6-10,12.5-14.9,15.4c-3.3,2,0.9-8,1.3-8.9
		c0.7-1.3,1.5-2.8,1.7-4.3c0.2-1.1-5.5-0.4-6.7-0.5c1.6-1.1,3.5-3.1,2.5-5.2c-2-4.5-3.6,3.7-3.8,4.6c-0.7,2.3-7.8,20.1-11.3,13.4
		c2.6-2.4,9.4-16.4,0.4-14.3c-7.4,1.7-8.5,12-13.8,16.3c-8,6.5-7.9-8.6-7.9-12.7c0-1.7,0-3.3,0-5c0-2.7,2.8-3.7,5-5.1
		c3.4-2.3,6.8-4.6,10.2-6.9c3.2-2.1,6.6-4.2,9.3-6.9c4-4-0.4-2.5-2.6-0.3c-6.4,6.2-14.6,10.7-21.8,15.7c0-4.4,1.1-14-4.4-15.6
		C40.9,3,33.8,8,30,11.5c-0.8,0.8-1.6,3.8-0.5,2.8c1.8-1.8,3.4-3.6,5.4-5.1c2.2-1.6,5.3-2.9,8-2.3c4.2,0.8,4.3,6,4.4,9.4
		c0,1.6,0.1,3.3,0.1,4.9c0,2.5-1.3,2.6-3.2,4c-3.2,2.4-6.3,4.8-9.4,7.4C29.1,37.6,21.2,43.9,18,51c-0.6,1.2,0.1,2.2,1.5,1.1
		c1.2-0.9,1.9-2.4,2.7-3.6c2-2.9,4.3-5.6,6.8-8.2c5.6-5.8,11.9-10.9,18.4-15.6c-0.1,5.5-1.8,14,1.2,19c4.4,7.4,12.9-3.3,15.2-7.2
		c-1,7.9,5.7,3.2,8.7,4.6c5.1,2.4,8.3-5.7,9.8-9.1c0.9-2.2,0.8-4.5,3.4-4c4,0.7,0.7,4.2-0.4,6.2c-0.9,1.9-2.7,6.6,0.6,7.5
		c3,0.9,5.3-3.1,6.5-5.1c-0.5,5.7,5.9,6.8,9.5,3.4c-0.3,0.7-0.7,1.4-1,2.1c0.8-0.5,1.9-0.1,2.8-0.4c1.3-0.4,2.7-4.4,3.5-5.6
		c1.5-2.3,3.8-5.4,6.4-6.6c1.8-0.9-1.1,5-1.3,5.5c-0.6,1.2-3.1,6.8,0.1,6.8c0.8-3.4,3.6-6.8,5.9-9.3c2.3-2.5,6.3-4.7,3.3,0.4
		c-1.2,2.1-3.3,5.6-1.6,8c2.8,4,7.3-2.1,8.5-4.3c-0.4,4.5,4.2,6.9,8,4.5C137.8,40.4,142.9,32.2,142.1,32.2z M133.3,31.6
		c0.3-0.5,5.9-7.8,6.6-5.2c0.9,3.7-4.7,7.2-7.7,7.2C132.5,32.9,132.9,32.2,133.3,31.6C133.8,30.7,132.7,32.5,133.3,31.6z M97.1,31.6
		c0.3-0.5,5.9-7.8,6.6-5.2c0.9,3.7-4.7,7.2-7.7,7.2C96.4,32.9,96.7,32.2,97.1,31.6C97.7,30.7,96.6,32.5,97.1,31.6z M70.3,35.7
		c-1,1.7,1.4,6.2-2.9,5c-3-0.9,0.5-7.9,1.3-9.2c0.7-1.2,5.5-7.7,7-4c1.2,2.9-1.2,7.3-2.8,9.6C73.4,35.6,71.3,34.1,70.3,35.7
		C70.1,36.1,70.6,35.3,70.3,35.7z"/>
	<path fill="#5D4037" d="M206.9,32.6c-0.8,1.6-4.5,10.3-7.5,7.9c-1.4-1.1,0.3-3.9,0.8-5.2c1.1-2.5,2.1-4.9,3.2-7.4
		c1.2-2.8-1.4-2.3-3.4-2.1c2,2.7-3.2,11-4.8,13c-0.8,1-1.8,2-3.2,2c-4,0-0.8-2.6,0.2-4.1c2.2-3.3,2.9-6.5,2.2-10.4
		c-1-5-8-17.5-3-21.6c2.4-2,6.5,0.8,9,1.3c3.5,0.6,6.3-1.2,8.4-3.9c-0.1,0.1-1.3-0.6-1.5-0.1c-1,1.3-2.4,1.9-4,1.8
		c-3.9-0.2-6.9-2.6-11-1.6c-9.3,2.2-0.3,18.1,0.8,23.4c-7.1-3.7-11.5,11-14.9,14.2c-1.2,1.1-3.5,1.5-4.4-0.2c1.7-1.6,3.1-3.5,4-5.7
		c1.4-3.2,1.8-9.9-3.6-8.6c-4.3,1-7.5,6-8.5,10c-1.1,2-6.7,9.4-9.3,4.9c-1.7-3,0.2-7.4,2-9.9c1-1.6,3-4.1,5.1-4.1
		c2.7,0,0,4.1-0.5,4.8c1.6,1.6,5.5-4.3,1.5-5.6c-4.3-1.5-7.9,2.8-9.6,6.2c-1.5,2.8-3.2,7.9,0.3,10c3.8,2.3,8.2-0.6,10.2-3.8
		c-0.1,4,3.3,5.2,6.5,3.4c1.7-1,2.2,0.5,4.1,0.5c2.6,0,4.4-2.6,5.6-4.5c-0.3,3.4,1.9,6.1,5.4,4.6c2.5-1,1.7-0.5,4.1-0.1
		c2.7,0.5,4.6-1.5,6-3.5c-0.9,11.2,13.6-4.1,10.7-5.8C207.3,32.3,207.1,32.4,206.9,32.6C206.2,33.9,207.1,32.1,206.9,32.6z
		 M171.8,35.7c-1,1.7,1.4,6.2-2.9,5c-3-0.9,0.5-7.9,1.3-9.2c0.7-1.2,5.5-7.7,7-4c1.2,2.9-1.2,7.3-2.8,9.6
		C174.8,35.6,172.7,34.1,171.8,35.7C171.5,36.1,172,35.3,171.8,35.7z M187.9,35.8c-1,1.7,1.4,6.2-2.9,5c-3-0.9,0.5-7.9,1.3-9.2
		c0.7-1.2,5.5-7.7,7-4c1.2,2.9-1.2,7.3-2.8,9.6C191,35.7,188.8,34.2,187.9,35.8C187.7,36.2,188.1,35.4,187.9,35.8z"/>
	<path fill="#5D4037" d="M204.3,19.8c-2.3,0-3.4,3.9-0.6,3.9C206,23.7,207.1,19.8,204.3,19.8z"/>
</g>
</svg>
