<?xml version="1.0" encoding="utf-8"?>
<!-- Generator: Adobe Illustrator 18.0.0, SVG Export Plug-In . SVG Version: 6.00 Build 0)  -->
<!DOCTYPE svg PUBLIC "-//W3C//DTD SVG 1.1//EN" "http://www.w3.org/Graphics/SVG/1.1/DTD/svg11.dtd">
<svg version="1.1" id="Layer_1" xmlns="http://www.w3.org/2000/svg" xmlns:xlink="http://www.w3.org/1999/xlink" x="0px" y="0px"
	 viewBox="0 0 1700 680" enable-background="new 0 0 1700 680" xml:space="preserve">
<g>
	<g>
		<path fill="#F8F7F3" d="M628.1,226.9c0,7-3.9,12.2-11.7,15.7c-7.8,3.5-17.5,4.5-29,3.1c-13.5-1.7-25.4-3.7-35.7-6
			c-10.3-2.3-19.3-4.6-26.9-6.9c-7.6-2.3-13.7-4.4-18.4-6.3c-4.7-1.9-8-3.2-9.9-4c-10.8,17.3-19.6,35.1-26.3,53.2
			c-6.7,18.2-13.3,36.2-19.7,54.1c-6.4,17.9-13.5,35.5-21.5,52.7c-7.9,17.2-18.5,33.4-31.8,48.5c-9.6,10.8-21.3,19.9-35,27.2
			c-13.7,7.3-28.5,12.9-44.2,16.6c-15.8,3.7-31.9,5.6-48.5,5.8c-16.6,0.1-32.5-1.7-47.6-5.4c-15.2-3.7-29-9.3-41.7-16.8
			c-12.6-7.5-22.9-16.8-30.7-28.1c-7.8-11.3-12.8-24.6-14.8-39.9c-2-15.3-0.1-32.5,6-51.8c2.6-8.4,6.6-15.6,11.7-21.5
			c5.2-5.9,10.3-10.3,15.3-13.4c5.1-3,9.3-4.4,12.8-4.3c3.5,0.1,5,2.1,4.5,6c-1.4,1.9-3.9,4-7.4,6.1c-3.5,2.2-7.2,5.1-11.2,8.7
			s-7.7,8.2-11.2,13.7c-3.5,5.5-6,12.6-7.4,21.3c-2.2,12.3-2.3,23.6-0.4,34.1c1.9,10.5,5.4,19.9,10.5,28.3
			c5.1,8.4,11.3,15.8,18.8,22c7.5,6.3,15.6,11.5,24.5,15.9c8.9,4.3,18.1,7.5,27.6,9.6c9.5,2,18.9,2.9,28.3,2.7
			c14.2-0.2,27.2-1.8,39.2-4.7s22.9-6.7,33-11.5c10.1-4.8,19.3-10.5,27.6-17c8.3-6.5,15.9-13.5,22.9-20.9
			c7.2-7.9,14.5-17.7,21.8-29.4c7.3-11.7,14.6-24.2,21.7-37.5c7.1-13.4,13.8-26.9,20.2-40.6c6.4-13.7,12.3-26.5,17.9-38.3
			c5.5-11.8,10.3-22.1,14.4-30.9c4.1-8.8,7.5-14.9,10.1-18.2c-19-6-37.2-10.6-54.5-13.7c-17.3-3.1-35.6-5.2-54.8-6.1
			c-17.3-0.7-32.8,1.3-46.4,6c-13.6,4.7-25.2,10.9-34.8,18.6c-9.6,7.7-17.2,16.4-22.7,26.2c-5.5,9.7-8.7,19.1-9.4,28.1
			s1,17.2,5.1,24.5c4.1,7.3,10.8,12.4,20.2,15.3c11.1,3.6,20.9,4,29.6,1.1s16-7,22-12.4c6-5.4,10.5-11,13.4-16.8
			c2.9-5.8,4.2-10,4-12.6v-0.7c1.9-1.7,3.6-2.2,5.1-1.6c1.4,0.6,2.2,2.1,2.2,4.5c-1.2,9.6-4.5,18-9.7,25.3
			c-5.3,7.2-11.7,13-19.3,17.3c-7.6,4.3-15.8,7-24.7,7.9c-8.9,1-17.6,0-26-2.9c-12.3-4.3-21.7-11.2-28.3-20.6
			c-6.6-9.4-10.4-19.8-11.4-31.4c-1-11.5,1-23.3,6-35.4c4.9-12,12.7-22.7,23.3-32.1c10.6-9.4,24.2-16.7,40.8-21.8
			c16.6-5.2,36.2-6.8,58.8-4.9c10.8,1,22,2.8,33.4,5.6c11.4,2.8,22.4,5.8,33,9c10.6,3.2,20.3,6.4,29.2,9.6c8.9,3.1,16.2,5.5,22,7.2
			c0.7-1,2.2-2.6,4.3-5.1c2.2-2.4,4.6-4.9,7.2-7.4c2.6-2.5,5.4-4.7,8.1-6.7c2.8-1.9,5.1-2.9,7-2.9H518c2.9-1,5.2-0.8,6.9,0.5
			c1.7,1.3,2.7,2.9,3.1,4.7c0.4,1.8-0.1,3.4-1.3,4.7c-1.2,1.3-3.2,1.5-6.1,0.5c-0.7-0.7-1.9-0.5-3.6,0.5c-1.7,1.1-3.4,2.4-5.2,4
			c-1.8,1.6-3.6,3.3-5.4,5.2c-1.8,1.9-3.3,3.5-4.5,4.7c5.1,1.7,11.5,3.7,19.5,6c7.9,2.3,16.3,4.5,25.1,6.5c8.8,2,17.6,3.9,26.3,5.4
			c8.8,1.6,16.7,2.4,23.8,2.5c7.1,0.1,12.9-0.6,17.3-2.2c4.4-1.6,6.7-4.4,6.7-8.5c0-3.6,1.3-5.4,4-5.4c1.2,0,2.1,1,2.7,3.1
			C627.8,224.4,628.1,225.9,628.1,226.9z M507.9,405.9c-2.6,15.2-2.7,26.3-0.2,33.4c2.5,7.1,6.6,10.9,12.1,11.4
			c5.5,0.5,12-1.7,19.3-6.7c7.3-4.9,14.6-11.8,21.8-20.7c5.5-7.2,11.1-15.3,16.8-24.2c5.6-8.9,10.5-17.9,14.6-27.1
			c1.7-3.4,3.6-5.1,5.8-5.1c2.2,0,2.3,2.2,0.4,6.5c-1.7,3.6-3.7,7.8-6.1,12.6c-2.4,4.8-5.1,9.8-8.1,15c-3,5.2-6.1,10.4-9.4,15.7
			c-3.2,5.3-6.6,10.1-9.9,14.4c-3.1,4.1-6.7,8-10.6,11.7c-4,3.7-8.2,7-12.8,9.9c-4.6,2.9-9.4,5.2-14.4,6.9
			c-5.1,1.7-10.1,2.5-15.2,2.5c-6.5,0-11.7-1.7-15.7-5.2c-4-3.5-6.9-8-8.8-13.5c-1.9-5.5-2.9-11.7-3.1-18.4
			c-0.1-6.7,0.3-13.5,1.3-20.2c1.4-7.2,3.2-14.6,5.2-22c2-7.5,4.2-14.5,6.5-21.1c2.3-6.6,4.4-12.7,6.5-18.2c2-5.5,3.7-10,4.9-13.4
			c1-2.4,2.6-6.9,5.1-13.5c2.4-6.6,5.4-14.2,9-22.7c3.6-8.5,7.7-17.6,12.3-27.1c4.6-9.5,9.3-18.3,14.1-26.5
			c4.8-8.2,9.7-15.3,14.8-21.3c5.1-6,10-9.9,14.8-11.5c3.6-1.2,7.1-2.2,10.5-3.1c3.4-0.8,6.1-1.4,8.3-1.6c2.2-0.2,3.2,0,3.2,0.7
			s-1.7,1.9-5.1,3.6c-1.7,1-4.8,3.9-9.4,8.8c-4.6,4.9-9.9,12.4-16.1,22.4c-6.1,10-12.8,22.5-19.8,37.5c-7.1,15-14,33.1-20.8,54.3
			c-1.2,3.4-2.7,7.9-4.5,13.5c-1.8,5.7-3.8,11.9-6,18.8c-2.2,6.9-4.3,14.1-6.3,21.7C510.7,391.6,509.1,398.9,507.9,405.9z"/>
		<path fill="#F8F7F3" d="M711.8,379.9c-3.4,7.2-7,14.9-10.8,22.9c-3.9,8.1-8.4,15.5-13.7,22.4c-5.3,6.9-11.5,12.4-18.6,16.8
			c-7.1,4.3-15.7,6.5-25.8,6.5c-9.1,0-17.1-2.8-24-8.5c-6.9-5.6-10.4-14.3-10.6-25.8c0-5.3,0.7-10.9,2-17c1.3-6,3.2-12,5.8-17.9
			c2.5-5.9,5.5-11.6,8.8-17.1c3.4-5.5,7.1-10.7,11.2-15.5c4.6-5.3,9.6-10.1,15.2-14.4c5.5-4.3,11.1-7.6,16.6-9.9
			c5.5-2.3,10.9-3.4,16.1-3.4c5.2,0,9.8,1.4,13.9,4.3c3.4,2.7,5.4,6,6,10.1c0.6,4.1-0.1,8.6-2,13.5c-1.9,4.9-4.9,9.9-9,15
			c-4.1,5.1-9,9.7-14.8,14.1c-2.9,2.2-6.3,4.2-10.3,6.1c-4,1.9-8.1,3.6-12.4,5.1s-8.4,2.6-12.3,3.4c-3.9,0.8-7,1.3-9.4,1.3
			c-1.4,3.4-2.7,7.8-3.8,13.4c-1.1,5.5-1.4,10.9-1.1,16.2c0.4,5.3,1.8,9.9,4.3,13.9c2.5,4,6.8,6,12.8,6c7.9,0,15.1-2.3,21.5-7
			c6.4-4.7,12-10.3,17-16.8c4.9-6.5,9.1-13.2,12.6-20.2c3.5-7,6.3-12.9,8.5-17.7c0.7-1.7,1.6-2.9,2.7-3.8c1.1-0.8,2-1.3,2.9-1.3
			c0.8,0,1.4,0.4,1.8,1.3C713.1,376.6,712.8,378,711.8,379.9z M674.3,369.4c4.8-4.1,8.8-8.7,12.1-13.7c3.2-5.1,5.5-9.7,6.7-14.1
			c1.2-4.3,1.4-7.9,0.7-10.8s-2.5-4.3-5.4-4.2c-2.9,0.1-6.9,2-11.9,5.8c-5.1,3.7-11.3,10-18.8,18.9c-4.8,5.8-9.2,12-13.2,18.8
			c-4,6.7-6.8,11.8-8.5,15.2c1.7,0,4-0.3,6.9-0.9c2.9-0.6,6.1-1.6,9.7-2.9c3.6-1.3,7.3-3,11-5.1
			C667.4,374.4,670.9,372.1,674.3,369.4z"/>
		<path fill="#F8F7F3" d="M699.9,526c-3.6,7.7-7,12.9-10.3,15.5c-3.2,2.6-7.9,3.7-13.9,3.2c-2.4-0.2-4.9-0.7-7.4-1.4
			c-2.5-0.7-5.1-0.8-7.8-0.4c1.4-1.4,4.2-5.6,8.3-12.4c4.1-6.9,8.8-15.3,14.1-25.3c5.3-10,11-20.9,17-32.7
			c6-11.8,11.6-23.3,16.8-34.6c5.2-11.3,9.6-21.7,13.4-31.2c3.7-9.5,6.2-17,7.4-22.6c-1.9,3.1-4.1,5.1-6.5,6c-2.4,0.8-3-0.1-1.8-2.7
			c1-1.9,2.2-4.6,3.6-7.9c1.4-3.4,2.6-6.1,3.6-8.3c1.7-3.8,3.2-8.3,4.5-13.4c1.3-5.1,2.2-9.9,2.5-14.4c0.4-4.6,0.2-8.5-0.5-11.7
			s-2.2-5.1-4.3-5.6c2.6-0.5,5.2-1,7.6-1.4c1.9-0.5,3.9-0.8,6-0.9c2-0.1,3.4-0.3,4.2-0.5c2.6-0.2,4.8-0.4,6.5-0.5
			c1.7-0.1,3,0.2,4,0.9c1,0.7,1.6,2.2,2,4.5c0.4,2.3,0.5,5.6,0.5,9.9c0,3.6-0.5,7.9-1.6,12.8c-1.1,4.9-2.3,10-3.8,15.3
			c-1.4,5.3-3,10.5-4.7,15.5c-1.7,5.1-3.2,9.5-4.7,13.4c3.6-4.6,8.2-9.9,13.7-16.1c5.5-6.1,11.1-11.6,16.6-16.4
			c4.3-3.8,9.7-8,16.1-12.5c6.4-4.4,12.8-8.4,19.3-11.9c6.5-3.5,12.6-6.2,18.2-8.1c5.6-1.9,10-2.4,13.2-1.4
			c-7.2,13-13.8,25.4-19.8,37.2c-2.7,5.1-5.2,10.2-7.8,15.5c-2.5,5.3-4.9,10.4-7,15.3c-2.2,4.9-4,9.6-5.6,13.9
			c-1.6,4.3-2.6,8.1-3.1,11.2c-1.4,7.5-1.4,12.3,0,14.6c1.4,2.3,3.4,3.4,5.8,3.4c4.6,0,9.4-2.5,14.4-7.6c5.1-5.1,9.9-11,14.4-17.9
			c4.6-6.9,8.7-13.8,12.3-20.7c3.6-7,6.4-12.4,8.3-16.2c1.4-3.1,3.1-4.3,4.9-3.4c1.8,0.8,1.9,3.1,0.2,6.7c-2.6,5.5-6,12.2-9.9,19.8
			c-4,7.7-8.5,15.1-13.5,22.2c-5.1,7.1-10.6,13.2-16.6,18.2c-6,5.1-12.5,7.6-19.5,7.6c-3.1,0-6.4-0.6-9.7-1.8
			c-3.4-1.2-6.2-3.4-8.5-6.7c-2.3-3.2-3.7-7.6-4.2-13c-0.5-5.4,0.6-12.3,3.2-20.8c1.4-4.8,3.8-10.3,7.2-16.4
			c3.4-6.1,7.6-13.3,12.6-21.5c2.2-3.6,3.4-6.7,3.6-9.4c0.2-2.6-0.7-4.2-2.7-4.7c-2-0.5-5.2,0.5-9.6,2.9c-4.3,2.4-10,6.9-17,13.4
			c-3.1,2.9-6.7,6.3-10.6,10.1c-4,3.9-8.2,8.6-12.6,14.3c-4.5,5.7-9,12.3-13.5,20c-4.6,7.7-9,16.7-13.4,27.1L699.9,526z"/>
		<path fill="#F8F7F3" d="M983.9,379.9c-3.4,7.2-7,14.9-10.8,22.9c-3.9,8.1-8.4,15.5-13.7,22.4c-5.3,6.9-11.5,12.4-18.6,16.8
			c-7.1,4.3-15.7,6.5-25.8,6.5c-9.1,0-17.1-2.8-24-8.5c-6.9-5.6-10.4-14.3-10.6-25.8c0-5.3,0.7-10.9,2-17c1.3-6,3.2-12,5.8-17.9
			c2.5-5.9,5.5-11.6,8.8-17.1c3.4-5.5,7.1-10.7,11.2-15.5c4.6-5.3,9.6-10.1,15.2-14.4c5.5-4.3,11.1-7.6,16.6-9.9
			c5.5-2.3,10.9-3.4,16.1-3.4c5.2,0,9.8,1.4,13.9,4.3c3.4,2.7,5.4,6,6,10.1c0.6,4.1-0.1,8.6-2,13.5c-1.9,4.9-4.9,9.9-9,15
			c-4.1,5.1-9,9.7-14.8,14.1c-2.9,2.2-6.3,4.2-10.3,6.1c-4,1.9-8.1,3.6-12.4,5.1s-8.4,2.6-12.3,3.4c-3.9,0.8-7,1.3-9.4,1.3
			c-1.4,3.4-2.7,7.8-3.8,13.4c-1.1,5.5-1.4,10.9-1.1,16.2c0.4,5.3,1.8,9.9,4.3,13.9c2.5,4,6.8,6,12.8,6c7.9,0,15.1-2.3,21.5-7
			c6.4-4.7,12-10.3,17-16.8c4.9-6.5,9.1-13.2,12.6-20.2c3.5-7,6.3-12.9,8.5-17.7c0.7-1.7,1.6-2.9,2.7-3.8c1.1-0.8,2-1.3,2.9-1.3
			c0.8,0,1.4,0.4,1.8,1.3C985.1,376.6,984.8,378,983.9,379.9z M946.4,369.4c4.8-4.1,8.8-8.7,12.1-13.7c3.2-5.1,5.5-9.7,6.7-14.1
			c1.2-4.3,1.4-7.9,0.7-10.8s-2.5-4.3-5.4-4.2c-2.9,0.1-6.9,2-11.9,5.8c-5.1,3.7-11.3,10-18.8,18.9c-4.8,5.8-9.2,12-13.2,18.8
			c-4,6.7-6.8,11.8-8.5,15.2c1.7,0,4-0.3,6.9-0.9c2.9-0.6,6.1-1.6,9.7-2.9c3.6-1.3,7.3-3,11-5.1C939.4,374.4,943,372.1,946.4,369.4z
			"/>
		<path fill="#F8F7F3" d="M1033.7,323.2c8.9-17.1,18.8-34.9,29.6-53.4c10.8-18.5,22.2-35.4,34.3-50.5c7.9-9.6,15.9-18.8,23.8-27.6
			c7.9-8.8,15.9-16.5,24-23.1c8.1-6.6,16.3-12,24.7-16.1c8.4-4.1,17.2-6.4,26.3-6.9c8.9-0.5,15.8,0.7,20.6,3.6
			c4.8,2.9,7.9,7,9.2,12.3c1.3,5.3,1.1,11.5-0.5,18.6c-1.7,7.1-4.5,14.6-8.5,22.4c-4,7.8-9,15.8-15,24c-6,8.2-12.6,15.9-19.8,23.1
			c-15.6,15.6-33.5,28.8-53.6,39.3c-20.1,10.6-44.4,20.5-73.1,29.6c-2.7,5.1-5.2,9.9-7.8,14.4c-2.5,4.6-4.8,8.9-6.7,13
			c-4.6,9.1-8.8,18.8-12.6,29c-3.9,10.2-6.6,19.8-8.1,28.9c-1.6,9-1.6,16.7-0.2,23.1c1.4,6.4,5.3,10.2,11.5,11.4
			c7.9,1.7,18.3-5.2,31-20.6c5.1-6,10-13.2,15-21.5c4.9-8.3,9-16.1,12.1-23.3c2.4-6,4.1-11.8,5.1-17.3c1-5.5,1-10.5,0.2-14.8
			c-0.8-4.3-2.8-7.6-5.8-9.9c-3-2.3-7.4-3.2-13.2-2.7c-2.7,0.2-4.6-0.1-6-1.1c-1.3-1-1.9-2-1.6-3.1c0.2-1.1,1.4-2,3.4-2.9
			c2-0.8,5.1-0.9,9.2-0.2c6.5,1,11.9,3.1,16.2,6.3c4.3,3.2,7.6,7.2,9.9,11.9c2.3,4.7,3.6,9.9,4,15.5c0.4,5.7-0.1,11.4-1.3,17.1
			c-1.7,7.7-4.3,15.4-7.8,23.1c-3.5,7.7-7.8,14.9-12.8,21.7c-5.1,6.7-10.8,12.6-17.3,17.5c-6.5,4.9-13.5,8.4-20.9,10.3
			c-10.3,2.9-19.1,3.8-26.2,2.9c-7.1-1-12.6-3.2-16.6-6.9c-4-3.6-6.6-8.2-7.8-13.9c-1.2-5.6-1-11.7,0.7-18.2
			c1.4-5.5,3.5-11.7,6.3-18.4c2.8-6.7,6-13.8,9.6-21.3c-8.4,15.9-15.8,29.3-22,40.2c-6.3,10.9-11.2,18.1-14.8,21.5
			c-1.4,1.2-2.6,1.1-3.4-0.2c-0.8-1.3-0.7-2.8,0.5-4.5c3.6-4.8,7.6-10.9,11.9-18.4c4.3-7.5,8.9-15.7,13.7-24.7
			c4.8-9,9.7-18.6,14.8-28.9C1023.2,343.5,1028.4,333.3,1033.7,323.2z M1034.4,323.2c-5.3,0.7-10.5,0.5-15.5-0.7
			c-5.1-1.2-9.3-3.8-12.6-7.9c-1.7-1.9-3-4-4-6.3c-1-2.3-1.2-4.6-0.7-7c0.2-1.7,0.9-2.9,2-3.6c1.1-0.7,2.2-1,3.2-0.7
			c1.1,0.2,2,0.8,2.7,1.6c0.7,0.8,1.1,2.1,1.1,3.8v0.7c1,5.8,4.3,9.3,9.9,10.6c5.7,1.3,11.7,1.6,18.2,0.9L1034.4,323.2z
			 M1062.2,307.3c19.5-5.5,39.2-13.5,59-24c19.8-10.5,37.8-24,53.9-40.6c8.7-8.9,16.3-18.3,22.9-28.3c6.6-10,11.4-19.2,14.4-27.6
			c3-8.4,3.7-15.4,2.2-20.9c-1.6-5.5-6.1-8.3-13.5-8.3c-7.9,0-16.2,2.5-24.7,7.6c-8.5,5.1-17.1,11.8-25.8,20.2
			c-8.7,8.4-17.1,18-25.4,28.7c-8.3,10.7-16.3,21.6-24,32.7c-7.7,11.1-14.9,21.9-21.5,32.5C1073.1,289.8,1067.2,299.2,1062.2,307.3z
			"/>
		<path fill="#F8F7F3" d="M1288.4,380.6c-2.6,5.5-6,12-9.9,19.5c-4,7.5-8.4,14.7-13.2,21.7c-4.8,7-9.9,12.9-15.3,17.9
			c-5.4,4.9-10.8,7.6-16.1,8.1c-2.9,0.2-6-0.3-9.4-1.6c-3.4-1.3-6.1-3.7-8.3-7.2c-2.2-3.5-3.4-8.3-3.8-14.4
			c-0.4-6.1,0.8-13.9,3.4-23.3c-2.9,4.8-6.6,10.4-11.2,16.8c-4.6,6.4-9.5,12.1-14.8,17.1c-7,6.7-13.4,10.7-19.3,11.9
			c-5.9,1.2-10.9,0.3-15-2.7c-4.1-3-7-7.8-8.8-14.3c-1.8-6.5-2.1-14.1-0.9-22.9c1.2-8.8,4.2-18.4,8.8-28.9
			c4.7-10.5,11.6-21.1,20.7-31.9c5.3-6.5,11.7-12,19.3-16.6c7.6-4.6,15.3-7.8,23.1-9.7c7.8-1.9,15.4-2.2,22.7-0.7
			c7.3,1.4,13.5,4.9,18.6,10.5c2.6,2.6,3.4,5.2,2.3,7.6c-1.1,2.4-3.2,3.4-6.3,2.9c-1.9-6.7-5.8-10.8-11.7-12.3
			c-5.9-1.4-12.2-0.4-18.9,3.2c-8.2,4.6-16.6,11.6-25.3,21.1c-8.7,9.5-16.2,19.7-22.7,30.5c-0.7,1.2-1.8,3.1-3.2,5.8
			c-1.4,2.7-2.9,5.7-4.5,9.2c-1.6,3.5-3,7.1-4.3,10.8c-1.3,3.7-2.2,7.3-2.7,10.6c-1,6.3-0.5,10.8,1.3,13.7c1.8,2.9,4.3,4.3,7.6,4.3
			c3.2,0,7-1.4,11.4-4.1c4.3-2.8,8.7-6.7,13-11.7c6.3-7.7,12-15.8,17.1-24.4c5.2-8.5,10.2-17.3,15-26.2c4.1-7.7,7.8-13.6,11-17.7
			c3.2-4.1,7.8-5.9,13.5-5.4c2.4,0.2,4.9,0.7,7.4,1.3c2.5,0.6,5.1,0.7,7.8,0.2c-1.9,1.9-4.5,5.5-7.8,10.6
			c-3.2,5.2-6.6,11.1-10.1,17.7c-3.5,6.6-6.7,13.4-9.6,20.4c-2.9,7-4.9,13.2-6.1,18.8c-2.9,14.4-1.7,21.7,3.6,21.7
			c3.8,0.2,8.1-2,12.6-6.9c4.6-4.8,9.1-10.6,13.5-17.3c4.4-6.7,8.5-13.5,12.1-20.4c3.6-6.9,6.4-12.2,8.3-16.1
			c1.7-3.1,3.4-4.3,5.1-3.6C1290.1,374.8,1290.1,377,1288.4,380.6z"/>
		<path fill="#F8F7F3" d="M1334.3,405.1c1.7-4.6,3.9-9.1,6.7-13.7c2.8-4.6,5.7-9.1,8.7-13.7c3-4.6,6-9.1,8.8-13.7
			c2.9-4.6,5.3-9.3,7.2-14.1c1.4-3.4,2-6.1,1.8-8.3c-0.2-2.2-0.9-3.9-2-5.2c-1.1-1.3-2.3-2.2-3.8-2.7c-1.4-0.5-2.8-0.7-4-0.7
			c-4.8,0-9.7,2.5-14.6,7.6c-4.9,5.1-9.7,11-14.3,17.9c-4.6,6.9-8.7,13.8-12.3,20.7c-3.6,7-6.4,12.4-8.3,16.2
			c-0.7,1.7-1.6,2.8-2.5,3.2c-1,0.5-1.8,0.5-2.5,0.2c-0.7-0.4-1.1-1.1-1.3-2.2c-0.1-1.1,0.3-2.6,1.3-4.5c2.6-5.5,6-12.1,9.9-19.8
			c4-7.7,8.5-15.1,13.5-22.2c5.1-7.1,10.6-13.2,16.6-18.2c6-5.1,12.5-7.6,19.5-7.6c2.4,0,5.4,0.6,9,1.8c3.6,1.2,6.7,3.4,9.2,6.5
			c2.5,3.1,4,7.2,4.3,12.3c0.4,5.1-1.5,11.4-5.6,19.1c-2.2,4.1-4.8,8.4-7.9,12.8c-3.1,4.5-6.2,9-9.2,13.5c-3,4.6-5.7,9.3-8.1,14.1
			c-2.4,4.8-4,9.7-4.7,14.8c-0.5,3.1-0.3,6,0.5,8.5c0.8,2.5,2.1,4.6,3.8,6.3c1.7,1.7,3.6,2.9,5.8,3.8c2.2,0.8,4.3,1.1,6.5,0.9
			c4.6-0.5,9.4-3.3,14.4-8.5c5.1-5.2,9.9-11.1,14.4-17.9c4.6-6.7,8.7-13.5,12.3-20.2c3.6-6.7,6.4-12,8.3-15.9
			c1.4-3.1,3.1-4.3,4.9-3.4c1.8,0.8,1.9,3.1,0.2,6.7c-2.6,5.5-6,12.2-9.9,19.8c-4,7.7-8.5,15-13.5,22c-5.1,7-10.6,13-16.6,18
			c-6,5.1-12.5,7.7-19.5,7.9c-3.6,0-7.6-0.6-11.9-1.8c-4.3-1.2-8.1-3.4-11.4-6.7c-3.2-3.2-5.4-7.6-6.5-13.2
			C1330.5,420.2,1331.4,413.3,1334.3,405.1z"/>
		<path fill="#F8F7F3" d="M1575.7,381c-2.9,6.3-6.3,13.2-10.1,20.8c-3.9,7.6-8.2,14.7-13,21.5c-4.8,6.7-10.1,12.3-15.9,16.8
			c-5.8,4.5-11.9,6.7-18.4,6.7c-4.1,0-7.7-1-10.8-3.1c-3.1-2-5.5-5.1-7-9c-1.6-4-2.3-8.8-2.3-14.6s1.2-12.3,3.6-19.5
			c-3.1,5.5-6.6,11-10.3,16.4c-3.7,5.4-7.7,10.3-11.9,14.8c-4.2,4.5-8.6,8.1-13.2,10.8c-4.6,2.8-9,4.1-13.4,4.1
			c-1.9,0-4-0.2-6.3-0.5c-2.3-0.4-4.5-1.1-6.7-2.3c-2.2-1.2-4.2-2.9-6-5.1c-1.8-2.2-3.1-4.9-3.8-8.3c-0.7-3.8-0.8-7.6-0.4-11.2
			c0.5-3.6,1.4-7.2,2.7-10.6c1.3-3.5,2.9-6.9,4.7-10.1c1.8-3.2,3.5-6.6,5.2-9.9c-1.2,0-2.3-0.4-3.4-1.1s-1-2.3,0.2-4.7
			c1.2-1.9,2.3-4,3.2-6.1c1-2.2,2-4.3,3.2-6.5c3.6-7,7.2-13.9,10.8-20.9c3.6-7,6.7-13.2,9.4-18.8c1.4-2.9,3.3-4.9,5.6-6
			c2.3-1.1,5.1-1.6,8.5-1.6h22c-2.2,1.4-4.1,2.9-5.8,4.5c-1.7,1.6-3.4,3.4-5.2,5.6c-1.8,2.2-3.7,4.8-5.6,7.9
			c-1.9,3.1-4.1,7.2-6.5,12.3c-3.4,6.3-6.4,12.3-9,18c-2.7,5.1-5.2,10.2-7.6,15.5c-2.4,5.3-4.5,9.6-6.1,13
			c-4.3,9.4-6.7,17.2-7.2,23.5c-0.5,6.3,0.4,10.6,2.7,13.2c2.3,2.5,5.7,2.9,10.3,1.1c4.6-1.8,9.7-6.1,15.5-12.8
			c5.1-5.8,10-12.6,15-20.6c4.9-7.9,9.7-16.2,14.3-24.7c4.6-8.5,9-17,13.2-25.4c4.2-8.4,8-16.2,11.4-23.5c1.4-2.9,3.3-4.9,5.6-6
			c2.3-1.1,5.1-1.6,8.5-1.6h19.5c-2.6,2.2-4.9,4.2-6.9,6c-1.9,1.8-3.8,4-5.6,6.5c-1.8,2.5-3.7,5.7-5.6,9.4
			c-1.9,3.7-4.2,8.4-6.9,13.9c-2.7,5.1-5.2,10.3-7.8,15.7c-2.5,5.4-4.9,10.7-7.2,15.9c-2.3,5.2-4.3,10-6,14.5
			c-1.7,4.5-2.8,8.3-3.2,11.4c-1.7,7.7-1.6,13.2,0.2,16.5c1.8,3.3,4,5,6.7,5.2c4.3,0,8.7-1.9,13.2-5.8c4.4-3.8,8.7-8.7,12.8-14.6
			c4.1-5.9,8-12.4,11.7-19.5c3.7-7.1,7.2-13.9,10.3-20.4c1.4-3.1,3.1-4.3,4.9-3.4C1577.3,375.1,1577.3,377.4,1575.7,381z"/>
	</g>
</g>
</svg>
