<?xml version="1.0" encoding="utf-8"?>
<!-- Generator: Adobe Illustrator 18.0.0, SVG Export Plug-In . SVG Version: 6.00 Build 0)  -->
<!DOCTYPE svg PUBLIC "-//W3C//DTD SVG 1.1//EN" "http://www.w3.org/Graphics/SVG/1.1/DTD/svg11.dtd">
<svg version="1.1" id="Layer_1" xmlns="http://www.w3.org/2000/svg" xmlns:xlink="http://www.w3.org/1999/xlink" x="0px" y="0px"
	 viewBox="0 0 1700 680" enable-background="new 0 0 1700 680" xml:space="preserve">
<g>
	<g>
		<path fill="#F8F7F3" d="M547.1,168.3c6.3-1.8,11.3-1.3,14.9,1.5c3.7,2.8,5.2,6.4,4.5,10.7c-0.7,4.4-4.1,8.8-10.4,13.3
			c-6.3,4.5-16.1,7.4-29.6,8.7c-8.5,15.2-16.1,32.4-22.8,51.6c-6.7,19.1-13.7,38.9-21,59.1c-7.3,20.3-15.4,40.3-24.4,60.1
			c-9,19.8-19.9,38-32.8,54.4c-12.9,16.5-28.3,30.5-46.4,42c-18,11.5-39.7,19.2-65,23c-12.8,1.8-25.5,2.1-38.3,1
			c-12.8-1.1-24.9-3.8-36.3-7.9c-11.4-4.1-21.9-9.6-31.4-16.3c-9.5-6.7-17.2-14.8-23.2-24.2c-5.9-9.4-9.9-20-11.8-31.7
			c-1.9-11.8-1.1-24.7,2.5-38.8c1.6-6,4.1-11.5,7.6-16.3c3.5-4.8,7.1-9,10.9-12.4c3.8-3.5,7.6-6.2,11.3-8.2c3.7-2,6.7-3.1,8.9-3.4
			c2.7-0.4,4.1,0.1,4.2,1.5c0.1,1.5-0.5,2.5-1.8,3.2c-1.6,0.7-4,2.3-7.2,4.9c-3.2,2.6-6.7,6-10.2,10.2c-3.6,4.3-6.9,9.4-10.1,15.3
			c-3.1,5.9-5.2,12.7-6,20.3c-1.6,12.1-0.8,22.8,2.2,32.2c3,9.4,7.6,17.5,13.8,24.4c6.2,6.8,13.4,12.4,21.8,16.8
			c8.4,4.4,17.2,7.7,26.5,9.9c9.3,2.2,18.6,3.4,27.9,3.5c9.3,0.1,17.9-0.7,25.7-2.5c24-5.4,44.8-14.1,62.5-26
			c17.7-12,33-25.5,46-40.5c13-15,23.9-30.7,32.8-47.2c8.8-16.5,16.5-31.9,23-46.2c1.1-2.5,2.9-6.4,5.2-11.8
			c2.4-5.4,5.1-11.5,8.2-18.5c3.1-6.9,6.5-14.3,10.1-22.2c3.6-7.8,7.1-15.5,10.6-23c3.5-7.5,6.7-14.4,9.6-20.7
			c2.9-6.3,5.4-11.3,7.4-15.1c-7.4,0.9-15.2,1.7-23.3,2.4c-8.2,0.7-16.5,1.5-24.9,2.4c-8.4,0.9-16.7,2-25,3.4
			c-8.3,1.3-16.3,3.1-24.2,5.4c-16.6,4.7-30.2,11.4-40.8,20c-10.6,8.6-18.8,18-24.4,28.2c-5.6,10.2-8.7,20.3-9.4,30.4
			c-0.7,10.1,0.7,18.8,4.2,26c3.5,7.3,8.8,12.5,16,15.8c7.2,3.2,16,3,26.5-0.8c5.6-2,10.4-5.4,14.4-10.2c4-4.8,7.2-10.2,9.6-16.3
			c2.4-6,3.8-12.3,4.4-18.6c0.6-6.4,0.4-12.3-0.5-17.6c-0.5-1.8,0.2-2.5,1.8-2c1.7,0.5,3.1,1.9,4.2,4.4c2.2,5.8,3,12.2,2.4,19
			c-0.7,6.8-2.5,13.4-5.5,19.8c-3,6.4-7,12-11.9,17c-4.9,4.9-10.4,8.5-16.5,10.7c-12.5,4.7-23.9,5.3-34.1,1.7
			c-10.2-3.6-18.3-9.5-24.4-17.8c-6-8.3-9.6-18.2-10.6-29.7c-1-11.5,1.4-23.1,7.2-34.8c5.8-11.6,15.5-22.4,28.9-32.4
			c13.4-10,31.6-17.5,54.4-22.7c9.2-2,18.5-3.6,27.9-4.9c9.4-1.2,18.7-2.2,27.9-2.9c9.2-0.7,18-1.3,26.5-1.8
			c8.5-0.6,16.5-1.2,23.8-1.8c0.7-0.9,1.8-2.7,3.5-5.4s3.7-5.5,6.2-8.4c2.5-2.9,5.1-5.6,7.9-8.1
			C541.7,170.9,544.4,169.2,547.1,168.3z M719.1,162.9c-9,14.8-19.4,29.4-31.2,43.8c-11.9,14.4-24.5,28.2-37.8,41.1
			c-13.3,13-27.1,25.1-41.3,36.4c-14.2,11.3-28.2,21.4-41.8,30.4c-13.7,9-26.7,16.5-39,22.5c-12.3,6-23.3,10.3-32.9,12.8
			c-1.1-0.4-1.5,1.8-1,6.7c0.4,4.9,1.5,11.4,3.2,19.3c1.7,8,4,16.9,7.1,26.7c3,9.9,6.7,19.6,10.9,29.2c7.2,16.3,15.7,29.2,25.5,38.5
			c9.9,9.3,21.4,13.9,34.6,13.9c6.5,0,13.2-0.7,20.2-2.2c6.9-1.5,13.5-3.6,19.8-6.4c6.3-2.8,12-6.4,17.1-10.9
			c5.1-4.5,9.3-9.7,12.4-15.8c0.7-1.6,1.5-2.8,2.5-3.7c1-0.9,1.8-1.2,2.5-1c0.7,0.2,1,0.9,1,2.2c0,1.2-0.6,3-1.7,5.2
			c-3.1,6-7.4,11.9-12.9,17.6c-5.5,5.7-11.7,10.7-18.6,15.1c-6.9,4.4-14.2,7.8-21.8,10.4c-7.6,2.6-15,3.9-22.2,3.9
			c-9.2,0-17.9-1.6-26-4.9c-8.2-3.2-15.7-7.7-22.7-13.3c-6.9-5.6-13.2-12.3-18.6-20c-5.5-7.7-10.2-16-14.3-24.7
			c-4.7-10.3-8.5-20.8-11.4-31.6c-2.9-10.7-5-20.6-6.2-29.6c-1.2-9-1.7-16.3-1.5-22.2c0.2-5.8,1.1-9.1,2.7-9.7c4,0.2,11-1.6,21-5.5
			c10-3.9,21.7-9.8,35.3-17.6c13.5-7.8,28.3-17.2,44.3-28.2c16-11,32-23.4,48-37.3c16-13.9,31.5-28.8,46.5-44.8
			c15-16,28.3-33,40-50.9c2-2.9,3.8-4.8,5.4-5.5c1.6-0.8,2.9-0.8,3.9-0.2c1,0.7,1.5,2,1.3,3.9C721.1,158.6,720.4,160.7,719.1,162.9z
			 M547.4,190.1c3.6-1.8,6-3.7,7.4-5.9c1.3-2.1,1.8-3.9,1.3-5.2c-0.5-1.3-1.6-2.1-3.5-2.2c-1.9-0.1-4.2,1-6.9,3.2
			c-2.2,1.8-4.5,4.1-6.9,6.9c-2.4,2.8-4.4,5.2-6.2,7.2C539.1,193.2,544.1,191.9,547.4,190.1z"/>
		<path fill="#F8F7F3" d="M721.1,374.2c-1.3,3.1-3.5,8.1-6.6,14.8c-3,6.7-6.8,13.4-11.3,20.2c-4.5,6.7-9.7,12.6-15.6,17.7
			c-5.9,5.1-12.4,7.6-19.3,7.6c-5.2,0-9.5-0.8-12.9-2.4c-3.5-1.6-6.3-3.6-8.6-6.1c-4.7,3.5-9.5,6.3-14.4,8.4c-4.9,2-9.9,3-14.8,2.7
			c-6.5-0.2-11.6-2.1-15.3-5.5c-3.7-3.5-6.2-8.1-7.4-13.8c-1.2-5.7-1.3-12.2-0.2-19.5c1.1-7.3,3.2-14.6,6.4-22
			c3.4-7.6,7.5-14.9,12.4-21.8c4.9-6.9,10.2-13,16-18.1c5.7-5.1,11.6-9.2,17.6-12.3c6-3,12-4.4,17.8-4.2c6.3,0,11.3,1.8,15.1,5.4
			c3.8,3.6,6.3,8.3,7.6,14.1c1.2,5.8,1.3,12.4,0.2,19.7c-1.1,7.3-3.2,14.6-6.4,22c-2.5,5.8-6.2,12.4-11.1,19.7
			c-4.9,7.3-10.6,13.9-17.1,20c2.9,5.6,8.2,8.4,15.8,8.4c5.4,0,10.5-2.2,15.3-6.7c4.8-4.5,9.2-9.9,13.3-16.1
			c4-6.3,7.6-12.6,10.7-19.1c3.1-6.5,5.7-11.8,7.7-15.8c0.9-1.8,2.2-2.4,4-1.7C721.9,370.2,722.2,371.7,721.1,374.2z M672,330.5
			c-3.6-0.9-7.5-0.4-11.8,1.5c-4.3,1.9-8.5,4.9-12.8,9.1c-4.3,4.1-8.4,9.1-12.4,14.8s-7.6,11.9-10.7,18.6c-3.4,6.9-6,13.5-7.9,19.7
			c-1.9,6.2-3.1,11.7-3.5,16.6c-0.5,4.9-0.1,9,1,12.3c1.1,3.2,3.2,5.3,6.4,6.2c3.1,0.9,6.7,0.6,10.7-1c4-1.6,8.1-4,12.1-7.4
			c-1.8-2.7-3.1-5.5-4-8.4c-0.9-2.9-1.3-5.6-1.3-8.1c0.2-3.8,1.2-7.2,2.9-10.1c1.7-2.9,4.6-4.4,8.9-4.4c2.9,0,5.3,1,7.2,3
			c1.9,2,2.9,4.4,2.9,7.1c0,0.7-0.1,1.3-0.2,1.8c-0.1,0.6-0.3,1.2-0.5,1.8c3.8-5.6,7.3-11.6,10.4-18.1c3.4-6.9,5.9-13.5,7.7-19.8
			c1.8-6.3,2.8-11.9,3-16.8c0.2-4.9-0.3-9-1.7-12.3C677.1,333.5,675,331.4,672,330.5z"/>
		<path fill="#F8F7F3" d="M765.8,421.9c4.5-3.8,8.6-8.5,12.3-13.9c3.7-5.5,7.2-11.4,10.4-17.6c3.2-6.3,6.3-12.6,9.1-19.1
			c2.8-6.5,5.4-12.6,7.9-18.3c2.5-5.7,4.8-10.7,7.1-15.1c2.2-4.4,4.6-7.7,7.1-9.9c1.8-1.8,3.6-3.1,5.4-4c1.8-0.9,3.9-1.5,6.4-1.8
			c2.5-0.3,5.3-0.5,8.6-0.5c3.2,0,7.3,0,12.3,0c0.9,0,1,0.3,0.3,0.8c-0.7,0.6-1.7,1.2-3,1.8s-3,1.3-4.9,1.8
			c-1.9,0.6-3.5,0.8-4.9,0.8c-6.5-0.2-11.1,1.1-13.8,3.9c-2.7,2.8-5.5,6.8-8.4,11.9c-3.6,6.5-7.4,15-11.6,25.5
			c-4.1,10.5-8.8,20.9-14.1,31.1c-5.3,10.2-11.2,19-17.8,26.4c-6.6,7.4-14.3,11.1-23,11.1c-5.4,0-10.4-1-14.9-2.9
			c-4.6-1.9-8.3-5.5-11.3-10.9c-4-7.4-5.2-13.3-3.5-17.8c1.7-4.5,4.1-7.3,7.2-8.6c3.1-1.2,5.8-0.7,8.1,1.7c2.2,2.4,1.9,6.7-1,12.9
			c-0.9,1.8-1.1,3.7-0.7,5.7c0.4,2,1.3,3.9,2.5,5.5c1.2,1.7,2.8,3,4.7,4c1.9,1,3.9,1.5,5.9,1.5c3.8-0.2,7.1-0.7,9.9-1.5
			C760.7,425.6,763.3,424.1,765.8,421.9z M819.8,436.7c-3.8-0.2-7.2-1.3-10.1-3.2c-2.9-1.9-5.1-4.7-6.6-8.4
			c-1.5-3.7-2.2-8.2-2.2-13.4c0-5.3,1.1-11.3,3.4-18c1.6-4.9,3.5-10.2,5.7-15.8c2.2-5.6,4.6-11.3,7.2-17c2.6-5.7,5.1-11.4,7.7-17
			c2.6-5.6,4.9-10.7,6.9-15.5c1.3-2.7,3.1-4.5,5.2-5.5c2.1-1,4.8-1.5,7.9-1.5h18.1c-2.5,2-4.6,3.9-6.4,5.5c-1.8,1.7-3.5,3.7-5.2,6
			c-1.7,2.4-3.4,5.3-5.2,8.7c-1.8,3.5-3.9,7.8-6.4,12.9c-2.5,4.7-4.9,9.6-7.2,14.6c-2.4,5-4.6,10-6.7,14.8c-2.1,4.8-4,9.3-5.5,13.4
			c-1.6,4.1-2.6,7.7-3,10.6c-1.6,7.2-1.5,12.2,0.2,15.1c1.7,2.9,3.7,4.6,6.2,5c4.5,0.7,8.9-1,13.3-5c4.4-4,8.6-9.3,12.6-16
			c4-6.6,7.9-14,11.6-22.2c3.7-8.2,7.2-16.1,10.6-23.8c3.4-7.7,6.5-14.6,9.6-20.7c3-6,5.9-10.3,8.6-12.8c1.8-1.8,3.6-3.1,5.4-4
			c1.8-0.9,3.9-1.5,6.4-1.8c2.5-0.3,5.3-0.5,8.6-0.5c3.2,0,7.3,0,12.3,0c0.9,0,1,0.3,0.3,0.8c-0.7,0.6-1.7,1.2-3,1.8s-3,1.3-4.9,1.8
			c-1.9,0.6-3.5,0.8-4.9,0.8c-6.5-0.2-11,1.1-13.6,3.9c-2.6,2.8-5.4,6.8-8.6,11.9c-2.5,4.3-5,9.6-7.6,16c-2.6,6.4-5.4,13.1-8.4,20.2
			c-3,7.1-6.3,14.1-9.9,21.2c-3.6,7.1-7.5,13.3-11.8,18.8c-4.3,5.5-8.9,9.9-13.9,13.3C831.4,435.3,825.9,436.9,819.8,436.7z
			 M902.8,328.5c1.3-2.7,3.1-4.5,5.2-5.5c2.1-1,4.8-1.5,7.9-1.5h18.1c-2.5,2-4.6,3.9-6.4,5.5c-1.8,1.7-3.5,3.7-5.2,6
			s-3.4,5.3-5.2,8.7c-1.8,3.5-3.9,7.8-6.4,12.9c-2.5,4.7-4.9,9.6-7.2,14.6c-2.4,5-4.6,10-6.7,14.8c-2.1,4.8-4,9.3-5.5,13.4
			c-1.6,4.1-2.6,7.7-3,10.6c-1.6,7.2-1.5,12.3,0.2,15.3c1.7,3,3.7,4.6,6.2,4.9c4,0,8.1-1.8,12.3-5.4c4.1-3.6,8.1-8.1,11.9-13.6
			c3.8-5.5,7.4-11.5,10.9-18.1c3.5-6.6,6.7-12.9,9.6-19c1.3-2.9,2.9-4,4.5-3.2c1.7,0.8,1.7,2.9,0.2,6.2c-2.7,5.8-5.8,12.3-9.4,19.3
			c-3.6,7.1-7.6,13.7-12.1,20c-4.5,6.3-9.4,11.5-14.8,15.8c-5.4,4.3-11.1,6.4-17.1,6.4c-3.8,0-7.2-1-10.1-2.9
			c-2.9-1.9-5.1-4.7-6.6-8.4c-1.5-3.7-2.2-8.2-2.2-13.6c0-5.4,1.1-11.4,3.4-18.1c1.6-4.9,3.5-10.2,5.7-15.8c2.2-5.6,4.6-11.3,7.2-17
			c2.6-5.7,5.1-11.4,7.7-17C898.5,338.4,900.8,333.2,902.8,328.5z"/>
		<path fill="#F8F7F3" d="M1087.2,375.2c-2.5,5.2-5.5,11.2-9.2,18.1c-3.7,6.9-7.8,13.7-12.3,20.2c-4.5,6.5-9.2,12-14.3,16.6
			c-5,4.6-10,7.1-14.9,7.6c-2.7,0.2-5.6-0.3-8.7-1.5c-3.1-1.2-5.7-3.5-7.7-6.7c-2-3.2-3.2-7.7-3.5-13.4s0.7-12.9,3.2-21.7
			c-2.7,4.5-6.2,9.7-10.4,15.6c-4.3,5.9-8.8,11.3-13.8,16c-6.5,6.3-12.5,10-18,11.1c-5.5,1.1-10.1,0.3-13.9-2.5
			c-3.8-2.8-6.5-7.2-8.2-13.3c-1.7-6-2-13.2-0.8-21.3c1.1-8.2,3.9-17.1,8.2-26.9c4.4-9.7,10.8-19.7,19.3-29.7
			c4.9-6,10.9-11.2,18-15.5c7.1-4.3,14.2-7.3,21.5-9.1c7.3-1.8,14.3-2,21.2-0.7c6.8,1.3,12.6,4.6,17.3,9.7c2.5,2.5,3.2,4.8,2.2,7.1
			c-1,2.2-3,3.1-5.9,2.7c-1.8-6.3-5.4-10.1-10.9-11.4c-5.5-1.3-11.4-0.3-17.6,3c-7.6,4.3-15.5,10.8-23.5,19.7
			c-8.1,8.8-15.1,18.3-21.2,28.4c-0.7,1.1-1.7,2.9-3,5.4c-1.3,2.5-2.7,5.3-4.2,8.6c-1.5,3.2-2.8,6.6-4,10.1
			c-1.2,3.5-2.1,6.8-2.5,9.9c-0.9,5.8-0.5,10.1,1.2,12.8c1.7,2.7,4,4,7.1,4s6.5-1.3,10.6-3.9c4-2.6,8.1-6.2,12.1-10.9
			c5.8-7.2,11.1-14.7,16-22.7c4.8-7.9,9.5-16.1,13.9-24.4c3.8-7.2,7.2-12.6,10.2-16.5c3-3.8,7.2-5.5,12.6-5c2.2,0.2,4.5,0.6,6.9,1.2
			c2.4,0.6,4.8,0.6,7.2,0.2c-1.8,1.8-4.2,5.1-7.2,9.9c-3,4.8-6.2,10.3-9.4,16.5c-3.2,6.2-6.2,12.5-8.9,19
			c-2.7,6.5-4.6,12.3-5.7,17.5c-2.7,13.4-1.6,20.2,3.4,20.2c3.6,0.2,7.5-1.9,11.8-6.4c4.3-4.5,8.5-9.9,12.6-16.1
			c4.1-6.3,7.9-12.6,11.3-19c3.4-6.4,5.9-11.4,7.7-14.9c1.6-2.9,3.1-4,4.7-3.4C1088.8,369.8,1088.8,371.8,1087.2,375.2z"/>
		<path fill="#F8F7F3" d="M1119.1,388.6c-1.3,2.9-2.5,5.3-3.4,7.1c-0.9,1.8-1.9,4-3,6.7c-1.1,2.7-2.7,6.3-4.7,10.7
			c-2,4.5-4.8,10.9-8.4,19.1c-1.3,2.5-2.9,3.9-4.7,4.4c-1.8,0.4-4.5,0.7-8.1,0.7c-2.5,0.2-4.5,0.3-6.2,0.3s-3.4,0.6-5.2,1.7
			c8.1-16.1,15.7-32,23-47.7c7.3-15.7,15.1-31.1,23.3-46.4c4.3-8.1,7.9-13.7,11.1-16.8c3.1-3.1,7.4-4.6,12.8-4.4
			c2.2,0.2,4.5,0.6,6.9,1.2c2.4,0.6,4.8,0.6,7.2,0.2c-2.5,1.3-5.4,4.3-8.9,8.7c-3.5,4.5-7.1,9.7-10.7,15.8
			c-3.7,6-7.4,12.5-11.1,19.3C1125.3,376.1,1122,382.6,1119.1,388.6z M1172.9,370.2c-1.3,3.8-3.7,7.4-7.1,10.9
			c-3.4,3.5-7.3,5-11.8,4.5c-4-0.2-8-1.4-11.9-3.5c-3.9-2.1-7.8-3.3-11.6-3.5c-2.2-0.2-4.3,0.3-6,1.5c-1.8,1.2-3.1,2.7-4,4.5
			c-0.2,0.5-1.1,0.7-2.7,0.7c-1.6,0-2.1-0.3-1.7-1c1.8-3.4,4.3-6.7,7.6-10.1c3.2-3.4,7.1-4.8,11.6-4.4c4.3,0.2,8.2,1.3,11.9,3.2
			c3.7,1.9,7.4,3.1,11.3,3.5c2.7,0.5,4.8,0,6.4-1.3c1.6-1.3,2.9-3,4-5c0.4-0.4,1.3-0.7,2.7-0.7S1173.3,369.7,1172.9,370.2z
			 M1178.6,388.6c-1.6,3.1-3.2,7-4.9,11.6c-1.7,4.6-2.9,9.1-3.5,13.4s-0.5,8.1,0.5,11.3c1,3.1,3.5,4.7,7.6,4.7
			c4.3,0,8.7-2.4,13.3-7.1c4.6-4.7,8.9-10.2,12.9-16.5c4-6.3,7.7-12.6,10.9-19c3.2-6.4,5.8-11.4,7.6-14.9c1.3-2.9,2.9-4,4.5-3.2
			c1.7,0.8,1.7,2.9,0.2,6.2c-2.5,5.2-5.5,11.3-9.2,18.5c-3.7,7.2-7.9,14.1-12.6,20.7c-4.7,6.6-9.9,12.3-15.5,17
			c-5.6,4.7-11.6,7.1-18.1,7.1c-2.7,0-5.3-0.7-7.9-2.2c-2.6-1.5-5-3.7-7.2-6.9c-1.8-2.9-3.2-7.3-4.4-13.1
			c-1.1-5.8-0.7-11.3,1.3-16.5c2.7-5.6,5-10.6,7.1-14.9s4-8.6,6-12.6c2-4,4.1-8.2,6.4-12.4c2.2-4.3,4.8-9.1,7.7-14.4
			c4.3-8.1,7.9-13.7,11.1-16.8c3.1-3.1,7.4-4.6,12.8-4.4c2.2,0.2,4.5,0.6,6.9,1.2c2.4,0.6,4.8,0.6,7.2,0.2c-2.5,1.3-5.4,4.3-8.9,8.7
			c-3.5,4.5-7.1,9.7-10.7,15.8c-3.7,6-7.4,12.5-11.1,19.3C1184.8,376.1,1181.5,382.6,1178.6,388.6z"/>
		<path fill="#F8F7F3" d="M1383.5,375.2c-4.3,8.7-8.2,16.6-11.8,23.5c-3.6,6.9-7.3,13-11.3,18.3c-3.9,5.3-8.1,9.9-12.6,13.8
			c-4.5,3.9-9.9,7.3-16.1,10.2c-3.8,10.5-9.2,21.8-16.3,33.8c-7.1,12-15.3,23-24.9,33.1c-9.5,10.1-20,18.5-31.4,25.2
			s-23.2,10.1-35.3,10.1c-21,0-31.6-8.6-31.6-25.9c0-8.3,2.9-15.6,8.6-22c5.7-6.4,12.6-11.9,20.7-16.6c8.3-4.9,16.3-9.1,24.2-12.4
			c7.8-3.4,15.5-6.4,23-9.1c7.5-2.7,14.8-5.2,21.8-7.4c7.1-2.2,13.8-4.7,20.3-7.4c2-5.8,3.6-11.8,4.9-18c1.2-6.2,2.2-12.6,2.9-19.3
			c0.7-6.5,1-12.3,1-17.3c0-5-0.2-8.4-0.7-10.2c-2.7,5.2-6.3,11.5-10.9,19c-4.6,7.5-9.7,14.5-15.5,21c-5.7,6.5-11.8,11.6-18.3,15.5
			c-6.5,3.8-13.1,4.7-19.8,2.7c-8.5-3.6-13.8-9-16-16.3c-2.1-7.3-2.2-15.3-0.2-24.2c2-8.8,5.5-17.9,10.6-27c5-9.2,10.7-17.5,17-24.9
			c4.9-6,10.6-11.1,17-15.3c6.4-4.1,13-7.1,20-8.7c6.9-1.7,13.9-1.9,21-0.7c7.1,1.2,13.7,4.3,20,9.2c2.9,2.5,4.5,4.8,4.9,7.1
			c0.3,2.2,0,4-1,5.2c-1,1.2-2.3,1.7-3.9,1.5c-1.6-0.2-2.8-1.6-3.7-4c-2.2-6-5.3-9.9-9.2-11.4c-3.9-1.6-8.3-1.5-13.3,0.2
			c-4.9,1.7-10.1,4.7-15.6,8.9c-5.5,4.3-10.8,9.2-16,14.8c-6,6.9-11.6,14.4-16.8,22.5c-5.2,8.1-9.1,15.7-11.9,23
			c-2.8,7.3-4.1,13.7-4,19.1c0.1,5.5,2.4,9.2,6.9,11.3c4.9,2,10.5,0.8,16.6-3.5c6.2-4.4,12.1-10.2,17.8-17.5
			c5.7-7.3,10.8-14.9,15.3-23c4.5-8.1,7.5-14.8,9.1-20.2c1.1-3.8,2.6-6.5,4.4-8.1c1.8-1.6,3.7-2.6,5.7-3c2-0.4,4-0.7,5.9-0.7
			c1.9,0,3.5-0.6,4.9-1.7c2.2,13.4,3,27,2.2,40.8c-0.8,13.8-3,27.4-6.5,40.8c4-2.9,8.1-6.2,12.3-9.7c4.1-3.6,7.9-7.6,11.3-12.1
			c5.6-7.4,9.8-14.4,12.6-21c2.8-6.6,5.1-11.5,6.9-14.6c1.6-2.9,3.2-4,4.9-3.4S1385.1,371.8,1383.5,375.2z M1307.6,452.1
			c-1.8,0.7-3.7,1.3-5.7,2s-4,1.3-6,2c-12.3,4.3-25,8.9-38.1,13.9s-25,11.1-35.8,18.3c-5.4,3.6-10,8.1-13.9,13.6
			c-3.9,5.5-6.5,10.7-7.7,15.8c-1.2,5-0.7,9.4,1.7,13.1c2.4,3.7,7,5.5,13.9,5.5c3.6,0,7.4-0.6,11.6-1.8c4.1-1.2,8.1-2.7,11.9-4.5
			c3.8-1.8,7.4-3.7,10.7-5.7s6-3.8,8.1-5.4c5.1-4.3,10.3-9.2,15.5-14.9c5.1-5.7,10.1-11.7,14.8-18
			C1296.7,474.4,1303.1,463.1,1307.6,452.1z"/>
		<path fill="#F8F7F3" d="M1526.2,375.2c-2.5,5.2-5.5,11.2-9.2,18.1c-3.7,6.9-7.8,13.7-12.3,20.2c-4.5,6.5-9.2,12-14.3,16.6
			c-5,4.6-10,7.1-14.9,7.6c-2.7,0.2-5.6-0.3-8.7-1.5c-3.1-1.2-5.7-3.5-7.7-6.7c-2-3.2-3.2-7.7-3.5-13.4s0.7-12.9,3.2-21.7
			c-2.7,4.5-6.2,9.7-10.4,15.6c-4.3,5.9-8.8,11.3-13.8,16c-6.5,6.3-12.5,10-18,11.1c-5.5,1.1-10.1,0.3-13.9-2.5
			c-3.8-2.8-6.5-7.2-8.2-13.3c-1.7-6-2-13.2-0.8-21.3c1.1-8.2,3.9-17.1,8.2-26.9c4.4-9.7,10.8-19.7,19.3-29.7
			c4.9-6,10.9-11.2,18-15.5c7.1-4.3,14.2-7.3,21.5-9.1c7.3-1.8,14.3-2,21.2-0.7c6.8,1.3,12.6,4.6,17.3,9.7c2.5,2.5,3.2,4.8,2.2,7.1
			c-1,2.2-3,3.1-5.9,2.7c-1.8-6.3-5.4-10.1-10.9-11.4c-5.5-1.3-11.4-0.3-17.6,3c-7.6,4.3-15.5,10.8-23.5,19.7
			c-8.1,8.8-15.1,18.3-21.2,28.4c-0.7,1.1-1.7,2.9-3,5.4c-1.3,2.5-2.7,5.3-4.2,8.6c-1.5,3.2-2.8,6.6-4,10.1
			c-1.2,3.5-2.1,6.8-2.5,9.9c-0.9,5.8-0.5,10.1,1.2,12.8c1.7,2.7,4,4,7.1,4s6.5-1.3,10.6-3.9c4-2.6,8.1-6.2,12.1-10.9
			c5.8-7.2,11.1-14.7,16-22.7c4.8-7.9,9.5-16.1,13.9-24.4c3.8-7.2,7.2-12.6,10.2-16.5c3-3.8,7.2-5.5,12.6-5c2.2,0.2,4.5,0.6,6.9,1.2
			c2.4,0.6,4.8,0.6,7.2,0.2c-1.8,1.8-4.2,5.1-7.2,9.9c-3,4.8-6.2,10.3-9.4,16.5c-3.2,6.2-6.2,12.5-8.9,19
			c-2.7,6.5-4.6,12.3-5.7,17.5c-2.7,13.4-1.6,20.2,3.4,20.2c3.6,0.2,7.5-1.9,11.8-6.4c4.3-4.5,8.5-9.9,12.6-16.1
			c4.1-6.3,7.9-12.6,11.3-19c3.4-6.4,5.9-11.4,7.7-14.9c1.6-2.9,3.1-4,4.7-3.4C1527.8,369.8,1527.8,371.8,1526.2,375.2z"/>
	</g>
</g>
</svg>
