<?xml version="1.0" encoding="utf-8"?>
<!-- Generator: Adobe Illustrator 18.0.0, SVG Export Plug-In . SVG Version: 6.00 Build 0)  -->
<!DOCTYPE svg PUBLIC "-//W3C//DTD SVG 1.1//EN" "http://www.w3.org/Graphics/SVG/1.1/DTD/svg11.dtd">
<svg version="1.1" id="Layer_1" xmlns="http://www.w3.org/2000/svg" xmlns:xlink="http://www.w3.org/1999/xlink" x="0px" y="0px"
	 viewBox="0 0 1364 403" enable-background="new 0 0 1364 403" xml:space="preserve">
<g>
	<path fill="#F8F7F3" d="M334.2,107.1c3.4-9.6,7.1-19.1,11.2-28.4c2-4.4,4-8.7,6.2-13c1-2.1,2.1-4.1,3.2-6.2c2.2-4,2.6-4,7.1-4.6
		c11.8-1.6,37.6-8.3,35.1-25c-1.2-8.2-10.2-10.7-17.2-9.3c-9.5,1.9-17,11.3-22.4,18.8c-2,2.8-3.6,5.9-5.7,8.7
		c-4.6,0.4-9.3,0.8-13.9,1.2c-11.2,0.8-22.5,1.5-33.7,2.3c-38,2.8-81.3,7.2-112.9,30.6c-15.4,11.4-28.4,26.2-33.8,44.9
		c-5.4,18.6-2,40.3,10.8,55.2c12,14,30.7,19.8,48.5,15.3c19.3-4.9,33.4-19.8,39.1-38.7c2.7-9,3.5-18.9,0.6-27.9
		c-0.7-2.2-2.9-7.7-6.3-6.6c-1.3,0.4,0.3,12.6,0.3,14.4c-0.4,18.5-8.3,41.7-26.6,49.7c-17.9,7.8-37.5,2.9-45.4-16
		c-7.6-18.3-2.5-40,7.1-56.5c20.7-35.4,60-47.8,98.2-53.2c21-2.9,42.2-4,63.3-6.6c-18.3,34.7-33.4,71.4-49.3,107.2
		c-16.3,36.7-34.9,73-62.3,102.7c-27.5,29.7-61.8,51.3-101.3,60.6c-36.5,8.6-85.1-0.1-108.4-32.1C2.5,263,12.1,214.6,45,193.5
		c7.7-5,1.5-7.3-4.9-4.6c-9.2,3.9-17,11-23.2,18.7C4.5,223.1,1,245,3.5,264.4c5.3,40.6,38.4,66.8,75.9,77.4
		c39.4,11.2,84.9,5.6,121-13.7c37.1-19.7,64.3-53.7,83-90.6C304.5,196,318.8,151,334.2,107.1C340.9,88,327.5,126.2,334.2,107.1z
		 M369.3,39.9c2.9-3.5,6.4-7.4,10.6-9.4c3.7-1.7,8.2,0.1,6.4,4.7c-3.4,8.5-15.3,10.8-23.2,11.9C365.2,44.8,367.3,42.4,369.3,39.9
		C371.6,37.1,366.9,42.7,369.3,39.9z"/>
	<path fill="#F8F7F3" d="M480.3,297.4c-3.3-1.1-6.1,6.7-7.3,8.6c-2.4,3.8-5.3,7.3-8.5,10.4c-7.2,6.8-15.9,11.7-25.2,15
		c-17.4,6.3-38.8,9.5-55.9,0.8c-16-8.1-26.9-24.7-34.6-40.4c-9.1-18.5-15.6-38.6-20.2-58.7c-1.9-8.4-3.8-17-4.2-25.6
		c-0.2-3.6-0.1-4.1,3.1-5c5-1.4,9.8-3.1,14.6-5c19.5-7.7,37.8-18.3,55.3-29.8c36.1-23.7,69.6-51.7,99.1-83.1
		c14.7-15.6,28.5-32.2,40.7-49.8c4.7-6.7,14-16.7,14.5-25.1c0.2-4.2-3.2-5.4-6.4-2.9c-4.1,3.2-6.7,8.7-9.7,13
		c-24.2,35-54.8,65.5-87.3,92.9c-32.3,27.2-68.2,52.2-106.1,70.9c-7.8,3.9-15.9,7.4-24.2,10.1c-6.1,1.9-13.3,0.3-14.4,7.7
		c-2.7,19,2.9,40.4,8.1,58.6c10.6,37.4,33,78.1,73.1,89.3c20.3,5.7,41,1,59-9.2c9.2-5.2,17.6-11.7,24.6-19.5
		C470.2,318.6,486,299.3,480.3,297.4C479.6,297.2,481,297.6,480.3,297.4z"/>
	<path fill="#F8F7F3" d="M550.5,222.5c-5.1-1.9-11.1,16.2-12.8,19.6c-4.7,9.3-10,18.6-16.8,26.6c-5.5,6.5-12.3,13.2-21.5,13.2
		c-3.6,0-7.3-0.6-10.4-2.5c-1.4-0.8-2.6-1.9-3.6-3.1c-2.6-3.2-1-3.5,1.6-6.1c13.8-14,25-31.8,29.7-51c3.9-15.9,4.3-42.7-16.9-46.1
		c-19.7-3.1-37.9,12.3-49.8,26.4c-13.4,15.9-23.9,36-25.5,57c-1.5,19.7,9,37,30.9,33c4.8-0.9,9.4-2.9,13.7-5.3
		c2.1-1.2,4.2-2.5,6.2-3.8c3.1-2.1,2.4-0.7,5,1.3c7.3,5.7,17.8,7.3,26.6,4.5c13.1-4.1,22.8-17.4,29.7-28.6
		C538.8,254,556.1,224.6,550.5,222.5C548.7,221.8,552.3,223.2,550.5,222.5z M471.1,247.3c-2.4,4.2-3.3,9.2-2.5,13.9
		c0.4,2.2,1,4.3,1.8,6.4c1.3,3.4,4.6,5.3,1.3,7.8c-6.9,5.2-22.9,13.1-27.2,0.6c-3.4-9.7,0.1-21.6,3.2-31
		c3.7-11.3,8.9-22.4,15.4-32.3c5.9-9.2,13.2-18.5,22.3-24.7c9-6.1,21.9-8,24.7,5.2c4.5,21-9.2,46.7-20.6,63.5
		C493,245.7,477.1,236.9,471.1,247.3C469.4,250.3,472.8,244.4,471.1,247.3z"/>
	<path fill="#F8F7F3" d="M774.4,222c-4.4-2-11.2,16.6-12.8,19.7c-4.4,8.5-9.2,16.9-15.1,24.5c-4.7,6.1-11.2,13.7-19.3,14.9
		c-8.5,1.3-10-8.9-9.3-15c2.2-18.2,12.2-36.1,20.2-52.3c7.3-14.6,13.3-29.3,26.3-39.8c-15,0-35.6-3.8-46.1,9
		c-8.3,10.1-12.9,24.1-18.1,35.9c-6.2,14-12.1,28.3-20.1,41.4c-4.6,7.5-17.4,27.4-28.6,19.9c-10.2-6.8-2.4-25.3,1.1-33.9
		c5.6-13.9,12.4-27.2,18.9-40.7c5.8-12,11.6-23,22.1-31.5c-9.2,0-18.8-0.7-27.9,0.2c-20.8,2-26.6,23.9-33.7,40.5
		c-8.2,19.1-16.5,40.2-30.9,55.5c-6.6,7-13.1,10.1-22.7,10.7c-10.7,0-14.8-10.5-11.5-19.1c2.4-6,1-15.9-8-12.4
		c-8,3.1-9,13.1-6.6,20.1c6.1,17.2,25.6,25.5,42.2,16.8c16.3-8.6,26-30.2,33.5-46.1c8.1-17.3,13.3-36.8,24.8-52.4
		c2.7-3.7,5.5-6.6,10.2-7.6c-5.7,9.5-9.6,21-14.2,31.1c-5.2,11.5-10.2,23.1-14,35.2c-3.3,9.9-5.1,21.4-1.2,31.4
		c4,10.3,15.3,13.4,25.3,10.6c22.4-6.3,34.2-35.5,42.5-54.6c4.5-10.4,8.4-21.1,13.2-31.3c3.8-8,9.5-20.7,19.2-22.5
		c-4.4,7.3-7.3,16.1-10.9,23.9c-4.4,9.6-8.7,19.2-12.6,29.1c-5.6,14.3-14.9,38.1-2.1,51.3c14.3,14.7,34.4-3.5,43.1-15.1
		C754.9,265.1,780.7,225,774.4,222C772.7,221.2,776.1,222.8,774.4,222z"/>
	<path fill="#F8F7F3" d="M917.7,228.2c0.7-1.5,2.6-6.8-1.2-6.2c-3.1,0.4-4.7,5.8-5.9,8.1c-4,7.8-8,15.6-12.6,23
		c-3.7,6-20.5,35.5-30.7,28.1c-3.9-2.8-2.4-10.9-1.8-14.7c1.3-8.6,4.2-16.7,7.6-24.6c6-14.1,13.4-31.9,24.5-42.9
		c-8.2,1.5-16.7-4.5-24.2,1.2c-7,5.3-11.1,15.9-15.2,23.4c-9.7,17.5-20.1,38.3-36.1,51c-4.9,3.9-14.4,9.9-20,3.7
		c-6-6.6-1.6-19.1,1-26.2c6.7-17.9,17.3-34.2,30-48.4c9.7-10.9,31.3-33.9,47.7-22.4c3.1,2.2,5,5.6,6,9.3c3.7,0.6,7.3-2.1,6.1-6.1
		c-2.5-8.1-14.6-12.7-22-13.7c-41.2-6-73.8,36.4-83.6,71.6c-4.2,15-6.3,50.7,18.5,48.1c19.9-2.1,35.2-27.6,44.5-43
		c-2.9,10.1-5.1,21.8-1.2,32c4,10.3,15.8,13.9,25.4,9.1c10.6-5.4,18.4-16.7,24.7-26.3C906.1,251.3,912.1,239.8,917.7,228.2
		C919.2,224.8,915.2,233.3,917.7,228.2z"/>
	<path fill="#F8F7F3" d="M1036.2,267.3c6.7-9.3,12-19.4,17.2-29.6c1.9-3.9,5.3-8.6,5.8-12.9c0.2-1.6-0.7-3.2-2.5-3
		c-2.2,0.2-3.2,3.2-4,4.8c-5.2,10.3-10.3,20.6-16.4,30.4c-5.4,8.7-12.7,20.6-22.7,24.6c-11.2,4.5-14.3-5.9-12.9-15
		c1.7-11.1,6.5-21.3,11.4-31.2c5.6-11,11.5-21.9,18-32.5c4.9-8.1,11-19.8,19.7-24.5c-9.3,1.7-18.8-5-26.9,3
		c-7,7-11.2,16.9-15.7,25.5c-2.5,4.7-5,9.4-7.4,14.1c-2,3.9-3.7,8.6-8.9,8.6c-10.9,0-21-10.9-32.2-5.8c4.6-8.6,9.4-17.1,14.7-25.3
		c4.4-6.8,9.6-16.1,16.9-20.1c-5.6,1-10.8-1.6-16.3-1.3c-5.2,0.3-9.2,2.6-12.5,6.5c-8.1,10-13.5,22.6-19.3,34
		c-12.6,24.6-23.8,50-36.2,74.7c9-5.6,20,2.5,25.2-9.5c4-9.2,8.2-18.2,12.1-27.5c2.9-7,7.1-22.8,15.6-23.8
		c11.5-1.4,21.2,11.4,32.9,5.8c-3.6,7.8-8.8,15.7-9.2,24.5c-0.4,8.7,2.4,19.2,9.2,25.1C1007.9,301.1,1027.4,279.7,1036.2,267.3
		C1040.9,260.7,1031.5,273.9,1036.2,267.3z"/>
	<path fill="#F8F7F3" d="M1213.8,222.1c-5.4-2.2-14.8,24.5-17,28.2c-8,13.3-18.4,23.6-30.9,32.6c7.1-26.5,8.9-54.5,4.4-81.6
		c-2.9,2.4-7.3,1.6-10.7,2.4c-3.9,0.9-6.9,3.5-8.6,7.1c-4.2,8.8-6.9,17.8-11.8,26.4c-8.4,14.7-22.1,37.4-39.7,42.2
		c-23.3,6.3-13.7-26.9-9.1-36.8c8.5-18.6,21.3-36.3,36.7-49.8c12.4-10.9,35.2-24.6,43.6-2.1c3,8.4,11.6,1.4,7.5-5.4
		c-4.4-7.6-15.6-12.1-23.8-13.6c-42.3-7.4-75.7,38.2-85,74.4c-2.8,10.8-3.8,24.6,3.5,34c7.1,9.1,19.3,12.3,29.7,7.2
		c21.8-10.6,36.1-35.9,46.8-56.6c1.9,7.7,0.6,17-0.1,24.8c-1,10.9-2.6,21.9-5.6,32.4c-0.7,2.5-1.5,5.1-2.4,7.6
		c-2.2,0.9-4.4,1.8-6.6,2.6c-4.5,1.7-9.1,3.3-13.7,4.8c-10.4,3.3-20.7,6.8-30.9,10.8c-18.4,7.1-37.8,15.3-52.7,28.6
		c-11.5,10.3-20.2,27.6-11.2,42.5c7.8,12.8,27.2,12.8,40,10.4c19.8-3.7,37.3-16.8,51.3-30.7c14.8-14.7,26.6-32,35.9-50.6
		c2.2-4.4,4.3-8.8,6.1-13.3c0.9-2.1,1.7-4.2,2.5-6.4c2.3-1.1,4.5-2.2,6.7-3.5c8.8-5.2,16-12.4,22-20.5
		C1194.3,265.5,1219.3,224.4,1213.8,222.1z M1118.9,339c-12.9,17.2-27.2,33.2-46.8,42.9c-9.1,4.5-19.7,8.6-30.1,7.2
		c-10.5-1.5-13.7-10.8-10.8-20.3c6.2-20.3,25.5-31.6,43.5-40.1c20.4-9.6,42.2-15.8,63.3-23.7C1133.1,317.2,1126.4,328.4,1118.9,339
		C1114.2,345.3,1127.1,327.4,1118.9,339z"/>
	<path fill="#F8F7F3" d="M1356.7,222.1c-4.1-1.7-8.7,11.2-10.1,13.8c-4.2,8-8.6,15.9-13.6,23.5c-2.8,4.2-21.2,31.5-27.9,20.5
		c-2.6-4.3-1.1-11.2-0.3-15.7c1.5-8.6,4.7-16.8,8.2-24.7c5.9-13.4,13-30,23.5-40.5c-8.2,1.5-16.7-4.5-24.2,1.2
		c-7,5.3-11.1,15.9-15.2,23.4c-9.7,17.5-20.1,38.3-36.1,51c-4.9,3.9-14.4,9.9-20,3.7c-6-6.6-1.6-19.1,1-26.2
		c6.7-17.9,17.3-34.2,30-48.4c9.7-10.9,31.3-33.9,47.7-22.4c3.1,2.2,5,5.6,6,9.3c3.7,0.6,7.3-2.1,6.1-6.1
		c-2.5-8.1-14.6-12.7-22-13.7c-41.2-6-73.8,36.4-83.6,71.6c-4.2,15-6.3,50.7,18.5,48.1c19.9-2.1,35.2-27.6,44.5-43
		c-3,10.5-5.6,23.4-0.5,33.6c5.5,11.2,19.1,11.8,28.5,5.2c10.7-7.6,18.5-19.6,25.1-30.7C1344.2,252.2,1361.4,224.2,1356.7,222.1
		C1355.1,221.5,1358.2,222.8,1356.7,222.1z"/>
</g>
</svg>
