<?xml version="1.0" encoding="utf-8"?>
<!-- Generator: Adobe Illustrator 18.0.0, SVG Export Plug-In . SVG Version: 6.00 Build 0)  -->
<!DOCTYPE svg PUBLIC "-//W3C//DTD SVG 1.1//EN" "http://www.w3.org/Graphics/SVG/1.1/DTD/svg11.dtd">
<svg version="1.1" id="Layer_1" xmlns="http://www.w3.org/2000/svg" xmlns:xlink="http://www.w3.org/1999/xlink" x="0px" y="0px"
	 viewBox="0 0 1700 680" enable-background="new 0 0 1700 680" xml:space="preserve">
<g>
	<g>
		<path fill="#F8F7F3" d="M584.5,172.9c17.8,10.4,30,21.8,36.6,34c6.6,12.3,9.1,24.6,7.4,37c-1.7,12.4-6.7,24.6-15,36.6
			c-8.3,12-18.5,22.9-30.7,32.8c-12.1,9.9-25.5,18.5-40.2,26c-14.7,7.5-28.9,12.9-42.7,16.3c-17.5,4.2-34.8,7.2-52,8.9
			c-17.2,1.7-31.4,2.1-42.7,1.3c-9.3,13.8-19.2,27.1-29.6,40c-10.4,12.8-21.7,25.2-33.8,37c-18,16.9-37.6,29.1-58.6,36.6
			c-21,7.5-42.9,9.8-65.8,7c-14.4-1.7-25.7-5.5-33.8-11.4c-8.2-5.9-13.5-12.6-15.9-20.1c-2.4-7.5-2.2-15.1,0.6-22.8
			c2.8-7.8,8-14.2,15.6-19.2c7.6-5.1,17.4-8.2,29.4-9.5c12-1.3,26,0.8,42.1,6.1c4.5,1.7,6.3,3.4,5.5,5.1c-0.8,1.7-3.1,1.8-6.8,0.4
			c-11.3-4.2-21.1-5.8-29.4-4.7c-8.3,1.1-15.1,3.8-20.3,8c-5.2,4.2-8.7,9.4-10.6,15.6c-1.8,6.2-1.8,12.3,0,18.2
			c1.8,5.9,5.5,11,11,15.2c5.5,4.2,13.2,6.6,23,7.2c18.9,0.8,36.2-2.8,52-11c15.8-8.2,30.9-19.2,45.3-33
			c13.8-13.5,26.5-30.3,38.1-50.3c11.6-20,23.3-41.3,35.3-63.9c12-22.6,24.8-45.4,38.5-68.5c13.7-23.1,29.5-44.8,47.6-65.1
			c3.9-4.2,7.7-8.3,11.2-12.3c3.5-3.9,7.3-7.8,11.2-11.4c-12.1-1.7-24.5-2.8-37.2-3.4c-12.7-0.6-25.1-0.6-37.2-0.2
			c-12.1,0.4-23.8,1.2-34.9,2.3c-11.1,1.1-21.1,2.5-29.8,4.2c-13.3,2.5-28.1,6.5-44.6,11.8c-16.5,5.4-32.2,12.3-47.2,20.9
			c-14.9,8.6-28,18.9-39.1,30.9c-11.1,12-18,25.9-20.5,41.7c-1.1,7.3-0.8,14.2,1.1,20.7c1.8,6.5,4.7,12.1,8.5,16.9
			c3.8,4.8,8.5,8.6,14,11.4c5.5,2.8,11.5,4.4,18,4.7c6.8,0.3,13.4-0.9,19.9-3.6c6.5-2.7,12.5-6.3,18.2-11c5.6-4.7,10.6-10.1,15-16.5
			c4.4-6.3,7.8-13,10.4-20.1c0.6-3.1,1.7-4.6,3.4-4.4c1.7,0.1,2.5,1.8,2.5,4.9c0,9.6-2.1,18.1-6.3,25.6c-4.2,7.5-9.7,13.7-16.5,18.8
			c-6.8,5.1-14.3,8.9-22.6,11.4c-8.3,2.5-16.6,3.7-24.7,3.4c-8.5-0.3-16.6-1.8-24.3-4.7c-7.8-2.8-14.5-7-20.3-12.5
			c-5.8-5.5-10.4-12.3-13.7-20.3c-3.4-8-4.8-17.4-4.2-28.1c0.6-12.7,3.8-24.1,9.7-34.3c5.9-10.2,13.6-19.3,23-27.5
			c9.4-8.2,20.1-15.3,31.9-21.4c11.8-6.1,24-11.3,36.6-15.6c12.5-4.4,24.9-8,37-10.8c12.1-2.8,23.3-4.9,33.4-6.3
			c23.7-3.4,48.7-5.4,75.1-6.1c26.4-0.7,52.1,1.5,77.2,6.6c4.8-3.7,9.7-7,14.6-9.9c4.9-3,10.6-5.6,17.1-7.8c6.8-2.8,10.4-3.2,11-1.3
			c0.6,2-1.7,4.5-6.8,7.6c-2.3,1.4-5.1,3.5-8.5,6.1c-3.4,2.7-6.9,5.9-10.6,9.5C553.5,157.4,569.9,164.1,584.5,172.9z M574.8,181.7
			c-6.5-4.2-13.7-7.9-21.8-11c-8-3.1-16.6-5.8-25.6-8c-10.7,15.2-20.9,30.9-30.4,47.2c-9.6,16.2-19,32.6-28.3,49.1
			c-9.3,16.5-18.7,33-28.1,49.5c-9.4,16.5-19.2,32.6-29.4,48.4c10.7,0.6,22.6-0.2,35.5-2.3c13-2.1,26.2-5.1,39.8-9.1
			c15.2-4.5,29.5-10.7,42.9-18.6c13.4-7.9,25.2-16.7,35.5-26.4c10.3-9.7,18.7-19.9,25.2-30.7c6.5-10.7,10.4-21.4,11.8-31.9
			c1.4-10.6,0-20.7-4.2-30.4S585.8,189.1,574.8,181.7z"/>
		<path fill="#F8F7F3" d="M757.5,391.9c-1.7,4-4.4,10.1-8.2,18.6c-3.8,8.5-8.5,16.9-14.2,25.4c-5.6,8.5-12.2,15.9-19.7,22.3
			c-7.5,6.4-15.6,9.6-24.3,9.6c-6.5,0-11.9-1-16.3-3c-4.4-2-8-4.6-10.8-7.7c-5.9,4.4-12,7.9-18.2,10.5c-6.2,2.6-12.4,3.7-18.6,3.4
			c-8.2-0.3-14.6-2.6-19.2-7c-4.7-4.4-7.8-10.2-9.3-17.4c-1.6-7.2-1.6-15.4-0.2-24.5c1.4-9.2,4.1-18.4,8-27.7
			c4.2-9.6,9.4-18.7,15.6-27.5c6.2-8.7,12.9-16.3,20.1-22.8c7.2-6.5,14.6-11.6,22.2-15.4c7.6-3.8,15.1-5.6,22.4-5.3
			c7.9,0,14.2,2.3,19,6.8c4.8,4.5,8,10.4,9.5,17.8c1.5,7.3,1.6,15.6,0.2,24.7c-1.4,9.2-4.1,18.4-8,27.7c-3.1,7.3-7.8,15.6-14,24.7
			c-6.2,9.2-13.4,17.5-21.6,25.2c3.7,7,10.3,10.6,19.9,10.6c6.8,0,13.2-2.8,19.2-8.5c6.1-5.6,11.6-12.4,16.7-20.3
			c5.1-7.9,9.6-15.9,13.5-24.1c3.9-8.2,7.2-14.8,9.7-19.9c1.1-2.3,2.8-3,5.1-2.1C758.5,386.8,758.9,388.8,757.5,391.9z M695.7,336.9
			c-4.5-1.1-9.4-0.5-14.8,1.9c-5.4,2.4-10.7,6.2-16.1,11.4c-5.4,5.2-10.6,11.4-15.6,18.6c-5.1,7.2-9.6,15-13.5,23.5
			c-4.2,8.7-7.5,17-9.9,24.7c-2.4,7.8-3.9,14.7-4.4,20.9c-0.6,6.2-0.1,11.4,1.3,15.4c1.4,4.1,4.1,6.7,8,7.8
			c3.9,1.1,8.5,0.7,13.5-1.3c5.1-2,10.2-5.1,15.2-9.3c-2.3-3.4-4-6.9-5.1-10.6c-1.1-3.7-1.7-7-1.7-10.1c0.3-4.8,1.5-9,3.6-12.7
			c2.1-3.7,5.8-5.5,11.2-5.5c3.7,0,6.7,1.3,9.1,3.8c2.4,2.5,3.6,5.5,3.6,8.9c0,0.8-0.1,1.6-0.2,2.3c-0.1,0.7-0.4,1.5-0.6,2.3
			c4.8-7,9.2-14.7,13.1-22.8c4.2-8.7,7.5-17.1,9.7-25c2.3-7.9,3.5-14.9,3.8-21.1c0.3-6.2-0.4-11.3-2.1-15.4
			C702.1,340.7,699.4,338.1,695.7,336.9z"/>
		<path fill="#F8F7F3" d="M931.3,392.8c-1.7,4-4.4,10.1-8.2,18.6s-8.5,16.9-14.2,25.4c-5.6,8.5-12.2,15.9-19.7,22.3
			c-7.5,6.4-15.6,9.6-24.3,9.6c-6.5,0-11.9-1-16.3-3c-4.4-2-8-4.6-10.8-7.7c-5.9,4.4-12,7.9-18.2,10.5c-6.2,2.6-12.4,3.7-18.6,3.4
			c-8.2-0.3-14.6-2.6-19.2-7c-4.7-4.4-7.8-10.2-9.3-17.4c-1.6-7.2-1.6-15.4-0.2-24.5c1.4-9.2,4.1-18.4,8-27.7
			c4.2-9.6,9.4-18.7,15.6-27.5c6.2-8.7,12.9-16.3,20.1-22.8c7.2-6.5,14.6-11.6,22.2-15.4c7.6-3.8,15.1-5.6,22.4-5.3
			c7.9,0,14.2,2.3,19,6.8c4.8,4.5,8,10.4,9.5,17.8c1.5,7.3,1.6,15.6,0.2,24.7c-1.4,9.2-4.1,18.4-8,27.7c-3.1,7.3-7.8,15.6-14,24.7
			c-6.2,9.2-13.4,17.5-21.6,25.2c3.7,7.1,10.3,10.6,19.9,10.6c6.8,0,13.2-2.8,19.2-8.5c6.1-5.6,11.6-12.4,16.7-20.3
			c5.1-7.9,9.6-15.9,13.5-24.1c3.9-8.2,7.2-14.8,9.7-19.9c1.1-2.3,2.8-3,5.1-2.1C932.3,387.7,932.7,389.7,931.3,392.8z M869.5,337.8
			c-4.5-1.1-9.4-0.5-14.8,1.9c-5.4,2.4-10.7,6.2-16.1,11.4c-5.4,5.2-10.6,11.4-15.6,18.6c-5.1,7.2-9.6,15-13.5,23.5
			c-4.2,8.7-7.5,17-9.9,24.7c-2.4,7.8-3.9,14.7-4.4,20.9c-0.6,6.2-0.1,11.4,1.3,15.4c1.4,4.1,4.1,6.7,8,7.8
			c3.9,1.1,8.5,0.7,13.5-1.3c5.1-2,10.1-5.1,15.2-9.3c-2.3-3.4-4-6.9-5.1-10.6c-1.1-3.7-1.7-7-1.7-10.1c0.3-4.8,1.5-9,3.6-12.7
			c2.1-3.7,5.8-5.5,11.2-5.5c3.7,0,6.7,1.3,9.1,3.8c2.4,2.5,3.6,5.5,3.6,8.9c0,0.8-0.1,1.6-0.2,2.3c-0.1,0.7-0.4,1.5-0.6,2.3
			c4.8-7,9.2-14.7,13.1-22.8c4.2-8.7,7.5-17.1,9.7-25c2.3-7.9,3.5-14.9,3.8-21.1c0.3-6.2-0.4-11.3-2.1-15.4
			C875.9,341.5,873.2,338.9,869.5,337.8z M834,152.1c4.2-13.2,11.6-22.3,22-27.1c10.4-4.8,23.3-6.8,38.5-5.9
			c6.8,0.3,13,1.2,18.8,2.7c5.8,1.6,11.3,3.3,16.5,5.3c5.2,2,10.6,3.7,16.1,5.3c5.5,1.6,11.5,2.5,18,2.8c8.7,0.6,15.9-0.6,21.6-3.6
			c5.6-3,10.3-7,14-12.1c0.3-0.6,1.2-0.9,2.7-1.1c1.5-0.1,3.2-0.1,4.9,0c1.7,0.1,3.2,0.4,4.4,0.8c1.3,0.4,1.8,0.8,1.5,1.1
			c-3.1,4.2-6.7,8.5-10.8,12.9c-4.1,4.4-8.8,8.3-14.2,11.8c-5.4,3.5-11.3,6.3-17.8,8.5c-6.5,2.1-13.5,2.9-21.1,2.3
			c-6.8-0.3-13-1.3-18.6-3.2c-5.6-1.8-11.1-3.7-16.5-5.7c-5.4-2-10.8-3.8-16.3-5.5s-11.6-2.7-18.4-3c-7.6-0.6-13.9,1.2-18.8,5.3
			c-4.9,4.1-8.7,9.8-11.2,17.1c-2,5.9-3.2,11.6-3.6,16.9c-0.4,5.4-0.1,11.3,0.8,17.8c1,6.5,2.6,13.8,4.9,22
			c2.3,8.2,5.4,17.8,9.3,28.8c1.7,4.8,5.6,15.9,11.8,33.2c6.2,17.3,12,41.5,17.3,72.5c0.6,3.1,0.2,4-1.1,2.5
			c-1.3-1.4-2.9-3.5-4.9-6.3c-2.3-3.1-4.8-7.2-7.6-12.3c-2.8-15.2-6.6-30-11.4-44.4c-4.8-14.4-9.2-27.3-13.1-38.9
			c-2.3-6.5-5-13.7-8.2-21.8c-3.2-8-6.1-16.3-8.5-25c-2.4-8.6-4-17.5-4.7-26.6C829.7,170.3,830.9,161.2,834,152.1z"/>
		<path fill="#F8F7F3" d="M1104.2,391.9c-1.7,4-4.4,10.1-8.2,18.6s-8.5,16.9-14.2,25.4c-5.6,8.5-12.2,15.9-19.7,22.3
			c-7.5,6.4-15.6,9.6-24.3,9.6c-6.5,0-11.9-1-16.3-3c-4.4-2-8-4.6-10.8-7.7c-5.9,4.4-12,7.9-18.2,10.5c-6.2,2.6-12.4,3.7-18.6,3.4
			c-8.2-0.3-14.6-2.6-19.2-7c-4.7-4.4-7.8-10.2-9.3-17.4c-1.6-7.2-1.6-15.4-0.2-24.5c1.4-9.2,4.1-18.4,8-27.7
			c4.2-9.6,9.4-18.7,15.6-27.5c6.2-8.7,12.9-16.3,20.1-22.8c7.2-6.5,14.6-11.6,22.2-15.4c7.6-3.8,15.1-5.6,22.4-5.3
			c7.9,0,14.2,2.3,19,6.8c4.8,4.5,8,10.4,9.5,17.8c1.5,7.3,1.6,15.6,0.2,24.7c-1.4,9.2-4.1,18.4-8,27.7c-3.1,7.3-7.8,15.6-14,24.7
			c-6.2,9.2-13.4,17.5-21.6,25.2c3.7,7,10.3,10.6,19.9,10.6c6.8,0,13.2-2.8,19.2-8.5c6.1-5.6,11.6-12.4,16.7-20.3
			c5.1-7.9,9.6-15.9,13.5-24.1c3.9-8.2,7.2-14.8,9.7-19.9c1.1-2.3,2.8-3,5.1-2.1C1105.2,386.8,1105.7,388.8,1104.2,391.9z
			 M1042.5,336.9c-4.5-1.1-9.4-0.5-14.8,1.9c-5.4,2.4-10.7,6.2-16.1,11.4c-5.4,5.2-10.6,11.4-15.6,18.6c-5.1,7.2-9.6,15-13.5,23.5
			c-4.2,8.7-7.5,17-9.9,24.7c-2.4,7.8-3.9,14.7-4.4,20.9c-0.6,6.2-0.1,11.4,1.3,15.4c1.4,4.1,4.1,6.7,8,7.8
			c3.9,1.1,8.5,0.7,13.5-1.3c5.1-2,10.1-5.1,15.2-9.3c-2.3-3.4-4-6.9-5.1-10.6c-1.1-3.7-1.7-7-1.7-10.1c0.3-4.8,1.5-9,3.6-12.7
			c2.1-3.7,5.8-5.5,11.2-5.5c3.7,0,6.7,1.3,9.1,3.8c2.4,2.5,3.6,5.5,3.6,8.9c0,0.8-0.1,1.6-0.2,2.3c-0.1,0.7-0.4,1.5-0.6,2.3
			c4.8-7,9.2-14.7,13.1-22.8c4.2-8.7,7.5-17.1,9.7-25c2.3-7.9,3.5-14.9,3.8-21.1c0.3-6.2-0.4-11.3-2.1-15.4
			C1048.8,340.7,1046.2,338.1,1042.5,336.9z"/>
		<path fill="#F8F7F3" d="M1349.5,393.2c-3.1,6.5-7,14.2-11.6,23.3c-4.7,9-9.9,17.7-15.9,26c-5.9,8.3-12.5,15.4-19.7,21.4
			c-7.2,5.9-14.7,8.9-22.6,8.9c-4,0-7.9-0.7-11.8-2.1c-4-1.4-7.3-4-9.9-7.8c-2.7-3.8-4.3-8.9-4.9-15.2c-0.6-6.3,0.7-14.4,3.8-24.3
			c1.7-5.6,4.5-12.1,8.5-19.2c3.9-7.2,8.9-15.6,14.8-25.2c2.5-4.2,3.9-7.9,4.2-11c0.3-3.1-0.8-4.9-3.2-5.5
			c-2.4-0.6-6.1,0.6-11.2,3.4c-5.1,2.8-11.7,8-19.9,15.6c-4.5,4.2-9.9,10.1-16.3,17.5c-6.3,7.5-12.5,15.5-18.4,24.1
			c-5.9,8.6-11.2,17.2-15.9,25.8c-4.7,8.6-7.7,16-9.1,22.2c-4.8,0-8.5-2.3-11.2-7c-2.7-4.7-3.5-10.1-2.3-16.3
			c1.4-9.3,3.8-17.7,7.2-25.2c3.4-7.5,6.9-15.2,10.6-23c3.4-7,6.5-14,9.3-20.7c2.8-6.8,4.2-11.7,4-14.8c-0.1-3.1-2.5-3.6-7-1.5
			c-4.5,2.1-12.3,8.4-23.3,18.8c-7.3,6.5-15.9,16.1-25.6,28.8s-20.7,30.6-32.8,53.7c-1.4,3.1-3.2,5-5.5,5.7
			c-2.3,0.7-5.8,1.1-10.6,1.1c-3.1,0.3-5.6,0.4-7.6,0.4c-2,0-4.1,0.7-6.3,2.1c10.1-20.3,19.7-40.2,28.5-59.6s18.5-38.8,29-57.9
			c5.4-10.1,10-17.2,14-21.1c3.9-3.9,9.3-5.8,16.1-5.5c2.8,0.3,5.7,0.8,8.7,1.5c3,0.7,6,0.8,9.1,0.2c-3.1,1.7-6.8,5.4-11.2,11
			c-4.4,5.6-8.9,12.3-13.5,19.9c-4.7,7.6-9.3,15.7-14,24.3c-4.7,8.6-8.8,16.7-12.5,24.3c4.2-5.4,9.5-11.6,15.9-18.8
			s12.8-13.6,19.2-19.2c5.1-4.5,10.5-9.4,16.3-14.6c5.8-5.2,11.4-9.9,16.9-14c5.5-4.1,10.7-7.3,15.6-9.5c4.9-2.3,9.2-2.8,12.9-1.7
			c3.9,1.4,6.5,3.8,7.6,7.2c1.1,3.4,0.7,7.2-1.3,11.4c-4,9-8.8,18.5-14.6,28.5c-5.8,10-11.2,20.2-16.3,30.7
			c4.2-5.4,9.5-11.6,15.9-18.8s12.8-13.6,19.2-19.2c5.1-4.5,11.3-9.4,18.8-14.6c7.5-5.2,15-9.9,22.6-14c7.6-4.1,14.8-7.3,21.6-9.5
			c6.8-2.3,11.8-2.8,15.2-1.7c-8.5,15.2-16.2,29.7-23.3,43.6c-3.1,5.9-6.1,12-8.9,18.2c-2.8,6.2-5.5,12.2-8,18
			c-2.5,5.8-4.7,11.2-6.6,16.3c-1.8,5.1-3.2,9.4-4,13.1c-1.4,8.7-1.3,14.5,0.4,17.1c1.7,2.7,3.9,4,6.8,4c5.4,0,11-2.9,16.9-8.7
			c5.9-5.8,11.6-12.6,16.9-20.5c5.4-7.9,10.2-16,14.4-24.3c4.2-8.3,7.5-14.9,9.7-19.7c1.7-3.7,3.6-5,5.7-4
			C1351.4,386.4,1351.5,389,1349.5,393.2z M1334.7,283.2c-2.3,3.4-5,6.8-8.2,10.4c-3.2,3.5-7,6.7-11.2,9.5c-4.2,2.8-9,5.1-14.2,6.8
			c-5.2,1.7-10.8,2.4-16.7,2.1c-5.6-0.3-11.1-1.1-16.3-2.5c-5.2-1.4-10.4-2.9-15.4-4.4c-5.1-1.5-10.2-3-15.2-4.2s-10.1-2-15.2-2.3
			c-6.5-0.6-11.9,0.4-16.3,2.7c-4.4,2.4-7.8,5.3-10.4,8.7c-0.3,0.6-1.1,0.9-2.5,1.1c-1.4,0.1-2.8,0.1-4.2,0
			c-1.4-0.1-2.7-0.4-3.8-0.6c-1.1-0.3-1.7-0.7-1.7-1.3c4.8-6.2,11.5-12.3,20.1-18.4c8.6-6.1,18.8-8.8,30.7-8.2
			c5.4,0.3,10.6,1,15.9,2.1c5.2,1.1,10.4,2.5,15.6,4c5.2,1.6,10.3,3,15.2,4.2c4.9,1.3,9.9,2,15,2.3c7,0.6,12.8-0.4,17.3-2.7
			c4.5-2.4,8.3-5.6,11.4-9.5c0-0.3,0.6-0.5,1.9-0.6c1.3-0.1,2.5-0.2,3.8-0.2c1.3,0,2.4,0.1,3.4,0.4
			C1334.6,282.7,1335,283,1334.7,283.2z"/>
		<path fill="#F8F7F3" d="M1532.2,393.6c-3.4,7.3-7.3,15.4-11.8,24.3c-4.5,8.9-9.6,17.3-15.2,25.2c-5.6,7.9-11.8,14.5-18.6,19.7
			c-6.8,5.2-14,7.8-21.6,7.8c-4.8,0-9-1.2-12.7-3.6c-3.7-2.4-6.4-5.9-8.2-10.6c-1.8-4.7-2.7-10.4-2.7-17.1c0-6.8,1.4-14.4,4.2-22.8
			c-3.7,6.5-7.7,12.9-12.1,19.2c-4.4,6.3-9,12.1-14,17.3c-4.9,5.2-10.1,9.4-15.4,12.7c-5.4,3.2-10.6,4.9-15.6,4.9
			c-2.3,0-4.7-0.2-7.4-0.6c-2.7-0.4-5.3-1.3-7.8-2.7c-2.5-1.4-4.9-3.4-7-5.9c-2.1-2.5-3.6-5.8-4.4-9.7c-0.8-4.5-1-8.9-0.4-13.1
			c0.6-4.2,1.6-8.4,3.2-12.5c1.5-4.1,3.4-8,5.5-11.8c2.1-3.8,4.2-7.7,6.1-11.6c-1.4,0-2.7-0.4-4-1.3c-1.3-0.8-1.2-2.7,0.2-5.5
			c1.4-2.3,2.7-4.7,3.8-7.2c1.1-2.5,2.4-5.1,3.8-7.6c4.2-8.2,8.5-16.3,12.7-24.5c4.2-8.2,7.9-15.5,11-22c1.7-3.4,3.9-5.7,6.6-7
			c2.7-1.3,6-1.9,9.9-1.9h25.8c-2.5,1.7-4.8,3.5-6.8,5.3c-2,1.8-4,4-6.1,6.6c-2.1,2.5-4.3,5.6-6.6,9.3c-2.3,3.7-4.8,8.5-7.6,14.4
			c-4,7.3-7.5,14.4-10.6,21.1c-3.1,5.9-6.1,12-8.9,18.2c-2.8,6.2-5.2,11.3-7.2,15.2c-5.1,11-7.9,20.2-8.5,27.5
			c-0.6,7.3,0.5,12.5,3.2,15.4c2.7,3,6.7,3.4,12.1,1.3c5.4-2.1,11.4-7.1,18.2-15c5.9-6.8,11.8-14.8,17.6-24.1
			c5.8-9.3,11.3-19,16.7-29c5.4-10,10.5-19.9,15.4-29.8c4.9-9.9,9.4-19,13.3-27.5c1.7-3.4,3.9-5.7,6.6-7c2.7-1.3,6-1.9,9.9-1.9h22.8
			c-3.1,2.6-5.8,4.9-8,7c-2.3,2.1-4.4,4.7-6.6,7.6c-2.1,3-4.3,6.6-6.6,11c-2.3,4.4-4.9,9.8-8,16.3c-3.1,5.9-6.1,12.1-9.1,18.5
			c-3,6.4-5.8,12.6-8.5,18.7c-2.7,6.1-5,11.7-7,17c-2,5.2-3.2,9.7-3.8,13.4c-2,9.1-1.9,15.5,0.2,19.3c2.1,3.8,4.7,5.9,7.8,6.2
			c5.1,0,10.2-2.3,15.4-6.8c5.2-4.5,10.2-10.2,15-17.1c4.8-6.9,9.4-14.5,13.7-22.8c4.4-8.3,8.4-16.3,12.1-23.9c1.7-3.7,3.6-5,5.7-4
			C1534.1,386.8,1534.2,389.4,1532.2,393.6z"/>
	</g>
</g>
</svg>
