<?xml version="1.0" encoding="utf-8"?>
<!-- Generator: Adobe Illustrator 18.0.0, SVG Export Plug-In . SVG Version: 6.00 Build 0)  -->
<!DOCTYPE svg PUBLIC "-//W3C//DTD SVG 1.1//EN" "http://www.w3.org/Graphics/SVG/1.1/DTD/svg11.dtd">
<svg version="1.1" id="Layer_1" xmlns="http://www.w3.org/2000/svg" xmlns:xlink="http://www.w3.org/1999/xlink" x="0px" y="0px"
	 viewBox="0 0 1780 1500" enable-background="new 0 0 1780 1500" xml:space="preserve">
<g>
	<path d="M1616.8,139C1500.6,16.7,1316-18.9,1164.5,67.8c-191.9,109.7-256.6,295.3-275,392.6
		c-18.3-97.4-83.1-282.9-275-392.6C463-18.9,278.4,16.7,162.3,139C73.9,231.8-6,369.9,1.5,503.2C13.3,715.3,114.7,838.8,303,961.5
		c374.8,244.1,516.4,411.6,565.7,484.6c5.2,9.3,9,15,9.5,15.9l11.3,17l11.3-17c0.6-0.9,4.6-6.9,10.1-16.9
		c49.9-73.5,192-240.6,565-483.6c188.4-122.7,289.7-246.2,301.5-458.3C1785,369.9,1705.1,231.8,1616.8,139z M1398.9,570.3
		c11.7,4,22.4,12.8,28.4,23.6c21.6,36-11.3,71.2-45.9,50.1c-6.8-4.2-12.6-9.3-17.4-15.5c0,0-0.3,0.5-0.7,1.5
		c-5.6,21.8,7.6,43.7,29.7,51.6c15.7,5,30.3,3.6,43.9-4.2c14-7.7,25.6-22.4,29.4-41.5c0.8-4.7,1.2-9.5,1-15.3
		c0.2-1.4-0.2-2.3-0.2-3.2c22.2,39.7,10.9,86.1-31.5,99.3c1.5,1.5,3.3,2.6,5,4c-9.6-0.9-19.2-1.1-28.7-0.3
		c-63.2,2.4-128.5,30.3-180.8,65.2c-7.9,5.1-14.9,11.1-22.4,16.7c-11.8,8.2-21.9,18.7-32.1,28.9c-4.3-3.1-8.3-6.5-12.3-9.9
		c3.4-2.2,6.7-4.4,10.2-6.7c87.5-57.1,136.6-130.6,142.4-212.9C1334.4,577,1361.8,559.8,1398.9,570.3z M1489.1,823.8
		c1.9,39.3-48.6,51.7-48.6,51.7c-72.8,18.5-146.9,5.8-217-17.8c-5.1-2-10.2-4.3-15.3-6.6c1.5-1.9,3.1-3.7,5-5.4
		C1284.3,763.7,1484.1,723.1,1489.1,823.8z M705.8,993.6c23.6-19.7,48.2-20.4,73.7-2.2c33.1,24.8,27.1,82,9.7,113.4
		c-0.2,0.2-18.7,50.9-118,57c5.1-29,8-58.4,8.7-87.8c0.3,0.2,0.4,0.6,0.7,0.9c13.4,10.7,28.9,12.7,40,10.7
		c11.5-2,20.2-7.4,26.3-16.2c0.7-1.2,1-1.9,1-1.9C702,1075.8,674.8,1028,705.8,993.6z M738,939.6c-33.8,0.9-56.4,14-67.9,39.4
		c-11.7-44-28.6-85.5-56.7-120.8c8.8-6.6,17.6-13.3,26.3-20.1c63.6,43.3,110.4,80.7,144.6,111.6C770.9,942.6,755.3,938.8,738,939.6z
		 M570.1,802c-7.5-5.6-14.5-11.6-22.4-16.7c-52.3-34.9-117.6-62.7-180.7-65.2c-9.4-0.7-19.1-0.6-28.7,0.3c1.6-1.4,3.5-2.5,5-4
		c-42.4-13.2-53.6-59.6-31.5-99.3c0,0.9-0.3,1.9-0.2,3.2c-0.1,5.8,0.2,10.6,1,15.3c3.8,19.1,15.4,33.8,29.4,41.5
		c13.6,7.8,28.2,9.2,43.9,4.2c22.1-7.9,35.3-29.8,29.6-51.6c-0.3-1.1-0.6-1.5-0.6-1.5c-4.9,6.2-10.7,11.4-17.5,15.5
		c-34.6,21.1-67.4-14.1-45.8-50.1c6-10.8,16.7-19.6,28.4-23.6c41-11.5,65.1,7.3,82.2,35.7c7.2,80.6,56.2,152.7,142.5,208.7
		c3.3,2.1,6.4,4.2,9.7,6.4c-4,3.4-8,6.7-12.2,9.8C592,820.7,582,810.3,570.1,802z M570.8,851.1c-5.1,2.3-10.2,4.6-15.3,6.6
		c-70.1,23.6-144.3,36.3-217,17.8c0,0-50.5-12.4-48.5-51.7c4.9-100.7,204.8-60.1,275.9,21.9C567.7,847.4,569.3,849.2,570.8,851.1z
		 M930.7,1189.4c2.6,14,4.3,28.6,4.3,43.6c0,65.7-29,123.3-45.4,150.6c-16.5-27.3-45.5-84.7-45.6-150.6c0-7.9,0.5-15.6,1.2-23.3
		c0.1-0.8,0.2-1.7,0.3-2.4c0.5-4.6,1.3-9,2-13.4c1.1-6.4,2.4-12.7,3.8-18.8c0.8-3.5,1.5-7,2.5-10.4c0.1-0.5,0.2-1,0.3-1.4
		c10-35.1,25-63.8,35.2-80.8c12.1,20,30.8,56.3,40,100C929.9,1184.8,930.3,1187.1,930.7,1189.4z M888.9,529.6c0.2,0,0.5,0,0.7,0
		c5.7,0.2,11.2-2.6,14.2-7.4c48.7-77.4,115.5-119.9,188.2-119.9c49,0,96.8,20.6,131,56.4c35.2,36.9,53.1,86.6,50.4,140
		c-3.5,71.4-46.6,135.9-124.5,186.7c-167.1,108.9-234,185.7-259.3,222.6c-25.3-36.8-92.3-113.7-259.5-222.6
		c-77.9-50.7-121-115.3-124.4-186.7c-2.6-53.4,15.3-103.1,50.4-140c34.2-35.8,81.9-56.4,131-56.4c72.7,0,139.5,42.6,188.2,119.9
		C878.2,526.7,883.3,529.6,888.9,529.6z M999.5,991.4c25.5-18.2,50.1-17.5,73.7,2.2c31.1,34.4,3.9,82.2-42.1,74c0,0,0.3,0.6,1,1.9
		c6,8.8,14.8,14.2,26.2,16.2c11.1,1.9,26.6,0,40-10.7c0.4-0.3,0.5-0.7,0.7-0.9c0.7,29.5,3.6,58.8,8.7,87.8
		c-99.3-6.1-117.8-56.8-118-57C972.3,1073.4,966.4,1016.2,999.5,991.4z M1041,939.6c-16.8-0.8-32.1,2.8-45.3,9.5
		c34-30.9,80.5-68.1,143.5-111.1c8.7,6.8,17.5,13.5,26.3,20.2c-28,35.3-45,76.9-56.7,120.8C1097.4,953.6,1074.7,940.5,1041,939.6z
		 M84.3,571.5c-2.5,1.4-5.1,3.2-7.6,5.2c-3,2.3-5.6,4.7-8,7.3c-1.3,1.4-2.5,2.6-3.4,3.7c-0.2,0.3-0.6,0.6-0.8,1
		c-1.4,1.7-2.1,2.9-1.7,2.9c-3.7,5.8-6.4,11.9-8,18.5C44.1,575.1,37.1,539,35.2,502.1c-4.8-98.1,26.3-183.9,79.9-258.1
		c-10.9,36.3-13.9,73.7-9,112.1c8.3,101.4,104.7,200.4,211.5,187.9c7.1-0.7,14.2-0.5,21.1-2c28.1-4.1,54.3-15.6,77.7-30.9
		c52.6-33.4,78.9-81.3,78.8-143.7c-0.8-24.6-10.1-58.6-35-82.5c-23.4-22.4-60.6-29.4-90.8-18.5c-15.3,5.5-29.2,19.5-38.2,34.6
		c-13.2,23.1-16.4,52.2,0.3,75.2c4.6,6.5,13,14,21.9,17.4c6.9,2.9,41.1,10.2,32.7,4.8c-84.2-53,44.8-138,68.6-43.6
		c2.8,43.1-14.1,91.9-55.4,117.8c-121.6,68.4-237.6-42.8-249.8-135.5C123.1,135.5,358.1,24,527.3,74.6
		c91.1,28.9,162.7,83.5,215,163.9c-9,54.1-61.6,108.2-121.9,78.2c-12.2-6.8-21.5-18.4-25.3-30.8c-13.8-41.9,33.3-70.6,66.1-40.9
		c5.2,4.3,8.8,9.4,11.4,13.4c2.3,4.1,3.7,6.7,3.7,6.7s0.9-0.3,1.2-1.5c14-46.6-33.2-75.4-69.1-65.7c-18,4.8-35.3,17.2-44.9,36
		c-2.5,4.6-4.1,9.4-5.7,15.4c-0.5,1.5-0.6,2.5-0.8,3.4c-13.5-45.9,12.7-90.9,64.1-94.7c-22.8-32.7-77.6-53.7-99.2-8.7
		c-5.5-61.3-95.6-78.8-89-11c-61.3-102.7-227,40.5-145.1,108.8c-31.9-50.2,41.8-75.3,79.5-71.3c52.1,5.5,83.5,37.5,117.8,70.6
		c37.8,36.5,46.7,75.9,101.6,98.8c75.5,29.9,136.6,7.4,183.1-67.4c22.7,33.6,56,88.4,72.4,148.3c-47.2-43-102.5-65.9-161.4-65.8
		c-59.5,0-117.3,24.9-158.6,68.4c-35.8,37.7-56.5,86.2-60.3,138.9c-8.5-9.5-18.5-17.5-30.3-23c-8.5-3.9-30.1-15.3-73.2-6.1
		c-51.5,10.7-68.4,45.2-108.7,71.7c-36.5,23.9-70.4,47.3-115.6,42.6C101.6,648.7,45.6,611.7,84.3,571.5z M282.3,736.6
		c-5,2.3-7.7,5.1-11.7,7.6c-36.9,31.6-53.1,79.1-30.6,122.6c3.4,6,7.6,11.4,12.2,16.3c-65.3-52.5-116.1-110.3-152.4-172.2
		c24.3,15.7,54.3,17.3,80.8-11.8c-21.5,61.1,58.2,62.1,77.4,6.7c3,17.9,12.8,27.2,25.1,30.5L282.3,736.6z M283.8,907.3
		c49.3,25.3,128.8,23.5,197.8,9.3c-1,1.8-2.3,3.5-3.3,5.3c-5.8,10.5-9.7,21.7-11.8,32.9c-7.6,39.4,4.1,78.6,28.6,104.4
		C439.3,1017,295.9,916,283.8,907.3z M516,908.3c24.3-6.9,80.8-34.2,80.8-34.2l16.8,22.9c18.1,24.9,29.1,54.3,35.6,84.3
		c-2-4.1-4.4-8-7.2-11.5c-11.2-14.3-28.6-23.8-46.4-25.5c-17.1-1.6-32.2,2.7-44.8,13c-9.8,8.6-15.7,21.2-15.8,33.8
		c-0.1,10.9,3.5,19.8,10.7,26.8l10.8,7.3l2.4-9.4c5.1-14,12.1-29.3,32.6-27.7c28.7,2.4,24.8,41.3,8.4,54.7
		c-15.5,14.4-47.2,8.8-63,0.9C475.8,1013.7,487.6,944.4,516,908.3z M647.8,1159.7c-20.7-3-68.5-37-126.4-80.6
		c15.6,8.3,32.6,13.1,49.7,13.6c18.9,0.7,40.7-4.6,55.7-16.9c15.5-11.9,25.9-29.8,29.1-49.1C661.5,1097.3,647.8,1159.7,647.8,1159.7
		z M666.1,1186.1c0,0,117.9,13.4,163.4-93.4c8.7-20.4,10-43.8,6.5-66.6c-2-14.3-6.9-28-14.1-40.1c29.2,30.4,42.9,51.1,48.5,60.8
		c-17,29.6-55.9,107.7-55.9,201.1c0,38,6.5,73.3,15.2,104C759,1277.3,663.8,1184.1,666.1,1186.1z M949.4,1351.8
		c8.8-30.7,15.2-66,15.2-103.9c0-92.9-38.5-170.5-55.6-200.6c5.3-9.4,18.6-29.7,47.3-59.9c-6.7,11.7-11.4,25-13.3,38.7
		c-3.4,22.7-2.2,46.2,6.5,66.6c45.6,106.8,163.4,93.4,163.4,93.4C1115.2,1184.1,1020.2,1277.2,949.4,1351.8z M1131.2,1159.7
		c0,0-13.7-62.4-8-133c3.1,19.3,13.5,37.2,29.1,49.1c14.9,12.3,36.7,17.6,55.7,16.9c17-0.5,34.1-5.2,49.6-13.6
		C1199.8,1122.6,1151.9,1156.7,1131.2,1159.7z M1241.9,1043.7c-15.7,7.9-47.4,13.5-62.9-0.9c-16.3-13.4-20.3-52.4,8.4-54.7
		c20.5-1.6,27.5,13.7,32.6,27.7l2.4,9.4l10.8-7.3c7.2-7,10.7-15.9,10.7-26.8c-0.2-12.6-6-25.2-15.8-33.8
		c-12.5-10.4-27.6-14.6-44.8-13c-17.8,1.6-35.1,11.1-46.4,25.5c-2.8,3.5-5.1,7.4-7.1,11.5c6.4-30,17.4-59.4,35.5-84.3l16.9-22.9
		c0,0,56.6,27.3,80.9,34.2C1291.4,944.4,1303.2,1013.7,1241.9,1043.7z M1284,1059.3c24.5-25.8,36.1-65,28.5-104.4
		c-2.1-11.3-6.1-22.4-11.8-32.9c-1-1.8-2.2-3.6-3.3-5.3c69.1,14.3,148.5,16,197.9-9.3C1483.2,916,1339.7,1017,1284,1059.3z
		 M1526.8,883.1c4.5-5,8.8-10.3,12.2-16.3c22.5-43.5,6.3-91-30.6-122.6c-3.9-2.5-6.7-5.3-11.7-7.6l-0.7-0.3
		c12.3-3.4,22.1-12.6,25.1-30.5c19.2,55.4,98.8,54.4,77.4-6.7c26.5,29,56.5,27.5,80.8,11.8C1642.9,772.8,1592.2,830.6,1526.8,883.1z
		 M1743.8,502.1c-1.8,37-8.8,73-19.7,108.1c-1.5-6.6-4.3-12.7-8-18.5c0.4,0-0.3-1.2-1.7-2.9c-0.2-0.3-0.5-0.6-0.8-1
		c-1-1.1-2.1-2.4-3.4-3.7c-2.4-2.6-5-5-8-7.3c-2.5-2-5.1-3.9-7.5-5.2c38.7,40.2-17.3,77.2-50,80.7c-45.2,4.8-79.1-18.6-115.6-42.6
		c-40.4-26.5-57.2-60.9-108.7-71.7c-43.1-9.1-64.6,2.2-73.1,6.1c-11.9,5.5-21.9,13.5-30.3,22.9c-3.8-52.9-24.6-101.6-60.7-139.3
		c-41.3-43.3-99.2-68.2-158.6-68.1c-58.9,0-114,22.9-161,65.7c16.4-59.7,49.6-114.3,72.2-147.8c46.6,74.8,107.6,97.2,183.1,67.4
		c55-22.9,63.9-62.2,101.7-98.8c34.3-33.1,65.7-65,117.8-70.6c37.7-3.9,111.5,21.2,79.5,71.3c81.9-68.3-83.8-211.5-145.1-108.8
		c6.5-67.7-83.5-50.3-89,11c-21.6-45-76.4-24-99.2,8.7c51.4,3.8,77.6,48.8,64.1,94.7c-0.2-0.9-0.3-1.9-0.8-3.4
		c-1.6-6-3.2-10.9-5.7-15.4c-9.7-18.8-27-31.2-44.9-36c-35.9-9.7-83.1,19.1-69.1,65.7c0.4,1.2,1.3,1.5,1.3,1.5s1.4-2.5,3.7-6.7
		c2.5-4,6.1-9,11.3-13.4c32.8-29.6,80-1,66.1,40.9c-3.7,12.4-13,24-25.2,30.8c-60.2,30-112.8-24.1-121.8-78.2
		c52.2-80.3,123.9-135,214.9-163.9c169.2-50.6,380.1,53.3,380.1,256.8c0,102.5-113.4,209.8-235,141.4c-34.3-26.6-61.1-70-58.4-113.1
		c23.8-94.6,138.8-14.2,54.6,38.8c-8.4,5.3,25.8-1.9,32.7-4.8c8.8-3.4,17.3-10.9,21.9-17.4c16.7-23,13.5-52.2,0.3-75.2
		c-9-15.1-22.9-29-38.2-34.6c-30.2-10.9-67.4-4-90.8,18.5c-24.9,23.9-34.2,57.9-35,82.5c-0.2,62.4,26,110.3,78.7,143.7
		c23.5,15.2,49.7,26.8,77.8,30.9c6.9,1.5,14.1,1.3,21.1,2c106.9,12.5,203.3-86.5,211.5-187.9c4.9-38.4,1.9-75.7-9-112.1
		C1717.4,318.2,1748.6,404,1743.8,502.1z"/>
</g>
</svg>
