<?xml version="1.0" encoding="utf-8"?>
<!-- Generator: Adobe Illustrator 18.0.0, SVG Export Plug-In . SVG Version: 6.00 Build 0)  -->
<!DOCTYPE svg PUBLIC "-//W3C//DTD SVG 1.1//EN" "http://www.w3.org/Graphics/SVG/1.1/DTD/svg11.dtd">
<svg version="1.1" id="Layer_1" xmlns="http://www.w3.org/2000/svg" xmlns:xlink="http://www.w3.org/1999/xlink" x="0px" y="0px"
	 viewBox="0 0 343 112" enable-background="new 0 0 343 112" xml:space="preserve">
<g>
	<path fill="#D81B60" d="M119.8,80.5c1-2.3-1.6-0.7-2.2,0.4c-1.5,3.1-3,6.2-4.8,9.1c-2.3,3.5-9.7,11.1-13.2,4.3
		c11.6-10.8,11.4-23.4,7.3-37.6c-2.6-9-13.3-27.2-3.8-35.1c5-4.2,13.4,1.7,18.6,2.6c7.2,1.2,13.2-2.5,17.4-8.2
		c-0.4-0.3-0.8-0.5-1.4-0.5c-2-0.2-1.7,0.5-3.3,1.9c-3.1,2.7-7.5,2.5-11.2,1.4c-7.1-2-15.7-5.8-22.6-0.9c-7,4.9-4.7,15.6-2.3,22.3
		c2.9,8.2,6.3,16.2,8.1,24.7c-12.8-6.8-32.1,23-21.9,32.5c2.3,2.2,6.2,2,9,0.8c2.4-1,3.2-3,5.4-1.5c1.6,1.1,3.4,1.5,5.3,1.5
		C112.5,98.4,117,86.9,119.8,80.5C120.1,79.8,119.4,81.4,119.8,80.5z M95.8,86.5c-1.5,2.5-0.8,5.6,0.8,7.9c-1.8,1.5-5.7,4.1-8,1.8
		c-4.3-4.2,2.2-15.8,4.4-19.4c1.7-2.8,11.1-14.6,14.1-7.4c2.5,6.1-2.5,15.1-5.8,19.9C102.3,86.1,97.7,83.3,95.8,86.5
		C95.3,87.4,96.3,85.6,95.8,86.5z"/>
	<path fill="#D81B60" d="M129.4,54.3c-4.3,3.7,0.6,9.5,4.9,5.8C138.6,56.4,133.6,50.6,129.4,54.3C128.4,55.1,130.3,53.5,129.4,54.3z
		"/>
	<path fill="#D81B60" d="M181.7,80.6c0.5-0.7,0.5-1.3-0.1-1.9c-1.1-0.5-6.5,10.6-7.4,12c-1.5,2.1-8.5,9.5-9.4,3.1
		c-0.7-5,2.8-10.7,4.8-15c1.2-2.6,5.1-13.9,9.1-13.9c-3.4,0-6.8,0.1-10.1-0.1c-7.4-0.4-9.7,11.2-12.1,16.4
		c-2.4,5.1-5.9,13.8-12.3,14.8c-2.5,0.4-7-1.4-5.3-4.8c1.1-2.4-0.1-6.6-3.1-3.7c0.5-1,4.8-8,3.4-8.8c-0.3-0.2-9.8,17.2-14.1,18
		c-6.8,1.3-2.3-8.7-1-11.6c2.1-4.9,4.2-9.7,6.3-14.6c2.6-6-1.9-5.1-6.9-5c3.5,4.6-3.2,14.8-5,19.4c-1.5,3.9-3.1,9.5,0.7,12.8
		c5.9,5.2,12.7-3.6,15.4-7.9c-1.2,4.1,2.9,8.2,6.6,8.9c5.6,1.1,9.1-2.4,12-6.7c3.3-4.9,5.4-10.4,7.6-15.7c1.7-4.1,3.7-10.1,8.9-10.1
		c-2.9,4.4-4.8,10.3-6.8,15.2c-1.7,4.4-4.6,11.2-1.2,15.6C169.1,106.6,179.6,85.1,181.7,80.6C182.1,79.6,180.9,82.3,181.7,80.6z"/>
	<path fill="#D81B60" d="M212.1,78.7c-0.1-0.1-13.1,18.3-14.2,5.5c-0.2-2.2-1.8-5.6-4.4-5.6c-6.6,0-1.6,7.4,0.9,9
		c2.5,1.6-14,17.8-10.7,3.5c1.2-5.1,4.2-9.8,6.7-14.3c1.9-3.4,4.4-9.1,7.9-11.1c-3.6,0.7-6.3-1.6-9,2.1c-2.6,3.6-4.5,7.9-6.5,11.8
		c-2.7,5.4-9.5,16.2-0.3,19.4c3.3,1.1,6.5-0.2,9-2.3c1.8-1.5,5.1-7.8,6.6-7.4c3,0.9,6.3,0.7,8.9-1.3C208,87.2,214.3,79.8,212.1,78.7
		C211.5,78.4,212.6,79,212.1,78.7z"/>
	<path fill="#D81B60" d="M248.6,103.1c-2.3-0.7-3,1.4-4.8,2.4c-3.3,1.8-7.9,0.1-11.3-0.9c-7.6-2.2-14.3-1.8-19.5,4.9
		c0,2.4,5.5-1.9,5.3-1.9c3.2-1.8,7.8-0.1,11.1,0.9c3.7,1.1,7.6,2.4,11.4,1.1C242,109.2,249.7,103.4,248.6,103.1
		C248.4,103,248.8,103.2,248.6,103.1z"/>
	<path fill="#D81B60" d="M268.4,78.9c-1.1-0.5-6.5,10.6-7.4,12c-1.5,2.1-8.5,9.5-9.4,3.1c-0.7-5,2.8-10.7,4.8-15
		c1.2-2.6,5.1-13.9,9.1-13.9c-4.8,0-7.9-1-10.3,3.9c-4.1,8.5-8.3,18.9-15.3,25.5c-7.5,7-6.2-4.7-4.4-9c1.4-3.4,6.9-20.4,11.9-20.4
		c-4.8,0-7.9-1-10.3,3.8c-4.2,8.6-8.4,18.9-15.5,25.6c-2.9,2.8-6.8,3-6.4-2c0.3-3.6,2.2-6.9,3.7-10.1c1.5-3.2,6.3-17.3,11-17.3
		c-2.3,0-7.5-0.9-9.3,0.8c-1.9,1.9-3.1,5.7-4.3,8c-0.6,1.1-5.5,8.9-2.9,8.9c-2.1,4.2-6.7,12-0.7,15.3c7.4,4.2,14.2-6.8,17.1-12
		c-1.4,4.3-2,12.8,4.6,12.8c6,0,11-8.1,13.5-12.8c-1.9,5.7-0.4,16.2,8.1,12C258.5,96.8,271.5,80.3,268.4,78.9
		C267.9,78.6,268.9,79.1,268.4,78.9z"/>
	<path fill="#D81B60" d="M295.4,78.9c-1.8,0-3.3,5.1-3.9,6.3c-1.6,3.3-3.8,6.4-6.5,8.9c-5.6,5-13,4.3-12.4-4.4
		c0.3-3.8,0.4-5.6,4-6.3c2.9-0.6,5.8-1.6,8.4-3.2c4.2-2.5,13.9-13.6,5-16.4c-12.9-4-26.4,20.1-22.2,30.3c2.5,6.1,11,6.5,16,3.5
		c3.4-2.1,5.9-5.2,7.8-8.7C292,88,296.6,78.9,295.4,78.9z M277,77.7c1-1.7,14.3-17.4,13.7-9.6c-0.5,7.1-9.2,13.7-16.1,13.7
		C275.4,80.5,276.2,79.1,277,77.7C278.1,75.8,275.9,79.6,277,77.7z"/>
	<path fill="#D81B60" d="M307.7,92.2c-4.9,0-7.1,8.2-1.4,8.2C311.2,100.4,313.4,92.2,307.7,92.2z"/>
	<path fill="#D81B60" d="M339.8,40.6c-1.8-13.3-27.9-4.3-28.2,6.5c-0.2,7.1,10,6.7,11.5,0.7c1.7-6.9-8.4-5.6-9.7-0.6
		c-1.5-9,22.6-13.3,18.9-0.7c-1.4,4.9-6,9.1-9.2,12.9c-4.1,4.8-7.9,9.8-11,15.4c-1,1.8-1.9,3.7-2.6,5.7c-1.1,3.5,0.8,3.8,2.2,0.6
		c2.1-5.1,5.4-9.5,9.1-13.6C327,60.7,341.2,51.2,339.8,40.6C339.6,38.9,340,42.3,339.8,40.6z"/>
</g>
<g>
	<path fill="#5D4037" d="M97.3,23.8c2,0.5,3.3-1.7,6-1.1c4.2,1.1,8.1,2.3,11-2c-0.8,0.8-4.7,1.5-6.1,1.1c-2.3-0.6-4.8-1.6-7.2-1
		C100.5,20.9,96.6,23.6,97.3,23.8C97.4,23.8,97.1,23.7,97.3,23.8z"/>
	<path fill="#5D4037" d="M127.7,32.4c-1.2,0-6.7,13.9-10.4,8.1c-3.1-4.9,1.6-5.6,4.6-7.1c2.4-1.2,8.2-8.4,2.2-8.4
		c-7.2,0-8.9,9.6-12.5,14c-1.5,1.8-4.3,3.2-3.7-0.3c1-4.3,3.6-8.5,5.8-12.4c-4.2-1.4-10.7,6.1-12.9,8.8c0.5-0.9,6.4-10.9,1.3-8.6
		c-3.7,1.7-7,5.5-9.5,8.6c1.2-2.6,3.1-7.6,5.8-9c-3.9,0.7-4.4,0.8-6.4,4.7c-1.5,2.9-2.7,6.2-5,8.5c-3.2,3.1-7.2,2.2-6.2-2.8
		c0.6-2.9,6.2-3,8.4-5.8c4.1-5.1-1.7-6.9-5.5-3.9c-3.2,2.5-4.3,6.1-6.2,9.5c-2.1,3.6-6.8,6.6-4.1-0.2c0.6-1.4,4.8-7.6,3.7-9.4
		c-2.2,0.2-4.4,0.4-6.6,0.2c1.6-1.1,4.5-4.8,1.6-6.3c-2.2-1.1-3.2,6.8-3.6,8c-1,2.9-4.9,14.6-9.7,12c-1.9-1,1.7-3.9,2.5-5.2
		c1.2-2.1,2.1-4.8,1.5-7.3c-1.3-6.4-8.7-0.5-10.6,2.2c-2.9,4.1-4.3,9.8-9,12.4c-7,3.8-6.6-9.3-6.6-12.7c-0.1-5.5-0.4-7.2,4.2-10.4
		c3.1-2.1,6.2-4.2,9.3-6.3c2.9-2,5.9-3.9,8.7-6.1c0.4-0.3,5.1-4.8,3.8-4.9C59.3,2,53.5,8.8,51,10.6c-4.8,3.4-9.7,6.6-14.6,9.9
		c0-4.6,1.2-15.4-5.7-15.9c-5.5-0.4-13,4-16.4,8.3c-2,2.8,2.3,0,2.5-0.2c2.5-2.6,5.2-4.8,8.8-5.6c7.2-1.5,7.3,6.5,7.4,11.5
		c0.1,5.3-1.8,5.7-5.9,8.9c-3.3,2.5-6.5,5.2-9.6,8C13.8,38.8,3.7,46.6,3.3,52C3.1,55,8,48.3,8,48.3c2.1-3.1,4.6-5.9,7.2-8.5
		c5.4-5.5,11.5-10.4,17.8-14.9C32.9,30.1,31,40,34.6,44.5c4.9,6.1,12.5-4.1,14.7-7.8c-0.2,1.8,0,4.4,2,5.1c1.1,0.3,2.2,0.3,3.4-0.2
		c3.7-1.5,1.5,0,5.1,0c4.7,0,7-7.2,8.5-10.9c1-2.4,1.2-3.6,4.2-2.2c2.1,0.9-1.2,4.8-1.7,5.8c-1,1.9-2.7,6.6,0.6,7.5
		c3,0.9,5.3-3.1,6.5-5.1c-0.6,5.8,6,6.8,9.5,3.4c-1.4,2.9-1.4,2,0.6,1.8c2.3,0,2.8-2.6,3.8-4.3c0.7-1.2,8.1-8.7,8.1-7.8
		c0.1,1.2-6.4,12.1-2,12.1c0.6-2.7,6.6-13.2,10.3-12.3c0.5,0.1-3.3,8.3-3.2,9.7c0.6,7,7.8-0.3,9.1-2.5c-0.4,4.6,4.2,6.8,8,4.5
		C123.4,40.5,128.5,32.4,127.7,32.4z M118.8,31.8c0.4-0.8,5.9-7.7,6.6-5.2c0.9,3.6-4.5,7.2-7.7,7.2
		C118.1,33.1,118.5,32.4,118.8,31.8C119.4,30.9,118.3,32.7,118.8,31.8z M82.7,31.8c0.4-0.8,5.9-7.7,6.6-5.2c0.9,3.6-4.5,7.2-7.7,7.2
		C81.9,33.1,82.3,32.4,82.7,31.8C83.2,30.9,82.2,32.7,82.7,31.8z M55.9,35.9c-1,1.8,1.6,6.3-2.9,5c-3.1-0.9,0.4-7.6,1.3-9.2
		c0.8-1.4,5.5-7.6,7-4c1.2,2.9-1.2,7.2-2.8,9.6C59,35.8,56.9,34.3,55.9,35.9z"/>
	<path fill="#5D4037" d="M240.5,23.8c2,0.5,3.3-1.7,6-1.1c4.2,1.1,8.1,2.3,11-2c-0.8,0.8-4.7,1.5-6.1,1.1c-2.3-0.6-4.8-1.6-7.2-1
		C243.7,20.9,239.8,23.6,240.5,23.8C240.6,23.8,240.4,23.7,240.5,23.8z"/>
	<path fill="#5D4037" d="M276.3,32.3c0.7,0.3-8,12.5-8.1,6.9c-0.1-5.6,5.1-9.6,6.7-14.2c-6.8-1-8.2,11.4-12.7,15.1
		c-4.8,4-0.5-7.1,0.1-8.2c1-2.3,3.7-4.8,4.3-6.9c-6.1-0.9-7.4,7.1-9.9,11.4c-0.4,0.7-5.5,7.4-5.6,3.5c-0.1-4.5,3.8-9.8,5.9-13.6
		c-4.2-1.4-10.7,6.1-12.9,8.8c0.5-0.9,6.4-10.9,1.3-8.6c-3.7,1.7-7,5.5-9.5,8.6c1.2-2.6,3.1-7.6,5.8-9c-3.9,0.7-4.4,0.8-6.4,4.7
		c-1.5,2.8-2.7,6-4.8,8.4c-4.4,5-3.4-2.3-2.3-4.7c1.4-3.1,4.2-6.4,5.3-9.5c-6.8-1-8.2,11.4-12.7,15.1c-4.8,4-0.5-7.1,0.1-8.2
		c1-2.3,3.7-4.8,4.3-6.9c-5.7-0.8-6.9,5.7-9,9.9c-0.7,1.4-7,9.3-5.6,3.5c0.5-2,5.7-9.6,4.5-11.7c-2.2,0.2-4.4,0.4-6.6,0.2
		c4.7-3.3,0.9-9.8-0.7-2.9c-1,4.3-2.6,8.5-4.8,12.3c-1.2,2-6,7.5-4.8,1.7c0.6-2.9,2.3-6.9,4.5-9c-2.1,0.4-3.1-0.8-4.5,1.5
		c-1.7,2.7-3,5.6-5,8.1c-2.5,2.9-5.5,2.4-4.1-1.7c1-2.8,2.6-5.3,4.6-7.5c1.3-1.4,4.7-4.9,6.9-2.7c2.2,2.3,1-1.2-1.4-1.7
		c-6-1.2-10.9,5.2-12.3,10.3c-0.9,1.9-2.3,4.5-4.3,5.4c-0.8,0.3-1.7,0.3-2.5-0.1c-2-1.1,0.8-2.7,1.6-3.8c3.6-5.3,2.6-10.8,0.6-16.6
		c-1.5-4.1-4.8-10.4-2.1-14.6c1.6-2.4,4.7-1.3,6.8-0.5c4.5,1.7,8.3,1,11.2-3c-0.4,0.4-4.5,1.7-5.6,1.7c-4.2-0.2-9.4-4-13.3-0.4
		c-5.4,4.9,2,16.9,3.2,22.3c-6.8-3.5-11,9.6-13.9,13.1c-0.8,1-1.8,2-3.2,2c-4,0-0.8-2.6,0.2-4.1c1.8-2.6,4.3-8,1.4-10.8
		c-5.2-4.9-11,7-12.9,10.3c-0.4,0.6-5.6,7.4-5.6,3.6c0-4.6,3.7-9.7,5.9-13.6c-4.3-1.3-10.7,6.1-12.9,8.8c1.2-2.6,3.1-7.6,5.8-9
		c-2.8,0.5-3.8-0.2-5.4,2.8c-2.4,4.4-4.4,9-6.6,13.4c0.8-0.5,1.9-0.2,2.8-0.4c1.2-0.3,2.1-3.2,2.6-4.2c1.2-1.9,5.3-8.8,8.3-8.1
		c0.5,0.1-3.3,8.3-3.2,9.7c0.6,6.9,7.7-0.2,9-2.5c-0.6,5.1,3.7,6.3,7.5,3.5c3.2,3.5,7-0.6,8.6-3.3c-0.5,5,3.8,6.2,7.5,3.4
		c2.9,3.2,6.6-0.1,8.2-2.7c-0.2,8.4,7.5,1.3,9.4-2c-1.4,4.9,2,8.3,5.7,3.9c1.6-1.8,2.8-4,3.8-6.2c0.4-0.8,1.5-5.3,2.3-5.6
		c7.3,0.2,1,5.7,0.2,9.6c-0.4,2,0.6,4.9,3.2,4.3c2.6-0.6,4.2-3.5,5.4-5.6c-0.7,1.7-1.2,4.2,0.7,5.2c3.6,2,6.8-3.3,8.2-5.8
		c-1.5,4.5,1.8,8.3,5.7,4.3c-1.4,2.9-1.4,2,0.6,1.8c2.3,0,2.8-2.6,3.8-4.3c0.7-1.2,8.1-8.7,8.1-7.8c0.1,1.2-6.4,12.1-2,12.1
		c0.6-2.7,6.6-13.2,10.3-12.3c0.5,0.1-3.3,8.3-3.2,9.7c0.6,7.2,8-0.6,9.2-2.8c-0.7,1.6-1,4,0.8,5c3.6,2,6.8-3.3,8.2-5.8
		C261.5,50.7,279.9,34,276.3,32.3z M160.9,35.9c-1,1.8,1.6,6.3-2.9,5c-3.1-0.9,0.4-7.6,1.3-9.2c0.8-1.4,5.5-7.6,7-4
		c1.2,2.9-1.2,7.2-2.8,9.6C164,35.8,161.9,34.3,160.9,35.9z M177.1,36c-1,1.8,1.6,6.3-2.9,5c-3.1-0.9,0.4-7.6,1.3-9.2
		c0.8-1.4,5.5-7.6,7-4c1.2,2.9-1.2,7.2-2.8,9.6C180.2,35.9,178,34.4,177.1,36C176.8,36.4,177.3,35.6,177.1,36z"/>
</g>
</svg>
