<?xml version="1.0" encoding="utf-8"?>
<!-- Generator: Adobe Illustrator 18.0.0, SVG Export Plug-In . SVG Version: 6.00 Build 0)  -->
<!DOCTYPE svg PUBLIC "-//W3C//DTD SVG 1.1//EN" "http://www.w3.org/Graphics/SVG/1.1/DTD/svg11.dtd">
<svg version="1.1" id="Layer_1" xmlns="http://www.w3.org/2000/svg" xmlns:xlink="http://www.w3.org/1999/xlink" x="0px" y="0px"
	 viewBox="0 0 90 90" enable-background="new 0 0 90 90" xml:space="preserve">
<g>
	<path fill="#D81B60" d="M56,63.2c-3.5,0.7-6.8,1.7-10.2,2.1c-7.7,0.9-15.2,0.4-22.6-2.1c-3.8-1.3-7-3.6-9.6-6.6
		c-3.3-3.9-4.1-8.5-2.7-13.4c1.5-5.4,4.2-10,8.1-14.1c2.9-3,6-5.8,9.5-8c4.1-2.6,8.6-4.1,13.4-4.5c3.7-0.3,7.4-0.4,11.1-0.5
		c1.2,0,2.4,0.1,3.5,0.4c4.1,0.9,8.1,2.2,11.9,3.9c3.4,1.5,6.3,3.8,8.7,6.8c1.5,1.9,2.4,4.2,2.6,6.6c0.6,6.9-0.4,13.5-4.9,19.1
		c-1.7,2.1-3.7,3.8-6,5.1c-0.8,0.4-1.1,0.9-1.2,1.8c-0.4,2.8-0.8,5.6-1.5,8.3c-1.4,5.2-4.6,9-9.4,11.6c-0.3,0.1-0.5,0.3-0.8,0.4
		c-1,0.3-1.5-0.1-1.3-1.1c0.3-1.3,0.8-2.5,1.1-3.7c0.3-1.2,0.6-2.5,0.9-3.8C57.3,68.5,56.9,65.8,56,63.2L56,63.2z M71.3,53.6
		c2.1-2.1,3.7-4.2,4.5-6.7c1.2-3.5,2-7.1,1.8-10.9c-0.2-2.8-0.7-5.6-2.5-7.9c-1.8-2.4-4.1-4.4-6.8-5.6c-5.9-2.7-11.9-5.2-18.7-4.9
		c-4.7,0.2-9.5,0.2-13.9,1.9c-9.6,3.6-16.6,10.2-21.3,19.3c-0.2,0.5-0.5,1-0.6,1.5c0,0.2,0.3,0.5,0.4,0.7c-1.2,1.1-1.8,2.5-1.8,4.3
		c1.7-1.9,3.3-3.7,4.8-5.5c0.1,0.1,0.2,0.2,0.3,0.3c-1.5,1.8-3,3.7-4.6,5.5c-1,1.1-1.2,1.7-0.6,3.3c1.1-1.3,2.1-2.6,3.1-3.9
		c0.1,0.1,0.2,0.1,0.3,0.2c-0.9,1.7-2.1,3.1-3.6,4.5c0.2,0.6,0.4,1.3,0.7,2.4c0.9-1.2,1.6-2.1,2.3-3c0.7-0.9,1.4-1.7,2.1-2.5
		c0.1,0.1,0.2,0.2,0.3,0.3c-1.5,1.9-2.9,3.9-4.4,5.9c0.3,0.5,0.6,1.1,1.1,1.9c1.2-1.5,2.3-2.9,3.4-4.3c0.1,0.1,0.2,0.2,0.4,0.3
		c-1.1,1.5-2.1,3-3.1,4.5c0.4,0.6,0.9,1.1,1.3,1.7c1.1-1.4,2-2.5,2.8-3.7c0.1,0.1,0.2,0.2,0.3,0.3c-0.9,1.3-1.7,2.6-2.6,3.9
		c0.5,0.4,1,0.7,1.5,1.1c0.8-1,1.5-1.9,2.2-2.8c0.1,0.1,0.2,0.2,0.3,0.2c-0.6,1-1.3,2-2,3.2c1.7,0.9,3.2,1.7,4.7,2.5
		c1.2-1.6,2.3-3,3.3-4.3c-0.2,1.8-1.6,3-2.5,4.6c1.8,0.4,3.4,0.9,4.8,1.2c1.3-1.5,2.3-2.8,3.3-4.1c0.1,0.1,0.2,0.2,0.4,0.3
		c-0.9,1.3-1.8,2.5-2.8,3.9c1.1,0.2,1.9,0.3,2.6,0.4c1.4-1.6,2.6-3,3.8-4.5c0.1,0.1,0.2,0.2,0.3,0.3c-1,1.4-2,2.7-3.2,4.3
		c1.2,0.1,2.1,0.2,2.8,0.2c1.3-2.2,3-4,4.6-5.8c0.1,0.1,0.2,0.2,0.3,0.2c-1.3,1.8-2.7,3.6-4.1,5.5c1.2,0,2.2,0,3.2,0
		c0.7-1.6,3.1-4.3,4.7-5.2c-1.5,1.9-2.7,3.5-4.2,5.3c1.3-0.1,2.2-0.2,3.1-0.3c1.4-2,2.8-3.8,4.5-5.4c0.1,0.1,0.2,0.2,0.3,0.3
		c-1.2,1.6-2.5,3.2-3.9,5c1.2-0.2,2.1-0.3,2.7-0.4c1.3-1.7,2.5-3.1,3.6-4.5c0.1,0.1,0.2,0.2,0.4,0.3c-1,1.3-1.9,2.5-3.1,4.1
		c2.4-0.7,4.9-0.4,6.1-2.9c-0.2,0.4-0.4,0.9-0.7,1.5c0.6-0.2,0.9-0.3,1.2-0.4c1.6-0.6,2-0.4,2.3,1.3c0.1,0.6,0.3,1.2,0.5,1.9
		c0.6-0.7,1.1-1.2,1.7-1.9c-1.4,3.2-1.4,3.2-1.1,4.1c0.6-0.7,1.1-1.4,1.7-2.2c0.2,0.8-0.2,1.4-0.6,2c-0.8,1.1-1.2,2.4-1.3,3.8
		c-0.2,2.5-0.8,4.9-1.8,7.2c-0.1,0.2,0,0.5,0,1.1c4-3.1,7-6.5,8-11.3c0.6-2.7,1-5.4,1.4-8.2c0.1-0.9,0.4-1.5,1.3-1.9
		c1.3-0.6,2.4-1.4,2.9-2.9c0.2-0.4,0.5-0.8,0.7-1.2c0-0.1,0.2-0.1,0.3-0.1C71.3,52.8,71.3,53,71.3,53.6L71.3,53.6z"/>
	<path fill="none" stroke="#D81B60" stroke-width="2" stroke-miterlimit="10" d="M34.8,37.9c-0.2-4.7,5.1-6.9,8.2-6.2
		c2.2,0.5,4.2,3.1,4.2,5.5c0,1.3-0.1,2.6-0.4,3.8c-0.8,3-1.7,6-2.6,9c-0.2,0.7-0.6,1.4-0.9,2.1c-0.4,0.9-1,1.4-2.1,1.2
		c-0.2-0.1-0.5,0-0.7,0.1c-3,1.1-6,1.3-9.2,0.9c-2.4-0.3-4.5-1.2-6.5-2.5c-3.9-2.7-4.2-7.6-0.6-10.7c2.7-2.3,5.9-3.6,9.6-3.1
		c0.2,0,0.4,0,0.5,0C34.6,38,34.7,38,34.8,37.9z"/>
	<path fill="none" stroke="#D81B60" stroke-width="2" stroke-miterlimit="10" d="M58.3,39.6c1.1-0.4,2.1-0.8,3.1-1
		c2-0.4,3.3,0.7,3.4,2.7c0.1,3.5-1.3,6.4-3.7,8.8c-0.8,0.8-1.9,0.8-3,0.6c-0.6-0.1-1.2-0.3-1.6-0.7c-1.6-1.3-3.3-2.7-4.8-4.1
		c-0.5-0.5-0.9-1.2-1.2-1.9c-0.8-2.1,0-4.1,2.1-4.9C54.6,38.2,56.6,38.5,58.3,39.6L58.3,39.6z"/>
	<path fill="none" stroke="#D81B60" stroke-width="2" stroke-miterlimit="10" d="M55.7,27.1c0.2-1.1,0.7-2,1.8-2.4
		c1.1-0.4,2.1-0.1,2.5,1c0.3,0.9,0.5,2,0.4,2.9c-0.1,1.1-0.6,2.3-0.9,3.4c-0.3,0.9-0.9,1.3-1.8,1.4c-2,0.2-3.9-0.2-5.5-1.5
		c-1.1-0.8-1.6-2.3-1.1-3.5c0.4-1,1.9-1.8,3.2-1.7C54.7,26.8,55.1,26.9,55.7,27.1L55.7,27.1z"/>
	<path fill="#D81B60" d="M29.4,58.9c-0.8,1-1.6,2.1-2.5,3.3C27,60.8,27.4,60.3,29.4,58.9z"/>
	<path fill="#D81B60" d="M68.6,53c-0.4,0.9-0.7,1.8-1.1,2.9C67.3,54.6,67.4,54.4,68.6,53z"/>
	<path fill="#D81B60" d="M21.2,59.6c0.6-0.8,1.2-1.6,1.8-2.4c0.1,0.1,0.2,0.2,0.3,0.2c-0.6,0.8-1.2,1.6-1.8,2.4
		C21.4,59.8,21.3,59.7,21.2,59.6L21.2,59.6z"/>
	<path fill="#D81B60" d="M15.7,39.1c0.3-0.4,0.7-0.8,1-1.1c0.1,0,0.1,0.1,0.2,0.1c-0.3,0.4-0.6,0.8-0.9,1.2
		C15.8,39.2,15.7,39.1,15.7,39.1z"/>
</g>
</svg>
