<?xml version="1.0" encoding="utf-8"?>
<!-- Generator: Adobe Illustrator 18.0.0, SVG Export Plug-In . SVG Version: 6.00 Build 0)  -->
<!DOCTYPE svg PUBLIC "-//W3C//DTD SVG 1.1//EN" "http://www.w3.org/Graphics/SVG/1.1/DTD/svg11.dtd">
<svg version="1.1" id="Layer_1" xmlns="http://www.w3.org/2000/svg" xmlns:xlink="http://www.w3.org/1999/xlink" x="0px" y="0px"
	 viewBox="0 0 80 80" enable-background="new 0 0 80 80" xml:space="preserve">
<g>
	<path fill="#8D6E63" d="M30.2,29.4c3.5-0.5,7.1-0.9,10.6-1.4c4.9-0.7,9.9-1.4,14.8-2c3.3-0.4,6.5-0.8,9.8-1.1c2-0.2,2.3,0.1,2.7,2
		c1.3,5.4,2,10.8,2.1,16.3c0,1.7,0.3,3.3,0.5,5c0.5,3.9,0.8,7.8,1.5,11.7c0.5,2.6-0.1,4.9-1.1,7.2c-0.1,0.3-0.3,0.6-0.4,1
		c-0.5,1.4-1.5,2-2.9,2.1c-2.3,0.2-4.6,0.5-6.9,0.7c-3.5,0.4-7,0.7-10.5,1c-4.1,0.4-8.2,0.9-12.2,1.4c-2.6,0.3-5.1,0.9-7.7,1.3
		c-1.8,0.2-3.7,0.2-5.5,0.3c-2.2,0.1-4.5,0.1-6.8,0.2c-0.9,0-1.6-0.3-1.9-1.2c-0.1-0.3-0.2-0.7-0.3-1c-0.8-4.2-1.7-8.4-2.3-12.6
		c-0.6-3.9-0.8-7.9-1.4-11.9c-0.4-2.5-1.1-5-1.5-7.5c-0.3-1.5-0.3-3-0.5-4.5c-0.1-0.7-0.2-1.4-0.4-2c-0.7-2.1-1.6-4.2-2.3-6.4
		c-0.2-0.5-0.1-1,0-1.5c0-0.2,0.2-0.4,0.3-0.6c2.4-5.1,1.5-4.3,6.9-6.3c6.7-2.5,13.4-4.9,20.2-7.1c6.8-2.2,13.7-4,20.5-6
		c1.3-0.4,2.7-0.8,4-1.2c1.7-0.5,2-0.3,2.8,1.3c0.9,2,2,4,2.9,6.1c0.1,0.3,0.1,0.8,0,1.1c-0.8,1.7-1.7,3.3-2.6,4.9
		c-0.2,0.3-0.5,0.6-0.8,0.6c-4.5,1.2-9.1,2.2-13.6,3.5c-5.5,1.7-11,3.7-16.4,5.7c-0.5,0.2-1,0.5-1.5,0.7
		C30.1,29.2,30.2,29.3,30.2,29.4L30.2,29.4z M11.8,26.9c-0.3-0.5-0.6-1-0.9-1.6c-1.3,2.6-1.4,3.2-1,4.2
		C10.5,28.6,11.1,27.7,11.8,26.9c-0.4,1-0.9,2-1.4,3.1c-0.3,0.6-0.5,1.3,0.2,1.8c0.6-0.7,1.1-1.4,1.6-2.1c-0.4,0.9-0.7,1.8-1.1,2.7
		c-0.2,0.6-0.3,1.2,0.4,1.7c0.4-0.5,0.7-0.9,1-1.3c1.2-1.7,1.2-2-0.1-3.7C12.1,28.4,11.9,27.6,11.8,26.9z M49.2,68.8
		c-0.2,0.4-0.3,0.9-0.5,1.4c1.7,0,2.2-1.3,3.2-2.3C50.6,67.7,49.9,68.2,49.2,68.8c-0.3-0.6-0.8-0.4-1.2-0.3c-1.5,0.3-3,0.7-4.5,0.8
		c-1.1,0.1-1.5,0.5-1.7,1.5c1.4,0.2,2.6,0,3.5-1c0.8,0.9,1.4,0.9,2.3,0.2C48.1,69.6,48.6,69.2,49.2,68.8z M19.3,66.3
		c0.1-0.6,0.6-1.3-0.2-1.8c-1.6,2.5-1.9,3-1.8,4.1C18,67.8,18.7,67,19.3,66.3c-0.3,0.7-0.6,1.5-1.1,2.2c-1,1.4-0.7,2.6,0,4.1
		c0.5-0.6,0.9-1.1,1.3-1.6c0.4-0.5,0.8-1,1.2-1.5c-0.2-0.7-0.4-1.4-0.6-2C19.8,67.1,19.5,66.8,19.3,66.3z M38.7,70.3
		c-0.1,0.4-0.2,0.7-0.3,1.1c1.4,0.1,2.5-0.3,3-1.7C40.4,69.4,39.4,69.3,38.7,70.3c-0.4-0.8-1.1-0.5-1.7-0.5c-1.7,0-3.4,0.1-5,0.1
		c-1.6,0-3.1,0-4.7,0C26.8,71,26.2,72,25.6,73c1.1,0.4,1.9,0.1,2.5-0.8c0.4-0.7,1-1.2,1.5-1.8c0.1,0.1,0.2,0.1,0.3,0.2
		c-0.4,0.7-0.7,1.4-1.1,2.2c2,0.4,2.9-0.9,4.1-2c-0.1,0.5-0.3,0.9-0.4,1.4c1.4,0.3,2.4-0.2,3.1-0.9c0.4,0.3,0.7,0.6,0.8,0.5
		C37.1,71.3,37.9,70.8,38.7,70.3z M21.9,69.1c1.4-0.1,2.7-0.2,3.9-0.3c4.1-0.1,8.1-0.2,12.2-0.4c2.1-0.1,4.3-0.1,6.4-0.5
		c6.7-1.2,13.4-2.5,20.1-3.8c1.9-0.4,3.8-0.8,5.8-1.2c-0.5-4.8-1.1-9.4-1.6-14c-0.5-4.6-0.8-9.2-1.2-13.7c-2.3,0.2-4.6,0.4-6.8,0.6
		c-1.7,0.1-3.5,0.1-5.2,0.4c-5.9,0.8-11.8,1.7-17.7,2.5c-6.2,0.8-12.4,1.5-18.6,2.2c-0.9,0.1-1.8,0.4-2.7,0.6c0.4,1.7,0.7,3,1,4.5
		c0.4,2.5,0.6,4.9,1,7.4c0.7,4.2,1.5,8.3,2.4,12.4C21.1,66.9,21.6,67.9,21.9,69.1z M63,14.3c-7.8,2.4-15.3,4.6-22.8,7.1
		c-9.2,3.1-20.5,7.9-21.8,9c1.7-0.1,3.2-0.2,4.8-0.3c1.5-0.1,2.8-0.4,4.2-1c2.3-1,4.7-2,7.1-2.9c8-3,16-5.9,24.3-7.7
		c2.2-0.5,3.5-1.6,4.1-3.6C62.9,14.8,62.9,14.7,63,14.3z M11.3,22.4c1.2,2.9,2.3,5.5,3.5,8.1c2.7-1.2,5.5-2.5,8.4-3.8
		c-1.3-1-2.3-2-3.5-2.9c-1.2-0.9-2.5-1.7-3.8-2.4c-0.4-0.2-0.9-0.4-1.3-0.3C13.4,21.5,12.4,21.9,11.3,22.4z M29.9,24.1
		c-2.4-1.7-4.4-3.3-6.5-4.7c-0.6-0.4-1.4-0.9-2-0.7c-1.7,0.4-3.3,1-5.1,1.6c2.9,2.1,5.6,4,8.3,5.9C26.3,25.6,27.9,24.9,29.9,24.1z
		 M19.3,39.6c0.1,0.1,0.2,0.2,0.2,0.3c1.7-0.2,3.3-0.4,4.9-0.7c0.3-0.1,0.7-0.3,0.9-0.6c1.3-2.4,2.6-4.8,4.1-7.4
		c-1.9,0.1-3.7,0.3-5.4,0.4C22.5,34.3,20.9,36.9,19.3,39.6z M23.2,31.6c-3-0.2-5.7,0-8.4,0.7c0,2.8,0.8,5.4,1.5,7.8
		c0.9,0.2,1.5,0.2,1.9-0.5C19.7,37.1,21.4,34.5,23.2,31.6z M40.6,19.7c-2.2-1.6-4.3-3.1-6.5-4.7c-0.3-0.2-0.8-0.4-1.1-0.3
		c-1.6,0.5-3.2,1-5,1.6c1.7,1.1,3.2,2,4.7,2.9c1.2,0.7,2.4,1.7,3.7,1.8c1.3,0.1,2.6-0.8,3.9-1.2C40.4,19.9,40.5,19.8,40.6,19.7z
		 M52.6,16c-2.4-1.7-4.5-3.3-6.7-4.8c-0.2-0.1-0.6-0.2-0.8-0.2c-1.4,0.4-2.7,0.8-4.3,1.3c2.3,1.8,4.4,3.4,6.6,4.9
		c0.3,0.2,0.8,0.2,1.1,0.1C49.7,17,51,16.5,52.6,16z M52.7,9c1.4,1.6,3.1,2.6,4.7,3.8c1.8,1.5,3.6,1.1,5.5-0.1
		c-0.3-0.6-0.4-1.3-0.8-1.6c-1.5-1.2-3.1-2.3-4.7-3.5c-1.4,0.3-2.9,0.7-4.3,1C53.1,8.7,53,8.8,52.7,9z M54.4,35.1
		c1.7-0.2,3.1-0.3,4.4-0.5c1.3-2.5,2.6-5,4-7.7c-1.7,0.2-3.1,0.3-4.5,0.5c-0.3,0-0.7,0.3-0.8,0.6C56.6,30.3,55.6,32.5,54.4,35.1z
		 M35.7,30.5c-1.2,2.7-2.4,5.1-3.6,7.8c1.2-0.2,2-0.4,2.9-0.4c1.3,0,1.9-0.6,2.3-1.7c0.9-2,1.9-3.9,2.9-5.9c0-0.1-0.1-0.2-0.1-0.4
		C38.5,30.1,37.1,30.3,35.7,30.5z M50.9,28.4c-1.7,0.2-3.2,0.5-4.5,0.7c-1.3,2.6-2.4,5-3.7,7.6c1.3-0.2,2.3-0.4,3.2-0.5
		c1-0.1,1.5-0.6,1.9-1.5c0.8-1.8,1.8-3.5,2.7-5.3C50.7,29.3,50.7,28.9,50.9,28.4z M16.2,61.5c-0.2-1.3,0.5-1.9,0.9-2.7
		c0.8-1.5,0.8-1.5,0.2-3.2c-0.5,0.8-0.9,1.6-1.3,2.3c-0.1-0.1-0.3-0.1-0.4-0.2c0.3-0.8,0.6-1.6,1.1-2.2c1-1.4,0.6-2.8,0.3-4.2
		c-1.4,2.1-2.6,4.2-1.8,6.9c0.2,0.6,0.2,1.3,0.3,1.9c0.4,2.2,0.7,4.4,1.1,6.6c0.9-0.9,1.5-1.9,2.2-2.8c0.5-0.7,0.6-1.4-0.2-2.1
		c-0.5,0.9-1,1.8-1.4,2.7c-0.2-1.2,0.4-2.1,0.9-2.9c0.5-0.9,0.4-1.7-0.2-2.6C17.2,59.8,16.8,60.5,16.2,61.5L16.2,61.5z M63.1,66.3
		c-0.7,0.9-1.2,1.6-1.9,2.5c0.9-0.1,1.5-0.1,2.1-0.1c0.7-0.1,1.5-0.2,2.2-0.3c3.3-0.6,2.8,0.2,4-3.2c0-0.1,0-0.3,0-0.5
		c-3.1,0.5-6.1,1.1-9.2,1.6c-0.6,0.9-1.3,1.8-2.1,2.9C60.6,69.1,61.2,67,63.1,66.3z M19.4,73.2c1.9,0,3.3,0,4.8,0
		c0.2,0,0.4-0.1,0.5-0.2c0.6-1,1.3-1.9,1.9-3c-1.5-0.3-2.3,0.3-2.8,1.5c-0.2,0.5-0.5,0.8-0.8,1.3c-0.1-0.1-0.2-0.1-0.4-0.2
		c0.4-0.8,0.7-1.6,1.3-2.7c-0.8,0.2-1.5,0.1-1.8,0.4C21.2,71,20.5,72,19.4,73.2z M14.8,53.2c2.2-3.5,2.7-3.8,1.4-6.8
		C15.4,48.7,13.7,50.6,14.8,53.2z M14.3,48.7c2.1-3.6,2.4-3.2,1.1-5.8C14.6,44.7,13.4,46.4,14.3,48.7z M56,67.1
		c-3-0.1-3.6,0.3-4.6,2.6C53.8,70.3,54.8,68.6,56,67.1z M13.9,36.2c-0.4,1.9-2.1,3.5-1,5.9c0.5-1,0.8-1.8,1.2-2.5
		C14.9,38.5,14.6,37.4,13.9,36.2z M59.5,66.5c-2-0.2-3.1,0.6-4,2.9C57.1,69.4,58,68.7,59.5,66.5z M14.8,39.5c-0.5,2-2.2,3.3-1.1,5.6
		c0.4-0.8,0.7-1.5,1.1-2.1C15.6,42,15.5,40.9,14.8,39.5z M12.3,38.3c0.5-1.6,2.1-2.9,1.3-4.9C12,34.7,11.4,36.3,12.3,38.3z
		 M8.9,27.7c0.3-1.2,1.9-2.2,1.1-4C9.2,25.1,8.7,26.3,8.9,27.7z"/>
	<path fill="none" stroke="#8D6E63" stroke-width="2" stroke-miterlimit="10" d="M45.2,45.8c1.4-1.3,2.6-2.6,4.1-3.7
		c2.2-1.5,4.6-2,7.3-1.7c4.5,0.6,5.9,4.7,5.1,7.9c-0.5,2-1.4,3.9-2.8,5.5c-2,2.3-4,4.5-6,6.7c-0.6,0.6-1.2,0.8-2,0.8
		c-2.7-0.1-5.4-0.2-8.1-0.4c-2-0.1-4.1,0-6.1-0.3c-2.1-0.3-3.9-1.3-5.5-2.8c-2.5-2.4-2.9-6.2-1-9c2-3,6.4-5.6,11.1-4.3
		C42.5,45,43.9,45.4,45.2,45.8z"/>
	<path fill="#8D6E63" d="M15.6,23.3c-0.4,0.4-0.5,0.6-0.8,0.7c-0.4,0.1-1.1-0.5-1-0.9c0.1-0.2,0.4-0.5,0.6-0.5
		C14.8,22.7,15.1,23,15.6,23.3z"/>
	<path fill="#8D6E63" d="M17.3,23.9c0.4,0.4,0.7,0.6,0.8,0.9c0,0.2-0.4,0.7-0.5,0.6c-0.3-0.1-0.7-0.4-0.8-0.7
		C16.6,24.7,17,24.4,17.3,23.9z"/>
	<path fill="#8D6E63" d="M19.8,32.7c0.1,0.3,0.3,0.6,0.4,0.9c0.1,0.4-0.5,1.1-1,0.9c-0.3-0.1-0.6-0.5-0.6-0.7c0.1-0.4,0.4-0.7,0.7-1
		C19.5,32.8,19.6,32.7,19.8,32.7z"/>
	<path fill="#8D6E63" d="M18.1,35.4c0.4,0.5,0.7,0.7,0.8,1c0.1,0.6-0.3,0.9-0.8,0.8c-0.3,0-0.8-0.4-0.8-0.7
		C17.4,36.2,17.8,35.9,18.1,35.4z"/>
</g>
</svg>
