<?xml version="1.0" encoding="utf-8"?>
<!-- Generator: Adobe Illustrator 18.0.0, SVG Export Plug-In . SVG Version: 6.00 Build 0)  -->
<!DOCTYPE svg PUBLIC "-//W3C//DTD SVG 1.1//EN" "http://www.w3.org/Graphics/SVG/1.1/DTD/svg11.dtd">
<svg version="1.1" id="Layer_1" xmlns="http://www.w3.org/2000/svg" xmlns:xlink="http://www.w3.org/1999/xlink" x="0px" y="0px"
	 viewBox="0 0 80 80" enable-background="new 0 0 80 80" xml:space="preserve">
<g>
	<path fill="#8D6E63" d="M9.2,49.2C9.1,48,9,46.8,8.9,45.6c-0.1-2,0-4.1-0.1-6.1c0-0.5-0.2-1-0.5-1.4c-1.1-1.7-1.2-3.3,0-5
		c0.8-1.1,1.4-2.4,1.3-3.8c0-0.3,0.2-0.5,0.3-0.7c0.2,0,0.4,0,0.4,0c0.8,1.2,1.8,2.4,2.4,3.7c0.7,1.5,0.7,3.2,0.2,4.9
		c-0.2,0.5-0.4,1-0.6,1.6c1,1,1,2.3,1,3.6c0.1,2.3,0.1,4.5,0.2,7c1.2,0,2.3,0,3.5,0c0-0.8,0-1.5,0-2.3c-0.2-3.9-0.3-7.8-0.6-11.7
		c-0.2-2.8-0.2-2.9,2.5-3.7c0-1.1-0.1-2.2-0.2-3.3c-0.1-1.5-0.4-3.1-0.4-4.6c0-0.4,0.4-0.8,0.6-1.3c-1.4-1.5-1.2-3.1-0.2-4.8
		c0.5-0.9,0.7-2,1.1-3.2c1.7,2.7,2.8,5.3,1.8,8.4c1.8,2.8,1.3,6.1,1.5,9.3c0.7,0,1.3,0,2.1,0c-0.2-1.5-0.3-2.8-0.4-4.1
		c-0.1-1.4-0.3-2.9-0.3-4.3c0-1.7,0.2-1.8,1.9-1.9c1.8,0,3.7-0.1,5.5-0.2c0-0.1,0.1-0.2,0.1-0.4c-0.9-0.7-1.8-1.5-2.8-2.1
		c-3.3-2.2-4-5.4-3.8-9c0.2-3.2,4.7-5.2,7.2-3.2C33.4,7.4,34.2,8,35,8.6c0.7-0.7,1.3-1.6,2.1-2.2C38,5.8,39,5.2,40.1,5
		c2.1-0.4,4.1,0.9,4.7,3c0.5,1.6,0.7,3.3,0.1,4.9c-0.7,2.1-1.5,4.3-2.3,6.4c-0.2,0.6-0.4,1.1-0.7,1.8c1.7,0,3.2,0,4.8,0
		c2.3,0.1,2.5,0.4,2.7,2.6c0.1,2.3,0.3,4.5,0.5,7c1.6-0.1,3-0.2,4.5-0.2c0.6-2.7-0.7-5.5,0.4-8.5c-0.1-0.2-0.5-0.6-0.7-1.2
		c-0.7-1.4-0.8-2.9-0.3-4.3c0.5-1.4,1-2.8,1.5-4.2c0.8,0.1,2.8,2.5,3.4,4.1c0.6,1.5,0.4,2.7-0.7,5.4c1.4,1.9,0.8,4.2,0.9,6.3
		c0.1,0.8,0,1.5,0,2.5c0.4,0.1,0.9,0.1,1.3,0.2c1.4,0.2,1.9,0.7,2,2c0.5,4.7,1,9.4,1.5,14.1c0,0.1,0.1,0.2,0.2,0.4
		c0.7,0,1.4,0,2.4,0c0-1,0-1.9,0-2.7c0-2-0.1-4.1,0-6.1c0-0.6,0.3-1.1,0.6-2c-0.3-0.5-0.9-1.2-1.4-2c-0.4-0.6-0.7-1.3-0.3-2
		c1.1-2,1.8-4.2,1.8-6.5c1.3,0.4,2.7,2.7,3.3,4.9c0.6,2.2-0.6,3.8-1.4,5.4c0.4,0.5,0.9,0.9,1,1.4c0.3,3.1,0.5,6.2,0.7,9.4
		c0.2,0,0.6,0.1,1,0.2c0.8,0.2,1.2,0.6,1.2,1.5c0.1,2.5,0.2,5,0.4,7.5c0.2,2.7,0.6,5.4,0.6,8c0,2.1,0.5,4.1,0.9,6.2
		c0.6,3.3,0.2,3.8-3.2,3.9c-1.4,0.1-2.9,0-4.3,0c-8.2,0-16.4-0.1-24.6,0c-6.8,0.1-13.6,0.5-20.5,0.6c-4.2,0.1-8.4-0.1-12.6-0.3
		c-0.9,0-1.9-0.5-2.6-1c-0.8-0.5-1-1.4-1.1-2.4c0-1.2,0-2.5-0.1-3.7c-0.1-1.3-0.1-2.6-0.3-3.9c-0.5-3.6-0.8-7.1-0.4-10.7
		c0.1-0.5,0.1-0.9,0.3-1.4c0.4-1.8,0.7-2,2.5-2.2C8.4,49.4,8.7,49.3,9.2,49.2z M24.8,46.5c-0.4,0.9-0.8,1.8-1.3,2.9
		c1,0.1,1.8,0.2,2.3-0.4c1.1-1.2,2-2.6,3-3.9c-2-1.3-2-1.3-3.1,0.3c-2.6,0.1-4.1,1.3-4.9,4c1.1,0.4,1.9,0.1,2.5-1
		C23.7,47.6,24.3,47.1,24.8,46.5z M27.1,64.5c2.2,2.7,5.9,2.5,9.3-0.3c-1.8-2.5-1.9-5.1-0.5-7.8c0.7-1.4,1.7-1.8,3.1-1.3
		c1.4,0.4,2.3,1.2,2.6,2.7c0.4,1.9-0.1,3.7-1.3,5.2c-0.4,0.5-0.8,1-1.2,1.5c3.4,1.9,6.6,1.6,9.4-0.8c-0.3-0.7-0.7-1.5-1-2.3
		c-0.7-1.6-0.8-3.2-0.3-4.9c0.4-1.5,1.5-2.4,3-2.4c1.4,0,2.4,0.8,2.9,2.3c0.6,1.9,0.3,3.8-0.8,5.5c-0.4,0.7-0.8,1.3-1.3,1.9
		c2.6,1.9,6.5,1.6,9-0.6c-0.2-0.2-0.4-0.5-0.6-0.6c-2.2-1.9-2-6.6,1-8.7c1.7-1.1,3.2-0.6,3.7,1.4c0.6,2.3,0.3,4.5-0.8,6.6
		c-0.2,0.4-0.5,0.9-0.7,1.4c3.1,1.3,6,1.4,8.9,0.4c-0.2-4.4-0.4-8.7-0.6-12.9c0-0.5-0.2-0.9-0.3-1.3c-1.8,0-3.6-0.1-5.3,0
		c-6.6,0.3-13.1,0.7-19.7,1c-6,0.3-12,0.4-17.9,0.8c-5.7,0.4-11.5,0.3-17.2,0.2c-0.9,0-1.8,0.1-2.6,0.1c-0.8,2.8-1.1,7.4-0.5,9.5
		c0.7-0.9,1.3-1.7,1.9-2.5c-0.3,1-0.8,1.9-1.3,2.7c-0.5,0.8-0.5,1.4,0.3,2.1c0.8-1.2,1.6-2.3,2.5-3.5c0.1,0.1,0.2,0.1,0.3,0.2
		c-0.4,0.8-0.9,1.5-1.2,2.3c-0.3,0.7-1.4,1.3-0.6,2.5c0.4-0.5,0.8-0.8,1.1-1.2c0,0,0.1,0.1,0.1,0.1c-0.2,0.6-0.4,1.2-0.6,1.7
		c2.1,1.5,4.5,1.3,6.8-0.7c-1.9-2.1-2-4.5-1.3-7.1c0.2-0.7,0.4-1.4,1.3-1.6c0.9-0.2,1.5,0.4,1.9,1.1c1.1,1.8,1.6,3.7,0.9,5.8
		c-0.2,0.6-0.4,1.1-0.6,1.8c2.4,1,4.3,0.1,6.4-0.9c-0.1-0.5-0.1-0.9-0.2-1.3c-0.3-1.8-0.2-3.6,0.3-5.3c0.5-1.6,1.5-2,3-1.3
		c0.9,0.4,1.6,1,1.7,1.9c0.4,1.9,0.3,3.8-1.4,5.3C28.1,63.6,27.6,64,27.1,64.5L27.1,64.5z M49.8,64.8c-3.6,2.6-7.4,3.1-11.3,1
		c-0.6-0.4-1.1-0.1-1.7,0.1c-1.5,0.6-3,1.3-4.5,1.8c-2,0.6-3.9,0-5.5-1.3c-0.4-0.3-0.7-0.6-1.1-1c-2.6,1.2-5.3,2.1-7.8,0.7
		c-3.2,0.9-3.9,3.9-5.9,6.2c0.2-2,1.6-2.9,2.2-4.5c-1,0-1.9,0-2.9,0c-1,1.8-2.1,3.5-3.2,5.4c1.9,0.4,3.9,0.4,5.6,0
		c1.2-1.9,2.3-3.5,3.3-5.2c0.1,0.1,0.2,0.1,0.3,0.2c-0.9,1.6-1.8,3.2-2.9,5.1c1.2-0.1,2.1-0.2,2.7-0.2c1-1.6,1.9-2.9,2.8-4.3
		c0.1,0.1,0.2,0.1,0.3,0.2c-0.7,1.3-1.4,2.6-2.2,4c1.1,0,2,0,2.9,0c0.8-1.1,1.5-2.3,2.3-3.4c0.1,0.1,0.2,0.1,0.3,0.2
		c-0.6,1-1.1,2.1-1.8,3.2c1,0,1.7,0,2.4,0c0.9-1.5,1.8-2.9,3.3-4c-0.8,1.2-1.6,2.5-2.5,3.9c1,0,1.8,0,2.5,0c1-1.5,1.9-2.9,2.9-4.3
		c0.1,0.1,0.3,0.2,0.4,0.3c-0.8,1.3-1.6,2.6-2.5,4.1c1-0.1,1.6-0.2,2.3-0.2c0.7-1.5,1.5-2.8,2.9-3.7c-0.7,1.1-1.4,2.3-2.2,3.5
		c0.5,0,0.8,0.1,1,0.1c4.6-0.2,9.2-0.4,13.8-0.5c8.1-0.1,16.3,0,24.4,0c0.6,0,1.3-0.1,2.1-0.1c-0.4-2.5-0.7-4.7-1-7
		c-3.3,0.8-6.4,0.5-9.4-0.7c-0.7-0.3-1.1,0-1.6,0.3C57,66.8,53.5,67.2,49.8,64.8L49.8,64.8z M61.3,42.4c-0.4-3.4-0.7-6.5-1.1-9.7
		c-2.8-0.3-5.5-0.4-8.3-0.2c-5.5,0.4-11,0.7-16.5,0.9c-5.3,0.2-10.5,0.2-15.8,0.2c-0.3,0-0.7,0.1-1.2,0.2c0.2,2.4,0.5,4.7,0.6,7
		c0,1,0,1.9,0.9,2.7c0.6-0.8,1.1-1.4,1.6-2.1c0.1,0,0.1,0.1,0.2,0.1c-0.5,0.9-1,1.8-1.4,2.7c1.3,1.4,2.5,0.2,3.7,0
		c0.7-0.1,1.3-0.6,2-1c-1.1-2.2-1.2-3.7-0.7-5.2c0.6-1.6,2-1.9,3.2-0.6c0.9,1.1,1.1,2.8,0.4,4.2c-0.3,0.5-0.6,1-0.9,1.5
		c3.3,1.6,5.7-0.1,8.4-1.4c-0.8-1.6-1-3.1-0.6-4.7c0.4-1.6,1.8-2.1,3.2-1.2c1.4,0.9,1.7,2.7,0.8,4.3c-0.3,0.6-0.8,1.2-1.2,1.7
		c2.4,2.1,4.9,2,8.1-0.2c-0.8-1.7-0.8-3.4-0.3-5.2c0.2-0.8,0.5-1.6,1.5-1.8c0.9-0.2,1.8,0.3,2.4,1.2c0.9,1.6,0.8,3.2-0.2,4.8
		c-0.3,0.4-0.6,0.8-0.9,1.3c2.3,0.9,4.1,0.2,5.8-0.8c-0.1-1.1-0.2-1.9-0.2-2.8c0-1.2,0.5-2.2,1.5-2.9c1.2-0.9,2.2-0.4,2.4,1.1
		c0.2,1.7,0.1,3.4-1.4,5.2C58.8,42.2,59.9,42.3,61.3,42.4L61.3,42.4z M39.9,21.1c1-2.8,2.1-5.6,3-8.4c0.5-1.3,0.5-2.7,0.2-4.1
		c-0.6-2.4-2.5-3.1-4.5-1.6c-1.2,0.9-2,2-2.1,3.6c0,0.4-0.3,1.1-0.6,1.1c-0.4,0.1-1-0.2-1.4-0.5c-0.2-0.1-0.3-0.5-0.5-0.7
		c-0.8-0.8-1.5-1.7-2.4-2.5c-0.5-0.5-1.2-0.7-2-0.5c-1.6,0.5-2.5,1.7-2.4,3.3c0.1,1.1,0.3,2.2,0.7,3.3c0.2,0.7,0,1.6,1,1.9
		c0.3-0.3,0.6-0.6,0.9-0.9c0,0,0.1,0.1,0.1,0.1c-0.2,0.5-0.4,0.9-0.7,1.5c0.9,0.7,1.7,1.3,2.6,1.9c0.9-1.4,1.7-2.5,3.1-3.1
		c-0.8,1.1-1.7,2.3-2.6,3.6c0.9,0.7,1.7,1.3,2.6,1.8c0.2,0.2,0.6,0.2,0.8,0.2C37.1,21.4,38.3,21.3,39.9,21.1z M36.3,48.6
		c8.4-0.3,16.8,0,25.4-0.9c-0.1-1.4-0.2-2.6-0.3-3.8c-1.9-0.4-3.5-0.7-5.6-1.2c0,0-0.5,0.2-0.9,0.4c-2.1,0.9-4.2,1.3-6.4,0.2
		c-0.7-0.3-1.2-0.1-1.7,0.2c-3.2,1.9-6.4,1.8-9.3-0.5C37.4,43,37.3,43,37.1,43c-2.4,1.2-4.7,2.5-7.6,2.1c-1,1.3-2,2.6-3.1,4.1
		c1.9,0,1.9,0,2.9-1.1c0.4-0.4,0.6-1.1,1.4-1.1c-0.4,0.7-0.8,1.3-1.2,2c1.4,0.5,2-0.5,2.8-1.1c0,0.4-0.1,0.7-0.1,1.1
		c1.5,0.1,2.9,0.1,3.9-1.3C36.3,48,36.3,48.2,36.3,48.6L36.3,48.6z M47.5,27.8c0-1.8,0-3.4,0-5.1c-7.1,0.2-14,0.3-21.1,0.5
		c0.1,1.5,0.1,2.8,0.3,4c0.2,1.2,1.2,2.1,2.2,2c1.1,0,2.1-0.1,3-0.9c-0.1-0.9-0.3-1.7-0.3-2.5c0-0.6,0.1-1.4,0.8-1.4
		c0.5,0,1.1,0.4,1.5,0.8c0.9,1,0.5,2.1-0.1,3.2c1.8,1,2.9-0.2,4.2-0.9c-0.1-0.4-0.2-0.8-0.2-1.1c0-0.4-0.1-0.7,0-1.1
		c0.1-1,0.6-1.7,1.3-1.6c0.8,0.1,1.2,0.7,1.2,1.5c0,0.9-0.2,1.7-0.3,2.6c1.3,0.6,2.5,0.6,3.7-0.4c-0.1-0.5-0.4-0.9-0.3-1.4
		c0-0.8,0.1-1.5,0.3-2.3c0.1-0.3,0.7-0.6,1-0.8c0.3,0.4,0.7,0.7,0.8,1.1c0.2,1.1,0.2,2.2,0.2,3.4c0.1,0,0.3,0.1,0.4,0.1
		C46.4,27.8,46.9,27.8,47.5,27.8z M27,32c7-0.1,14-0.3,21-1.2c-0.1-0.7-0.2-1.3-0.3-2c-1.7,0-3.3-0.4-5,0.4
		c-0.9,0.4-2.2,0.2-3.1-0.2c-0.9-0.3-1.6-0.4-2.5,0.1c-1.2,0.7-2.5,1-3.9,0.2c-0.3-0.1-0.7-0.1-1,0c-1.7,0.7-3.4,1-5.2,0.3
		C27,30.6,27,31.2,27,32z M37.9,63.6c0.8-1,1.5-1.8,2.1-2.7c0.6-0.9,0.7-2,0.5-3.1c-0.2-1-1-1.7-1.9-1.8c-1.1-0.2-1.4,0.6-1.8,1.4
		C35.8,59.5,36.2,61.5,37.9,63.6z M9.4,39.9c0.2,3.3,0.5,6.3,0.7,9.5c0.7,0,1.3,0,2,0c0-3.2,0-6.3,0-9.5
		C11.2,39.9,10.5,39.9,9.4,39.9z M61.2,62.1c2.1-2.2,2.6-5.8,1.1-7.7c-1.6,0.3-2.4,1.4-2.7,2.9C59.3,59.1,59.2,60.9,61.2,62.1z
		 M49.9,62.6c1.9-1.8,2.6-3.7,2-6c-0.2-0.8-0.7-1.4-1.6-1.4c-0.8,0-1.3,0.5-1.6,1.2C48.1,58.7,48.5,60.7,49.9,62.6z M10.8,38.8
		c2-3.3,1.9-6.2-0.3-7.5c-0.5,0.9-1,1.7-1.5,2.6c-0.8,1.4-0.6,2.6,0.4,3.7C9.9,38.1,10.3,38.4,10.8,38.8z M56.1,22.1
		c2.3-2.7,2.2-5.4,0-7.7C53.7,17.7,53.8,19.9,56.1,22.1z M57.6,30.5c0-2.6,0-5,0-7.5c-0.8,0.2-1.5,0.3-2.4,0.5
		c0.1,2.4,0.3,4.7,0.4,7C56.2,30.5,56.7,30.5,57.6,30.5z M19.5,23.9c0.2,2.8,0.4,5.4,0.6,8c0.5,0,0.9,0,1.4,0c0-2.8,0.6-5.6-0.4-8.3
		C20.5,23.8,20,23.8,19.5,23.9z M26.7,56.9c-0.9,2.1-0.8,4.1-0.4,6.2c2.1-0.9,3-2.4,2.8-4.3C28.9,57.6,28.5,57.2,26.7,56.9z
		 M69.3,47.2c-0.1-3.3-0.2-6.4-0.3-9.6c-0.7,0.1-1.1,0.2-1.4,0.3c0.1,3.2,0.2,6.2,0.3,9.3C68.4,47.2,68.7,47.2,69.3,47.2z M68,28.6
		c-0.3,0.7-0.4,1.4-0.7,2c-0.3,0.6-0.6,1.2-1,1.7c-0.5,0.8-0.4,1.5,0.1,2.1c0.3,0.4,0.7,0.8,1.1,1.2C69.6,33.1,69.7,31.3,68,28.6z
		 M17,57.3c-1.3,2.7-1.1,4.9,0.6,6.4C19,61.6,18.8,59.2,17,57.3z M48.1,41c1.8-1.2,2.3-3.2,1.2-4.5c-0.5-0.6-1.1-0.7-1.4,0
		C47.4,38,47,39.6,48.1,41z M20.2,16.6c-0.4,1.1-0.9,1.9-1.1,2.8c-0.3,1.2,0.2,2.1,1.2,2.9C21.4,20.3,21.1,18.5,20.2,16.6z M27,42.3
		c1.9-1.5,1.9-3.4,0-4.4C25.8,39.5,25.8,40.7,27,42.3z M19.3,49.5c1.2-0.8,1.8-2.1,2.6-3.3c-0.8-0.3-1.4-0.5-2.1-0.8
		C18.4,46.6,19,48,19.3,49.5z M37.7,36.8c-1.1,1.6-1.1,2.7,0.1,4.2c1-0.7,1.5-1.6,1.4-2.9C39,37.3,38.5,36.8,37.7,36.8z M9.1,66.6
		c-1.4,1.5-1.1,3.1-0.8,5c0.9-1.6,1.6-2.8,2.4-4.1C10,67.2,9.6,66.9,9.1,66.6z M56.4,40.6c1.4-1.3,1.6-2.1,0.7-3.9
		C56,37.9,55.7,39.1,56.4,40.6z M32.5,25.8c0.1,0.5,0.1,0.9,0.2,1.7C33.5,26.7,33.2,26.2,32.5,25.8z M8.2,65.6c-0.1,0-0.3,0-0.4,0
		c0,0.3,0.1,0.7,0.1,1c0.1,0,0.2,0,0.3,0C8.2,66.3,8.2,66,8.2,65.6z"/>
</g>
</svg>
