<?xml version="1.0" encoding="utf-8"?>
<!-- Generator: Adobe Illustrator 18.0.0, SVG Export Plug-In . SVG Version: 6.00 Build 0)  -->
<!DOCTYPE svg PUBLIC "-//W3C//DTD SVG 1.1//EN" "http://www.w3.org/Graphics/SVG/1.1/DTD/svg11.dtd" [
	<!ENTITY ns_extend "http://ns.adobe.com/Extensibility/1.0/">
	<!ENTITY ns_ai "http://ns.adobe.com/AdobeIllustrator/10.0/">
	<!ENTITY ns_graphs "http://ns.adobe.com/Graphs/1.0/">
	<!ENTITY ns_vars "http://ns.adobe.com/Variables/1.0/">
	<!ENTITY ns_imrep "http://ns.adobe.com/ImageReplacement/1.0/">
	<!ENTITY ns_sfw "http://ns.adobe.com/SaveForWeb/1.0/">
	<!ENTITY ns_custom "http://ns.adobe.com/GenericCustomNamespace/1.0/">
	<!ENTITY ns_adobe_xpath "http://ns.adobe.com/XPath/1.0/">
]>
<svg version="1.1" id="Layer_1" xmlns:x="&ns_extend;" xmlns:i="&ns_ai;" xmlns:graph="&ns_graphs;"
	 xmlns="http://www.w3.org/2000/svg" xmlns:xlink="http://www.w3.org/1999/xlink" x="0px" y="0px" viewBox="0 800 100 100"
	 enable-background="new 0 800 100 100" xml:space="preserve">
<metadata>
	<sfw  xmlns="&ns_sfw;">
		<slices></slices>
		<sliceSourceBounds  height="93.3" width="95" y="-96.3" x="3" bottomLeftOrigin="true"></sliceSourceBounds>
	</sfw>
</metadata>
<g>
	<path fill="#D81B60" d="M82.9,828.7c0.2,0,0.7,0,1-0.1c6.1-1.7,11.6,2.9,13.2,7.4c1.2,3.4,1.2,6.9,0.1,10.3
		c-1.7,5.4-1.7,5.4-7.3,6.3c-1,0.1-2,0.2-3,0.2c-9,0.1-18.1,0.3-27.1,0.3c-2.3,0-4.5-0.3-6.8-0.3c-9.3,0.1-18.6,0.3-27.8,0.5
		c-5.3,0.1-10.5,0.3-15.8,0.5c-1,0-2-0.1-3-0.4c-2.5-0.7-3.8-2.9-3.3-5.4c0.4-2.4,1.8-4.1,4-5.2c3.1-1.6,6.5-1.4,9.8-1.2
		c0.6,0,1.1,0.2,1.7,0.3c2.2-7,7.2-9.8,14.3-9.9c0-0.8,0.1-1.6,0-2.4c-1.5-9.1,1.7-16.2,9.2-21.5c4.7-3.4,9.9-5.8,15.8-5.2
		c2.2,0.2,4.6,0.4,6.6,1.3c7.3,3.4,13.4,8.2,16.1,16.3C81.4,823.3,82.1,826,82.9,828.7L82.9,828.7z M36.6,823.2L36.6,823.2
		c-0.4,1-0.8,2-1.2,3c0.2,0.1,0.3,0.2,0.5,0.3c1-0.9,2-1.8,3.3-3.1c-0.9,2.8-4.5,3.8-2.9,7.1c1.4-1.3,2.7-2.6,4-3.9
		c-0.8,1.5-1.7,2.8-2.9,3.9c-0.9,0.9-1.3,1.8-1.3,3.1c0,2.1-0.8,2.5-2.9,1.9c-4.8-1.5-10.6,1.8-11.8,6.6c-0.6,2.3-0.8,2.3-3.1,2.1
		c-2.2-0.2-4.3-0.4-6.5-0.2c-2.1,0.1-4.1,0.9-5.5,2.7c-1,1.3-1.2,3.4-0.5,4.5c0.7,0.9,2.4,1.3,3.9,0.7c0.5-0.2,0.9-0.6,1.3-1.1
		c0.5-0.6,1-1.3,1.4-2c0.1,0.1,0.2,0.1,0.3,0.2c-0.4,0.9-0.9,1.9-1.3,2.8c2.2,0.6,3.8,0.2,4.7-1.8c0.3-0.6,0.9-1,1.3-1.6
		c0.1,0.1,0.2,0.1,0.3,0.2c-0.6,1-1.1,2.1-1.7,3.1c1.9,0.5,3-0.1,3.7-1.6c0.5-1.1,1.4-2,2.2-3c0.1,0.1,0.2,0.2,0.3,0.3
		c-0.8,1.3-1.5,2.5-2.4,4c1.4,0,2.4,0,3.2,0c1.6-1.8,3-3.3,4.4-4.9l-0.1,0c-0.9,1.6-1.9,3.2-2.9,5c1.1,0,2,0,2.7,0
		c1.5-2.1,2.9-4,4.2-5.9c0.1,0.1,0.3,0.2,0.4,0.3c-1.1,1.8-2.2,3.6-3.5,5.6c1.9,0,3.4,0,4.6,0c1.9-2.6,3.6-5,5.4-7.4
		c0.2,0.1,0.3,0.2,0.5,0.3c-1.2,2.4-3.4,4.4-4.4,7c3.3,0.3,3.3,0.3,5.1-1.9c1.4-1.8,2.9-3.6,4.5-5.4c0.1,0.1,0.3,0.2,0.4,0.3
		c-1.7,2.2-3.3,4.4-5.2,6.9c1.8,0,3.1,0,4.3,0c1.7-3.2,3.9-5.8,5.6-6.7c-1.5,2-3,4.1-4.6,6.2c2.3,0.6,3.7,0.1,4.8-1.6
		c1.5-2.1,3.3-4,5.5-5.5c-1.4,2.6-3.8,4.4-5.3,7.2c1.6,0,2.9,0,4.1,0c2-3.1,3.9-4.9,5.9-6c-1.6,1.9-3.2,3.8-4.9,5.8
		c2,0.5,3.1,0.3,4.1-1.3c1.3-1.9,3-3.7,5.4-5.2c-1.5,2.6-4,4-5.1,6.7c2.2,0,4.1-0.1,6,0c1.5,0.1,2.5-0.4,3.5-1.5
		c1.6-1.8,3.4-3.4,5.6-4.4c-1.8,1.8-3.6,3.6-5.5,5.5c3,1.2,4.7-0.4,6.6-1.9c-0.4,0.5-0.7,1-1.4,1.9c6.1-0.1,11.7,0,17.4-0.8
		c0.6-0.1,1.4-0.7,1.7-1.3c1.6-3.1,2.4-6.4,1.8-10c-1-5.7-6.3-8.9-11.8-7.1c-0.6,0.2-1.1,0.4-1.7,0.6c-1.7,0.4-2.3-0.2-2.1-2
		c0.2-1.2,0.4-2.5,0.2-3.7c-1.6-8.9-6.7-15.2-14.7-19.2c-3.2-1.6-6.6-2.3-10.2-1.7c-6.3,1-11.3,4.4-15.5,9.1
		c-1.9,2.2-2.9,4.8-3.5,7.7C35.6,822.9,35.8,823.3,36.6,823.2L36.6,823.2z"/>
	<path fill="#D81B60" d="M28.1,866.3c0.4-0.9,0.6-1.6,1-2.3c0.8-1.3,2.1-1.9,3.4-1.6c1.3,0.3,2.1,1.3,2.1,3c0,2-0.1,4-0.2,6
		c0,1-0.4,1.6-1.3,1.9c-2.8,1-5.6,1.5-8.5,0.4c-3.5-1.3-4.2-4.3-1.7-7.1c1.1-1.2,2.3-1.6,3.8-1C27.2,865.9,27.7,866.1,28.1,866.3
		L28.1,866.3z"/>
	<path fill="#D81B60" d="M50.9,878.5c0.4-0.6,0.7-1.4,1.2-2c0.7-0.8,1.6-1.2,2.7-1c1.1,0.3,1.7,1.1,1.8,2.2c0.4,2.7-0.3,5.1-1.6,7.4
		c-0.2,0.4-0.9,0.7-1.5,0.7c-1.1,0.1-2.3,0.1-3.4,0.1c-2.4,0.1-4.5-0.4-6-2.3c-0.9-1.1-1.3-2.4-0.7-3.7c0.6-1.4,1.8-2,3.2-1.9
		C48.1,878,49.5,878.3,50.9,878.5L50.9,878.5z"/>
	<path fill="#D81B60" d="M56.8,863.4c1.5-1,2.9-2.3,4.5-3c1.9-0.9,3.2,0.3,2.8,2.3c-0.4,2.2-1.2,4.4-2.8,6.1c-1.1,1.3-2.5,2-4.2,1.7
		c-2.7-0.4-5.1-1.1-6.8-3.5c-0.7-1-1-1.9-0.5-3c0.5-1.2,1.5-1.9,2.8-1.7C54.1,862.5,55.6,863,56.8,863.4L56.8,863.4z"/>
	<path fill="#D81B60" d="M28,886.9c0.1-2.5,1.2-3.9,3.7-4.1c1.9-0.1,3,0.3,3.2,2.1c0.3,2.5-0.3,4.8-1.6,6.9
		c-0.2,0.3-0.6,0.6-0.9,0.8c-2.6,1.5-7.2,1.1-9.5-0.8c-1.8-1.5-1.8-2.8,0-4.3C24.4,886.3,26.1,886.6,28,886.9L28,886.9z"/>
	<path fill="#D81B60" d="M76.1,873.3c0.5-0.6,0.9-1.2,1.4-1.6c0.8-0.7,1.8-1,2.8-0.6c1,0.4,1.5,1.3,1.6,2.4c0.3,2.8-2.7,6.8-5.4,7.4
		c-2.5,0.5-5.9-2.2-6.3-5c-0.1-0.5-0.1-1-0.1-1.5c0-1.1-0.1-2.5,1.2-2.7c1-0.2,2.2,0.1,3.3,0.4C75.1,872.2,75.5,872.8,76.1,873.3
		L76.1,873.3z"/>
	<path fill="#D81B60" d="M13.2,878c0.1-1,0.2-1.9,0.4-2.6c0.3-1,1-1.6,2-1.6c1-0.1,1.7,0.6,2.1,1.5c0.9,2.1,0.8,4.2,0.2,6.4
		c-0.1,0.5-0.7,1-1.2,1.2c-1.9,0.8-3.9,0.7-5.8-0.2c-0.9-0.4-1.6-1.2-1.3-2.2c0.2-0.7,0.9-1.3,1.5-1.8
		C11.7,878.3,12.4,878.2,13.2,878L13.2,878z"/>
	<path fill="#D81B60" d="M63,891.3c0.1-0.4,0.1-0.7,0.2-0.9c0.4-1.8,1-2.5,2.1-2.3c1,0.1,2.3,1.8,2.4,2.9c0.2,3.5-3.6,6.2-6.8,5
		c-1.5-0.6-1.9-1.9-0.7-3.1c0.4-0.4,0.9-0.7,1.4-1C62,891.6,62.5,891.5,63,891.3L63,891.3z"/>
	<path fill="#D81B60" d="M80.6,862.1c-0.8-0.1-1.7,0-2.4-0.3c-0.5-0.2-1.2-0.8-1.2-1.3c-0.1-0.5,0.4-1.2,0.8-1.6
		c0.3-0.3,0.9-0.5,1.4-0.5c1-0.1,1.9-0.3,2.6-1.2c0.3-0.4,0.8-0.7,1.3-0.7c0.8,0,1.8-0.1,2.3,0.3c0.4,0.4,0.4,1.5,0.2,2.2
		C84.7,861.6,83.9,862,80.6,862.1L80.6,862.1z"/>
	<path fill="#D81B60" d="M64.1,849.6c1.9-2.6,4.3-4.7,6.7-6.8c0.1,0.1,0.3,0.2,0.4,0.4c-2.2,2.3-4.4,4.7-6.5,7
		C64.4,849.9,64.2,849.8,64.1,849.6L64.1,849.6z"/>
	<path fill="#D81B60" d="M36.9,834.7c1.1-2.1,2.8-3.7,4.9-5c-1.5,1.8-3,3.5-4.5,5.3C37.2,835,37,834.8,36.9,834.7L36.9,834.7z"/>
	<path fill="#D81B60" d="M36.6,823.2c0.5-0.7,1-1.4,1.4-2.1c0.1,0.1,0.3,0.2,0.4,0.3C37.8,822.1,37.1,822.6,36.6,823.2
		C36.5,823.2,36.6,823.2,36.6,823.2z"/>
	<path fill="#D81B60" d="M27.6,846.4c0.2-0.5,0.4-0.9,0.6-1.4c0.1,0.1,0.3,0.2,0.4,0.3C28.2,845.6,27.9,846,27.6,846.4
		C27.5,846.3,27.6,846.4,27.6,846.4z"/>
</g>
</svg>
