<?xml version="1.0" encoding="utf-8"?>
<!-- Generator: Adobe Illustrator 18.0.0, SVG Export Plug-In . SVG Version: 6.00 Build 0)  -->
<!DOCTYPE svg PUBLIC "-//W3C//DTD SVG 1.1//EN" "http://www.w3.org/Graphics/SVG/1.1/DTD/svg11.dtd" [
	<!ENTITY ns_extend "http://ns.adobe.com/Extensibility/1.0/">
	<!ENTITY ns_ai "http://ns.adobe.com/AdobeIllustrator/10.0/">
	<!ENTITY ns_graphs "http://ns.adobe.com/Graphs/1.0/">
	<!ENTITY ns_vars "http://ns.adobe.com/Variables/1.0/">
	<!ENTITY ns_imrep "http://ns.adobe.com/ImageReplacement/1.0/">
	<!ENTITY ns_sfw "http://ns.adobe.com/SaveForWeb/1.0/">
	<!ENTITY ns_custom "http://ns.adobe.com/GenericCustomNamespace/1.0/">
	<!ENTITY ns_adobe_xpath "http://ns.adobe.com/XPath/1.0/">
]>
<svg version="1.1" id="Layer_1" xmlns:x="&ns_extend;" xmlns:i="&ns_ai;" xmlns:graph="&ns_graphs;"
	 xmlns="http://www.w3.org/2000/svg" xmlns:xlink="http://www.w3.org/1999/xlink" x="0px" y="0px" viewBox="0 800 100 100"
	 enable-background="new 0 800 100 100" xml:space="preserve">
<metadata>
	<sfw  xmlns="&ns_sfw;">
		<slices></slices>
		<sliceSourceBounds  height="96" width="86.1" y="-98" x="6.9" bottomLeftOrigin="true"></sliceSourceBounds>
	</sfw>
</metadata>
<g>
	<path fill="#D81B60" d="M16.7,898c-0.7-0.3-1.4-0.6-2.1-0.8c-2-0.4-2.8-1.9-3.1-3.6c-0.4-2.8-0.5-5.6-0.8-8.5
		c-0.2-3.1-0.4-6.2-0.7-9.2c0-0.6,0-1.1-0.1-1.7c-0.1-5.4-0.6-10.7-1.4-16c-0.7-5-1.8-9.9-1.5-15c0-0.8-0.2-1.7-0.2-2.5
		c0.1-2.2,1.6-3.1,3.6-2.1c0.9,0.4,1.8,0.9,2.6,1.3c0.8,0.4,1.7,0.9,2.4,1.3c-0.5-4-0.9-8.1-1.5-12.2c-0.9-6.1-1.3-12.3-3.2-18.3
		c-0.2-0.8-0.2-1.8-0.1-2.6c0.1-0.4,0.7-1,1.2-1c0.8-0.1,1.6,0.2,2.5,0.2c5-0.2,10-0.3,14.9-1.3c4-0.8,8.1-1.3,12.2-1.7
		c6.3-0.6,12.6-1.4,19-1.3c1.8,0,3.6-0.6,5.5-0.7c3.9-0.2,7.7-0.2,11.6-0.2c1,0,1.7,0.6,2.1,1.6c1.1,2.8,1,5.8,1.2,8.7
		c0.2,2.8,0.5,5.7,0.8,8.5c0.3,2.7,0.6,5.3,0.8,8c0.4,4.1,0.7,8.2,1.1,12.5c1.4-1,2.5-2,3.7-2.8c1.2-0.8,2-0.7,2.8,0.5
		c0.4,0.7,0.7,1.5,0.8,2.3c1.1,8.5,1.3,17,1.3,25.6c0,4.7,0.7,9.4,0.8,14.1c0.1,3.4-0.3,6.8-0.6,10.3c-0.2,1.9-1.6,2.7-3.3,2.9
		c-2,0.2-4,0-6,0c-1.5,0-2.9-0.1-4.4,0c-2.4,0.2-4.8,0.6-7.2,0.7c-5.8,0.2-11.5,0.4-17.3,0.5c-3.8,0.1-7.7-0.1-11.5,0
		c-2.4,0.1-4.7,0.4-7,0.7c-2.5,0.3-4.9,0.7-7.4,0.9c-3,0.3-6,0.5-8.9,0.7c-0.2,0-0.4,0.1-0.6,0.2C18.1,898,17.4,898,16.7,898
		L16.7,898z M12.8,808.5c0,0.2,0,0.7,0.1,1.2c0.6,1.9,1.3,3.7,1.7,5.6c0.5,2.5,0.8,5.1,1.2,7.7c0.3,2.3,0.6,4.6,1,6.9
		c0.4,2.9,0.7,5.8,1.1,8.7c0.2,1.4,0.7,2.7,0.7,4c0,0.9,0.3,1.1,0.9,1.5c2.1,1.4,4.3,2.7,6.2,4.3c4.3,3.6,8.4,7.3,12.5,11.1
		c3.7,3.4,8,5.8,12.1,8.7c0.8,0.6,1.7,0.9,2.8,0.4c6.6-2.9,12-7.4,16.9-12.6c3.6-3.9,7.1-7.9,10.7-11.8c0.2-0.2,0.5-0.6,0.4-0.9
		c0-0.8-0.2-1.6-0.2-2.5c-0.4-4.2-0.8-8.5-1.2-12.7c-0.2-2.6-0.5-5.2-0.8-7.8c-0.3-3.1-0.6-6.1-0.9-9.2c-0.1-1.5-0.1-3-0.3-4.5
		c-0.3-2.6-0.4-2.6-3.1-2.4c-4.9,0.4-9.8,0.7-14.6,0.9c-1.9,0.1-3.8,0-5.7,0.2c-2.9,0.2-5.9,0.5-8.8,0.8c-3.7,0.4-7.4,0.8-11.1,1.3
		c-3.1,0.4-6.2,1.1-9.3,1.3C21.1,809,17,808.7,12.8,808.5L12.8,808.5z M49.6,885.1c0.4,0.9,0.4,0.9-0.3,2.3
		c-0.9,1.8-1.8,3.6-2.8,5.6c1.1,0.1,1.9,0.1,2.4,0.1c1.2-2.5,2.3-4.7,3.5-7c0.1,0.1,0.3,0.1,0.4,0.2c0.2,2.6-2,4.3-2.5,6.9
		c1.9-0.1,3.7-0.3,5.5-0.3c4.7-0.2,9.5-0.3,14.2-0.5c2.2-0.1,4.3-0.5,6.5-0.6c2-0.2,4.1-0.3,6.1-0.3c1.7,0,3.3,0.2,5,0.2
		c1.7,0,2-0.3,2.3-1.5c0.9-4.3,0.2-8.7-0.1-13c-0.2-3.3-0.8-6.7-0.8-10c-0.1-6.9,0.1-13.8-0.8-20.6c-0.2-1.6-0.4-3.1-0.6-4.8
		c-1.2,1.1-2.4,2.1-3.5,3.2c-3.4,3.6-6.7,7.3-10.1,10.9c-3.7,4-7.5,8-12.1,11c0.8,0.5,1.5,0.9,2.2,1.3c2.7,1.6,5.5,3.1,8,5
		c4.4,3.3,8.7,6.8,12.9,10.3c0.7,0.6,1.4,1.3,2,2.1c0.2,0.3,0.2,0.7,0.2,1.1c-0.4,0-0.7,0.1-1.1,0c-0.4-0.1-0.8-0.3-1.2-0.6
		c-3.8-2.8-7.7-5.7-11.5-8.5c-2.4-1.8-4.8-3.6-7.3-5.4c-1.7-1.2-3.6-2.3-5.3-3.5c-0.5-0.3-0.9-0.4-1.5-0.1c-1.3,0.8-2.7,1.5-4.1,2.1
		c-2.5,1.1-5,2.1-7.4-0.5c-9.7,7.8-19.4,15.5-30.1,21.9c8.7-8.6,18.4-15.8,28.3-23c-1.5-0.9-3.1-1.7-4.4-2.8
		c-4.3-3.5-8.7-6.9-12.7-10.6c-3.6-3.3-7.1-6.5-11.2-9.2c-2.7-1.8-5.2-3.8-7.9-5.6c-1.1-0.7-1.3-0.6-1.2,0.7c0.4,3.7,0.8,7.4,1.3,11
		c0.3,2.2,0.8,4.3,1.2,6.6c1.8-2,2.6-4.4,4.7-6c0,0.4-0.1,0.8-0.3,1.1c-1.2,2-2.5,4-3.7,6.1c-0.2,0.3-0.4,0.7-0.3,1.1
		c0.1,0.9,0.3,1.7,0.5,2.6c1.6-2,3.2-3.9,4.8-5.9c0.1,0.1,0.2,0.2,0.4,0.3c-0.2,0.4-0.4,0.8-0.7,1.2c-1,1.5-2,3.2-3.2,4.6
		c-1.6,1.9-1,4-0.8,6c0,0,0.1,0.1,0.2,0.1c1.4-2.2,2.8-4.4,4.2-6.6c0.2,0.1,0.3,0.2,0.5,0.3c-0.2,0.5-0.3,1.1-0.6,1.6
		c-1,1.9-1.9,4-3.3,5.7c-1.4,1.9-0.5,3.8-0.5,5.7c1.6-2.3,3.1-4.7,4.7-7c0.1,0.1,0.3,0.1,0.4,0.2c-0.2,0.5-0.2,1-0.5,1.4
		c-1.2,2-2.2,4.1-3.7,6c-1.5,2-0.5,3.8-0.3,5.8c1.6-2.5,3.2-5,4.8-7.5c0.1,0,0.3,0.1,0.4,0.1c-0.1,0.5,0,1.1-0.3,1.5
		c-1.5,2.5-3,5-4.6,7.5c-0.2,0.4-0.5,0.8-0.5,1.2c0.2,2.7,0.5,5.3,0.7,8c0.1,1.3,1.1,1.7,2,1.7c2.8,0,5.6-0.1,8.4-0.4
		c2.7-0.2,5.5-0.7,8.2-1c2.3-0.3,4.5-0.6,6.6-0.9c0.9-3,2.6-5.3,4.2-7.6c0.2,0.1,0.3,0.2,0.5,0.3c-1.2,2.4-2.4,4.8-3.6,7.2
		c1.6,0,3.2,0,4.7,0C45.8,891.5,48,886.8,49.6,885.1L49.6,885.1z"/>
	<path fill="#D81B60" d="M62.2,845.7c1.7-2.2,2.2-2.4,4.3-1.8c1.2,0.4,1.8,1.1,1.8,2.4c0.1,2.1-1,3.8-2.1,5.6
		c-0.5,0.8-1,1.5-1.5,2.3c-0.5,0.9-1.4,1.2-2.1,0.8c-2.3-1-4.9-1.6-6.5-3.8c-0.9-1.3-1.3-3-0.5-4.3c0.7-1.2,2.4-2,4-1.8
		C60.5,845.3,61.3,845.5,62.2,845.7z"/>
	<path fill="#D81B60" d="M73.2,828.4c-0.8,0.1-1.5,0.4-2.3,0.4c-6.5,0.6-13,1.3-19.5,1.3c-3.1,0-6.1,0.5-9.2,0.8
		c-2.7,0.3-5.4,0.6-8.1,0.8c-2.5,0.2-5,0.3-7.6,0.5c-0.5,0-0.9-0.2-1.4-0.5c1.6-0.2,3.2-0.5,4.8-0.6c4.2-0.5,8.4-1,12.6-1.4
		c4.5-0.4,8.9-0.5,13.4-0.8c4.4-0.3,8.7-0.8,13.1-1.1c1.2-0.1,2.4-0.1,3.5-0.1c0.2,0,0.4,0.2,0.7,0.3
		C73.2,828.2,73.2,828.3,73.2,828.4L73.2,828.4z"/>
	<path fill="#D81B60" d="M72.5,836.4c-0.9,0.3-1.8,0.7-2.7,0.8c-2.5,0.2-5.1,0.3-7.6,0.5c-4.5,0.3-9.1,0.7-13.6,1.1
		c-6.3,0.6-12.6,1.9-19,1.7c-1.4,0-2.9-0.2-4.3-0.3c0-0.1,0-0.2,0-0.3c0.6-0.1,1.3-0.2,1.9-0.3c3.2-0.2,6.4-0.2,9.6-0.5
		c3.2-0.3,6.3-0.9,9.5-1.2c2.7-0.3,5.4-0.6,8.1-0.9c4-0.3,8-0.6,12.1-0.9c1.7-0.1,3.3-0.2,5-0.3c0.3,0,0.6,0.1,0.9,0.2
		C72.5,836.1,72.5,836.3,72.5,836.4z"/>
	<path fill="#D81B60" d="M23.5,819c1.2-0.2,2.3-0.4,3.5-0.6c2.8-0.4,5.7-0.8,8.5-1.2c2-0.3,4-0.6,6-0.7c4.8-0.1,9.5-0.8,14.2-1.6
		c2.1-0.4,4.3-0.7,6.5-0.8c3.4-0.1,6.8,0,10.2,0c0.2,0,0.4,0.1,0.7,0.2c0,0.1,0,0.2,0,0.4c-1,0.1-2.1,0.2-3.1,0.3
		c-3.3,0.2-6.7,0.2-10,0.6c-4,0.5-8,1.4-12,1.9c-2.7,0.4-5.5,0.3-8.3,0.5c-2.3,0.2-4.5,0.8-6.8,1c-2.9,0.3-5.7,0.4-8.6,0.6
		c-0.2,0-0.5-0.2-0.7-0.3C23.4,819.2,23.4,819.1,23.5,819L23.5,819z"/>
	<path fill="#D81B60" d="M71.7,821.5c-1.3,0.2-2.6,0.6-4,0.7c-5.1,0.4-10.3,0.6-15.4,1c-5.2,0.5-10.4,1.1-15.6,1.7
		c-3.2,0.4-6.4,1.1-9.6,1.5c-0.9,0.1-1.8-0.2-2.7-0.3c0-0.1,0-0.3,0-0.4c7.8-1.1,15.6-2.5,23.5-3.3c7.9-0.8,15.8-0.9,23.7-1.3
		C71.7,821.2,71.7,821.4,71.7,821.5L71.7,821.5z"/>
	<path fill="#D81B60" d="M31.1,846.9c6.2-2,12.6-2.1,19-2.6C43.9,846.1,37.4,846,31.1,846.9L31.1,846.9z"/>
	<path fill="#D81B60" d="M34.8,850.1c3.3-0.6,6.7-1.1,10.1-1.1c0,0.2,0,0.4,0.1,0.6c-3.3,0.4-6.7,0.8-10,1.2
		C34.9,850.5,34.8,850.3,34.8,850.1L34.8,850.1z"/>
	<path fill="#D81B60" d="M58.5,885.2c0,0.4,0,0.9-0.2,1.3c-0.7,1.6-1.5,3.1-2.3,4.6c-0.1,0.2-0.4,0.3-0.6,0.4
		c-0.1-0.2-0.3-0.5-0.3-0.7c0-0.1,0-0.3,0.1-0.4c0.9-1.7,1.9-3.5,2.8-5.2C58.2,885.2,58.3,885.2,58.5,885.2z"/>
	<path fill="#D81B60" d="M39.9,885.7c-0.5,2.3-1.6,4.1-2.7,6C36.7,890.5,38.4,886.8,39.9,885.7z"/>
	<path fill="#D81B60" d="M59,889.7c0.2-1.6,1.3-2.6,2.2-3.8c0.1,0.1,0.3,0.2,0.4,0.2c-0.7,1.3-1.4,2.6-2,3.9
		C59.4,889.9,59.2,889.8,59,889.7L59,889.7z"/>
	<path fill="#D81B60" d="M65.4,886.7c-0.5,0.9-1,1.7-1.5,2.6c-0.2-0.1-0.3-0.2-0.5-0.3c0.5-0.8,1.1-1.7,1.6-2.5
		C65.1,886.5,65.2,886.6,65.4,886.7L65.4,886.7z"/>
</g>
</svg>
