<?xml version="1.0" encoding="utf-8"?>
<!-- Generator: Adobe Illustrator 18.0.0, SVG Export Plug-In . SVG Version: 6.00 Build 0)  -->
<!DOCTYPE svg PUBLIC "-//W3C//DTD SVG 1.1//EN" "http://www.w3.org/Graphics/SVG/1.1/DTD/svg11.dtd">
<svg version="1.1" id="Layer_1" xmlns="http://www.w3.org/2000/svg" xmlns:xlink="http://www.w3.org/1999/xlink" x="0px" y="0px"
	 viewBox="0 0 90 90" enable-background="new 0 0 90 90" xml:space="preserve">
<g>
	<path fill="#D81B60" d="M52.2,20.4c4.6,0.4,6.7,3.1,7.3,7.8c0.1,0.1,0.2,0.2,0.3,0.2c3.5,0.6,5,3,5.6,6.2c0.1,0.6,0.1,1.1,0.2,1.7
		c0.1,0.6,0.3,1.2,0.9,1.5c2.2,1.1,3.1,3.7,2.4,6.5c-0.2,0.8-0.5,1.6-0.3,2.5c0.2,1-0.6,2-1.5,2.4c-1.4,0.7-1.7,1.9-1.9,3.3
		c-0.6,4.8-1.4,9.6-2.1,14.4c-0.2,1.4-0.2,2.9-0.5,4.3c-0.3,1.4-0.7,2.8-1.3,4.1c-0.6,1.4-1.9,2.1-3.3,2.7c-3.1,1.4-6.4,2-9.8,2
		c-3.7,0-7.3,0-10.9-0.9c-1.8-0.4-3.5-1.2-5.3-1.8c-0.1,0-0.2-0.2-0.3-0.2c-2.4-0.6-2.9-2.4-3.2-4.5c-0.6-3.5-1.2-7-1.9-10.5
		c-0.7-3.8-1.5-7.5-2.2-11.3c-0.1-0.4-0.3-0.8-0.6-1c-4.2-2.5-3.5-9.2,0.2-11.9c0.6-0.4,1.2-0.9,1.9-1.4c0-0.2,0.1-0.4,0.1-0.7
		c-0.6-4.1,1.2-7.1,4.3-9.6c2.5-0.5,3.4-2.9,5.2-4.5c-0.4-0.6-0.8-1.2-1.1-1.8c-0.6-1.2-1.4-2.4-1.8-3.7c-0.9-2.6,0.5-5.2,3.2-6
		c3-0.8,5.7-0.7,7.8,2.1c1.4-1.1,2.9-2,4.6-2.3c3.2-0.6,5.6,1.4,5.4,4.7c-0.1,1.4-0.5,2.8-0.8,4.2C52.4,19.5,52.3,19.9,52.2,20.4
		L52.2,20.4z M36.9,67.3c-0.4,0.6-0.7,1.3-1.1,1.9c-0.5,0.7-1,1.2-1.5,1.9c-0.5,0.6-0.5,1.2,0.2,1.8c0.9-1.1,1.8-2.1,2.6-3.2
		C37.8,68.8,37.7,68.2,36.9,67.3c0.8-1,0.3-1.9,0.1-2.9c-1.1,1.1-1.9,2.2-2.9,3.3c-0.7,0.8-0.9,1.6-0.4,2.7
		C34.9,69.3,35.9,68.3,36.9,67.3L36.9,67.3z M50.7,25.4c0.4,0.5,0.8,0.8,1.1,1.3c0.1,0.3,0.1,0.8-0.1,1c-0.2,0.2-0.7,0.3-1,0.2
		c-0.3,0-0.5-0.3-0.8-0.5c-1.3-0.9-2.7-1.4-4.2-1.2c-2.1,0.2-4.2,0.6-6.3,0.9c-0.5,0.1-1,0.2-1.5,0.3c-0.1-0.2-0.2-0.3-0.3-0.5
		c0.5-0.3,0.9-0.6,1.5-0.9c-1.1-1-2.1-2-3.3-3.1c-0.8,1.1-1.4,2-2,2.9c-0.3,0.4-0.6,1-1.1,1.2c-3.5,1.4-5.3,4.2-5,7.9
		c0.1,0.7,0.3,1.3,0.3,2c0,0.5-0.1,1.1-0.3,1.5c-1.4,2.2-2.9,4.3-4.4,6.5c-0.6,0.8-0.3,1.5,0.4,2.1c1.4-2.2,2.6-4.4,4.3-6.2
		c-0.2,0.7-0.6,1.4-0.9,2c-0.8,1.4-1.7,2.8-2.5,4.2c-0.5,0.9-0.2,1.4,0.7,1.7c0.6-0.8,1.1-1.7,1.7-2.5c0.6-0.8,1.2-1.6,1.9-2.4
		c0.1,0.1,0.2,0.1,0.3,0.2c-1.1,1.8-2.2,3.5-3.4,5.4c0.7,0.3,1.3,0.5,1.8,0.7c1.5-1.9,2.9-3.7,4.3-5.5c0.1,0.1,0.2,0.2,0.3,0.2
		c-0.6,0.9-1.2,1.8-1.8,2.7c-0.6,1-1.3,1.9-1.9,3c1.3,0.5,1.4-0.6,1.9-1c0.5-0.5,0.9-1.2,1.4-1.8c0.4-0.5,0.9-1,1.4-1.5
		c0.1,0.1,0.2,0.2,0.2,0.3c-1.1,1.5-2.2,3-3.4,4.6c0.6,0.2,1.1,0.3,1.6,0.5c0.4-0.6,0.8-1.2,1.2-1.7c0.4-0.5,0.8-1.1,1.3-1.6
		c0.4-0.5,0.8-0.9,1.2-1.3c0.1,0.1,0.2,0.2,0.3,0.3c-1,1.5-1.9,2.9-2.9,4.4c0.1,0.1,0.3,0.2,0.4,0.3c1.2-1.4,2.4-2.9,3.5-4.3
		c0.1,0.1,0.2,0.1,0.3,0.2c-0.9,1.3-1.8,2.6-2.8,4.1c0.6,0.1,0.8,0.1,1,0.1c2.5-0.1,4.9,0.5,7.3,1.4c1.1,0.4,2.4,0.6,3.7,0.6
		c4,0.1,7.6-1.4,11.1-3c1.2-0.6,2.6-0.9,3.8-1.4c1.2-0.5,2.4-0.9,3.6-1.5c0.4-0.2,0.9-0.6,1-1c0.5-1.4,0.9-2.9,1.2-4.3
		c0.2-1.4-0.1-3.1-1.5-3.5c-1.8-0.5-1.8-1.7-2.1-3.1c-0.2-1.3-0.5-2.6-1-3.8c-0.5-1.3-1.6-2-3.1-2c-1.9,0.1-1.9,0-2-1.9
		c0-0.3,0-0.6,0-0.9c-0.3-3.6-2-5.3-5.6-5.6C51.4,23,51.1,24.2,50.7,25.4z M35.8,20.1c1.1-1.6,2.1-3,3.1-4.4c0.1,0.6-0.1,1-0.4,1.4
		c-0.6,1-1.2,2-1.9,3c-0.5,0.8-0.2,1.4,0.6,1.9c0.6-0.9,1.2-1.7,1.8-2.4c0.6-0.7,1.1-1.6,2.1-1.9c-0.5,0.9-1.2,1.8-1.7,2.7
		c-0.5,0.9-1.5,1.6-1.3,3.2c0.8-0.9,1.4-1.7,2-2.3c0.6-0.6,1-1.4,2.1-1.5c-1.1,1.4-2.2,2.7-3.3,4.2c0.5,0.6,1,1.1,1.5,1.6
		c0-0.1,0.1-0.3,0.1-0.4c2.8-0.2,5.5-0.4,8.4-0.6c0.8-2.7,1.6-5.4,2.3-8.2c0.2-0.8,0.3-1.7,0.3-2.6c-0.1-1.5-1-2.2-2.5-2.2
		c-2,0-3.5,1-4.3,3c-0.5,1.3-1.3,1.4-2.2,0.4c-0.5-0.6-0.8-1.3-1.2-1.9c-0.4-0.5-0.9-1.2-1.5-1.3c-1.6-0.4-3.3-0.5-4.7,0.5
		c-0.7,0.5-1.3,1.3-1.5,2c-0.2,0.6-0.6,1.8,0.7,2c0.1,0,0.1,0.2,0.1,0.3C33.9,18.1,35.3,18.9,35.8,20.1z M49.7,55.9
		c-2,0-3.8,0-5.6,0c0.1,3.7,0.2,7.3,0.3,10.9c0,3.6,0,7.2,0,11c1.8,0,3.4,0,4.9,0C49.5,70.5,49.6,63.3,49.7,55.9L49.7,55.9z
		 M37.6,53.6c0.8,8.3,0.9,16.1,2.1,23.9c1.1,0.1,2.1,0.2,3.3,0.3c-0.2-7.5,0.8-14.9,0.1-22.3C41.4,54.9,39.7,54.3,37.6,53.6z
		 M53.5,77.2c0.7-7.8,1.3-15.3,2-23.1c-1.6,0.5-3.1,1-4.7,1.5c0.1,7.4-0.2,14.6,0.2,22.1c0.6,0,1,0,1.3-0.1
		C52.7,77.5,53.1,77.3,53.5,77.2z M55.2,76.6c2.5-0.5,2.6-0.5,2.7-2.5c0.1-1.3,0.2-2.6,0.3-3.9c0.5-4.8,1-9.7,1.4-14.5
		c0.1-1.1,0.1-2.2,0.2-3.5c-1.3,0.6-2.4,1.1-3.4,1.6C56,61.3,55.6,68.9,55.2,76.6z M33.3,55.5c-0.6,1.6-2.2,2.8-0.9,4.8
		c0.9-1,1.8-2,2.7-2.9c0.1,0.1,0.2,0.2,0.3,0.2c-0.8,1-1.4,2.1-2.3,3c-0.9,1-1,1.9-0.2,3.2c1.3-1.5,2.5-2.9,3.6-4.3
		c0.2-0.2,0.3-0.6,0.3-0.9c-0.1-1.7,0.1-3.3-0.6-5.1c-1.1,0-2.1-0.1-3.2,0c-0.4,0-0.8,0.3-1.1,0.6c-0.7,0.8-0.5,1.6-0.1,2.6
		C32.5,56.3,32.9,55.9,33.3,55.5L33.3,55.5z M60.9,51.8c-0.7,2.6-1.7,20.5-1.3,22c0.2-0.2,0.4-0.4,0.4-0.6c0.9-7.3,1.7-14.6,3.6-22
		C62.6,51.4,61.8,51.6,60.9,51.8z M38.3,77.1c-0.2-2.3-0.4-4.4-0.6-7.1c-0.7,0.9-1.1,1.6-1.7,2.1c-1.3,1.3-1.6,2.7-0.7,4.5
		C36.1,76.9,37,77.5,38.3,77.1z M31.8,69.7c0.6-0.9,0.7-1.9,0.2-3.1c-1.3,1.2-2.3,2.3-1.6,4.1c0.3,0.8,0.4,1.7,0.5,2.5
		c0.2,1.4,1.1,2.1,2.5,2.7c-0.1-1.1-0.3-2-0.4-3c-0.6,0.4-0.9,0.7-1.5,1.1C32.1,72.4,33.9,71.2,31.8,69.7L31.8,69.7z M33.4,67.4
		c1-1.1,1.8-2.2,2.8-3.1c1.2-1.1,1.2-2.4,0.8-4.1c-1.2,1.4-2.1,2.7-3.1,3.8C32.9,65,32.8,66,33.4,67.4z M26.3,51.2
		c-0.1,0.1-0.2,0.2-0.3,0.3c0.4,1.5,0.8,3,1.2,4.8c0.9-1.4,1.5-2.3,2.3-3.4C28.4,52.3,27.3,51.7,26.3,51.2z M30.1,52.7
		c-0.9,1.6-1.6,2.8-2.3,4.1c-0.4,0.7-0.2,1.2,0.3,1.9c0.6-0.8,1-1.5,1.6-2.2C30.6,55.5,30.8,54.4,30.1,52.7z M30.9,59.6
		c-2.4,2.3-2.6,2.9-1.7,4.6C31.9,61.2,31.4,61.7,30.9,59.6z M29.8,67.4c2.2-2,2.3-2.2,1.5-4.2C29.3,65.1,29.1,65.5,29.8,67.4z
		 M30.6,56.2c-0.9,1.8-2.7,2.8-2.1,4.9C29.4,59.7,31.3,58.8,30.6,56.2z M26.7,38.9c-2.1,0.8-3.3,2.3-3.3,4.6
		C24.5,42,25.6,40.5,26.7,38.9z"/>
	<path fill="#D81B60" d="M36.9,36.3c-2.1,0.1-2.9-1.1-2.3-2.6c0.7-1.8,2.1-2.5,3.6-1.8c1.4,0.6,1.7,2,0.7,3
		C38.3,35.6,37.3,36,36.9,36.3z"/>
	<path fill="#D81B60" d="M46.3,31.3c1.2,0,2.4,1,2.4,2c0,1-1.2,2.1-2.3,2.1c-1.2-0.1-2.2-1-2.2-2.1C44.2,32.1,45.1,31.3,46.3,31.3z"
		/>
	<path fill="#D81B60" d="M43.5,38.9c-0.1,1.2-1.2,2.1-2.4,1.9c-0.9-0.1-1.4-0.8-1.3-1.5c0.1-1,1.5-2.4,2.4-2.3
		C43.1,37.1,43.7,37.9,43.5,38.9z"/>
	<path fill="#D81B60" d="M52.4,35.8c0.9,0,1.7,0.7,1.7,1.6c0,0.9-0.8,1.8-1.7,1.8c-0.9,0-1.5-0.6-1.6-1.5
		C50.8,36.7,51.4,35.9,52.4,35.8z"/>
	<path fill="#D81B60" d="M35.6,41.1c0.8,0,1.5,0.5,1.6,1.3c0,1-0.8,1.9-1.7,1.9c-0.7,0-1.4-0.5-1.4-1.2C33.9,42,34.6,41.1,35.6,41.1
		z"/>
	<path fill="#D81B60" d="M48.3,41.2c0.6,0,1.2,0.3,1.3,1.1c0.1,0.7-0.6,1.4-1.4,1.4c-0.7,0-1.3-0.6-1.3-1.3
		C46.9,41.7,47.4,41.2,48.3,41.2z"/>
	<path fill="#D81B60" d="M54.7,30.5c0,0.7-0.6,1.3-1.3,1.2c-0.7,0-1.2-0.3-1.4-1c-0.1-0.6,0.7-1.4,1.4-1.5
		C54,29.2,54.6,29.8,54.7,30.5z"/>
	<path fill="#D81B60" d="M39.1,47.6c-0.8,1.1-1.5,2.2-2.3,3.3c-0.1-0.1-0.2-0.2-0.3-0.2C37,49.3,37.9,48.4,39.1,47.6z"/>
	<path fill="#D81B60" d="M44.4,20.2c-1,1.3-2,2.7-2.9,4c-0.1-0.1-0.2-0.2-0.3-0.2c0.6-1.6,1.7-2.8,3-4C44.2,20,44.3,20.1,44.4,20.2z
		"/>
</g>
</svg>
