<?xml version="1.0" encoding="utf-8"?>
<!-- Generator: Adobe Illustrator 18.0.0, SVG Export Plug-In . SVG Version: 6.00 Build 0)  -->
<!DOCTYPE svg PUBLIC "-//W3C//DTD SVG 1.1//EN" "http://www.w3.org/Graphics/SVG/1.1/DTD/svg11.dtd">
<svg version="1.1" id="Layer_1" xmlns="http://www.w3.org/2000/svg" xmlns:xlink="http://www.w3.org/1999/xlink" x="0px" y="0px"
	 viewBox="0 0 1417 315" enable-background="new 0 0 1417 315" xml:space="preserve">
<g>
	<path fill="#F8F7F3" d="M410.6,168.9c-3.6-1.5-13.6,21.7-15.5,24.8c-5.9,10.1-12.5,20.4-21.7,27.8c-6.5,5.3-16.3,6.8-19.6-2.8
		c-3.5-10-0.4-23.1,1.8-33.1c2.4-11,5.7-21.9,9.1-32.6c1.5-4.8,3.2-9.6,4.8-14.5c0.8-2.5,0.3-3,3.1-3.3c3.1-0.3,6.1-0.8,9.1-1.4
		c4.3-0.8,8.4-1.8,12.3-3.9c0.7-0.4,9.1-5.5,5-6.1c-3.4-0.5-8.9,1.8-12.4,2.4c-4.5,0.7-9,0.8-13.6,0.8c7.9-22.9,17.4-45.2,28.7-66.6
		c5.3-10,10.9-19.9,17.3-29.2c2.6-3.7,5.3-7.3,8.2-10.7c1.1-1.3,6.8-4.5,6.8-5.6c0-2.5-19.1,3.9-21.1,5.3
		c-7.5,5.5-12.8,14.6-17.6,22.4c-11,18.2-19.8,37.9-28,57.5c-3.4,8.1-6.6,16.3-9.7,24.5c-1.3,3.6-5.3,2.2-8.8,2
		c-5.6-0.2-11.1-0.6-16.7-1c-23-1.6-46-3.5-69.1-3.5c6.5-18,13.4-35.8,20.2-53.6c3.6-9.4,7.3-18.6,11.4-27.8
		c1.3-2.8,2.6-8.6,5.8-8.8c5-0.3,10-1.6,14.7-3.4c7.1-2.9,16.3-8.3,16.3-17c0-9.9-12.7-10.1-19.1-6.2c-7.5,4.6-12.4,12.4-17.2,19.6
		c-1.6,2.4-9.5,1.8-12.4,2c-5.9,0.4-11.9,0.8-17.9,1c-39.6,1.7-87.9,4.1-116.5,35.3c-12.7,13.8-20.7,35.1-16.4,53.8
		c4,17.6,18.2,32.1,36.5,34.3c16.8,2,33.1-7.7,42.3-21.3c4.5-6.7,7.5-14.7,7.7-22.9c0.1-4.2-0.6-8.5-2.1-12.4
		c-0.5-1.4-1.2-3.9-2.8-4.5c-1.9-0.8-3.2,0.7-2.6,2.5c9.3,26.4-26.2,72-52.9,46.3c-12.4-11.8-10.5-30.9-5.2-45.5
		c5.9-16.2,16.5-30.2,31.3-39.3c31.7-19.4,70.9-17.4,106.5-21.7c-14.2,28.4-27.7,57.5-39.4,87c-1.6,4-6,2.4-10.1,2.4
		c-6.1,0-11,2.8-15.5,6.8c-3.8,3.4-7.4,10.4,1.1,8c6.8-1.9,12.3-5.5,19.6-5.5c-14.9,38.6-38,73.2-72.7,96.4
		c-33.2,22.2-77.1,35.4-116.1,21.7c-18.6-6.5-34.3-19.1-40-38.6c-5.2-18.1-0.4-38.4,10.6-53.4c2.5-3.5,5.3-6.7,8.6-9.5
		c3-2.6,6.6-3.9,9.6-6.3c3.7-2.9-1.9-3.1-3.8-2.7c-4.4,0.7-8.5,3.7-11.9,6.4c-16.8,13.2-23.8,31.9-23.7,53
		c0.2,38.2,31.7,64.1,66.8,71.4c39.4,8.3,79-3,110.8-26.9c31.7-23.9,54.8-57.7,69.9-94.2c2-4.7,3.8-9.5,5.5-14.4
		c1.4-3.9,6.5-2.1,10.3-1.9c9.8,0.5,19.6,0.8,29.4,1.2c18.3,0.7,36.6,1.9,54.9,1.9c-5.7,16.3-11.8,32.3-16,49.1
		c-3.4,14-9.5,41.1,6.8,49.6c17.7,9.5,35.1-9.1,44.4-22.1C392.7,208.1,415.3,170.7,410.6,168.9z M307.4,20.6
		c1.7-2,13.3-14.9,14.3-5.6c0.8,7.3-13.1,9.3-17.7,10.1C305.1,23.5,306.3,22.1,307.4,20.6z"/>
	<path fill="#F8F7F3" d="M528.3,169.1c-3.4-1.5-17.3,27.4-19.5,30.7c-2.1,3.1-19,27.2-23.3,16.1c-3.8-9.7,3.3-24.4,7.2-33.1
		c4.8-10.8,10.6-24.3,19.1-32.8c-7.7,1.4-15.9-4.6-22,3c-6,7.5-9.9,16.5-14.7,24.8c-5.1,8.8-10.4,17.5-16.8,25.5
		c-4.5,5.7-13.6,16.1-22,13.9c-15.4-3.8,3.3-36.7,7.6-43.6c9.1-14.6,24-35.9,42-40c7.8-1.8,14.8,1.6,17.1,9.4c3,0.5,6-1.7,5-5
		c-1.3-4-6.7-7.4-10.3-9.1c-17.7-8.1-40.6,2.6-53,15.6c-13.3,13.9-23.9,32.9-25.8,52.3c-0.8,7.9-0.1,17.4,5.3,23.7
		c6.2,7.2,16,5.1,22.9,0.2c10.9-7.7,19-19.6,25.8-30.9c-2.4,8.6-4.5,19-0.5,27.5c4.9,10.2,17,9.7,24.9,3.5
		c8.4-6.7,14.6-16.2,20.1-25.4C518.7,192.7,532.2,170.8,528.3,169.1C527,168.6,529.6,169.7,528.3,169.1z"/>
	<path fill="#F8F7F3" d="M697.7,169.3c-3.5-1.6-9.1,13.4-10.4,15.9c-3.8,7.3-7.8,14.5-12.9,20.9c-3.8,4.8-8.8,10.6-15.2,11.8
		c-6.9,1.2-8.6-6.6-8-11.8c1.6-15.3,10.1-30.5,16.9-44c2.9-5.8,5.6-11.8,8.8-17.5c3.4-6.1,7.9-9.8,12.7-14.6c-4.6,0-9.1,0-13.7,0
		c-10.3,0-12.1,6-16.1,14.4c-10.2,21.1-20.5,43.8-35.6,62c-4.4,5.3-16.3,18.1-22.1,7.7c-4.3-7.7,1.9-20.7,4.9-27.8
		c4.7-11.2,10.1-22,15.4-32.9c2-4.2,4-8.4,6.6-12.3c2.9-4.5,6.8-7.3,10.6-11c-4.6,0-9.1,0-13.7,0c-11.2,0-12.9,7.7-17.2,16.6
		c-10.6,21.6-21.2,45.2-37.6,63.1c-3.8,4.2-15.9,14.8-19.5,4.7c-3.4-9.4,2.6-20.9,6.5-29.1c5.1-10.8,10.1-21.7,15.7-32.2
		c4.1-8.6,9.2-18,17.7-23.1c-7.2,0-22.1-2.6-26.8,4.2c-5.6,8.2-9.4,18.5-14,27.3c-1.5,2.9-12.2,18.7-4.9,18.7
		c-6,11.9-19.7,37.7,1.4,43.7c20.3,5.8,35.7-20.1,43.9-34.6c-4.2,12.6-5,37.9,15,35.2c15.8-2.1,28.3-22.5,35-35.2
		c-2.9,8.6-4.6,19.4-0.2,27.9c4.9,9.5,17.2,8.9,25.1,3.8c8.9-5.8,15.3-15.2,20.6-24.3C688.4,193.6,701.9,171.2,697.7,169.3
		C696.3,168.6,699.1,169.9,697.7,169.3z"/>
	<path fill="#F8F7F3" d="M642.9,236.3c-5.2-1.5-6.5,1.6-10.1,4.4c-3.1,2.3-6.5,3.7-10.3,4c-10,0.7-19.7-3.3-29.2-5.8
		c-19.4-5-36-1.6-48.7,14.8c0,1.6,7.4,1.9,8,0.6c2.5-3.4,6.4-6.1,10.5-7.1c10.4-2.4,22,2.6,31.8,5.4c9.5,2.7,19.1,4.6,28.7,1
		c4.1-1.6,7.8-3.8,11.2-6.7C636,245.9,644.7,236.9,642.9,236.3C642.3,236.2,643.6,236.5,642.9,236.3z"/>
	<path fill="#F8F7F3" d="M903.4,169c-3.3-1.5-7.8,10.7-8.9,12.9c-3.6,7-7.5,13.9-12.1,20.3c-4,5.7-8.9,12.5-15.2,15.8
		c-4.7,2.5-10.4,1.5-10.6-4.5c-0.6-13.3,7.3-27.2,12.8-38.8c6.5-13.7,13.8-27.1,21.2-40.4c-6.3-1.9-14.4,2.5-19.9,5.2
		c-7.4,3.6-14.4,7.9-21,12.7c-12.8,9.2-23.5,20.7-33.2,33c4.9-10.1,10.2-20,16-29.7c4.4-7.3,9.8-18.1,17.5-22.3
		c-8.3,1.5-16.1-4.3-23,3.4c-6.2,7.1-10.2,16.4-14.5,24.7c-11.2,21.6-21,43.9-31.9,65.6c4.2-2.6,10.1-1.3,14.8-2
		c5.6-0.8,7.6-8.8,9.9-13c5.8-10.7,12.2-21,19.8-30.5c7-8.7,14.9-17.2,24.1-23.6c2.3-1.6,8.4-5.9,11.3-3.2c4,3.7-4.3,13.9-6,16.9
		c-6.1,10.3-12.2,20.9-13.5,33.1c-1.4,13.1,7.1,23.9,21,21.2c12.5-2.3,21.6-15.7,27.9-25.6C891.7,197.1,907.9,171.1,903.4,169
		C902.1,168.4,904.8,169.6,903.4,169z"/>
	<path fill="#F8F7F3" d="M949.8,120.7c13.6,0,19.3-22.7,3.6-22.7C939.7,98.1,934.2,120.7,949.8,120.7z"/>
	<path fill="#F8F7F3" d="M955.2,205.5c2.6-3.8,21.6-33.6,16.7-36.4c-3.1-1.8-9.6,14.4-10.9,16.7c-4,7.4-8.1,14.9-13.2,21.5
		c-3.6,4.6-7.8,9.5-13.6,11.2c-6.8,2-11.4-2.2-11.4-8.8c0-7.2,3.4-13.7,6.2-20.1c6.1-14.3,12.2-28.5,18.3-42.8
		c1.5-3.6,6.9-12.6,1.6-14.3c-6-1.9-14.1-0.4-20.4-0.3c6,8,1.5,14.8-1.7,22.9c-3.7,9.5-7.5,19.1-11.2,28.6
		c-4.1,10.6-9.1,24.1-1.9,34.4C926.2,236,947,217.2,955.2,205.5C958.9,200.1,951.4,210.9,955.2,205.5z"/>
	<path fill="#F8F7F3" d="M1101.5,169.1c-4.4-1.7-12.6,21-14.6,24.2c-6.5,10.5-14.9,18.7-24.8,25.9c5.8-21.8,7.3-44.9,3.6-67.2
		c-3.3,2.7-8.4,0.9-12,3.3c-3.4,2.2-4.4,5.7-5.6,9.3c-3.1,9.2-8.2,17.9-13.6,25.8c-5.3,7.9-11.4,15.5-18.9,21.3
		c-5.9,4.5-17.5,8.5-20.5-1.6c-6.8-22.4,49.2-98.9,68.2-72.4c1.6,2.3,2.6,8.3,5.8,8.7c3.9,0.6,4.8-4.2,3.6-6.9
		c-3.6-8.4-16.9-12.1-25-12.6c-20.7-1.2-37.4,12.7-48.7,28.6c-10.6,14.9-22.1,36.1-16.6,55c2.2,7.7,9.9,13.8,17.9,14.2
		c9.9,0.5,18.8-7.3,25.1-14c9.5-10.2,16.9-22.4,23.3-34.7c1.8,7,0.5,15.6-0.3,22.7c-1,9.6-2.6,19.1-5.6,28.3
		c-2.1,6.4-20.1,9.3-26.4,11.4c-9.5,3.2-18.9,6.7-28.1,10.6c-14.7,6.3-34.9,15.7-41.8,31.4c-5.5,12.5-0.9,27.2,12.8,30.7
		c36.4,9.4,70-27.2,86.3-55.1c4.9-8.3,9.2-16.8,12.7-25.8c1.4-3.7,7.4-5.4,10.7-7.8c3.5-2.5,6.6-5.5,9.4-8.7
		C1082.1,209.6,1106.8,171.3,1101.5,169.1C1100.1,168.6,1102.8,169.7,1101.5,169.1z M1023.3,265.4c-9.9,13.2-21,26.1-35.8,33.9
		c-10.1,5.4-42.5,15.8-36.8-7.8c4.3-17.5,21-27.3,36.1-34.5c16.8-8,34.9-13.1,52.3-19.6C1035,247.4,1029.5,256.7,1023.3,265.4
		C1019.5,270.5,1030.2,255.8,1023.3,265.4z"/>
	<path fill="#F8F7F3" d="M1214.4,169.1c-2.6-1.7-17.4,27.9-19.5,31.2c-4.9,7.3-20.9,27.2-30.6,14.9c-8.3-10.6-3.4-27.7,1.5-38.5
		c6.1-13.5,14.5-26.7,25.4-36.9c2.1,7.1,11.5,5.1,15.4,0.9c5.5-6,2.1-14.5-6.3-13.7c-7.5,0.7-13.6,8.8-18.1,14.2
		c-6.6,8-12.2,16.8-17,26c2.2-11.8,5.4-35.3-13-35c-16.9,0.3-26.5,25-32.5,37.3c-0.6,1.2-8.7,16.8-4.7,16.1c2.2-0.4,3.8-5.3,4.8-7
		c2.5-4.6,5-9.2,7.4-13.9c3.5-6.8,7-14.4,12.3-20.1c3.9-4.3,11.6-7.8,12.9,0.6c2.6,16.6-5.9,34.9-13.4,49
		c-6.5,12.2-17.9,33.9-34.2,33.9c-3.2,0-4.2-1.8-6.8-2.8c-2.6-1.1-5.5,2.9-3.8,5.2c5.6,5.6,14.2,4.4,20.7,1.1
		c14.7-7.1,24.4-25.4,31.6-39.3c-2,9.8,1.1,22.3,9.1,28.8c7.5,6.1,19,4.4,26.8-0.5c9.4-6,16-15.6,21.4-25.1
		C1205.4,192.5,1218,171.5,1214.4,169.1C1213.3,168.4,1215.5,169.9,1214.4,169.1z"/>
	<path fill="#F8F7F3" d="M1266,205.5c2.6-3.8,21.6-33.6,16.7-36.4c-3.1-1.8-9.6,14.4-10.9,16.7c-4,7.4-8.1,14.9-13.2,21.5
		c-3.6,4.6-7.8,9.5-13.6,11.2c-6.8,2-11.4-2.2-11.4-8.8c0-7.2,3.4-13.7,6.2-20.1c6.1-14.3,12.2-28.5,18.3-42.8
		c1.5-3.6,6.9-12.6,1.6-14.3c-6-1.9-14.1-0.4-20.4-0.3c6,8,1.5,14.8-1.7,22.9c-3.7,9.5-7.5,19.1-11.2,28.6
		c-4.1,10.6-9.1,24.1-1.9,34.4C1237.1,236,1257.9,217.2,1266,205.5C1269.8,200.1,1262.2,210.9,1266,205.5z"/>
	<path fill="#F8F7F3" d="M1260.6,120.7c13.6,0,19.3-22.7,3.6-22.7C1250.6,98.1,1245.1,120.7,1260.6,120.7z"/>
	<path fill="#F8F7F3" d="M1412.3,169.1c-4.4-1.7-12.6,21-14.6,24.2c-6.5,10.5-14.9,18.7-24.8,25.9c5.8-21.8,7.3-44.9,3.6-67.2
		c-3.3,2.7-8.4,0.9-12,3.3c-3.4,2.2-4.4,5.7-5.6,9.3c-3.1,9.2-8.2,17.9-13.6,25.8c-5.3,7.9-11.4,15.5-18.9,21.3
		c-5.9,4.5-17.5,8.5-20.5-1.6c-6.8-22.4,49.2-98.9,68.2-72.4c1.6,2.3,2.6,8.3,5.8,8.7c3.9,0.6,4.8-4.2,3.6-6.9
		c-3.6-8.4-16.9-12.1-25-12.6c-20.7-1.2-37.4,12.7-48.7,28.6c-10.6,14.9-22.1,36.1-16.6,55c2.2,7.7,9.9,13.8,17.9,14.2
		c9.9,0.5,18.8-7.3,25.1-14c9.5-10.2,16.9-22.4,23.3-34.7c1.8,7,0.5,15.6-0.3,22.7c-1,9.6-2.6,19.1-5.6,28.3
		c-2.1,6.4-20.1,9.3-26.4,11.4c-9.5,3.2-18.9,6.7-28.1,10.6c-14.7,6.3-34.9,15.7-41.8,31.4c-5.5,12.5-0.9,27.2,12.8,30.7
		c36.4,9.4,70-27.2,86.3-55.1c4.9-8.3,9.2-16.8,12.7-25.8c1.4-3.7,7.4-5.4,10.7-7.8c3.5-2.5,6.6-5.5,9.4-8.7
		C1392.9,209.6,1417.7,171.3,1412.3,169.1C1410.9,168.6,1413.7,169.7,1412.3,169.1z M1334.2,265.4c-9.9,13.2-21,26.1-35.8,33.9
		c-10.1,5.4-42.5,15.8-36.8-7.8c4.3-17.5,21-27.3,36.1-34.5c16.8-8,34.9-13.1,52.3-19.6C1345.9,247.4,1340.4,256.7,1334.2,265.4
		C1330.3,270.5,1341,255.8,1334.2,265.4z"/>
</g>
</svg>
