<?xml version="1.0" encoding="utf-8"?>
<!-- Generator: Adobe Illustrator 18.0.0, SVG Export Plug-In . SVG Version: 6.00 Build 0)  -->
<!DOCTYPE svg PUBLIC "-//W3C//DTD SVG 1.1//EN" "http://www.w3.org/Graphics/SVG/1.1/DTD/svg11.dtd">
<svg version="1.1" id="Layer_1" xmlns="http://www.w3.org/2000/svg" xmlns:xlink="http://www.w3.org/1999/xlink" x="0px" y="0px"
	 viewBox="0 0 90 90" enable-background="new 0 0 90 90" xml:space="preserve">
<g>
	<path fill="#D81B60" d="M20.8,51.1c-3.6-3-7.1-5.8-10.3-8.8c-4.3-4-6.4-8.7-5.2-14.8c0.9-4.6,2.7-8.6,7-10.7
		c2.8-1.3,5.8-2.5,8.8-2.9c5.8-0.9,11.7-1.1,17.5-0.6c7.5,0.7,14,3.7,19.8,8.4c0.7,0.6,1.2,1.4,1.7,2.1c2.5-0.1,5-0.3,7.5-0.2
		c6.9,0.1,11.8,3.5,15,9.5c1.4,2.7,2.2,5.7,2.4,8.7c0.2,2.8-0.8,5.4-2.1,7.8c-2.6,4.7-6,8.8-10.3,12.1c-3.4,2.6-6.7,5.3-10.4,7.5
		c-7,4.1-14.5,6.4-22.5,7.3c-3.1,0.4-6.2,0.4-9.3,0.5c-4.4,0.1-7.8-1.6-9.8-5.7c-1.2-2.4-2.4-4.8-3.1-7.3c-1.2-4.1-0.5-7.9,2.2-11.3
		C20,52.1,20.4,51.6,20.8,51.1z M74.5,32.9c0,0.7-0.4,1.6,1,2.1c-0.1-0.9-0.1-1.6-0.2-2.4C74.8,32.8,74.6,32.9,74.5,32.9
		c0-0.7,0.5-1.6-0.7-2.1c-0.7,2.3-0.7,2.3-0.1,3.4C74,33.7,74.3,33.3,74.5,32.9z M64.2,31c0-0.4,0-0.8-0.1-1.7
		c-0.8,0.6-1.2,0.9-1.7,1.3c-0.4-0.9,0-1.4,0.8-1.7c3.3-1,6.6-1.2,9.9-0.3c3.4,0.9,4.5,2.7,4.4,6.2c0,0.6-0.1,1.2-0.3,1.7
		c-0.6,2.1-1.2,4.3-1.8,6.4c-0.6,2.2-1.8,4.1-3.6,5.5c-1.8,1.5-3.7,3-5.6,4.3c-5.6,4-11.9,6.9-18.1,10c-5.1,2.6-10.5,4.1-16.2,4.3
		c-2.7,0.1-5.3-0.1-7.8-1.3c-3-1.5-4.1-3.9-2.9-7.3c0.6,1.6,1.1,3.1,1.7,4.5c0.1,0,0.2-0.1,0.3-0.1c-0.3-2-0.6-4.1-0.9-6.1
		c1.4,2.3,1.2,5.1,2.7,7.4c0.2-0.6,0.4-1.1,0.3-1.6c-0.2-0.9-0.5-1.9-0.7-2.8c-0.3-1.5-0.4-2.9-0.6-4.4c0.2,0,0.3-0.1,0.5-0.1
		c0.5,1.9,0.9,3.8,1.5,6c1.6-2.6,0.2-4.9,0.5-7.1c-1.4-0.9-2.7-1.7-4.1-2.5c-2.1,2.3-3.6,4.7-3.7,7.9c-0.2,3.9,1.7,7,3.5,10.1
		c0.3,0.6,0.8,1.1,1.3,1.7c0.2-0.5,0.3-0.7,0.4-1.1c0.8,1.7,1.2,3.7,3.7,3.5c-0.5-1.3-0.9-2.5-1.4-3.7c2.5,4.1,2.5,4.1,3.9,3.9
		c-0.1-0.6-0.2-1.1-0.3-1.7l0,0c0.3,0.4,0.6,0.8,0.9,1.2c0.4,0.7,1,0.9,1.7,0.8c1.8-0.3,3.5-0.2,5.4-0.4c-0.4-1.1-0.8-2.1-1.2-3.1
		c0.6,0.4,0.8,0.9,1.1,1.4c0.5,1.1,1.1,1.8,2.6,1.4c3.8-1,7.8-1.4,11.4-2.7c8.2-3,15.6-7.6,21.9-13.8c2.8-2.8,5.2-5.9,7-9.4
		c0.7-1.4,1.4-3,1.5-4.6c0.3-4.5-1-8.6-3.6-12.4c-1.7-2.5-4.1-4.1-6.9-5C67.8,24.9,64,25,60.2,26c-4,1-7.6,3-11.3,4.6
		c-6.6,2.8-12.5,6.8-18.2,11c-0.4,0.3-0.7,0.6-1.3,1.2c1.4,0.7,2.6,1.3,3.9,1.9c0.1-0.8,0.2-1.3,0.3-1.9c-0.6,0.1-1,0.1-1.6,0.1
		c1.6-2.6,7.4-6.1,10.6-6.4c1.1,2.5,0,5,0.1,7.6c1.3-0.4,1.2-1.4,1.4-2.2c0.4-1.9,0.7-3.9,1-5.8c0.1,0,0.2,0,0.4,0.1
		c-0.2,2.1-0.4,4.2-0.6,6.6c0.9-0.6,1.4-0.9,1.9-1.2c0.1-2.1,0.3-4,1.3-5.8c-0.2,1.6-0.3,3.3-0.6,5.4c3.8-2.6,7.7-3.7,11.6-4.9
		c0.6-0.2,1-0.8,1.5-1.2c1.3,0.5,1.7,0.4,2.2-0.7C63.4,33.3,63.8,32.1,64.2,31c-0.2,1.1-0.4,2.3-0.7,4c0.9-0.6,1.5-1,1.9-1.2
		c0.3,0.1,0.6,0.3,0.9,0.5c0.5-1.7,1-3.2,1.5-4.8C66.2,29.4,64.8,29.4,64.2,31L64.2,31z M39.9,47c1.2-0.8,1.7-2,1.8-3.4
		c0.2-2.2,0.6-4.3,0.9-6.5c-0.1-0.1-0.3-0.2-0.4-0.2c-2,1.2-4,2.4-6,3.7c-0.2,1.5-0.4,3-0.5,4.4c-0.1,0.8,0.4,1.2,1.2,1.1
		c0.3-1.8,0.6-3.6,0.9-5.4c0.1,0,0.3,0,0.4,0.1c-0.2,1.9-0.3,3.9-0.5,5.8c0.7,0.2,1.1,0.4,1.6,0.5C39.5,47.1,39.8,47,39.9,47
		L39.9,47z M69.1,40.6c0-0.8-0.1-1.6-0.1-2.5c1.7,1.1,2.7,3.3,2.2,4.9c-0.5,1.9-1.5,3.5-3.3,4.6c-3.6,2.3-7.3,3.9-11.8,4.2
		c-7.9,0.6-15.3-1.1-22.5-4.2c-4.9-2.1-9.2-5.1-13.4-8.3c-2.9-2.2-5.6-4.7-7.4-7.9c-1.6-2.9-1.3-6,0.2-8.7c1.1-2,3.2-3.1,5.3-3.9
		c0.2,0.1,0.3,0.2,0.5,0.3c-0.7,2.3-1.4,4.5-2.1,6.8c2.3-1,2-3.8,3.9-5.3c-0.6,1.9-1.2,3.4-1.7,5c1.1,0.5,1.4-0.1,1.7-0.9
		c0.5-1.4,1.2-2.7,1.7-4c0.2,0.1,0.3,0.1,0.5,0.2c-0.5,1.6-1,3.1-1.5,4.7c1.1,0.4,1.3-0.2,1.6-0.8c0.8-1.7,1.6-3.3,2.5-5
		c0.1,0.1,0.3,0.1,0.4,0.2c-0.7,1.9-1.4,3.8-2.2,5.8c1.8,0.3,1.7-1.2,2.2-1.9c0.6-0.9,1-1.8,1.5-2.7c0.1,0.1,0.2,0.1,0.4,0.2
		c-0.6,1.5-1.2,3-1.8,4.5c0.2,0.1,0.4,0.2,0.5,0.3c1.3-2.1,2.6-4.2,3.9-6.3c0.1,0.1,0.3,0.2,0.4,0.3c-1,1.9-1.9,3.7-2.9,5.6
		c0.2,0.2,0.3,0.3,0.4,0.4c0.3,0.1,0.6,0.1,0.9,0.1c0.8-2.5,2.1-4.6,3.9-5.9c-1,2.1-1.9,3.9-2.9,5.9c5.3,1.1,10.6,1.9,15.5,4.1
		c3-1.5,6.1-2.9,9.3-4.5c-2.4-1.9-4.9-3-7.4-3.9c-2.6-1-5.2-1.7-7.9-2.6c3.3-0.9,13.2,3,15.9,6.3c0.3-0.1,0.7-0.2,1-0.3
		c0.3-0.1,0.6-0.3,0.9-0.5c-0.2-0.3-0.3-0.5-0.5-0.6c-0.2-0.2-0.4-0.4-0.6-0.6c-6.6-5.2-14-8-22.4-7.9c-1.6,0-3.1,0-4.7,0
		c-2.9,0.1-5.8,0.1-8.6,0.5c-3.1,0.5-6.1,1.4-8.8,3c-1.1,0.7-2,1.5-2.4,2.8C9,24,8.5,26.1,8,28.3c-1.1,4.9,0.8,8.8,4.2,12
		c2.8,2.7,5.8,5,8.8,7.5c5.7,4.9,12.5,7.1,19.6,9c0.6-0.5,1.2-1,1.8-1.5c0.1,0.1,0.1,0.1,0.2,0.2c-0.4,0.5-0.8,0.9-1.3,1.4
		c1.5,0.7,1.5,0.7,2.3,0c0.7-0.6,1.3-1.5,2.8-1.9c-1.1,1.2-1.8,2-2.6,3c1.9,0.7,2.7-1,4.2-1.5c-0.5,0.7-0.8,1.2-1.2,1.7
		c1,0.8,1.8,0.7,2.6-0.2c0.9-1.1,2-2,3-3c0.4-0.3,0.8-0.6,1.2-0.9c0.1,0.1,0.1,0.2,0.2,0.3c-1.2,1.4-2.5,2.8-3.7,4.2
		c0.9,0.7,1.4,0.2,1.9-0.3c1.3-1.3,2.6-2.7,3.9-4c0.5-0.5,1-0.9,1.5-1.4c0.1,0.1,0.2,0.2,0.3,0.3c-0.8,1-1.5,2.1-2.3,3.1
		c6.5-2.7,12.2-6.4,17-11.3c-0.6-3,0.3-6.2-2.2-8.6c-3,0.1-5.9,0.6-9,2.1c1.5,0.6,2.1,2.5,4,1.4c-0.8,1.7,0.9,2.6,1.1,4.1
		c0.6-0.5,1-0.9,1.5-1.3c-0.4,1-0.8,2-1.2,3.1c1.1-0.8,1.8-1.9,2.7-2.7C70,42.2,70,41.4,69.1,40.6z M27.6,41.4
		c4.3-4.2,9.7-6.7,15-9.8c-0.5-0.3-0.8-0.4-1.1-0.5c-7-2.2-14.2-3.2-21.4-3.5c-2.1-0.1-4.2,0.5-6.2,1.4
		C15.4,32.5,20.9,37.6,27.6,41.4z M41.9,47.8c7.3,1.9,14.5,2.5,21.7,0.1c0.5-4-1.7-6.2-4.4-8.1c-0.7-0.5-1.4-0.6-2.3-0.3
		C51.3,41.1,46.5,44.1,41.9,47.8z M27.8,65.4c7,0.1,13.2-1.6,19.6-4.7c-0.8-0.3-1.2-0.5-1.7-0.6c-1.4-0.3-2.9-0.5-4.3-0.9
		c-2.6-0.7-5.1-1.4-7.7-2.1c-0.8-0.2-1.6-0.4-2.2,0.4C29.6,59.7,28,62.1,27.8,65.4z M13.3,27c0.8-1.7,1.4-3,2-4.4
		c0.1,0.1,0.2,0.1,0.3,0.2c-0.4,1.3-0.9,2.6-1.5,4.3c0.8-0.4,1.4-0.5,1.5-0.8c0.8-2,1.5-4.1,2.3-6.3C13.9,21.9,12.8,23.5,13.3,27z
		 M71.8,31c-0.2,1-0.3,1.8-0.4,2.6c0.2,0.1,0.3,0.1,0.5,0.2c1-0.9,0.9-2.3,1.5-3.5c-1-0.3-1.9-0.5-2.9-0.7c-0.4,1.5-0.8,2.8-1.2,4.2
		C71.3,33.8,70.6,31.8,71.8,31z M67.2,34c0.2,0.1,0.3,0.1,0.5,0.2c1.6-1.1,1.5-3,2.1-5.1c-0.8,0.4-1.4,0.5-1.5,0.8
		C67.8,31.2,67.5,32.6,67.2,34z M27,54.7c0.2,1.5,0.4,2.6,0.6,4.1c1-1.1,1.7-1.9,2.4-2.8C29,55.5,28.2,55.2,27,54.7z M74.4,40.4
		c0.3-1.1,0.5-2,0.7-2.8c-1-0.4-1.8-0.8-3-1.3C72.9,37.8,73.6,38.9,74.4,40.4z M34.8,45.2c0.2-1.2,0.4-2.5,0.6-3.9
		C33.6,42.3,33.5,43.1,34.8,45.2z"/>
	<path fill="#D81B60" d="M34.3,70c0.3,0.8,0.7,1.7,1,2.5c-0.1,0-0.3,0.1-0.4,0.1c-0.3-0.8-0.6-1.7-0.9-2.5
		C34.1,70.1,34.2,70.1,34.3,70z"/>
	<path fill="#D81B60" d="M32,70.7c0.2,0.4,0.4,0.8,0.6,1.2c-0.1,0-0.2,0.1-0.3,0.1c-0.2-0.4-0.4-0.8-0.6-1.2
		C31.8,70.8,31.9,70.8,32,70.7z"/>
	<path fill="#D81B60" d="M29.9,72.6c-0.3-0.5-0.6-1-1-1.5c0.1-0.1,0.3-0.1,0.4-0.2C29.6,71.5,29.7,72,29.9,72.6L29.9,72.6z"/>
	<path fill="#D81B60" d="M61.6,32.8c-0.3,0.8-0.6,1.6-1,2.3C61,34.4,61.3,33.6,61.6,32.8z"/>
	<path fill="#D81B60" d="M62.5,30.6c-0.3,0.8-0.6,1.6-0.9,2.3C61.8,32.2,62.2,31.4,62.5,30.6z"/>
	<path fill="#D81B60" d="M40,46.9c-0.5-2-0.2-4.3,0.9-6.9c-0.1,1.1-0.2,2.3-0.4,3.4C40.4,44.6,40.1,45.8,40,46.9
		C39.9,47,40,46.9,40,46.9z"/>
</g>
</svg>
