<?xml version="1.0" encoding="utf-8"?>
<!-- Generator: Adobe Illustrator 18.0.0, SVG Export Plug-In . SVG Version: 6.00 Build 0)  -->
<!DOCTYPE svg PUBLIC "-//W3C//DTD SVG 1.1//EN" "http://www.w3.org/Graphics/SVG/1.1/DTD/svg11.dtd">
<svg version="1.1" id="Layer_1" xmlns="http://www.w3.org/2000/svg" xmlns:xlink="http://www.w3.org/1999/xlink" x="0px" y="0px"
	 viewBox="0 0 80 80" enable-background="new 0 0 80 80" xml:space="preserve">
<g>
	<path fill="#8D6E63" d="M36.3,58.9c-0.8-3.2-1.6-6.1-2.3-8.9c-1.4-1.1-2.8-2-4.1-3.1c-3.4-2.9-6.7-5.8-10-8.7
		c-2.9-2.6-5.6-5.4-7.1-9.1c-1.7-4.6-2.4-9.2,0.1-13.7c2.5-4.6,6.4-7.2,11.5-7.8c6-0.7,11.5,0.5,16.1,4.9c3.2-3.2,7.3-4.8,11.6-5.6
		c3.2-0.6,6.2,0.2,8.9,1.9c1.3,0.8,2.2,1.9,2.7,3.3c1.6,3.9,2.1,7.8,0.6,11.8c-1.2,3.2-2.6,6.3-4.6,9.2c-1.6,2.4-3.4,4.8-5,7.2
		c-1.2,1.9-2.3,3.8-3.5,5.7c-0.2,0.3-0.3,0.7-0.6,0.9c-1.4,1-1.4,2.4-1.4,3.9c0.1,2.1-0.2,4.2-0.4,6.5c1.4,0,1.6,1.1,1.6,2.2
		c0,1.3,0,2.5-0.4,3.8c-0.5,1.5-0.4,3.2-0.5,4.8c-0.1,0.9-0.1,1.9-0.3,2.8c-0.1,0.8-0.7,1.2-1.6,1.3c-2.8,0.2-5.7,0.5-8.5,0.8
		c-1.6,0.2-2.1-0.1-2.4-1.6c-0.3-1.3-0.6-2.7-0.8-4c-0.2-1.2-0.3-2.4-1.2-3.6c-0.5-0.7-0.2-2-0.3-3.1C34.4,59.6,35.7,59.4,36.3,58.9
		z M18.9,22.5L18.9,22.5C18.5,23,18.3,23.5,18,24c-0.9,1.2-1.8,2.4-2.8,3.5c-0.7,0.8-0.5,1.5,0.2,2.2c1-1.2,2-2.4,2.9-3.5
		c1-1.1,1.9-2.3,3.3-3c-2,2.4-3.9,4.8-5.8,7.2c1.3,2.5,4.5,5.7,6.2,6.6c1.1-1.2,2.1-2.5,3.2-3.7c1.1-1.2,2.2-2.2,3.3-3.4
		c0.1,0.1,0.2,0.2,0.3,0.3c-2.1,2.5-4.3,4.9-6.4,7.4c3.9,3.4,7.7,6.7,11.5,9.9c0.4,0.3,1,0.4,1.5,0.4c2.4-0.1,4.7-0.3,7.1-0.6
		c2.2-0.2,4.3-0.5,6.1-0.7c1.3-2.1,2.2-4,3.3-5.7c2.1-3.1,4.2-6.2,6.3-9.3c1.7-2.6,3-5.4,4.1-8.4c1.1-3.2,0.9-6.4-0.1-9.5
		c-0.4-1.3-1-2.4-2.1-3.3c-2.4-1.8-5-2.6-7.9-2c-3.6,0.7-7.1,2.1-10,4.5c-0.6,0.5-1.2,0.9-1.8,1.3c-0.4-0.3-0.7-0.4-0.9-0.6
		c-3.8-3.4-8.3-4.7-13.3-4.5c-5.6,0.2-9.7,2.8-12.1,7.9c-0.4,0.9-0.6,1.8-0.9,2.7c1.2-0.7,1.9-1.8,3.1-2.3c-0.7,1-1.4,1.9-2.2,2.7
		C13,21.3,13,22.6,13.6,24c0.1,0.2,0.1,0.5,0.1,0.8c-0.2,1,0.2,1.8,0.6,2.9c0.5-0.6,0.9-1.1,1.2-1.5C16.6,25,17.7,23.7,18.9,22.5z
		 M49,59.2c-0.5,0-0.8-0.1-1.2-0.1c-3.4,0.2-6.7,0.4-10.1,0.7c-2,0.2-2.3,0.7-1.9,2.7c0.1,0.2,0.2,0.5,0.3,0.7
		c0.3,0,0.6,0.1,0.9,0.1c3-0.1,6-0.2,8.9-0.4C49.4,62.8,49.4,62.8,49,59.2z M39.3,49.1c-1.4,0.2-2.6,0.3-4.1,0.5c1.1,3,1.7,6.1,3,9
		c1-0.2,1.8-0.4,2.6-0.5C40.3,55.1,39.8,52.2,39.3,49.1z M40.6,49.2c0.6,2.8,1.2,5.4,1.8,8.1c0.2,0.9,0.8,0.7,1.5,0.5
		c0.1-2.9,0.2-5.8,0.3-8.6C43,49.2,41.9,49.2,40.6,49.2z M45.8,48.9c0,3,0,5.8,0,8.8c0.5,0,1,0,1.3,0c0.4-3.1,0.7-6,1.1-9
		C47.4,48.7,46.7,48.8,45.8,48.9z M43.7,64.6c0.1,2.3,0.2,4.6,0.3,6.9c0.7-0.2,1.3-0.3,1.7-0.5c0.4-2.2,0.8-4.3,0.4-6.5
		C45.2,64.6,44.4,64.6,43.7,64.6z M37.1,64.9c0.6,2.5,1.2,4.7,1.7,7c0.5-0.1,1-0.1,1.5-0.2c-0.2-2.4-0.3-4.7-0.8-7
		C38.7,64.8,38,64.9,37.1,64.9z M40.3,64.8c0.4,2.4,0.8,4.7,1.2,7.1c0.6-0.2,0.9-0.3,1.2-0.4c0-2.2,0-4.4,0-6.6
		C41.9,64.8,41.2,64.8,40.3,64.8z M47.1,64.5c0.1,2.2,0.2,4.2,0.3,6.1c0.2,0,0.3,0,0.5,0c0.6-2.1,0.5-4.2,0.8-6.5
		C48,64.3,47.6,64.4,47.1,64.5z"/>
	<path fill="#8D6E63" d="M59.1,50.1c0.6-3.9,2.6-6.1,5.5-6c3.1,0.1,5.2,2.6,5.6,6.7c0.5,0,1.1,0,1.6,0c1.9,0.1,3.1,1.3,3.2,3.2
		c0,1.2-0.2,1.6-1.5,1.6c-2.7,0.1-5.5,0-8.2,0.1c-2.9,0-5.8-0.3-8.8,0.2c-1.3,0.2-2.8-0.5-4.1-1c-1-0.4-1-1.6-0.1-2.5
		c1.3-1.3,2.9-2.1,4.8-2.3C57.8,50.1,58.4,50.1,59.1,50.1z M60.5,51.6c-3.8-1-6.8,0-7.5,2.5c0.9,0.6,1.9,0.7,3,0.7
		c1.9-0.1,3.9-0.3,5.8-0.3c2,0,4,0.3,6,0.3c1.9,0,3.8-0.1,5.7-0.1c0.1-2-0.3-2.6-1.8-2.5c-0.8,0-1.5,0.4-2.3,0.5
		c-0.3,0.1-0.6,0-1.2,0c0.2-0.7,0.4-1.2,0.6-1.7c0.6-1.9-0.2-3.3-1.5-4.5c-1.2-1.1-2.6-1.5-4.2-0.8c-1.7,0.8-2.6,2.1-2.6,4
		C60.5,50.2,60.5,50.8,60.5,51.6z"/>
	<path fill="#8D6E63" d="M12.2,58.4c-0.3-2.3-0.8-4.4,0.7-6.2c0.8-1,1.8-1.5,3-1.8c2.7-0.6,4.8,0.7,6.7,4.4c0.4-0.1,0.8-0.3,1.2-0.4
		c2.1-0.7,3.9,0.3,5.2,1.7c1.5,1.4,1.4,3.4,1,5.3c-0.2,1.1-1.2,1.1-2.1,1.2c-2.3,0.1-4.6,0.3-6.9,0.4c-2.6,0.1-5.2,0.2-7.8,0.4
		c-0.6,0-1.3,0.1-1.8,0.3c-1.6,0.6-3.2,0.3-4.8-0.1c-0.8-0.2-1.4-0.6-1.5-1.5c-0.2-0.8,0.3-1.4,0.9-1.9c1.4-1.1,3-1.6,4.7-1.8
		C11,58.3,11.5,58.4,12.2,58.4z M13.6,59.7c-0.5,0-0.7,0.2-0.9,0.1c-2.3-1.1-4.1,0.1-5.9,1.1c-0.3,0.2-0.6,0.7-0.5,1.1
		c0.1,0.3,0.6,0.7,0.9,0.7c1.4,0.1,2.7,0.2,4.1,0.1c5-0.3,9.9-0.7,14.9-1c2.6-0.1,3.4-1,2.8-3.5c-0.4-1.7-1.7-2.5-3.1-3
		c-1.2-0.4-2.4,0.1-3.3,1.2c-0.2,0.2-0.6,0.3-1.1,0.6c0-0.7,0.1-1.2,0-1.7c-0.1-0.7-0.2-1.4-0.5-1.9c-1.1-1.7-3.7-2.5-5.5-1.8
		c-1.9,0.8-2.8,2.4-2.4,4.7C13.1,57.4,13.3,58.4,13.6,59.7z"/>
	<path fill="#8D6E63" d="M59.3,17.9c0.1,2.6-0.8,4.9-1.9,7.1c-0.7,1.3-1.7,2.3-3.2,2.7c-1.6,0.5-2.9-0.4-2.9-2.1
		c0-0.7,0.1-1.4,0.3-2c0.6-1.9,0.4-3.7-0.6-5.4c-0.1-0.1-0.1-0.2-0.2-0.3c-1.4-2.9-0.1-5.3,3.2-5.6c2.8-0.3,5,1.5,5.3,4.5
		C59.4,17.2,59.3,17.5,59.3,17.9z M58.5,18c0-0.4,0-0.7,0-0.9c0-2.3-1-3.5-3.1-3.9c-1.7-0.3-3.1,0.4-4.2,1.6c-1,1.1,0,2.1,0.4,3.1
		c0,0.1,0.1,0.1,0.1,0.2c1.1,1.9,1.5,3.8,0.7,5.9c-0.2,0.6-0.3,1.2-0.2,1.8c0,0.9,0.6,1.4,1.5,1.1c1.3-0.4,2.5-0.9,3.1-2.2
		C57.8,22.5,58.7,20.3,58.5,18z"/>
	<path fill="#8D6E63" d="M24.3,25.3c-2,2.5-4,5-6,7.6C19.4,29.7,21.9,27.5,24.3,25.3z"/>
	<path fill="#8D6E63" d="M21.2,35.2c0.2-1.6,2.7-4.9,5.3-6.8C24.8,30.7,23,32.9,21.2,35.2z"/>
	<path fill="#8D6E63" d="M32.4,34.3c-1.9,2.1-3.6,4.1-5.6,6.4C27.4,38.6,30.7,35,32.4,34.3z"/>
	<path fill="#8D6E63" d="M30.5,32.5c-1.8,2.1-3.6,4.1-5.5,6.3C25.2,37.3,27.8,34.2,30.5,32.5z"/>
	<path fill="#8D6E63" d="M29,41.4c1.3-1.8,2.9-3.4,4.8-4.7c-1.5,1.6-3,3.3-4.5,4.9C29.3,41.6,29.1,41.5,29,41.4z"/>
	<path fill="#8D6E63" d="M35.7,42.2c-0.5,0.6-1,1.1-1.5,1.7c-0.1-0.1-0.2-0.2-0.3-0.3c0.5-0.6,1-1.1,1.5-1.7
		C35.5,42,35.6,42.1,35.7,42.2z"/>
	<path fill="#8D6E63" d="M18.8,15.4c-0.4,0.3-0.8,0.7-1.1,1c-0.1-0.1-0.1-0.1-0.2-0.2c0.4-0.4,0.8-0.7,1.2-1.1
		C18.7,15.2,18.8,15.3,18.8,15.4z"/>
	<path fill="#8D6E63" d="M16.8,20.6c0.3-0.3,0.6-0.6,0.8-0.9c0,0,0.1,0.1,0.1,0.1c-0.3,0.3-0.5,0.6-0.8,0.9
		C16.9,20.6,16.8,20.6,16.8,20.6z"/>
	<path fill="#8D6E63" d="M14.5,23.2c0.3-0.4,0.7-0.8,1-1.2c0.1,0,0.1,0.1,0.2,0.1c-0.3,0.4-0.6,0.9-0.9,1.3
		C14.7,23.3,14.6,23.2,14.5,23.2z"/>
	<path fill="#8D6E63" d="M18.9,22.5c0.2-0.3,0.4-0.7,0.6-1c0.1,0.1,0.2,0.1,0.3,0.2C19.4,21.9,19.1,22.2,18.9,22.5
		C18.8,22.4,18.9,22.5,18.9,22.5z"/>
</g>
</svg>
