<?xml version="1.0" encoding="utf-8"?>
<!-- Generator: Adobe Illustrator 18.0.0, SVG Export Plug-In . SVG Version: 6.00 Build 0)  -->
<!DOCTYPE svg PUBLIC "-//W3C//DTD SVG 1.1//EN" "http://www.w3.org/Graphics/SVG/1.1/DTD/svg11.dtd">
<svg version="1.1" id="Layer_1" xmlns="http://www.w3.org/2000/svg" xmlns:xlink="http://www.w3.org/1999/xlink" x="0px" y="0px"
	 viewBox="0 0 1362 325" enable-background="new 0 0 1362 325" xml:space="preserve">
<g>
	<path fill="#F8F7F3" d="M407.4,165.8c-4.1,0-5.8,6.2-7.2,9.1c-4.7,9.6-10.2,18.7-16.3,27.5c-9.1,13.4-24.2,35.3-42.6,35.7
		c-17.9,0.4-13.7-28.2-11.9-38.7c4.3-24.9,13.2-49.2,21.2-73.1c7.9-23.5,17.7-46.4,30.2-67.8c3.1,0.5,6.2,1,9.3,1.5
		c12.4,1.8,43.1,4.9,43.1-15.2c0-2.5-3.3-10.4-6-4.9c-1.8,3.7-0.1,7.1-4.6,9.5c-8.5,4.6-20.8,2.8-29.9,1.6c-2.2-0.3-4.5-0.6-6.7-1
		c4.5-6.9,9.5-13.6,15.4-19.3c1.3-1.3,8.1-4.8,8.1-6.2c0-2-11.2,1.1-12.2,1.4c-11.5,3.1-20.3,11.3-27.3,21.3
		c-15.5-3.3-31-7.7-45.9-12.6c2.9-2.9,5.5-5.9,8.6-8.6c1.4-1.2,2.9-2.4,4.5-3.4c2.3-1.5,2.9-0.2,5.4,0c7.9,0.7,2.8-13.9-4.1-9.5
		c-6.1,0-12.5,7.5-16.4,11.5c-2.3,2.4-4.7,4.8-6.7,7.5c-2.5-0.7-5-1.5-7.4-2.3c-14.8-4.8-29.4-10.1-44.4-14.4
		C233.1,6.6,200.5,0,169,7.6c-28.1,6.8-53.6,24.9-63.1,53c-9.2,27.4,0.8,58.8,28.8,69.9c18.5,7.2,40.2,3.1,54.9-10.1
		c7.1-6.3,12.4-14.4,14.8-23.7c0.7-2.5,2.9-9-0.6-10.5c-2.8-1.2-4.2,1.1-4.4,3.3c-1.6,17.5-22.1,33-38.1,36
		c-17.4,3.3-37.2-5.4-42.1-23.2c-5-18.7,5.2-38.8,17.8-52.1c13.1-13.8,31.1-23.2,49.7-27.1c20.4-4.3,41.8-1.9,62.2,0.8
		c20.9,2.8,41.4,7.8,61.5,14.1c-6.2,7.9-9.8,18.1-14,27.1c-4.9,10.4-9.8,20.8-14.6,31.2c-10.7,23-21.5,45.9-34.1,67.9
		c-11.8,20.6-24.7,40-43,55.5c-17.4,14.8-38,24.8-60.3,29.8c-39.4,8.8-86.1,1.3-112.1-32.2c-12.4-16-17.2-36.3-14.7-56.2
		c1.2-10,3.8-19.3,9.8-27.5c5.7-7.8,13.3-12.1,20.5-18.2c3-2.5,3.9-7.5-1.4-7.7c-3.9-0.1-7.8,1.8-11.1,3.7
		c-7.3,4.3-13.7,10.9-18.1,18.2C7.9,145.5,4.6,168,7.1,186.2c5.6,42,41.1,66.1,80.2,74.4c40.5,8.6,86.8,2.5,122.4-19.3
		c35.1-21.5,52.6-60.7,66.5-97.7c8-21.1,14.8-42.6,23.3-63.5c4.2-10.3,9.1-20.3,14.6-29.9c1.3-2.3,2.6-4.5,4-6.8
		c1.8-2.9,1.3-2.3,4-1.2c3.7,1.5,7.3,3,11.1,4.4c10.3,3.7,20.9,6.6,31.6,9c-5.6,9.6-10.1,19.9-14.2,28.7
		c-15.9,33.9-30.5,70.7-38.9,107.3c-3.7,16-6.7,42.3,9.2,53.3c16.5,11.4,40.6-4.8,51.9-16.6c14.1-14.7,24.2-34.5,33-52.7
		C406.4,174.2,411.2,165.8,407.4,165.8z"/>
	<path fill="#F8F7F3" d="M537.6,177.7c0.5-1.1,0.4-0.8,0.1-0.2c0.7-1.9,1.5-7.8-2.3-5.1c-2.1,1.5-3.2,4.8-4.4,7.1
		c-3.6,7-7.2,13.9-11.3,20.6c-4,6.5-17.8,32-28.4,27.1c-4.3-2-2.8-10.3-2.3-13.7c1.2-8,3.9-15.7,7.1-23.1
		c5.6-13.2,12.5-29.5,22.7-39.8c-7.5,1.4-15.1-4-22.1,0.9c-5,3.5-8.2,10.5-11,15.7c-8.3,15.1-16.6,30.2-27.3,43.8
		c-5.1,6.5-13.5,15.7-22.6,15.7c-8.2,0-8.5-9.7-7.6-15.6c2.7-18.9,15.4-37.7,27.4-52c9.3-11.2,29.3-34.5,46.3-25.6
		c3.7,1.9,5.9,5.5,7,9.4c3.4,0.5,6.8-1.9,5.6-5.7c-2.4-7.6-13.7-11.8-20.7-12.8c-40.3-5.6-73.1,38.9-79.1,74.2
		c-2.4,14.3,0.2,40.8,21,36.5c17.4-3.6,30.7-25.5,39.1-39.6c-2.7,9.4-4.8,20.3-1.1,29.7c3.9,10.1,15.5,13,24.6,7.9
		C517.4,222.3,528.7,196.3,537.6,177.7z"/>
	<path fill="#F8F7F3" d="M670.8,172.1c-2.4,1.7-3.7,6.2-5,8.8c-4.9,9.7-10,19.2-16.2,28.1c-4.9,7-11.4,16.6-20,19.3
		c-19.3,5.9-2.4-33.4,0-38.8c8.6-19.4,18.7-38.1,29-56.6c-7.7-2.4-18.1,3.6-24.7,7c-8.1,4.1-15.7,9-23,14.4
		c-13.7,10.1-25.5,22.6-36.1,36c5.5-14.7,11.8-31.4,12.7-47.3c0.2-4.5,1.4-15.7-5.6-15.2c-7.1,0.5-13.9,1.7-20.9,3
		c10.7,2.4,1.2,31.3-1,36.9c-2.1,5.4-4.5,10.9-7.1,16.1c-2.6,5.8,6.1-1,7.2-2.8c-5.6,25.6-19.5,50.8-31.2,74
		c-6.3,12.5-12.8,25-19.5,37.3c-4.5,8.3-8.9,19.1-15.7,25.8c7.6-1.4,14.7,3.7,22.4,0.4c5.8-2.5,9.1-9.7,11.6-15
		c6.4-15.9,12.9-31.9,19.3-47.8c8.4-20.9,16.2-41.8,29.4-60.3c9.8-13.8,23.7-29.4,38.6-37.7c2.2-1.2,8.2-4.6,10.2-1.2
		c1.8,3.2-1.1,8.2-2.7,10.8c-5,8.1-10.2,16.3-14.2,25c-6,13-11.8,38.1,7.3,43.3c20.3,5.5,35.4-17,44.3-31.9
		c5-8.3,9.2-17.1,13.4-25.9C673.9,176.1,674.8,169.3,670.8,172.1z"/>
	<path fill="#F8F7F3" d="M853.9,177.7c0.5-1.1,0.4-0.8,0.1-0.2c0.7-1.9,1.4-8-2.5-5.4c-2.1,1.5-3.1,5.1-4.2,7.3
		c-3.9,8-7.9,16-12.7,23.5c-3,4.7-27,38.5-33.2,22.1c-2.2-5.9,0.4-13.7,2.3-19.3c2.9-8.6,6.7-16.9,10.5-25.2
		c7.4-16.3,16-32.1,24.7-47.8c-7.5-2.5-18.3,3.7-24.7,7c-8.1,4.1-15.7,9-23,14.4c-13.7,10.1-25.2,22.6-35.8,36
		c6.5-13.4,14.6-26.1,20.9-39.6c2.3-5,5.6-11.9,0.1-16.1c-4.4-3.4-9.8-1.8-14.3,0.5c-12.3,6.3-22.3,16.6-32.5,25.7
		c-10.1,9-19.1,18.9-27.5,29.5c5.5-11.5,11.6-22.8,18.2-33.7c4.9-8.1,10.9-20.2,19.5-24.9c-10.1,1.8-18.8-4.9-26.7,4.8
		c-7.2,8.8-12,20-17.2,30.1c-11.8,23.1-22.1,46.9-33.7,70.1c4.8-3,11.3-1.3,16.7-2.3c5.8-1.1,8-9.3,10.5-13.9
		c6.2-11.2,12.9-22.3,20.8-32.4c5.9-7.5,12.2-14.4,19.2-20.9c4.8-4.4,10.5-10.8,17-12.7c7.8-2.3-1.4,17-2.4,19.2
		c-4.1,9.3-8.9,18.4-12.8,27.9c-3.3,8.1-7.4,20.2-2.7,28.4c1.8,3.1,4.6,5.1,8.3,5.1c0.9-4.1,2.5-8,4.4-11.8
		c8.8-18.4,21.5-35.6,35.6-50.3c6-6.3,12.9-12.9,20.8-16.6c9.9-4.6,9.3,4.2,5.4,10.8c-9,14.6-21.6,32.5-19.9,50.6
		c0.8,9.3,5.7,16.4,15.3,18.2c9.6,1.7,17.7-2.8,24.5-9.2c14.1-13.2,22.8-31.3,31-48.5C853.7,178,853.8,177.8,853.9,177.7z"/>
	<path fill="#F8F7F3" d="M843,96.6C841.3,99.1,843.2,96.4,843,96.6L843,96.6z"/>
	<path fill="#F8F7F3" d="M737,117.1c2.6,0,3-0.5,4.6-2.3c3.1-3.4,7.3-6,11.8-6.8c10.4-1.8,21.5,2.4,31.3,5.3
		c10.8,3.2,22.3,6.5,33.4,2.9c10.4-3.4,18.8-10.6,24.8-19.6c0.3-0.3-7.5-2-7.5-0.3c-3,3.8-7.3,7.2-12.1,8.4
		c-11,2.9-23.2-1.9-33.7-4.9c-10.9-3.1-23-5.7-34.1-2.4c-9.4,2.9-18.2,10.4-24.2,18.1C731.4,117.1,736.3,117.1,737,117.1z"/>
	<path fill="#F8F7F3" d="M979.2,176.2c-3.2,6.4-6.4,12.9-9.9,19.2c-5.7,10.3-17.9,34.8-32.6,32.7c-14.2-2.1-1.2-31.3,2.1-37.9
		c5.5-11.5,11.6-22.8,18.2-33.7c4.9-8.1,10.9-20.2,19.5-24.9c-7.6,1.4-14.8-3.6-22.2,0.7c-4.9,2.8-8,8.8-10.7,13.5
		c-5.7,10-10.9,20.2-16,30.5c-0.9,1.1-2,2-3.2,2.5c-5.4,2.1-12-2-16.8-4c-4.7-1.9-10.8-3.1-15.6-1c3.1-5.8,6.4-11.6,9.8-17.3
		c4.9-8.1,10.9-20.2,19.5-24.9c-10.1,1.8-18.8-4.9-26.7,4.8c-7.2,8.9-12.1,20-17.2,30.1c-11.9,23.3-22.5,47.3-34.2,70.7
		c4.7-3,11.4-1.4,16.7-2.2c6.1-0.9,7.6-8.7,9.8-13.5c4.5-10.3,9.1-20.6,13.8-30.8c0-0.1,0.1-0.2,0.2-0.5c1.3-2.6,1.1-2.2,0.6-1.3
		c0.6-1.2,1.2-2.4,1.8-3.6c2-1.8,4-4.2,6.2-4.4c6.3-0.8,11.5,3.3,17.1,5.2c5.1,1.8,9.8,1.4,13.7-0.4c-0.7,1.5-1.4,3.1-2.2,4.6
		c-3.6,7.6-7.5,14.5-6.5,23.2c0.7,6.3,2.5,12.9,7,17.6c11.9,12.4,27.8,0.6,36.6-9.3c11-12.4,18.4-27.5,25.5-42.3
		C986.6,172.7,982.8,168.8,979.2,176.2z M933.4,173C933.8,172.6,932.1,176.5,933.4,173L933.4,173z"/>
	<path fill="#F8F7F3" d="M883.3,190.6c-0.2,0.3,0.5-0.9,0.9-1.8c-0.2,0.4-0.4,0.9-0.6,1.3C883.4,190.3,883.4,190.5,883.3,190.6z"/>
	<path fill="#F8F7F3" d="M1050.5,168.5c0.2-0.2,0.5-0.4,0.7-0.5c0.4-0.4,0.9-0.7,1.3-1.1C1052.1,167.1,1050.3,168.7,1050.5,168.5z"
		/>
	<path fill="#F8F7F3" d="M1082.5,179.5c-0.1,0.1,0.2-0.4,1.1-2.4c2.4-4.9-1.9-5.9-4.6-2.2c-2.7,3.7-4.2,8.7-6.2,12.8
		c-4.8,9.7-10.2,19.1-17.5,27.1c-9.6,10.5-35.6,26.3-42.4,4.5c-2.8-9.1-1-19.9,1.8-28.8c1.5-4.6,4.9-3.3,9.3-4.3
		c4.3-0.9,8.6-2.2,12.8-3.7c16.6-6,33.6-18.9,38.8-36.5c3-10-1.4-19.1-12-21.2c-9.1-1.8-18.8,2-26.4,6.8
		c-16.7,10.4-28.9,27.1-36.5,45c-6.4,14.8-12.2,38.3,1.2,51.2c13.6,13,35.8,10,49.6-0.8C1066.9,215.1,1074.6,196.6,1082.5,179.5z
		 M1055.1,134.6c2.7-1.8,7.9-5.2,11.2-2.7c3.3,2.5,1.9,8.8,1,12.1c-2.4,8.8-8.2,16.8-14.9,22.9c0.2-0.1-0.1,0.1-1.3,1.1
		c-0.4,0.3-0.6,0.5-0.7,0.5c-8.8,6.8-21,13.2-32.3,13.2C1026.8,164.4,1038.8,145.5,1055.1,134.6z"/>
	<path fill="#F8F7F3" d="M1083.6,177c-0.4,0.8-0.7,1.6-1.1,2.4C1082.6,179.2,1084.1,175.9,1083.6,177z"/>
	<path fill="#F8F7F3" d="M1216.4,172.1c-2.4,1.7-3.7,6.2-5,8.8c-4.9,9.7-10,19.2-16.2,28.1c-4.9,7-11.4,16.6-20,19.3
		c-19.3,5.9-2.4-33.4,0-38.8c8.6-19.4,18.7-38.1,29-56.6c-7.7-2.4-18.1,3.6-24.7,7c-8.1,4.1-15.7,9-23,14.4
		c-13.7,10.1-25.5,22.6-36.1,36c5.5-14.7,11.8-31.4,12.7-47.3c0.2-4.5,1.4-15.7-5.6-15.2c-7.1,0.5-13.9,1.7-20.9,3
		c10.7,2.4,1.2,31.3-1,36.9c-2.1,5.4-4.5,10.9-7.1,16.1c-2.6,5.8,6.1-1,7.2-2.8c-5.6,25.6-19.5,50.8-31.2,74
		c-6.3,12.5-12.8,25-19.5,37.3c-4.5,8.3-8.9,19.1-15.7,25.8c7.6-1.4,14.7,3.7,22.4,0.4c5.8-2.5,9.1-9.7,11.6-15
		c6.4-15.9,12.9-31.9,19.3-47.8c8.4-20.9,16.2-41.8,29.4-60.3c9.8-13.8,23.7-29.4,38.6-37.7c2.2-1.2,8.2-4.6,10.2-1.2
		c1.8,3.2-1.1,8.2-2.7,10.8c-5,8.1-10.2,16.3-14.2,25c-6,13-11.8,38.1,7.3,43.3c20.3,5.5,35.4-17,44.3-31.9
		c5-8.3,9.2-17.1,13.4-25.9C1219.6,176.1,1220.4,169.3,1216.4,172.1z"/>
	<path fill="#F8F7F3" d="M1352.8,178c0.7-1.6,1.6-8.4-2.4-5.6c-3,2.1-4.6,8.2-6.2,11.4c-4.1,8.2-8.4,16.3-13.4,23.9
		c-4.5,6.8-10.4,14.9-18.1,18.3c-7.2,3.2-12.5-1.5-12.6-9c-0.2-16.1,9.6-32.8,16.3-46.9c7.3-15.4,13.7-31.1,27.1-42.1
		c-5.4,0-10.9,0-16.3,0c-12.1,0-14.4,10.2-19,19.6c-11.7,24-23.6,50.1-41.8,70c-5.2,5.7-20.6,17.6-22.9,2.9
		c-1.7-10.9,4-21.8,8.5-31.3c5.6-11.8,11-23.7,17.2-35.2c4.8-10,10.5-19.9,19.9-26.2c-8.2,0-24.9-3-30.2,4.8
		c-6,8.8-10,19.8-14.9,29.2c-2.4,4.7-4.8,9.5-7.2,14.2c-1.4,2.9-5.3,8.4,0.9,8.4c-5,9.9-11.5,19.7-11.1,31.2
		c0.3,10,6.4,17.6,16.6,18.7c21.2,2.4,36.7-24,45.6-39.7c-3.2,9.7-5.2,21.9-0.2,31.4c4.8,9.1,16.1,10.2,24.7,6.2
		c19.5-9,30.2-34.3,38.7-52.9C1351.9,180.1,1351.9,180,1352.8,178z"/>
	<path fill="#F8F7F3" d="M1352.8,178c-0.2,0.5-0.5,1-0.7,1.6C1352.5,178.7,1353.7,176,1352.8,178z"/>
</g>
</svg>
