<!-- Generator: Adobe Illustrator 18.0.0, SVG Export Plug-In  -->
<svg version="1.1"
   xmlns="http://www.w3.org/2000/svg" xmlns:xlink="http://www.w3.org/1999/xlink" xmlns:a="http://ns.adobe.com/AdobeSVGViewerExtensions/3.0/"
   x="0px" y="0px" width="19.6px" height="16px" viewBox="0 0 19.6 16" enable-background="new 0 0 19.6 16" xml:space="preserve">
<defs>
</defs>
<g>
  <g>
    <path fill="#FF9800" d="M9.8,3.1C6.3-2.5-0.2,0.2,0,5.2c0,0.8,0.3,3,3.2,4.9C9,13.9,9.8,16,9.8,16S9.8,3.1,9.8,3.1z"/>
  </g>
  <g>
    <path fill="#FFEB3B" d="M9.8,3.1c3.5-5.6,10.1-2.9,9.8,2.1c0,0.8-0.3,3-3.2,4.9C10.7,13.9,9.8,16,9.8,16S9.8,3.1,9.8,3.1z"/>
  </g>
  <g>
    <path fill="#00BCD4" d="M19.3,7c-0.4,1-1.3,2.1-2.9,3.2C10.6,13.9,9.6,16,9.6,16s0-5,0-9C11.6,7,18.3,7,19.3,7z"/>
  </g>
  <g>
    <path fill="#2196F3" d="M0.4,7c0.4,1,1.1,2.1,2.8,3.2C8.9,13.9,9.6,16,9.6,16s0-5,0-9C8.6,7,1.3,7,0.4,7z"/>
  </g>
</g>
</svg>
