<?xml version="1.0" encoding="utf-8"?>
<!-- Generator: Adobe Illustrator 18.0.0, SVG Export Plug-In . SVG Version: 6.00 Build 0)  -->
<!DOCTYPE svg PUBLIC "-//W3C//DTD SVG 1.1//EN" "http://www.w3.org/Graphics/SVG/1.1/DTD/svg11.dtd">
<svg version="1.1" id="Layer_1" xmlns="http://www.w3.org/2000/svg" xmlns:xlink="http://www.w3.org/1999/xlink" x="0px" y="0px"
	 viewBox="0 0 245 75" enable-background="new 0 0 245 75" xml:space="preserve">
<g>
	<path fill="#D81B60" d="M45.7,24.9C45.7,24.9,45.7,24.9,45.7,24.9C45.7,24.9,45.6,24.9,45.7,24.9c-7.8-12.2-21.8-6.2-21.3,4.6
		c0.1,1.7,0.7,6.5,7,10.6c12.4,8.1,14.2,12.7,14.2,12.7s0,0,0,0c0,0,0,0,0,0s1.8-4.6,14.2-12.7c6.3-4.1,6.9-8.9,7-10.6
		C67.5,18.7,53.4,12.8,45.7,24.9z"/>
	<g>
		<g>
			<path fill="#8D6E63" d="M191.8,46.1h-77.6c-0.2,0-0.4-0.1-0.4-0.3c0-0.2,0.2-0.3,0.4-0.3h77.6c0.2,0,0.4,0.2,0.4,0.3
				C192.2,46,192,46.1,191.8,46.1z"/>
		</g>
		<g>
			<path fill="#8D6E63" d="M244.3,46.1h-40.4c-0.2,0-0.3-0.1-0.3-0.3c0-0.2,0.2-0.3,0.3-0.3h40.4c0.2,0,0.3,0.2,0.3,0.3
				C244.6,46,244.5,46.1,244.3,46.1z"/>
		</g>
	</g>
	<g>
		<path fill="#FFFFFF" d="M171.4,32.4c-0.1,0-0.7,0.7-1.9,2.1c-1.2,1.4-2.1,2.1-2.7,2.1c-0.9,0-1.3-1-1.3-3.1c0-2.2,0.3-3.9,1-5
			c0.1-0.1,0.2-0.2,0.4-0.3c0.2-0.1,0.3-0.1,0.3-0.1c0-0.1,0-0.2-0.1-0.3c-0.5-0.7-1.2-1.1-2.2-1.1c-0.5,0-0.9,0.1-1.4,0.3
			c-1.3,0.5-2.7,1.7-4.2,3.9c-1.4,2.1-2.2,3.9-2.2,5.4c0,1,0.4,1.5,1.3,1.5c1.5,0,3.2-1.7,5.1-5.1c-0.1,0.5-0.1,0.9-0.1,1.3
			c0,2.5,0.9,3.7,2.6,3.7c0.5,0,1-0.1,1.6-0.4c1.1-0.6,2.3-1.9,3.6-3.9c0.2-0.3,0.3-0.5,0.3-0.6C171.5,32.4,171.5,32.4,171.4,32.4z
			 M161.7,34.3c-1,1.3-1.8,2-2.5,2c-0.4,0-0.6-0.3-0.6-0.9c0-1.3,0.9-3.1,2.6-5.2c1.2-1.5,2.4-2.2,3.6-2.2c0.1,0,0.3,0,0.4,0
			C164.3,30.5,163.1,32.6,161.7,34.3z"/>
		<path fill="#FFFFFF" d="M225.5,28.5c0-0.3-0.1-0.6-0.3-0.8c-0.2-0.2-0.5-0.3-0.7-0.3c-0.2,0-0.4,0.1-0.7,0.4
			c-0.3,0.7-0.5,1.3-0.8,1.7c-0.3,0.4-0.5,0.8-0.8,1.4c-2.1,3.5-3.5,5.2-4.4,5.2c-0.6,0-0.8-0.5-0.8-1.4c0-0.7,1.1-3.9,1.8-5.2
			l1.2-2.1c0-0.2-0.2-0.4-0.7-0.4c-0.8,0-1.6,0.8-2.2,2.3c-0.4,0.8-0.9,2.2-1.2,3.4c-2.9,3.5-5.5,5.2-7.9,5.3
			c1.4-0.9,2.7-2.5,3.9-4.7c1.2-2.2,1.8-4.2,1.8-5.9c0-1.4-0.5-2-1.4-2c-1,0-2.3,0.9-3.7,2.8c-1,1.2-1.9,2.6-2.7,4.1
			c0-0.3,0-0.7,0.1-1.2c0-0.6,0.1-1,0.1-1.3c0-2-0.5-2.9-1.5-2.9c-0.9,0-1.3,0.1-1.3,0.2c0,0.1,0.1,0.3,0.2,0.4
			c0.2,0.2,0.2,0.4,0.2,0.7c0,1.4-0.6,2.9-1.8,4.6c-0.1,0.1-0.2,0.2-0.3,0.3c-0.8,0.9-1.7,1.7-2.8,2.5c-1.3,0.8-2.4,1.2-3.4,1.2
			c-1.1,0-1.6-0.6-1.6-1.8c0-0.5,0.1-1.1,0.3-1.8c1-0.4,2.1-1.1,3.3-2.2c1.4-1.3,2-2.3,2-3.2c0-0.3-0.1-0.6-0.3-0.8
			c-0.2-0.3-0.5-0.4-0.8-0.4c-1.5,0-2.9,0.9-4.3,2.8c-1.2,1.6-1.8,3.1-1.9,4.5c-1.8,1.9-3.5,2.9-5.2,2.9c-1.5,0-2.3-0.9-2.3-2.7
			c0-1.1,0.4-2.3,1.2-3.5c0.8-1.3,1.8-2,2.8-2c0.7,0,1.1,0.3,1.1,0.9c0,0.1,0,0.3-0.1,0.6c-0.1,0.3-0.2,0.4-0.2,0.6
			c0,0.1,0.1,0.2,0.2,0.2c0.3,0,0.6-0.4,1-1.1c0.4-0.7,0.6-1.2,0.6-1.5c0-0.7-0.5-1.1-1.4-1.1c-1.4,0-2.9,0.8-4.4,2.5
			c-1.6,1.7-2.3,3.2-2.3,4.7c0,2.3,1.1,3.4,3.2,3.4c1.1,0,2.2-0.3,3.3-1c1-0.7,1.9-1.4,2.6-2.1c0.1,2,1,3,2.7,3
			c1.3,0,2.7-0.5,4.2-1.5c1.2-0.8,2.1-1.6,2.8-2.5c0.3,0,1-0.9,2-2.7c0,0.8,0,1.7,0,2.7v0.3c-1.9,2.6-3.7,5.1-5.6,7.6
			c-2.6,3.8-3.9,6.4-3.9,7.8c0,1.1,0.4,1.6,1.1,1.6c1.4,0,3.1-1.8,5.3-5.3c1.5-2.5,2.7-4.9,3.6-7.2c0.7,0.2,1.2,0.3,1.3,0.3
			c0.3,0,0.6,0,1.1,0c0.5,0,0.9,0,1.2,0c1.3,0,2.8-0.7,4.7-2.1c1.1-0.8,2-1.6,2.7-2.4c0,0.2-0.1,0.4-0.1,0.6c0,1.7,0.5,2.5,1.5,2.5
			c0.8,0,1.7-0.6,2.6-1.7c0.1-0.2,0.4-0.5,0.7-0.9c0.3-0.4,0.7-1,1.2-1.7c-0.2,0.4-0.4,0.8-0.5,1.3c-0.1,0.5-0.2,1-0.2,1.4
			c0,0.9,0.3,1.4,0.9,1.8c1.1,0.8,2.9-0.8,3-0.9c0.1,0,0.1-0.1,0.2-0.2c0,0.7-0.2,1.3-0.5,2c-0.4,1-1,1.5-1.8,1.5
			c-0.3,0-0.6-0.1-1-0.3c-0.4-0.2-0.6-0.4-0.6-0.3c-0.2,0-0.4,0.1-0.5,0.3c-0.1,0.3,0.1,0.6,0.8,0.9c0.6,0.2,1,0.4,1.4,0.4
			c0.9-0.1,1.6-0.6,2-1.6c0.1-0.3,0.3-0.7,0.4-1.1c0.1-0.4,0.2-0.8,0.2-1.3c0.1-0.4,0.1-0.8,0-1c0.2-0.2,0.2-0.5,0.2-0.6
			c-0.1-0.2-0.2-0.3-0.3-0.1c-0.6,0.6-1,1.1-1.4,1.4c-0.4,0.3-0.6,0.5-0.9,0.5c-0.2,0-0.4,0-0.4-0.2c-0.1-0.2-0.1-0.4-0.1-0.7
			c0-1,0.5-2.6,1.6-4.6L225.5,28.5z M195.7,29.6c0.8-1.3,1.5-2,1.9-2c0.3,0,0.5,0.2,0.5,0.5c0,0.7-0.5,1.5-1.4,2.4
			c-0.8,0.8-1.6,1.4-2.3,1.7C194.5,31.6,195,30.8,195.7,29.6z M203.3,37.6c-0.7,2.7-1.3,4.6-1.9,5.6c-2.2,4.1-4,6.2-5.2,6.2
			c-0.2,0-0.3-0.1-0.3-0.4c0-0.6,0.5-1.9,1.6-4c0.9-1.8,1.7-3.1,2.3-3.9c1.4-2,2.4-3.5,3.1-4.6c0.2-0.3,0.4-0.4,0.5-0.4
			c0,0,0.1,0,0.1,0c-0.2,0.3-0.3,0.6-0.3,0.9C203.3,37.3,203.3,37.4,203.3,37.6z M206.8,37.5c-0.7,0.3-2.1,0-1.6-1.4
			c0.6-1.7,1.2-3.4,2.1-5c1.1-2.2,2.2-3.6,3.3-4c0.1-0.1,0.3-0.1,0.4-0.1c0.5,0,0.7,0.4,0.7,1.3c0,1.5-0.5,3.3-1.5,5.3
			C209.1,35.9,208.1,37,206.8,37.5z"/>
		<path fill="#FFFFFF" d="M243.5,32.2c-0.1,0-0.4,0.4-1,1.3c-0.7,1-1.4,1.8-2,2.3c-0.9,0.8-1.8,1.2-2.6,1.2c-1,0-1.6-0.5-1.6-1.6
			c0-0.5,0.1-1.1,0.4-1.5c0.3-0.5,0.6-1.1,0.9-1.7c0.1-0.3,0.2-0.5,0.2-0.5c0-0.6-0.3-0.9-0.9-1c0,0-0.1,0.1-0.3,0.2
			c-0.2,0.1-0.5,0.5-0.9,1.2c-0.1,0.1-0.3,0.1-0.4,0.1c-0.1,0-0.3,0-0.4,0c0.3-0.3,0.6-0.8,0.7-1.3c0.2-0.5,0.3-1,0.3-1.6
			c0-0.5,0-1.1-0.2-1.5c-0.1-0.5-0.4-0.8-0.7-1.1c-0.3-0.3-0.8-0.4-1.3-0.4c-0.5,0-1.2,0.2-2,0.7c-1.1,0.6-1.8,1.3-2.1,2
			c-0.3,0.7-0.4,1.3-0.1,1.9c0.2,0.6,0.7,1.1,1.4,1.4c0.7,0.4,1.4,0.6,2.3,0.6c-0.3,0.5-0.6,0.9-0.8,1.1c-0.9,1.2-1.6,2-2.3,2.5
			c-0.7,0.5-1.2,0.6-1.6,0.5c-0.4-0.1-0.6-0.6-0.6-1.3c0-0.7,0.2-1.7,0.7-2.8c-0.1-0.2-0.2-0.4-0.4-0.5c-0.2-0.2-0.4-0.2-0.7-0.2
			c-0.3,0-0.5,0.1-0.7,0.3c-0.2,0.2-0.4,0.6-0.5,1.1c-0.2,1.1-0.2,2,0.1,2.7c0.3,0.7,0.7,1.1,1.3,1.3c0.6,0.2,1.3,0.2,2-0.1
			c0.8-0.3,1.6-0.8,2.4-1.6c0.1-0.1,0.5-0.5,0.9-1.1c0.5-0.6,1-1.2,1.5-1.9c0.1,0,0.3,0,0.5,0c0.2,0,0.3-0.1,0.5-0.1
			c-0.2,0.5-0.4,0.9-0.5,1.3c0,0.2,0,0.3,0,0.5c0,0.2,0,0.4,0,0.6c0,2.1,0.8,3.1,2.5,3.1c2.1,0,4.1-1.6,6.1-4.9
			c0.2-0.3,0.3-0.5,0.3-0.7C243.6,32.3,243.6,32.2,243.5,32.2z M233.7,31.9c-0.8-0.2-1.4-0.6-1.8-1.2c-0.4-0.6-0.7-1.1-0.6-1.7
			c0-0.5,0.3-0.9,0.8-1.2c0.5-0.3,1.4-0.2,2.6,0.2c0.2,0.1,0.3,0.2,0.3,0.5c0,0.3,0,0.6-0.1,0.9c-0.1,0.4-0.3,0.8-0.5,1.2
			C234.2,31.1,233.9,31.5,233.7,31.9z"/>
		<path fill="#FFFFFF" d="M156.1,25.4c-1.1,0-2.3,0.8-3.7,2.4c-1,1.2-1.9,2.4-2.6,3.7c0.3-1,0.7-2.1,1.2-3.2c0.5-1.1,1-2,1.5-2.8
			c3.1-1.9,5.8-4.1,8.1-6.4c3.6-3.7,5.4-6.6,5.4-8.7c0-1.2-0.6-1.8-1.9-1.8c-2.2,0-5.1,2.8-8.6,8.4c-2.3,3.6-3.9,6.3-4.8,8.1
			c-1.1,2.2-1.9,4.2-2.4,6c-0.5,1.7-0.8,3.2-0.8,4.2c0,1.6,0.5,2.3,1.6,2.3c0.1,0,0.2-0.1,0.2-0.2c0-0.1-0.1-0.3-0.3-0.4
			c-0.2-0.2-0.3-0.4-0.3-0.7c0-1.2,0.7-3,2.2-5.5c1.6-2.6,2.8-3.9,3.8-3.9c0.4,0,0.6,0.5,0.6,1.4c0,1.6-0.3,3-0.8,4.3
			c-0.6,1.5-1.4,2.8-2.3,3.9c-1.2,1.4-2.3,2-3.9,2.2c-5.3,0.2-7.6-2.6-8-3.1c2.1-1.4,3.9-3.1,5.2-5c1.6-2.2,2.4-4.5,2.4-6.7
			c0-3.8-2.1-6.6-6.3-8.5c-3.2-1.5-7-2.2-11.2-2.2c-1.9,0-4,0.2-6.2,0.5c-2.6,0.4-4.6,1-5.9,1.7c-0.9,0.5-1.3,1.1-1.3,1.7
			c0,0.4,0.2,0.6,0.6,0.6c0.1,0,0.3-0.1,0.6-0.2c3.8-2.1,8.1-3.2,12.9-3.2c3.6,0,6.9,0.6,9.7,1.9c3.6,1.7,5.5,4.2,5.5,7.5
			c0,2-0.7,4-2.1,6c-1.2,1.7-2.8,3.2-4.7,4.6c-2.8-3.7-8.1-5.6-15.8-5.8c2.3-4.6,4.8-8.8,7.5-12.4c0.1-0.1,0.1-0.2,0.1-0.3
			c0-0.2-0.2-0.3-0.6-0.3c-1,0-1.7,0.3-2.2,0.9c-0.9,1.4-1.6,2.5-2,3.4c-1.5,2.8-2.9,5.6-4.2,8.7c-2,0.1-3.9,0.7-5.4,1.7
			c-1.8,1.2-2.7,2.8-2.7,4.7c0,1.6,1.1,2.9,3.4,3.8c1.7,0.7,3.5,1.1,5.4,1.2c0.5,0,1.1,0,1.7,0c5.6,0,10.5-1.3,14.8-3.8
			c0.6,1,3.9,3.4,9.2,3.1c0.1,0,0.2,0,0.2,0c0,0,0.1,0,0.1,0c0.1,0,0.2,0,0.3,0c0.1,0,0.3-0.1,0.4-0.1c0,0,0.1,0,0.1,0c0,0,0,0,0,0
			c1-0.3,1.9-0.9,2.9-1.8c1.2-1.2,2.2-2.5,2.9-4.1c1.1-2.3,1.7-4.3,1.7-6.1C157.4,26,156.9,25.4,156.1,25.4z M153.8,22.3
			c2-4.6,4.4-8,7.2-10.2c1.6-1.3,2.7-1.9,3.5-1.9c0.5,0,0.7,0.3,0.7,0.9c-0.1,1.6-1.7,4-5,7.1c-2.7,2.7-5.1,4.6-7.2,5.8
			C153.2,23.7,153.5,23.1,153.8,22.3z M124,39.1c-0.4,0-0.8,0-1.1,0c-1.5-0.1-3-0.4-4.3-0.9c-1.8-0.7-2.6-1.8-2.6-3.1
			c0-2.9,1.9-4.7,5.7-5.3c-1.5,3.6-2.2,6-2.2,7.3c0,0.8,0.2,1.2,0.7,1.2c0.3,0,0.5-0.2,0.5-0.6c0-0.1,0-0.2,0-0.3c0-0.1,0-0.3,0-0.3
			c0-1.2,0.9-3.7,2.6-7.4c0.4,0,0.7,0,1.1,0c2.4,0,5,0.5,7.7,1.4c3,1,5.2,2.4,6.6,4C134.3,37.8,129.5,39.1,124,39.1z"/>
	</g>
	<g>
		<path fill="#8D6E63" d="M117.8,55.6c0,0.1-0.1,0.3-0.1,0.4c-0.1,0.1-0.2,0.1-0.4,0.1c-0.1,0-0.3,0-0.4-0.1
			c-0.1-0.1-0.2-0.2-0.2-0.4c0-0.1,0.1-0.3,0.2-0.4c0.1-0.1,0.2-0.2,0.4-0.2c0.1,0,0.3,0.1,0.4,0.2
			C117.7,55.3,117.8,55.4,117.8,55.6z M117.6,62.3c0,0.1,0,0.1,0,0.1c0,0-0.1,0-0.1,0H117c0,0-0.1,0-0.1,0c0,0,0-0.1,0-0.1v-5.1
			c0-0.1,0-0.1,0-0.1c0,0,0.1,0,0.1,0h0.5c0.1,0,0.1,0,0.1,0c0,0,0,0.1,0,0.1V62.3z"/>
		<path fill="#8D6E63" d="M127,59.6c0.2,0.1,0.3,0.1,0.5,0.2c0.1,0.1,0.2,0.2,0.3,0.3c0.1,0.1,0.1,0.2,0.2,0.4c0,0.1,0,0.3,0,0.4
			c0,0.2,0,0.4-0.1,0.6c-0.1,0.2-0.2,0.4-0.4,0.5c-0.2,0.1-0.3,0.2-0.6,0.3c-0.2,0.1-0.5,0.1-0.7,0.1h-2.3c-0.3,0-0.4-0.1-0.4-0.4
			v-4.6c0-0.3,0.1-0.4,0.4-0.4h2.2c0.5,0,0.9,0.1,1.2,0.3c0.3,0.2,0.5,0.6,0.5,1c0,0.2-0.1,0.4-0.2,0.7
			C127.5,59.3,127.3,59.4,127,59.6L127,59.6z M124.3,59.3h1.8c0.1,0,0.2,0,0.3,0c0.1,0,0.2-0.1,0.3-0.1c0.1-0.1,0.2-0.1,0.2-0.2
			c0.1-0.1,0.1-0.2,0.1-0.4c0-0.2-0.1-0.4-0.2-0.5c-0.1-0.1-0.4-0.2-0.6-0.2h-1.9L124.3,59.3L124.3,59.3z M127.2,60.8
			c0-0.3-0.1-0.5-0.3-0.7c-0.2-0.2-0.5-0.3-0.9-0.3h-1.8v2h1.8c0.2,0,0.4,0,0.6-0.1c0.2-0.1,0.3-0.2,0.4-0.3
			c0.1-0.1,0.1-0.2,0.2-0.3C127.2,61.1,127.2,60.9,127.2,60.8z"/>
		<path fill="#8D6E63" d="M135.6,56.9c0.4,0,0.7,0.1,1,0.2c0.3,0.1,0.5,0.3,0.7,0.5c0.2,0.2,0.3,0.4,0.4,0.7
			c0.1,0.3,0.1,0.6,0.1,0.9c0,0.3-0.1,0.5-0.2,0.6c-0.1,0.1-0.3,0.1-0.5,0.1H134c0,0.4,0,0.7,0.1,0.9c0.1,0.2,0.2,0.4,0.4,0.6
			c0.2,0.2,0.3,0.3,0.6,0.3c0.2,0.1,0.4,0.1,0.7,0.1c0.2,0,0.4,0,0.7-0.1c0.2-0.1,0.4-0.1,0.6-0.2c0.1,0,0.1,0,0.2,0l0.2,0.4
			c0,0.1,0,0.1-0.1,0.2c-0.2,0.1-0.5,0.2-0.8,0.3c-0.3,0.1-0.5,0.1-0.8,0.1c-0.8,0-1.3-0.2-1.8-0.7c-0.4-0.4-0.6-1.2-0.6-2.1
			c0-0.5,0.1-0.9,0.2-1.2c0.1-0.4,0.3-0.7,0.5-0.9c0.2-0.2,0.5-0.4,0.7-0.5C134.9,57,135.3,56.9,135.6,56.9z M137.1,59.3
			c0-0.2,0-0.5-0.1-0.7c0-0.2-0.1-0.4-0.2-0.6c-0.1-0.2-0.3-0.3-0.5-0.4c-0.2-0.1-0.4-0.1-0.7-0.1c-0.2,0-0.5,0-0.6,0.1
			c-0.2,0.1-0.3,0.2-0.5,0.4c-0.1,0.2-0.2,0.3-0.3,0.6c-0.1,0.2-0.1,0.4-0.1,0.7L137.1,59.3L137.1,59.3z"/>
		<path fill="#8D6E63" d="M144,62.4c0,0-0.1,0-0.1,0h-0.4c-0.1,0-0.1,0-0.1,0c0,0,0-0.1,0-0.1v-5.1c0-0.1,0-0.1,0-0.1
			c0,0,0.1,0,0.1,0h0.4c0.1,0,0.1,0,0.1,0c0,0,0,0.1,0,0.1v2h2.9v-2c0-0.1,0-0.1,0-0.1c0,0,0.1,0,0.1,0h0.4c0.1,0,0.1,0,0.1,0
			c0,0,0,0.1,0,0.1v5.1c0,0.1,0,0.1,0,0.1c0,0-0.1,0-0.1,0h-0.4c-0.1,0-0.1,0-0.1,0c0,0,0-0.1,0-0.1v-2.4H144v2.4
			C144,62.4,144,62.4,144,62.4z"/>
		<path fill="#8D6E63" d="M155.3,62.4c0,0-0.1,0-0.1,0h-0.4c-0.1,0-0.1,0-0.1,0c0,0,0-0.1,0-0.1v-4.6H153c-0.1,0-0.1,0-0.1,0
			c0,0,0-0.1,0-0.1v-0.3c0-0.1,0-0.1,0-0.1c0,0,0.1,0,0.1,0h4.1c0.1,0,0.1,0,0.1,0c0,0,0,0.1,0,0.1v0.3c0,0,0,0.1,0,0.1
			c0,0-0.1,0-0.1,0h-1.7v4.6C155.4,62.4,155.3,62.4,155.3,62.4z"/>
		<path fill="#8D6E63" d="M170.1,62.4c0,0-0.1,0-0.1,0h-0.5c-0.1,0-0.1,0-0.1,0c0,0,0-0.1,0-0.1v-5.1c0-0.1,0-0.1,0-0.1
			c0,0,0.1,0,0.1,0h0.5c0.1,0,0.1,0,0.1,0c0,0,0,0.1,0,0.1v2.1h1.1c0.1,0,0.2,0,0.3,0c0.1,0,0.2-0.1,0.3-0.1
			c0.1-0.1,0.2-0.1,0.2-0.2c0.1-0.1,0.1-0.2,0.2-0.4l0.4-1.3c0-0.1,0-0.1,0.1-0.1c0,0,0.1,0,0.1,0h0.5c0.1,0,0.1,0,0.1,0
			c0,0,0,0.1,0,0.1l-0.4,1.4c-0.1,0.2-0.1,0.4-0.2,0.6c-0.1,0.2-0.2,0.3-0.4,0.4l0,0c0.3,0.1,0.4,0.2,0.6,0.4
			c0.1,0.2,0.2,0.4,0.3,0.6l0.5,1.8c0,0,0,0.1,0,0.1c0,0,0,0.1-0.1,0.1H173c0,0-0.1,0-0.1,0c0,0,0,0-0.1-0.1l-0.5-1.7
			c-0.1-0.3-0.2-0.5-0.4-0.6c-0.2-0.1-0.4-0.2-0.6-0.2h-1.2v2.4C170.1,62.4,170.1,62.4,170.1,62.4z"/>
		<path fill="#8D6E63" d="M183.4,59.7c0,0.9-0.2,1.6-0.6,2.1c-0.4,0.5-1,0.7-1.8,0.7c-0.8,0-1.3-0.2-1.7-0.7
			c-0.4-0.5-0.6-1.2-0.6-2.1c0-0.5,0.1-0.9,0.2-1.2c0.1-0.4,0.3-0.6,0.5-0.9c0.2-0.2,0.5-0.4,0.7-0.5c0.3-0.1,0.6-0.2,1-0.2
			c0.8,0,1.3,0.2,1.8,0.7C183.2,58.2,183.4,58.9,183.4,59.7z M182.6,59.8c0-0.3,0-0.6-0.1-0.8c0-0.3-0.1-0.5-0.2-0.7
			c-0.1-0.2-0.3-0.4-0.5-0.5c-0.2-0.1-0.5-0.2-0.8-0.2c-0.3,0-0.5,0.1-0.7,0.2c-0.2,0.1-0.4,0.3-0.5,0.5c-0.1,0.2-0.2,0.4-0.3,0.7
			c-0.1,0.3-0.1,0.5-0.1,0.8c0,0.3,0,0.6,0.1,0.9c0.1,0.3,0.1,0.5,0.3,0.7c0.1,0.2,0.3,0.4,0.5,0.5c0.2,0.1,0.5,0.2,0.8,0.2
			c0.3,0,0.6-0.1,0.8-0.2c0.2-0.1,0.4-0.3,0.5-0.5c0.1-0.2,0.2-0.4,0.3-0.7C182.6,60.3,182.6,60,182.6,59.8z"/>
		<path fill="#8D6E63" d="M189.6,58.3v4c0,0.1,0,0.1,0,0.1c0,0-0.1,0-0.1,0H189c-0.1,0-0.1,0-0.1,0c0,0,0-0.1,0-0.1v-4.9
			c0-0.1,0-0.2,0.1-0.2c0.1-0.1,0.1-0.1,0.3-0.1h0.3c0.1,0,0.2,0,0.2,0.1c0.1,0,0.1,0.1,0.2,0.2c0.1,0.1,0.1,0.3,0.3,0.5
			c0.1,0.2,0.2,0.5,0.3,0.7c0.1,0.2,0.2,0.5,0.3,0.7c0.1,0.2,0.2,0.4,0.2,0.5l0.6,1.3h0c0-0.1,0.1-0.2,0.2-0.4
			c0.1-0.2,0.1-0.3,0.2-0.5c0.1-0.2,0.2-0.3,0.2-0.5c0.1-0.2,0.1-0.3,0.2-0.3c0.1-0.1,0.1-0.2,0.2-0.4c0.1-0.2,0.2-0.4,0.3-0.6
			c0.1-0.2,0.2-0.4,0.3-0.6c0.1-0.2,0.2-0.3,0.2-0.4c0.1-0.1,0.1-0.2,0.2-0.2c0.1,0,0.1-0.1,0.3-0.1h0.3c0.1,0,0.2,0,0.3,0.1
			c0.1,0.1,0.1,0.1,0.1,0.2v4.9c0,0.1,0,0.1,0,0.1c0,0-0.1,0-0.1,0H194c-0.1,0-0.1,0-0.1,0c0,0,0-0.1,0-0.1v-4.1h0l-0.5,1
			c0,0-0.1,0.1-0.1,0.3c-0.1,0.1-0.2,0.3-0.3,0.5c-0.1,0.2-0.2,0.4-0.3,0.7c-0.1,0.3-0.3,0.5-0.4,0.8c-0.1,0.1-0.1,0.2-0.1,0.2
			c-0.1,0-0.1,0.1-0.2,0.1h-0.2c-0.1,0-0.2,0-0.2-0.1c-0.1,0-0.1-0.1-0.1-0.2l-1.1-2.3c0,0-0.1-0.1-0.1-0.2c0-0.1-0.1-0.2-0.1-0.3
			c-0.1-0.1-0.1-0.2-0.1-0.3C189.6,58.4,189.6,58.3,189.6,58.3L189.6,58.3L189.6,58.3z"/>
		<path fill="#8D6E63" d="M200.9,62.4c0,0-0.1,0-0.1,0h-0.5c-0.1,0-0.1,0-0.1,0c0,0,0-0.1,0-0.1v-4.9c0-0.1,0-0.2,0.1-0.3
			c0.1-0.1,0.2-0.1,0.3-0.1h3.7c0.2,0,0.3,0,0.3,0.1c0.1,0.1,0.1,0.2,0.1,0.3v4.9c0,0.1,0,0.1,0,0.1c0,0-0.1,0-0.1,0h-0.5
			c-0.1,0-0.1,0-0.1,0c0,0,0-0.1,0-0.1v-4.6h-3v4.6C201,62.4,200.9,62.4,200.9,62.4z"/>
		<path fill="#8D6E63" d="M214.5,62c0,0.1,0,0.2-0.1,0.2c-0.3,0.1-0.6,0.2-1,0.3c-0.3,0-0.7,0.1-1,0.1c-0.4,0-0.8,0-1.1-0.1
			c-0.3-0.1-0.5-0.2-0.7-0.4c-0.2-0.2-0.3-0.3-0.3-0.5c-0.1-0.2-0.1-0.4-0.1-0.6c0-0.3,0-0.5,0.1-0.7c0.1-0.2,0.2-0.4,0.4-0.6
			c0.2-0.2,0.4-0.3,0.7-0.4c0.3-0.1,0.6-0.1,1-0.1h1.4v-0.3c0-0.2,0-0.3-0.1-0.5c0-0.1-0.1-0.3-0.2-0.4c-0.1-0.1-0.2-0.2-0.4-0.2
			c-0.2-0.1-0.4-0.1-0.7-0.1c-0.2,0-0.5,0-0.7,0.1c-0.3,0-0.5,0.1-0.7,0.2c0,0-0.1,0-0.1,0c0,0,0,0-0.1-0.1l-0.1-0.4
			c0-0.1,0-0.1,0.1-0.2c0.1,0,0.3-0.1,0.4-0.1c0.1,0,0.3-0.1,0.4-0.1c0.2,0,0.3,0,0.5-0.1c0.2,0,0.3,0,0.4,0c0.7,0,1.2,0.1,1.5,0.4
			c0.3,0.3,0.5,0.7,0.5,1.3L214.5,62L214.5,62z M213.7,59.7h-1.3c-0.1,0-0.3,0-0.4,0c-0.2,0-0.3,0.1-0.5,0.1
			c-0.2,0.1-0.3,0.2-0.4,0.4c-0.1,0.2-0.2,0.4-0.2,0.6c0,0.2,0,0.4,0.1,0.5c0.1,0.1,0.2,0.3,0.3,0.3c0.1,0.1,0.3,0.1,0.5,0.2
			c0.2,0,0.3,0,0.5,0c0.1,0,0.1,0,0.3,0c0.1,0,0.2,0,0.4,0c0.1,0,0.3,0,0.4-0.1c0.1,0,0.3-0.1,0.4-0.1L213.7,59.7L213.7,59.7z"/>
		<path fill="#8D6E63" d="M220.9,62.4c0,0-0.1,0-0.1,0h-0.4c-0.1,0-0.1,0-0.1,0c0,0,0-0.1,0-0.1v-5.1c0-0.1,0-0.1,0-0.1
			c0,0,0.1,0,0.1,0h0.4c0.1,0,0.1,0,0.1,0c0,0,0,0.1,0,0.1v2h2.9v-2c0-0.1,0-0.1,0-0.1c0,0,0.1,0,0.1,0h0.4c0.1,0,0.1,0,0.1,0
			c0,0,0,0.1,0,0.1v5.1c0,0.1,0,0.1,0,0.1c0,0-0.1,0-0.1,0h-0.4c-0.1,0-0.1,0-0.1,0c0,0,0-0.1,0-0.1v-2.4h-2.9v2.4
			C220.9,62.4,220.9,62.4,220.9,62.4z"/>
		<path fill="#8D6E63" d="M231.3,55.6c0,0.1-0.1,0.3-0.1,0.4c-0.1,0.1-0.2,0.1-0.4,0.1c-0.1,0-0.3,0-0.4-0.1
			c-0.1-0.1-0.2-0.2-0.2-0.4c0-0.1,0-0.3,0.2-0.4c0.1-0.1,0.2-0.2,0.4-0.2c0.1,0,0.3,0.1,0.4,0.2C231.3,55.3,231.3,55.4,231.3,55.6z
			 M231.2,62.3c0,0.1,0,0.1,0,0.1c0,0-0.1,0-0.1,0h-0.5c0,0-0.1,0-0.1,0c0,0,0-0.1,0-0.1v-5.1c0-0.1,0-0.1,0-0.1c0,0,0.1,0,0.1,0
			h0.5c0.1,0,0.1,0,0.1,0c0,0,0,0.1,0,0.1V62.3z"/>
		<path fill="#8D6E63" d="M240.9,57.1c0.1,0,0.2,0,0.3,0.1c0.1,0.1,0.1,0.2,0.1,0.3v4.9c0,0.1,0,0.1,0,0.1c0,0-0.1,0-0.1,0h-0.5
			c-0.1,0-0.1,0-0.1,0c0,0,0,0,0-0.1v-2.2h-1.5c-0.1,0-0.3,0-0.4,0c-0.1,0-0.2,0.1-0.3,0.1c-0.1,0.1-0.2,0.1-0.3,0.2
			c-0.1,0.1-0.1,0.2-0.2,0.4c-0.1,0.2-0.1,0.5-0.2,0.7c-0.1,0.2-0.1,0.5-0.2,0.7c0,0.1,0,0.1-0.1,0.1c0,0-0.1,0-0.1,0h-0.5
			c-0.1,0-0.1,0-0.1-0.1c0,0,0,0,0,0c0,0,0,0,0,0l0.5-1.5c0.1-0.2,0.1-0.4,0.2-0.5c0.1-0.1,0.3-0.3,0.5-0.3c0,0,0,0,0,0
			c-0.3-0.1-0.6-0.3-0.7-0.5c-0.1-0.3-0.2-0.5-0.2-0.8c0-0.2,0-0.4,0.1-0.6c0.1-0.2,0.2-0.4,0.3-0.5c0.1-0.1,0.3-0.3,0.5-0.3
			c0.2-0.1,0.5-0.1,0.7-0.1L240.9,57.1L240.9,57.1z M238.7,57.7c-0.2,0-0.3,0-0.5,0.1c-0.1,0.1-0.2,0.1-0.3,0.2
			c-0.1,0.1-0.1,0.2-0.2,0.3c0,0.1-0.1,0.2-0.1,0.3c0,0.3,0.1,0.5,0.3,0.7c0.2,0.2,0.4,0.3,0.8,0.3h1.7v-1.8L238.7,57.7L238.7,57.7z
			"/>
	</g>
	<g>
		<path fill="#FFFFFF" d="M83.1,6.1c-6-6.3-15.5-8.1-23.3-3.7c-9.9,5.6-13.2,15.2-14.1,20.2c-0.9-5-4.3-14.5-14.1-20.2
			C23.7-2,14.3-0.2,8.3,6.1C3.7,10.9-0.4,18,0,24.8c0.6,10.9,5.8,17.3,15.5,23.6c19.3,12.5,26.5,21.2,29.1,24.9
			c0.3,0.5,0.5,0.8,0.5,0.8l0.6,0.9l0.6-0.9c0,0,0.2-0.4,0.5-0.9c2.6-3.8,9.9-12.4,29-24.9c9.7-6.3,14.9-12.7,15.5-23.6
			C91.7,18,87.6,10.9,83.1,6.1z M71.9,28.3c0.6,0.2,1.1,0.7,1.5,1.2c1.1,1.8-0.6,3.7-2.4,2.6c-0.3-0.2-0.6-0.5-0.9-0.8
			c0,0,0,0,0,0.1c-0.3,1.1,0.4,2.2,1.5,2.7c0.8,0.3,1.6,0.2,2.3-0.2c0.7-0.4,1.3-1.2,1.5-2.1c0-0.2,0.1-0.5,0.1-0.8
			c0-0.1,0-0.1,0-0.2c1.1,2,0.6,4.4-1.6,5.1c0.1,0.1,0.2,0.1,0.3,0.2c-0.5,0-1-0.1-1.5,0c-3.2,0.1-6.6,1.6-9.3,3.3
			c-0.4,0.3-0.8,0.6-1.2,0.9c-0.6,0.4-1.1,1-1.6,1.5c-0.2-0.2-0.4-0.3-0.6-0.5c0.2-0.1,0.3-0.2,0.5-0.3c4.5-2.9,7-6.7,7.3-10.9
			C68.5,28.6,70,27.8,71.9,28.3z M76.5,41.3c0.1,2-2.5,2.7-2.5,2.7c-3.7,1-7.6,0.3-11.2-0.9c-0.3-0.1-0.5-0.2-0.8-0.3
			c0.1-0.1,0.2-0.2,0.3-0.3C66,38.2,76.2,36.1,76.5,41.3z M36.2,50c1.2-1,2.5-1.1,3.8-0.1c1.7,1.3,1.4,4.2,0.5,5.8
			c0,0-1,2.6-6.1,2.9c0.3-1.5,0.4-3,0.4-4.5c0,0,0,0,0,0c0.7,0.6,1.5,0.7,2.1,0.6c0.6-0.1,1-0.4,1.4-0.8c0-0.1,0.1-0.1,0.1-0.1
			C36,54.3,34.6,51.8,36.2,50z M37.9,47.3c-1.7,0-2.9,0.7-3.5,2c-0.6-2.3-1.5-4.4-2.9-6.2c0.5-0.3,0.9-0.7,1.4-1
			c3.3,2.2,5.7,4.1,7.4,5.7C39.6,47.4,38.8,47.2,37.9,47.3z M29.3,40.2c-0.4-0.3-0.7-0.6-1.2-0.9c-2.7-1.8-6-3.2-9.3-3.3
			c-0.5,0-1,0-1.5,0c0.1-0.1,0.2-0.1,0.3-0.2c-2.2-0.7-2.8-3.1-1.6-5.1c0,0,0,0.1,0,0.2c0,0.3,0,0.5,0,0.8c0.2,1,0.8,1.7,1.5,2.1
			c0.7,0.4,1.4,0.5,2.3,0.2c1.1-0.4,1.8-1.5,1.5-2.7c0-0.1,0-0.1,0-0.1c-0.3,0.3-0.5,0.6-0.9,0.8c-1.8,1.1-3.5-0.7-2.4-2.6
			c0.3-0.6,0.9-1,1.5-1.2c2.1-0.6,3.3,0.4,4.2,1.8c0.4,4.1,2.9,7.8,7.3,10.7c0.2,0.1,0.3,0.2,0.5,0.3c-0.2,0.2-0.4,0.3-0.6,0.5
			C30.4,41.2,29.9,40.6,29.3,40.2z M29.3,42.7c-0.3,0.1-0.5,0.2-0.8,0.3c-3.6,1.2-7.4,1.9-11.2,0.9c0,0-2.6-0.6-2.5-2.7
			c0.3-5.2,10.5-3.1,14.2,1.1C29.1,42.5,29.2,42.6,29.3,42.7z M47.8,60.1c0.1,0.7,0.2,1.5,0.2,2.2c0,3.4-1.5,6.3-2.3,7.7
			c-0.8-1.4-2.3-4.4-2.3-7.7c0-0.4,0-0.8,0.1-1.2c0,0,0-0.1,0-0.1c0-0.2,0.1-0.5,0.1-0.7c0.1-0.3,0.1-0.7,0.2-1
			c0-0.2,0.1-0.4,0.1-0.5c0,0,0,0,0-0.1c0.5-1.8,1.3-3.3,1.8-4.2c0.6,1,1.6,2.9,2.1,5.1C47.7,59.9,47.8,60,47.8,60.1z M45.6,26.2
			C45.6,26.2,45.7,26.2,45.6,26.2c0.3,0,0.6-0.1,0.8-0.4c2.5-4,5.9-6.2,9.7-6.2c2.5,0,5,1.1,6.7,2.9c1.8,1.9,2.7,4.5,2.6,7.2
			c-0.2,3.7-2.4,7-6.4,9.6c-8.6,5.6-12,9.5-13.3,11.4c-1.3-1.9-4.7-5.8-13.3-11.4c-4-2.6-6.2-5.9-6.4-9.6c-0.1-2.7,0.8-5.3,2.6-7.2
			c1.8-1.8,4.2-2.9,6.7-2.9c3.7,0,7.2,2.2,9.7,6.2C45.1,26,45.4,26.2,45.6,26.2z M51.3,49.9c1.3-0.9,2.6-0.9,3.8,0.1
			c1.6,1.8,0.2,4.2-2.2,3.8c0,0,0,0,0.1,0.1c0.3,0.5,0.8,0.7,1.3,0.8c0.6,0.1,1.4,0,2.1-0.6c0,0,0,0,0,0c0,1.5,0.2,3,0.4,4.5
			c-5.1-0.3-6.1-2.9-6.1-2.9C49.9,54.2,49.6,51.2,51.3,49.9z M53.5,47.3c-0.9,0-1.7,0.1-2.3,0.5c1.7-1.6,4.1-3.5,7.4-5.7
			c0.4,0.3,0.9,0.7,1.4,1c-1.4,1.8-2.3,4-2.9,6.2C56.4,48,55.2,47.3,53.5,47.3z M4.3,28.4c-0.1,0.1-0.3,0.2-0.4,0.3
			c-0.2,0.1-0.3,0.2-0.4,0.4c-0.1,0.1-0.1,0.1-0.2,0.2c0,0,0,0,0,0c-0.1,0.1-0.1,0.1-0.1,0.1c-0.2,0.3-0.3,0.6-0.4,1
			c-0.6-1.8-0.9-3.7-1-5.6c-0.2-5,1.4-9.5,4.1-13.3c-0.6,1.9-0.7,3.8-0.5,5.8c0.4,5.2,5.4,10.3,10.9,9.7c0.4,0,0.7,0,1.1-0.1
			c1.4-0.2,2.8-0.8,4-1.6c2.7-1.7,4.1-4.2,4-7.4c0-1.3-0.5-3-1.8-4.2c-1.2-1.2-3.1-1.5-4.7-0.9c-0.8,0.3-1.5,1-2,1.8
			c-0.7,1.2-0.8,2.7,0,3.9c0.2,0.3,0.7,0.7,1.1,0.9c0.4,0.1,2.1,0.5,1.7,0.2c-4.3-2.7,2.3-7.1,3.5-2.2c0.1,2.2-0.7,4.7-2.8,6.1
			c-6.3,3.5-12.2-2.2-12.8-7C6.3,5.9,18.4,0.2,27.1,2.8c4.7,1.5,8.4,4.3,11.1,8.4c-0.5,2.8-3.2,5.6-6.3,4c-0.6-0.3-1.1-0.9-1.3-1.6
			c-0.7-2.2,1.7-3.6,3.4-2.1c0.3,0.2,0.5,0.5,0.6,0.7c0.1,0.2,0.2,0.3,0.2,0.3s0,0,0.1-0.1c0.7-2.4-1.7-3.9-3.6-3.4
			c-0.9,0.2-1.8,0.9-2.3,1.9c-0.1,0.2-0.2,0.5-0.3,0.8c0,0.1,0,0.1,0,0.2c-0.7-2.4,0.7-4.7,3.3-4.9c-1.2-1.7-4-2.8-5.1-0.4
			c-0.3-3.2-4.9-4-4.6-0.6c-3.1-5.3-11.7,2.1-7.5,5.6c-1.6-2.6,2.1-3.9,4.1-3.7c2.7,0.3,4.3,1.9,6.1,3.6c1.9,1.9,2.4,3.9,5.2,5.1
			c3.9,1.5,7,0.4,9.4-3.5c1.2,1.7,2.9,4.5,3.7,7.6c-2.4-2.2-5.3-3.4-8.3-3.4c-3.1,0-6,1.3-8.2,3.5c-1.8,1.9-2.9,4.4-3.1,7.1
			c-0.4-0.5-0.9-0.9-1.6-1.2c-0.4-0.2-1.5-0.8-3.8-0.3c-2.6,0.6-3.5,2.3-5.6,3.7c-1.9,1.2-3.6,2.4-5.9,2.2
			C5.2,32.3,2.3,30.4,4.3,28.4z M14.5,36.8c-0.3,0.1-0.4,0.3-0.6,0.4c-1.9,1.6-2.7,4.1-1.6,6.3c0.2,0.3,0.4,0.6,0.6,0.8
			c-3.4-2.7-6-5.7-7.8-8.9c1.2,0.8,2.8,0.9,4.2-0.6c-1.1,3.1,3,3.2,4,0.3C13.4,36.2,13.9,36.6,14.5,36.8L14.5,36.8z M14.5,45.6
			c2.5,1.3,6.6,1.2,10.2,0.5c-0.1,0.1-0.1,0.2-0.2,0.3c-0.3,0.5-0.5,1.1-0.6,1.7c-0.4,2,0.2,4,1.5,5.4
			C22.5,51.3,15.2,46.1,14.5,45.6z M26.5,45.7c1.2-0.4,4.2-1.8,4.2-1.8l0.9,1.2c0.9,1.3,1.5,2.8,1.8,4.3c-0.1-0.2-0.2-0.4-0.4-0.6
			c-0.6-0.7-1.5-1.2-2.4-1.3c-0.9-0.1-1.7,0.1-2.3,0.7c-0.5,0.4-0.8,1.1-0.8,1.7c0,0.6,0.2,1,0.5,1.4l0.6,0.4l0.1-0.5
			c0.3-0.7,0.6-1.5,1.7-1.4c1.5,0.1,1.3,2.1,0.4,2.8c-0.8,0.7-2.4,0.5-3.2,0C24.4,51.1,25,47.5,26.5,45.7z M33.2,58.6
			c-1.1-0.2-3.5-1.9-6.5-4.1c0.8,0.4,1.7,0.7,2.6,0.7c1,0,2.1-0.2,2.9-0.9c0.8-0.6,1.3-1.5,1.5-2.5C34,55.4,33.2,58.6,33.2,58.6z
			 M34.2,59.9c0,0,6.1,0.7,8.4-4.8c0.4-1,0.5-2.3,0.3-3.4c-0.1-0.7-0.4-1.4-0.7-2.1c1.5,1.6,2.2,2.6,2.5,3.1
			c-0.9,1.5-2.9,5.5-2.9,10.3c0,2,0.3,3.8,0.8,5.3C39,64.6,34.1,59.8,34.2,59.9z M48.8,68.5c0.5-1.6,0.8-3.4,0.8-5.3
			c0-4.8-2-8.8-2.9-10.3c0.3-0.5,1-1.5,2.4-3.1c-0.3,0.6-0.6,1.3-0.7,2c-0.2,1.2-0.1,2.4,0.3,3.4c2.3,5.5,8.4,4.8,8.4,4.8
			C57.3,59.8,52.4,64.6,48.8,68.5z M58.1,58.6c0,0-0.7-3.2-0.4-6.8c0.2,1,0.7,1.9,1.5,2.5c0.8,0.6,1.9,0.9,2.9,0.9
			c0.9,0,1.8-0.3,2.6-0.7C61.6,56.7,59.2,58.4,58.1,58.6z M63.8,52.6c-0.8,0.4-2.4,0.7-3.2,0c-0.8-0.7-1-2.7,0.4-2.8
			c1.1-0.1,1.4,0.7,1.7,1.4l0.1,0.5l0.6-0.4c0.4-0.4,0.6-0.8,0.5-1.4c0-0.6-0.3-1.3-0.8-1.7c-0.6-0.5-1.4-0.8-2.3-0.7
			c-0.9,0.1-1.8,0.6-2.4,1.3c-0.1,0.2-0.3,0.4-0.4,0.6c0.3-1.5,0.9-3.1,1.8-4.3l0.9-1.2c0,0,2.9,1.4,4.2,1.8
			C66.3,47.5,66.9,51.1,63.8,52.6z M66,53.4c1.3-1.3,1.9-3.3,1.5-5.4c-0.1-0.6-0.3-1.2-0.6-1.7c0-0.1-0.1-0.2-0.2-0.3
			c3.5,0.7,7.6,0.8,10.2-0.5C76.2,46.1,68.8,51.3,66,53.4z M78.4,44.4c0.2-0.3,0.5-0.5,0.6-0.8c1.2-2.2,0.3-4.7-1.6-6.3
			c-0.2-0.1-0.3-0.3-0.6-0.4l0,0c0.6-0.2,1.1-0.6,1.3-1.6c1,2.8,5.1,2.8,4-0.3c1.4,1.5,2.9,1.4,4.2,0.6
			C84.4,38.7,81.8,41.7,78.4,44.4z M89.6,24.8c-0.1,1.9-0.5,3.8-1,5.6c-0.1-0.3-0.2-0.7-0.4-1c0,0,0-0.1-0.1-0.1c0,0,0,0,0,0
			c0-0.1-0.1-0.1-0.2-0.2c-0.1-0.1-0.3-0.3-0.4-0.4c-0.1-0.1-0.3-0.2-0.4-0.3c2,2.1-0.9,4-2.6,4.1c-2.3,0.2-4.1-1-5.9-2.2
			c-2.1-1.4-2.9-3.1-5.6-3.7c-2.2-0.5-3.3,0.1-3.8,0.3c-0.6,0.3-1.1,0.7-1.6,1.2c-0.2-2.7-1.3-5.2-3.1-7.2c-2.1-2.2-5.1-3.5-8.2-3.5
			c-3,0-5.9,1.2-8.3,3.4c0.8-3.1,2.5-5.9,3.7-7.6c2.4,3.8,5.5,5,9.4,3.5c2.8-1.2,3.3-3.2,5.2-5.1c1.8-1.7,3.4-3.3,6.1-3.6
			c1.9-0.2,5.7,1.1,4.1,3.7c4.2-3.5-4.3-10.9-7.5-5.6c0.3-3.5-4.3-2.6-4.6,0.6c-1.1-2.3-3.9-1.2-5.1,0.4c2.6,0.2,4,2.5,3.3,4.9
			c0,0,0-0.1,0-0.2c-0.1-0.3-0.2-0.6-0.3-0.8c-0.5-1-1.4-1.6-2.3-1.9c-1.8-0.5-4.3,1-3.6,3.4c0,0.1,0.1,0.1,0.1,0.1s0.1-0.1,0.2-0.3
			c0.1-0.2,0.3-0.5,0.6-0.7c1.7-1.5,4.1-0.1,3.4,2.1c-0.2,0.6-0.7,1.2-1.3,1.6c-3.1,1.5-5.8-1.2-6.3-4c2.7-4.1,6.4-6.9,11-8.4
			C73,0.2,83.8,5.5,83.8,16c0,5.3-5.8,10.8-12.1,7.3c-1.8-1.4-3.1-3.6-3-5.8c1.2-4.9,7.1-0.7,2.8,2c-0.4,0.3,1.3-0.1,1.7-0.2
			c0.5-0.2,0.9-0.6,1.1-0.9c0.9-1.2,0.7-2.7,0-3.9c-0.5-0.8-1.2-1.5-2-1.8c-1.6-0.6-3.5-0.2-4.7,0.9c-1.3,1.2-1.8,3-1.8,4.2
			c0,3.2,1.3,5.7,4,7.4c1.2,0.8,2.6,1.4,4,1.6c0.4,0.1,0.7,0.1,1.1,0.1c5.5,0.6,10.4-4.4,10.9-9.7c0.3-2,0.1-3.9-0.5-5.8
			C88.2,15.3,89.8,19.7,89.6,24.8z"/>
	</g>
</g>
</svg>
