<?xml version="1.0" encoding="utf-8"?>
<!-- Generator: Adobe Illustrator 18.0.0, SVG Export Plug-In . SVG Version: 6.00 Build 0)  -->
<!DOCTYPE svg PUBLIC "-//W3C//DTD SVG 1.1//EN" "http://www.w3.org/Graphics/SVG/1.1/DTD/svg11.dtd" [
	<!ENTITY ns_extend "http://ns.adobe.com/Extensibility/1.0/">
	<!ENTITY ns_ai "http://ns.adobe.com/AdobeIllustrator/10.0/">
	<!ENTITY ns_graphs "http://ns.adobe.com/Graphs/1.0/">
	<!ENTITY ns_vars "http://ns.adobe.com/Variables/1.0/">
	<!ENTITY ns_imrep "http://ns.adobe.com/ImageReplacement/1.0/">
	<!ENTITY ns_sfw "http://ns.adobe.com/SaveForWeb/1.0/">
	<!ENTITY ns_custom "http://ns.adobe.com/GenericCustomNamespace/1.0/">
	<!ENTITY ns_adobe_xpath "http://ns.adobe.com/XPath/1.0/">
]>
<svg version="1.1" id="Layer_1" xmlns:x="&ns_extend;" xmlns:i="&ns_ai;" xmlns:graph="&ns_graphs;"
	 xmlns="http://www.w3.org/2000/svg" xmlns:xlink="http://www.w3.org/1999/xlink" x="0px" y="0px" viewBox="0 0 612 792"
	 enable-background="new 0 0 612 792" xml:space="preserve">
<metadata>
	<sfw  xmlns="&ns_sfw;">
		<slices></slices>
		<sliceSourceBounds  width="604.9" height="496.1" x="-0.2" y="147.9" bottomLeftOrigin="true"></sliceSourceBounds>
	</sfw>
</metadata>
<g>
	<g>
		<path class="outline" fill="#FFFFFF" d="M302.3,316.5c0,0.1,0.1,0.3,0.3,0.5C302.7,316.5,302.4,316.3,302.3,316.5z"/>
		<path class="outline" fill="#FFFFFF" d="M549.2,188.4c-39.7-41.4-102.6-53.8-153.8-24c-64.5,37.2-86.8,100.1-93.5,133.2
			c-6.6-33.1-28.1-95.9-93.5-133.2c-51.3-29.8-114.1-17.4-153.8,24C24.8,219.8-2.5,267,0,312.5c4.1,72,38.9,114.1,102.5,155.5
			c127.4,82.7,175.3,139.8,192.7,164.6c1.7,3.3,3.3,5,3.3,5.8l4.1,5.8l4.1-5.8c0,0,1.6-2.5,3.3-5.8c17.4-24.8,65.3-81.9,191.9-164.6
			c63.7-41.4,98.4-83.5,102.5-155.5C607,267,579.8,219.8,549.2,188.4z M473.9,373.7c5,1.7,9.9,0.8,14.9-1.6c5-2.5,9.1-7.5,9.9-14.1
			v-5c0-0.8,0-0.8,0-0.8c7.4,13.2,3.3,28.9-10.8,33.9c0.8,0.8,0.8,0.8,1.6,1.6h-9.9c-21.5,0.8-43.8,9.9-61.2,22.3
			c-2.5,1.7-5,4.1-7.4,5.8c-4.1,2.5-7.4,6.6-10.8,9.9c-1.7-0.8-2.5-2.5-4.1-3.3c0.8-0.8,2.5-1.7,3.3-2.5
			c29.8-19,46.3-44.7,48.8-72.8c5-9.9,14.9-15.7,27.3-12.4c4.1,1.7,7.4,4.1,9.9,8.3c7.4,12.4-4.1,24-15.7,17.4
			c-2.5-1.7-4.1-3.3-5.8-5c0,0,0,0,0,0.8C462.3,363.8,466.4,371.2,473.9,373.7z M506.1,421.6c0.8,13.2-16.5,17.4-16.5,17.4
			c-24.8,6.6-49.6,1.6-73.6-5.8c-1.6-0.8-3.3-1.7-5-2.5c0.8-0.8,0.8-1.7,1.7-1.7C436.7,401,504.5,386.9,506.1,421.6z M186.1,408.4
			c-17.4-11.6-39.7-21.5-61.2-22.3H115c0.8-0.8,0.8-0.8,1.6-1.7c-14.1-4.1-18.2-19.8-10.8-33.9v5.8c1.7,6.6,5,11.6,9.9,14.1
			c5,2.5,9.9,3.3,14.9,1.7c7.4-2.5,12.4-9.9,9.9-17.4v-0.8c-1.7,2.5-3.3,4.1-5.8,5c-11.6,7.4-23.2-5-15.7-17.4
			c1.7-3.3,5.8-6.6,9.9-8.3c14.1-4.1,22.3,2.5,28.1,12.4c2.5,27.3,19,52.1,48.8,71.1c0.8,0.8,2.5,1.7,3.3,2.5
			c-1.7,0.8-2.5,2.5-4.1,3.3c-4.1-2.5-7.4-5.8-11.6-8.3C191,412.5,188.6,410.1,186.1,408.4z M193.5,430.7c-1.7,0.8-3.3,1.7-5,2.5
			c-24,8.3-48.8,12.4-73.6,5.8c0,0-17.4-4.1-16.5-17.4c1.7-33.9,69.5-20.7,93.5,7.4C192.7,429.1,193.5,429.9,193.5,430.7z
			 M301.9,321.6c2.5,0,4.1-0.8,5-2.5c16.5-26.5,38.9-40.5,63.7-40.5c16.5,0,33.1,6.6,44.7,19c11.6,12.4,18.2,29.8,17.4,48
			c-0.8,24-15.7,46.3-42.2,63.7c-57.1,37.2-79.4,62.9-88.5,76.1c-8.3-12.4-31.4-38.9-88.5-76.1c-26.5-17.4-41.3-38.9-42.2-63.7
			c-0.8-18.2,5-34.7,17.4-48c11.6-12.4,28.1-19,44.7-19c24.8,0,47.1,14.9,63.7,40.5C298.6,319.9,300.2,321.6,301.9,321.6z
			 M217.5,425.8c21.5,14.9,37.2,27.3,48.8,38c-4.1-2.5-9.9-3.3-15.7-3.3c-11.6,0-19,5-23.2,13.2c-4.1-14.9-9.9-29-19-41.3
			C211.7,429.9,214.2,428.3,217.5,425.8z M230.7,506c3.8,2.5,7.6,3.6,10.6,3.6c0.9,0,1.8-0.1,2.6-0.3c4.1-0.8,6.6-2.5,9.1-5.8
			c0-0.8,0-0.8,0-0.8c-14.9,4.1-24-11.6-13.2-24c8.3-6.6,16.5-6.6,24.8-0.8c11.6,8.3,9.1,28.1,3.3,38.9c0,0-6.6,17.4-40.5,19
			C229.1,525.8,229.9,515.9,230.7,506z M339.9,477.9c9.1-5.8,17.4-5.8,24.8,0.8c10.8,11.6,1.7,28.1-14.1,24.8c0,0,0,0,0,0.8
			c1.7,3.3,5,5,9.1,5.8c4.1,0.8,9.1,0,13.2-3.3c0,5,0.2,9.9,0.7,14.9c0.5,5,1.3,9.9,2.6,14.9c-33.9-2.5-39.7-19-40.5-19
			C330,506,328.3,487,339.9,477.9z M354,460.5c-5.8,0-10.8,0.8-15.7,3.3c11.6-10.8,27.3-23.2,48.8-38c3.3,2.5,5.8,5,9.1,6.6
			c-9.9,12.4-15.7,26.5-19,41.3C373,465.5,365.5,461.3,354,460.5z M302.7,317c-0.3-0.3-0.3-0.5-0.3-0.5
			C302.4,316.3,302.7,316.5,302.7,317z M28.1,335.6c-0.8,0.8-1.7,0.8-2.5,1.7c-0.8,0.8-1.7,1.7-2.5,2.5c-0.8,0.8-0.8,0.8-0.8,1.7
			c-0.8,0.8-0.8,0.8-0.8,0.8c-1.7,1.7-2.5,4.1-2.5,6.6c-3.3-11.6-5.8-24-6.6-36.4c-1.7-33.1,9.1-62.8,27.3-87.7
			c-3.3,12.4-5,24.8-3.3,38c2.5,34.7,35.6,67.8,72,63.7c2.5,0,5,0,7.4-0.8c0.4-0.1,0.8-0.1,1.2-0.2c1.7-0.6,3.4-1.1,5.4-1.4
			c0.6-0.1,1.2-0.2,1.8-0.3c6.4-1.9,12.2-4.8,18-8.8c18.2-11.6,26.5-27.3,26.5-48.8c0-8.3-3.3-19.8-11.6-28.1
			c-8.3-7.4-20.7-9.9-30.6-6.6c-5,1.7-9.9,6.6-13.2,11.6c-4.1,7.4-5.8,17.4,0,25.6c1.7,2.5,4.1,5,7.5,5.8c2.5,0.8,14.1,3.3,10.8,1.7
			c-29-18.2,14.9-47.1,23.2-14.9c0.8,14.9-5,31.4-19,39.7c-41.3,23.2-81-14.9-85.2-46.3c-9.1-67,71.1-105,128.2-88.5
			c30.6,9.9,55.4,28.1,72.8,55.4c-3.3,18.2-20.7,37.2-41.4,26.5c-4.1-2.5-7.4-6.6-8.3-10.8c-5-14.1,11.6-24,22.3-14.1
			c1.7,1.7,3.3,3.3,4.1,4.1c0.8,1.7,1.6,2.5,1.6,2.5s0,0,0.8-0.8c5-15.7-11.6-25.6-23.2-22.3c-5.8,1.7-12.4,5.8-14.9,12.4
			c-2.5,3.3-2.5,5-3.3,6.6c0,0.8,0,0.8,0,0.8c-5-15.7,4.1-30.6,21.5-32.3c-7.4-10.8-26.5-18.2-33.9-3.3
			c-1.6-20.7-32.3-26.5-30.6-4.1C125.7,152,69.5,200.8,96.8,224c-10.8-17.4,14.1-25.6,27.3-24c17.4,1.7,28.1,12.4,39.7,24
			c13.2,12.4,15.7,25.6,34.7,33.9c25.6,9.9,46.3,2.5,62-23.2c7.5,11.6,19,29.8,24.8,50.5c-14.9-14.1-33.9-21.5-53.8-21.5
			c-19.9,0-39.7,8.3-53.8,23.2c-12.4,13.2-19,29-20.7,47.1c-2.5-3.3-6.6-5.8-9.9-7.4c-2.4-1.6-9.3-4.7-23-2.8
			c-2.3,0.7-4.7,1.3-7.2,1.7c-13.4,4.6-19.3,15.2-31.8,22.6c-12.4,8.3-24,15.7-39.7,14.9C33.9,362.1,14.9,348.9,28.1,335.6z
			 M81,435.7c0.8,1.6,2.5,4.1,4.1,5.8c-22.3-18.2-39.7-37.2-52.1-58.7c8.3,5,18.2,5.8,27.3-4.1c-7.4,20.7,19.8,21.5,26.5,2.5
			c1.6,5.8,5,9.1,9.1,10.8c-1.7,0.8-2.5,1.7-4.1,2.5C79.4,405.1,73.6,421.6,81,435.7z M95.9,449.8c16.5,8.3,43.8,8.3,67,3.3
			c0,0.8-0.8,0.8-0.8,1.7c-1.7,3.3-3.3,7.4-4.1,11.6c-2.5,13.2,1.7,26.5,9.9,35.6C148.9,487,100.1,452.2,95.9,449.8z M175.3,449.8
			c8.3-2.5,27.3-11.6,27.3-11.6l5.8,7.4c5.8,8.3,9.9,18.2,12.4,29c-0.8-1.7-1.7-2.5-2.5-4.1c-4.1-5-9.9-8.3-15.7-8.3
			c-5.8-0.8-10.8,0.8-14.9,4.1c-3.3,3.3-5,7.4-5,11.6c0,3.3,0.8,6.6,3.3,9.1l3.3,2.5l0.8-3.3c1.7-5,4.1-9.9,10.8-9.1
			c9.9,0.8,8.3,14.1,2.5,19c-5,5-15.7,3.3-21.5,0C161.3,486.2,165.4,462.2,175.3,449.8z M220,535.8c-7.4-0.8-23.2-12.4-43-27.3
			c5,2.5,10.8,4.1,16.5,5c6.6,0,14.1-1.7,19-5.8c5-4.1,9.1-9.9,9.9-16.5C225,514.3,220,535.8,220,535.8z M226.6,544.9
			c0,0,39.7,5,55.4-31.4c3.3-6.6,3.3-14.9,2.5-22.3c-0.8-5-2.5-9.9-5-13.2c9.9,10.8,14.9,17.4,16.5,20.7c-5.8,9.9-19,36.4-19,68.6
			c0,13.2,2.5,24.8,5,35.6C258.7,576.2,227.6,545.8,226.6,544.9z M301.9,611.8c-5.8-9.1-15.7-28.9-15.7-51.3c0-2.5,0-5,0.8-8.3v-0.8
			c0-1.6,0.8-3.3,0.8-5c0-2.5,0.8-4.1,1.7-6.6c0-0.8,0.8-2.5,0.8-3.3c0,0,0,0,0-0.8c3.3-11.6,8.3-21.5,11.6-27.3
			c4.1,6.6,10.8,19,13.2,33.9c0.8,1.7,0.8,2.5,0.8,3.3c0.8,5,1.7,9.9,1.7,14.9C317.6,582.9,307.7,602.8,301.9,611.8z M322.5,601.1
			c3.3-10.8,5-22.3,5-35.6c0-31.4-13.2-57.9-19-67.8c1.7-3.3,6.6-9.9,15.7-20.7c-2.5,4.1-4.1,8.3-4.1,13.2
			c-0.8,7.4-0.8,15.7,2.5,22.3C338.3,549,378,544,378,544C378.8,544,346.5,575.5,322.5,601.1z M384.6,535.8c0,0-5-21.5-2.5-45.5
			c0.8,6.6,5,12.4,9.9,16.5c5,4.1,12.4,5.8,19,5.8c5.8,0,11.6-1.6,16.5-5C407.7,522.5,391.2,534.1,384.6,535.8z M421.8,496.1
			c-5,2.5-16.5,5-21.5,0c-5.8-5-6.6-18.2,2.5-19c6.6-0.8,9.1,5,10.8,9.1l0.8,3.3l3.3-2.5c2.5-2.5,3.3-5.8,3.3-9.1
			c0-4.1-1.7-8.3-5-11.6c-4.1-3.3-9.1-5-14.9-4.1c-5.8,0.8-11.6,4.1-15.7,8.3c-0.8,0.8-1.7,2.5-2.5,4.1c2.5-9.9,5.8-19.9,12.4-29
			l5.8-7.4c0,0,19,9.1,27.3,11.6C439.2,462.2,443.3,486.2,421.8,496.1z M436.7,501c8.3-9.1,12.4-22.3,9.9-35.6
			c-0.8-4.1-1.7-7.4-4.1-11.6c0-0.8-0.8-0.8-0.8-1.7c23.2,5,50.5,5.8,67-3.3C504.5,452.2,455.7,487,436.7,501z M518.5,441.5
			c1.7-1.7,3.3-3.3,4.1-5.8c7.4-14.9,2.5-30.6-10.8-41.4c-1.6-0.8-2.5-1.7-4.1-2.5c2.1-0.4,3.9-1.4,5.4-3.2c1.5-1.8,2.5-4.2,2.9-7.5
			c6.6,19,33.9,18.2,26.5-2.5c9.1,9.9,19,9.1,27.3,4.1C558.2,404.3,540.9,423.3,518.5,441.5z M593,311.6
			c-0.8,12.4-3.3,24.8-6.6,36.4c-0.8-2.5-1.6-4.1-2.5-6.6c0,0,0,0-0.8-0.8c0,0-0.8-0.8-0.8-1.7c-0.8-0.8-1.7-1.7-2.5-2.5
			c-0.8-0.8-1.7-1.7-2.5-1.7c13.2,14.1-5.8,26.5-17.4,27.3c-15.7,1.7-27.3-6.6-39.7-14.9c-10.4-6.7-16.2-14.8-25.6-19.9
			c-2,0-3.9-0.2-5.8-0.8c-5.3-0.9-10.1-2.5-14.7-4.5c-9-0.4-13.9,2.4-15.9,3.7c-4.1,1.7-7.4,5-9.9,7.5c-1.7-18.2-8.3-34.7-20.7-47.1
			c-14.9-14.1-34.7-22.3-54.6-22.3c-19.8,0-38.9,7.4-54.6,22.3c5.8-20.7,16.5-38.9,24.8-50.5c15.7,25.6,36.4,33.1,62,23.2
			c19-7.4,21.5-21.5,34.7-33.9c11.6-11.6,22.3-22.3,39.7-24c12.4-1.7,38,7.4,27.3,24c28.1-23.2-28.1-72-49.6-37.2
			c2.5-23.2-28.1-17.4-30.6,4.1c-7.5-15.7-25.6-8.3-33.9,3.3c17.4,1.7,26.5,16.5,21.5,32.3v-0.8c0-2.5-0.8-4.1-1.7-5.8
			c-3.3-6.6-9.1-10.8-14.9-12.4c-12.4-3.3-28.1,6.6-23.2,22.3l0.8,0.8c0,0,0.8-0.8,1.7-2.5c0.8-1.7,2.5-3.3,4.1-4.1
			c11.6-9.9,27.3,0,22.3,14c-1.7,4.1-4.1,8.3-8.3,10.8c-20.7,9.9-38-8.3-41.4-26.5c17.4-27.3,42.2-46.3,72.8-55.4
			c57.9-17.4,129,18.2,129,87.7c0,34.7-38.9,71.1-80.2,48c-12.4-10.8-21.5-25.6-20.7-39.7c8.3-32.3,47.2-5,18.2,13.2
			c-2.5,1.7,9.1-0.8,10.8-1.7c3.3-0.8,5.8-3.3,7.4-5.8c5.8-7.4,5-17.4,0-25.6c-3.3-5-7.4-9.9-13.2-11.6c-9.9-3.3-23.2-1.7-30.6,6.6
			c-8.3,8.3-11.6,19.9-11.6,28.1c0,21.5,9.1,37.2,26.5,48.8c3.8,2.3,7.7,4.4,11.7,6.2c2.6,0.1,5.6,0.5,8.9,1.2
			c4.6,0.9,8.3,2.3,11.6,4.1c0.5,0,1.1,0,1.6,0c36.4,4.1,69.5-29.8,72-63.7c1.7-13.2,0.8-25.6-3.3-38
			C583.9,249.6,594.6,278.6,593,311.6z"/>
	</g>
	<path class="heart" fill="#D81B60" d="M432.5,345.5c-0.8,24-15.7,46.3-42.2,63.7c-57.1,37.2-79.4,62.9-88.5,76.1c-8.3-12.4-31.4-38.9-88.5-76.1
		c-26.5-17.4-41.3-38.9-42.2-63.7c-0.8-18.2,5-34.7,17.4-48c11.6-12.4,28.1-19,44.7-19c24.8,0,47.1,14.9,63.7,40.5
		c1.7,0.8,3.3,2.5,5,2.5c2.5,0,4.1-0.8,5-2.5c16.5-26.5,38.9-40.5,63.7-40.5c16.5,0,33.1,6.6,44.7,19
		C426.8,310,433.4,327.4,432.5,345.5z"/>
</g>
</svg>
