<?xml version="1.0" encoding="utf-8"?>
<!-- Generator: Adobe Illustrator 18.0.0, SVG Export Plug-In . SVG Version: 6.00 Build 0)  -->
<!DOCTYPE svg PUBLIC "-//W3C//DTD SVG 1.1//EN" "http://www.w3.org/Graphics/SVG/1.1/DTD/svg11.dtd">
<svg version="1.1" id="Layer_1" xmlns="http://www.w3.org/2000/svg" xmlns:xlink="http://www.w3.org/1999/xlink" x="0px" y="0px"
	 viewBox="0 0 1920 800" enable-background="new 0 0 1920 800" xml:space="preserve">
<g>
	<g>
		<path fill="#D81B60" d="M358.9,301.2L358.9,301.2C358.9,301.2,358.1,301.2,358.9,301.2c-61.2-95.8-171.1-48.7-167.2,36.1
			c0.8,13.3,5.5,51,54.9,83.2c97.3,63.6,111.5,99.7,111.5,99.7l0,0l0,0c0,0,14.1-36.1,111.5-99.7c49.4-32.2,54.2-69.9,54.9-83.2
			C530,252.6,419.3,206.3,358.9,301.2z"/>
		<g>
			<g>
				<path fill="#8D6E63" d="M1505.6,467.6H896.5c-1.6,0-3.1-0.8-3.1-2.4s1.6-2.4,3.1-2.4h609.1c1.6,0,3.1,1.6,3.1,2.4
					C1508.7,466.8,1507.2,467.6,1505.6,467.6z"/>
			</g>
			<g>
				<path fill="#8D6E63" d="M1917.6,467.6h-317.1c-1.6,0-2.4-0.8-2.4-2.4s1.6-2.4,2.4-2.4h317.1c1.6,0,2.4,1.6,2.4,2.4
					C1920,466.8,1919.2,467.6,1917.6,467.6z"/>
			</g>
		</g>
		<g>
			<path fill="#FFFFFF" d="M1345.5,360.1c-0.8,0-5.5,5.5-14.9,16.5c-9.4,11-16.5,16.5-21.2,16.5c-7.1,0-10.2-7.8-10.2-24.3
				c0-17.3,2.4-30.6,7.8-39.2c0.8-0.8,1.6-1.6,3.1-2.4c1.6-0.8,2.4-0.8,2.4-0.8c0-0.8,0-1.6-0.8-2.4c-3.9-5.5-9.4-8.6-17.3-8.6
				c-3.9,0-7.1,0.8-11,2.4c-10.2,3.9-21.2,13.3-33,30.6c-11,16.5-17.3,30.6-17.3,42.4c0,7.8,3.1,11.8,10.2,11.8
				c11.8,0,25.1-13.3,40-40c-0.8,3.9-0.8,7.1-0.8,10.2c0,19.6,7.1,29,20.4,29c3.9,0,7.8-0.8,12.6-3.1c8.6-4.7,18.1-14.9,28.3-30.6
				c1.6-2.4,2.4-3.9,2.4-4.7C1346.3,360.1,1346.3,360.1,1345.5,360.1z M1269.3,375c-7.8,10.2-14.1,15.7-19.6,15.7
				c-3.1,0-4.7-2.4-4.7-7.1c0-10.2,7.1-24.3,20.4-40.8c9.4-11.8,18.8-17.3,28.3-17.3c0.8,0,2.4,0,3.1,0
				C1289.8,345.2,1280.3,361.7,1269.3,375z"/>
			<path fill="#FFFFFF" d="M1770.1,329.5c0-2.4-0.8-4.7-2.4-6.3s-3.9-2.4-5.5-2.4s-3.1,0.8-5.5,3.1c-2.4,5.5-3.9,10.2-6.3,13.3
				c-2.4,3.1-3.9,6.3-6.3,11c-16.5,27.5-27.5,40.8-34.5,40.8c-4.7,0-6.3-3.9-6.3-11c0-5.5,8.6-30.6,14.1-40.8l9.4-16.5
				c0-1.6-1.6-3.1-5.5-3.1c-6.3,0-12.6,6.3-17.3,18.1c-3.1,6.3-7.1,17.3-9.4,26.7c-22.8,27.5-43.2,40.8-62,41.6
				c11-7.1,21.2-19.6,30.6-36.9c9.4-17.3,14.1-33,14.1-46.3c0-11-3.9-15.7-11-15.7c-7.8,0-18.1,7.1-29,22
				c-7.8,9.4-14.9,20.4-21.2,32.2c0-2.4,0-5.5,0.8-9.4c0-4.7,0.8-7.8,0.8-10.2c0-15.7-3.9-22.8-11.8-22.8c-7.1,0-10.2,0.8-10.2,1.6
				c0,0.8,0.8,2.4,1.6,3.1c1.6,1.6,1.6,3.1,1.6,5.5c0,11-4.7,22.8-14.1,36.1c-0.8,0.8-1.6,1.6-2.4,2.4c-6.3,7.1-13.3,13.3-22,19.6
				c-10.2,6.3-18.8,9.4-26.7,9.4c-8.6,0-12.6-4.7-12.6-14.1c0-3.9,0.8-8.6,2.4-14.1c7.8-3.1,16.5-8.6,25.9-17.3
				c11-10.2,15.7-18.1,15.7-25.1c0-2.4-0.8-4.7-2.4-6.3c-1.6-2.4-3.9-3.1-6.3-3.1c-11.8,0-22.8,7.1-33.7,22
				c-9.4,12.6-14.1,24.3-14.9,35.3c-14.1,14.9-27.5,22.8-40.8,22.8c-11.8,0-18.1-7.1-18.1-21.2c0-8.6,3.1-18.1,9.4-27.5
				c6.3-10.2,14.1-15.7,22-15.7c5.5,0,8.6,2.4,8.6,7.1c0,0.8,0,2.4-0.8,4.7s-1.6,3.1-1.6,4.7c0,0.8,0.8,1.6,1.6,1.6
				c2.4,0,4.7-3.1,7.8-8.6c3.1-5.5,4.7-9.4,4.7-11.8c0-5.5-3.9-8.6-11-8.6c-11,0-22.8,6.3-34.5,19.6c-12.6,13.3-18.1,25.1-18.1,36.9
				c0,18.1,8.6,26.7,25.1,26.7c8.6,0,17.3-2.4,25.9-7.8c7.8-5.5,14.9-11,20.4-16.5c0.8,15.7,7.8,23.5,21.2,23.5
				c10.2,0,21.2-3.9,33-11.8c9.4-6.3,16.5-12.6,22-19.6c2.4,0,7.8-7.1,15.7-21.2c0,6.3,0,13.3,0,21.2v2.4c-14.9,20.4-29,40-44,59.6
				c-20.4,29.8-30.6,50.2-30.6,61.2c0,8.6,3.1,12.6,8.6,12.6c11,0,24.3-14.1,41.6-41.6c11.8-19.6,21.2-38.5,28.3-56.5
				c5.5,1.6,9.4,2.4,10.2,2.4c2.4,0,4.7,0,8.6,0s7.1,0,9.4,0c10.2,0,22-5.5,36.9-16.5c8.6-6.3,15.7-12.6,21.2-18.8
				c0,1.6-0.8,3.1-0.8,4.7c0,13.3,3.9,19.6,11.8,19.6c6.3,0,13.3-4.7,20.4-13.3c0.8-1.6,3.1-3.9,5.5-7.1s5.5-7.8,9.4-13.3
				c-1.6,3.1-3.1,6.3-3.9,10.2s-1.6,7.8-1.6,11c0,7.1,2.4,11,7.1,14.1c8.6,6.3,22.8-6.3,23.5-7.1c0.8,0,0.8-0.8,1.6-1.6
				c0,5.5-1.6,10.2-3.9,15.7c-3.1,7.8-7.8,11.8-14.1,11.8c-2.4,0-4.7-0.8-7.8-2.4c-3.1-1.6-4.7-3.1-4.7-2.4c-1.6,0-3.1,0.8-3.9,2.4
				c-0.8,2.4,0.8,4.7,6.3,7.1c4.7,1.6,7.8,3.1,11,3.1c7.1-0.8,12.6-4.7,15.7-12.6c0.8-2.4,2.4-5.5,3.1-8.6c0.8-3.1,1.6-6.3,1.6-10.2
				c0.8-3.1,0.8-6.3,0-7.8c1.6-1.6,1.6-3.9,1.6-4.7c-0.8-1.6-1.6-2.4-2.4-0.8c-4.7,4.7-7.8,8.6-11,11c-3.1,2.4-4.7,3.9-7.1,3.9
				c-1.6,0-3.1,0-3.1-1.6c-0.8-1.6-0.8-3.1-0.8-5.5c0-7.8,3.9-20.4,12.6-36.1L1770.1,329.5z M1536.2,338.1
				c6.3-10.2,11.8-15.7,14.9-15.7c2.4,0,3.9,1.6,3.9,3.9c0,5.5-3.9,11.8-11,18.8c-6.3,6.3-12.6,11-18.1,13.3
				C1526.8,353.8,1530.7,347.5,1536.2,338.1z M1595.8,400.9c-5.5,21.2-10.2,36.1-14.9,44c-17.3,32.2-31.4,48.7-40.8,48.7
				c-1.6,0-2.4-0.8-2.4-3.1c0-4.7,3.9-14.9,12.6-31.4c7.1-14.1,13.3-24.3,18.1-30.6c11-15.7,18.8-27.5,24.3-36.1
				c1.6-2.4,3.1-3.1,3.9-3.1h0.8c-1.6,2.4-2.4,4.7-2.4,7.1C1595.8,398.5,1595.8,399.3,1595.8,400.9z M1623.3,400.1
				c-5.5,2.4-16.5,0-12.6-11c4.7-13.3,9.4-26.7,16.5-39.2c8.6-17.3,17.3-28.3,25.9-31.4c0.8-0.8,2.4-0.8,3.1-0.8
				c3.9,0,5.5,3.1,5.5,10.2c0,11.8-3.9,25.9-11.8,41.6C1641.4,387.6,1633.5,396.2,1623.3,400.1z"/>
			<path fill="#FFFFFF" d="M1911.4,358.5c-0.8,0-3.1,3.1-7.8,10.2c-5.5,7.8-11,14.1-15.7,18.1c-7.1,6.3-14.1,9.4-20.4,9.4
				c-7.8,0-12.6-3.9-12.6-12.6c0-3.9,0.8-8.6,3.1-11.8c2.4-3.9,4.7-8.6,7.1-13.3c0.8-2.4,1.6-3.9,1.6-3.9c0-4.7-2.4-7.1-7.1-7.8
				c0,0-0.8,0.8-2.4,1.6c-1.6,0.8-3.9,3.9-7.1,9.4c-0.8,0.8-2.4,0.8-3.1,0.8c-0.8,0-2.4,0-3.1,0c2.4-2.4,4.7-6.3,5.5-10.2
				c1.6-3.9,2.4-7.8,2.4-12.6c0-3.9,0-8.6-1.6-11.8c-0.8-3.9-3.1-6.3-5.5-8.6c-2.4-2.4-6.3-3.1-10.2-3.1c-3.9,0-9.4,1.6-15.7,5.5
				c-8.6,4.7-14.1,10.2-16.5,15.7s-3.1,10.2-0.8,14.9c1.6,4.7,5.5,8.6,11,11c5.5,3.1,11,4.7,18.1,4.7c-2.4,3.9-4.7,7.1-6.3,8.6
				c-7.1,9.4-12.6,15.7-18.1,19.6c-5.5,3.9-9.4,4.7-12.6,3.9c-3.1-0.8-4.7-4.7-4.7-10.2s1.6-13.3,5.5-22c-0.8-1.6-1.6-3.1-3.1-3.9
				c-1.6-1.6-3.1-1.6-5.5-1.6s-3.9,0.8-5.5,2.4s-3.1,4.7-3.9,8.6c-1.6,8.6-1.6,15.7,0.8,21.2c2.4,5.5,5.5,8.6,10.2,10.2
				c4.7,1.6,10.2,1.6,15.7-0.8c6.3-2.4,12.6-6.3,18.8-12.6c0.8-0.8,3.9-3.9,7.1-8.6c3.9-4.7,7.8-9.4,11.8-14.9c0.8,0,2.4,0,3.9,0
				s2.4-0.8,3.9-0.8c-1.6,3.9-3.1,7.1-3.9,10.2c0,1.6,0,2.4,0,3.9c0,1.6,0,3.1,0,4.7c0,16.5,6.3,24.3,19.6,24.3
				c16.5,0,32.2-12.6,47.9-38.5c1.6-2.4,2.4-3.9,2.4-5.5C1912.2,359.3,1912.2,358.5,1911.4,358.5z M1834.4,356.2
				c-6.3-1.6-11-4.7-14.1-9.4c-3.1-4.7-5.5-8.6-4.7-13.3c0-3.9,2.4-7.1,6.3-9.4s11-1.6,20.4,1.6c1.6,0.8,2.4,1.6,2.4,3.9
				c0,2.4,0,4.7-0.8,7.1c-0.8,3.1-2.4,6.3-3.9,9.4C1838.4,349.9,1836,353,1834.4,356.2z"/>
			<path fill="#FFFFFF" d="M1225.4,305.1c-8.6,0-18.1,6.3-29,18.8c-7.8,9.4-14.9,18.8-20.4,29c2.4-7.8,5.5-16.5,9.4-25.1
				s7.8-15.7,11.8-22c24.3-14.9,45.5-32.2,63.6-50.2c28.3-29,42.4-51.8,42.4-68.3c0-9.4-4.7-14.1-14.9-14.1c-17.3,0-40,22-67.5,65.9
				c-18.1,28.3-30.6,49.4-37.7,63.6c-8.6,17.3-14.9,33-18.8,47.1c-3.9,13.3-6.3,25.1-6.3,33c0,12.6,3.9,18.1,12.6,18.1
				c0.8,0,1.6-0.8,1.6-1.6c0-0.8-0.8-2.4-2.4-3.1c-1.6-1.6-2.4-3.1-2.4-5.5c0-9.4,5.5-23.5,17.3-43.2c12.6-20.4,22-30.6,29.8-30.6
				c3.1,0,4.7,3.9,4.7,11c0,12.6-2.4,23.5-6.3,33.7c-4.7,11.8-11,22-18.1,30.6c-9.4,11-18.1,15.7-30.6,17.3
				c-41.6,1.6-59.7-20.4-62.8-24.3c16.5-11,30.6-24.3,40.8-39.2c12.6-17.3,18.8-35.3,18.8-52.6c0-29.8-16.5-51.8-49.4-66.7
				c-25.1-11.8-54.9-17.3-87.9-17.3c-14.9,0-31.4,1.6-48.7,3.9c-20.4,3.1-36.1,7.8-46.3,13.3c-7.1,3.9-10.2,8.6-10.2,13.3
				c0,3.1,1.6,4.7,4.7,4.7c0.8,0,2.4-0.8,4.7-1.6c29.8-16.5,63.6-25.1,101.2-25.1c28.3,0,54.2,4.7,76.1,14.9
				c28.3,13.3,43.2,33,43.2,58.9c0,15.7-5.5,31.4-16.5,47.1c-9.4,13.3-22,25.1-36.9,36.1c-22-29-63.6-44-124-45.5
				c18.1-36.1,37.7-69.1,58.9-97.3c0.8-0.8,0.8-1.6,0.8-2.4c0-1.6-1.6-2.4-4.7-2.4c-7.8,0-13.3,2.4-17.3,7.1
				c-7.1,11-12.6,19.6-15.7,26.7c-11.8,22-22.8,44-33,68.3c-15.7,0.8-30.6,5.5-42.4,13.3c-14.1,9.4-21.2,22-21.2,36.9
				c0,12.6,8.6,22.8,26.7,29.8c13.3,5.5,27.5,8.6,42.4,9.4c3.9,0,8.6,0,13.3,0c44,0,82.4-10.2,116.2-29.8
				c4.7,7.8,30.6,26.7,72.2,24.3c0.8,0,1.6,0,1.6,0h0.8c0.8,0,1.6,0,2.4,0s2.4-0.8,3.1-0.8h0.8l0,0c7.8-2.4,14.9-7.1,22.8-14.1
				c9.4-9.4,17.3-19.6,22.8-32.2c8.6-18.1,13.3-33.7,13.3-47.9C1235.6,309.9,1231.7,305.1,1225.4,305.1z M1207.3,280.8
				c15.7-36.1,34.5-62.8,56.5-80.1c12.6-10.2,21.2-14.9,27.5-14.9c3.9,0,5.5,2.4,5.5,7.1c-0.8,12.6-13.3,31.4-39.2,55.7
				c-21.2,21.2-40,36.1-56.5,45.5C1202.6,291.8,1205,287.1,1207.3,280.8z M973.4,412.7c-3.1,0-6.3,0-8.6,0
				c-11.8-0.8-23.5-3.1-33.7-7.1c-14.1-5.5-20.4-14.1-20.4-24.3c0-22.8,14.9-36.9,44.7-41.6c-11.8,28.3-17.3,47.1-17.3,57.3
				c0,6.3,1.6,9.4,5.5,9.4c2.4,0,3.9-1.6,3.9-4.7c0-0.8,0-1.6,0-2.4s0-2.4,0-2.4c0-9.4,7.1-29,20.4-58.1c3.1,0,5.5,0,8.6,0
				c18.8,0,39.2,3.9,60.4,11c23.5,7.8,40.8,18.8,51.8,31.4C1054.3,402.5,1016.6,412.7,973.4,412.7z"/>
		</g>
		<g>
			<path fill="#FFFFFF" d="M652.4,153.7c-47.1-49.4-121.7-63.6-182.9-29c-77.7,44-103.6,119.3-110.7,158.5
				c-7.1-39.2-33.7-113.8-110.7-158.5c-62-34.5-135.8-20.4-182.9,29C29.3,191.3-2.9,247.1,0.2,300.4C4.9,386,45.7,436.2,121.9,485.7
				c151.5,98.1,208,166.4,228.4,195.4c2.4,3.9,3.9,6.3,3.9,6.3l4.7,7.1l4.7-7.1c0,0,1.6-3.1,3.9-7.1
				c20.4-29.8,77.7-97.3,227.6-195.4c76.1-49.4,116.9-99.7,121.7-185.2C719.9,247.1,687.8,191.3,652.4,153.7z M564.5,327.9
				c4.7,1.6,8.6,5.5,11.8,9.4c8.6,14.1-4.7,29-18.8,20.4c-2.4-1.6-4.7-3.9-7.1-6.3c0,0,0,0,0,0.8c-2.4,8.6,3.1,17.3,11.8,21.2
				c6.3,2.4,12.6,1.6,18.1-1.6c5.5-3.1,10.2-9.4,11.8-16.5c0-1.6,0.8-3.9,0.8-6.3c0-0.8,0-0.8,0-1.6c8.6,15.7,4.7,34.5-12.6,40
				c0.8,0.8,1.6,0.8,2.4,1.6c-3.9,0-7.8-0.8-11.8,0c-25.1,0.8-51.8,12.6-73,25.9c-3.1,2.4-6.3,4.7-9.4,7.1
				c-4.7,3.1-8.6,7.8-12.6,11.8c-1.6-1.6-3.1-2.4-4.7-3.9c1.6-0.8,2.4-1.6,3.9-2.4c35.3-22.8,54.9-52.6,57.3-85.6
				C537.8,330.3,549.6,324,564.5,327.9z M600.6,429.9c0.8,15.7-19.6,21.2-19.6,21.2c-29,7.8-59.6,2.4-87.9-7.1
				c-2.4-0.8-3.9-1.6-6.3-2.4c0.8-0.8,1.6-1.6,2.4-2.4C518.2,405.6,598.3,389.1,600.6,429.9z M284.3,498.2
				c9.4-7.8,19.6-8.6,29.8-0.8c13.3,10.2,11,33,3.9,45.5c0,0-7.8,20.4-47.9,22.8c2.4-11.8,3.1-23.5,3.1-35.3l0,0
				c5.5,4.7,11.8,5.5,16.5,4.7c4.7-0.8,7.8-3.1,11-6.3c0-0.8,0.8-0.8,0.8-0.8C282.8,532,271.8,512.4,284.3,498.2z M297.7,477
				c-13.3,0-22.8,5.5-27.5,15.7c-4.7-18.1-11.8-34.5-22.8-48.7c3.9-2.4,7.1-5.5,11-7.8c25.9,17.3,44.7,32.2,58.1,44.7
				C311,477.8,304.7,476.2,297.7,477z M230.2,421.3c-3.1-2.4-5.5-4.7-9.4-7.1c-21.2-14.1-47.1-25.1-73-25.9c-3.9,0-7.8,0-11.8,0
				c0.8-0.8,1.6-0.8,2.4-1.6c-17.3-5.5-22-24.3-12.6-40c0,0,0,0.8,0,1.6c0,2.4,0,3.9,0,6.3c1.6,7.8,6.3,13.3,11.8,16.5
				c5.5,3.1,11,3.9,18.1,1.6c8.6-3.1,14.1-11.8,11.8-21.2c0-0.8,0-0.8,0-0.8c-2.4,2.4-3.9,4.7-7.1,6.3c-14.1,8.6-27.5-5.5-18.8-20.4
				c2.4-4.7,7.1-7.8,11.8-9.4c16.5-4.7,25.9,3.1,33,14.1c3.1,32.2,22.8,61.2,57.3,84c1.6,0.8,2.4,1.6,3.9,2.4
				c-1.6,1.6-3.1,2.4-4.7,3.9C238.8,429.2,234.9,424.4,230.2,421.3z M230.2,440.9c-2.4,0.8-3.9,1.6-6.3,2.4
				c-28.3,9.4-58.1,14.9-87.9,7.1c0,0-20.4-4.7-19.6-21.2c2.4-40.8,82.4-24.3,111.5,8.6C228.6,439.4,229.4,440.1,230.2,440.9z
				 M375.4,577.5c0.8,5.5,1.6,11.8,1.6,17.3c0,26.7-11.8,49.4-18.1,60.4c-6.3-11-18.1-34.5-18.1-60.4c0-3.1,0-6.3,0.8-9.4v-0.8
				c0-1.6,0.8-3.9,0.8-5.5c0.8-2.4,0.8-5.5,1.6-7.8c0-1.6,0.8-3.1,0.8-3.9c0,0,0,0,0-0.8c3.9-14.1,10.2-25.9,14.1-33
				c4.7,7.8,12.6,22.8,16.5,40C374.6,575.9,375.4,576.7,375.4,577.5z M358.1,311.4C358.1,311.4,358.9,311.4,358.1,311.4
				c2.4,0,4.7-0.8,6.3-3.1c19.6-31.4,46.3-48.7,76.1-48.7c19.6,0,39.2,8.6,52.6,22.8c14.1,14.9,21.2,35.3,20.4,56.5
				c-1.6,29-18.8,54.9-50.2,75.3c-67.5,44-94.2,74.6-104.4,89.5c-10.2-14.9-36.9-45.5-104.4-89.5c-31.4-20.4-48.7-46.3-50.2-75.3
				c-0.8-21.2,6.3-41.6,20.4-56.5c14.1-14.1,33-22.8,52.6-22.8c29,0,56.5,17.3,76.1,48.7C354.2,309.9,356.5,311.4,358.1,311.4z
				 M402.8,497.4c10.2-7.1,20.4-7.1,29.8,0.8c12.6,14.1,1.6,33-17.3,29.8c0,0,0,0,0.8,0.8c2.4,3.9,6.3,5.5,10.2,6.3
				c4.7,0.8,11,0,16.5-4.7l0,0c0,11.8,1.6,23.5,3.1,35.3c-40-2.4-47.9-22.8-47.9-22.8C391.9,531.2,389.5,507.6,402.8,497.4z
				 M420.1,477c-7.1,0-13.3,0.8-18.1,3.9c13.3-12.6,32.2-27.5,58.1-44.7c3.1,2.4,7.1,5.5,11,7.8c-11,14.1-18.1,31.4-22.8,48.7
				C442.9,482.5,433.5,477,420.1,477z M34,328.7c-0.8,0.8-2.4,1.6-3.1,2.4c-1.6,0.8-2.4,1.6-3.1,3.1c-0.8,0.8-0.8,0.8-1.6,1.6l0,0
				c-0.8,0.8-0.8,0.8-0.8,0.8c-1.6,2.4-2.4,4.7-3.1,7.8c-4.7-14.1-7.1-29-7.8-44c-1.6-39.2,11-74.6,32.2-104.4
				c-4.7,14.9-5.5,29.8-3.9,45.5c3.1,40.8,42.4,80.8,85.6,76.1c3.1,0,5.5,0,8.6-0.8c11-1.6,22-6.3,31.4-12.6
				c21.2-13.3,32.2-33,31.4-58.1c0-10.2-3.9-23.5-14.1-33c-9.4-9.4-24.3-11.8-36.9-7.1c-6.3,2.4-11.8,7.8-15.7,14.1
				c-5.5,9.4-6.3,21.2,0,30.6c1.6,2.4,5.5,5.5,8.6,7.1c3.1,0.8,16.5,3.9,13.3,1.6c-33.7-21.2,18.1-55.7,27.5-17.3
				c0.8,17.3-5.5,36.9-22,47.9c-49.4,27.5-95.8-17.3-100.5-54.9c-10.2-83.2,84.8-127.9,153-107.5c36.9,11.8,65.9,33.7,87.1,65.9
				c-3.9,22-25.1,44-49.4,31.4c-4.7-2.4-8.6-7.1-10.2-12.6c-5.5-17.3,13.3-28.3,26.7-16.5c2.4,1.6,3.9,3.9,4.7,5.5
				c0.8,1.6,1.6,2.4,1.6,2.4s0,0,0.8-0.8c5.5-18.8-13.3-30.6-28.3-26.7c-7.1,1.6-14.1,7.1-18.1,14.9c-0.8,1.6-1.6,3.9-2.4,6.3
				c0,0.8,0,0.8,0,1.6c-5.5-18.8,5.5-36.9,25.9-38.5c-9.4-13.3-31.4-22-40-3.1c-2.4-25.1-38.5-31.4-36.1-4.7
				c-24.3-41.6-91.8,16.5-58.9,44c-12.6-20.4,16.5-30.6,32.2-29c21.2,2.4,33.7,14.9,47.9,28.3c14.9,14.9,18.8,30.6,40.8,40
				c30.6,11.8,54.9,3.1,73.8-27.5c9.4,13.3,22.8,35.3,29,59.7c-18.8-17.3-41.6-26.7-65.1-26.7c-24.3,0-47.1,10.2-64.4,27.5
				c-14.1,14.9-22.8,34.5-24.3,55.7c-3.1-3.9-7.1-7.1-12.6-9.4c-3.1-1.6-11.8-6.3-29.8-2.4c-20.4,4.7-27.5,18.1-44,29
				c-14.9,9.4-28.3,18.8-46.3,17.3C41,359.3,18.3,344.4,34,328.7z M114,394.6c-2.4,0.8-3.1,2.4-4.7,3.1
				c-14.9,12.6-21.2,32.2-12.6,49.4c1.6,2.4,3.1,4.7,4.7,6.3c-26.7-21.2-47.1-44.7-61.2-69.9c9.4,6.3,22,7.1,33-4.7
				c-8.6,24.3,23.5,25.1,31.4,2.4C105.4,389.9,109.3,393.1,114,394.6L114,394.6z M114,463.7c19.6,10.2,51.8,9.4,80.1,3.9
				c-0.8,0.8-0.8,1.6-1.6,2.4c-2.4,3.9-3.9,8.6-4.7,13.3c-3.1,15.7,1.6,31.4,11.8,42.4C176.8,508.4,119.5,467.6,114,463.7z
				 M208.2,464.5c9.4-3.1,33-14.1,33-14.1l7.1,9.4c7.1,10.2,11.8,22,14.1,33.7c-0.8-1.6-1.6-3.1-3.1-4.7
				c-4.7-5.5-11.8-9.4-18.8-10.2s-13.3,0.8-18.1,5.5c-3.9,3.1-6.3,8.6-6.3,13.3c0,4.7,1.6,7.8,3.9,11l4.7,3.1l0.8-3.9
				c2.4-5.5,4.7-11.8,13.3-11c11.8,0.8,10.2,16.5,3.1,22c-6.3,5.5-18.8,3.9-25.1,0C191.7,506.9,196.4,478.6,208.2,464.5z
				 M260.8,565.7c-8.6-1.6-27.5-14.9-51-32.2c6.3,3.1,13.3,5.5,20.4,5.5c7.8,0,16.5-1.6,22.8-7.1c6.3-4.7,10.2-11.8,11.8-19.6
				C267.1,540.6,260.8,565.7,260.8,565.7z M268.6,575.9c0,0,47.9,5.5,65.9-37.7c3.1-7.8,3.9-18.1,2.4-26.7c-0.8-5.5-3.1-11-5.5-16.5
				c11.8,12.6,17.3,20.4,19.6,24.3c-7.1,11.8-22.8,43.2-22.8,80.8c0,15.7,2.4,29.8,6.3,41.6C306.3,612.8,267.9,575.1,268.6,575.9z
				 M383.2,643.4c3.9-12.6,6.3-26.7,6.3-41.6c0-37.7-15.7-69.1-22.8-80.8c2.4-3.9,7.8-11.8,18.8-24.3c-2.4,4.7-4.7,10.2-5.5,15.7
				c-1.6,9.4-0.8,18.8,2.4,26.7c18.1,43.2,65.9,37.7,65.9,37.7C449.9,575.1,411.5,612.8,383.2,643.4z M456.2,565.7
				c0,0-5.5-25.1-3.1-53.4c1.6,7.8,5.5,14.9,11.8,19.6c6.3,4.7,14.9,7.1,22.8,7.1c7.1,0,14.1-2.4,20.4-5.5
				C483.7,550.8,464.9,564.2,456.2,565.7z M501,518.6c-6.3,3.1-18.8,5.5-25.1,0c-6.3-5.5-7.8-21.2,3.1-22c8.6-0.8,11,5.5,13.3,11
				l0.8,3.9l4.7-3.1c3.1-3.1,4.7-6.3,3.9-11c0-4.7-2.4-10.2-6.3-13.3c-4.7-3.9-11-6.3-18.1-5.5c-7.1,0.8-14.1,4.7-18.8,10.2
				c-0.8,1.6-2.4,3.1-3.1,4.7c2.4-11.8,7.1-24.3,14.1-33.7l7.1-9.4c0,0,22.8,11,33,14.1C520.6,478.6,525.3,506.9,501,518.6z
				 M518.2,524.9c10.2-10.2,14.9-25.9,11.8-42.4c-0.8-4.7-2.4-9.4-4.7-13.3c0-0.8-0.8-1.6-1.6-2.4c27.5,5.5,59.6,6.3,80.1-3.9
				C598.3,467.6,540.2,508.4,518.2,524.9z M615.5,454.3c1.6-2.4,3.9-3.9,4.7-6.3c9.4-17.3,2.4-36.9-12.6-49.4
				c-1.6-0.8-2.4-2.4-4.7-3.1l0,0c4.7-1.6,8.6-4.7,10.2-12.6c7.8,22,40,22,31.4-2.4c11,11.8,22.8,11,33,4.7
				C662.6,409.5,642.2,433.1,615.5,454.3z M703.5,300.4c-0.8,14.9-3.9,29.8-7.8,44c-0.8-2.4-1.6-5.5-3.1-7.8c0,0,0-0.8-0.8-0.8l0,0
				c0-0.8-0.8-0.8-1.6-1.6c-0.8-0.8-2.4-2.4-3.1-3.1c-0.8-0.8-2.4-1.6-3.1-2.4c15.7,16.5-7.1,31.4-20.4,32.2
				c-18.1,1.6-32.2-7.8-46.3-17.3c-16.5-11-22.8-24.3-44-29c-17.3-3.9-25.9,0.8-29.8,2.4c-4.7,2.4-8.6,5.5-12.6,9.4
				c-1.6-21.2-10.2-40.8-24.3-56.5c-16.5-17.3-40-27.5-64.4-27.5c-23.5,0-46.3,9.4-65.1,26.7c6.3-24.3,19.6-46.3,29-59.6
				c18.8,29.8,43.2,39.2,73.8,27.5c22-9.4,25.9-25.1,40.8-40c14.1-13.3,26.7-25.9,47.9-28.3c14.9-1.6,44.7,8.6,32.2,29
				c33-27.5-33.7-85.6-58.9-44c2.4-27.5-33.7-20.4-36.1,4.7c-8.6-18.1-30.6-9.4-40,3.1c20.4,1.6,31.4,19.6,25.9,38.5
				c0,0,0-0.8,0-1.6c-0.8-2.4-1.6-4.7-2.4-6.3c-3.9-7.8-11-12.6-18.1-14.9c-14.1-3.9-33.7,7.8-28.3,26.7c0,0.8,0.8,0.8,0.8,0.8
				s0.8-0.8,1.6-2.4c0.8-1.6,2.4-3.9,4.7-5.5c13.3-11.8,32.2-0.8,26.7,16.5c-1.6,4.7-5.5,9.4-10.2,12.6
				c-24.3,11.8-45.5-9.4-49.4-31.4c21.2-32.2,50.2-54.2,86.3-65.9c69.9-21.2,154.6,20.4,154.6,102.8c0,41.6-45.5,84.8-95,57.3
				c-14.1-11-24.3-28.3-23.5-45.5c9.4-38.5,55.7-5.5,22,15.7c-3.1,2.4,10.2-0.8,13.3-1.6c3.9-1.6,7.1-4.7,8.6-7.1
				c7.1-9.4,5.5-21.2,0-30.6c-3.9-6.3-9.4-11.8-15.7-14.1c-12.6-4.7-27.5-1.6-36.9,7.1c-10.2,9.4-14.1,23.5-14.1,33
				c0,25.1,10.2,44.7,31.4,58.1c9.4,6.3,20.4,11,31.4,12.6c3.1,0.8,5.5,0.8,8.6,0.8c43.2,4.7,81.6-34.5,85.6-76.1
				c2.4-15.7,0.8-30.6-3.9-45.5C692.5,225.9,705,260.4,703.5,300.4z"/>
		</g>
	</g>
	<g>
		<g id="XMLID_1_">
			<g>
				<path fill="#8D6E63" d="M1704.4,560.8c-1.2,0.6-2.3,2.2-3.2,3.3c-0.9,1.1-1.6,3.9-2.1,5.2c-0.5,1.3-0.8,1.6-0.9,7.5h20.2
					c0-5.8-0.2-6.2-0.5-7.6c-0.3-1.3-0.8-5.7-1.5-6.8c-0.8-1-1.8-1.7-3-2.3c-1.3-0.5-2.9-0.6-4.9-0.6
					C1707,559.4,1705.6,560.1,1704.4,560.8z M1709.3,598.7c-7.1,0-12.5-1.9-16.2-5.7s-5.6-9.9-5.6-18.1c0-3.9,0.5-7.3,1.6-10.3
					s2.5-5.5,4.3-7.6c1.9-2.1,4.1-3.7,6.7-4.7c2.6-1.1,5.4-1.6,8.4-1.6c6.8,0,11.7,1.8,15,5.2s4.8,8.5,4.8,14.5
					c0,1.5-0.2,3.1-0.5,4.1c-0.4,1-0.8,2.4-1.5,3c-0.6,0.6-1.4,2.2-2.3,2.5c-0.8,0.2-1.8,2.8-2.7,2.8h-23.3c0.1,0,0.4,1.8,1.1,3.3
					c0.6,1.6,1.5,0.4,2.6,1.3c1.1,1,2.4,1.7,3.9,2.1c1.5,0.4,3,0.6,4.7,0.6c1.9,0,3.7-0.2,5.5-0.7s3.4-1,4.7-1.6
					c0.9-0.4,1.6-0.2,2,0.5l2.3,5c0.4,0.9,0.2,1.6-0.6,2c-2.2,1.3-4.7,2.3-7.3,2.8C1714.2,598.4,1711.7,598.7,1709.3,598.7z"/>
				<path fill="#8D6E63" d="M1087.6,559.6c-1.3-0.1-2.5-0.2-3.7-0.2c-3.5,0-6.3,1.2-8.6,3.7c-2.2,2.5-3.3,6.5-3.3,12.2
					c0,5.4,1.1,9.2,3.2,11.4c2,2.2,5,3.3,8.8,3.3c1.2,0,2.7-0.1,4.3-0.4c1.7-0.2,3-0.6,4-1v-28.2
					C1090.5,560,1088.9,559.7,1087.6,559.6z M1062.6,565.9c0.8-3,2.1-5.6,3.9-7.8c1.8-2.3,4-4.1,6.7-5.4c2.7-1.3,6-2,9.7-2
					c1.2,0,2.6,0.1,4.1,0.2c1.6,0.1,3.4,0.4,5.3,0.9v-16.6c0-0.6,0.1-1.1,0.4-1.2c0.2-0.2,0.7-0.3,1.3-0.3h6.8c0.6,0,1,0.1,1.3,0.3
					c0.2,0.2,0.4,0.6,0.4,1.2v58.2c0,1.1-0.9,2-2.6,2.7c-1.7,0.7-3.7,1.2-5.9,1.6c-2.3,0.4-4.5,0.6-6.7,0.8
					c-2.2,0.1-3.9,0.2-4.8,0.2c-3.9,0-7.2-0.6-9.9-1.7c-2.7-1.1-4.8-2.7-6.5-4.7c-1.7-2-2.9-4.5-3.6-7.4c-0.8-2.9-1.1-6-1.1-9.6
					C1061.4,572,1061.8,568.9,1062.6,565.9z"/>
				<path fill="#8D6E63" d="M1358.7,558.5c0.7-1.6,1.8-3,3.2-4.1c1.4-1.2,3.1-2.1,5.1-2.8c2.1-0.6,4.4-1,7.2-1
					c2.5,0,4.9,0.2,7.4,0.6c2.5,0.5,4.8,1.2,7.1,2.1c0.5,0.2,0.8,0.5,0.8,0.9c0.1,0.4,0.1,0.8-0.1,1.2l-2,5
					c-0.2,0.5-0.4,0.7-0.6,0.8c-0.3,0.1-0.6,0-1.1-0.2c-2.3-0.8-4.3-1.3-6-1.6c-1.8-0.4-3.6-0.5-5.6-0.5c-2.2,0-3.7,0.5-4.7,1.3
					c-1,0.9-1.5,1.9-1.5,3c0,0.8,0.2,1.5,0.5,2.1c0.3,0.6,0.8,1.2,1.5,1.6c0.7,0.5,1.6,1,2.7,1.6c1.2,0.5,2.6,1.1,4.2,1.6
					c1.9,0.7,3.7,1.5,5.5,2.2c1.8,0.8,3.3,1.8,4.7,2.9c1.4,1.1,2.5,2.5,3.3,4c0.9,1.5,1.3,3.4,1.3,5.5c0,2.3-0.4,4.4-1.3,6.1
					c-0.9,1.8-2,3.2-3.6,4.4c-1.6,1.1-3.4,2-5.5,2.5c-2.1,0.6-4.4,0.9-6.8,0.9c-1.4,0-2.9-0.1-4.5-0.2c-1.6-0.2-3.2-0.4-4.8-0.6
					c-1.6-0.3-3.1-0.7-4.6-1.2c-1.5-0.5-2.8-1.1-4-1.8c-0.9-0.5-1.1-1.2-0.6-2.2l2.1-4.9c0.3-0.5,0.6-0.9,0.9-1
					c0.3-0.2,0.8-0.1,1.4,0.2c2.1,1,4.5,1.8,7.1,2.3c2.6,0.6,4.8,0.9,6.8,0.9c2.5,0,4.3-0.5,5.5-1.5c1.2-1,1.9-2.2,1.9-3.7
					c0-1.7-0.8-3-2.4-4c-1.6-1-4-2.1-7.1-3.3c-2.4-0.9-4.5-1.8-6.3-2.6c-1.8-0.9-3.3-1.9-4.4-3c-1.2-1.1-2-2.3-2.7-3.6
					c-0.6-1.3-0.9-2.9-0.9-4.7C1357.6,561.8,1358,560.1,1358.7,558.5z"/>
				<path fill="#8D6E63" d="M1149.2,559.4c-3.4,0-6.3,1.2-8.5,3.7c-2.2,2.5-3.3,6.5-3.3,12.2c0,5.4,1.1,9.2,3.2,11.4
					c2,2.2,5,3.3,8.8,3.3c1.2,0,2.7-0.1,4.3-0.4c1.7-0.2,3-0.6,4-1v-28.2c-1.8-0.5-3.4-0.8-4.7-0.9
					C1151.6,559.4,1150.4,559.4,1149.2,559.4z M1167.8,535.1v58.2c0,1.1-0.8,2-2.5,2.7c-1.7,0.7-3.7,1.2-6,1.6
					c-2.2,0.4-4.4,0.6-6.7,0.8c-2.3,0.1-3.9,0.2-4.8,0.2c-3.9,0-7.2-0.6-9.9-1.7c-2.7-1.1-4.8-2.7-6.5-4.7c-1.6-2-2.9-4.5-3.6-7.4
					c-0.8-2.9-1.1-6-1.1-9.6c0-3.3,0.4-6.4,1.2-9.4c0.8-3,2.1-5.6,3.9-7.8c1.8-2.3,4-4.1,6.7-5.4c2.7-1.3,5.9-2,9.7-2
					c1.2,0,2.6,0.1,4.1,0.2c1.6,0.1,3.4,0.4,5.3,0.9v-16.6c0-0.6,0.1-1.1,0.4-1.2c0.3-0.2,0.8-0.3,1.4-0.3h6.8c0.6,0,1,0.1,1.3,0.3
					C1167.7,534,1167.8,534.4,1167.8,535.1z"/>
				<path fill="#8D6E63" d="M1198.3,545.9c-1.8,0-3.2-0.6-4.4-1.8c-1.2-1.2-1.9-2.7-1.9-4.5c0-1.8,0.6-3.3,1.9-4.5
					c1.2-1.2,2.7-1.9,4.4-1.9c1.8,0,3.3,0.6,4.5,1.9c1.2,1.2,1.9,2.7,1.9,4.5c0,1.8-0.6,3.3-1.9,4.5
					C1201.6,545.3,1200.1,545.9,1198.3,545.9z"/>
				<path fill="#8D6E63" d="M1647.3,588.4h0.5l4.3-14.8l6.5-20.8c0.1-0.5,0.3-0.8,0.5-0.9c0.2-0.2,0.6-0.3,1.3-0.3h7.7
					c0.9,0,1.2,0.4,0.9,1.2l-13.7,41.1c-0.6,1.7-1.3,2.9-2,3.4c-0.8,0.6-1.9,0.9-3.4,0.9h-4.9c-1.3,0-2.3-0.3-3.2-0.8
					c-0.8-0.5-1.5-1.7-2.2-3.6l-14.2-41c-0.3-0.8,0.1-1.2,0.9-1.2h7.9c0.6,0,1.1,0.1,1.3,0.2c0.2,0.1,0.4,0.5,0.5,0.9l6.8,20.8
					L1647.3,588.4z"/>
				<path fill="#8D6E63" d="M1310.1,560c-1.5,0.6-2.8,1.5-3.9,2.7c-1.1,1.2-1.9,2.7-2.5,4.7c-0.6,2-0.9,4.3-0.9,7.2
					c0,5.1,0.9,8.9,2.9,11.3c2,2.5,4.6,3.6,8.1,3.6c0.9,0,1.8-0.1,3.4-0.2c1.7-0.2,4.4-0.5,4.4-1.1v-27.8c0-0.4-2-0.7-3.4-0.9
					c-1.5-0.2-1.9-0.3-3.1-0.3C1313.2,559.2,1311.6,559.5,1310.1,560z M1297.7,557.6c1.8-2.1,4.1-3.8,6.9-5c2.8-1.2,6.1-1.9,10-1.9
					c3,0,6,0.2,9.1,0.6c3.1,0.5,5.9,1.3,8.5,2.5c0.6,0.3,0.9,0.6,1.1,0.9c0.2,0.4,0,0.8,0,1.2v37.6c0,4-0.2,7.4-1.2,10.2
					c-1,2.8-2.3,5.1-4.2,7c-2,1.9-4.4,3.3-7.3,4.4c-2.9,1.1-6.3,1.9-10.2,2.4c-1,0.2-1.6-0.2-1.7-1l-0.9-6.7
					c-0.1-0.8,0.3-1.2,1.1-1.4c2.2-0.4,4-0.8,5.8-1.3c1.8-0.5,3.1-1.2,4.4-2c1.2-0.8,1.8-1.9,2.5-3.2c0.7-1.2,0.2-2.8,0.2-4.7v-0.5
					c0,0.5-2.7,0.9-4.7,1.2c-1.9,0.2-2.9,0.4-4.5,0.4c-3.5,0-6.5-0.6-9-1.8c-2.5-1.1-4.6-2.7-6.2-4.8s-2.9-4.5-3.6-7.3
					c-0.8-2.9-1.2-6-1.2-9.5c0-3.5,0.5-6.8,1.3-9.7C1294.6,562.3,1295.9,559.7,1297.7,557.6z"/>
				<path fill="#8D6E63" d="M1239.9,596.2c0,0.6-0.1,1.1-0.4,1.2c-0.2,0.2-0.6,0.2-1.3,0.2h-6.9c-0.6,0-1-0.1-1.2-0.2
					c-0.3-0.2-0.4-0.6-0.4-1.2v-37.6c0-2.1,0.4-3.7,1.1-4.9s2.3-1.9,4.7-2.3c0.6-0.1,1.4-0.2,2.4-0.3s2-0.2,3.2-0.2
					c1.1-0.1,2.2-0.1,3.3-0.2c1.1-0.1,1.9-0.1,2.7-0.1c3.9,0,7.2,0.4,10,1.2c2.9,0.8,5.2,2.1,7,3.9c1.9,1.8,3.2,4.1,4.1,7
					c0.9,2.9,1.3,6.3,1.3,10.3v23.2c0,0.6-0.1,1.1-0.3,1.2c-0.2,0.2-0.7,0.2-1.3,0.2h-6.9c-0.6,0-1-0.1-1.2-0.2
					c-0.3-0.2-0.4-0.6-0.4-1.2v-23.4c0-2.3-0.2-4.3-0.6-6c-0.3-1.7-1.1-3.1-2-4.2c-0.9-1.1-2.2-2-3.8-2.5c-1.6-0.6-3.7-0.8-6.1-0.8
					c-0.6,0-1.6,0-2.7,0c-1.2,0.1-2.6,0.2-4.2,0.5V596.2z"/>
				<path fill="#8D6E63" d="M1828.7,540.4v11.1h9.4c0.6,0,1.1,0.1,1.2,0.4c0.1,0.2,0.2,0.6,0.2,1v4.9c0,0.5-0.1,0.9-0.2,1.2
					c-0.2,0.2-0.6,0.4-1.2,0.4h-9.4v25.4c0,1.9,0.5,3.2,1.3,3.9s2.2,1.1,4,1.1c0.4,0,0.8-0.1,1.4-0.1c0.6,0,1.2-0.1,1.8-0.1
					c0.6-0.1,1.2-0.2,1.8-0.2c0.7-0.1,1.2-0.2,1.6-0.2c0.6-0.1,0.9-0.1,1.1,0.1s0.4,0.4,0.4,0.8l1,5.7c0.1,0.4,0.1,0.6,0.1,0.9
					c-0.1,0.3-0.3,0.5-0.8,0.8c-2,0.6-4.1,1.1-6.1,1.2c-2,0.1-3.6,0.2-4.7,0.2c-4.8,0-8.2-1.1-10.2-3.1c-2-2-3-5.2-3-9.4v-26.8h-6.2
					c-0.6,0-1.1-0.1-1.2-0.4c-0.1-0.2-0.2-0.6-0.2-1.1v-3.6c0-0.5,0.1-0.9,0.2-1.2c0.2-0.2,0.6-0.4,1.2-0.5l6.7-1.5l1.2-8.3
					c0.1-0.6,0.3-1.1,0.6-1.3c0.2-0.2,0.7-0.5,1.3-0.7l5.1-1.8c0.5-0.1,0.9-0.1,1.2,0.1C1828.6,539.4,1828.7,539.8,1828.7,540.4z"/>
				<path fill="#8D6E63" d="M1016.7,560c-1.2,0.6-2.3,1.5-3.2,2.5c-0.9,1.1-1.6,2.2-2.1,3.6c-0.5,1.3-0.8,2.8-0.9,4.3h20.2
					c0-1.6-0.2-3.1-0.5-4.4c-0.3-1.3-0.8-2.5-1.5-3.6c-0.7-1-1.7-1.8-3-2.4c-1.3-0.6-2.9-0.9-4.9-0.9
					C1019.3,559,1017.9,559.3,1016.7,560z M1021.6,598.7c-7.1,0-12.5-1.9-16.2-5.7c-3.7-3.8-5.6-9.9-5.6-18.1
					c0-3.9,0.5-7.3,1.6-10.3c1.1-3,2.5-5.5,4.3-7.6c1.9-2.1,4.1-3.7,6.7-4.7c2.6-1.1,5.4-1.6,8.4-1.6c6.8,0,11.7,1.8,15,5.2
					s4.9,8.2,4.9,14.2c0,1.5-0.2,2.7-0.5,3.7c-0.4,1-0.9,1.8-1.5,2.4c-0.6,0.6-1.4,1-2.2,1.2c-0.9,0.2-1.8,0.4-2.8,0.4h-23.3
					c0.1,2.3,0.4,4.2,1.1,5.8c0.6,1.5,1.5,2.8,2.6,3.7c1.1,1,2.4,1.7,3.9,2.1c1.5,0.4,3,0.6,4.8,0.6c1.9,0,3.7-0.2,5.5-0.7
					s3.4-1,4.8-1.6c0.9-0.4,1.6-0.2,1.9,0.5l2.3,5c0.4,0.9,0.2,1.6-0.6,2c-2.2,1.3-4.7,2.3-7.3,2.8
					C1026.6,598.4,1024,598.7,1021.6,598.7z"/>
				<path fill="#8D6E63" d="M1468.4,549.4c0,1.7,0.5,3.3,1.5,5.1c1,1.8,2,3.2,3.2,4.5c0.8-0.5,1.5-1,2.3-1.6
					c0.8-0.6,1.6-1.3,2.3-2.2c0.7-0.8,1.2-1.7,1.7-2.6c0.4-1,0.6-2,0.6-3.2c0-1.4-0.5-2.7-1.4-4c-0.9-1.2-2.3-1.9-4.2-1.9
					c-1.9,0-3.4,0.6-4.4,1.7C1469,546.2,1468.4,547.6,1468.4,549.4z M1475.6,576.1c-1.7-2.1-3.4-4.2-5.1-6.3
					c-1.2,0.8-2.3,1.6-3.4,2.5c-1.1,0.9-2,1.8-2.9,2.9c-0.8,1-1.5,2.1-2,3.3c-0.5,1.2-0.8,2.5-0.8,3.8c0,2.6,0.7,4.5,2,5.8
					c1.3,1.2,3.3,1.9,5.9,1.9c1.1,0,2.1-0.2,3.2-0.6c1.1-0.4,2.2-1,3.2-1.6c1-0.7,1.9-1.5,2.8-2.3c0.9-0.9,1.6-1.8,2.3-2.8
					C1479,580.3,1477.2,578.2,1475.6,576.1z M1468.4,598.7c-5.1,0-9.2-1.4-12.2-4.1c-3-2.8-4.5-6.7-4.5-11.6c0-2.2,0.3-4.2,1.1-6.2
					c0.7-1.9,1.6-3.7,2.8-5.4c1.2-1.7,2.6-3.2,4.2-4.7c1.6-1.4,3.3-2.6,5-3.7c-1.6-1.9-3-4-4.2-6.4c-1.2-2.4-1.9-4.7-1.9-7
					c0-2.2,0.4-4.3,1.3-6c0.8-1.8,1.9-3.3,3.3-4.6c1.5-1.3,3.2-2.3,5-2.9c1.9-0.7,3.9-1,6-1c2.2,0,4.2,0.3,6,0.9
					c1.9,0.6,3.4,1.5,4.8,2.7c1.3,1.2,2.4,2.5,3.2,4.1c0.8,1.6,1.2,3.4,1.2,5.4c0,2.1-0.3,4-1.1,5.7c-0.6,1.7-1.5,3.3-2.6,4.7
					c-1.1,1.4-2.3,2.6-3.6,3.7s-2.7,2-4.1,2.9c1.5,1.9,2.8,3.6,4,5c1.2,1.4,2.3,2.7,3.5,4.1c1.7-3,3.8-5.7,6.2-8.1
					c2.5-2.3,5.3-3.9,8.5-4.7c0.8-0.2,1.5-0.4,2.2-0.5c0.6-0.1,1.4-0.1,2.2-0.2c0.6,0,1,0.2,1.2,0.8l0.9,6c0.2,0.7-0.2,1.1-1.2,1.2
					c-2,0.4-3.7,0.9-5.1,1.8s-2.7,1.8-3.8,2.9c-1.1,1.1-2.1,2.3-2.9,3.7c-0.8,1.3-1.6,2.8-2.3,4.3c0.8,1,2,2.3,3.4,4
					c1.5,1.6,2.9,3.3,4.2,4.9c1.6,1.9,3.3,4.1,5.1,6.1c0.2,0.2,0.3,1.2,0.3,1.6c-0.1,0.4-0.4,1.9-1,1.9h-7.8c-0.6,0-1.2-1.3-1.6-1.5
					c-0.4-0.1-0.9-1.6-1.3-2.1c-1.1-1.2-2.1-2.3-3-3.3c-0.8-0.8-1.5-1.6-2.1-2.4c-0.6-0.8-1-1.2-1.1-1.2c-2.2,2.5-4.7,4.6-7.6,6.4
					C1476.1,597.8,1472.5,598.7,1468.4,598.7z"/>
				<path fill="#8D6E63" d="M1774,560.1c-1.6-0.6-3.6-0.8-6.1-0.8c-0.6,0-1.6,0-2.8,0c-1.2,0.1-2.6,0.2-4.1,0.5v36.3
					c0,0.6-0.1,1.1-0.4,1.2c-0.2,0.2-0.7,0.2-1.3,0.2h-6.8c-0.6,0-1-0.1-1.3-0.2c-0.3-0.2-0.4-0.6-0.4-1.2v-37.6
					c0-2.1,0.4-3.7,1.2-4.9c0.8-1.2,2.3-1.9,4.7-2.3c0.6-0.1,1.3-0.2,2.3-0.3s2-0.2,3.2-0.2c1.1-0.1,2.2-0.1,3.3-0.2
					c1.1-0.1,1.9-0.1,2.7-0.1c3.9,0,7.2,0.4,10,1.2c2.9,0.8,5.2,2.1,7.1,3.9c1.8,1.8,3.2,4.1,4,7c0.9,2.9,1.3,6.3,1.3,10.3v23.2
					c0,0.6-0.1,1.1-0.3,1.2c-0.2,0.2-0.6,0.2-1.3,0.2h-6.9c-0.6,0-1-0.1-1.3-0.2c-0.2-0.2-0.4-0.6-0.4-1.2v-23.4
					c0-2.3-0.2-4.3-0.5-6c-0.4-1.7-1.1-3.1-2-4.2C1776.9,561.5,1775.7,560.7,1774,560.1z"/>
				<path fill="#8D6E63" d="M1194.8,597.7c-0.6,0-1-0.1-1.3-0.2c-0.2-0.2-0.3-0.6-0.3-1.2v-43.1c0-0.6,0.1-1.1,0.3-1.2
					c0.3-0.2,0.7-0.3,1.3-0.3h6.8c0.6,0,1.1,0.1,1.4,0.3c0.2,0.2,0.4,0.6,0.4,1.2v43.1c0,0.6-0.1,1.1-0.4,1.2
					c-0.3,0.2-0.8,0.2-1.4,0.2H1194.8z"/>
				<path fill="#8D6E63" d="M1865.2,596.6c-1.5-0.5-2.8-1.1-4-1.8c-0.9-0.5-1.1-1.2-0.6-2.2l2.1-4.9c0.3-0.5,0.6-0.9,0.9-1
					c0.3-0.2,0.8-0.1,1.4,0.2c2.1,1,4.4,1.8,7.1,2.3c2.6,0.6,4.8,0.9,6.8,0.9c2.5,0,4.3-0.5,5.5-1.5c1.2-1,1.8-2.2,1.8-3.7
					c0-1.7-0.8-3-2.3-4c-1.6-1-4-2.1-7.1-3.3c-2.4-0.9-4.5-1.8-6.3-2.6c-1.8-0.9-3.3-1.9-4.4-3c-1.2-1.1-2-2.3-2.7-3.6
					c-0.6-1.3-0.9-2.9-0.9-4.7c0-1.9,0.3-3.7,1.1-5.3c0.7-1.6,1.8-3,3.2-4.1c1.3-1.2,3.1-2.1,5.1-2.8c2.1-0.6,4.4-1,7.1-1
					c2.5,0,5,0.2,7.4,0.6c2.5,0.5,4.8,1.2,7.1,2.1c0.5,0.2,0.8,0.5,0.8,0.9c0.1,0.4,0.1,0.8-0.1,1.2l-2,5c-0.2,0.5-0.4,0.7-0.6,0.8
					c-0.3,0.1-0.6,0-1.1-0.2c-2.3-0.8-4.3-1.3-6-1.6c-1.8-0.4-3.6-0.5-5.6-0.5c-2.2,0-3.7,0.5-4.7,1.3c-1,0.9-1.5,1.9-1.5,3
					c0,0.8,0.2,1.5,0.5,2.1c0.3,0.6,0.9,1.2,1.6,1.6c0.7,0.5,1.6,1,2.7,1.6c1.2,0.5,2.6,1.1,4.2,1.6c1.9,0.7,3.7,1.5,5.5,2.2
					c1.8,0.8,3.3,1.8,4.7,2.9c1.4,1.1,2.5,2.5,3.3,4c0.9,1.5,1.3,3.4,1.3,5.5c0,2.3-0.5,4.4-1.3,6.1c-0.9,1.8-2.1,3.2-3.6,4.4
					c-1.6,1.1-3.4,2-5.5,2.5c-2.1,0.6-4.4,0.9-6.8,0.9c-1.4,0-2.9-0.1-4.5-0.2c-1.6-0.2-3.2-0.4-4.8-0.6
					C1868.2,597.5,1866.7,597.1,1865.2,596.6z"/>
				<path fill="#8D6E63" d="M1583.5,560.8c-1.3,0.6-2.3,2.2-3.2,3.3c-0.9,1.1-1.6,3.9-2.1,5.2c-0.5,1.3-0.8,1.6-0.9,7.5h20.2
					c0-5.8-0.1-6.2-0.4-7.6c-0.3-1.3-0.8-5.7-1.5-6.8c-0.8-1-1.8-1.7-3-2.3c-1.2-0.5-2.9-0.6-4.8-0.6
					C1586.1,559.4,1584.7,560.1,1583.5,560.8z M1568.1,564.5c1.1-3,2.5-5.5,4.4-7.6c1.8-2.1,4-3.7,6.6-4.7c2.6-1.1,5.4-1.6,8.5-1.6
					c6.7,0,11.7,1.8,14.9,5.2c3.3,3.4,4.9,8.5,4.9,14.5c0,1.5-0.2,3.1-0.5,4.1c-0.3,1-0.9,2.4-1.5,3c-0.6,0.6-1.3,2.2-2.2,2.5
					c-0.9,0.2-1.8,2.8-2.7,2.8h-23.4c0.1,0,0.4,1.8,1.1,3.3c0.6,1.6,1.5,0.4,2.6,1.3c1.2,1,2.5,1.7,3.9,2.1s3,0.6,4.7,0.6
					c1.9,0,3.7-0.2,5.5-0.7c1.8-0.5,3.4-1,4.7-1.6c0.9-0.4,1.6-0.2,1.9,0.5l2.4,5c0.4,0.9,0.2,1.6-0.6,2c-2.2,1.3-4.7,2.3-7.3,2.8
					c-2.6,0.5-5.1,0.8-7.5,0.8c-7.1,0-12.5-1.9-16.3-5.7c-3.7-3.8-5.6-9.9-5.6-18.1C1566.5,571,1567,567.6,1568.1,564.5z"/>
				<path fill="#8D6E63" d="M954,554.5c0.5,0.8,0.9,1.8,1.3,3l4.8,16.7l3.6,12.8h0.5l2.3-13.7l3.7-20.7c0.1-0.5,0.3-0.8,0.5-0.9
					c0.2-0.1,0.6-0.2,1.2-0.2l8.1-0.1c0.8,0,1.2,0.4,1,1.2l-9.5,41.1c-0.5,1.9-1.2,3.1-2,3.6c-0.9,0.5-1.9,0.8-3.2,0.8h-3.9
					c-1.6,0-2.6-0.3-3.3-0.8c-0.6-0.5-1.3-1.6-1.8-3.3l-4.4-14.8l-3.8-13.8h-0.4l-3.9,14.2l-4.5,14.4c-0.5,1.5-1.1,2.6-1.8,3.2
					c-0.7,0.6-1.8,0.9-3.3,0.9h-4.1c-1.2,0-2.2-0.3-3-0.8c-0.8-0.5-1.4-1.7-1.9-3.6l-9.4-41.1c-0.2-0.8,0.1-1.2,0.9-1.2h7.9
					c0.6,0,1,0.1,1.2,0.2c0.2,0.1,0.4,0.5,0.5,0.9l3.9,20.5l2.3,13.4h0.5l3.3-11.4l5-17.8c0.4-1.2,0.8-2.1,1.5-2.8
					c0.6-0.7,1.8-1.1,3.5-1.1h3.6C952.5,553.4,953.5,553.8,954,554.5z"/>
			</g>
			<g>
			</g>
		</g>
	</g>
</g>
</svg>
