<?xml version="1.0" encoding="utf-8"?>
<!-- Generator: Adobe Illustrator 18.0.0, SVG Export Plug-In . SVG Version: 6.00 Build 0)  -->
<!DOCTYPE svg PUBLIC "-//W3C//DTD SVG 1.1//EN" "http://www.w3.org/Graphics/SVG/1.1/DTD/svg11.dtd">
<svg version="1.1" id="Layer_1" xmlns="http://www.w3.org/2000/svg" xmlns:xlink="http://www.w3.org/1999/xlink" x="0px" y="0px"
	 viewBox="0 0 14 12" enable-background="new 0 0 14 12" xml:space="preserve">
<path d="M7,2.2C7,2.2,7,2.2,7,2.2C7,2.2,7,2.2,7,2.2c-2.5-4-7.2-2.1-7,1.5c0,0.6,0.2,2.1,2.3,3.5
	C6.4,9.9,7,11.4,7,11.4s0,0,0,0c0,0,0,0,0,0s0.6-1.5,4.7-4.2C13.8,5.9,14,4.3,14,3.7C14.2,0.2,9.5-1.8,7,2.2z"/>
</svg>
