<?xml version="1.0" encoding="utf-8"?>
<!-- Generator: Adobe Illustrator 18.0.0, SVG Export Plug-In . SVG Version: 6.00 Build 0)  -->
<!DOCTYPE svg PUBLIC "-//W3C//DTD SVG 1.1//EN" "http://www.w3.org/Graphics/SVG/1.1/DTD/svg11.dtd">
<svg version="1.1" id="Layer_1" xmlns="http://www.w3.org/2000/svg" xmlns:xlink="http://www.w3.org/1999/xlink" x="0px" y="0px"
	 viewBox="0 0 21 21" enable-background="new 0 0 21 21" xml:space="preserve">
<path fill="#FFFFFF" d="M16.9,0H4.1C1.8,0,0,1.8,0,4.1v4.3v8.6C0,19.2,1.8,21,4.1,21h12.9c2.2,0,4.1-1.8,4.1-4.1V8.3V4.1
	C21,1.8,19.2,0,16.9,0z M18.1,2.4l0.5,0v0.5V6L15,6l0-3.6L18.1,2.4z M7.5,8.3c0.7-0.9,1.8-1.5,3-1.5s2.3,0.6,3,1.5
	c0.4,0.6,0.7,1.4,0.7,2.2c0,2-1.7,3.7-3.7,3.7c-2,0-3.7-1.7-3.7-3.7C6.8,9.7,7.1,9,7.5,8.3z M19,16.9c0,1.1-0.9,2-2,2H4.1
	c-1.1,0-2-0.9-2-2V8.3h3.1C4.9,9,4.8,9.7,4.8,10.5c0,3.2,2.6,5.7,5.7,5.7c3.2,0,5.7-2.6,5.7-5.7c0-0.8-0.2-1.5-0.4-2.2H19V16.9z"/>
</svg>
