<?xml version="1.0" encoding="utf-8"?>
<!-- Generator: Adobe Illustrator 18.0.0, SVG Export Plug-In . SVG Version: 6.00 Build 0)  -->
<!DOCTYPE svg PUBLIC "-//W3C//DTD SVG 1.1//EN" "http://www.w3.org/Graphics/SVG/1.1/DTD/svg11.dtd" [
	<!ENTITY ns_extend "http://ns.adobe.com/Extensibility/1.0/">
	<!ENTITY ns_ai "http://ns.adobe.com/AdobeIllustrator/10.0/">
	<!ENTITY ns_graphs "http://ns.adobe.com/Graphs/1.0/">
	<!ENTITY ns_vars "http://ns.adobe.com/Variables/1.0/">
	<!ENTITY ns_imrep "http://ns.adobe.com/ImageReplacement/1.0/">
	<!ENTITY ns_sfw "http://ns.adobe.com/SaveForWeb/1.0/">
	<!ENTITY ns_custom "http://ns.adobe.com/GenericCustomNamespace/1.0/">
	<!ENTITY ns_adobe_xpath "http://ns.adobe.com/XPath/1.0/">
]>
<svg version="1.1" id="Layer_1" xmlns:x="&ns_extend;" xmlns:i="&ns_ai;" xmlns:graph="&ns_graphs;"
	 xmlns="http://www.w3.org/2000/svg" xmlns:xlink="http://www.w3.org/1999/xlink" x="0px" y="0px" viewBox="0 0 160 160"
	 enable-background="new 0 0 160 160" xml:space="preserve">
<metadata>
	<sfw  xmlns="&ns_sfw;">
		<slices></slices>
		<sliceSourceBounds  height="114.4" width="85.2" y="-137.2" x="37.4" bottomLeftOrigin="true"></sliceSourceBounds>
	</sfw>
</metadata>
<g>
	<path fill-rule="evenodd" clip-rule="evenodd" fill="#8D6E63" d="M53.4,61.5c0,0,0,0.1,0,0.1c-1,3.3-2.7,6.1-1.6,9.7
		c0.5,1.5,1.2,2.8,1.8,4.2c0.2,0.6,0.4,1.1,0.7,1.7c0.4,0.8,0.8,1.5,1.4,2.1c-0.3-0.4-0.5-0.9-0.7-1.4c-0.2-0.5-0.2-1.2-0.3-1.7
		c-0.1-0.6-0.2-1.1-0.2-1.7c-0.1-1.1,0-2.3-0.1-3.4c-0.1-0.9-0.3-1.8-0.5-2.7c-0.5-2-0.7-3.5-0.7-5.6C53.3,62.3,53.4,61.9,53.4,61.5
		L53.4,61.5z"/>
	<path fill-rule="evenodd" clip-rule="evenodd" fill="#8D6E63" d="M55,71.7c0.1,0.8,0.1,0.6,0.1,1.1c0.1,1.1,0.9,1.9,1.5,2.7
		c-0.3-1.2-0.6-2.9-1.2-3.5C55.3,71.9,55.1,71.8,55,71.7L55,71.7z"/>
	<path fill-rule="evenodd" clip-rule="evenodd" fill="#8D6E63" d="M56.1,72.1c-0.2-1.3-0.4-2.6-0.6-3.9c-0.1-0.7-0.7-1.9-1.3-2.3
		c-0.5,1.3,0.4,2.9,0.8,4.2C55.1,70.6,55.6,71.4,56.1,72.1L56.1,72.1z"/>
	<path fill-rule="evenodd" clip-rule="evenodd" fill="#8D6E63" d="M55.6,56.9c-0.1,0.4-0.2,0.9-0.3,1.1c-0.1,0.2-0.1,0.4-0.2,0.6
		c-1,2.1-1.3,3.8-0.8,6.1c0.3,1.4,1.5,2,1.8,3.7c0-0.2,0-0.4,0-0.6c0-0.8,0.3-1.5,0.5-2.2c0.4-1.7,0.3-3.9-0.1-5.6
		C56.1,58.9,55.8,57.9,55.6,56.9L55.6,56.9z"/>
	<path fill-rule="evenodd" clip-rule="evenodd" fill="#8D6E63" d="M50.8,68.2c0.2-0.5,0.3-1.1,0.4-1.6c0.2-1,0.4-1.9,0.7-2.8
		c0.5-1.6,1.3-3.1,1.7-4.8c0.4-1.7,0.9-2.8,1.7-4.3c0.3-0.5,0.5-1,0.7-1.5c-0.4,0.4-0.9,0.9-1.3,1.2c-0.8,0.6-1.7,1-2.5,1.7
		c-0.8,0.7-1.3,2.1-1.6,3.1c-0.2,0.8-0.4,1.7-0.4,2.6c0,0.6,0.1,1.1,0.2,1.7C50.5,65,50.6,66.6,50.8,68.2L50.8,68.2z"/>
	<path fill-rule="evenodd" clip-rule="evenodd" fill="#8D6E63" d="M56.9,58.9c0.1-1.3,0.6-2.5,1.1-3.8c0.7-1.7,1.3-3.5,1.6-5.4
		c0.1-0.6,0.2-1.2,0.2-1.8c0.1-0.5,0.1-1,0.1-1.5c-0.1,0.2-0.3,0.4-0.4,0.5c-1.3,2.5-2.7,3.5-3.1,6.6c-0.1,0.9-0.1,1.9,0,2.8
		c0,0.5,0.1,0.9,0.1,1.4C56.7,58.1,56.8,58.5,56.9,58.9L56.9,58.9z"/>
	<path fill-rule="evenodd" clip-rule="evenodd" fill="#8D6E63" d="M54.3,59.2c0.4-0.9,1.2-3.4,1.6-4.7c-0.4,0.8-1.1,2-1.1,2.3
		C54.5,57.5,54.4,58.4,54.3,59.2L54.3,59.2z"/>
	<path fill-rule="evenodd" clip-rule="evenodd" fill="#8D6E63" d="M55.1,51.7c-0.1-0.2-0.3-0.3-0.5-0.3c-0.5,0-1.3,0.8-1.6,1.2
		c-0.6,0.8-1,2.1-1.5,3.1c-0.2,0.4-0.5,0.7-0.7,1.1c0.5-0.8,1.2-1.5,1.9-2C54,53.8,54.6,53.2,55.1,51.7L55.1,51.7z"/>
	<path fill-rule="evenodd" clip-rule="evenodd" fill="#8D6E63" d="M55,53.3c1-1.2,2-3.6,2.9-4.8c1-1.4,1.7-3,3-4.2
		c0.6-0.5,1.2-0.9,1.8-1.4c-0.3,0.1-0.7,0.3-1,0.3c-0.7,0.1-1.3,0.2-1.9,0.4c-1.1,0.4-2.3,1.7-2.8,2.7c-0.3,0.6-0.5,1.4-0.7,2.1
		C56,49.8,55.8,51.9,55,53.3L55,53.3z"/>
	<path fill-rule="evenodd" clip-rule="evenodd" fill="#8D6E63" d="M56.1,47.5c-0.1,0.2-0.2,0.3-0.3,0.5c-0.2,0.5-0.6,0.9-0.8,1.4
		c-0.2,0.5-0.4,1-0.6,1.5c0.2-0.1,0.4,0,0.7,0c0.4-1,0.5-1.9,0.8-2.9C55.9,47.8,56,47.6,56.1,47.5L56.1,47.5z"/>
	<path fill-rule="evenodd" clip-rule="evenodd" fill="#8D6E63" d="M60.6,43c1.1-0.4,2-1.2,2.6-2.1c-0.5,0.1-1.1,0.5-1.5,0.8
		C61.3,41.9,61,42.5,60.6,43L60.6,43z"/>
	<path fill-rule="evenodd" clip-rule="evenodd" fill="#8D6E63" d="M66.7,40.8c0.5,0,1.4-0.1,1.8-0.1c1.3,0,2.3,0.2,3.6-0.1
		c1.2-0.3,2.4-0.8,3.6-1.2c0.9-0.3,1.8-0.6,2.8-0.8c-0.6,0-1.1,0-1.7-0.1c-1.3-0.2-1.8-0.7-3.2-0.4c-1.6,0.3-3.2,1.1-4.7,1.7
		C68.1,40,67.4,40.5,66.7,40.8L66.7,40.8z"/>
	<path fill-rule="evenodd" clip-rule="evenodd" fill="#8D6E63" d="M67.4,42.7c0.1,0,0.1-0.1,0.2-0.1c0.6-0.3,2-0.7,2.2-1.4
		C69.1,40.9,67.9,42,67.4,42.7L67.4,42.7z"/>
	<path fill-rule="evenodd" clip-rule="evenodd" fill="#8D6E63" d="M70.1,37.7c0.9,0.1,1.7,0.3,2.6,0.1C73,36.8,70.9,37.3,70.1,37.7
		L70.1,37.7z"/>
	<path fill-rule="evenodd" clip-rule="evenodd" fill="#8D6E63" d="M66.2,41.3c-0.6,1-0.9,2-1.4,3c-0.3,0.5-0.5,1.1-0.8,1.6
		c0,0,0.1-0.1,0.1-0.1c0.4-0.4,0.7-0.7,1.1-1.1c0.5-0.5,1.1-1.1,1.6-1.6c0.3-0.7,0.9-1.2,1.3-1.9C67.7,41.1,66.6,41.2,66.2,41.3
		L66.2,41.3z"/>
	<path fill-rule="evenodd" clip-rule="evenodd" fill="#8D6E63" d="M60.1,50.9c0.6-0.8,1.1-1.7,1.8-2.5c0.6-0.8,1-1.6,1.4-2.5
		c0.8-1.5,1.4-3,2.1-4.5c-1.2,0.9-4,3.1-4.4,3.9c-0.3,0.7-0.4,1.4-0.5,2.1C60.3,48.4,60.4,49.9,60.1,50.9L60.1,50.9z"/>
	<path fill-rule="evenodd" clip-rule="evenodd" fill="#8D6E63" d="M62.2,42.7c0.9-0.2,4.5-2.6,5.2-3c1.3-0.6,2.5-1.2,3.8-1.5
		c-0.2,0-0.4,0-0.4,0c-0.6-0.1-1.2-0.3-1.8-0.4c-0.5-0.1-1-0.2-1.5,0c-0.5,0.1-1.2,0.4-1.6,0.7c-0.7,0.5-1.3,1.4-1.9,2.1
		C63.4,41.3,62.8,42,62.2,42.7L62.2,42.7z"/>
	<path fill-rule="evenodd" clip-rule="evenodd" fill="#8D6E63" d="M55.2,74.4c-0.2,1.2,0,2.7,0.4,3.7c0.4,1,1.2,1.7,1.8,2.6
		c0.4,0.6,0.8,1.1,1.2,1.7c0-0.1-0.1-0.2-0.1-0.3c-0.5-1.2-0.8-2.5-1.2-3.8C56.8,76.8,56.2,75.5,55.2,74.4L55.2,74.4z"/>
	<path fill-rule="evenodd" clip-rule="evenodd" fill="#8D6E63" d="M106.6,61.5c0,0,0,0.1,0,0.1c1,3.3,2.7,6.1,1.6,9.7
		c-0.5,1.5-1.2,2.8-1.8,4.2c-0.2,0.6-0.4,1.1-0.7,1.7c-0.4,0.8-0.8,1.5-1.4,2.1c0.3-0.4,0.5-0.9,0.7-1.4c0.2-0.5,0.2-1.2,0.3-1.7
		c0.1-0.6,0.2-1.1,0.2-1.7c0.1-1.1,0-2.3,0.1-3.4c0.1-0.9,0.3-1.8,0.5-2.7c0.5-2,0.7-3.5,0.7-5.6C106.7,62.3,106.6,61.9,106.6,61.5
		L106.6,61.5z"/>
	<path fill-rule="evenodd" clip-rule="evenodd" fill="#8D6E63" d="M105,71.7c-0.1,0.8-0.1,0.6-0.1,1.1c-0.1,1.1-0.9,1.9-1.5,2.7
		c0.3-1.2,0.6-2.9,1.2-3.5C104.7,71.9,104.9,71.8,105,71.7L105,71.7z"/>
	<path fill-rule="evenodd" clip-rule="evenodd" fill="#8D6E63" d="M103.9,72.1c0.2-1.3,0.4-2.6,0.6-3.9c0.1-0.7,0.7-1.9,1.3-2.3
		c0.5,1.3-0.4,2.9-0.8,4.2C104.9,70.6,104.4,71.4,103.9,72.1L103.9,72.1z"/>
	<path fill-rule="evenodd" clip-rule="evenodd" fill="#8D6E63" d="M104.4,56.9c0.1,0.4,0.2,0.9,0.3,1.1c0.1,0.2,0.1,0.4,0.2,0.6
		c1,2.1,1.3,3.8,0.8,6.1c-0.3,1.4-1.5,2-1.8,3.7c0-0.2,0-0.4,0-0.6c0-0.8-0.3-1.5-0.5-2.2c-0.4-1.7-0.3-3.9,0.1-5.6
		C103.9,58.9,104.2,57.9,104.4,56.9L104.4,56.9z"/>
	<path fill-rule="evenodd" clip-rule="evenodd" fill="#8D6E63" d="M109.2,68.2c-0.2-0.5-0.3-1.1-0.4-1.6c-0.2-1-0.4-1.9-0.7-2.8
		c-0.5-1.6-1.3-3.1-1.7-4.8c-0.4-1.7-0.9-2.8-1.7-4.3c-0.3-0.5-0.5-1-0.7-1.5c0.4,0.4,0.9,0.9,1.3,1.2c0.8,0.6,1.7,1,2.5,1.7
		c0.8,0.7,1.3,2.1,1.6,3.1c0.2,0.8,0.4,1.7,0.4,2.6c0,0.6-0.1,1.1-0.2,1.7C109.5,65,109.4,66.6,109.2,68.2L109.2,68.2z"/>
	<path fill-rule="evenodd" clip-rule="evenodd" fill="#8D6E63" d="M103.1,58.9c-0.1-1.3-0.6-2.5-1.1-3.8c-0.7-1.7-1.3-3.5-1.6-5.4
		c-0.1-0.6-0.2-1.2-0.2-1.8c-0.1-0.5-0.1-1-0.1-1.5c0.1,0.2,0.3,0.4,0.4,0.5c1.3,2.5,2.7,3.5,3.1,6.6c0.1,0.9,0.1,1.9,0,2.8
		c0,0.5-0.1,0.9-0.1,1.4C103.3,58.1,103.2,58.5,103.1,58.9L103.1,58.9z"/>
	<path fill-rule="evenodd" clip-rule="evenodd" fill="#8D6E63" d="M105.7,59.2c-0.4-0.9-1.2-3.4-1.6-4.7c0.4,0.8,1.1,2,1.1,2.3
		C105.5,57.5,105.6,58.4,105.7,59.2L105.7,59.2z"/>
	<path fill-rule="evenodd" clip-rule="evenodd" fill="#8D6E63" d="M104.9,51.7c0.1-0.2,0.3-0.3,0.5-0.3c0.5,0,1.3,0.8,1.6,1.2
		c0.6,0.8,1,2.1,1.5,3.1c0.2,0.4,0.5,0.7,0.7,1.1c-0.5-0.8-1.2-1.5-1.9-2C106,53.8,105.4,53.2,104.9,51.7L104.9,51.7z"/>
	<path fill-rule="evenodd" clip-rule="evenodd" fill="#8D6E63" d="M105,53.3c-1-1.2-2-3.6-2.9-4.8c-1-1.4-1.7-3-3-4.2
		c-0.6-0.5-1.2-0.9-1.8-1.4c0.3,0.1,0.7,0.3,1,0.3c0.7,0.1,1.3,0.2,1.9,0.4c1.1,0.4,2.3,1.7,2.8,2.7c0.3,0.6,0.5,1.4,0.7,2.1
		C104,49.8,104.2,51.9,105,53.3L105,53.3z"/>
	<path fill-rule="evenodd" clip-rule="evenodd" fill="#8D6E63" d="M103.9,47.5c0.1,0.2,0.2,0.3,0.3,0.5c0.2,0.5,0.6,0.9,0.8,1.4
		c0.2,0.5,0.4,1,0.6,1.5c-0.2-0.1-0.4,0-0.7,0c-0.4-1-0.5-1.9-0.8-2.9C104.1,47.8,104,47.6,103.9,47.5L103.9,47.5z"/>
	<path fill-rule="evenodd" clip-rule="evenodd" fill="#8D6E63" d="M99.4,43c-1.1-0.4-2-1.2-2.6-2.1c0.5,0.1,1.1,0.5,1.5,0.8
		C98.7,41.9,99,42.5,99.4,43L99.4,43z"/>
	<path fill-rule="evenodd" clip-rule="evenodd" fill="#8D6E63" d="M93.3,40.8c-0.5,0-1.4-0.1-1.8-0.1c-1.3,0-2.3,0.2-3.6-0.1
		c-1.2-0.3-2.4-0.8-3.6-1.2c-0.9-0.3-1.8-0.6-2.8-0.8c0.6,0,1.1,0,1.7-0.1c1.3-0.2,1.8-0.7,3.2-0.4c1.6,0.3,3.2,1.1,4.7,1.7
		C91.9,40,92.6,40.5,93.3,40.8L93.3,40.8z"/>
	<path fill-rule="evenodd" clip-rule="evenodd" fill="#8D6E63" d="M92.6,42.7c-0.1,0-0.1-0.1-0.2-0.1c-0.6-0.3-2-0.7-2.2-1.4
		C90.9,40.9,92.1,42,92.6,42.7L92.6,42.7z"/>
	<path fill-rule="evenodd" clip-rule="evenodd" fill="#8D6E63" d="M89.9,37.7c-0.9,0.1-1.6,0.3-2.6,0.1C87,36.8,89.1,37.3,89.9,37.7
		L89.9,37.7z"/>
	<path fill-rule="evenodd" clip-rule="evenodd" fill="#8D6E63" d="M93.8,41.3c0.6,1,0.9,2,1.4,3c0.3,0.5,0.5,1.1,0.8,1.6
		c0,0-0.1-0.1-0.1-0.1c-0.4-0.4-0.7-0.7-1.1-1.1c-0.5-0.5-1.1-1.1-1.6-1.6c-0.3-0.7-0.9-1.2-1.3-1.9C92.3,41.1,93.4,41.2,93.8,41.3
		L93.8,41.3z"/>
	<path fill-rule="evenodd" clip-rule="evenodd" fill="#8D6E63" d="M99.9,50.9c-0.6-0.8-1.1-1.7-1.8-2.5c-0.6-0.8-1-1.6-1.4-2.5
		c-0.8-1.5-1.4-3-2.1-4.5c1.2,0.9,4,3.1,4.4,3.9c0.3,0.7,0.4,1.4,0.5,2.1C99.7,48.4,99.6,49.9,99.9,50.9L99.9,50.9z"/>
	<path fill-rule="evenodd" clip-rule="evenodd" fill="#8D6E63" d="M97.8,42.7c-0.9-0.2-4.5-2.6-5.2-3c-1.3-0.6-2.5-1.2-3.8-1.5
		c0.2,0,0.4,0,0.4,0c0.6-0.1,1.2-0.3,1.8-0.4c0.5-0.1,1-0.2,1.5,0c0.5,0.1,1.2,0.4,1.6,0.7c0.7,0.5,1.3,1.4,1.9,2.1
		C96.6,41.3,97.2,42,97.8,42.7L97.8,42.7z"/>
	<path fill-rule="evenodd" clip-rule="evenodd" fill="#8D6E63" d="M104.8,74.4c0.2,1.2,0,2.7-0.4,3.7c-0.4,1-1.2,1.7-1.8,2.6
		c-0.4,0.6-0.8,1.1-1.2,1.7c0-0.1,0.1-0.2,0.1-0.3c0.5-1.2,0.8-2.5,1.2-3.8C103.2,76.8,103.8,75.5,104.8,74.4L104.8,74.4z"/>
	<path fill-rule="evenodd" clip-rule="evenodd" fill="#8D6E63" d="M101.5,94.7c0.8-1.3,2.9-1.9,4.1-2.8c1.3-0.8,1.6-1.7,2.5-2.8
		c0.3-0.4,0.7-0.8,1-1.2c0.3-0.4,0.7-1.3,0.8-1.8c0.3-1.1,0.1-1.9,0.7-3c1.1-1.8,2.7-3.1,3.6-5.2c0.7-1.6,0.4-2.8,0.2-4.4
		c-0.1-0.7-0.1-1.5-0.3-2.2l0,0l0,0c-0.5-0.5-1.4-1.4-2-0.7c-0.4,0.4-0.8,1.7-0.9,2.3c-0.1,0.8,0.4,2.1,1.3,2.4l0.1,0l0,0
		c0.5-0.3,0.8-1,0.9-1.5l0,0l0,0c-0.1-0.6-0.5-1.3-1-1.6l-0.3-0.1l0,0.3c0.1,0.6,0.6,0.8,0.6,1.4c0,0.2-0.2,0.9-0.4,0.9
		c-0.3,0-0.5-0.7-0.6-1c-0.1-0.2-0.1-0.5-0.1-0.7c0-0.4,0.3-1.4,0.7-1.6c0.3-0.2,0.8,0.3,1.1,0.5c0.1,1.4,0.5,2.6,0,4
		c-0.2,0.7-0.7,1.3-1.1,1.9c-0.9,1.2-1.8,2.2-2.8,3.3c-0.5,0.5-1.2,1.1-1.5,1.7c-0.3,0.6-0.4,1.2-0.7,1.8c-0.2,0.6-0.4,1.2-0.6,1.8
		c-0.1,0.8,0.1,1.6,0.1,2.4c0,0.9-0.2,1.7-0.9,2.4c-0.8,0.8-2.1,1.2-3.1,1.8c-0.9,0.6-1.2,1.1-1.9,1.9l-0.1,0.1l0.1,0.1
		c0,0,0,0.1,0.1,0.1l0.1,0.1l0.1-0.1C101.4,94.8,101.5,94.8,101.5,94.7L101.5,94.7z"/>
	<path fill-rule="evenodd" clip-rule="evenodd" fill="#8D6E63" d="M109.4,92.3c0.2-0.1,0.4-0.1,0.5,0c0.1,0.1-0.2,0.8-0.3,1
		c-1,0.7-1.8,1.5-3,1.9c-0.5,0.2-1.1,0.2-1.6,0.2c-1,0-2.1,0-3.1,0c-0.6,0-1.2-0.1-1.7,0c-0.5,0.1-1,0.4-1.5,0.5
		c-0.5,0.2-1,0.4-1.5,0.6c-1.4,0.7-2.2,1.9-3.9,2c-0.9,0-1.6-0.4-2.4-0.5c-0.8-0.1-1.4,0-2.2,0.2l-0.1,0l0,0.1c0,0,0,0,0,0l-0.3,0.2
		l0.3,0.1c0.1,0,0.2,0,0.2,0c1.3-0.3,2.3,0.2,3.6,0.4c1.1,0.2,1.9-0.1,2.9-0.2c0.4-0.1,0.8,0,1.2-0.1c0.4-0.1,1.2-0.3,1.6-0.5
		c0.9-0.4,1.5-0.9,2.4-1.1c1.5-0.3,3,0,4.5-0.4c1.3-0.3,2.2-1.1,3.2-1.9c0.5-0.4,1.1-0.8,1.6-1.2l0,0l0,0c0.2-0.4,0.9-1.6,0.2-1.8
		c-0.4-0.1-1.5,0.3-1.9,0.5c-0.6,0.3-1.5,1.3-1.5,2l0,0.1l0.1,0c0.4,0.2,1,0,1.3-0.1l0,0l0,0c0.4-0.3,0.7-0.6,0.8-1.1l0.1-0.3
		c-0.8,0.3-0.5,0.6-1,0.9c-0.1,0.1-0.5,0.2-0.6,0.2c0-0.3,0.8-1.1,1.1-1.2C108.7,92.5,109.1,92.4,109.4,92.3L109.4,92.3z"/>
	<path fill-rule="evenodd" clip-rule="evenodd" fill="#8D6E63" d="M120.1,79c-0.2-0.5,0.1-1.9,0.7-1.9c0.1,0.1,0.1,0.2,0.3,0.2
		l0.1,0l0-0.1c0.1-0.6-0.3-0.8-0.8-0.5c-0.3,0.2-0.7,0.7-0.8,1.1c-0.2,0.5-0.3,1.7,0.1,2c0.3,0.2,0.9,0.1,1.2-0.1
		c0.8-0.5,1.5-2.4,1.5-3.3c0-0.4-0.4-1.7-0.6-2c-0.6-0.9-1.3,0.1-1.8,0.5c-0.8,0.7-1.5,1.3-2.1,2.1c-0.3,0.5-0.6,1.1-0.9,1.6
		c-0.4,0.6-0.9,1.1-1.4,1.5c-0.5,0.4-1,0.8-1.4,1.2c-1,1.1-2,2.4-2.8,3.6c-0.7,1-1.2,1.9-1.8,3c-0.5,1-0.9,1.9-1.6,2.8
		c-0.8,1-2,1.8-3.1,2.3c-0.4,0.2-1,0.2-1.1,0.7l-0.1,0.2l0.2-0.1c0.5-0.1,1.1-0.4,1.6-0.6c0.5-0.3,1.1-0.5,1.6-0.9
		c1.6-1,2.6-2.4,3.7-3.9c0.3-0.4,0.6-0.8,0.9-1.3c0.3-0.5,0.5-1,0.9-1.4c1-1.1,2.2-1.7,3.3-2.6c0.8-0.7,1.8-1.9,2.2-2.9
		c0.3-0.8,0.4-1.7,0.8-2.5c0.4-0.7,0.9-1.2,1.3-1.8c0.2-0.2,0.6-0.9,0.7-1c0,0,0.1,0,0.1,0c0.3,0,0.6,0.8,0.7,1
		c0.1,0.3,0.1,0.5,0.1,0.8c-0.1,0.6-0.4,1.3-0.8,1.7C120.8,78.7,120.4,79.1,120.1,79L120.1,79z"/>
	<path fill-rule="evenodd" clip-rule="evenodd" fill="#8D6E63" d="M102.1,88.4C102.1,88.3,102.1,88.3,102.1,88.4
		c-0.3-0.7,0.6-1.6,1.1-1.8c0.2-0.1,0.6-0.1,0.9-0.1c0.2,0,1,0.1,1,0.4c0,0.2-0.4,0.7-0.5,0.9c-0.3,0.6-0.5,1.1-1,1.6
		c-0.6,0.5-1.4,0.7-2.1,1c-0.9,0.5-1.9,1.3-2.7,2c-1.2,1-1.7,1.9-3.3,2.4c-0.5,0.2-0.9,0.5-1.5,0.6c-0.6,0.1-1.1,0.2-1.7,0.2
		c-2.7,0-4.9,0.7-7.4,1.7c-1.3,0.5-2.6,1-4,1.4l-0.3,0.1l0.2,0.2c0.4,0.4,2-0.3,2.6-0.3c3-0.5,5.3-2.4,8.5-2c1.4,0.2,2.7,0,4.1-0.3
		c1.4-0.4,3.6-1.2,4.7-2.1c1-0.8,1.7-2.1,2.6-3c0.4-0.4,0.9-0.7,1.3-1.2c0.6-0.8,0.8-1.5,1-2.5c0.1-0.7,0.4-1.5-0.5-1.7
		c-0.4-0.1-1.5-0.1-1.8,0c-0.7,0.2-1.9,1.1-2.1,1.8c-0.1,0.3,0,0.9,0.3,1.1c0.4,0.3,1.4,0.1,1.8-0.2c0.3-0.2,0.6-0.7,0.6-1
		c0-0.5-0.3-0.8-0.8-0.6l-0.1,0.1l0,0.1c0.1,0.2,0.2,0.2,0.3,0.3C103.6,88,102.6,88.5,102.1,88.4L102.1,88.4z"/>
	<path fill-rule="evenodd" clip-rule="evenodd" fill="#8D6E63" d="M117.3,49c-0.5-0.2-1.4-1.4-1.1-1.9c0.1,0,0.2,0.1,0.3-0.1l0-0.1
		l-0.1-0.1c-0.4-0.5-0.8-0.4-0.9,0.2c0,0.4,0.1,1,0.3,1.4c0.2,0.4,1.1,1.4,1.6,1.4c0.4,0,0.7-0.6,0.7-0.9c0.2-0.9-1-2.8-1.6-3.4
		c-0.3-0.3-1.6-0.9-2-1c-1.1-0.2-0.7,1-0.7,1.7c0,1.1,0.1,2,0.4,3c0.2,0.6,0.4,1.2,0.6,1.8c0.2,0.7,0.2,1.4,0.2,2.1
		c0,0.6-0.1,1.3,0,1.9c0.1,1.5,0.5,3.1,0.8,4.5c0.2,1.1,0.6,2.2,1,3.3c0.4,1,0.8,1.9,1,3c0.2,1.1,0.1,2.5-0.3,3.6
		c-0.1,0.4-0.5,0.8-0.2,1.2l0.1,0.2l0.1-0.2c0.2-0.5,0.4-1,0.6-1.5c0.2-0.5,0.3-1.1,0.4-1.7c0.3-1.8-0.1-3.4-0.5-5.2
		c-0.1-0.5-0.2-1-0.3-1.5c-0.1-0.5-0.4-1-0.4-1.6c-0.2-1.5,0.2-2.7,0.2-4.1c0-1.1-0.3-2.6-0.7-3.6c-0.4-0.8-1.1-1.5-1.4-2.3
		c-0.3-0.8-0.4-1.5-0.5-2.2c-0.1-0.3-0.4-1-0.3-1.2c0,0,0-0.1,0-0.1c0.2-0.2,1.1,0.2,1.3,0.3c0.2,0.1,0.5,0.3,0.7,0.5
		c0.4,0.5,0.7,1.1,0.9,1.7C117.5,48.2,117.6,48.8,117.3,49C117.3,49,117.3,49,117.3,49L117.3,49z"/>
	<path fill-rule="evenodd" clip-rule="evenodd" fill="#8D6E63" d="M111,54.8c0,0.1,0,0.3,0,0.4c-0.6,0.1-1.5-1.3-1-1.8
		c0.4-0.4,1.5,0.3,1.8,0.7c0.1,0.1,0.1,0.1,0.2,0.2c0.4,0.6,0.6,1.4,0.8,2.1c0.4,1.4,0.4,2.6,0.3,4c-0.1,0.7-0.2,1.3-0.1,2
		c0.1,0.8,0.3,1.5,0.5,2.3c0.2,0.8,0.4,1.9,0.8,2.5c0.5,0.9,1.1,1.7,1.3,2.7c0.4,1.4-0.6,2.6-0.6,4c0,0.8,0.1,1.8,0.4,2.6l0.2,0.6
		l0.1-0.7c0.1-0.7-0.1-1.4,0.1-2.2c0.1-0.3,0.3-0.7,0.4-1.1c0.1-0.4,0.2-0.8,0.3-1.2c0.1-0.5,0.3-0.9,0.4-1.4c0.1-0.7,0.2-1.8,0-2.4
		c-0.3-1-0.8-1.8-1.1-2.8c-0.3-0.8,0.1-1.9-0.1-2.8c-0.1-0.7-0.5-1.4-0.8-2c-0.4-0.8-0.6-1.6-0.9-2.4c-0.4-1.7-0.5-2.8-1.6-4.3
		c-0.2-0.2-0.4-0.4-0.6-0.5c-0.5-0.4-1.6-1-2.2-0.5c-0.9,0.8,0.1,2.4,0.8,2.9c0.2,0.2,0.9,0.4,1.2,0.2c0.5-0.5-0.4-2.2-1.1-1.8
		l-0.1,0.1l0.1,0.1C110.6,54.6,110.8,54.6,111,54.8L111,54.8z"/>
	<path fill-rule="evenodd" clip-rule="evenodd" fill="#8D6E63" d="M121.1,64.3c-0.1-0.4-0.2-0.8-0.2-1.2c0-0.3,0.2-1.4,0.4-1.6
		c0,0,0,0,0.1,0c0.4-0.1,0.7,0.8,0.7,1c0,0.3-0.1,1-0.4,0.4c0-0.1-0.1-0.2-0.1-0.2c0-0.1-0.1-0.5-0.3-0.5c-0.1,0-0.1,0.1-0.2,0.1
		l0,0l0,0c0,0.5,0.3,1.7,0.9,1.6c0.4-0.1,0.6-0.9,0.5-1.3c0-0.5-0.2-1.1-0.5-1.5c-0.2-0.3-0.5-0.7-0.9-0.7c-0.7,0-1,1.5-1.1,2.1
		c-0.1,0.9,0.2,1.9,0.3,2.8c0.1,1.2-0.1,1.8-0.7,2.8c-0.3,0.4-0.5,0.9-0.9,1.3c-1.2,1.6-1.9,2.6-2.4,4.6c-0.2,0.9-0.2,1.9-0.4,2.8
		c-0.2,0.6-0.5,1.2-0.8,1.8c-0.3,0.5-0.7,0.9-1,1.4l-0.2,0.4l0.4-0.2c0.6-0.3,1-1.1,1.4-1.6c0.3-0.4,0.8-0.8,1-1.3
		c0.2-0.4,0.3-0.9,0.4-1.4c0.6-1.8,2-2.2,2.8-3.6c0.4-0.7,0.5-1.5,0.7-2.2c0.2-0.8,0.4-1.6,0.5-2.4
		C121.4,66.5,121.2,65.4,121.1,64.3L121.1,64.3z"/>
	<path fill-rule="evenodd" clip-rule="evenodd" fill="#8D6E63" d="M103.4,40c0.4,0.2,1.6,0.9,1.7,0.1c0-0.4-0.7-1.1-1-1.2
		c-0.5-0.3-1-0.5-1.6-0.5c-0.3,0-0.9,0-0.9,0.4c-0.1,0.6,1.1,1.8,1.5,2.2c0.7,0.6,1.7,0.9,2.5,1.4c1.1,0.7,1.6,1.3,2.1,2.3
		c0.3,0.6,0.6,1.2,0.8,1.9c0.6,1.7,1.1,3,2.3,4.5c0.6,0.7,1.3,1.3,1.9,2c0.4,0.5,0.7,1.1,0.9,1.7c0.2,0.5,0.3,1.1,0.5,1.6l0.2,0.5
		l0.1-0.5c0.1-0.7-0.3-1.5-0.5-2.1c-0.1-0.5-0.2-1.1-0.5-1.6c-0.2-0.4-0.6-0.8-0.8-1.2c-1-1.5-0.7-3.1-1.5-4.6c-0.4-0.7-1-1.3-1.5-2
		c-0.5-0.7-1.1-1.3-1.8-1.8c-0.9-0.7-1.9-1.2-2.9-1.7c-0.4-0.2-0.8-0.4-1.1-0.6c-0.4-0.2-1.3-1.1-1.4-1.5c0-0.1,0-0.1,0-0.2
		c0.2-0.3,0.9,0,1.1,0.1c0.1,0.1,0.7,0.4,0.6,0.6c0,0.1-0.2,0-0.2,0c-0.1,0-0.2,0-0.2-0.1c-0.1,0-0.4-0.2-0.5,0
		C103.2,39.9,103.3,39.9,103.4,40L103.4,40L103.4,40L103.4,40z"/>
	<path fill-rule="evenodd" clip-rule="evenodd" fill="#8D6E63" d="M58.5,94.7c-0.8-1.3-2.9-1.9-4.1-2.8c-1.3-0.8-1.6-1.7-2.5-2.8
		c-0.3-0.4-0.7-0.8-1-1.2c-0.3-0.4-0.7-1.3-0.8-1.8c-0.3-1.1-0.1-1.9-0.7-3c-1.1-1.8-2.7-3.1-3.6-5.2c-0.7-1.6-0.4-2.8-0.2-4.4
		c0.1-0.7,0.1-1.5,0.3-2.2l0,0l0,0c0.5-0.5,1.4-1.4,2-0.7c0.4,0.4,0.8,1.7,0.9,2.3c0.1,0.8-0.4,2.1-1.3,2.4l-0.1,0l0,0
		c-0.5-0.3-0.8-1-0.9-1.5l0,0l0,0c0.1-0.6,0.5-1.3,1-1.6l0.3-0.1l0,0.3c-0.1,0.6-0.6,0.8-0.6,1.4c0,0.2,0.2,0.9,0.4,0.9
		c0.3,0,0.5-0.7,0.6-1c0.1-0.2,0.1-0.5,0.1-0.7c0-0.4-0.3-1.4-0.7-1.6c-0.3-0.2-0.8,0.3-1.1,0.5c-0.1,1.4-0.5,2.6,0,4
		c0.2,0.7,0.7,1.3,1.1,1.9c0.9,1.2,1.8,2.2,2.8,3.3c0.5,0.5,1.2,1.1,1.5,1.7c0.3,0.6,0.4,1.2,0.7,1.8c0.2,0.6,0.4,1.2,0.6,1.8
		c0.1,0.8-0.1,1.6-0.1,2.4c0,0.9,0.2,1.7,0.9,2.4c0.8,0.8,2.1,1.2,3.1,1.8c0.9,0.6,1.2,1.1,1.9,1.9l0.1,0.1L59,94.8
		c0,0,0,0.1-0.1,0.1l-0.1,0.1l-0.1-0.1C58.6,94.8,58.5,94.8,58.5,94.7L58.5,94.7z"/>
	<path fill-rule="evenodd" clip-rule="evenodd" fill="#8D6E63" d="M50.6,92.3c-0.2-0.1-0.4-0.1-0.5,0c-0.1,0.1,0.2,0.8,0.3,1
		c1,0.7,1.8,1.5,3,1.9c0.5,0.2,1.1,0.2,1.6,0.2c1,0,2.1,0,3.1,0c0.6,0,1.2-0.1,1.7,0c0.5,0.1,1,0.4,1.5,0.5c0.5,0.2,1,0.4,1.5,0.6
		c1.4,0.7,2.2,1.9,3.9,2c0.9,0,1.6-0.4,2.4-0.5c0.8-0.1,1.4,0,2.2,0.2l0.1,0l0,0.1c0,0,0,0,0,0l0.3,0.2l-0.3,0.1c-0.1,0-0.2,0-0.2,0
		c-1.3-0.3-2.3,0.2-3.6,0.4c-1.1,0.2-1.9-0.1-2.9-0.2c-0.4-0.1-0.8,0-1.2-0.1c-0.4-0.1-1.2-0.3-1.6-0.5c-0.9-0.4-1.5-0.9-2.4-1.1
		c-1.5-0.3-3,0-4.5-0.4c-1.3-0.3-2.2-1.1-3.2-1.9c-0.5-0.4-1.1-0.8-1.6-1.2l0,0l0,0c-0.2-0.4-0.9-1.6-0.2-1.8
		c0.4-0.1,1.5,0.3,1.9,0.5c0.6,0.3,1.5,1.3,1.5,2l0,0.1l-0.1,0c-0.4,0.2-1,0-1.3-0.1l0,0l0,0c-0.4-0.3-0.7-0.6-0.8-1.1l-0.1-0.3
		c0.8,0.3,0.5,0.6,1,0.9c0.1,0.1,0.5,0.2,0.6,0.2c0-0.3-0.8-1.1-1.1-1.2C51.3,92.5,50.9,92.4,50.6,92.3L50.6,92.3z"/>
	<path fill-rule="evenodd" clip-rule="evenodd" fill="#8D6E63" d="M39.9,79c0.2-0.5-0.1-1.9-0.7-1.9c-0.1,0.1-0.1,0.2-0.3,0.2
		l-0.1,0l0-0.1c-0.1-0.6,0.3-0.8,0.8-0.5c0.3,0.2,0.7,0.7,0.8,1.1c0.2,0.5,0.3,1.7-0.1,2c-0.3,0.2-0.9,0.1-1.2-0.1
		c-0.8-0.5-1.5-2.4-1.5-3.3c0-0.4,0.4-1.7,0.6-2c0.6-0.9,1.3,0.1,1.8,0.5c0.8,0.7,1.5,1.3,2.1,2.1c0.3,0.5,0.6,1.1,0.9,1.6
		c0.4,0.6,0.9,1.1,1.4,1.5c0.5,0.4,1,0.8,1.4,1.2c1,1.1,2,2.4,2.8,3.6c0.7,1,1.2,1.9,1.8,3c0.5,1,0.9,1.9,1.6,2.8
		c0.8,1,2,1.8,3.1,2.3c0.4,0.2,1,0.2,1.1,0.7l0.1,0.2l-0.2-0.1c-0.5-0.1-1.1-0.4-1.6-0.6c-0.5-0.3-1.1-0.5-1.6-0.9
		c-1.6-1-2.6-2.4-3.7-3.9c-0.3-0.4-0.6-0.8-0.9-1.3c-0.3-0.5-0.5-1-0.9-1.4c-1-1.1-2.2-1.7-3.3-2.6c-0.8-0.7-1.8-1.9-2.2-2.9
		c-0.3-0.8-0.4-1.7-0.8-2.5c-0.4-0.7-0.9-1.2-1.3-1.8c-0.2-0.2-0.6-0.9-0.7-1c0,0-0.1,0-0.1,0c-0.3,0-0.6,0.8-0.7,1
		c-0.1,0.3-0.1,0.5-0.1,0.8c0.1,0.6,0.4,1.3,0.8,1.7C39.2,78.7,39.6,79.1,39.9,79L39.9,79z"/>
	<path fill-rule="evenodd" clip-rule="evenodd" fill="#8D6E63" d="M57.9,88.4C57.9,88.3,57.9,88.3,57.9,88.4
		c0.3-0.7-0.6-1.6-1.1-1.8c-0.2-0.1-0.6-0.1-0.9-0.1c-0.2,0-1,0.1-1,0.4c0,0.2,0.4,0.7,0.5,0.9c0.3,0.6,0.5,1.1,1,1.6
		c0.6,0.5,1.4,0.7,2.1,1c0.9,0.5,1.9,1.3,2.7,2c1.2,1,1.7,1.9,3.3,2.4c0.5,0.2,0.9,0.5,1.5,0.6c0.6,0.1,1.1,0.2,1.7,0.2
		c2.7,0,4.9,0.7,7.4,1.7c1.3,0.5,2.6,1,4,1.4l0.3,0.1L79.1,99c-0.5,0.4-2-0.3-2.6-0.3c-3-0.5-5.3-2.4-8.5-2c-1.4,0.2-2.7,0-4.1-0.3
		c-1.4-0.4-3.6-1.2-4.7-2.1c-1-0.8-1.7-2.1-2.6-3c-0.4-0.4-0.9-0.7-1.3-1.2c-0.6-0.8-0.8-1.5-1-2.5c-0.1-0.7-0.4-1.5,0.5-1.7
		c0.4-0.1,1.5-0.1,1.8,0c0.7,0.2,1.9,1.1,2.1,1.8c0.1,0.3,0,0.9-0.3,1.1c-0.4,0.3-1.4,0.1-1.8-0.2c-0.3-0.2-0.6-0.7-0.6-1
		c0-0.5,0.3-0.8,0.8-0.6l0.1,0.1l0,0.1c-0.1,0.2-0.2,0.2-0.3,0.3C56.4,88,57.4,88.5,57.9,88.4L57.9,88.4z"/>
	<path fill-rule="evenodd" clip-rule="evenodd" fill="#8D6E63" d="M42.7,49c0.5-0.2,1.4-1.4,1.1-1.9c-0.1,0-0.2,0.1-0.3-0.1l0-0.1
		l0.1-0.1c0.4-0.5,0.8-0.4,0.9,0.2c0,0.4-0.1,1-0.3,1.4c-0.2,0.4-1.1,1.4-1.6,1.4c-0.4,0-0.7-0.6-0.7-0.9c-0.2-0.9,1-2.8,1.6-3.4
		c0.3-0.3,1.6-0.9,2-1c1.1-0.2,0.7,1,0.7,1.7c0,1.1-0.1,2-0.4,3c-0.2,0.6-0.4,1.2-0.6,1.8c-0.2,0.7-0.2,1.4-0.2,2.1
		c0,0.6,0.1,1.3,0,1.9c-0.1,1.5-0.5,3.1-0.8,4.5c-0.2,1.1-0.6,2.2-1,3.3c-0.4,1-0.8,1.9-1,3c-0.2,1.1-0.1,2.5,0.3,3.6
		c0.1,0.4,0.5,0.8,0.2,1.2l-0.1,0.2l-0.1-0.2c-0.2-0.5-0.4-1-0.6-1.5c-0.2-0.5-0.3-1.1-0.4-1.7c-0.3-1.8,0.1-3.4,0.5-5.2
		c0.1-0.5,0.2-1,0.3-1.5c0.1-0.5,0.4-1,0.4-1.6c0.2-1.5-0.2-2.7-0.2-4.1c0-1.1,0.3-2.6,0.7-3.6c0.4-0.8,1.1-1.5,1.4-2.3
		c0.3-0.8,0.4-1.5,0.5-2.2c0.1-0.3,0.4-1,0.3-1.2c0,0,0-0.1,0-0.1c-0.2-0.2-1.1,0.2-1.3,0.3c-0.2,0.1-0.5,0.3-0.7,0.5
		c-0.4,0.5-0.7,1.1-0.9,1.7C42.5,48.2,42.4,48.8,42.7,49C42.7,49,42.7,49,42.7,49L42.7,49z"/>
	<path fill-rule="evenodd" clip-rule="evenodd" fill="#8D6E63" d="M49,54.8c0,0.1,0,0.3,0,0.4c0.6,0.1,1.5-1.3,1-1.8
		c-0.4-0.4-1.5,0.3-1.8,0.7c-0.1,0.1-0.1,0.1-0.2,0.2c-0.4,0.6-0.6,1.4-0.8,2.1c-0.4,1.4-0.4,2.6-0.3,4c0.1,0.7,0.2,1.3,0.1,2
		c-0.1,0.8-0.3,1.5-0.5,2.3c-0.2,0.8-0.4,1.9-0.8,2.5c-0.5,0.9-1.1,1.7-1.3,2.7c-0.4,1.4,0.6,2.6,0.6,4c0,0.8-0.1,1.8-0.4,2.6
		l-0.2,0.6l-0.1-0.7c-0.1-0.7,0.1-1.4-0.1-2.2c-0.1-0.3-0.3-0.7-0.4-1.1c-0.1-0.4-0.2-0.8-0.3-1.2c-0.1-0.5-0.3-0.9-0.4-1.4
		c-0.1-0.7-0.2-1.8,0-2.4c0.3-1,0.8-1.8,1.1-2.8c0.3-0.8-0.1-1.9,0.1-2.8c0.1-0.7,0.5-1.4,0.8-2c0.4-0.8,0.6-1.6,0.9-2.4
		c0.4-1.7,0.5-2.8,1.6-4.3c0.2-0.2,0.4-0.4,0.6-0.5c0.5-0.4,1.6-1,2.2-0.5c0.9,0.8-0.1,2.4-0.8,2.9c-0.2,0.2-0.9,0.4-1.2,0.2
		c-0.5-0.5,0.4-2.2,1.1-1.8l0.1,0.1l-0.1,0.1C49.4,54.6,49.2,54.6,49,54.8L49,54.8z"/>
	<path fill-rule="evenodd" clip-rule="evenodd" fill="#8D6E63" d="M38.9,64.3c0.1-0.4,0.2-0.8,0.2-1.2c0-0.3-0.2-1.4-0.4-1.6
		c0,0,0,0-0.1,0c-0.4-0.1-0.7,0.8-0.7,1c0,0.3,0.1,1,0.4,0.4c0-0.1,0.1-0.2,0.1-0.2c0-0.1,0.1-0.5,0.3-0.5c0.1,0,0.1,0.1,0.2,0.1
		l0,0l0,0c0,0.5-0.3,1.7-0.9,1.6c-0.4-0.1-0.6-0.9-0.5-1.3c0-0.5,0.2-1.1,0.5-1.5c0.2-0.3,0.5-0.7,0.9-0.7c0.7,0,1,1.5,1.1,2.1
		c0.1,0.9-0.2,1.9-0.3,2.8c-0.1,1.2,0.1,1.8,0.7,2.8c0.3,0.4,0.5,0.9,0.9,1.3C42.2,71,43,72,43.4,74c0.2,0.9,0.2,1.9,0.4,2.8
		c0.2,0.6,0.5,1.2,0.8,1.8c0.3,0.5,0.7,0.9,1,1.4l0.2,0.4l-0.4-0.2c-0.6-0.3-1-1.1-1.4-1.6c-0.3-0.4-0.8-0.8-1-1.3
		c-0.2-0.4-0.3-0.9-0.4-1.4c-0.6-1.8-2-2.2-2.8-3.6c-0.4-0.7-0.5-1.5-0.7-2.2c-0.2-0.8-0.4-1.6-0.5-2.4
		C38.6,66.5,38.8,65.4,38.9,64.3L38.9,64.3z"/>
	<path fill-rule="evenodd" clip-rule="evenodd" fill="#8D6E63" d="M56.6,40c-0.4,0.2-1.6,0.9-1.7,0.1c0-0.4,0.7-1.1,1-1.2
		c0.5-0.3,1-0.5,1.6-0.5c0.3,0,0.9,0,0.9,0.4c0.1,0.6-1.1,1.8-1.5,2.2c-0.7,0.6-1.7,0.9-2.5,1.4c-1.1,0.7-1.6,1.3-2.1,2.3
		c-0.3,0.6-0.6,1.2-0.8,1.9c-0.6,1.7-1.1,3-2.3,4.5c-0.6,0.7-1.3,1.3-1.9,2c-0.4,0.5-0.7,1.1-0.9,1.7c-0.2,0.5-0.3,1.1-0.5,1.6
		l-0.2,0.5l-0.1-0.5c-0.1-0.7,0.3-1.5,0.5-2.1c0.1-0.5,0.2-1.1,0.5-1.6c0.2-0.4,0.6-0.8,0.8-1.2c1-1.5,0.7-3.1,1.5-4.6
		c0.4-0.7,1-1.3,1.5-2c0.5-0.7,1.1-1.3,1.8-1.8c0.9-0.7,1.9-1.2,2.9-1.7c0.4-0.2,0.8-0.4,1.1-0.6c0.4-0.2,1.3-1.1,1.4-1.5
		c0-0.1,0-0.1,0-0.2c-0.2-0.3-0.9,0-1.1,0.1c-0.1,0.1-0.7,0.4-0.6,0.6c0,0.1,0.2,0,0.2,0c0.1,0,0.2,0,0.2-0.1c0.1,0,0.4-0.2,0.5,0
		C56.8,39.9,56.7,39.9,56.6,40L56.6,40L56.6,40L56.6,40z"/>
	<path fill-rule="evenodd" clip-rule="evenodd" fill="#8D6E63" d="M90.7,27.8c-0.3,0-0.5,0.2-0.5,0.5c0,0.1,0.1,0.2,0.1,0.3
		c-2.5,1.7-3.9,2.6-4,2.6c-0.2-0.1,1-3.7,1.3-4.3c0.1,0,0.2,0.1,0.3,0.1c0.3,0,0.5-0.2,0.5-0.5c0-0.3-0.2-0.6-0.5-0.6
		c-0.3,0-0.6,0.2-0.6,0.6c0,0.1,0.1,0.3,0.2,0.4c-0.7,0.9-3.5,4.1-3.6,3.1c0-0.1,0-0.2,0-0.2c0-0.8,0-1.7,0.1-2.5c0,0,0,0,0-0.1l0,0
		c0-0.4,0-0.7,0.1-0.9c0,0,0,0,0,0c0.3,0,0.5-0.2,0.5-0.5c0-0.3-0.2-0.5-0.5-0.5c-0.3,0-0.5,0.2-0.5,0.5c0,0.2,0.1,0.4,0.3,0.5
		l-0.5,1.2c0,0,0,0.1,0,0.1c0,0-1.1,2.5-1.6,2.4c-0.5-0.1-1.4-5-1.7-6.1c0.2-0.1,0.4-0.3,0.4-0.5c0-0.3-0.2-0.5-0.5-0.5
		c-0.3,0-0.5,0.2-0.5,0.5c0,0.3,0.2,0.5,0.4,0.5c-0.2,1.1-1.2,6-1.7,6.1c-0.5,0-1.6-2.4-1.6-2.4c0,0,0-0.1,0-0.1l-0.5-1.2
		c0.2-0.1,0.3-0.3,0.3-0.5c0-0.3-0.2-0.5-0.5-0.5c-0.3,0-0.6,0.2-0.6,0.5c0,0.3,0.2,0.5,0.6,0.5c0,0,0,0,0,0c0,0.2,0,0.6,0.1,0.9
		l0,0c0,0,0,0.1,0,0.1c0,0.7,0.1,1.7,0.1,2.5c0,0.1,0,0.2,0,0.2c-0.1,1.1-2.9-2.2-3.6-3.1c0.1-0.1,0.2-0.2,0.2-0.4
		c0-0.3-0.3-0.6-0.5-0.6c-0.3,0-0.6,0.2-0.6,0.6c0,0.3,0.2,0.5,0.6,0.5c0.1,0,0.2,0,0.2-0.1c0.2,0.5,1.5,4.2,1.3,4.3
		c-0.1,0-1.5-0.9-4-2.6c0.1-0.1,0.1-0.2,0.1-0.3c0-0.3-0.2-0.5-0.5-0.5c-0.3,0-0.5,0.2-0.5,0.5c0,0.3,0.2,0.5,0.5,0.5
		c0.1,0,0.2,0,0.3-0.1c0.6,0.7,3,3.6,3,3.6s0.5,1.8,0.5,1.9c0,0,3.4-1,6.9-1c3.5,0,6.9,1,6.9,1c0-0.1,0.5-1.9,0.5-1.9s2.4-2.9,3-3.6
		c0.1,0.1,0.2,0.1,0.3,0.1c0.3,0,0.5-0.2,0.5-0.5C91.3,28.1,91,27.8,90.7,27.8L90.7,27.8z"/>
	<path fill-rule="evenodd" clip-rule="evenodd" fill="#8D6E63" d="M84,78.1c-0.2-0.3-0.4-0.6-0.7-0.7c-0.4-0.2-0.8-0.3-1.2-0.3
		c-0.3,0-0.6,0.1-0.9,0.2c-0.2,0.1-0.3,0.3-0.3,0.5c0,0.3,0.2,0.5,0.5,0.6c0.3,0.1,0.7,0.2,1.1,0.2c0.3,0,0.6-0.1,0.9-0.1
		C83.6,78.3,83.8,78.3,84,78.1L84,78.1z"/>
	<path fill-rule="evenodd" clip-rule="evenodd" fill="#8D6E63" d="M84.6,79.4c-0.3,0.1-0.7,0.2-1.1,0.2c-0.4,0.1-0.8,0.1-1.2,0.1
		c-0.7,0-1.5-0.1-2.1-0.4c-0.6-0.3-1-0.9-1-1.6c0-0.7,0.4-1.2,1-1.5c0.6-0.3,1.2-0.4,1.9-0.4c0.7,0,1.3,0.1,2,0.4
		c0.6,0.3,1.1,0.6,1.5,1.1c1.2-0.7,2.2-1.6,3-2.8c0.9-1.4,1.4-2.9,1.4-4.6c0-2.3-0.8-4.3-2.4-5.9c-1.7-1.7-3.9-2.4-6.2-2.4
		c-1,0-2.1,0-3.1,0.2c-1.2,0.2-2.3,0.6-3.3,1.1c-0.7,0.4-1.4,0.8-2,1.4c-0.5,0.5-1,1.2-1,1.9c0,0.1,0,0.2,0,0.3c0,0.3,0,0.6,0.2,0.8
		c0.1,0.2,0.3,0.3,0.6,0.3c0.2,0,0.4,0,0.5-0.2c0.2-0.2,0.3-0.5,0.3-0.7c0-0.2,0.1-0.3,0.3-0.3c0.1,0,0.2,0.1,0.3,0.2
		c0.3,0.3,0.3,0.7,0.3,1.1c0,0.5-0.2,1-0.6,1.4c-0.4,0.4-0.9,0.6-1.4,0.6c-0.7,0-1.2-0.3-1.6-0.8c-0.4-0.5-0.6-1.1-0.6-1.8
		c0-1.2,0.4-2.2,1.2-3.1c0.7-0.8,1.6-1.5,2.6-2c1.3-0.8,2.8-1.3,4.3-1.6c1.4-0.3,2.9-0.4,4.3-0.4c2.8,0,5.4,0.8,7.6,2.5
		c2.1,1.7,3.2,3.8,3.2,6.5c0,2.2-0.7,4.2-2.1,6c-1.2,1.6-2.7,2.8-4.5,3.5c0.4,0.6,0.8,1.3,1.2,1.9c0.4,0.9,0.8,1.8,1.2,2.8
		c0.4,1,0.8,2.1,1.3,3.1c0.4,0.9,1,2,1.7,2.7c0.6,0.6,1.3,1.1,2.2,1.1c0.3,0,0.6-0.1,0.8-0.2c0.2-0.1,0.4-0.3,0.4-0.5
		c0-0.1,0-0.3,0-0.4c0-0.1-0.1-0.2-0.1-0.2C95.1,89,95,88.9,95,88.7c0-0.1,0.1-0.2,0.2-0.3l0,0l0,0c0.4-0.1,0.8,0.1,1.1,0.3
		c0.4,0.2,0.6,0.5,0.6,1c0,0.6-0.4,1.1-0.9,1.4c-0.6,0.3-1.2,0.4-1.8,0.4c-1.5,0-3-0.4-4.3-1.2c-1.2-0.8-2.2-1.8-3-3
		c-0.5-0.8-0.8-1.7-1.1-2.6c-0.3-0.9-0.4-1.9-0.6-2.8C85.1,81.1,84.9,80.2,84.6,79.4L84.6,79.4z"/>
	<path fill-rule="evenodd" clip-rule="evenodd" fill="#8D6E63" d="M75.4,73.2c-0.1,0-0.3,0.1-0.4,0.1c-1.5,0.5-3.1,0.7-4.7,0.7
		c-2,0-4.1-0.3-5.7-1.5c-1.4-1.1-2.1-2.5-2.3-4.2c-0.1-1,0-2,0.4-3c0.3-0.9,0.8-1.8,1.4-2.6c0.6-0.8,1.3-1.5,2-2.1
		c0.7-0.6,1.5-1.1,2.2-1.6c0.6-0.4,1.3-0.8,2-1c0.3-0.1,0.6-0.2,0.9-0.3c-0.3-0.1-0.5-0.2-0.8-0.4c-0.5-0.3-0.9-0.6-1.4-0.9
		C68.7,56,68.3,55.5,68,55c-0.4-0.6-0.6-1.2-0.6-1.9c-0.1-1.2,0.1-2.4,0.7-3.5c0.6-1.2,1.5-2.1,2.6-2.9c1.2-0.9,2.5-1.5,3.9-1.9
		c1.5-0.5,3-0.7,4.6-0.7c0.4,0,0.8,0,1.2,0.1c0.4,0.1,0.8,0.2,1.1,0.4c0.3,0.2,0.6,0.4,0.9,0.7c0.3,0.3,0.4,0.6,0.4,1
		c0,0.4,0,0.8-0.1,1.2c-0.1,0.4-0.3,0.7-0.6,0.9c-0.2,0.3-0.5,0.5-0.8,0.7c-0.3,0.2-0.6,0.3-0.9,0.4l-0.1,0l-0.5-0.2l0.1-0.1
		c0.2-0.2,0.4-0.5,0.4-0.9c0-0.2,0-0.5,0-0.7c-0.1-0.6-0.5-0.9-0.9-1.2c-0.7-0.4-1.7-0.5-2.5-0.5c-1,0-2.1,0.1-3,0.5
		c-0.8,0.3-1.5,0.8-2.1,1.4c-0.5,0.6-0.9,1.2-1.2,1.9c-0.2,0.7-0.3,1.4-0.2,2.1c0.1,0.9,0.4,1.8,1.1,2.5c0.6,0.6,1.2,1.1,2,1.4
		c0.6,0.3,1.3,0.6,1.9,0.8c0.3,0.1,1,0.3,1,0.7c0,0.4-0.1,0.7-0.4,1c-0.3,0.3-0.7,0.5-1.1,0.6l0,0h0c-1.1,0-2.2,0.2-3.3,0.5
		c-1.1,0.3-2,0.8-2.9,1.5c-0.8,0.7-1.5,1.5-1.9,2.5c-0.5,1.1-0.6,2.3-0.5,3.5c0.1,0.8,0.2,1.5,0.5,2.2c0.3,0.7,0.7,1.3,1.2,1.8
		c0.5,0.5,1.2,0.9,1.9,1.2c0.8,0.3,1.7,0.4,2.6,0.4c1.1,0,2.1-0.1,3.2-0.4v-4.2c0-0.3-0.1-0.5-0.3-0.7c-0.1-0.1-0.4-0.2-0.6-0.3
		c-0.1-0.1-0.3-0.2-0.3-0.3c0-0.2,0.2-0.3,0.3-0.4l0,0l0,0c0.3-0.2,0.7-0.4,1-0.5c0.3-0.2,0.6-0.4,0.9-0.5c0.6-0.4,1.1-0.8,1.7-1.2
		c0.2-0.1,0.5-0.4,0.7-0.5c0.2-0.1,0.3-0.1,0.4,0.1l0,0l0,0c0.1,0.1,0.1,0.3,0,0.4l0,0l0,0c-0.3,0.5-0.5,1-0.7,1.5
		c-0.2,0.4-0.2,0.7-0.2,1.1v4.6c0.4-0.2,0.8-0.4,1.2-0.6c0.9-0.5,1.8-1,2.6-1.6c0.5-0.4,1.1-0.8,1.6-1.2l0.1-0.1l0.7,0.8l-0.1,0.1
		c-0.6,0.5-1.3,1.1-2,1.5c-1,0.7-2.1,1.3-3.2,1.9c-0.3,0.1-0.5,0.3-0.8,0.4v13c0,0.2,0.3,0.5,0.5,0.7c0.2,0.2,0.7,0.5,0.8,0.7
		c0,0.1,0.1,0.1,0.1,0.2c0,0,0,0.1,0,0.1c0,0.3-0.2,0.4-0.5,0.4c-0.4,0-0.8,0-1.1-0.1c-0.4,0-0.9-0.1-1.3-0.2c-0.6,0-1.2,0-1.7,0.1
		c-0.2,0-0.5,0-0.7,0c-0.2,0-0.5-0.1-0.5-0.4c0-0.1,0-0.2,0.1-0.2c0.1-0.2,0.7-0.6,0.8-0.7c0.2-0.1,0.5-0.4,0.5-0.7V73.2L75.4,73.2z
		"/>
	<path fill-rule="evenodd" clip-rule="evenodd" fill="#8D6E63" d="M82.7,133.4c0,0.1,0,0.2,0,0.4c0.5,0.1,1.3-1,0.9-1.5
		c-0.4-0.4-1.3,0.2-1.6,0.4c-0.1,0.1-0.1,0.1-0.2,0.2c-0.4,0.5-0.5,0.5-0.5,1c-0.1,2.5-0.8,2.3-1,2.3c-0.3,0,0.2,0,0.3-1.1
		c0.1-1,0.1-1.8,0.9-2.6c0.1-0.2,0.3-0.3,0.5-0.4c0.4-0.3,1.5-0.8,2-0.3c0.7,0.8-0.1,2.1-0.7,2.5c-0.2,0.1-0.7,0.3-1,0
		c-0.5-0.5,0.3-1.9,0.9-1.5c0,0,0.1,0.1,0.1,0.1c0,0-0.1,0.1-0.1,0.1C83,133.2,82.8,133.2,82.7,133.4L82.7,133.4z"/>
	<path fill-rule="evenodd" clip-rule="evenodd" fill="#8D6E63" d="M80,131.9L80,131.9L80,131.9L80,131.9c-0.3,0.4-0.5,1.2-0.5,2
		c0,0.6,0.2,0.7,0.3,1.3c0.1,0.6,0.1,1.3,0.1,1.9c0,0,0,0.1,0,0.1v0l0,0l0,0v0c0,0,0-0.1,0-0.1c0.1-0.6,0-1.3,0.1-1.9
		c0.1-0.6,0.3-0.7,0.3-1.3C80.5,133.1,80.3,132.3,80,131.9L80,131.9L80,131.9z"/>
	<path fill-rule="evenodd" clip-rule="evenodd" fill="#8D6E63" d="M103.6,120.6c0.2-0.1,0.3-0.2,0.5-0.3c0.2-0.1,0.3-0.2,0.5-0.2
		c0.4-0.1,0.7-0.2,1-0.3c0.9-0.4,1.2-1.1,2.5-1.2c0.2,0,0.4,0.1,0.7,0c-0.1-0.1-0.3-0.1-0.4-0.1c-1-0.3-2-1.1-3.1-0.2
		c-0.4,0.4-0.8,0.9-1.2,1.3c-0.2,0.2-0.3,0.3-0.5,0.5c-0.3,0.4-0.6,0.8-0.8,1.4c0,0,0,0,0,0C103.1,121.2,103.3,120.9,103.6,120.6
		L103.6,120.6z"/>
	<path fill-rule="evenodd" clip-rule="evenodd" fill="#8D6E63" d="M85.7,123.8c0.3,0,2.7,0.1,1.5-0.5c-0.3-0.2-0.6-0.4-0.9-0.6
		c-0.7-0.5-1.6-0.9-2.3-0.9c-0.5,0-1,0-1.5-0.2c0.1,0.1,0.5,0.4,0.8,0.7C84,123.1,84.7,123.7,85.7,123.8L85.7,123.8z"/>
	<path fill-rule="evenodd" clip-rule="evenodd" fill="#8D6E63" d="M101.9,119.6c-0.1,0-0.2,0.1-0.3,0.1c-0.3-0.5,0.7-1.5,1.2-1.2
		c0.5,0.2,0.2,1.3,0,1.7c0,0.1-0.1,0.1-0.1,0.2c-0.4,0.5-1,0.8-1.6,1c-1,0.3-2,0.2-3.2,0.3c-0.6,0.1-1.2,0.2-1.7,0.5
		c-0.6,0.4-1.2,0.9-1.9,1.3c-0.6,0.5-1.6,1.3-2.1,1.9c-0.8,0.9-1.4,1.8-2.3,2.7c-1.3,1.2-2.6,1.2-4,1.9c-0.8,0.3-1.7,0.6-2.3,0.9
		c-0.2,0.1-0.3,0.1-0.5,0.2c0.2,0,0.4,0.1,0.6,0.1c0.7,0,1.3-0.3,2-0.4c0.3-0.1,0.8-0.1,1.1-0.2c0.4-0.1,0.8-0.3,1.2-0.5
		c0.5-0.2,0.9-0.4,1.4-0.6c0.7-0.4,1.7-1.2,2.3-1.8c0.9-0.9,1.6-1.8,2.4-2.5c0.7-0.6,1.8-1,2.6-1.4c0.6-0.3,1.1-0.7,1.5-0.9
		c0.6-0.3,1.2-0.5,1.8-0.6c1.3-0.2,2.3-0.3,3.1-1.5c0.1-0.2,0.2-0.4,0.3-0.6c0.2-0.5,0.4-1.7-0.2-2c-0.9-0.5-2,0.6-2.3,1.3
		c-0.1,0.2-0.1,0.8,0.2,1c0.6,0.4,1.7-0.7,1.2-1.2c0,0-0.1-0.1-0.1-0.1c0,0-0.1,0.1-0.1,0.1C102,119.3,102.1,119.5,101.9,119.6
		L101.9,119.6z"/>
	<path fill-rule="evenodd" clip-rule="evenodd" fill="#8D6E63" d="M98.2,121c0.3-0.3,0.4-0.6,0.6-0.9c0.2-0.4,0.6-1.4,0.9-1.7
		c0,0,0,0,0-0.1c0,0,0,0-0.1,0c-0.4,0.2-1.1,0.8-1.5,1c-0.5,0.3-0.8,0.6-1.1,0.9c-0.7,0.6-1.3,1.3-2,1.9
		C95.8,121.9,97.9,121.3,98.2,121L98.2,121z"/>
	<path fill-rule="evenodd" clip-rule="evenodd" fill="#8D6E63" d="M56.4,120.6c-0.2-0.1-0.3-0.2-0.5-0.3c-0.2-0.1-0.3-0.2-0.5-0.2
		c-0.4-0.1-0.7-0.2-1-0.3c-0.9-0.4-1.2-1.1-2.5-1.2c-0.2,0-0.4,0.1-0.7,0c0.1-0.1,0.3-0.1,0.4-0.1c1-0.3,2-1.1,3.1-0.2
		c0.4,0.4,0.8,0.9,1.2,1.3c0.2,0.2,0.3,0.3,0.5,0.5c0.3,0.4,0.6,0.8,0.8,1.4c0,0,0,0,0,0C56.9,121.2,56.7,120.9,56.4,120.6
		L56.4,120.6z"/>
	<path fill-rule="evenodd" clip-rule="evenodd" fill="#8D6E63" d="M74.3,123.8c-0.3,0-2.7,0.1-1.5-0.5c0.3-0.2,0.6-0.4,0.9-0.6
		c0.7-0.5,1.6-0.9,2.3-0.9c0.5,0,1,0,1.5-0.2c-0.1,0.1-0.5,0.4-0.8,0.7C76,123.1,75.3,123.7,74.3,123.8L74.3,123.8z"/>
	<path fill-rule="evenodd" clip-rule="evenodd" fill="#8D6E63" d="M68.9,124.2c0.2,0.6,0.5,0.9,1.2,1.4c0.6,0.4,1.2,0.5,1.9,0.7
		c0.7,0.3,1.3,0.5,2,0.9c0,0,0.1,0,0.1,0c0,0,0-0.1,0-0.1c-1.3-0.6-3.7-2.4-3.9-4.3c-0.1-0.4-0.1-0.8-0.1-1.2
		c0.1-0.1,0.2-0.1,0.2-0.2l0,0c0,0.2,0,0.4,0,0.7c0.1,1.4,1,2.4,2.7,2.8c1.1,0.1,2.2-0.3,2.8-1.5c-1.3,1.2-3.6,0.5-4-0.3
		c-0.8-1.7,0.4-4.8,4.3-3.9c1.1,0.4,2.3,2.2,2.4,4.1h-0.1c-0.4,0-0.7,0.3-0.7,0.7v0.3l0,0v0l0,0v0l0,0l0,0l0,0l0,0l0,0l0,0l0,0l0,0
		l0,0l0,0l0,0l0,0l0,0l0,0l0,0l0,0l0,0l0,0l0,0l0,0l0,0l0,0l0,0l0,0l0,0l0,0l0,0l0,0l0,0l0,0l0,0l0,0l0,0l0,0l0,0l0,0l0,0l0,0l0,0
		l0,0l0,0l0,0l0,0l0,0l0,0l0,0l0,0l0,0l0,0l0,0l0,0l0,0l0,0l0,0l0,0l0,0l0,0l0,0l0,0l0,0l0,0l0,0l0,0l0,0l0,0l0,0l0,0l0,0l0,0l0,0
		l0,0l0,0l0,0l0,0l0,0l0,0l0,0l0,0l0,0l0,0l0,0l0,0l0,0l0,0l0,0l0,0l0,0l0,0l0,0l0,0l0,0l0,0l0,0l0,0l0,0l0,0l0,0l0,0l0,0l0,0l0,0
		l0,0l0,0l0,0l0,0l0,0l0,0l0,0l0,0l0,0l0,0l0,0l0,0l0,0l0,0l0,0l0,0h0l0,0h0c-0.1,0.5-0.2,0.9-0.4,1.2c-1.8-1.1-4.3-1.4-5.4-0.5
		c0.9-0.5,3-0.3,4.9,1.1c-0.1,0.1-0.3,0.3-0.4,0.4c-1.9,1.9-4.3,0.6-7.1-0.7c2.5,3.2,5.5,3.6,7.2,2.8c0.7-0.4,1.2-0.9,1.6-1.5
		c0.7,0.8,0.8,1.5,0.4,2.1c-0.6,0.8-1.7,0.8-1.2-0.6c-0.5-0.3-1.1-0.1-1.1,0.7c0.1,0.7,0.5,1.3,1,1.5c1,0.5,1.9-0.4,2.2-1.5
		c0.2-1.2-0.2-2.2-0.9-3c0.1-0.3,0.2-0.6,0.3-0.9c0.1-0.4,0.2-0.8,0.3-1.2h0.8c0.1,0.4,0.2,0.8,0.3,1.2c0.1,0.3,0.2,0.7,0.3,0.9
		c-0.7,0.8-1.1,1.8-0.9,3c0.3,1.1,1.2,2,2.2,1.5c0.5-0.2,0.9-0.9,1-1.5c0.1-0.7-0.6-1-1.1-0.7c0.5,1.4-0.6,1.4-1.2,0.6
		c-0.4-0.6-0.3-1.3,0.4-2.1c0.4,0.6,0.9,1,1.6,1.5c1.7,0.8,4.7,0.3,7.2-2.8c-2.8,1.3-5.2,2.6-7.1,0.7c-0.2-0.1-0.3-0.3-0.4-0.4
		c1.8-1.4,4-1.6,4.9-1.1c-1-0.9-3.5-0.6-5.4,0.5c-0.2-0.3-0.3-0.6-0.4-1.2h0l0,0h0l0,0l0,0l0,0l0,0l0,0l0,0l0,0l0,0l0,0l0,0l0,0l0,0
		l0,0l0,0l0,0l0,0l0,0l0,0l0,0l0,0l0,0l0,0l0,0l0,0l0,0l0,0l0,0l0,0l0,0l0,0l0,0l0,0l0,0l0,0l0,0l0,0l0,0l0,0l0,0l0,0l0,0l0,0l0,0
		l0,0l0,0l0,0l0,0l0,0l0,0l0,0l0,0l0,0l0,0l0,0l0,0l0,0l0,0l0,0l0,0l0,0l0,0l0,0l0,0l0,0l0,0l0,0l0,0l0,0l0,0l0,0l0,0l0,0l0,0l0,0
		l0,0l0,0l0,0l0,0l0,0l0,0l0,0l0,0l0,0l0,0l0,0l0,0l0,0l0,0l0,0l0,0l0,0l0,0l0,0l0,0l0,0l0,0l0,0l0,0l0,0l0,0l0,0l0,0l0,0l0,0l0,0
		l0,0l0,0l0,0l0,0l0,0l0,0l0,0l0,0l0,0l0,0v0l0,0v0l0,0V124c0-0.4-0.3-0.7-0.7-0.7h-0.1c0.1-1.9,1.2-3.7,2.4-4.1
		c3.9-0.9,5.1,2.3,4.3,3.9c-0.4,0.8-2.6,1.5-4,0.3c0.6,1.1,1.7,1.5,2.8,1.5c1.7-0.4,2.6-1.3,2.7-2.8c0-0.3,0.1-0.6,0-0.7l0,0
		c0.1,0.1,0.2,0.2,0.2,0.2c0,0.4,0,0.8-0.1,1.2c-0.3,1.8-2.6,3.7-3.9,4.3c0,0,0,0.1,0,0.1c0,0,0.1,0,0.1,0c0.7-0.3,1.3-0.6,2-0.9
		c0.7-0.3,1.3-0.3,1.9-0.7c0.6-0.6,1-0.8,1.2-1.4c0.1-0.6,0.1-1.1,0.1-1.7c0.4,0.3,0.8,0.5,1.2,0.6c0.6,0.1,1.3,0.1,1.9-0.2
		c0.6-0.3,0.9-0.9,1.1-1.5c0.2-0.8,0.2-1.8-0.2-2.5c-0.1-0.1-0.2-0.3-0.3-0.4c-0.1-0.2-0.3-0.3-0.5-0.4c-0.8-0.6-2-0.3-2.8,0.3
		c-0.3,0.3-0.6,0.6-0.6,1.1c-0.1,0.5,0.2,1.2,0.6,1.4c0-0.9,0.8-2.4,2.3-2c0.6,0.2,1,0.9,1,1.5c0.1,0.7-0.2,1.3-0.7,1.7
		c-0.9,0.7-2,0.4-3,0.1l-0.1,0c-0.3-2.5-1.8-4.3-4-4.4c1.5,1,2.8,1.8,2.9,3.8c-0.1-0.1-0.2-0.2-0.3-0.3c-0.1-1-0.5-1.5-1.1-2.2
		c-1.5-1.5-4.5-2.1-6.3-0.7c-0.4,0.3-0.7,0.7-1,1.1c-0.2,0.3-0.4,0.6-0.5,1c-0.5,1-0.6,2-0.6,3h-0.5c0-1-0.1-2-0.6-3
		c-0.1-0.4-0.3-0.7-0.5-1c-0.3-0.4-0.6-0.8-1-1.1c-1.7-1.4-4.7-0.8-6.3,0.7c-0.6,0.6-1,1.2-1.1,2.2c-0.1,0.1-0.2,0.2-0.3,0.3
		c0.1-2,1.4-2.8,2.9-3.8c-2.2,0.2-3.7,2-4,4.4l-0.1,0c-1,0.4-2.1,0.6-3-0.1c-0.5-0.4-0.8-1-0.7-1.7c0.1-0.6,0.4-1.4,1-1.5
		c1.5-0.4,2.3,1.1,2.3,2c0.4-0.2,0.7-0.9,0.6-1.4c-0.1-0.5-0.3-0.8-0.6-1.1c-0.7-0.6-1.9-0.8-2.8-0.3c-0.2,0.1-0.3,0.3-0.5,0.4
		c-0.1,0.1-0.2,0.2-0.3,0.4c-0.4,0.7-0.5,1.7-0.2,2.5c0.2,0.6,0.6,1.2,1.1,1.5c0.6,0.3,1.2,0.3,1.9,0.2c0.4-0.1,0.8-0.3,1.2-0.6
		C68.8,123.1,68.9,123.6,68.9,124.2L68.9,124.2z"/>
	<path fill-rule="evenodd" clip-rule="evenodd" fill="#8D6E63" d="M58.1,119.6c0.1,0,0.2,0.1,0.3,0.1c0.3-0.5-0.7-1.5-1.2-1.2
		c-0.5,0.2-0.2,1.3,0,1.7c0,0.1,0.1,0.1,0.1,0.2c0.4,0.5,1,0.8,1.6,1c1,0.3,2,0.2,3.2,0.3c0.6,0.1,1.2,0.2,1.7,0.5
		c0.6,0.4,1.2,0.9,1.9,1.3c0.6,0.5,1.6,1.3,2.1,1.9c0.8,0.9,1.4,1.8,2.3,2.7c1.3,1.2,2.6,1.2,4,1.9c0.8,0.3,1.7,0.6,2.3,0.9
		c0.2,0.1,0.3,0.1,0.5,0.2c-0.2,0-0.4,0.1-0.6,0.1c-0.7,0-1.3-0.3-2-0.4c-0.3-0.1-0.8-0.1-1.1-0.2c-0.4-0.1-0.8-0.3-1.2-0.5
		c-0.5-0.2-0.9-0.4-1.4-0.6c-0.7-0.4-1.7-1.2-2.3-1.8c-0.9-0.9-1.6-1.8-2.4-2.5c-0.7-0.6-1.8-1-2.6-1.4c-0.6-0.3-1.1-0.7-1.5-0.9
		c-0.6-0.3-1.2-0.5-1.8-0.6c-1.3-0.2-2.3-0.3-3.1-1.5c-0.1-0.2-0.2-0.4-0.3-0.6c-0.2-0.5-0.4-1.7,0.2-2c0.9-0.5,2,0.6,2.3,1.3
		c0.1,0.2,0.1,0.8-0.2,1c-0.6,0.4-1.7-0.7-1.2-1.2c0,0,0.1-0.1,0.1-0.1c0,0,0.1,0.1,0.1,0.1C58,119.3,57.9,119.5,58.1,119.6
		L58.1,119.6z"/>
	<path fill-rule="evenodd" clip-rule="evenodd" fill="#8D6E63" d="M61.8,121c-0.3-0.3-0.4-0.6-0.6-0.9c-0.2-0.4-0.6-1.4-0.9-1.7
		c0,0,0,0,0-0.1c0,0,0,0,0.1,0c0.4,0.2,1.1,0.8,1.5,1c0.5,0.3,0.8,0.6,1.1,0.9c0.7,0.6,1.3,1.3,2,1.9
		C64.2,121.9,62.1,121.3,61.8,121L61.8,121z"/>
	<path fill-rule="evenodd" clip-rule="evenodd" fill="#8D6E63" d="M77.4,133.4c0,0.1,0,0.2,0,0.4c-0.5,0.1-1.3-1-0.9-1.5
		c0.4-0.4,1.3,0.2,1.6,0.4c0.1,0.1,0.1,0.1,0.2,0.2c0.4,0.5,0.5,0.5,0.5,1c0.1,2.5,0.8,2.3,1,2.3c0.3,0-0.2,0-0.3-1.1
		c-0.1-1-0.1-1.8-0.9-2.6c-0.1-0.2-0.3-0.3-0.5-0.4c-0.4-0.3-1.5-0.8-2-0.3c-0.7,0.8,0.1,2.1,0.7,2.5c0.2,0.1,0.7,0.3,1,0
		c0.5-0.5-0.3-1.9-0.9-1.5c0,0-0.1,0.1-0.1,0.1c0,0,0.1,0.1,0.1,0.1C77,133.2,77.2,133.2,77.4,133.4L77.4,133.4z"/>
	<path fill="#8D6E63" d="M51.6,107.3h-5.5v-0.4c0.1,0,0.2,0,0.3-0.1c0.1-0.1,0.1-0.2,0.1-0.3V102c0-0.1,0-0.2-0.1-0.3
		c-0.1-0.1-0.2-0.1-0.3-0.1v-0.4h5.3v1.4h-0.5c0-0.2-0.1-0.3-0.2-0.4c-0.1-0.1-0.3-0.2-0.5-0.2H48v1.6h1.6c0.1,0,0.2,0,0.3-0.1
		c0.1-0.1,0.1-0.2,0.1-0.3h0.5v1.7H50c0-0.1,0-0.2-0.1-0.3c-0.1-0.1-0.2-0.1-0.3-0.1H48v2.1h2.3c0.2,0,0.4-0.1,0.6-0.2
		c0.2-0.1,0.2-0.3,0.2-0.5h0.5V107.3L51.6,107.3z M52.6,106.5V102c0-0.1,0-0.2-0.1-0.3c-0.1-0.1-0.2-0.1-0.3-0.1v-0.4H55
		c0.9,0,1.7,0.3,2.4,0.9c0.7,0.6,1.1,1.4,1.1,2.3c0,0.9-0.3,1.6-0.9,2.1c-0.5,0.5-1.2,0.7-2,0.7h-3.4v-0.4c0.1,0,0.2,0,0.3-0.1
		C52.6,106.7,52.6,106.7,52.6,106.5L52.6,106.5z M54,102.1v4.5h1.1c0.5,0,1-0.2,1.3-0.6c0.3-0.4,0.5-0.9,0.5-1.4
		c0-0.7-0.2-1.2-0.6-1.7c-0.4-0.5-0.9-0.7-1.5-0.7H54L54,102.1z M64.5,107.3H59v-0.4c0.1,0,0.2,0,0.3-0.1c0.1-0.1,0.1-0.2,0.1-0.3
		V102c0-0.1,0-0.2-0.1-0.3c-0.1-0.1-0.2-0.1-0.3-0.1v-0.4h5.3v1.4h-0.5c0-0.2-0.1-0.3-0.2-0.4c-0.1-0.1-0.3-0.2-0.5-0.2h-2.3v1.6
		h1.6c0.1,0,0.2,0,0.3-0.1c0.1-0.1,0.1-0.2,0.1-0.3h0.5v1.7h-0.5c0-0.1,0-0.2-0.1-0.3c-0.1-0.1-0.2-0.1-0.3-0.1h-1.6v2.1h2.3
		c0.2,0,0.4-0.1,0.6-0.2c0.2-0.1,0.2-0.3,0.2-0.5h0.5V107.3L64.5,107.3z M72.6,107.3h-2.2v-0.4c0.1,0,0.2,0,0.2-0.1
		c0.1-0.1,0.1-0.2,0.1-0.3c0,0,0-0.1,0-0.1l-0.6-3.5l-1.1,3h-1l-1.2-3.1l-0.5,3.6c0,0,0,0.1,0,0.1c0,0,0,0,0,0.1
		c0,0.2,0.1,0.3,0.4,0.3v0.4h-1.7v-0.4c0.1,0,0.2-0.1,0.3-0.2c0.1-0.1,0.1-0.2,0.2-0.3l0.7-4.4c0,0,0,0,0-0.1c0,0,0,0,0-0.1
		c0-0.2-0.1-0.3-0.3-0.3v-0.4h1.9l1.2,2.8l1-2.8h2v0.4c-0.1,0-0.2,0-0.2,0.1c-0.1,0.1-0.1,0.2-0.1,0.3c0,0,0,0.1,0,0.1l0.8,4.4
		c0,0.2,0.1,0.3,0.1,0.4c0.1,0.1,0.1,0.1,0.3,0.1V107.3L72.6,107.3z M83.4,107.3h-1.7l-1.9-2.5h-0.5v1.7c0,0.1,0,0.2,0.1,0.3
		c0.1,0.1,0.2,0.1,0.3,0.1v0.4h-2.3v-0.4c0.1,0,0.2,0,0.3-0.1c0.1-0.1,0.1-0.2,0.1-0.3V102c0-0.1,0-0.2-0.1-0.3
		c-0.1-0.1-0.2-0.1-0.3-0.1v-0.4H81c0.5,0,1,0.2,1.4,0.5c0.4,0.3,0.6,0.7,0.6,1.2c0,0.5-0.2,0.8-0.5,1.2c-0.3,0.3-0.7,0.5-1.2,0.5
		l1.5,1.9c0.1,0.1,0.2,0.2,0.2,0.2c0.1,0.1,0.2,0.2,0.4,0.2V107.3L83.4,107.3z M79.3,102.1v1.9h1.1c0.3,0,0.5-0.1,0.8-0.3
		c0.2-0.2,0.3-0.4,0.3-0.7c0-0.3-0.1-0.5-0.2-0.7c-0.2-0.2-0.4-0.3-0.6-0.3H79.3L79.3,102.1z M89.2,107.3h-5.5v-0.4
		c0.1,0,0.2,0,0.3-0.1c0.1-0.1,0.1-0.2,0.1-0.3V102c0-0.1,0-0.2-0.1-0.3c-0.1-0.1-0.2-0.1-0.3-0.1v-0.4H89v1.4h-0.5
		c0-0.2-0.1-0.3-0.2-0.4c-0.1-0.1-0.3-0.2-0.5-0.2h-2.3v1.6h1.6c0.1,0,0.2,0,0.3-0.1c0.1-0.1,0.1-0.2,0.1-0.3h0.5v1.7h-0.5
		c0-0.1,0-0.2-0.1-0.3c-0.1-0.1-0.2-0.1-0.3-0.1h-1.6v2.1h2.3c0.2,0,0.4-0.1,0.6-0.2c0.2-0.1,0.2-0.3,0.2-0.5h0.5V107.3L89.2,107.3z
		 M92.3,107.5c-0.6,0-1.2-0.1-1.6-0.4c-0.5-0.3-0.8-0.6-1-1.1l0.9-0.9l0.4,0.4c0,0.1-0.1,0.2-0.1,0.2c0,0.1,0,0.2,0,0.2
		c0,0.2,0.2,0.4,0.5,0.5c0.3,0.1,0.6,0.2,0.9,0.2c0.3,0,0.6-0.1,0.9-0.2c0.3-0.1,0.4-0.4,0.4-0.6c0-0.4-0.3-0.7-0.8-0.9
		c-0.2-0.1-0.5-0.2-1-0.3c-0.8-0.2-1.3-0.5-1.6-0.7c-0.2-0.3-0.4-0.6-0.4-1c0-0.6,0.3-1.1,0.8-1.4c0.5-0.3,1.1-0.5,1.7-0.5
		c0.5,0,1,0.1,1.4,0.3c0.4,0.2,0.7,0.5,0.9,0.8l-0.9,0.8l-0.4-0.3c0-0.1,0-0.1,0-0.2c0-0.2-0.1-0.3-0.4-0.4
		c-0.3-0.1-0.5-0.2-0.7-0.2c-0.3,0-0.6,0.1-0.8,0.2c-0.3,0.1-0.4,0.3-0.4,0.6c0,0.2,0.2,0.4,0.5,0.5c0.1,0,0.5,0.2,1.2,0.4
		c0.8,0.2,1.4,0.5,1.7,0.9c0.3,0.3,0.4,0.7,0.4,1.1c0,0.7-0.3,1.2-0.8,1.5C93.7,107.4,93.1,107.5,92.3,107.5L92.3,107.5z
		 M102.1,104.3c0,1-0.3,1.7-0.9,2.3c-0.6,0.6-1.4,0.9-2.5,0.9c-1,0-1.8-0.3-2.4-0.9c-0.6-0.6-0.9-1.4-0.9-2.3c0-1,0.3-1.7,0.9-2.3
		c0.6-0.6,1.4-0.9,2.5-0.9c1,0,1.9,0.3,2.5,0.9C101.8,102.5,102.1,103.3,102.1,104.3L102.1,104.3z M100.5,104.3
		c0-0.7-0.1-1.3-0.4-1.7c-0.3-0.4-0.8-0.7-1.4-0.7c-0.6,0-1.1,0.2-1.4,0.7c-0.3,0.4-0.4,1-0.4,1.7c0,0.7,0.1,1.3,0.4,1.7
		c0.3,0.5,0.8,0.7,1.4,0.7c0.6,0,1.1-0.2,1.4-0.7C100.4,105.6,100.5,105,100.5,104.3L100.5,104.3z M108.5,107.3h-1.7l-1.9-2.5h-0.5
		v1.7c0,0.1,0,0.2,0.1,0.3c0.1,0.1,0.2,0.1,0.3,0.1v0.4h-2.3v-0.4c0.1,0,0.2,0,0.3-0.1c0.1-0.1,0.1-0.2,0.1-0.3V102
		c0-0.1,0-0.2-0.1-0.3c-0.1-0.1-0.2-0.1-0.3-0.1v-0.4h3.5c0.5,0,1,0.2,1.4,0.5c0.4,0.3,0.6,0.7,0.6,1.2c0,0.5-0.2,0.8-0.5,1.2
		c-0.3,0.3-0.7,0.5-1.2,0.5l1.5,1.9c0.1,0.1,0.2,0.2,0.2,0.2c0.1,0.1,0.2,0.2,0.4,0.2V107.3L108.5,107.3z M104.4,102.1v1.9h1.1
		c0.3,0,0.5-0.1,0.8-0.3c0.2-0.2,0.3-0.4,0.3-0.7c0-0.3-0.1-0.5-0.2-0.7c-0.2-0.2-0.4-0.3-0.6-0.3H104.4L104.4,102.1z M108.5,101.3
		h5.3v1.4h-0.5c0-0.2-0.1-0.3-0.2-0.4c-0.1-0.1-0.2-0.2-0.4-0.2h-0.9v4.5c0,0.1,0,0.2,0.1,0.3c0.1,0.1,0.2,0.1,0.3,0.1v0.4h-2.3
		v-0.4c0.1,0,0.2,0,0.3-0.1c0.1-0.1,0.1-0.2,0.1-0.3v-4.5h-0.9c-0.1,0-0.3,0.1-0.4,0.2c-0.1,0.1-0.2,0.3-0.2,0.4h-0.5V101.3
		L108.5,101.3z"/>
	<path fill="#8D6E63" d="M53.1,115.3h-2v-0.4c0.1,0,0.2,0,0.2-0.1c0.1-0.1,0.1-0.2,0.1-0.3c0,0,0-0.1,0-0.1l-0.6-3.2l-1,2.7h-0.9
		l-1.1-2.8l-0.5,3.2c0,0,0,0.1,0,0.1c0,0,0,0,0,0c0,0.2,0.1,0.3,0.3,0.3v0.4h-1.5v-0.4c0.1,0,0.2,0,0.2-0.1c0.1-0.1,0.1-0.2,0.1-0.3
		l0.6-4c0,0,0,0,0-0.1c0,0,0,0,0,0c0-0.2-0.1-0.3-0.3-0.3v-0.4h1.7l1,2.5l0.9-2.5h1.8v0.4c-0.1,0-0.2,0-0.2,0.1
		c-0.1,0.1-0.1,0.1-0.1,0.2c0,0,0,0.1,0,0.1l0.7,3.9c0,0.1,0.1,0.2,0.1,0.3c0.1,0.1,0.1,0.1,0.2,0.1V115.3L53.1,115.3z M58.4,115.3
		h-4.9v-0.4c0.1,0,0.2,0,0.3-0.1c0.1-0.1,0.1-0.2,0.1-0.3v-4.1c0-0.1,0-0.2-0.1-0.3c-0.1-0.1-0.2-0.1-0.3-0.1v-0.4h4.8v1.2h-0.5
		c0-0.2-0.1-0.3-0.2-0.4c-0.1-0.1-0.3-0.1-0.4-0.1h-2v1.4h1.4c0.1,0,0.2,0,0.3-0.1c0.1-0.1,0.1-0.2,0.1-0.3h0.4v1.5h-0.4
		c0-0.1,0-0.2-0.1-0.3c-0.1-0.1-0.2-0.1-0.3-0.1h-1.4v1.9h2.1c0.2,0,0.4-0.1,0.5-0.2c0.1-0.1,0.2-0.2,0.2-0.4h0.5V115.3L58.4,115.3z
		 M59.3,114.6v-4.1c0-0.1,0-0.2-0.1-0.3c-0.1-0.1-0.2-0.1-0.3-0.1v-0.4h2.5c0.8,0,1.6,0.3,2.2,0.8c0.6,0.6,1,1.3,1,2.1
		c0,0.8-0.3,1.4-0.8,1.9c-0.5,0.4-1.1,0.7-1.8,0.7h-3.1v-0.4c0.1,0,0.2,0,0.3-0.1C59.2,114.7,59.3,114.7,59.3,114.6L59.3,114.6z
		 M60.6,110.5v4h1c0.5,0,0.9-0.2,1.2-0.5c0.3-0.3,0.5-0.8,0.5-1.3c0-0.6-0.2-1.1-0.5-1.5c-0.3-0.4-0.8-0.7-1.4-0.7H60.6L60.6,110.5z
		 M65.1,109.8h2v0.4c-0.1,0-0.2,0-0.3,0.1c-0.1,0.1-0.1,0.2-0.1,0.3v4.1c0,0.1,0,0.2,0.1,0.3c0.1,0.1,0.2,0.1,0.3,0.1v0.4h-2v-0.4
		c0.1,0,0.2,0,0.3-0.1c0.1-0.1,0.1-0.2,0.1-0.3v-4.1c0-0.1,0-0.2-0.1-0.3c-0.1-0.1-0.2-0.1-0.3-0.1V109.8L65.1,109.8z M72.6,110.6
		l-0.9,0.9l-0.4-0.3c0-0.1,0.1-0.1,0.1-0.2c0,0,0-0.1,0-0.1c0-0.2-0.1-0.3-0.2-0.4c-0.2-0.1-0.4-0.1-0.7-0.1c-0.5,0-0.9,0.2-1.1,0.5
		c-0.3,0.4-0.4,0.8-0.4,1.4c0,0.7,0.2,1.2,0.5,1.6c0.4,0.5,0.9,0.7,1.5,0.7c0.2,0,0.4-0.1,0.6-0.2c0.2-0.1,0.3-0.3,0.3-0.4h0.5v1.2
		c-0.2,0.1-0.5,0.1-0.7,0.2c-0.3,0-0.6,0.1-0.9,0.1c-1,0-1.8-0.3-2.4-0.9c-0.6-0.6-0.9-1.3-0.9-2.3c0-0.8,0.3-1.4,0.8-1.9
		c0.5-0.5,1.2-0.7,2.1-0.7c0.5,0,0.9,0.1,1.3,0.2C72.1,110,72.4,110.3,72.6,110.6L72.6,110.6z M72.7,115.3v-0.4
		c0.1,0,0.2-0.1,0.2-0.1c0.1-0.1,0.1-0.2,0.2-0.3l1.7-4.7h1.4l1.9,4.7c0,0.1,0.1,0.2,0.2,0.3c0.1,0.1,0.2,0.1,0.3,0.1v0.4h-2v-0.4
		c0.2,0,0.2-0.1,0.2-0.2c0,0,0-0.1,0-0.2l-0.4-1.1h-1.9l-0.4,1.1c0,0.1,0,0.1,0,0.2c0,0.2,0.1,0.2,0.3,0.2v0.4H72.7L72.7,115.3z
		 M76,112.6l-0.7-1.8l-0.7,1.8L76,112.6L76,112.6z M83.4,115.3h-4.6v-0.4c0.1,0,0.2,0,0.3-0.1c0.1-0.1,0.1-0.2,0.1-0.3v-4.1
		c0-0.1,0-0.2-0.1-0.3c-0.1-0.1-0.2-0.1-0.3-0.1v-0.4h2v0.4c-0.1,0-0.2,0-0.3,0.1c-0.1,0.1-0.1,0.2-0.1,0.3v4h1.9
		c0.2,0,0.3-0.1,0.4-0.2c0.1-0.1,0.2-0.3,0.2-0.5h0.5V115.3L83.4,115.3z M100.2,115.4c-0.6,0-1.1-0.1-1.5-0.3
		c-0.5-0.2-0.7-0.6-0.9-1l0.8-0.8l0.4,0.3c0,0.1-0.1,0.1-0.1,0.2c0,0.1,0,0.1,0,0.2c0,0.2,0.1,0.4,0.4,0.5c0.3,0.1,0.5,0.2,0.8,0.2
		c0.3,0,0.6-0.1,0.8-0.2c0.3-0.1,0.4-0.3,0.4-0.6c0-0.3-0.2-0.6-0.7-0.8c-0.2-0.1-0.5-0.2-0.9-0.3c-0.7-0.2-1.2-0.4-1.4-0.7
		c-0.2-0.2-0.3-0.5-0.3-0.9c0-0.5,0.3-1,0.8-1.3c0.4-0.3,1-0.4,1.5-0.4c0.5,0,0.9,0.1,1.3,0.3c0.4,0.2,0.6,0.4,0.8,0.7l-0.8,0.8
		l-0.3-0.2c0-0.1,0-0.1,0-0.2c0-0.2-0.1-0.3-0.4-0.4c-0.2-0.1-0.5-0.1-0.7-0.1c-0.3,0-0.5,0-0.7,0.1c-0.2,0.1-0.4,0.3-0.4,0.5
		c0,0.2,0.2,0.3,0.5,0.5c0.1,0,0.4,0.1,1.1,0.3c0.7,0.2,1.3,0.5,1.5,0.8c0.2,0.3,0.4,0.6,0.4,1c0,0.6-0.3,1.1-0.8,1.4
		C101.4,115.3,100.9,115.4,100.2,115.4L100.2,115.4z M103.1,109.8h3.2c0.4,0,0.8,0.1,1.2,0.4c0.3,0.3,0.5,0.6,0.5,1.1
		c0,0.5-0.2,0.9-0.5,1.2c-0.3,0.3-0.7,0.5-1.2,0.7c-0.4,0.1-0.9,0.3-1.5,0.4v1c0,0.1,0,0.2,0.1,0.3c0.1,0.1,0.2,0.1,0.3,0.1v0.4h-2
		v-0.4c0.1,0,0.2,0,0.3-0.1c0.1-0.1,0.1-0.2,0.1-0.3v-4.1c0-0.1,0-0.2-0.1-0.3c-0.1-0.1-0.2-0.1-0.3-0.1V109.8L103.1,109.8z
		 M104.7,110.5v2.4c0.5-0.1,0.9-0.2,1.2-0.4c0.4-0.3,0.6-0.6,0.6-1.1c0-0.3-0.1-0.5-0.3-0.7c-0.2-0.2-0.4-0.2-0.7-0.2H104.7
		L104.7,110.5z M108,115.3v-0.4c0.1,0,0.2-0.1,0.2-0.1c0.1-0.1,0.1-0.2,0.2-0.3l1.7-4.7h1.4l1.9,4.7c0,0.1,0.1,0.2,0.2,0.3
		c0.1,0.1,0.2,0.1,0.3,0.1v0.4h-2v-0.4c0.2,0,0.2-0.1,0.2-0.2c0,0,0-0.1,0-0.2l-0.4-1.1h-1.9l-0.4,1.1c0,0.1,0,0.1,0,0.2
		c0,0.2,0.1,0.2,0.3,0.2v0.4H108L108,115.3z M111.3,112.6l-0.7-1.8l-0.7,1.8L111.3,112.6L111.3,112.6z M93.9,115.1
		c0,0.1,0,0.2-0.1,0.2c-0.1,0-0.2,0-0.3,0c-0.2,0-0.3,0-0.5,0c-0.5,0-0.8,0-0.8,0c-0.1,0-0.3,0-0.6,0c-0.3,0-0.5,0-0.6,0
		c0,0-0.1,0-0.1,0c-0.1,0-0.1-0.1-0.1-0.2c0-0.1,0.1-0.2,0.2-0.2s0.2,0,0.2,0c0.1,0,0.1-0.1,0.1-0.2c0,0,0-0.1,0-0.1
		c0,0,0-0.1-0.1-0.1l-0.1-0.1c-0.3,0.4-0.7,0.6-1.1,0.8c-0.3,0.1-0.6,0.2-0.9,0.2c-0.5,0-1-0.1-1.3-0.4c-0.3-0.3-0.5-0.7-0.5-1.1
		c0-0.4,0.2-0.8,0.5-1c0.2-0.2,0.6-0.4,1.3-0.7c-0.2-0.3-0.4-0.5-0.4-0.6c-0.1-0.2-0.2-0.5-0.2-0.7c0-0.4,0.1-0.7,0.4-0.9
		c0.3-0.3,0.8-0.4,1.5-0.4c0.7,0,1.2,0.1,1.5,0.4c0.2,0.2,0.4,0.4,0.4,0.7c0,0.3-0.2,0.6-0.5,0.8c-0.2,0.1-0.5,0.3-1,0.4l1.1,1.3
		c0.1-0.1,0.2-0.2,0.3-0.3c0.1-0.2,0.2-0.3,0.2-0.4c0-0.1,0-0.2-0.1-0.2c-0.1,0-0.2,0-0.3,0c-0.1,0-0.1,0-0.1,0c0,0-0.1-0.1-0.1-0.1
		c0-0.1,0-0.1,0.1-0.1c0,0,0.1,0,0.2,0h0.9h0.8c0.1,0,0.1,0,0.2,0c0.1,0,0.1,0.1,0.1,0.1c0,0.1,0,0.1-0.1,0.1c0,0-0.1,0-0.2,0
		c-0.2,0-0.4,0-0.5,0.1c-0.2,0.1-0.4,0.3-0.6,0.7l-0.3,0.4l0.6,0.7c0.1,0.2,0.3,0.3,0.4,0.5c0.2,0.2,0.3,0.2,0.5,0.3
		c0,0,0.1,0,0.1,0C93.8,115,93.9,115,93.9,115.1L93.9,115.1z M91,110.7c0-0.3-0.1-0.5-0.2-0.6c-0.1-0.2-0.3-0.3-0.5-0.3
		c-0.1,0-0.3,0-0.4,0.1c-0.1,0.1-0.1,0.2-0.1,0.4c0,0.2,0.2,0.6,0.7,1.2c0.2-0.1,0.3-0.2,0.4-0.3S91,110.9,91,110.7L91,110.7z
		 M90.8,114.2l-1.5-1.8c-0.2,0.1-0.4,0.2-0.5,0.4c-0.1,0.2-0.2,0.4-0.2,0.6c0,0.4,0.1,0.7,0.4,0.9c0.2,0.2,0.5,0.3,0.8,0.3
		c0.1,0,0.3,0,0.4-0.1C90.5,114.4,90.7,114.3,90.8,114.2L90.8,114.2z"/>
</g>
</svg>
