<?xml version="1.0" encoding="utf-8"?>
<!-- Generator: Adobe Illustrator 18.0.0, SVG Export Plug-In . SVG Version: 6.00 Build 0)  -->
<!DOCTYPE svg PUBLIC "-//W3C//DTD SVG 1.1//EN" "http://www.w3.org/Graphics/SVG/1.1/DTD/svg11.dtd">
<svg version="1.1" id="Layer_1" xmlns="http://www.w3.org/2000/svg" xmlns:xlink="http://www.w3.org/1999/xlink" x="0px" y="0px"
	 viewBox="0 0 220 110" enable-background="new 0 0 220 110" xml:space="preserve">
<path fill="#D81B60" d="M217.2,92.5c-0.6-0.3-5.7,9.2-6.6,10.3c-3.4,3.9-6.5,2-5.1-2.9c0.9-3.1,2.4-6.1,3.8-8.9
	c1.6-3.2,4.2-5.9,5.8-8.9c-5.6,0-6.4,1.4-9,6.4c-2.7,5.3-5.4,11.9-10.1,15.8c-6.4,5.3-2.3-7.2-1.4-9.2c1.2-2.7,2.6-5.4,4-8.1
	c1-1.8,3.2-3.2,3.9-4.9c-5.3,0-6.5,0.5-9.1,5.5c-2.8,5.4-5.3,12.5-10,16.5c-5.9,5.1-3.2-6-2.2-8.3c2.2-5,5.5-9.1,8-13.7
	c-3.6,0-8-0.8-10.3,2.7c-3.7,5.6-4.9,12.6-9.1,17.9c-1.3,1.7-5.8,4.6-5.8,0.2c0-2.5,1.1-4.9,2.1-7.1c2.2-5,5.5-9.1,8-13.7
	c-6.5,0-9.6,0.5-12.4,7c-1.7,4-3.4,8.1-5.9,11.8c-1.6,2.3-8,7.4-9.3,1.9c-0.3-1.3,1.5-2.8,0.4-4c-1.4-1.5-2.9,0.4-3.3,1.5
	c-1.7,4.6,4.6,7.6,8.2,6.5c4.7-1.4,7.3-8.1,9-12.2c1.2-2.9,2.9-10.2,6.6-11c-2.4,4-10.7,19-4.9,22.7c10.9,7.1,13.2-21.4,20.1-22.7
	C180,88.2,176,96,176,101.6c0,10.6,10.3,2,12.8-2.6c-1.5,3.6-0.6,7.9,3.9,7.9c4.5,0,7.8-5.9,9.7-9.2c-1.3,3.7-0.9,11.1,5.2,8.9
	C209.8,105.8,219.6,93.6,217.2,92.5C216.9,92.3,217.6,92.7,217.2,92.5z"/>
<path fill="#5D4037" d="M177.5,50.6c-0.7-0.3-5.8,9.1-6.7,10c-2.5,2.8-5.7,4.6-9.2,5.7C165,57,167.5,48.1,173,40
	c-4.6,0-6,0.4-8.2,4.7c-2.5,5-5.3,10.1-8.8,14.6c-3.7,4.7-8.5,4.9-6-2c1.3-3.5,3.1-7,4.9-10.3c1.2-2.3,4.3-5,5-7
	c-5.3,0-6.5,0.5-9.1,5.5c-2.8,5.4-5.3,12.5-10,16.5c-5.9,5.1-3.2-6-2.2-8.3c2.2-5,5.5-9.1,8-13.7c-3.6,0-8-0.8-10.3,2.7
	c-3.7,5.6-4.9,12.6-9.1,17.9c-1.3,1.7-5.8,4.6-5.8,0.2c0-2.5,1.1-4.9,2.1-7.1c2.2-5,5.5-9.1,8-13.7c-2.6,0-5.9-0.5-8.2,0.7
	c-4.2,2.1-5.8,10.5-7.8,14.3c-1.4,2.6-7.2,12-10.9,6.9c-1.3-1.8,1.8-11.3,1.7-11.3c-0.4-0.1-7.5,11.6-9.3,12.4
	c-1.3,0.6-3.1,0.5-4.3-0.4c-1.7-1.4,0.8-2.6,1.8-3.8c2.4-3,4.3-6.6,4.9-10.4c1.6-10.5-8.3-9.3-13.7-3.7c-5.2,5.5-7.1,13.3-12.5,18.9
	c-1.6,1.7-5.7,5.6-8.3,3.3c-2.6-2.4-1.1-7.8-0.3-10.5c2.3-8.1,10-15,11.4-23.2c0.6-3.6-2.3-3.6-4.2-1.2c-2.2,2.8-3.7,6.2-5.9,9.1
	c-2.2,2.9-12.6,18.2-17.2,10.9c-3.8-6,1.9-15.6,4.2-21.1c2.5-6.3,5.3-15.3,1.4-21.6c-9.5-15.6-35.1,1-42.9,10.1
	c-5.2,6-8.9,14-7.9,22.1c1.1,9.2,9,15.7,18.3,12.8c7.7-2.4,14.3-9.5,15.2-17.7c0.4-3.2-0.4-7-3.9-8.1c-1.8-0.6-7.8,2.1-7.3,2.3
	c1.9,0.9,4.6-1.3,6.9,0c3.4,2,2.4,6.6,1.2,9.6C31,47.6,23.4,54.9,14.9,52.3C5.5,49.5,5,37.8,7.7,30.1c3.1-8.6,10-15.3,17.7-19.8
	c6.2-3.6,15.3-7,22.4-4C56.1,9.7,51,24,48.5,29.8C45.9,35.7,39.4,48.5,46,54c6.3,5.2,15-3.4,18.6-8c-2.9,5-10.7,19.9-1.8,23.3
	c7.3,2.8,13.4-6.9,16.3-11.9c-0.6,5.1,2.8,9.3,8.1,7.1c1.1-0.5,2.1-1.1,3.1-1.8c0.9,0.9,1.9,1.5,3.1,1.7c3.2,0.6,5.7-1.2,7.7-3.5
	c3,7.8,10.8,3,13.7-1.8c2.3-3.8,4.9-16.4,9.9-17.5c-2.4,4-10.7,19-4.9,22.7c10.9,7.1,13.2-21.4,20.1-22.7
	c-2.8,4.7-6.8,12.5-6.8,18.1c0,10.6,10.3,2,12.8-2.6c-1.8,4.5,0.7,9.5,6,7.5c5.2-1.9,8.1-8.5,10.6-12.9c-1.5,4.8-3,9.7-5.2,14.3
	c-2,4-10.4,4.1-14.6,5.5c-4.6,1.6-9.7,4-11.3,9c-1.2,3.8,0.9,6.7,4.7,7.2c9.9,1.1,16.8-7.4,21.5-14.9c1.7-2.8,1.9-3.9,4.9-5.1
	c2.5-1,4.9-2.2,6.9-3.9C171.1,62.6,179.3,51.5,177.5,50.6C177.2,50.4,177.8,50.7,177.5,50.6z M89.1,55.9c-1.6,2.8,1.7,5.1-0.8,6.6
	c-1.5,0.9-4.2,1.7-5-0.5c-1.5-4.4,2.1-11,4.5-14.4c1.2-1.7,7.3-8.8,9.3-4.1c1.8,4.4-1.8,10.9-4.2,14.4
	C93.8,55.6,90.4,53.6,89.1,55.9C88.8,56.5,89.5,55.2,89.1,55.9z M154.4,71.6c-1.9,3.2-17,21.1-21.1,13.4
	c-4.9-9.3,17.1-13.6,21.9-14.8C155,70.7,154.7,71.1,154.4,71.6C154.2,72,154.7,71.1,154.4,71.6z"/>
</svg>
