<?xml version="1.0" encoding="utf-8"?>
<!-- Generator: Adobe Illustrator 18.0.0, SVG Export Plug-In . SVG Version: 6.00 Build 0)  -->
<!DOCTYPE svg PUBLIC "-//W3C//DTD SVG 1.1//EN" "http://www.w3.org/Graphics/SVG/1.1/DTD/svg11.dtd">
<svg version="1.1" id="Layer_1" xmlns="http://www.w3.org/2000/svg" xmlns:xlink="http://www.w3.org/1999/xlink" x="0px" y="0px"
	 viewBox="0 0 390 118" enable-background="new 0 0 390 118" xml:space="preserve">
<g>
	<path fill="#D81B60" d="M248.9,75.3c-0.6-1.3-7-6.2-7.7-3c-0.1,0.5,4.9,1.1,5.3,3.3c0.6,3.2-1,6.7-2.5,9.4
		c-1.7,3-12.7,16.9-12.6,5.6c0-5.7,3.9-18.4,9.7-20.3c9-3.1,17.8-7.2,24.3-14.4c3-3.3,13.2-17.5,3.8-19.2c-8.6-1.5-15.6,7-20.5,12.7
		c-3.2,3.7-6,7.7-8.4,12c-2.1,3.6-3.4,9.9-8.3,8.7c-1.2-0.3-2-4.2-3.5-3.2c-3.5,2.4,4.3,5.3,6,5.1c-1.3,2.4-14,30.8-19,21.2
		c4.4-4.1,8.7-11.1,7.4-17.4c-1.8-8.6-11.7-2-14.8,1.8c-4,4.9-5.6,11.2-10.1,15.8c-1.8,1.8-5,2.6-6.1-0.5c-0.8-2.5,1.2-5.5,2.4-7.5
		c2-3,8.1-10.7,1.8-12.8c-6.2-2.1-15.3,13.7-13.7,14.5c0.5,0.2,6.9-10.5,8-11.6c1-1,3.2-2.4,4.5-0.8c1.5,1.8-1.3,5.4-2.3,6.9
		c-2.2,3.4-7.1,9.6-3.2,13.6c5.1,5.1,10.9-1.7,13.4-5.9c-0.3,3.5,0.9,7.3,5,7.5c1.7,0.1,3.3-0.5,4.7-1.4c2.6-1.5,2,0.2,4.6,0.7
		c7.8,1.5,11.3-9.7,14.1-14.9c-3.6,7.4-5.5,18.5,6.8,15.1C245.2,94.4,252.5,82.7,248.9,75.3C248.5,74.4,249.4,76.2,248.9,75.3z
		 M243.4,63.3c4.1-6.6,8.6-13.3,14.1-18.7c2-1.9,13.8-10.3,12.9-2c-1.4,13.5-19.2,23.1-30.5,26.4C241.1,67.1,242.2,65.2,243.4,63.3
		C244.7,61.2,242.1,65.4,243.4,63.3z M212.5,87.7c-1.6,2.8,1.7,5.1-0.8,6.6c-1.5,0.9-4.2,1.7-5-0.5c-1.5-4.4,2.1-11,4.5-14.4
		c1.2-1.7,7.3-8.8,9.3-4.1c1.8,4.4-1.8,10.9-4.2,14.4C217.2,87.4,213.8,85.4,212.5,87.7C212.2,88.3,212.9,87,212.5,87.7z"/>
	<path fill="#D81B60" d="M339.3,69.4c1.4,0.3,1.6,0,2.6-0.9c2.5-2.1,6.2-0.9,9,0c5.5,1.7,10.5,1.5,14-3.7c0.1-0.1-1.7-0.5-1.7-0.1
		c-1.9,2.4-4.7,2.4-7.5,1.7c-3.2-0.8-6.5-2.2-9.9-1.7C344.2,65,338.5,69.3,339.3,69.4C339.5,69.5,339.1,69.4,339.3,69.4z"/>
	<path fill="#D81B60" d="M387.3,82.2c-0.1-0.1-4,5.4-4.8,6c-5.1,3.3-4.6-1-5.8-3.7c-2.2-5-7.5-0.5-3.3,3.3c4.1,3.7-8.7,12.4-6.6,3.4
		c1.2-5,5.8-15.7,10.5-18.3c-2,0.4-4-1.1-5.8,0.6c-1.4,1.4-2.3,3.5-3.3,5.2c-2.4,4.5-4.3,9.5-7.6,13.5c-4.9,5.9-6.5,1.3-4.4-4.1
		c2.1-5.2,4.7-10.1,7.4-15c-6.3-2.1-16.1,9.2-19.3,13.2c0.8-1.6,9.4-16.3,2-13c-5.5,2.5-10.6,8.3-14.3,13c1.9-3.9,4.6-11.3,8.7-13.5
		c-2,0.4-4-1.1-5.8,0.6c-1.5,1.5-2.4,3.5-3.3,5.3c-2.6,5-4.9,10.7-8.9,14.8c-5.2,5.4-4.5-3.3-3.3-6.1c1.8-4.2,5-12.3,9.2-14.7
		c-2.3,0.4-4.2-1.2-5.8,1.2c-2.8-10.2-21.9,10-9.3,12.2c-1.5,2.7-8.2,13.3-12.1,7.6c-1.6-2.3,3.4-11.4,2.8-11.6
		c-0.9-0.4-2.5,3.7-2.6,3.9c-1.5,2.8-1.9,0.8-3.3,3c-2.2,3.5,1.5,1.2-2.1,4.7c-0.8,0.8-3,2.5-4,0.8c-2.7-4.3,6.6-17.9,8.6-21.5
		c-6.3-1.9-16.1,9.1-19.4,13.2c1.2-3.3,2.4-6.7,2.9-10.2c0.7-5.3-2.2-4.3-6-3.6c4.8,1.1-5.9,22.4-11,22.4c-6.6,0,0.7-6.3,2-9
		c2-3.9,4.5-14.4-2.9-14.4c-8.2-0.3-22.7,20.9-12,24.8c2.2,0.8,4.6,0.1,6.6-1c2.6-1.5,3.2,0.8,6.1,0.8c6.2,0,8.4-7.9,10.9-12
		c-1.2,5.3-3.9,10.5-6.3,15.3c-2.5,5-5,12.3-9,16.4c3.9-0.7,5.9,1.4,7.9-3.5c0.8-1.9,1.6-3.9,2.3-5.8c2.2-5.4,4.1-11.2,7-16.3
		c2.3-3.9,5.2-7.1,8.6-10c3.5-2.9,5.5-2.2,2.9,2.3c-2,3.3-4.7,7.6-3.4,11.6c1.7,5.4,7.9,1.9,10.3-0.9c1.6,3.5,6,4.9,9.4,2.8
		c2.8-1.7,6.1-9.6,8.4-9.9c-3.6,7.4,1.6,15,8.3,7.2c-0.6,1.2-1.2,2.4-1.8,3.7c1.2-0.8,2.9-0.2,4.2-0.6c1.8-0.5,3.5-5.6,4.4-7.1
		c2.5-3.9,6.1-9.1,10.4-11.1c2.8-1.3-1.6,7.5-2,8.3c-1,2.3-2.5,5.1-2.2,7.7c0.4,2.6,2,3.1,2.9,0.7c2-5,5.7-9.9,9.6-13.5
		c3-2.8,7.9-5,4.2,1.1c-2,3.3-4.7,7.6-3.4,11.6c2,6.3,9.3,0.7,11.4-2.3c-0.2,8.8,10.5,4.1,13.1-0.5c1.7-3.1,3.4-0.3,6.7-1.7
		C383.2,89.3,389.3,83.2,387.3,82.2C386.9,82,387.7,82.4,387.3,82.2z M261.5,87.7c-1.6,2.8,1.7,5.1-0.8,6.6c-1.5,0.9-4.2,1.7-5-0.5
		c-1.5-4.4,2.1-11,4.5-14.4c1.2-1.7,7.3-8.8,9.3-4.1c1.8,4.4-1.8,10.9-4.2,14.4C266.2,87.4,262.8,85.4,261.5,87.7
		C261.1,88.3,261.8,87,261.5,87.7z M312.6,83.7c-1.5-3.5,5.9-14.4,8.6-9.8C323,77.2,315.4,90.4,312.6,83.7
		C312.3,83.2,312.8,84.3,312.6,83.7z"/>
</g>
<g>
	<path fill="#5D4037" d="M146.1,42.1c-0.7-0.3-6.5,10.2-7.7,11.3c-1.3,1.2-3,1.8-4.7,1.2c-3.4-1.1-0.6-2.8,0.6-4.4
		c2.8-3.6,5.1-8,5-12.7c-0.1-6.6-6.2-7.3-10.8-4.1c-7.4,5.1-8.1,17.2-15.8,21.3c-4.9,2.6-1.5-6.7-0.8-8.2c2-4.6,4.4-9.1,6.9-13.6
		c-6.3-1.9-16.1,9.1-19.4,13.2c1.2-3.3,2.4-6.7,2.9-10.2c0.7-5.3-2.2-4.3-6-3.6c5.4,1.2-5.8,17.9-6.9,19.4c-1.6,2-6.7,7.6-9.6,4.8
		c-3-2.8-0.8-9.4,0-12.6c2.1-8,4.7-16.1,8.4-23.5c0.8-1.6,1.6-3.2,2.5-4.7c2,0.3,4.1,0.7,6.1,0.7c1.7,0,3.6-0.4,4.9-1.5
		c0.4-0.4,2-3.8,0.3-3.8c-0.6,0-1.2,2.4-2.1,2.8c-2.5,0.9-5.5,0.4-8,0c0.5-0.7,5.4-5.4,5.4-5.9c0-1.4-6.8,2.5-7.3,3.1
		c-3,3.5-8.2,0.6-12.4-0.8C78.6,9.2,85.8,5,80.8,5c-4.3,0-3.2,5.5-8,3.9C68.9,7.5,65,6.2,60.9,5.2c-8.5-2.2-18-3.1-26,1.6
		C27.8,11,23.3,21,28.6,28.5c4.3,6.1,13.5,6.1,18.5,1c0.6-0.6,4.6-8,2.2-7.3c-0.7,0.2-3,5.4-4,6.3c-5.5,5-16.1,3-15.4-5.7
		C31.6,1.8,61.5,7,74.4,11.1c-6.5,8.2-9.4,20.3-14.6,29.4c-6,10.5-14.5,18.5-26.9,20c-10.1,1.2-22.2-2.7-25.5-13.4
		c-1.6-5.2-1-12,3.3-15.8c0.8-0.7,4.5-2.6,3.6-3.8c-1-1.4-4.2,1.1-4.8,1.7c-8.4,7.3-6.2,22.3,2.2,28.5c10,7.3,25.1,7.1,36,2.2
		C59.4,54.6,63.9,42.5,68,31.1c2.1-5.9,4.1-11.8,7.2-17.2c1.7-3,2-1.7,4.8-0.7c2.3,0.8,4.7,1.4,7,1.9C81.2,25,73.8,40.5,74,52.2
		c0.1,7,5.8,9.1,11.4,5.5c5-3.2,7.6-8.8,10.6-13.7c-1.2,5.3-3.9,10.5-6.3,15.3c-2.5,5-5,12.3-9,16.4c3.9-0.7,5.9,1.4,7.9-3.5
		c0.9-2.3,1.9-4.7,2.8-7c2.3-5.8,4.4-12,7.9-17.2c2.2-3.3,5.2-6.4,8.4-8.8c5.7-4.1,1.3,3.7,0.2,5.9c-1.6,2.8-3.7,8.3-0.5,10.8
		c4.7,3.7,9.7-3.4,11.7-6.8c-0.2,2.6,0.3,6,3.1,7c1.6,0.6,3.5,0.4,5-0.3c3-1.3,1.9-1.9,4.9-0.5C140,59.1,146.8,42.4,146.1,42.1
		C145.7,42,146.5,42.3,146.1,42.1z M129,47.5c-1.6,2.8,1.7,5.1-0.8,6.6c-1.5,0.9-4.2,1.7-5-0.5c-1.5-4.4,2.1-11,4.5-14.4
		c1.2-1.7,7.3-8.8,9.3-4.1c1.8,4.4-1.8,10.9-4.2,14.4C133.7,47.2,130.3,45.2,129,47.5C128.7,48.1,129.4,46.8,129,47.5z"/>
	<path fill="#5D4037" d="M233.7,42.1c0.3,0.1-8.7,12.4-11.4,13.2c-5.8,1.6-7.3-3.9-6.1-8.5c1-3.7,2.8-7.1,5.2-10
		c4.7-5.6,10.7-3.7,5.3,3.2c2.3,2.3,9-8.8-0.1-8.8c-6.7,0-10.3,6.4-13.1,11.5c-0.7,1.3-9.5,15.7-10.3,11c-0.8-4.9,3.5-13.3,6.9-16.7
		c-2,0.4-4.1-1.2-5.7,0.8c-2.1,2.6-3.4,5.9-5.2,8.7c-0.7,1.2-9.5,12.7-10.1,6c-0.5-5.9,5.3-13.1,9.3-16.7c1.8-1.7,4.4-3.8,7.1-3.1
		c1.2,0.4,2,1.2,2.3,2.4c3.4,0.5-0.6-3.3-0.9-3.4c-5.9-3.3-12.9,1.7-16.3,6.3c-3.6,4.9-4.5,10.9-8.9,15.4c-5.2,5.4-4.5-3.3-3.3-6.1
		c1.8-4.2,5-12.3,9.2-14.7c-2,0.4-4-1.1-5.8,0.6c-1.8,1.8-2.9,4.5-4,6.7c-3.2,6.1-4.8,0.1-9.7,2.4c1.6-2.9,3.7-8.1,6.8-9.8
		c-2,0.4-4-1.1-5.8,0.6c-1.5,1.5-2.4,3.7-3.4,5.6c-3.2,6-5.9,12.2-8.9,18.2c1.6-1,4.1,0.5,5.2-1.5c0.9-2.1,1.9-4.3,2.8-6.4
		c0.6-1.6,1.5-5.3,3.8-5.1c2.2,0.1,4.3,2.4,6.6,1.2c-1.5,3.2-3,6.3-0.9,9.6c3.9,5.4,9.4-1.6,11.5-4.9c-0.1,3.1,1.1,7.3,5.1,6.5
		c4.1-0.8,7.1-5.9,9-9.1c-0.7,2.6-1.7,7.6,1.7,9c4.8,1.9,8.5-5.2,10.4-8.5c-1.1,7,4.5,10.3,10.8,8.5
		C225.3,55.7,236.6,43.4,233.7,42.1C233.4,42,234,42.3,233.7,42.1z"/>
</g>
</svg>
