<?xml version="1.0" encoding="utf-8"?>
<!-- Generator: Adobe Illustrator 18.0.0, SVG Export Plug-In . SVG Version: 6.00 Build 0)  -->
<!DOCTYPE svg PUBLIC "-//W3C//DTD SVG 1.1//EN" "http://www.w3.org/Graphics/SVG/1.1/DTD/svg11.dtd">
<svg version="1.1" id="Layer_1" xmlns="http://www.w3.org/2000/svg" xmlns:xlink="http://www.w3.org/1999/xlink" x="0px" y="0px"
	 viewBox="0 0 24 20" enable-background="new 0 0 24 20" xml:space="preserve">
<g>
	<g>
		<path fill="#8D6E63" d="M23.2,1.4C23.2,1.4,23.2,1.4,23.2,1.4C23.2,1.4,23.2,1.3,23.2,1.4C23.2,1.3,23.2,1.3,23.2,1.4
			C23.2,1.3,23.2,1.3,23.2,1.4C23.2,1.3,23.2,1.3,23.2,1.4C23.2,1.3,23.2,1.3,23.2,1.4C23.2,1.3,23.2,1.3,23.2,1.4
			C23.1,1.3,23.1,1.3,23.2,1.4C23.1,1.3,23.1,1.3,23.2,1.4c0-0.1,0-0.1,0-0.1c0,0,0,0,0,0c0,0,0,0,0,0c0,0,0,0,0,0c0,0,0,0,0,0l0,0
			c0,0,0,0,0,0c0,0,0,0,0,0c0,0,0,0,0,0c0,0,0,0,0,0c0,0,0,0,0,0c0,0,0,0,0,0l0,0c0,0,0,0,0,0c0,0,0,0,0,0c0,0,0,0,0,0c0,0,0,0,0,0
			c0,0,0,0,0,0c0,0,0,0,0,0c0,0,0,0,0,0c0,0,0,0,0,0c0,0,0,0,0,0c0,0,0,0,0,0c0,0,0,0,0,0c0,0,0,0,0,0c0,0,0,0,0,0c0,0,0,0,0,0
			c0,0,0,0,0,0c0,0,0,0,0,0c0,0,0,0,0,0c0,0,0,0,0,0c0,0,0,0,0,0c0,0,0,0,0,0c0,0,0,0,0,0c0,0,0,0,0,0c0,0,0,0,0,0c0,0,0,0,0,0
			c0,0,0,0,0,0c0,0,0,0,0,0c0,0,0,0,0,0c0,0,0,0,0,0c0,0,0,0,0,0c0,0,0,0,0,0h0c0,0,0,0,0,0c0,0,0,0,0,0c0,0,0,0,0,0c0,0,0,0,0,0
			c0,0,0,0,0,0c0,0,0,0,0,0c0,0,0,0,0,0c0,0,0,0,0,0c0,0,0,0,0,0c0,0,0,0,0,0c0,0,0,0,0,0L1.2,9.3C1.1,9.4,1,9.5,1,9.7
			C1,9.8,1.1,9.9,1.2,10l6.4,2.5l2.1,6.3c0,0,0,0,0,0c0,0,0,0,0,0c0,0,0,0,0,0c0,0,0,0,0,0c0,0,0,0,0,0c0,0,0,0,0,0c0,0,0,0,0,0
			c0,0,0,0,0,0c0,0,0,0,0,0c0,0,0,0,0,0c0,0,0,0,0,0c0,0,0,0,0,0c0,0,0,0,0,0c0,0,0,0,0,0c0,0,0,0,0,0c0,0,0,0,0,0l0,0c0,0,0,0,0,0
			c0,0,0,0,0,0c0,0,0,0,0,0c0,0,0,0,0,0c0,0,0,0,0,0c0,0,0,0,0,0c0,0,0,0,0,0c0,0,0,0,0,0c0,0,0,0,0,0c0,0,0,0,0,0c0,0,0,0,0,0
			c0,0,0,0,0,0h0l0,0h0c0,0,0,0,0,0c0,0,0,0,0,0c0,0,0,0,0,0c0,0,0,0,0,0c0,0,0,0,0,0c0,0,0,0,0,0c0,0,0,0,0,0c0,0,0,0,0,0
			c0,0,0,0,0,0c0,0,0,0,0,0c0,0,0,0,0,0c0,0,0,0,0,0c0,0,0,0,0,0c0,0,0,0,0,0c0,0,0,0,0,0l0,0c0,0,0,0,0,0c0,0,0,0,0,0c0,0,0,0,0,0
			c0,0,0,0,0,0c0,0,0,0,0,0c0,0,0,0,0,0c0,0,0,0,0,0c0,0,0,0,0,0c0,0,0,0,0,0l2.5-3.4c0.1-0.2,0.1-0.4-0.1-0.5
			c-0.2-0.1-0.4-0.1-0.5,0.1l-1.1,1.5l0.9-2.4l8.3,3.1c0,0,0.1,0,0.1,0c0.1,0,0.1,0,0.2,0c0.1-0.1,0.2-0.1,0.2-0.2L23.2,1.4
			C23.2,1.4,23.2,1.4,23.2,1.4C23.2,1.4,23.2,1.4,23.2,1.4C23.2,1.4,23.2,1.4,23.2,1.4z M20.5,2.6l-9.9,7.2
			c-0.2,0.1-0.2,0.3-0.1,0.5c0.1,0.1,0.2,0.1,0.3,0.1c0.1,0,0.1,0,0.2-0.1l9.4-6.9l-8.8,9.9c0,0-0.1,0.1-0.1,0.1c0,0,0,0,0,0l-1.5,4
			l-1.8-5.5c0-0.1-0.1-0.2-0.2-0.2c0,0,0,0,0,0L2.3,9.7L20.5,2.6z M20.1,16.5l-7.7-2.9l9.9-11.1L20.1,16.5z"/>
		<path fill="#8D6E63" d="M9,11.7c0.1,0,0.1,0,0.2-0.1l0.7-0.5c0.2-0.1,0.2-0.3,0.1-0.5c-0.1-0.2-0.3-0.2-0.5-0.1l-0.7,0.5
			c-0.2,0.1-0.2,0.3-0.1,0.5C8.8,11.7,8.9,11.7,9,11.7z"/>
	</g>
</g>
</svg>
