<?xml version="1.0" encoding="utf-8"?>
<!-- Generator: Adobe Illustrator 18.0.0, SVG Export Plug-In . SVG Version: 6.00 Build 0)  -->
<!DOCTYPE svg PUBLIC "-//W3C//DTD SVG 1.1//EN" "http://www.w3.org/Graphics/SVG/1.1/DTD/svg11.dtd">
<svg version="1.1" id="Layer_1" xmlns="http://www.w3.org/2000/svg" xmlns:xlink="http://www.w3.org/1999/xlink" x="0px" y="0px"
	 viewBox="0 0 40 40" enable-background="new 0 0 40 40" xml:space="preserve">
<g>
	<path fill-rule="evenodd" clip-rule="evenodd" d="M19.8,25h1c0,0,0.3,0,0.5-0.2c0.1-0.2,0.1-0.5,0.1-0.5
		s0-1.4,0.6-1.6c0.6-0.2,1.5,1.4,2.3,2c0.7,0.5,1.2,0.4,1.2,0.4l2.3,0c0,0,1.2-0.1,0.6-1c0-0.1-0.3-0.7-1.7-2
		c-1.5-1.4-1.3-1.1,0.5-3.5c1.1-1.4,1.5-2.3,1.4-2.7c-0.1-0.4-0.9-0.3-0.9-0.3l-2.6,0c0,0-0.2,0-0.3,0.1c-0.1,0.1-0.2,0.3-0.2,0.3
		s-0.4,1.1-1,2.1c-1.2,2-1.6,2.1-1.8,2c-0.4-0.3-0.3-1.2-0.3-1.8c0-1.9,0.3-2.7-0.6-2.9c-0.3-0.1-0.5-0.1-1.2-0.1
		c-0.9,0-1.7,0-2.2,0.2c-0.3,0.1-0.5,0.5-0.4,0.5c0.2,0,0.6,0.1,0.8,0.4c0.3,0.4,0.3,1.2,0.3,1.2s0.2,2.3-0.4,2.6
		c-0.4,0.2-0.8-0.2-1.9-2c-0.5-0.9-0.9-2-0.9-2s-0.1-0.2-0.2-0.3c-0.2-0.1-0.4-0.2-0.4-0.2l-2.5,0c0,0-0.4,0-0.5,0.2
		c-0.1,0.1,0,0.4,0,0.4s2,4.6,4.2,6.9C17.5,25.1,19.8,25,19.8,25L19.8,25z"/>
</g>
</svg>
