<!-- Generator: Adobe Illustrator 18.0.0, SVG Export Plug-In  -->
<svg version="1.1"
   xmlns="http://www.w3.org/2000/svg" xmlns:xlink="http://www.w3.org/1999/xlink" xmlns:a="http://ns.adobe.com/AdobeSVGViewerExtensions/3.0/"
   x="0px" y="0px" width="64.5px" height="64px" viewBox="0 0 64.5 64" enable-background="new 0 0 64.5 64" xml:space="preserve">
<defs>
</defs>
<g>
  <path fill="#8D6E63" d="M20.6,38c-0.8,0.3-1.4,0.5-2,0.7c-1.9,0.5-2.8-0.3-2.5-2.2c0-0.2,0.1-0.5,0.2-0.9c-0.8,0.2-1.4,0.4-2,0.6
    c-0.2,0.1-0.4,0.1-0.6,0.1c-2.6,0.4-3.4-0.5-2.7-3c0-0.1,0-0.3,0.1-0.6c-0.7,0.2-1.4,0.4-2,0.6c-0.7,0.2-1.4,0.2-2-0.4
    c-0.6-0.7-0.2-1.4,0.1-2c0.2-0.4,0.5-0.8,0.8-1.3c-0.8-0.1-1.4-0.1-2-0.2c-0.6-0.1-1.2-0.1-1.8-0.4c-1.1-0.4-1.3-1.2-0.7-2.2
    c0.3-0.5,0.8-0.8,1.2-1.2c0.4-0.3,0.8-0.7,1.2-1.1c-0.8-0.4-1.5-0.8-2.1-1.2c-1.6-1.1-1.4-2.1,0.3-2.9c0.2-0.1,0.5-0.2,0.9-0.4
    c-0.5-0.5-1-0.9-1.4-1.3c-0.3-0.3-0.6-0.6-0.8-0.9c-1.2-1.8-0.7-3,1.4-3.3c0.1,0,0.3-0.1,0.6-0.1c-0.2-0.4-0.4-0.7-0.6-1
    c-1-1.5-1.3-3.1-1-4.8c0.2-1.2,0.7-1.4,1.8-0.9c1.3,0.5,2.4,1.3,3.4,2.3c0.9,0.9,2,1.8,3.1,2.7c0.5-0.8,0.7-1.4,0.1-2.1
    C11.2,10,10.9,9.1,11,8.4c0.1-0.9-0.2-1.5-0.6-2.3c-0.5-1-1-2-1.5-3c-0.2-0.5-0.2-1-0.2-1.5c0-1.3,0.9-2,2-1.4
    c1.4,0.6,2.8,1.3,4,2.2c3.6,2.8,7,5.9,10.5,8.7c1.3,1,2,2.3,2.3,3.9c0.3,1.9,0.8,3.8,1.8,5.6c0.4-0.4,0.7-0.7,0.9-1.1
    c2-2.6,4.1-5,7-6.8c2.9-1.8,6.1-2,9.3-1.7c2.6,0.3,5.1,1,7.3,2.6c1.1,0.8,2.3,1.4,3.5,1.8c1.8,0.7,2.2,2,0.4,3.4
    c-0.2,0.2-0.5,0.3-0.7,0.5c0.3,2.2,0.7,4.4,0.9,6.5c0.7,5.6,1.3,11.3,1.9,16.9c0.2,1.8,0.1,3.7,0.1,5.5c0,0.8,0.2,1.3,1,1.7
    c1.9,1,3.2,2.6,3.5,4.8c0.4,3.1-1.2,6.6-3.9,8.3c-1.2,0.7-2.5,0.5-3.7,0.4c-0.5,0-1-0.2-1.5-0.3c-2.5-0.6-3.9-2.1-4.2-4.7
    c-0.6-5.3,2.3-8.4,6.6-9.3c0.8-0.2,1.1-0.5,1.1-1.2c0-2.2,0.1-4.4-0.1-6.6c-0.5-6-1.2-11.9-1.8-17.8c-0.1-1.1-0.3-2.2-0.5-3.5
    c-0.9,2-3.8,13.8-3.8,15.4c0.1,0.1,0.3,0.2,0.5,0.2c2.5,0.6,4,2.5,4.2,5c0.1,2.2-0.2,4.2-2,5.7c-1.9,1.6-5.2,1.8-7.1,0.2
    c-0.9-0.7-1.2-1.7-1.4-2.8c-0.4-1.9,0.1-3.8,1-5.5c0.8-1.4,2-2.1,3.3-2.6c1.4-5.1,2.8-10.2,4.3-15.3c-0.3,0.1-0.5,0.1-0.8,0.3
    c-3.7,2-6.4,4.8-6.9,9.3c-0.3,2.8-0.5,5.6-1.3,8.3c-1.5,5.4-3.9,10.3-8.6,13.8c-2.5,1.8-5.2,2.8-8.2,3.3c-2.3,0.3-4.7,0.7-7-0.1
    c-0.4-0.1-1,0.1-1.4,0.4c-1.1,0.9-2.1,1.9-3.2,2.8c-0.6,0.5-1.2,1-1.9,1.3c-1.5,0.8-2.1,0.5-3-1c-0.9,0.5-1.7,1.1-2.6,1.6
    c-1.4,0.7-1.9,0.5-2.6-1c-1.4,1.1-2.8,2.3-4.2,3.4c-0.7,0.5-1.5,1-2.3,1.2c-1.1,0.3-1.8-0.5-1.4-1.6c0.1-0.5,0.4-0.9,0.7-1.4
    c1.6-2.7,3.4-5.1,5.5-7.4c3.3-3.5,6.5-7.1,9.8-10.6c1.3-1.4,2.5-2.7,3.8-4C20,38.7,20.2,38.5,20.6,38L20.6,38z M43.2,41.5
    L43.2,41.5c0.2-0.3,0.6-0.7,0.8-1.1c0.4-1.1,0.7-2.2,0.9-3.4c0.5-2.6,0.8-5.1,1.2-7.7c0.5-2.7,1.3-5.2,3.7-6.9c-3-3-2-6.2-0.3-9.4
    c-0.5-0.1-0.8-0.3-1.1-0.3c-1.1-0.1-2.1-0.2-3.2-0.3c-3.5-0.4-6.5,0.7-9.2,3c-3,2.6-4.9,6.1-7.3,9.1c0.7,1,1.9,1.3,2.5,2.7
    c-0.7-0.3-1.2-0.4-1.6-0.6c-2-1.4-4-2.7-5.9-4.1c-2.3-1.8-4.7-3.5-7.4-4.6c-1-0.4-2-0.9-2.8-1.6c-2.4-1.9-4.6-3.9-7-5.8
    C6.1,9.9,5.6,9.5,5,9.1C4.8,8.9,4.5,8.8,4.1,8.6c-0.1,1.7,0.3,3,1.3,4.1c0.9,1,1.9,1.8,2.9,2.7c0.6,0.6,1.3,1.1,1.8,1.7
    c0.2,0.2,0.4,0.8,0.2,1c-0.3,0.4-0.8,0.3-1.2,0c-0.3-0.2-0.5-0.5-0.8-0.7c-0.7-0.5-1.4-1-2.2-1.4c-0.5-0.3-1.2-0.4-1.8-0.4
    c-0.9,0-1.1,0.5-0.6,1.2c0.1,0.2,0.3,0.4,0.5,0.5c1.2,0.7,2.3,1.4,3.5,2.1c0.4,0.2,0.9,0.3,1.2,0.6c0.3,0.3,0.6,0.8,0.5,1.1
    c-0.1,0.5-0.6,0.6-1.1,0.5c-0.3-0.1-0.6-0.2-0.9-0.3c-1.1-0.1-2.3-0.4-3.5,0.5c0.6,0.3,1.1,0.7,1.6,0.9c0.8,0.2,1.6,0.4,2.4,0.5
    c0.6,0.1,1.1,0.3,1.2,1.1c-0.3,0.2-0.7,0.4-1,0.6c-0.9,0.6-1.9,1.2-2.8,1.9c-0.2,0.2-0.3,0.5-0.6,1c1.6,0,2.9,0.2,4.2-0.1
    c0.4-0.1,0.9-0.2,1.4-0.1c0.6,0.1,0.9,0.7,0.5,1.1c-0.2,0.3-0.6,0.6-0.9,0.8c-0.6,0.6-1.2,1.3-1.6,2.5c1-0.4,1.6-0.6,2.3-0.9
    c0.8-0.3,1.5-0.7,2.3-0.9c0.3-0.1,0.8,0,1.1,0.3c0.1,0.1,0,0.6-0.1,0.9c-0.1,0.3-0.4,0.6-0.6,0.9c-0.4,0.7-0.9,1.4-0.9,2.5
    c0.6-0.1,1.1-0.1,1.6-0.2c1.1-0.4,2.2-0.9,3.2-1.4c0.5-0.2,0.9-0.6,1.4-0.2c0.5,0.5,0.1,0.9-0.1,1.4c-0.2,0.4-0.5,0.8-0.6,1.2
    c-0.1,0.5-0.6,1-0.1,1.6c1.2-0.2,2-0.9,2.9-1.6c0.5-0.3,0.8-1.1,1.5-0.8c0.8,0.3,0.4,1.1,0.4,1.6c0.1,1.1,0.5,1.5,1.7,1.4
    c0.8-0.1,1.6-0.3,2.4-0.4c0.5-0.1,0.9,0,1.6,0c-2.2,1.9-4.6,2.2-6.8,1c-0.7,0.9-1.4,1.8-2.2,2.7c-3.3,3.6-6.6,7.3-9.9,10.9
    c-2.3,2.6-4.8,5.1-6.6,8.1c-0.2,0.4-0.5,0.8-0.8,1.5c5.3-3.3,9-7.9,13.6-11.5c-0.3,1.6-1.3,2.8-2.4,3.9c-0.9,0.9-1.9,1.7-2.8,2.6
    c-0.6,0.5-1,1.1-0.7,2.1c0.5-0.3,0.9-0.5,1.3-0.9c1.5-1.4,3-2.7,4.6-4.1c1-0.9,2.1-1.8,3.1-2.7c0.2-0.2,0.6-0.2,0.9-0.3
    c-0.2,0.9-0.6,1.6-1.1,2.1c-1,1.2-2.1,2.3-3.3,3.4c-0.7,0.6-0.9,1.3-0.5,2.3c0.6-0.4,1.1-0.7,1.6-1c1-0.8,1.9-1.7,2.8-2.6
    c0.9-0.9,1.9-1.8,3.1-1.9c0.7,0.2,1.3,0.4,1.8,0.5c0.4-1.7,0.8-3.3,1.2-4.9c0.1,0,0.2,0,0.3,0.1c-0.3,1.5-0.6,3.1-0.9,4.7
    c0.6,0,1.1,0,1.5,0c0.2-2.1,0.6-4.1,1.6-6c-0.3,1.9-0.7,3.9-1,6c1-0.1,1.7-0.2,2.3-0.3c0.4-1.9,0.7-3.6,1.1-5.4
    c0.1,0,0.2,0,0.3,0.1c-0.3,1.7-0.5,3.4-0.8,5.3c0.7-0.2,1.2-0.3,1.5-0.4c0.4-1.9,0.8-3.7,1.2-5.5c0.2,1.8-0.6,3.4-0.3,5.3
    c0.6-0.2,1.1-0.4,1.6-0.6c0.3-2.1,0.6-4,0.8-5.9c0.1,0,0.2,0,0.3,0c-0.2,1.8-0.4,3.6-0.6,5.5c1.2-0.4,1.8-0.8,1.9-2
    c0.1-1.8,0.6-3.5,0.9-5.2c0.3,1.9-0.6,3.8-0.3,5.8c1.3-0.8,2.2-1.6,2.1-3.2c-0.1-1.5,0.2-3.1,0.4-4.6c0-0.3,0.2-0.7,0.3-1
    c0.1,0,0.2,0,0.2,0c-0.1,2-0.2,4-0.3,6c0.1,0,0.2,0.1,0.3,0.1C41.2,46,42.5,43.9,43.2,41.5L43.2,41.5z M18.8,12.2
    c0.1,0.1,0.2,0.1,0.3,0.2c-0.8,1.2-1.6,2.4-2.5,3.7c0.9,0.4,1.7,0.8,2.6,1.1c0.5-0.6,0.9-1.2,1.4-1.7c0.4-0.5,0.8-1.2,1.3-1.6
    c0.1,0.1,0.2,0.1,0.2,0.2c-0.8,1.1-1.5,2.3-2.3,3.4c0.5,0.3,0.9,0.5,1.2,0.8c0.7-0.8,1.4-1.5,2.1-2.3c0.1,0.1,0.2,0.1,0.2,0.2
    c-0.5,0.8-1.1,1.6-1.7,2.5c0.5,0.3,0.8,0.6,1.2,0.9c0.4-0.3,0.7-0.6,1-0.9c0.1,0,0.1,0.1,0.2,0.1c-0.2,0.4-0.3,0.8-0.5,1.2
    c1.3,1.1,2.5,2.2,3.8,3.3c0.4-0.6,0.8-1.1,1.2-1.6c-1.5-2-2.4-4.1-2.7-6.4c-0.2-1.1-0.5-2.1-1.4-2.8c-1-0.8-2-1.6-3-2.4
    c-2.6-2.2-5.2-4.3-7.7-6.6c-1-0.9-2.1-1.6-3.5-2.1c-0.1,1.5,0.3,2.6,1.1,3.6c0.8,1,1.2,2,1,3.2c-0.1,0.4,0.1,1.1,0.4,1.4
    c0.9,0.8,1.2,1.7,0.9,2.9c0.6-0.9,1.3-1.9,1.9-2.8c0.1,0.1,0.2,0.1,0.3,0.2c-0.5,0.8-1,1.6-1.5,2.5c-0.6,1.1-0.6,1.1,0.4,2.1
    c0.3-0.3,0.6-0.7,0.9-1c0,0,0.1,0.1,0.1,0.1c-0.2,0.5-0.4,1-0.7,1.5c0.4,0.2,0.8,0.4,1.1,0.6C17,14.6,17.9,13.4,18.8,12.2z
     M60.2,50.9c-0.2,1-0.3,1.7,0.3,2.4c1.8,2,1.2,5.4-1.8,6.7c-2,0.8-4.7-0.6-4.8-2.6c-0.2-2.3,1-4.1,3.2-4.7c0.4-0.1,0.8-0.2,1.2-0.4
    c0-0.4,0.1-0.8,0.1-1.1c0-0.3,0-0.7,0-1c-0.2-0.1-0.3-0.1-0.4-0.1c-5.6,1.2-7.1,6.1-4.8,10.4c0.2,0.4,0.7,0.9,1.1,1
    c1.5,0.3,3,0.6,4.5,0.7c0.5,0,1.1-0.3,1.5-0.6c1.9-1.3,2.6-3.2,2.8-5.4C63.4,53.9,62.5,52.2,60.2,50.9z M50.4,13
    c-2.2,3.3-2,6.3,0.2,8.3c2.1-1.2,4.2-2.4,6.3-3.6c-0.5-0.1-0.8,0.1-1.2,0.2c-1.2,0.3-2.5,0.6-3.7,0.8c-0.9,0.1-1.1-0.1-1.7-0.9
    c2.5,0.5,4.7,0.1,6.9-1.3C54.8,15.2,52.6,14.1,50.4,13z M52.1,38c0.2,0.1,0.4,0.1,0.6,0.1c1.6,0.2,2.4,1.2,2.3,2.7
    c-0.1,0.8-0.3,1.6-0.7,2.3c-0.7,1.5-2.5,2-3.9,1.1c-1.4-0.8-1.8-2.5-0.9-3.9c0.3-0.4,0.6-0.9,0.9-1.2c0.6-0.6,0.8-1.4,0.5-2.3
    c-0.2,0.1-0.5,0.1-0.6,0.2c-3.1,1.9-3.2,5.5-1.5,8.3c0.1,0.1,0.2,0.2,0.3,0.3c1.4,1.1,3.8,0.9,5.2-0.2c1.8-1.5,2.1-4,1.4-5.9
    c-0.5-1.5-1.5-2.8-3.4-3C52.3,37,52.2,37.5,52.1,38z M60.4,56.1c0-1.4-1.2-2.7-2.6-2.7c-1.5,0-2.9,1.7-2.9,3.6
    c0,1.2,1.1,2.2,2.6,2.3C58.9,59.2,60.3,57.7,60.4,56.1z M53.9,40.8c0-1.6-1.2-2.3-2.2-1.5c-0.6,0.5-1.2,1.3-1.5,2.1
    c-0.3,0.8,0.4,1.9,1.3,2.2c0.8,0.3,1.5-0.1,1.9-1.1C53.6,41.8,53.8,41.2,53.9,40.8z"/>
  <path fill="#8D6E63" d="M43.2,41.5c-0.7-0.5,0.1-0.9,0.2-1.4C43.3,40.6,43.2,41.1,43.2,41.5C43.1,41.5,43.2,41.5,43.2,41.5z"/>
  <path fill="#8D6E63" d="M18.4,21c-0.6-0.3-1.1-0.6-1.7-0.8c-1-0.4-2-0.5-2.9,0.2c-0.7,0.5-0.8,1.1,0,1.6c0.8,0.5,1.7,0.7,2.5,1
    c0.5,0.2,0.9,0.2,1.4,0.4c0,0.1,0,0.2,0,0.3c-0.3,0.1-0.6,0.1-0.9,0.2c-0.7,0.3-1.5,0.5-2,1c-0.9,0.8-0.8,1.4,0.3,1.8
    c0.7,0.3,1.5,0.4,2.2,0.5c0.3,0.1,0.6,0.2,1.1,0.4c-0.5,0.4-0.9,0.5-1.1,0.8c-0.7,0.7-0.5,1.5,0.5,1.7c0.8,0.1,1.6,0.2,2.5,0.3
    c-1,1-2.4,1.2-3.5,0.5c-0.9-0.5-1-1.1-0.5-2.8c-0.5-0.2-1-0.4-1.5-0.6c-1.6-0.7-1.9-1.7-0.8-3.1c0.2-0.2,0.5-0.4,0.9-0.6
    c-0.7-0.5-1.3-0.8-1.8-1.2c-1.1-0.8-1-1.8,0-2.7C14.3,18.8,17.5,19,18.4,21L18.4,21z"/>
  <path fill="#8D6E63" d="M22.5,23.9c-1,0.4-2,0.6-2.4,1.8c0.7,1.6,2.5,0.7,3.7,1.6c-0.3,0.2-0.5,0.4-0.7,0.5
    c-0.3,0.2-0.7,0.5-0.9,0.8c-0.5,0.7-0.3,1.2,0.5,1.6c0.6,0.2,1.3,0.4,2,0.6c-0.7,0.9-1.8,0.9-2.9,0.2c-1.1-0.7-1.1-1.5-0.2-3.3
    c-0.4-0.2-0.9-0.4-1.3-0.6c-1.2-0.7-1.2-1.7-0.2-2.6C20.8,23.8,21.5,23.5,22.5,23.9z"/>
  <path fill="#8D6E63" d="M44.2,17.3c-0.9-0.1-1.5-0.7-1.4-1.5c0.1-0.8,0.9-1.5,1.7-1.4c0.8,0.1,1.5,0.9,1.4,1.7
    C45.8,16.9,45,17.4,44.2,17.3z"/>
  <path fill="#8D6E63" d="M41.7,39.4c-0.2,1.5-0.4,3.1-0.6,4.6c-0.1,0-0.2,0-0.3-0.1c0-1.6,0.6-3.1,0.6-4.6
    C41.5,39.3,41.6,39.4,41.7,39.4z"/>
  <path fill="#8D6E63" d="M19.5,14.8c-0.3,0.5-0.6,1-0.9,1.4c-0.1-0.7,0.2-1.2,0.8-1.6C19.4,14.7,19.4,14.7,19.5,14.8z"/>
  <path fill="#8D6E63" d="M19.4,14.7c0.2-0.3,0.4-0.6,0.6-0.9c0.1,0.1,0.2,0.1,0.2,0.2c-0.3,0.3-0.5,0.6-0.8,0.9
    C19.4,14.7,19.4,14.7,19.4,14.7z"/>
  <path fill="#8D6E63" d="M52.4,15.3c-0.4,0.3-0.7,0.6-0.8,0.6c-0.3-0.1-0.5-0.4-0.7-0.6c0.2-0.2,0.4-0.5,0.5-0.4
    C51.7,14.8,52,15.1,52.4,15.3z"/>
</g>
</svg>
