<!-- Generator: Adobe Illustrator 18.0.0, SVG Export Plug-In  -->
<svg version="1.1"
	 xmlns="http://www.w3.org/2000/svg" xmlns:xlink="http://www.w3.org/1999/xlink" xmlns:a="http://ns.adobe.com/AdobeSVGViewerExtensions/3.0/"
	 x="0px" y="0px" width="73.1px" height="60px" viewBox="0 0 73.1 60" enable-background="new 0 0 73.1 60" xml:space="preserve">
<defs>
</defs>
<g>
	<path class="heart" fill="#D81B60" d="M36.6,20C36.6,19.9,36.5,19.9,36.6,20C36.5,19.9,36.5,19.9,36.6,20c-6.2-9.7-17.5-5-17,3.7
		c0.1,1.4,0.5,5.2,5.6,8.5c10,6.5,11.4,10.2,11.4,10.2s0,0,0,0c0,0,0,0,0,0s1.4-3.7,11.4-10.2c5.1-3.3,5.5-7.1,5.6-8.5
		C54,15,42.7,10.2,36.6,20z"/>
	<g>
		<path class="outline" fill="#FFFFFF" d="M66.4,4.9c-4.8-5-12.4-6.5-18.6-2.9C40,6.5,37.3,14.1,36.5,18.1c-0.8-4-3.4-11.6-11.3-16.1
			C19-1.6,11.4-0.1,6.6,4.9C3,8.7-0.3,14.4,0,19.9c0.5,8.7,4.7,13.8,12.4,18.8c15.4,10,21.2,16.9,23.3,19.9c0.2,0.4,0.4,0.6,0.4,0.7
			l0.5,0.7l0.5-0.7c0,0,0.2-0.3,0.4-0.7c2.1-3,7.9-9.9,23.2-19.9c7.7-5,11.9-10.1,12.4-18.8C73.4,14.4,70.1,8.7,66.4,4.9z
			 M57.5,22.6c0.5,0.2,0.9,0.5,1.2,1c0.9,1.5-0.5,2.9-1.9,2.1c-0.3-0.2-0.5-0.4-0.7-0.6c0,0,0,0,0,0.1c-0.2,0.9,0.3,1.8,1.2,2.1
			c0.6,0.2,1.2,0.1,1.8-0.2c0.6-0.3,1.1-0.9,1.2-1.7c0-0.2,0-0.4,0-0.6c0-0.1,0-0.1,0-0.1c0.9,1.6,0.4,3.5-1.3,4.1
			c0.1,0.1,0.1,0.1,0.2,0.2c-0.4,0-0.8,0-1.2,0c-2.6,0.1-5.3,1.2-7.4,2.7c-0.3,0.2-0.6,0.5-0.9,0.7c-0.5,0.3-0.9,0.8-1.3,1.2
			c-0.2-0.1-0.3-0.3-0.5-0.4c0.1-0.1,0.3-0.2,0.4-0.3c3.6-2.3,5.6-5.4,5.9-8.8C54.8,22.9,56,22.2,57.5,22.6z M61.2,33.1
			c0.1,1.6-2,2.1-2,2.1c-3,0.8-6,0.2-8.9-0.7c-0.2-0.1-0.4-0.2-0.6-0.3c0.1-0.1,0.1-0.2,0.2-0.2C52.8,30.6,61,28.9,61.2,33.1z
			 M29,40c1-0.8,2-0.8,3-0.1c1.4,1,1.1,3.4,0.4,4.7c0,0-0.8,2.1-4.9,2.3c0.2-1.2,0.3-2.4,0.4-3.6c0,0,0,0,0,0
			c0.6,0.4,1.2,0.5,1.6,0.4c0.5-0.1,0.8-0.3,1.1-0.7c0-0.1,0-0.1,0-0.1C28.8,43.4,27.7,41.5,29,40z M30.3,37.8
			c-1.4,0-2.3,0.6-2.8,1.6c-0.5-1.8-1.2-3.5-2.3-5c0.4-0.3,0.7-0.5,1.1-0.8c2.6,1.8,4.5,3.3,5.9,4.6C31.7,37.9,31,37.8,30.3,37.8z
			 M23.4,32.2c-0.3-0.2-0.6-0.5-0.9-0.7c-2.1-1.4-4.8-2.6-7.4-2.7c-0.4,0-0.8,0-1.2,0c0.1-0.1,0.1-0.1,0.2-0.2
			c-1.7-0.5-2.2-2.4-1.3-4.1c0,0,0,0.1,0,0.1c0,0.2,0,0.4,0,0.6c0.2,0.8,0.6,1.4,1.2,1.7c0.6,0.3,1.2,0.4,1.8,0.2
			c0.9-0.3,1.5-1.2,1.2-2.1c0,0,0-0.1,0-0.1c-0.2,0.3-0.4,0.5-0.7,0.6c-1.4,0.9-2.8-0.6-1.9-2.1c0.2-0.4,0.7-0.8,1.2-1
			c1.7-0.5,2.7,0.3,3.4,1.5c0.3,3.3,2.3,6.3,5.9,8.6c0.1,0.1,0.3,0.2,0.4,0.3c-0.2,0.1-0.3,0.3-0.5,0.4
			C24.3,32.9,23.9,32.5,23.4,32.2z M23.4,34.2c-0.2,0.1-0.4,0.2-0.6,0.3c-2.9,1-5.9,1.5-8.9,0.7c0,0-2.1-0.5-2-2.1
			c0.2-4.1,8.4-2.5,11.3,0.9C23.3,34,23.4,34.1,23.4,34.2z M38.2,48.1c0.1,0.6,0.2,1.2,0.2,1.8c0,2.7-1.2,5.1-1.9,6.2
			c-0.7-1.1-1.9-3.5-1.9-6.2c0-0.3,0-0.6,0.1-1c0,0,0-0.1,0-0.1c0-0.2,0.1-0.4,0.1-0.6c0-0.3,0.1-0.5,0.2-0.8c0-0.1,0.1-0.3,0.1-0.4
			c0,0,0,0,0-0.1c0.4-1.4,1-2.6,1.4-3.3c0.5,0.8,1.3,2.3,1.6,4.1C38.2,47.9,38.2,48,38.2,48.1z M36.5,21C36.5,21,36.5,21,36.5,21
			c0.3,0,0.5-0.1,0.6-0.3c2-3.2,4.7-4.9,7.7-4.9c2,0,4,0.8,5.4,2.3c1.4,1.5,2.2,3.6,2.1,5.8c-0.1,2.9-1.9,5.6-5.1,7.7
			c-6.9,4.5-9.6,7.6-10.7,9.2c-1-1.5-3.8-4.7-10.7-9.2c-3.2-2.1-5-4.7-5.1-7.7c-0.1-2.2,0.6-4.2,2.1-5.8c1.4-1.5,3.4-2.3,5.4-2.3
			c3,0,5.7,1.8,7.7,4.9C36.1,20.8,36.3,21,36.5,21z M41.1,39.9c1.1-0.7,2.1-0.7,3,0.1c1.3,1.4,0.2,3.4-1.7,3c0,0,0,0,0,0.1
			c0.2,0.4,0.6,0.6,1.1,0.7c0.5,0.1,1.1,0,1.6-0.4c0,0,0,0,0,0c0,1.2,0.1,2.4,0.4,3.6c-4.1-0.3-4.8-2.3-4.9-2.3
			C39.9,43.3,39.7,41,41.1,39.9z M42.8,37.8c-0.7,0-1.3,0.1-1.9,0.4c1.4-1.3,3.3-2.8,5.9-4.6c0.4,0.3,0.7,0.6,1.1,0.8
			c-1.2,1.5-1.9,3.2-2.3,5C45.1,38.4,44.2,37.9,42.8,37.8z M3.4,22.7c-0.1,0.1-0.2,0.1-0.3,0.2C3,23,2.9,23.1,2.8,23.2
			c-0.1,0.1-0.1,0.1-0.1,0.2c0,0,0,0,0,0c-0.1,0.1-0.1,0.1-0.1,0.1c-0.2,0.2-0.3,0.5-0.3,0.8c-0.4-1.4-0.7-2.9-0.8-4.4
			c-0.2-4,1.1-7.6,3.3-10.6c-0.4,1.5-0.6,3-0.4,4.6c0.3,4.2,4.3,8.2,8.7,7.7c0.3,0,0.6,0,0.9-0.1c1.2-0.2,2.2-0.6,3.2-1.3
			c2.2-1.4,3.2-3.3,3.2-5.9c0-1-0.4-2.4-1.4-3.4c-1-0.9-2.5-1.2-3.7-0.8c-0.6,0.2-1.2,0.8-1.6,1.4c-0.5,0.9-0.7,2.1,0,3.1
			c0.2,0.3,0.5,0.6,0.9,0.7c0.3,0.1,1.7,0.4,1.3,0.2c-3.5-2.2,1.8-5.7,2.8-1.8c0.1,1.8-0.6,3.8-2.3,4.8c-5,2.8-9.8-1.8-10.3-5.6
			C5,4.8,14.7,0.2,21.6,2.2c3.7,1.2,6.7,3.4,8.8,6.7c-0.4,2.2-2.5,4.5-5,3.2c-0.5-0.3-0.9-0.8-1-1.3c-0.6-1.7,1.4-2.9,2.7-1.7
			c0.2,0.2,0.4,0.4,0.5,0.5c0.1,0.2,0.2,0.3,0.2,0.3s0,0,0.1-0.1c0.6-1.9-1.4-3.1-2.8-2.7c-0.7,0.2-1.5,0.7-1.8,1.5
			C23,9,23,9.2,22.9,9.4c0,0.1,0,0.1,0,0.1c-0.6-1.9,0.5-3.7,2.6-3.9c-0.9-1.3-3.2-2.2-4.1-0.4c-0.2-2.5-3.9-3.2-3.7-0.5
			c-2.5-4.2-9.3,1.7-6,4.5c-1.3-2.1,1.7-3.1,3.3-2.9c2.1,0.2,3.4,1.5,4.8,2.9c1.6,1.5,1.9,3.1,4.2,4.1c3.1,1.2,5.6,0.3,7.5-2.8
			c0.9,1.4,2.3,3.6,3,6.1C32.7,14.9,30.4,14,28,14c-2.4,0-4.8,1-6.5,2.8c-1.5,1.6-2.3,3.5-2.5,5.7c-0.3-0.4-0.8-0.7-1.2-0.9
			c-0.3-0.2-1.2-0.6-3-0.3c-2.1,0.4-2.8,1.9-4.5,2.9c-1.5,1-2.9,1.9-4.8,1.8C4.1,25.9,1.8,24.3,3.4,22.7z M11.6,29.5
			c-0.2,0.1-0.3,0.2-0.5,0.3c-1.5,1.3-2.2,3.3-1.3,5c0.1,0.2,0.3,0.5,0.5,0.7c-2.7-2.2-4.8-4.5-6.3-7.1c1,0.6,2.2,0.7,3.3-0.5
			c-0.9,2.5,2.4,2.6,3.2,0.3C10.7,28.9,11.1,29.3,11.6,29.5L11.6,29.5z M11.6,36.5c2,1,5.3,1,8.1,0.4c0,0.1-0.1,0.1-0.1,0.2
			c-0.2,0.4-0.4,0.9-0.5,1.4c-0.3,1.6,0.2,3.2,1.2,4.3C18,41,12.1,36.8,11.6,36.5z M21.2,36.5c1-0.3,3.3-1.4,3.3-1.4l0.7,0.9
			c0.7,1,1.2,2.2,1.5,3.5c-0.1-0.2-0.2-0.3-0.3-0.5c-0.5-0.6-1.2-1-1.9-1c-0.7-0.1-1.3,0.1-1.8,0.5c-0.4,0.4-0.6,0.9-0.6,1.4
			c0,0.4,0.1,0.8,0.4,1.1l0.4,0.3l0.1-0.4c0.2-0.6,0.5-1.2,1.3-1.1c1.2,0.1,1,1.7,0.3,2.3c-0.6,0.6-1.9,0.4-2.6,0
			C19.5,40.9,20,38,21.2,36.5z M26.6,46.9c-0.9-0.1-2.8-1.5-5.2-3.3c0.6,0.3,1.3,0.5,2,0.6c0.8,0,1.7-0.2,2.3-0.7
			c0.6-0.5,1.1-1.2,1.2-2C27.2,44.3,26.6,46.9,26.6,46.9z M27.4,48c0,0,4.8,0.6,6.7-3.8c0.4-0.8,0.4-1.8,0.3-2.7
			c-0.1-0.6-0.3-1.2-0.6-1.6c1.2,1.3,1.8,2.1,2,2.5c-0.7,1.2-2.3,4.4-2.3,8.3c0,1.6,0.3,3,0.6,4.3C31.2,51.7,27.3,47.9,27.4,48z
			 M39,54.8c0.4-1.3,0.6-2.7,0.6-4.3c0-3.8-1.6-7-2.3-8.2c0.2-0.4,0.8-1.2,1.9-2.5c-0.3,0.5-0.5,1-0.5,1.6c-0.1,0.9-0.1,1.9,0.3,2.7
			c1.9,4.4,6.7,3.8,6.7,3.8C45.8,47.9,41.9,51.7,39,54.8z M46.5,46.9c0,0-0.6-2.6-0.3-5.5c0.1,0.8,0.6,1.5,1.2,2
			c0.6,0.5,1.5,0.7,2.3,0.7c0.7,0,1.4-0.2,2-0.6C49.3,45.3,47.3,46.7,46.5,46.9z M51,42.1c-0.6,0.3-2,0.6-2.6,0
			c-0.7-0.6-0.8-2.2,0.3-2.3c0.8-0.1,1.1,0.6,1.3,1.1l0.1,0.4l0.4-0.3c0.3-0.3,0.4-0.7,0.4-1.1c0-0.5-0.2-1-0.6-1.4
			c-0.5-0.4-1.1-0.6-1.8-0.5c-0.7,0.1-1.4,0.5-1.9,1c-0.1,0.1-0.2,0.3-0.3,0.5c0.3-1.2,0.7-2.4,1.5-3.5l0.7-0.9c0,0,2.3,1.1,3.3,1.4
			C53.1,38,53.6,40.9,51,42.1z M52.8,42.7c1-1.1,1.5-2.7,1.2-4.3c-0.1-0.5-0.2-0.9-0.5-1.4c0-0.1-0.1-0.1-0.1-0.2
			c2.8,0.6,6.1,0.7,8.1-0.4C61,36.8,55.1,41,52.8,42.7z M62.7,35.5c0.2-0.2,0.4-0.4,0.5-0.7c0.9-1.8,0.3-3.7-1.3-5
			c-0.2-0.1-0.3-0.2-0.5-0.3l0,0c0.5-0.1,0.9-0.5,1-1.3c0.8,2.3,4.1,2.2,3.2-0.3c1.1,1.2,2.3,1.1,3.3,0.5
			C67.5,31,65.4,33.3,62.7,35.5z M71.7,19.8c-0.1,1.5-0.4,3-0.8,4.4c-0.1-0.3-0.2-0.5-0.3-0.8c0,0,0,0-0.1-0.1c0,0,0,0,0,0
			c0,0-0.1-0.1-0.1-0.2c-0.1-0.1-0.2-0.2-0.3-0.3c-0.1-0.1-0.2-0.2-0.3-0.2c1.6,1.7-0.7,3.2-2.1,3.3c-1.9,0.2-3.3-0.8-4.8-1.8
			c-1.7-1.1-2.4-2.5-4.5-2.9c-1.8-0.4-2.7,0.1-3,0.3c-0.5,0.2-0.9,0.6-1.2,0.9c-0.2-2.2-1-4.2-2.5-5.7C49.9,15,47.5,14,45.1,14
			c-2.4,0-4.7,0.9-6.6,2.7c0.7-2.5,2-4.7,3-6.1c1.9,3.1,4.4,4,7.5,2.8c2.3-0.9,2.6-2.6,4.2-4.1c1.4-1.4,2.7-2.7,4.8-2.9
			c1.5-0.2,4.6,0.9,3.3,2.9c3.4-2.8-3.4-8.7-6-4.5c0.3-2.8-3.4-2.1-3.7,0.5c-0.9-1.9-3.1-1-4.1,0.4c2.1,0.2,3.2,2,2.6,3.9
			c0,0,0-0.1,0-0.1C50.1,9.2,50,9,49.9,8.8c-0.4-0.8-1.1-1.3-1.8-1.5c-1.5-0.4-3.4,0.8-2.8,2.7c0,0,0.1,0.1,0.1,0.1s0.1-0.1,0.2-0.3
			c0.1-0.2,0.3-0.4,0.5-0.5c1.4-1.2,3.3,0,2.7,1.7c-0.2,0.5-0.5,1-1,1.3c-2.5,1.2-4.6-1-5-3.2c2.1-3.3,5.1-5.6,8.8-6.7
			c7-2.1,15.6,2.2,15.6,10.6c0,4.2-4.7,8.6-9.7,5.8C56,17.5,54.9,15.7,55,14c1-3.9,5.7-0.6,2.2,1.6c-0.3,0.2,1.1-0.1,1.3-0.2
			c0.4-0.1,0.7-0.4,0.9-0.7c0.7-0.9,0.6-2.1,0-3.1c-0.4-0.6-0.9-1.2-1.6-1.4c-1.2-0.4-2.8-0.2-3.7,0.8c-1,1-1.4,2.4-1.4,3.4
			c0,2.6,1.1,4.5,3.2,5.9c1,0.6,2,1.1,3.2,1.3c0.3,0.1,0.6,0.1,0.9,0.1c4.4,0.5,8.4-3.6,8.7-7.7c0.2-1.6,0.1-3.1-0.4-4.6
			C70.6,12.3,71.9,15.8,71.7,19.8z"/>
	</g>
</g>
</svg>

