<?xml version="1.0" encoding="utf-8"?>
<!-- Generator: Adobe Illustrator 18.0.0, SVG Export Plug-In . SVG Version: 6.00 Build 0)  -->
<!DOCTYPE svg PUBLIC "-//W3C//DTD SVG 1.1//EN" "http://www.w3.org/Graphics/SVG/1.1/DTD/svg11.dtd">
<svg version="1.1" id="Layer_1" xmlns="http://www.w3.org/2000/svg" xmlns:xlink="http://www.w3.org/1999/xlink" x="0px" y="0px"
	 viewBox="-32.1 166.3 485.1 262.7" enable-background="new -32.1 166.3 485.1 262.7" xml:space="preserve">
<path fill="#A1887F" d="M249.3,330.6H7.1c-0.6,0-1.2-0.6-1.2-0.9c0-0.6,0.6-0.9,1.2-0.9h242.2c0.6,0,1.2,0.6,1.2,0.9
	S249.9,330.6,249.3,330.6z"/>
<path fill="#A1887F" d="M413.3,330.6h-126c-0.6,0-0.9-0.6-0.9-0.9c0-0.6,0.6-0.9,0.9-0.9h126c0.6,0,0.9,0.6,0.9,0.9
	C414.2,330,413.9,330.6,413.3,330.6z"/>
<path fill="#FFFFFF" d="M185.5,287.4c-0.3,0-2.1,2.1-5.8,6.4c-3.7,4.3-6.4,6.4-8.3,6.4c-2.8,0-4.3-3.4-4.3-9.8
	c0-7.1,1.2-12.3,3.4-15.6c0.3-0.3,0.6-0.9,1.2-0.9c0.6-0.3,0.9-0.3,0.9-0.3c0-0.3,0-0.6-0.3-0.9c-1.5-2.1-3.7-3.4-7.1-3.4
	c-1.5,0-3.1,0.3-4.3,0.9c-4.3,1.5-8.6,5.5-13.2,12c-4.6,6.7-6.7,12.3-6.7,16.9c0,3.1,1.5,4.6,4.3,4.6c4.6,0,10.1-5.2,15.9-15.9
	c-0.3,1.5-0.3,2.8-0.3,4c0,7.7,2.8,11.7,8.3,11.7c1.5,0,3.1-0.3,4.9-1.2c3.4-1.8,7.4-5.8,11-12.3c0.6-0.9,0.9-1.5,0.9-1.8
	C186,287.9,185.8,287.4,185.5,287.4z M155.1,293.8c-3.1,4-5.8,6.1-7.7,6.1c-1.2,0-1.8-0.9-1.8-2.8c0-4.3,2.8-9.5,8.3-16.2
	c4-4.6,7.7-6.7,11-6.7c0.3,0,0.9,0,1.2,0C163.1,281.5,159.4,288,155.1,293.8z"/>
<path fill="#FFFFFF" d="M354.7,275.4c0-0.9-0.3-1.8-0.9-2.5c-0.6-0.7-1.5-0.9-2.5-0.9c-0.6,0-1.2,0.3-2.1,1.2
	c-0.9,2.1-1.5,4-2.5,5.2c-1,1.2-1.5,2.8-2.5,4.3c-6.4,11-11,16.2-13.8,16.2c-1.8,0-2.8-1.5-2.8-4.6c0-2.5,3.4-12,5.8-16.2l3.7-6.4
	c0-0.6-0.6-1.2-2.1-1.2c-2.5,0-4.9,2.5-7.1,7.4c-1.2,2.5-2.8,6.7-3.7,10.7c-8.9,10.7-17.2,16.2-24.5,16.6c4.3-2.8,8.6-7.7,12.3-14.7
	c3.7-7.1,5.5-13.2,5.5-18.4c0-4.3-1.5-6.4-4.3-6.4c-3.1,0-7.1,2.8-11.7,8.6c-3.1,4-5.8,8-8.3,12.6c0-0.9,0-2.1,0.3-4
	c0-1.8,0.3-3.1,0.3-4c0-6.1-1.5-9.2-4.6-9.2c-2.8,0-4.3,0.3-4.3,0.6s0.3,0.9,0.6,1.5c0.6,0.6,0.6,1.2,0.6,2.1
	c0,4.3-1.8,8.9-5.5,14.4c-0.3,0.3-0.6,0.6-0.9,0.9c-2.5,2.8-5.2,5.5-8.9,7.7c-4,2.5-7.4,4-10.7,4c-3.4,0-4.9-1.8-4.9-5.5
	c0-1.5,0.3-3.4,0.9-5.5c3.1-1.2,6.7-3.4,10.4-7.1c4.3-4,6.4-7.4,6.4-10.1c0-0.9-0.3-1.8-0.9-2.5c-0.9-0.6-1.5-1.2-2.5-1.2
	c-4.6,0-8.9,3.1-13.2,8.9c-3.7,4.9-5.5,9.8-6.1,14.1c-5.5,6.1-11,9.2-16.2,9.2c-4.9,0-7.4-2.8-7.4-8.3c0-3.4,1.2-7.1,3.7-11
	c2.8-4.3,5.5-6.4,8.9-6.4c2.5,0,3.4,0.9,3.4,2.8c0,0.3,0,0.9-0.6,1.8c-0.3,0.9-0.6,1.5-0.6,1.8c0,0.3,0.3,0.6,0.6,0.6
	c0.9,0,1.8-1.2,3.1-3.4c1.2-2.1,1.8-3.7,1.8-4.6c0-2.1-1.5-3.4-4.3-3.4c-4.3,0-8.9,2.8-13.8,8c-4.9,5.2-7.4,10.1-7.4,14.4
	c0,7.1,3.4,10.7,10.1,10.7c3.7,0,7.1-0.9,10.1-3.1c3-2.2,5.8-4.3,8.3-6.7c0.3,6.1,3.1,9.2,8.3,9.2c4,0,8.3-1.5,13.2-4.6
	c3.7-2.5,6.7-5.2,8.9-8c0.9,0,3.1-2.8,6.4-8.3c0,2.5,0,5.2,0,8.6v0.9c-5.8,8-11.7,15.9-17.5,23.9c-8,12-12.3,20.2-12.3,24.5
	c0,3.4,1.2,4.9,3.4,4.9c4.3,0,9.8-5.5,16.6-16.6c4.9-8,8.6-15.3,11.3-22.7c2.5,0.6,3.7,0.9,4,0.9c0.9,0,1.8,0,3.4,0
	c1.5,0,2.8,0,3.7,0c4,0,8.9-2.1,14.4-6.4c3.4-2.5,6.4-4.9,8.6-7.4c0,0.6-0.3,1.2-0.3,1.8c0,5.2,1.5,8,4.6,8c2.5,0,5.2-1.8,8.3-5.5
	c0.6-0.6,1.2-1.5,2.1-3.1c0.9-1.5,2.1-3.1,4-5.5c-0.6,1.2-1.2,2.5-1.5,4c-0.3,1.5-0.6,3.1-0.6,4.3c0,2.8,0.9,4.3,2.8,5.5
	c3.4,2.5,9.2-2.5,9.5-2.8c0.3,0,0.3-0.3,0.6-0.6c0,2.1-0.6,4.3-1.5,6.1c-1.2,3.1-3.4,4.6-5.8,4.9c-0.9,0-1.8-0.3-3.1-0.9
	c-1.2-0.9-1.8-1.2-1.8-0.9c-0.6,0-1.2,0.3-1.5,0.9c-0.6,0.9,0.3,1.8,2.5,2.8c1.8,0.9,3.4,1.2,4.3,1.2c2.8-0.3,4.9-2.1,6.1-4.9
	c0.3-0.9,0.9-2.1,1.2-3.4c0.3-1.2,0.6-2.8,0.6-4.3c0.3-1.2,0.3-2.5,0-3.4c0.6-0.9,0.6-1.5,0.6-1.8c-0.3-0.6-0.6-0.9-0.9-0.3
	c-1.8,1.8-3.1,3.4-4.3,4.3s-2.1,1.5-2.8,1.5c-0.6,0-1.2,0-1.5-0.6s-0.3-1.2-0.3-2.5c0-3.4,1.5-8,4.9-14.4L354.7,275.4z M261.5,279.1
	c2.5-4,4.6-6.1,5.8-6.1s1.5,0.6,1.5,1.5c0,2.1-1.5,4.6-4.3,7.7c-2.5,2.5-4.9,4.3-7.4,5.2C257.8,285.2,259.4,282.5,261.5,279.1z
	 M285.4,303.9c-2.1,8.3-4,14.1-5.8,17.8c-7.1,12.9-12.3,19.3-16.2,19.3c-0.6,0-0.9-0.3-0.9-1.2c0-1.8,1.5-6.1,4.9-12.3
	c2.8-5.5,5.2-9.5,7.1-12.3c4.3-6.4,7.7-11,9.8-14.4c0.6-0.9,1.2-1.2,1.5-1.2h0.3c-0.6,0.9-0.9,1.8-0.9,3.1
	C285.1,303,285.1,303.3,285.4,303.9z M296.2,303.6c-2.1,0.9-6.4,0-4.9-4.3c1.8-5.2,3.7-10.7,6.4-15.6c3.7-7.1,7.1-11,10.1-12.6
	c0.3-0.3,0.9-0.3,1.2-0.3c1.5,0,2.1,1.5,2.1,4.3c0,4.6-1.5,10.1-4.6,16.6C303.5,298.4,300.1,302.1,296.2,303.6z"/>
<path fill="#FFFFFF" d="M410.8,287.1c-0.3,0-1.2,1.2-3.4,4c-2.1,3.1-4.3,5.5-6.4,7.4c-2.8,2.5-5.5,4-8,4c-3.4,0-4.9-1.8-4.9-5.2
	c0-1.8,0.3-3.4,1.2-4.9s1.8-3.4,2.8-5.5c0.3-0.9,0.6-1.5,0.6-1.5c0-1.8-0.9-2.8-3.1-3.1c0,0-0.3,0.3-0.9,0.6
	c-0.6,0.3-1.5,1.5-2.8,3.7c-0.3,0.3-0.9,0.3-1.2,0.3c-0.3,0-0.9,0-1.2,0c0.9-1.2,1.8-2.5,2.1-4c0.6-1.5,0.9-3.1,0.9-4.9
	s0-3.4-0.6-4.9c-0.3-1.5-1.2-2.8-2.1-3.4c-0.9-0.9-2.5-1.2-4-1.2c-1.8,0-3.7,0.6-6.1,2.1c-3.4,1.8-5.5,4-6.7,6.1
	c-0.9,2.1-1.2,4-0.3,5.8c0.6,1.8,2.1,3.4,4.3,4.6c2.1,1.2,4.6,1.8,7.4,1.8c-1.2,1.5-1.8,2.8-2.5,3.4c-2.8,3.7-5.2,6.4-7.4,8
	c-2.1,1.5-4,1.8-4.9,1.5c-1.2-0.3-1.8-1.8-1.8-4c0-2.2,0.6-5.2,2.1-8.9c-0.3-0.6-0.6-1.2-1.2-1.5c-0.6-0.6-1.2-0.6-2.1-0.6
	s-1.5,0.3-2.1,0.9c-0.6,0.6-1.2,1.8-1.5,3.4c-0.6,3.4-0.6,6.4,0.3,8.3c0.9,2.1,2.1,3.4,4,4s4,0.6,6.4-0.3c2.5-0.9,4.9-2.5,7.4-4.9
	c0.3-0.3,1.5-1.5,3.1-3.4c1.5-1.8,3.1-3.7,4.6-5.8c0.3,0,0.9,0,1.5,0c0.6,0,1.2-0.3,1.5-0.3c-0.6,1.5-1.2,2.8-1.5,4
	c0,0.6,0,1.2,0,1.5s0,1.2,0,1.8c0,6.4,2.5,9.8,7.7,9.8c6.4,0,12.9-5.2,19-15.3c0.6-0.9,0.9-1.5,0.9-2.1
	C411.1,287.1,411.1,287.1,410.8,287.1z M380.2,286.1c-2.5-0.6-4.3-1.8-5.8-3.7c-1.5-1.9-2.1-3.7-1.8-5.2c0-1.5,0.9-3.1,2.8-3.7
	c1.5-0.9,4.3-0.6,8.3,0.6c0.6,0.3,0.9,0.6,0.9,1.5s0,1.8-0.3,3.1c-0.3,1.2-0.9,2.5-1.5,3.7C381.7,283.7,380.8,284.9,380.2,286.1z"/>
<path fill="#FFFFFF" d="M137.7,265.9c-3.4,0-7.1,2.5-11.3,7.4c-3.4,3.7-5.8,7.7-8.3,11.7c0.9-3.1,2.1-6.4,3.7-9.8s3.1-6.4,4.6-8.9
	c9.8-6.1,18.1-12.6,25.4-19.9c11.3-12,16.9-20.8,16.9-27.3c0-3.7-2.1-5.5-6.1-5.5c-7.1,0-15.9,8.9-26.7,26.4
	c-7.1,11.3-12,19.9-15,25.4c-3.4,7.1-5.8,13.2-7.7,18.7c-1.5,5.5-2.5,9.8-2.5,13.2c0,4.9,1.5,7.4,4.9,7.4c0.3,0,0.6-0.3,0.6-0.6
	c0-0.3-0.3-0.9-0.9-1.2c-0.6-0.6-0.9-1.2-0.9-2.1c0-3.7,2.5-9.5,7.1-17.2c4.9-8.3,8.9-12.3,12-12.3c1.2,0,2.1,1.5,2.1,4.3
	c0,4.9-0.9,9.2-2.5,13.2c-1.8,4.6-4.3,8.9-7.4,12.3c-3.7,4.3-7.1,6.4-12,6.7c-16.6,0.6-23.9-8.3-24.8-9.5
	c6.7-4.6,12.3-9.8,16.2-15.6c4.9-6.7,7.4-13.8,7.4-20.8c0-11.7-6.4-20.5-19.6-26.7c-10.1-4.9-21.8-7.4-35.3-7.4
	c-5.8,0-12.3,0.6-19.3,1.5c-8.3,1.2-14.4,3.1-18.4,5.2c-2.8,1.8-4,3.4-4,5.5c0,1.2,0.6,2.1,1.8,2.1c0.3,0,0.9-0.3,1.8-0.6
	c11.7-6.7,25.1-10.1,40.5-10.1c11.3,0,21.5,2.1,30.4,6.1c11.3,5.5,17.2,13.2,17.2,23.3c0,6.4-2.1,12.6-6.7,19
	c-3.7,5.5-8.6,10.1-14.4,14.4c-8.9-11.7-25.1-17.8-49.4-18.1c7.1-14.4,15-27.3,23.3-38.9c0.3-0.3,0.3-0.6,0.3-0.9
	c0-0.6-0.6-1.2-1.8-1.2c-3.1,0-5.2,0.9-6.7,3.1c-2.8,4.3-4.9,8-6.4,10.7c-4.9,8.6-9.2,17.8-13.2,27c-6.4,0.3-12,2.1-16.9,5.5
	c-5.5,4-8.6,8.9-8.6,14.7c0,4.9,3.4,8.9,10.4,12c5.2,2.1,10.7,3.4,16.9,3.7c1.8,0,3.4,0,5.5,0c17.5,0,32.8-4,46.3-12
	c1.8,3.4,12.3,10.7,28.8,9.8c0.3,0,0.6,0,0.6,0h0.3c0.3,0,0.6,0,0.9,0s0.9-0.3,1.2-0.3h0.3l0,0c3.1-0.9,6.1-2.8,9.2-5.5
	c3.7-3.7,6.7-8,9.2-12.6c3.4-7.1,5.2-13.5,5.2-19C141.6,267.7,140.4,265.9,137.7,265.9z M130.6,256.1c6.1-14.4,13.8-24.8,22.4-31.9
	c4.9-4,8.6-5.8,11-5.8c1.5,0,2.1,1.2,2.1,3.1c-0.3,4.9-5.2,12.6-15.6,22.1c-8.6,8.3-15.9,14.4-22.4,18.1
	C128.8,260.4,129.4,258.6,130.6,256.1z M37.4,308.5c-1.2,0-2.5,0-3.4,0c-4.9-0.3-9.2-1.2-13.5-3.1c-5.5-2.5-8.3-5.5-8.3-9.5
	c0-9.2,5.8-14.7,17.8-16.6c-4.6,11-6.7,18.7-6.7,22.7c0,2.5,0.6,3.7,2.1,3.7c0.9,0,1.5-0.6,1.5-1.8c0-0.3,0-0.6,0-1.2
	c0-0.3,0-0.9,0-1.2c0-4,2.8-11.7,8-23c1.2,0,2.5,0,3.4,0c7.7,0,15.6,1.5,24.2,4.3c9.5,3.4,16.2,7.4,20.5,12.6
	C69.6,304.2,54.6,308.5,37.4,308.5z"/>
<path fill="#A1887F" d="M11.7,365.3c-0.1-0.5,0-0.7,0.4-0.7h1.5c0.4,0,0.6,0.2,0.7,0.6l2.2,9.7c0.1,0.3,0.2,0.7,0.3,1.3
	s0.2,1,0.3,1.3h0.1c0-0.3,0.1-0.7,0.3-1.2c0.2-0.5,0.2-1,0.3-1.4l2.7-9.7c0.1-0.4,0.3-0.6,0.7-0.6h1.3c0.3,0,0.6,0.2,0.7,0.6
	l2.7,9.7c0.1,0.4,0.2,0.9,0.3,1.4s0.2,1,0.3,1.2h0.1c0.1-0.3,0.2-0.7,0.3-1.3c0.1-0.6,0.2-1,0.3-1.3l2.2-9.7
	c0.1-0.4,0.3-0.6,0.7-0.6h1.5c0.4,0,0.5,0.2,0.4,0.7l-3.6,13.8c-0.2,0.6-0.4,0.9-0.8,0.9h-1.8c-0.4,0-0.6-0.3-0.8-0.9l-2.6-9.7
	c-0.2-0.7-0.3-1.2-0.3-1.4s-0.1-0.5-0.1-0.8l0,0c0,0.2-0.1,0.5-0.1,0.8s-0.2,0.8-0.3,1.4l-2.6,9.7c-0.2,0.6-0.4,0.9-0.8,0.9h-1.8
	c-0.4,0-0.6-0.3-0.8-0.9L11.7,365.3z"/>
<path fill="#A1887F" d="M42,372.3c0-2.4,0.6-4.4,1.8-5.8c1.2-1.4,2.9-2.2,5.2-2.2c1.9,0,3.4,0.7,4.7,2c1.2,1.3,1.9,3.4,1.9,6.3
	c0,0.4-0.2,0.7-0.6,0.7H44.6c0.2,1.9,0.7,3.2,1.5,3.9s1.8,1.1,2.9,1.1c1.1,0,2-0.2,2.6-0.6c0.6-0.4,1.1-0.8,1.3-1.1
	c0.3-0.4,0.6-0.5,0.9-0.2l0.9,0.7c0.2,0.2,0.2,0.5,0,0.8c-0.2,0.3-0.7,0.7-1.6,1.4c-0.9,0.7-2.2,0.9-4.1,0.9c-2.4,0-4.2-0.7-5.4-2.2
	C42.4,376.5,42,374.7,42,372.3z M44.6,371.3h8.3c0-1.4-0.4-2.6-1.1-3.6s-1.6-1.5-2.9-1.5c-1.1,0-2.1,0.4-2.9,1.1
	S44.8,369.4,44.6,371.3z"/>
<path fill="#A1887F" d="M66.7,372.3c0-2.1,0.5-3.9,1.5-5.5c1-1.6,2.5-2.4,4.5-2.4c1.1,0,2.1,0.2,2.7,0.6c0.7,0.4,1.3,0.9,1.8,1.5
	l0,0c0-0.3,0-0.6,0-0.9V359c0-0.4,0.2-0.7,0.6-0.7H79c0.4,0,0.6,0.2,0.6,0.7v20.3c0,0.4-0.2,0.7-0.7,0.7h-1.2
	c-0.4,0-0.5-0.2-0.5-0.7v-1.2c-0.5,0.6-1.2,1.2-1.8,1.5c-0.7,0.4-1.6,0.6-2.7,0.6c-2,0-3.5-0.8-4.5-2.4
	C67.2,376.2,66.7,374.4,66.7,372.3z M69.4,372.3c0,1.8,0.3,3.3,0.9,4.4c0.6,1.1,1.7,1.7,3.2,1.7c1.1,0,2-0.4,2.7-1.1
	c0.7-0.7,1.1-1.8,1.1-3.3v-3.4c0-1.5-0.4-2.6-1.1-3.3c-0.7-0.7-1.6-1.1-2.7-1.1c-1.5,0-2.6,0.6-3.2,1.7
	C69.7,369,69.4,370.5,69.4,372.3z"/>
<path fill="#A1887F" d="M91.8,372.3c0-2.1,0.5-3.9,1.5-5.5c1-1.6,2.5-2.4,4.5-2.4c1.1,0,2.1,0.2,2.7,0.6c0.7,0.4,1.3,0.9,1.8,1.5
	l0,0c0-0.3,0-0.6,0-0.9V359c0-0.4,0.2-0.7,0.6-0.7h1.2c0.4,0,0.6,0.2,0.6,0.7v20.3c0,0.4-0.2,0.7-0.7,0.7h-1.2
	c-0.4,0-0.5-0.2-0.5-0.7v-1.2c-0.5,0.6-1.2,1.2-1.8,1.5c-0.7,0.4-1.6,0.6-2.7,0.6c-2,0-3.5-0.8-4.5-2.4
	C92.3,376.2,91.8,374.4,91.8,372.3z M94.5,372.3c0,1.8,0.3,3.3,0.9,4.4c0.6,1.1,1.7,1.7,3.2,1.7c1.1,0,2-0.4,2.7-1.1
	s1.1-1.8,1.1-3.3v-3.4c0-1.5-0.4-2.6-1.1-3.3c-0.7-0.7-1.6-1.1-2.7-1.1c-1.5,0-2.6,0.6-3.2,1.7C94.8,369,94.5,370.5,94.5,372.3z"/>
<path fill="#A1887F" d="M118.3,361.8c-0.4,0-0.7-0.2-0.7-0.7v-1.3c0-0.4,0.2-0.7,0.7-0.7h1.3c0.4,0,0.7,0.2,0.7,0.7v1.3
	c0,0.4-0.2,0.7-0.7,0.7H118.3z M118.3,379.9c-0.4,0-0.7-0.2-0.7-0.7v-14.1c0-0.4,0.2-0.7,0.7-0.7h1.3c0.4,0,0.7,0.2,0.7,0.7v14.1
	c0,0.4-0.2,0.7-0.7,0.7H118.3z"/>
<path fill="#A1887F" d="M133.7,379.9c-0.4,0-0.7-0.2-0.7-0.7v-14.1c0-0.4,0.2-0.7,0.7-0.7h1.2c0.4,0,0.7,0.2,0.7,0.7v1.2
	c0.6-0.7,1.3-1.2,2.1-1.6c0.8-0.4,1.7-0.5,2.8-0.5c1.8,0,3.1,0.5,3.9,1.5c0.8,1,1.2,2.4,1.2,4.1v9.4c0,0.4-0.2,0.7-0.7,0.7h-1.3
	c-0.4,0-0.7-0.2-0.7-0.7v-8.7c0-1.9-0.3-3.1-1-3.6c-0.6-0.5-1.4-0.8-2.4-0.8c-1.3,0-2.2,0.4-2.9,1.1c-0.7,0.7-1,2.1-1,3.9v8
	c0,0.4-0.2,0.7-0.7,0.7h-1.2V379.9z"/>
<path fill="#A1887F" d="M157.4,372.3c0-2.1,0.5-3.9,1.5-5.5c1-1.6,2.5-2.4,4.5-2.4c1.1,0,2,0.2,2.7,0.6c0.7,0.4,1.3,0.9,1.8,1.5
	v-1.2c0-0.4,0.2-0.7,0.6-0.7h1.3c0.5,0,0.7,0.2,0.7,0.7v14.8c0,1.9-0.4,3.3-1.3,4.4c-0.9,1.1-2.6,1.6-5.1,1.6c-1.7,0-3-0.2-3.8-0.6
	c-0.8-0.4-1.5-0.8-1.8-1.2c-0.3-0.3-0.3-0.6,0-0.8l0.8-0.8c0.2-0.2,0.5-0.1,0.9,0.2c0.5,0.5,1,0.8,1.5,1c0.5,0.2,1.3,0.3,2.5,0.3
	c1.3,0,2.3-0.3,2.9-0.8c0.6-0.5,0.9-1.7,0.9-3.5V379c0-0.3,0-0.6,0-0.9l0,0c-0.5,0.7-1.1,1.2-1.8,1.6c-0.7,0.4-1.6,0.6-2.7,0.6
	c-2,0-3.4-0.8-4.5-2.4C157.9,376.2,157.4,374.4,157.4,372.3z M160.2,372.3c0,1.8,0.3,3.3,0.9,4.4c0.6,1.1,1.7,1.7,3.2,1.7
	c1.1,0,1.9-0.4,2.6-1.1c0.7-0.7,1-1.8,1-3.3v-3.4c0-1.5-0.3-2.6-1-3.3c-0.7-0.7-1.6-1.1-2.6-1.1c-1.5,0-2.5,0.6-3.2,1.7
	C160.4,369,160.2,370.5,160.2,372.3z"/>
<path fill="#A1887F" d="M182.7,378.5c-0.3-0.3-0.4-0.5-0.2-0.8l0.7-0.9c0.2-0.3,0.5-0.3,1,0c0.6,0.4,1.2,0.8,1.9,1.1
	c0.7,0.3,1.5,0.4,2.4,0.4c0.5,0,1-0.1,1.4-0.2s0.8-0.4,1.1-0.7c0.3-0.3,0.5-0.8,0.5-1.5c0-0.4-0.1-0.7-0.2-1
	c-0.1-0.3-0.4-0.6-0.7-0.8c-0.3-0.2-0.6-0.3-0.9-0.4c-0.5-0.2-1-0.3-1.5-0.5c-0.5-0.1-1.1-0.3-1.9-0.6c-0.5-0.2-1-0.4-1.5-0.7
	s-0.9-0.7-1.3-1.3c-0.4-0.5-0.5-1.3-0.5-2.2c0-0.9,0.3-1.8,0.9-2.4c0.6-0.6,1.3-1.2,2.2-1.4c0.9-0.3,1.7-0.4,2.5-0.4
	c1.2,0,2.2,0.1,2.9,0.4c0.7,0.3,1.4,0.6,1.9,1c0.3,0.2,0.4,0.5,0.1,0.8l-0.7,0.9c-0.2,0.3-0.5,0.3-1,0c-0.4-0.3-0.9-0.5-1.5-0.7
	c-0.6-0.2-1.2-0.3-1.7-0.3c-0.6,0-1.1,0.1-1.6,0.2c-0.5,0.1-0.8,0.4-1.1,0.7s-0.4,0.7-0.4,1.2c0,0.3,0.1,0.6,0.2,0.9
	c0.1,0.3,0.3,0.5,0.6,0.7s0.7,0.4,1.2,0.5c0.8,0.2,1.6,0.4,2.2,0.6c0.6,0.2,1.3,0.4,1.8,0.6c0.7,0.3,1.3,0.7,1.6,1.1
	c0.3,0.4,0.7,0.8,0.8,1.3c0.1,0.5,0.2,1,0.2,1.5c0,1-0.3,1.9-0.9,2.7s-1.3,1.2-2.1,1.4c-0.8,0.2-1.7,0.4-2.8,0.4
	c-1.5,0-2.7-0.2-3.7-0.6C183.7,379.2,183,378.8,182.7,378.5z"/>
<path fill="#A1887F" d="M224.2,375.2c0-1,0.2-2.1,0.7-3.2c0.5-1.1,1.8-2.4,4-4c-0.5-0.6-1-1.2-1.5-2.1s-0.8-1.8-0.8-3
	c0-1.2,0.4-2.2,1.2-3.1s2.1-1.3,3.9-1.3c1.1,0,2.2,0.3,3.2,0.9c1,0.6,1.5,1.7,1.5,3.3c0,1-0.4,2-1.1,2.9c-0.7,0.9-1.7,1.8-2.9,2.7
	l4.6,5.5c0.4-0.4,0.8-1,1.2-1.7c0.4-0.7,0.7-1.3,0.8-1.8c0.1-0.4,0.4-0.6,0.7-0.5l1.1,0.4c0.4,0.1,0.6,0.4,0.4,0.8
	c-0.3,0.9-0.7,1.8-1.3,2.7c-0.6,0.9-1.1,1.6-1.5,2l3,3.5c0.5,0.6,0.4,0.8-0.3,0.8h-1.5c-0.6,0-1-0.2-1.4-0.6l-1.6-1.9
	c-0.9,0.9-1.9,1.6-2.9,2.2c-1,0.5-2.3,0.8-4,0.8c-1.7,0-3.1-0.5-4.2-1.5C224.7,378,224.2,376.7,224.2,375.2z M227,375.1
	c0,0.9,0.3,1.6,0.8,2.2c0.6,0.6,1.4,0.9,2.5,0.9c0.8,0,1.7-0.3,2.7-0.8c1-0.5,1.8-1.1,2.4-1.8l-5-5.9c-1.5,1.1-2.4,2.1-2.8,2.8
	C227.2,373.3,227,374.1,227,375.1z M229.2,362.8c0,0.8,0.2,1.5,0.7,2.2c0.4,0.7,0.8,1.2,1.2,1.6c1.1-0.9,1.8-1.7,2.2-2.2
	s0.6-1.2,0.6-1.8c0-0.5-0.2-1-0.6-1.4c-0.4-0.4-1-0.6-1.7-0.6c-0.7,0-1.3,0.2-1.7,0.6C229.5,361.6,229.2,362.1,229.2,362.8z"/>
<path fill="#A1887F" d="M271.2,372.3c0-2.4,0.6-4.4,1.8-5.8c1.2-1.4,2.9-2.2,5.2-2.2c1.9,0,3.4,0.7,4.7,2c1.2,1.3,1.9,3.4,1.9,6.3
	c0,0.4-0.2,0.7-0.6,0.7h-10.3c0.2,1.9,0.7,3.2,1.5,3.9s1.8,1.1,2.9,1.1s2-0.2,2.6-0.6c0.6-0.4,1.1-0.8,1.3-1.1
	c0.3-0.4,0.6-0.5,0.9-0.2l0.9,0.7c0.2,0.2,0.2,0.5,0,0.8c-0.2,0.3-0.7,0.7-1.6,1.4c-0.9,0.7-2.2,0.9-4.1,0.9c-2.4,0-4.2-0.7-5.4-2.2
	C271.8,376.6,271.2,374.7,271.2,372.3z M273.9,371.3h8.3c0-1.4-0.4-2.6-1.1-3.6s-1.6-1.5-2.9-1.5c-1.1,0-2.1,0.4-2.9,1.1
	S274,369.4,273.9,371.3z"/>
<path fill="#A1887F" d="M295.6,365.3c-0.2-0.5-0.1-0.7,0.3-0.7h1.4c0.3,0,0.5,0.2,0.6,0.6l3.4,9.7c0.3,0.8,0.4,1.3,0.5,1.6
	c0.1,0.3,0.2,0.7,0.3,1.1h0.1c0.1-0.4,0.2-0.8,0.3-1.1c0.1-0.3,0.3-0.8,0.5-1.6l3.4-9.7c0.1-0.4,0.3-0.6,0.6-0.6h1.4
	c0.4,0,0.5,0.2,0.3,0.7l-4.8,13.8c-0.2,0.6-0.5,0.9-0.8,0.9h-1.9c-0.3,0-0.6-0.3-0.8-0.9L295.6,365.3z"/>
<path fill="#A1887F" d="M319.1,372.3c0-2.4,0.6-4.4,1.8-5.8c1.2-1.4,2.9-2.2,5.2-2.2c1.9,0,3.4,0.7,4.7,2c1.2,1.3,1.9,3.4,1.9,6.3
	c0,0.4-0.2,0.7-0.6,0.7h-10.3c0.2,1.9,0.7,3.2,1.5,3.9s1.8,1.1,2.9,1.1c1.1,0,2-0.2,2.6-0.6c0.6-0.4,1.1-0.8,1.3-1.1
	c0.3-0.4,0.6-0.5,0.9-0.2l0.9,0.7c0.2,0.2,0.2,0.5,0,0.8c-0.2,0.3-0.7,0.7-1.6,1.4c-0.9,0.7-2.2,0.9-4.1,0.9c-2.4,0-4.2-0.7-5.4-2.2
	C319.7,376.6,319.1,374.7,319.1,372.3z M321.8,371.3h8.3c0-1.4-0.4-2.6-1.1-3.6c-0.7-1-1.6-1.5-2.9-1.5c-1.1,0-2.1,0.4-2.9,1.1
	S321.9,369.4,321.8,371.3z"/>
<path fill="#A1887F" d="M345.3,379.9c-0.4,0-0.7-0.2-0.7-0.7v-14.1c0-0.4,0.2-0.7,0.7-0.7h1.2c0.4,0,0.7,0.2,0.7,0.7v1.2
	c0.6-0.7,1.3-1.2,2.1-1.6c0.7-0.3,1.7-0.5,2.8-0.5c1.8,0,3.1,0.5,3.9,1.5c0.8,1,1.2,2.4,1.2,4.1v9.4c0,0.4-0.2,0.7-0.7,0.7h-1.3
	c-0.4,0-0.7-0.2-0.7-0.7v-8.7c0-1.9-0.3-3.1-1-3.6c-0.6-0.5-1.4-0.8-2.4-0.8c-1.3,0-2.2,0.4-2.9,1.1c-0.7,0.7-1,2.1-1,3.9v8
	c0,0.4-0.2,0.7-0.7,0.7h-1.2V379.9z"/>
<path fill="#A1887F" d="M369.1,366.5c-0.4,0-0.7-0.2-0.7-0.5v-0.9c0-0.3,0.2-0.5,0.7-0.5h1.7v-1.3c0-0.2,0-0.4,0.1-0.6l1-1.9
	c0.2-0.3,0.3-0.5,0.5-0.5h0.5c0.3,0,0.4,0.2,0.4,0.5v3.7h3.1c0.4,0,0.7,0.2,0.7,0.5v0.9c0,0.3-0.2,0.5-0.7,0.5h-3.1v9.3
	c0,1,0.2,1.7,0.5,2c0.3,0.3,0.7,0.5,1.1,0.5c0.3,0,0.7-0.1,1.2-0.3c0.5-0.2,0.8-0.4,1-0.5c0.2-0.1,0.3-0.1,0.4,0.1l0.5,1.1
	c0.1,0.2,0,0.4-0.2,0.5c-0.4,0.2-0.9,0.4-1.7,0.7c-0.7,0.2-1.5,0.3-2.2,0.3c-1,0-1.8-0.4-2.3-1.1c-0.5-0.7-0.8-1.8-0.8-3.1v-9.5
	L369.1,366.5L369.1,366.5z"/>
<path fill="#A1887F" d="M389,378.5c-0.3-0.3-0.4-0.5-0.2-0.8l0.7-0.9c0.2-0.3,0.5-0.3,1,0c0.6,0.4,1.2,0.8,1.9,1.1
	c0.7,0.3,1.5,0.4,2.4,0.4c0.5,0,1-0.1,1.4-0.2c0.4-0.1,0.8-0.4,1.1-0.7c0.3-0.4,0.5-0.8,0.5-1.5c0-0.4-0.1-0.7-0.2-1
	c-0.1-0.3-0.4-0.6-0.7-0.8c-0.3-0.2-0.6-0.3-0.9-0.4c-0.5-0.2-1-0.3-1.5-0.5c-0.5-0.1-1.1-0.3-1.9-0.6c-0.5-0.2-1-0.4-1.5-0.7
	c-0.5-0.3-0.9-0.7-1.3-1.3c-0.4-0.5-0.5-1.3-0.5-2.2c0-0.9,0.3-1.8,0.9-2.4c0.6-0.6,1.3-1.2,2.2-1.4c0.9-0.3,1.7-0.4,2.5-0.4
	c1.2,0,2.2,0.1,2.9,0.4c0.7,0.3,1.4,0.6,1.9,1c0.3,0.2,0.4,0.5,0.1,0.8l-0.7,0.9c-0.2,0.3-0.5,0.3-1,0c-0.4-0.3-0.9-0.5-1.5-0.7
	c-0.6-0.2-1.2-0.3-1.7-0.3c-0.6,0-1.1,0.1-1.6,0.2c-0.5,0.1-0.8,0.4-1.1,0.7s-0.4,0.7-0.4,1.2c0,0.3,0.1,0.6,0.2,0.9
	c0.1,0.3,0.3,0.5,0.6,0.7c0.3,0.2,0.7,0.4,1.2,0.5c0.8,0.2,1.6,0.4,2.2,0.6c0.6,0.2,1.3,0.4,1.8,0.6c0.7,0.3,1.3,0.7,1.6,1.1
	c0.3,0.4,0.7,0.8,0.8,1.3c0.1,0.5,0.2,1,0.2,1.5c0,1-0.3,1.9-0.9,2.7s-1.3,1.2-2.1,1.4c-0.8,0.2-1.7,0.4-2.8,0.4
	c-1.5,0-2.7-0.2-3.7-0.6C390,379.2,389.3,378.8,389,378.5z"/>
</svg>
