<?xml version="1.0" encoding="utf-8"?>
<!-- Generator: Adobe Illustrator 18.0.0, SVG Export Plug-In . SVG Version: 6.00 Build 0)  -->
<!DOCTYPE svg PUBLIC "-//W3C//DTD SVG 1.1//EN" "http://www.w3.org/Graphics/SVG/1.1/DTD/svg11.dtd">
<svg version="1.1" id="Layer_1" xmlns="http://www.w3.org/2000/svg" xmlns:xlink="http://www.w3.org/1999/xlink" x="0px" y="0px"
	 viewBox="0 0 137.3 56.7" enable-background="new 0 0 137.3 56.7" xml:space="preserve">
<path fill="#A1887F" d="M81.3,39.1h-79c-0.2,0-0.4-0.2-0.4-0.3c0-0.2,0.2-0.3,0.4-0.3h79c0.2,0,0.4,0.2,0.4,0.3
	C81.7,38.9,81.5,39.1,81.3,39.1z"/>
<path fill="#A1887F" d="M134.8,39.1H93.7c-0.2,0-0.3-0.2-0.3-0.3c0-0.2,0.2-0.3,0.3-0.3h41.1c0.2,0,0.3,0.2,0.3,0.3
	C135.1,38.9,135,39.1,134.8,39.1z"/>
<path fill="#FFFFFF" d="M60.5,25c-0.1,0-0.7,0.7-1.9,2.1c-1.2,1.4-2.1,2.1-2.7,2.1c-0.9,0-1.4-1.1-1.4-3.2c0-2.3,0.4-4,1.1-5.1
	c0.1-0.1,0.2-0.3,0.4-0.3c0.2-0.1,0.3-0.1,0.3-0.1c0-0.1,0-0.2-0.1-0.3c-0.5-0.7-1.2-1.1-2.3-1.1c-0.5,0-1,0.1-1.4,0.3
	c-1.4,0.5-2.8,1.8-4.3,3.9c-1.5,2.2-2.2,4-2.2,5.5c0,1,0.5,1.5,1.4,1.5c1.5,0,3.3-1.7,5.2-5.2c-0.1,0.5-0.1,0.9-0.1,1.3
	c0,2.5,0.9,3.8,2.7,3.8c0.5,0,1-0.1,1.6-0.4c1.1-0.6,2.4-1.9,3.6-4c0.2-0.3,0.3-0.5,0.3-0.6C60.7,25.1,60.6,25,60.5,25z M50.6,27.1
	c-1,1.3-1.9,2-2.5,2c-0.4,0-0.6-0.3-0.6-0.9c0-1.4,0.9-3.1,2.7-5.3c1.3-1.5,2.5-2.2,3.6-2.2c0.1,0,0.3,0,0.4,0
	C53.2,23.1,52,25.2,50.6,27.1z"/>
<path fill="#FFFFFF" d="M115.7,21.1c0-0.3-0.1-0.6-0.3-0.8c-0.2-0.2-0.5-0.3-0.8-0.3c-0.2,0-0.4,0.1-0.7,0.4
	c-0.3,0.7-0.5,1.3-0.8,1.7c-0.3,0.4-0.5,0.9-0.8,1.4c-2.1,3.6-3.6,5.3-4.5,5.3c-0.6,0-0.9-0.5-0.9-1.5c0-0.8,1.1-3.9,1.9-5.3
	l1.2-2.1c0-0.2-0.2-0.4-0.7-0.4c-0.8,0-1.6,0.8-2.3,2.4c-0.4,0.8-0.9,2.2-1.2,3.5c-2.9,3.5-5.6,5.3-8,5.4c1.4-0.9,2.8-2.5,4-4.8
	c1.2-2.3,1.8-4.3,1.8-6c0-1.4-0.5-2.1-1.4-2.1c-1,0-2.3,0.9-3.8,2.8c-1,1.3-1.9,2.6-2.7,4.1c0-0.3,0-0.7,0.1-1.3
	c0-0.6,0.1-1,0.1-1.3c0-2-0.5-3-1.5-3c-0.9,0-1.4,0.1-1.4,0.2c0,0.1,0.1,0.3,0.2,0.5c0.2,0.2,0.2,0.4,0.2,0.7c0,1.4-0.6,2.9-1.8,4.7
	c-0.1,0.1-0.2,0.2-0.3,0.3c-0.8,0.9-1.7,1.8-2.9,2.5c-1.3,0.8-2.4,1.3-3.5,1.3c-1.1,0-1.6-0.6-1.6-1.8c0-0.5,0.1-1.1,0.3-1.8
	c1-0.4,2.2-1.1,3.4-2.3c1.4-1.3,2.1-2.4,2.1-3.3c0-0.3-0.1-0.6-0.3-0.8C88.5,19.2,88.3,19,88,19c-1.5,0-2.9,1-4.3,2.9
	c-1.2,1.6-1.8,3.2-2,4.6c-1.8,2-3.6,3-5.3,3c-1.6,0-2.4-0.9-2.4-2.7c0-1.1,0.4-2.3,1.2-3.6c0.9-1.4,1.8-2.1,2.9-2.1
	c0.8,0,1.1,0.3,1.1,0.9c0,0.1,0,0.3-0.2,0.6c-0.1,0.3-0.2,0.5-0.2,0.6c0,0.1,0.1,0.2,0.2,0.2c0.3,0,0.6-0.4,1-1.1
	c0.4-0.7,0.6-1.2,0.6-1.5c0-0.7-0.5-1.1-1.4-1.1c-1.4,0-2.9,0.9-4.5,2.6c-1.6,1.7-2.4,3.3-2.4,4.7c0,2.3,1.1,3.5,3.3,3.5
	c1.2,0,2.3-0.3,3.3-1c1-0.7,1.9-1.4,2.7-2.2c0.1,2,1,3,2.7,3c1.3,0,2.7-0.5,4.3-1.5c1.2-0.8,2.2-1.7,2.9-2.6c0.3,0,1-0.9,2.1-2.7
	c0,0.8,0,1.7,0,2.8v0.3c-1.9,2.6-3.8,5.2-5.7,7.8c-2.6,3.9-4,6.6-4,8c0,1.1,0.4,1.6,1.1,1.6c1.4,0,3.2-1.8,5.4-5.4
	c1.6-2.6,2.8-5,3.7-7.4c0.8,0.2,1.2,0.3,1.3,0.3c0.3,0,0.6,0,1.1,0c0.5,0,0.9,0,1.2,0c1.3,0,2.9-0.7,4.7-2.1
	c1.1-0.8,2.1-1.6,2.8-2.4c0,0.2-0.1,0.4-0.1,0.6c0,1.7,0.5,2.6,1.5,2.6c0.8,0,1.7-0.6,2.7-1.8c0.2-0.2,0.4-0.5,0.7-1
	c0.3-0.5,0.7-1,1.3-1.8c-0.2,0.4-0.4,0.8-0.5,1.3c-0.1,0.5-0.2,1-0.2,1.4c0,0.9,0.3,1.4,0.9,1.8c1.1,0.8,3-0.8,3.1-0.9
	c0.1,0,0.1-0.1,0.2-0.2c0,0.7-0.2,1.4-0.5,2c-0.4,1-1.1,1.5-1.9,1.6c-0.3,0-0.6-0.1-1-0.3c-0.4-0.3-0.6-0.4-0.6-0.3
	c-0.2,0-0.4,0.1-0.5,0.3c-0.2,0.3,0.1,0.6,0.8,0.9c0.6,0.3,1.1,0.4,1.4,0.4c0.9-0.1,1.6-0.7,2-1.6c0.1-0.3,0.3-0.7,0.4-1.1
	c0.1-0.4,0.2-0.9,0.2-1.4c0.1-0.4,0.1-0.8,0-1.1c0.2-0.3,0.2-0.5,0.2-0.6c-0.1-0.2-0.2-0.3-0.3-0.1c-0.6,0.6-1,1.1-1.4,1.4
	c-0.4,0.3-0.7,0.5-0.9,0.5c-0.2,0-0.4,0-0.5-0.2c-0.1-0.2-0.1-0.4-0.1-0.8c0-1.1,0.5-2.6,1.6-4.7L115.7,21.1z M85.3,22.3
	c0.8-1.3,1.5-2,1.9-2c0.4,0,0.5,0.2,0.5,0.5c0,0.7-0.5,1.5-1.4,2.5c-0.8,0.8-1.6,1.4-2.4,1.7C84.1,24.3,84.6,23.4,85.3,22.3z
	 M93.1,30.4c-0.7,2.7-1.3,4.6-1.9,5.8c-2.3,4.2-4,6.3-5.3,6.3c-0.2,0-0.3-0.1-0.3-0.4c0-0.6,0.5-2,1.6-4c0.9-1.8,1.7-3.1,2.3-4
	c1.4-2.1,2.5-3.6,3.2-4.7c0.2-0.3,0.4-0.4,0.5-0.4c0,0,0.1,0,0.1,0c-0.2,0.3-0.3,0.6-0.3,1C93,30.1,93,30.2,93.1,30.4z M96.6,30.3
	c-0.7,0.3-2.1,0-1.6-1.4c0.6-1.7,1.2-3.5,2.1-5.1c1.2-2.3,2.3-3.6,3.3-4.1c0.1-0.1,0.3-0.1,0.4-0.1c0.5,0,0.7,0.5,0.7,1.4
	c0,1.5-0.5,3.3-1.5,5.4C99,28.6,97.9,29.8,96.6,30.3z"/>
<path fill="#FFFFFF" d="M134,24.9c-0.1,0-0.4,0.4-1.1,1.3c-0.7,1-1.4,1.8-2.1,2.4c-0.9,0.8-1.8,1.3-2.6,1.3c-1.1,0-1.6-0.6-1.6-1.7
	c0-0.6,0.1-1.1,0.4-1.6c0.3-0.5,0.6-1.1,0.9-1.8c0.1-0.3,0.2-0.5,0.2-0.5c0-0.6-0.3-0.9-1-1c0,0-0.1,0.1-0.3,0.2
	c-0.2,0.1-0.5,0.5-0.9,1.2c-0.1,0.1-0.3,0.1-0.4,0.1s-0.3,0-0.4,0c0.3-0.4,0.6-0.8,0.7-1.3c0.2-0.5,0.3-1,0.3-1.6
	c0-0.6,0-1.1-0.2-1.6c-0.1-0.5-0.4-0.9-0.7-1.1c-0.3-0.3-0.8-0.4-1.3-0.4c-0.6,0-1.2,0.2-2,0.7c-1.1,0.6-1.8,1.3-2.2,2
	c-0.3,0.7-0.4,1.3-0.1,1.9c0.2,0.6,0.7,1.1,1.4,1.5c0.7,0.4,1.5,0.6,2.4,0.6c-0.4,0.5-0.6,0.9-0.8,1.1c-0.9,1.2-1.7,2.1-2.4,2.6
	c-0.7,0.5-1.3,0.6-1.6,0.5c-0.4-0.1-0.6-0.6-0.6-1.3c0-0.7,0.2-1.7,0.7-2.9c-0.1-0.2-0.2-0.4-0.4-0.5c-0.2-0.2-0.4-0.2-0.7-0.2
	c-0.3,0-0.5,0.1-0.7,0.3c-0.2,0.2-0.4,0.6-0.5,1.1c-0.2,1.1-0.2,2.1,0.1,2.7c0.3,0.7,0.7,1.1,1.3,1.3c0.6,0.2,1.3,0.2,2.1-0.1
	c0.8-0.3,1.6-0.8,2.4-1.6c0.1-0.1,0.5-0.5,1-1.1c0.5-0.6,1-1.2,1.5-1.9c0.1,0,0.3,0,0.5,0c0.2,0,0.4-0.1,0.5-0.1
	c-0.2,0.5-0.4,0.9-0.5,1.3c0,0.2,0,0.4,0,0.5s0,0.4,0,0.6c0,2.1,0.8,3.2,2.5,3.2c2.1,0,4.2-1.7,6.2-5c0.2-0.3,0.3-0.5,0.3-0.7
	C134.1,24.9,134.1,24.9,134,24.9z M124,24.6c-0.8-0.2-1.4-0.6-1.9-1.2c-0.5-0.6-0.7-1.2-0.6-1.7c0-0.5,0.3-1,0.9-1.2
	c0.5-0.3,1.4-0.2,2.7,0.2c0.2,0.1,0.3,0.2,0.3,0.5c0,0.3,0,0.6-0.1,1c-0.1,0.4-0.3,0.8-0.5,1.2C124.5,23.8,124.2,24.2,124,24.6z"/>
<path fill="#FFFFFF" d="M44.9,18c-1.1,0-2.3,0.8-3.7,2.4c-1.1,1.2-1.9,2.5-2.7,3.8c0.3-1,0.7-2.1,1.2-3.2c0.5-1.1,1-2.1,1.5-2.9
	c3.2-2,5.9-4.1,8.3-6.5C53.2,7.7,55,4.8,55,2.7c0-1.2-0.7-1.8-2-1.8c-2.3,0-5.2,2.9-8.7,8.6c-2.3,3.7-3.9,6.5-4.9,8.3
	c-1.1,2.3-1.9,4.3-2.5,6.1c-0.5,1.8-0.8,3.2-0.8,4.3c0,1.6,0.5,2.4,1.6,2.4c0.1,0,0.2-0.1,0.2-0.2c0-0.1-0.1-0.3-0.3-0.4
	c-0.2-0.2-0.3-0.4-0.3-0.7c0-1.2,0.8-3.1,2.3-5.6c1.6-2.7,2.9-4,3.9-4c0.4,0,0.7,0.5,0.7,1.4c0,1.6-0.3,3-0.8,4.3
	c-0.6,1.5-1.4,2.9-2.4,4c-1.2,1.4-2.3,2.1-3.9,2.2c-5.4,0.2-7.8-2.7-8.1-3.1c2.2-1.5,4-3.2,5.3-5.1c1.6-2.2,2.4-4.5,2.4-6.8
	c0-3.8-2.1-6.7-6.4-8.7C27,6.3,23.2,5.5,18.8,5.5c-1.9,0-4,0.2-6.3,0.5c-2.7,0.4-4.7,1-6,1.7C5.6,8.3,5.2,8.8,5.2,9.5
	c0,0.4,0.2,0.7,0.6,0.7c0.1,0,0.3-0.1,0.6-0.2c3.8-2.2,8.2-3.3,13.2-3.3c3.7,0,7,0.7,9.9,2c3.7,1.8,5.6,4.3,5.6,7.6
	c0,2.1-0.7,4.1-2.2,6.2c-1.2,1.8-2.8,3.3-4.7,4.7c-2.9-3.8-8.2-5.8-16.1-5.9c2.3-4.7,4.9-8.9,7.6-12.7c0.1-0.1,0.1-0.2,0.1-0.3
	c0-0.2-0.2-0.4-0.6-0.4c-1,0-1.7,0.3-2.2,1c-0.9,1.4-1.6,2.6-2.1,3.5c-1.6,2.8-3,5.8-4.3,8.8c-2.1,0.1-3.9,0.7-5.5,1.8
	c-1.8,1.3-2.8,2.9-2.8,4.8c0,1.6,1.1,2.9,3.4,3.9c1.7,0.7,3.5,1.1,5.5,1.2c0.6,0,1.1,0,1.8,0c5.7,0,10.7-1.3,15.1-3.9
	c0.6,1.1,4,3.5,9.4,3.2c0.1,0,0.2,0,0.2,0c0,0,0.1,0,0.1,0c0.1,0,0.2,0,0.3,0c0.1,0,0.3-0.1,0.4-0.1c0,0,0.1,0,0.1,0c0,0,0,0,0,0
	c1-0.3,2-0.9,3-1.8c1.2-1.2,2.2-2.6,3-4.1c1.1-2.3,1.7-4.4,1.7-6.2C46.2,18.6,45.8,18,44.9,18z M42.6,14.8c2-4.7,4.5-8.1,7.3-10.4
	c1.6-1.3,2.8-1.9,3.6-1.9c0.5,0,0.7,0.4,0.7,1c-0.1,1.6-1.7,4.1-5.1,7.2c-2.8,2.7-5.2,4.7-7.3,5.9C42,16.2,42.2,15.6,42.6,14.8z
	 M12.2,31.9c-0.4,0-0.8,0-1.1,0c-1.6-0.1-3-0.4-4.4-1c-1.8-0.8-2.7-1.8-2.7-3.1c0-3,1.9-4.8,5.8-5.4c-1.5,3.6-2.2,6.1-2.2,7.4
	c0,0.8,0.2,1.2,0.7,1.2c0.3,0,0.5-0.2,0.5-0.6c0-0.1,0-0.2,0-0.4c0-0.1,0-0.3,0-0.4c0-1.3,0.9-3.8,2.6-7.5c0.4,0,0.8,0,1.1,0
	c2.5,0,5.1,0.5,7.9,1.4c3.1,1.1,5.3,2.4,6.7,4.1C22.7,30.5,17.8,31.9,12.2,31.9z"/>
<path fill="#A1887F" d="M5.9,48.7c0,0.1-0.1,0.3-0.2,0.4c-0.1,0.1-0.2,0.1-0.4,0.1c-0.1,0-0.3,0-0.4-0.1c-0.1-0.1-0.2-0.2-0.2-0.4
	c0-0.1,0.1-0.3,0.2-0.4c0.1-0.1,0.2-0.2,0.4-0.2c0.1,0,0.3,0.1,0.4,0.2C5.8,48.4,5.9,48.6,5.9,48.7z M5.7,55.6c0,0.1,0,0.1,0,0.1
	c0,0-0.1,0-0.1,0H5.1c0,0-0.1,0-0.1,0c0,0,0-0.1,0-0.1v-5.2c0-0.1,0-0.1,0-0.1s0.1,0,0.1,0h0.5c0.1,0,0.1,0,0.1,0c0,0,0,0.1,0,0.1
	V55.6z"/>
<path fill="#A1887F" d="M15.3,52.8c0.2,0.1,0.3,0.1,0.5,0.2c0.1,0.1,0.2,0.2,0.3,0.3c0.1,0.1,0.1,0.3,0.2,0.4c0,0.1,0,0.3,0,0.4
	c0,0.2,0,0.5-0.1,0.6c-0.1,0.2-0.2,0.4-0.4,0.5c-0.2,0.1-0.4,0.3-0.6,0.3c-0.2,0.1-0.5,0.1-0.7,0.1h-2.3c-0.3,0-0.4-0.1-0.4-0.4
	v-4.7c0-0.3,0.1-0.4,0.4-0.4h2.2c0.5,0,0.9,0.1,1.2,0.3c0.3,0.2,0.5,0.6,0.5,1c0,0.2-0.1,0.5-0.2,0.7C15.7,52.5,15.6,52.6,15.3,52.8
	L15.3,52.8z M12.5,52.5h1.8c0.1,0,0.2,0,0.3,0c0.1,0,0.2-0.1,0.3-0.1c0.1-0.1,0.2-0.1,0.2-0.2c0.1-0.1,0.1-0.2,0.1-0.4
	c0-0.2-0.1-0.4-0.2-0.5c-0.1-0.1-0.4-0.2-0.6-0.2h-1.9L12.5,52.5L12.5,52.5z M15.5,54.1c0-0.3-0.1-0.5-0.3-0.7
	c-0.2-0.2-0.5-0.3-0.9-0.3h-1.8v2h1.8c0.3,0,0.5,0,0.6-0.1c0.2-0.1,0.3-0.2,0.4-0.3c0.1-0.1,0.1-0.2,0.2-0.3
	C15.5,54.3,15.5,54.2,15.5,54.1z"/>
<path fill="#A1887F" d="M24,50.1c0.4,0,0.7,0.1,1,0.2c0.3,0.1,0.5,0.3,0.7,0.5c0.2,0.2,0.3,0.5,0.4,0.7c0.1,0.3,0.1,0.6,0.1,0.9
	c0,0.3-0.1,0.5-0.2,0.6c-0.1,0.1-0.3,0.1-0.5,0.1h-3.2c0,0.4,0,0.7,0.1,0.9c0.1,0.3,0.2,0.5,0.4,0.6c0.2,0.2,0.3,0.3,0.6,0.3
	c0.2,0.1,0.4,0.1,0.7,0.1c0.2,0,0.5,0,0.7-0.1c0.2-0.1,0.4-0.1,0.6-0.2c0.1,0,0.1,0,0.2,0l0.2,0.4c0,0.1,0,0.1-0.1,0.2
	c-0.2,0.1-0.5,0.2-0.8,0.3c-0.3,0.1-0.6,0.1-0.8,0.1c-0.8,0-1.4-0.2-1.8-0.7c-0.4-0.5-0.7-1.2-0.7-2.2c0-0.5,0.1-0.9,0.2-1.2
	c0.1-0.4,0.3-0.7,0.5-0.9c0.2-0.2,0.5-0.4,0.8-0.6C23.4,50.2,23.7,50.1,24,50.1z M25.6,52.5c0-0.2,0-0.5-0.1-0.7
	c0-0.2-0.1-0.4-0.3-0.6c-0.1-0.2-0.3-0.3-0.5-0.4c-0.2-0.1-0.5-0.1-0.8-0.1c-0.2,0-0.5,0-0.7,0.1c-0.2,0.1-0.4,0.2-0.5,0.4
	c-0.1,0.2-0.2,0.3-0.3,0.6c-0.1,0.2-0.1,0.4-0.1,0.7L25.6,52.5L25.6,52.5z"/>
<path fill="#A1887F" d="M32.6,55.7c0,0-0.1,0-0.1,0H32c-0.1,0-0.1,0-0.1,0c0,0,0-0.1,0-0.1v-5.2c0-0.1,0-0.1,0-0.1c0,0,0.1,0,0.1,0
	h0.4c0.1,0,0.1,0,0.1,0c0,0,0,0.1,0,0.1v2.1h2.9v-2.1c0-0.1,0-0.1,0-0.1c0,0,0.1,0,0.1,0h0.4c0.1,0,0.1,0,0.1,0c0,0,0,0.1,0,0.1v5.2
	c0,0.1,0,0.1,0,0.1c0,0-0.1,0-0.1,0h-0.4c-0.1,0-0.1,0-0.1,0c0,0,0-0.1,0-0.1v-2.5h-2.9v2.5C32.6,55.6,32.6,55.7,32.6,55.7z"/>
<path fill="#A1887F" d="M44.1,55.7c0,0-0.1,0-0.1,0h-0.4c-0.1,0-0.1,0-0.1,0c0,0,0-0.1,0-0.1v-4.7h-1.7c-0.1,0-0.1,0-0.1,0
	c0,0,0-0.1,0-0.1v-0.3c0-0.1,0-0.1,0-0.1c0,0,0.1,0,0.1,0h4.2c0.1,0,0.1,0,0.1,0c0,0,0,0.1,0,0.1v0.3c0,0,0,0.1,0,0.1
	c0,0-0.1,0-0.1,0h-1.8v4.7C44.2,55.6,44.1,55.7,44.1,55.7z"/>
<path fill="#A1887F" d="M59.2,55.7c0,0-0.1,0-0.1,0h-0.5c-0.1,0-0.1,0-0.1,0c0,0,0-0.1,0-0.1v-5.2c0-0.1,0-0.1,0-0.1
	c0,0,0.1,0,0.1,0h0.5c0.1,0,0.1,0,0.1,0c0,0,0,0.1,0,0.1v2.1h1.1c0.1,0,0.2,0,0.3,0c0.1,0,0.2-0.1,0.3-0.1c0.1-0.1,0.2-0.1,0.2-0.2
	c0.1-0.1,0.1-0.2,0.2-0.4l0.4-1.3c0-0.1,0-0.1,0.1-0.1c0,0,0.1,0,0.1,0h0.5c0.1,0,0.1,0,0.1,0c0,0,0,0.1,0,0.1L62,51.7
	c-0.1,0.2-0.1,0.4-0.2,0.6c-0.1,0.2-0.2,0.3-0.4,0.4l0,0c0.3,0.1,0.5,0.2,0.6,0.4c0.1,0.2,0.2,0.4,0.3,0.6l0.5,1.8c0,0,0,0.1,0,0.1
	c0,0,0,0.1-0.1,0.1h-0.5c0,0-0.1,0-0.1,0c0,0,0,0-0.1-0.1l-0.5-1.8c-0.1-0.3-0.2-0.5-0.4-0.6c-0.2-0.1-0.4-0.2-0.6-0.2h-1.2v2.5
	C59.2,55.6,59.2,55.7,59.2,55.7z"/>
<path fill="#A1887F" d="M72.7,52.9c0,0.9-0.2,1.7-0.6,2.2c-0.4,0.5-1,0.7-1.8,0.7c-0.8,0-1.4-0.2-1.8-0.7c-0.4-0.5-0.6-1.2-0.6-2.1
	c0-0.5,0.1-0.9,0.2-1.2c0.1-0.4,0.3-0.7,0.5-0.9c0.2-0.2,0.5-0.4,0.8-0.5c0.3-0.1,0.6-0.2,1-0.2c0.8,0,1.4,0.2,1.8,0.7
	C72.5,51.4,72.7,52,72.7,52.9z M71.9,53c0-0.3,0-0.6-0.1-0.8c0-0.3-0.1-0.5-0.2-0.7c-0.1-0.2-0.3-0.4-0.5-0.5
	c-0.2-0.1-0.5-0.2-0.8-0.2c-0.3,0-0.5,0.1-0.8,0.2c-0.2,0.1-0.4,0.3-0.5,0.5c-0.1,0.2-0.2,0.4-0.3,0.7c-0.1,0.3-0.1,0.5-0.1,0.8
	c0,0.3,0,0.6,0.1,0.9c0.1,0.3,0.1,0.5,0.3,0.7c0.1,0.2,0.3,0.4,0.5,0.5c0.2,0.1,0.5,0.2,0.8,0.2c0.3,0,0.6-0.1,0.8-0.2
	c0.2-0.1,0.4-0.3,0.5-0.5c0.1-0.2,0.2-0.4,0.3-0.7C71.9,53.5,71.9,53.3,71.9,53z"/>
<path fill="#A1887F" d="M79,51.5v4.1c0,0.1,0,0.1,0,0.1c0,0-0.1,0-0.1,0h-0.4c-0.1,0-0.1,0-0.1,0c0,0,0-0.1,0-0.1v-5
	c0-0.1,0-0.2,0.1-0.2c0.1-0.1,0.2-0.1,0.3-0.1h0.3c0.1,0,0.2,0,0.2,0.1c0.1,0,0.1,0.1,0.2,0.2c0.1,0.1,0.1,0.3,0.3,0.5
	c0.1,0.2,0.2,0.5,0.3,0.7c0.1,0.3,0.2,0.5,0.4,0.7c0.1,0.2,0.2,0.4,0.3,0.5l0.6,1.3h0c0-0.1,0.1-0.2,0.2-0.4
	c0.1-0.2,0.2-0.3,0.2-0.5c0.1-0.2,0.2-0.3,0.2-0.5c0.1-0.2,0.1-0.3,0.2-0.4c0.1-0.1,0.1-0.2,0.2-0.4c0.1-0.2,0.2-0.4,0.3-0.6
	c0.1-0.2,0.2-0.4,0.3-0.6c0.1-0.2,0.2-0.3,0.2-0.4c0.1-0.1,0.1-0.2,0.2-0.2c0.1,0,0.1-0.1,0.3-0.1h0.3c0.1,0,0.2,0,0.3,0.1
	c0.1,0.1,0.1,0.2,0.1,0.2v5c0,0.1,0,0.1,0,0.1c0,0-0.1,0-0.1,0h-0.4c-0.1,0-0.1,0-0.1,0c0,0,0-0.1,0-0.1v-4.2h0l-0.5,1
	c0,0-0.1,0.1-0.1,0.3c-0.1,0.1-0.2,0.3-0.3,0.5c-0.1,0.2-0.2,0.5-0.4,0.7c-0.1,0.3-0.3,0.6-0.4,0.9c-0.1,0.1-0.1,0.2-0.1,0.2
	c-0.1,0-0.1,0.1-0.2,0.1h-0.2c-0.1,0-0.2,0-0.2-0.1c-0.1,0-0.1-0.1-0.2-0.2l-1.1-2.3c0,0-0.1-0.1-0.1-0.2c0-0.1-0.1-0.2-0.1-0.3
	c-0.1-0.1-0.1-0.2-0.2-0.3C79.1,51.6,79.1,51.5,79,51.5L79,51.5L79,51.5z"/>
<path fill="#A1887F" d="M90.6,55.7c0,0-0.1,0-0.1,0H90c-0.1,0-0.1,0-0.1,0c0,0,0-0.1,0-0.1v-5c0-0.1,0-0.2,0.1-0.3
	c0.1-0.1,0.2-0.1,0.3-0.1H94c0.2,0,0.3,0,0.3,0.1c0.1,0.1,0.1,0.2,0.1,0.3v5c0,0.1,0,0.1,0,0.1c0,0-0.1,0-0.1,0h-0.5
	c-0.1,0-0.1,0-0.1,0c0,0,0-0.1,0-0.1v-4.7h-3v4.7C90.6,55.6,90.6,55.7,90.6,55.7z"/>
<path fill="#A1887F" d="M104.4,55.2c0,0.1,0,0.2-0.1,0.3c-0.3,0.1-0.6,0.2-1,0.3c-0.4,0-0.7,0.1-1,0.1c-0.4,0-0.8,0-1.1-0.1
	c-0.3-0.1-0.5-0.2-0.7-0.4c-0.2-0.2-0.3-0.3-0.4-0.5c-0.1-0.2-0.1-0.4-0.1-0.6c0-0.3,0-0.5,0.1-0.7c0.1-0.2,0.2-0.4,0.4-0.6
	c0.2-0.2,0.4-0.3,0.7-0.4c0.3-0.1,0.6-0.1,1-0.1h1.4V52c0-0.2,0-0.3-0.1-0.5c0-0.1-0.1-0.3-0.2-0.4c-0.1-0.1-0.2-0.2-0.4-0.2
	c-0.2-0.1-0.4-0.1-0.7-0.1c-0.2,0-0.5,0-0.8,0.1c-0.3,0-0.5,0.1-0.7,0.2c0,0-0.1,0-0.1,0c0,0,0,0-0.1-0.1l-0.1-0.4
	c0-0.1,0-0.1,0.1-0.2c0.1,0,0.3-0.1,0.4-0.1c0.1,0,0.3-0.1,0.5-0.1c0.2,0,0.3,0,0.5-0.1c0.2,0,0.3,0,0.5,0c0.7,0,1.2,0.1,1.5,0.4
	c0.3,0.3,0.5,0.7,0.5,1.3L104.4,55.2L104.4,55.2z M103.6,52.9h-1.4c-0.1,0-0.3,0-0.5,0c-0.2,0-0.3,0.1-0.5,0.2
	c-0.2,0.1-0.3,0.2-0.4,0.4c-0.1,0.2-0.2,0.4-0.2,0.6c0,0.2,0,0.4,0.1,0.5c0.1,0.1,0.2,0.3,0.3,0.3c0.1,0.1,0.3,0.1,0.5,0.2
	c0.2,0,0.4,0,0.5,0c0.1,0,0.1,0,0.3,0c0.1,0,0.2,0,0.4,0c0.1,0,0.3,0,0.4-0.1c0.1,0,0.3-0.1,0.4-0.1L103.6,52.9L103.6,52.9z"/>
<path fill="#A1887F" d="M110.9,55.7c0,0-0.1,0-0.1,0h-0.4c-0.1,0-0.1,0-0.1,0c0,0,0-0.1,0-0.1v-5.2c0-0.1,0-0.1,0-0.1
	c0,0,0.1,0,0.1,0h0.4c0.1,0,0.1,0,0.1,0c0,0,0,0.1,0,0.1v2.1h2.9v-2.1c0-0.1,0-0.1,0-0.1c0,0,0.1,0,0.1,0h0.4c0.1,0,0.1,0,0.1,0
	c0,0,0,0.1,0,0.1v5.2c0,0.1,0,0.1,0,0.1c0,0-0.1,0-0.1,0h-0.4c-0.1,0-0.1,0-0.1,0c0,0,0-0.1,0-0.1v-2.5H111v2.5
	C111,55.6,111,55.7,110.9,55.7z"/>
<path fill="#A1887F" d="M121.6,48.7c0,0.1-0.1,0.3-0.2,0.4c-0.1,0.1-0.2,0.1-0.4,0.1c-0.1,0-0.3,0-0.4-0.1c-0.1-0.1-0.2-0.2-0.2-0.4
	c0-0.1,0-0.3,0.2-0.4c0.1-0.1,0.2-0.2,0.4-0.2c0.1,0,0.3,0.1,0.4,0.2C121.5,48.4,121.6,48.6,121.6,48.7z M121.5,55.6
	c0,0.1,0,0.1,0,0.1c0,0-0.1,0-0.1,0h-0.5c0,0-0.1,0-0.1,0c0,0,0-0.1,0-0.1v-5.2c0-0.1,0-0.1,0-0.1c0,0,0.1,0,0.1,0h0.5
	c0.1,0,0.1,0,0.1,0c0,0,0,0.1,0,0.1V55.6z"/>
<path fill="#A1887F" d="M131.3,50.2c0.1,0,0.2,0,0.3,0.1c0.1,0.1,0.1,0.2,0.1,0.3v5c0,0.1,0,0.1,0,0.1c0,0-0.1,0-0.1,0h-0.5
	c-0.1,0-0.1,0-0.1,0c0,0,0,0,0-0.1v-2.2h-1.5c-0.1,0-0.3,0-0.4,0c-0.1,0-0.2,0.1-0.3,0.1c-0.1,0.1-0.2,0.1-0.3,0.2
	c-0.1,0.1-0.1,0.2-0.2,0.4c-0.1,0.2-0.1,0.5-0.2,0.7c-0.1,0.2-0.1,0.5-0.2,0.7c0,0.1,0,0.1-0.1,0.1c0,0-0.1,0-0.1,0h-0.5
	c-0.1,0-0.1,0-0.1-0.1c0,0,0,0,0,0c0,0,0,0,0,0l0.5-1.5c0.1-0.2,0.1-0.4,0.2-0.5c0.1-0.1,0.3-0.3,0.5-0.3c0,0,0,0,0,0
	c-0.3-0.1-0.6-0.3-0.7-0.5c-0.1-0.3-0.2-0.5-0.2-0.8c0-0.2,0-0.4,0.1-0.6c0.1-0.2,0.2-0.4,0.3-0.5c0.2-0.1,0.3-0.3,0.5-0.3
	c0.2-0.1,0.5-0.1,0.7-0.1L131.3,50.2L131.3,50.2z M129.2,50.9c-0.2,0-0.3,0-0.5,0.1c-0.1,0.1-0.2,0.1-0.3,0.2
	c-0.1,0.1-0.1,0.2-0.2,0.3c0,0.1-0.1,0.2-0.1,0.3c0,0.3,0.1,0.5,0.3,0.7c0.2,0.2,0.5,0.3,0.8,0.3h1.7v-1.9L129.2,50.9L129.2,50.9z"
	/>
</svg>
